<svg id="Layer_1" data-name="Layer 1" xmlns="http://www.w3.org/2000/svg" viewBox="0 0 336.77 167.18"><defs><style>.cls-1{fill:none;stroke:#d9d9d9;stroke-linejoin:round;stroke-width:0.75px;}.cls-2{fill:#f03a47;}.cls-3{fill:#a5a5a5;}.cls-15,.cls-4{font-size:11.04px;}.cls-15,.cls-4,.cls-6{fill:#0d0d0d;font-family:TimesNewRomanPSMT, Times New Roman;}.cls-5{letter-spacing:0em;}.cls-6{font-size:13.2px;}.cls-7{letter-spacing:0em;}.cls-8{letter-spacing:0em;}.cls-9{letter-spacing:0em;}.cls-10{letter-spacing:-0.02em;}.cls-11{letter-spacing:-0.04em;}.cls-12{letter-spacing:0em;}.cls-13{letter-spacing:-0.01em;}.cls-14{letter-spacing:0em;}.cls-15{letter-spacing:0em;}.cls-16{letter-spacing:0em;}.cls-17{letter-spacing:-0.01em;}.cls-18{letter-spacing:0em;}</style></defs><path class="cls-1" d="M150.11,460.51H463.8M150.11,477.12H463.8M150.11,493.8H463.8M150.11,510.36H463.8M150.11,526.92H463.8M150.11,543.6H463.8" transform="translate(-127.03 -434.18)"/><path class="cls-2" d="M345.48,478h35.16v82.25H345.48Zm-156.84.84H223.8v81.41H188.64Z" transform="translate(-127.03 -434.18)"/><path class="cls-3" d="M390.12,512h35.16v48.17H390.12Zm-156.84,0h35.16v48.17H233.28Z" transform="translate(-127.03 -434.18)"/><line class="cls-1" x1="23.08" y1="126.03" x2="336.77" y2="126.03"/><text class="cls-4" transform="translate(69.58 37.85)">0.98</text><text class="cls-4" transform="translate(226.44 37.01)">0.<tspan class="cls-5" x="8.28" y="0">9</tspan><tspan x="13.82" y="0">9</tspan></text><text class="cls-4" transform="translate(114.24 71.09)">0.58</text><text class="cls-4" transform="translate(271.13 71.09)">0.58</text><text class="cls-4" transform="translate(8.26 129.56)">0</text><text class="cls-4" transform="translate(0 112.95)">0.2</text><text class="cls-4" transform="translate(0 96.32)">0.4</text><text class="cls-4" transform="translate(0 79.71)">0.6</text><text class="cls-4" transform="translate(0 63.08)">0.8</text><text class="cls-4" transform="translate(8.26 46.47)">1</text><text class="cls-4" transform="translate(0 29.84)">1.2</text><text class="cls-4" transform="translate(90.55 142.49)">2020</text><text class="cls-4" transform="translate(247.42 142.49)">2021</text><rect class="cls-2" x="136.03" y="157.54" width="5.48" height="5.48"/><text class="cls-6" transform="translate(130.11 10.97)"><tspan class="cls-7">A</tspan><tspan x="9.48" y="0">s</tspan><tspan class="cls-8" x="14.62" y="0">s</tspan><tspan x="19.78" y="0">e</tspan><tspan class="cls-9" x="25.64" y="0">t</tspan><tspan class="cls-10" x="29.36" y="0"> </tspan><tspan class="cls-11" x="32.36" y="0">T</tspan><tspan x="39.93" y="0">u</tspan><tspan class="cls-12" x="46.53" y="0">r</tspan><tspan x="50.94" y="0">nover</tspan></text><rect class="cls-3" x="173.74" y="157.54" width="5.48" height="5.48"/><text class="cls-4" transform="translate(143.93 163.8)">T<tspan class="cls-13" x="6.74" y="0">i</tspan><tspan class="cls-14" x="9.72" y="0">t</tspan><tspan x="12.83" y="0">as</tspan></text><text class="cls-15" transform="translate(181.66 163.8)">D<tspan class="cls-16" x="7.92" y="0">e</tspan><tspan class="cls-5" x="12.82" y="0">s</tspan><tspan class="cls-17" x="17.14" y="0">c</tspan><tspan class="cls-18" x="21.95" y="0">o</tspan></text></svg>