<svg id="Layer_1" data-name="Layer 1" xmlns="http://www.w3.org/2000/svg" viewBox="0 0 322.61 167.19"><defs><style>.cls-1{fill:none;stroke:#d9d9d9;stroke-linejoin:round;stroke-width:0.75px;}.cls-2{fill:#f03a47;}.cls-3{fill:#a5a5a5;}.cls-4{font-size:11.04px;}.cls-16,.cls-20,.cls-4,.cls-5,.cls-7{fill:#0d0d0d;font-family:TimesNewRomanPSMT, Times New Roman;}.cls-16,.cls-20,.cls-5{font-size:11.06px;}.cls-5{letter-spacing:0em;}.cls-6{letter-spacing:0em;}.cls-7{font-size:13.2px;}.cls-8{letter-spacing:0em;}.cls-9{letter-spacing:0em;}.cls-10{letter-spacing:0em;}.cls-11{letter-spacing:0em;}.cls-12{letter-spacing:-0.01em;}.cls-13{letter-spacing:0em;}.cls-14{letter-spacing:0em;}.cls-15{letter-spacing:0em;}.cls-17{letter-spacing:0em;}.cls-18{letter-spacing:-0.01em;}.cls-19{letter-spacing:0em;}.cls-20{letter-spacing:-0.01em;}.cls-21{letter-spacing:0em;}.cls-22{letter-spacing:-0.01em;}</style></defs><path class="cls-1" d="M162.68,420.55h294m-294,16.61h294m-294,16.68h294m-294,16.56h294m-294,16.68h294m-294,16.56h294" transform="translate(-134.11 -394.22)"/><path class="cls-2" d="M345.84,450.48h32.88v69.78H345.84Zm-147.12,0h33v69.78h-33Z" transform="translate(-134.11 -394.22)"/><path class="cls-3" d="M387.72,490.32H420.6v29.94H387.72ZM240.6,437.16h33v83.1h-33Z" transform="translate(-134.11 -394.22)"/><line class="cls-1" x1="28.57" y1="126.04" x2="322.61" y2="126.04"/><text class="cls-4" transform="translate(71.55 49.49)">1.61</text><text class="cls-4" transform="translate(218.59 49.49)">1.61</text><text class="cls-4" transform="translate(113.4 36.2)">1.65</text><text class="cls-4" transform="translate(260.45 89.38)">1.49</text><text class="cls-4" transform="translate(5.5 129.58)">1.4</text><text class="cls-4" transform="translate(0 112.95)">1.45</text><text class="cls-5" transform="translate(5.5 96.32)">1.<tspan class="cls-6" x="8.28" y="0">5</tspan></text><text class="cls-4" transform="translate(0 79.71)">1.55</text><text class="cls-5" transform="translate(5.5 63.08)">1.<tspan class="cls-6" x="8.28" y="0">6</tspan></text><text class="cls-4" transform="translate(0 46.47)">1.65</text><text class="cls-4" transform="translate(5.5 29.84)">1.7</text><text class="cls-4" transform="translate(91.13 142.49)">2020</text><text class="cls-4" transform="translate(238.18 142.49)">2021</text><rect class="cls-2" x="128.95" y="157.54" width="5.48" height="5.48"/><text class="cls-7" transform="translate(127.49 10.97)"><tspan class="cls-8">C</tspan><tspan x="8.78" y="0">u</tspan><tspan class="cls-9" x="15.38" y="0">rr</tspan><tspan class="cls-10" x="24.2" y="0">en</tspan><tspan class="cls-11" x="36.65" y="0">t</tspan><tspan class="cls-12" x="40.37" y="0"> </tspan><tspan class="cls-13" x="43.5" y="0">R</tspan><tspan class="cls-14" x="52.28" y="0">a</tspan><tspan class="cls-11" x="58.14" y="0">t</tspan><tspan class="cls-15" x="61.86" y="0">i</tspan><tspan x="65.57" y="0">o</tspan></text><rect class="cls-3" x="166.66" y="157.54" width="5.48" height="5.48"/><text class="cls-16" transform="translate(136.85 163.8)"><tspan class="cls-17">T</tspan><tspan class="cls-18" x="6.73" y="0">i</tspan><tspan class="cls-19" x="9.73" y="0">t</tspan><tspan x="12.84" y="0">as</tspan></text><text class="cls-20" transform="translate(174.58 163.8)">D<tspan class="cls-21" x="7.92" y="0">es</tspan><tspan class="cls-22" x="17.14" y="0">c</tspan><tspan class="cls-21" x="21.97" y="0">o</tspan></text></svg>