<svg id="Layer_1" data-name="Layer 1" xmlns="http://www.w3.org/2000/svg" viewBox="0 0 322.61 167.23"><defs><style>.cls-1{fill:none;stroke:#d9d9d9;stroke-linejoin:round;stroke-width:0.75px;}.cls-2{fill:#f03a47;}.cls-3{fill:#a5a5a5;}.cls-25,.cls-4{font-size:11.04px;}.cls-13,.cls-25,.cls-4,.cls-8{font-family:TimesNewRomanPSMT, Times New Roman;}.cls-5{letter-spacing:0em;}.cls-6{letter-spacing:0em;}.cls-7{letter-spacing:0em;}.cls-8{font-size:11.06px;letter-spacing:0em;}.cls-9{letter-spacing:0em;}.cls-10{letter-spacing:-0.01em;}.cls-11{letter-spacing:-0.01em;}.cls-12{letter-spacing:0em;}.cls-13{font-size:13.22px;}.cls-14{letter-spacing:0em;}.cls-15{letter-spacing:0em;}.cls-16{letter-spacing:0em;}.cls-17{letter-spacing:0em;}.cls-18{letter-spacing:0em;}.cls-19{letter-spacing:-0.02em;}.cls-20{letter-spacing:-0.07em;}.cls-21{letter-spacing:-0.06em;}.cls-22{letter-spacing:-0.01em;}.cls-23{letter-spacing:0em;}.cls-24{letter-spacing:0em;}.cls-25{letter-spacing:0em;}.cls-26{letter-spacing:0em;}.cls-27{letter-spacing:-0.01em;}.cls-28{letter-spacing:0em;}</style></defs><path class="cls-1" d="M177.35,389.51H456.72m-279.37,25H456.72M177.35,439.32H456.72m-279.37,25H456.72" transform="translate(-134.11 -363.15)"/><path class="cls-2" d="M351.36,414.12h31.32v75.09H351.36Zm-139.68-.84H243v75.93H211.68Z" transform="translate(-134.11 -363.15)"/><path class="cls-3" d="M391.08,405.48H422.4v83.73H391.08ZM251.4,397.32h31.32v91.89H251.4Z" transform="translate(-134.11 -363.15)"/><line class="cls-1" x1="43.24" y1="126.06" x2="322.61" y2="126.06"/><text class="cls-4" transform="translate(76.13 43.39)">6<tspan class="cls-5" x="5.52" y="0">0</tspan><tspan class="cls-6" x="11.06" y="0">.9</tspan><tspan class="cls-7" x="19.34" y="0">0</tspan><tspan x="24.88" y="0">%</tspan></text><text class="cls-4" transform="translate(215.86 44.23)">60.24%</text><text class="cls-4" transform="translate(115.92 27.43)">73.71%</text><text class="cls-8" transform="translate(255.65 35.49)">67.23<tspan class="cls-9" x="24.84" y="0">%</tspan></text><text class="cls-4" transform="translate(5.5 129.59)">0.0<tspan class="cls-10" x="13.8" y="0">0</tspan><tspan x="19.21" y="0">%</tspan></text><text class="cls-4" transform="translate(0 104.66)">20.<tspan class="cls-10" x="13.8" y="0">0</tspan><tspan x="19.21" y="0">0%</tspan></text><text class="cls-4" transform="translate(0 79.72)">40.<tspan class="cls-10" x="13.8" y="0">0</tspan><tspan x="19.21" y="0">0%</tspan></text><text class="cls-4" transform="translate(0 54.79)">60.<tspan class="cls-10" x="13.8" y="0">0</tspan><tspan x="19.21" y="0">0%</tspan></text><text class="cls-4" transform="translate(0 29.87)">80.<tspan class="cls-10" x="13.8" y="0">0</tspan><tspan x="19.21" y="0">0%</tspan></text><text class="cls-4" transform="translate(102.12 142.51)">2020</text><text class="cls-4" transform="translate(241.85 142.51)">2021</text><rect class="cls-2" x="128.95" y="157.57" width="5.48" height="5.48"/><rect class="cls-3" x="166.66" y="157.57" width="5.48" height="5.48"/><text class="cls-4" transform="translate(136.85 163.84)">T<tspan class="cls-11" x="6.74" y="0">i</tspan><tspan class="cls-12" x="9.72" y="0">t</tspan><tspan x="12.83" y="0">as</tspan></text><text class="cls-13" transform="translate(94.49 10.99)"><tspan class="cls-14">D</tspan><tspan class="cls-15" x="9.48" y="0">eb</tspan><tspan class="cls-16" x="21.97" y="0">t</tspan><tspan class="cls-17" x="25.67" y="0"> </tspan><tspan class="cls-16" x="28.92" y="0">t</tspan><tspan class="cls-18" x="32.62" y="0">o</tspan><tspan class="cls-19" x="39.23" y="0"> </tspan><tspan class="cls-20" x="42.23" y="0">T</tspan><tspan x="49.32" y="0">ot</tspan><tspan class="cls-16" x="59.6" y="0">al</tspan><tspan class="cls-21" x="69.2" y="0"> </tspan><tspan class="cls-22" x="71.74" y="0">A</tspan><tspan x="81.22" y="0">ss</tspan><tspan class="cls-16" x="91.52" y="0">et</tspan><tspan x="101.11" y="0">s</tspan><tspan class="cls-23" x="106.26" y="0"> </tspan><tspan class="cls-17" x="109.53" y="0">R</tspan><tspan x="118.29" y="0">a</tspan><tspan class="cls-24" x="124.16" y="0">t</tspan><tspan class="cls-16" x="127.88" y="0">i</tspan><tspan x="131.58" y="0">o</tspan></text><text class="cls-25" transform="translate(174.58 163.84)">D<tspan class="cls-26" x="7.92" y="0">e</tspan><tspan class="cls-7" x="12.82" y="0">s</tspan><tspan class="cls-27" x="17.14" y="0">c</tspan><tspan class="cls-28" x="21.95" y="0">o</tspan></text></svg>