<svg id="Layer_1" data-name="Layer 1" xmlns="http://www.w3.org/2000/svg" viewBox="0 0 322.61 167.18"><defs><style>.cls-1{fill:none;stroke:#d9d9d9;stroke-linejoin:round;stroke-width:0.75px;}.cls-2{fill:#f03a47;}.cls-3{fill:#a5a5a5;}.cls-19,.cls-4{font-size:11.04px;}.cls-19,.cls-4,.cls-5,.cls-8{fill:#0d0d0d;font-family:TimesNewRomanPSMT, Times New Roman;}.cls-5{font-size:11.06px;}.cls-6{letter-spacing:0em;}.cls-7{letter-spacing:0em;}.cls-8{font-size:13.2px;}.cls-9{letter-spacing:0em;}.cls-10{letter-spacing:0em;}.cls-11{letter-spacing:0em;}.cls-12{letter-spacing:-0.03em;}.cls-13{letter-spacing:0em;}.cls-14{letter-spacing:-0.04em;}.cls-15{letter-spacing:0em;}.cls-16{letter-spacing:0em;}.cls-17{letter-spacing:-0.01em;}.cls-18{letter-spacing:0em;}.cls-19{letter-spacing:0em;}.cls-20{letter-spacing:0em;}.cls-21{letter-spacing:-0.01em;}.cls-22{letter-spacing:0em;}</style></defs><path class="cls-1" d="M159.93,460.51H456.72m-296.79,20H456.72M159.93,500.4H456.72M159.93,520.32H456.72M159.93,540.24H456.72" transform="translate(-134.11 -434.18)"/><path class="cls-2" d="M344.76,465.6H378v94.61H344.76Zm-148.44,9.72h33.36v84.89H196.32Z" transform="translate(-134.11 -434.18)"/><path class="cls-3" d="M387,559.8h33.24v.41H387Zm-148.32-.72h33.24v1.13H238.68Z" transform="translate(-134.11 -434.18)"/><line class="cls-1" x1="25.82" y1="126.03" x2="322.61" y2="126.03"/><text class="cls-4" transform="translate(66.51 34.4)">85.12</text><text class="cls-5" transform="translate(214.95 24.63)"><tspan class="cls-6">94.9</tspan><tspan x="19.32" y="0">1</tspan></text><text class="cls-4" transform="translate(111.53 118.13)">1.<tspan class="cls-7" x="8.28" y="0">1</tspan><tspan x="13.82" y="0">6</tspan></text><text class="cls-4" transform="translate(259.97 118.9)">0.38</text><text class="cls-4" transform="translate(10.99 129.56)">0</text><text class="cls-4" transform="translate(5.5 109.61)">20</text><text class="cls-4" transform="translate(5.5 89.67)">40</text><text class="cls-4" transform="translate(5.5 69.72)">60</text><text class="cls-4" transform="translate(5.5 49.78)">80</text><text class="cls-4" transform="translate(0 29.84)">100</text><text class="cls-4" transform="translate(89.07 142.49)">2020</text><text class="cls-4" transform="translate(237.48 142.49)">2021</text><rect class="cls-2" x="128.95" y="157.54" width="5.48" height="5.48"/><text class="cls-8" transform="translate(112.01 10.97)"><tspan class="cls-9">I</tspan><tspan x="4.41" y="0">nven</tspan><tspan class="cls-10" x="30.07" y="0">t</tspan><tspan x="33.79" y="0">o</tspan><tspan class="cls-11" x="40.39" y="0">r</tspan><tspan class="cls-12" x="44.8" y="0">y</tspan><tspan class="cls-13" x="50.93" y="0"> </tspan><tspan class="cls-14" x="54.27" y="0">T</tspan><tspan class="cls-15" x="61.85" y="0">u</tspan><tspan class="cls-16" x="68.45" y="0">r</tspan><tspan class="cls-15" x="72.86" y="0">nover</tspan></text><rect class="cls-3" x="166.66" y="157.54" width="5.48" height="5.48"/><text class="cls-4" transform="translate(136.85 163.8)">T<tspan class="cls-17" x="6.74" y="0">i</tspan><tspan class="cls-18" x="9.72" y="0">t</tspan><tspan x="12.83" y="0">as</tspan></text><text class="cls-19" transform="translate(174.58 163.8)">D<tspan class="cls-20" x="7.92" y="0">e</tspan><tspan class="cls-7" x="12.82" y="0">s</tspan><tspan class="cls-21" x="17.14" y="0">c</tspan><tspan class="cls-22" x="21.95" y="0">o</tspan></text></svg>