<svg id="Layer_1" data-name="Layer 1" xmlns="http://www.w3.org/2000/svg" viewBox="0 0 322.61 167.23"><defs><style>.cls-1{fill:none;stroke:#d9d9d9;stroke-linejoin:round;stroke-width:0.75px;}.cls-2{fill:#f03a47;}.cls-3{fill:#a5a5a5;}.cls-14,.cls-4{font-size:11.04px;}.cls-14,.cls-4,.cls-6{fill:#0d0d0d;font-family:TimesNewRomanPSMT, Times New Roman;}.cls-5{letter-spacing:-0.01em;}.cls-6{font-size:13.22px;}.cls-7{letter-spacing:-0.04em;}.cls-8{letter-spacing:0.03em;}.cls-9{letter-spacing:0em;}.cls-10{letter-spacing:0em;}.cls-11{letter-spacing:0em;}.cls-12{letter-spacing:-0.01em;}.cls-13{letter-spacing:0em;}.cls-14{letter-spacing:0em;}.cls-15{letter-spacing:0em;}.cls-16{letter-spacing:0em;}.cls-17{letter-spacing:-0.01em;}.cls-18{letter-spacing:0em;}</style></defs><path class="cls-1" d="M182.85,389.51H456.72M182.85,406.08H456.72M182.85,422.76H456.72M182.85,439.32H456.72M182.85,456H456.72M182.85,472.56H456.72" transform="translate(-134.11 -363.15)"/><path class="cls-2" d="M353.4,427.44h30.72v61.77H353.4Zm-136.92,2.4H247.2v59.37H216.48Z" transform="translate(-134.11 -363.15)"/><path class="cls-3" d="M392.4,444.48h30.72v44.73H392.4ZM255.48,402.24H286.2v87H255.48Z" transform="translate(-134.11 -363.15)"/><line class="cls-1" x1="48.74" y1="126.06" x2="322.61" y2="126.06"/><text class="cls-4" transform="translate(80.67 59.9)">71.50%</text><text class="cls-4" transform="translate(217.63 57.55)">74.32%</text><text class="cls-4" transform="translate(116.91 32.3)">104.70%</text><text class="cls-4" transform="translate(256.63 74.61)">53.79%</text><text class="cls-4" transform="translate(10.99 129.59)">0.0<tspan class="cls-5" x="13.8" y="0">0</tspan><tspan x="19.21" y="0">%</tspan></text><text class="cls-4" transform="translate(5.5 112.96)">20.<tspan class="cls-5" x="13.8" y="0">0</tspan><tspan x="19.21" y="0">0%</tspan></text><text class="cls-4" transform="translate(5.5 96.35)">40.<tspan class="cls-5" x="13.8" y="0">0</tspan><tspan x="19.21" y="0">0%</tspan></text><text class="cls-4" transform="translate(5.5 79.72)">60.<tspan class="cls-5" x="13.8" y="0">0</tspan><tspan x="19.21" y="0">0%</tspan></text><text class="cls-4" transform="translate(5.5 63.11)">80.<tspan class="cls-5" x="13.8" y="0">0</tspan><tspan x="19.21" y="0">0%</tspan></text><text class="cls-4" transform="translate(0 46.48)">100<tspan class="cls-5" x="16.56" y="0">.</tspan><tspan x="19.21" y="0">00%</tspan></text><text class="cls-4" transform="translate(0 29.87)">120<tspan class="cls-5" x="16.56" y="0">.</tspan><tspan x="19.21" y="0">00%</tspan></text><text class="cls-4" transform="translate(106.25 142.51)">2020</text><text class="cls-4" transform="translate(243.22 142.51)">2021</text><rect class="cls-2" x="128.95" y="157.57" width="5.48" height="5.48"/><text class="cls-6" transform="translate(129.29 10.99)">Pa<tspan class="cls-7" x="13.22" y="0">y</tspan><tspan x="19.33" y="0">out</tspan><tspan class="cls-8" x="36.23" y="0"> </tspan><tspan class="cls-9" x="39.95" y="0">R</tspan><tspan x="48.72" y="0">a</tspan><tspan class="cls-10" x="54.58" y="0">t</tspan><tspan class="cls-11" x="58.3" y="0">i</tspan><tspan x="62" y="0">o</tspan></text><rect class="cls-3" x="166.66" y="157.57" width="5.48" height="5.48"/><text class="cls-4" transform="translate(136.85 163.84)">T<tspan class="cls-12" x="6.74" y="0">i</tspan><tspan class="cls-13" x="9.72" y="0">t</tspan><tspan x="12.83" y="0">as</tspan></text><text class="cls-14" transform="translate(174.58 163.84)">D<tspan class="cls-15" x="7.92" y="0">e</tspan><tspan class="cls-16" x="12.82" y="0">s</tspan><tspan class="cls-17" x="17.14" y="0">c</tspan><tspan class="cls-18" x="21.95" y="0">o</tspan></text></svg>