<svg id="Layer_1" data-name="Layer 1" xmlns="http://www.w3.org/2000/svg" viewBox="0 0 336.77 167.23"><defs><style>.cls-1{fill:none;stroke:#d9d9d9;stroke-linejoin:round;stroke-width:0.75px;}.cls-2{fill:#f03a47;}.cls-3{fill:#a5a5a5;}.cls-13,.cls-4{font-size:11.04px;}.cls-13,.cls-4,.cls-6{fill:#0d0d0d;font-family:TimesNewRomanPSMT, Times New Roman;}.cls-5{letter-spacing:-0.01em;}.cls-6{font-size:13.22px;}.cls-7{letter-spacing:0em;}.cls-8{letter-spacing:0em;}.cls-9{letter-spacing:-0.01em;}.cls-10{letter-spacing:-0.01em;}.cls-11{letter-spacing:-0.01em;}.cls-12{letter-spacing:0em;}.cls-13{letter-spacing:0em;}.cls-14{letter-spacing:0em;}.cls-15{letter-spacing:0em;}.cls-16{letter-spacing:-0.01em;}.cls-17{letter-spacing:0em;}</style></defs><path class="cls-1" d="M164.77,389.51h299m-299,19.93h299m-299,19.92h299m-299,19.92h299m-299,20h299" transform="translate(-127.03 -363.15)"/><path class="cls-2" d="M351,411.84h33.48v77.37H351Zm-149.52-6.72H235v84.09H201.48Z" transform="translate(-127.03 -363.15)"/><path class="cls-3" d="M393.6,421.44h33.48v67.77H393.6ZM244.08,442.92h33.48v46.29H244.08Z" transform="translate(-127.03 -363.15)"/><line class="cls-1" x1="37.74" y1="126.06" x2="336.77" y2="126.06"/><text class="cls-4" transform="translate(76.95 35.13)">2.11%</text><text class="cls-4" transform="translate(226.49 41.92)">1.94%</text><text class="cls-4" transform="translate(119.52 73.03)">1.16%</text><text class="cls-4" transform="translate(269.07 51.5)">1.70%</text><text class="cls-4" transform="translate(0 129.59)">0.0<tspan class="cls-5" x="13.8" y="0">0</tspan><tspan x="19.21" y="0">%</tspan></text><text class="cls-4" transform="translate(0 109.65)">0.5<tspan class="cls-5" x="13.8" y="0">0</tspan><tspan x="19.21" y="0">%</tspan></text><text class="cls-4" transform="translate(0 89.71)">1.0<tspan class="cls-5" x="13.8" y="0">0</tspan><tspan x="19.21" y="0">%</tspan></text><text class="cls-4" transform="translate(0 69.76)">1.5<tspan class="cls-5" x="13.8" y="0">0</tspan><tspan x="19.21" y="0">%</tspan></text><text class="cls-4" transform="translate(0 49.82)">2.0<tspan class="cls-5" x="13.8" y="0">0</tspan><tspan x="19.21" y="0">%</tspan></text><text class="cls-4" transform="translate(0 29.87)">2.5<tspan class="cls-5" x="13.8" y="0">0</tspan><tspan x="19.21" y="0">%</tspan></text><text class="cls-4" transform="translate(101.55 142.51)">2020</text><text class="cls-4" transform="translate(251.09 142.51)">2021</text><rect class="cls-2" x="136.03" y="157.57" width="5.48" height="5.48"/><text class="cls-6" transform="translate(134.55 10.99)">Prof<tspan class="cls-7" x="22.77" y="0">i</tspan><tspan class="cls-8" x="26.5" y="0">t</tspan><tspan class="cls-9" x="30.2" y="0"> </tspan><tspan x="33.32" y="0">Ma</tspan><tspan class="cls-10" x="50.95" y="0">r</tspan><tspan x="55.17" y="0">gin</tspan></text><rect class="cls-3" x="173.74" y="157.57" width="5.48" height="5.48"/><text class="cls-4" transform="translate(143.93 163.84)">T<tspan class="cls-11" x="6.74" y="0">i</tspan><tspan class="cls-12" x="9.72" y="0">t</tspan><tspan x="12.83" y="0">as</tspan></text><text class="cls-13" transform="translate(181.66 163.84)">D<tspan class="cls-14" x="7.92" y="0">e</tspan><tspan class="cls-15" x="12.82" y="0">s</tspan><tspan class="cls-16" x="17.14" y="0">c</tspan><tspan class="cls-17" x="21.95" y="0">o</tspan></text></svg>