<svg id="Layer_1" data-name="Layer 1" xmlns="http://www.w3.org/2000/svg" viewBox="0 0 322.61 167.18"><defs><style>.cls-1{fill:none;stroke:#d9d9d9;stroke-linejoin:round;stroke-width:0.75px;}.cls-2{fill:#f03a47;}.cls-3{fill:#a5a5a5;}.cls-16,.cls-4{font-size:11.04px;}.cls-16,.cls-4,.cls-5{fill:#0d0d0d;font-family:TimesNewRomanPSMT, Times New Roman;}.cls-5{font-size:13.2px;}.cls-6{letter-spacing:0em;}.cls-7{letter-spacing:0em;}.cls-8{letter-spacing:0em;}.cls-9{letter-spacing:0em;}.cls-10{letter-spacing:0em;}.cls-11{letter-spacing:-0.03em;}.cls-12{letter-spacing:-0.04em;}.cls-13{letter-spacing:0em;}.cls-14{letter-spacing:-0.01em;}.cls-15{letter-spacing:0em;}.cls-16{letter-spacing:0em;}.cls-17{letter-spacing:0em;}.cls-18{letter-spacing:0em;}.cls-19{letter-spacing:-0.01em;}.cls-20{letter-spacing:0em;}</style></defs><path class="cls-1" d="M154.43,460.51H456.72m-302.29,20H456.72M154.43,500.4H456.72M154.43,520.32H456.72M154.43,540.24H456.72" transform="translate(-134.11 -434.18)"/><path class="cls-2" d="M342.72,529.56h33.84v30.65H342.72Zm-151.2-3h34v33.65h-34Z" transform="translate(-134.11 -434.18)"/><path class="cls-3" d="M385.68,477.6h34v82.61h-34ZM234.6,487.92h33.84v72.29H234.6Z" transform="translate(-134.11 -434.18)"/><line class="cls-1" x1="20.32" y1="126.03" x2="322.61" y2="126.03"/><text class="cls-4" transform="translate(64.75 85.59)">3.38</text><text class="cls-4" transform="translate(215.93 88.66)">3.07</text><text class="cls-4" transform="translate(107.81 47)">7.25</text><text class="cls-4" transform="translate(258.99 36.72)">8.28</text><text class="cls-4" transform="translate(5.5 129.56)">0</text><text class="cls-4" transform="translate(5.5 109.61)">2</text><text class="cls-4" transform="translate(5.5 89.67)">4</text><text class="cls-4" transform="translate(5.5 69.72)">6</text><text class="cls-4" transform="translate(5.5 49.78)">8</text><text class="cls-4" transform="translate(0 29.84)">10</text><text class="cls-4" transform="translate(84.94 142.49)">2020</text><text class="cls-4" transform="translate(236.11 142.49)">2021</text><rect class="cls-2" x="128.95" y="157.54" width="5.48" height="5.48"/><text class="cls-5" transform="translate(105.77 10.97)"><tspan class="cls-6">R</tspan><tspan x="8.78" y="0">ec</tspan><tspan class="cls-7" x="20.5" y="0">ei</tspan><tspan x="30.1" y="0">vab</tspan><tspan class="cls-8" x="49.16" y="0">l</tspan><tspan class="cls-9" x="52.88" y="0">e</tspan><tspan class="cls-10" x="58.74" y="0">s</tspan><tspan class="cls-11" x="63.89" y="0"> </tspan><tspan class="cls-12" x="66.77" y="0">T</tspan><tspan x="74.34" y="0">u</tspan><tspan class="cls-10" x="80.94" y="0">r</tspan><tspan class="cls-13" x="85.35" y="0">nover</tspan></text><rect class="cls-3" x="166.66" y="157.54" width="5.48" height="5.48"/><text class="cls-4" transform="translate(136.85 163.8)">T<tspan class="cls-14" x="6.74" y="0">i</tspan><tspan class="cls-15" x="9.72" y="0">t</tspan><tspan x="12.83" y="0">as</tspan></text><text class="cls-16" transform="translate(174.58 163.8)">D<tspan class="cls-17" x="7.92" y="0">e</tspan><tspan class="cls-18" x="12.82" y="0">s</tspan><tspan class="cls-19" x="17.14" y="0">c</tspan><tspan class="cls-20" x="21.95" y="0">o</tspan></text></svg>