<svg id="Layer_1" data-name="Layer 1" xmlns="http://www.w3.org/2000/svg" viewBox="0 0 336.77 167.18"><defs><style>.cls-1{fill:none;stroke:#d9d9d9;stroke-linejoin:round;stroke-width:0.75px;}.cls-2{fill:#f03a47;}.cls-3{fill:#a5a5a5;}.cls-19,.cls-4{font-size:11.04px;}.cls-19,.cls-4,.cls-5,.cls-8{fill:#0d0d0d;font-family:TimesNewRomanPSMT, Times New Roman;}.cls-5{font-size:11.06px;}.cls-6{letter-spacing:0em;}.cls-7{letter-spacing:-0.01em;}.cls-8{font-size:13.2px;}.cls-9{letter-spacing:0em;}.cls-10{letter-spacing:0em;}.cls-11{letter-spacing:0em;}.cls-12{letter-spacing:0em;}.cls-13{letter-spacing:0em;}.cls-14{letter-spacing:-0.06em;}.cls-15{letter-spacing:0em;}.cls-16{letter-spacing:0em;}.cls-17{letter-spacing:-0.01em;}.cls-18{letter-spacing:0em;}.cls-19{letter-spacing:0em;}.cls-20{letter-spacing:0em;}.cls-21{letter-spacing:0em;}.cls-22{letter-spacing:-0.01em;}.cls-23{letter-spacing:0em;}</style></defs><path class="cls-1" d="M164.77,460.51h299m-299,20h299m-299,19.92h299m-299,19.92h299m-299,19.92h299" transform="translate(-127.03 -434.18)"/><path class="cls-2" d="M351,483.6h33.48v76.61H351Zm-149.52-6.72H235v83.33H201.48Z" transform="translate(-127.03 -434.18)"/><path class="cls-3" d="M393.6,520.68h33.48v39.53H393.6ZM244.08,533.52h33.48v26.69H244.08Z" transform="translate(-127.03 -434.18)"/><line class="cls-1" x1="37.74" y1="126.03" x2="336.77" y2="126.03"/><text class="cls-4" transform="translate(76.95 35.91)">2.09%</text><text class="cls-4" transform="translate(226.49 42.7)">1.92%</text><text class="cls-5" transform="translate(119.52 92.55)"><tspan class="cls-6">0.67</tspan><tspan x="19.32" y="0">%</tspan></text><text class="cls-4" transform="translate(269.07 79.8)">0.99%</text><text class="cls-4" transform="translate(0 129.56)">0.0<tspan class="cls-7" x="13.8" y="0">0</tspan><tspan x="19.21" y="0">%</tspan></text><text class="cls-4" transform="translate(0 109.61)">0.5<tspan class="cls-7" x="13.8" y="0">0</tspan><tspan x="19.21" y="0">%</tspan></text><text class="cls-4" transform="translate(0 89.67)">1.0<tspan class="cls-7" x="13.8" y="0">0</tspan><tspan x="19.21" y="0">%</tspan></text><text class="cls-4" transform="translate(0 69.72)">1.5<tspan class="cls-7" x="13.8" y="0">0</tspan><tspan x="19.21" y="0">%</tspan></text><text class="cls-4" transform="translate(0 49.78)">2.0<tspan class="cls-7" x="13.8" y="0">0</tspan><tspan x="19.21" y="0">%</tspan></text><text class="cls-4" transform="translate(0 29.84)">2.5<tspan class="cls-7" x="13.8" y="0">0</tspan><tspan x="19.21" y="0">%</tspan></text><text class="cls-4" transform="translate(101.55 142.49)">2020</text><text class="cls-4" transform="translate(251.09 142.49)">2021</text><rect class="cls-2" x="136.03" y="157.54" width="5.48" height="5.48"/><text class="cls-8" transform="translate(125.91 10.97)"><tspan class="cls-9">R</tspan><tspan x="8.78" y="0">e</tspan><tspan class="cls-10" x="14.64" y="0">t</tspan><tspan x="18.36" y="0">u</tspan><tspan class="cls-11" x="24.96" y="0">r</tspan><tspan x="29.37" y="0">n</tspan><tspan class="cls-12" x="35.97" y="0"> </tspan><tspan class="cls-13" x="39.21" y="0">on</tspan><tspan class="cls-14" x="52.41" y="0"> </tspan><tspan class="cls-12" x="54.95" y="0">A</tspan><tspan x="64.43" y="0">s</tspan><tspan class="cls-15" x="69.56" y="0">s</tspan><tspan class="cls-16" x="74.73" y="0">e</tspan><tspan class="cls-10" x="80.59" y="0">t</tspan><tspan x="84.31" y="0">s</tspan></text><rect class="cls-3" x="173.74" y="157.54" width="5.48" height="5.48"/><text class="cls-4" transform="translate(143.93 163.8)">T<tspan class="cls-17" x="6.74" y="0">i</tspan><tspan class="cls-18" x="9.72" y="0">t</tspan><tspan x="12.83" y="0">as</tspan></text><text class="cls-19" transform="translate(181.66 163.8)">D<tspan class="cls-20" x="7.92" y="0">e</tspan><tspan class="cls-21" x="12.82" y="0">s</tspan><tspan class="cls-22" x="17.14" y="0">c</tspan><tspan class="cls-23" x="21.95" y="0">o</tspan></text></svg>