<svg id="Layer_1" data-name="Layer 1" xmlns="http://www.w3.org/2000/svg" viewBox="0 0 322.61 167.18"><defs><style>.cls-1{fill:none;stroke:#d9d9d9;stroke-linejoin:round;stroke-width:0.75px;}.cls-2{fill:#f03a47;}.cls-3{fill:#a5a5a5;}.cls-22,.cls-4{font-size:11.04px;}.cls-22,.cls-4,.cls-8{fill:#0d0d0d;font-family:TimesNewRomanPSMT, Times New Roman;}.cls-5{letter-spacing:-0.01em;}.cls-6{letter-spacing:-0.01em;}.cls-7{letter-spacing:0em;}.cls-8{font-size:13.2px;}.cls-9{letter-spacing:0em;}.cls-10{letter-spacing:0em;}.cls-11{letter-spacing:0em;}.cls-12{letter-spacing:0em;}.cls-13{letter-spacing:-0.01em;}.cls-14{letter-spacing:-0.02em;}.cls-15{letter-spacing:0em;}.cls-16{letter-spacing:0.04em;}.cls-17{letter-spacing:0em;}.cls-18{letter-spacing:0em;}.cls-19{letter-spacing:0.04em;}.cls-20{letter-spacing:-0.06em;}.cls-21{letter-spacing:0em;}.cls-22{letter-spacing:0em;}.cls-23{letter-spacing:0em;}.cls-24{letter-spacing:0em;}.cls-25{letter-spacing:-0.01em;}.cls-26{letter-spacing:0em;}</style></defs><path class="cls-1" d="M171.85,460.51H456.72M171.85,485.4H456.72m-284.87,25H456.72m-284.87,25H456.72" transform="translate(-134.11 -434.18)"/><path class="cls-2" d="M349.2,470.28h32v89.93h-32ZM206.76,469h32v91.25h-32Z" transform="translate(-134.11 -434.18)"/><path class="cls-3" d="M389.76,480.72h32v79.49h-32Zm-142.44,5.76h32v73.73h-32Z" transform="translate(-134.11 -434.18)"/><line class="cls-1" x1="37.74" y1="126.03" x2="322.61" y2="126.03"/><text class="cls-4" transform="translate(74.38 28.04)">3.66%</text><text class="cls-4" transform="translate(216.84 29.28)">3.61%</text><text class="cls-4" transform="translate(114.96 45.48)">2.96%</text><text class="cls-4" transform="translate(257.43 39.75)">3.19%</text><text class="cls-4" transform="translate(0 129.56)">0.0<tspan class="cls-5" x="13.8" y="0">0</tspan><tspan x="19.21" y="0">%</tspan></text><text class="cls-4" transform="translate(0 104.64)">1.0<tspan class="cls-5" x="13.8" y="0">0</tspan><tspan x="19.21" y="0">%</tspan></text><text class="cls-4" transform="translate(0 79.71)">2.0<tspan class="cls-5" x="13.8" y="0">0</tspan><tspan x="19.21" y="0">%</tspan></text><text class="cls-4" transform="translate(0 54.77)">3.0<tspan class="cls-5" x="13.8" y="0">0</tspan><tspan x="19.21" y="0">%</tspan></text><text class="cls-4" transform="translate(0 29.84)">4.0<tspan class="cls-5" x="13.8" y="0">0</tspan><tspan x="19.21" y="0">%</tspan></text><text class="cls-4" transform="translate(97.99 142.49)">2020</text><text class="cls-4" transform="translate(240.46 142.49)">2021</text><rect class="cls-2" x="128.95" y="157.54" width="5.48" height="5.48"/><rect class="cls-3" x="166.66" y="157.54" width="5.48" height="5.48"/><text class="cls-4" transform="translate(136.85 163.8)">T<tspan class="cls-6" x="6.74" y="0">i</tspan><tspan class="cls-7" x="9.72" y="0">t</tspan><tspan x="12.83" y="0">as</tspan></text><text class="cls-8" transform="translate(53.91 10.97)"><tspan class="cls-9">R</tspan><tspan x="8.78" y="0">e</tspan><tspan class="cls-10" x="14.64" y="0">t</tspan><tspan x="18.36" y="0">u</tspan><tspan class="cls-11" x="24.96" y="0">r</tspan><tspan x="29.37" y="0">n</tspan><tspan class="cls-12" x="35.97" y="0"> </tspan><tspan x="39.2" y="0">on</tspan><tspan class="cls-12" x="52.4" y="0"> </tspan><tspan class="cls-9" x="55.63" y="0">C</tspan><tspan x="64.41" y="0">o</tspan><tspan class="cls-13" x="71.01" y="0">m</tspan><tspan class="cls-14" x="81.11" y="0">m</tspan><tspan class="cls-15" x="91.08" y="0">on</tspan><tspan class="cls-16" x="104.28" y="0"> </tspan><tspan x="108.1" y="0">Sto</tspan><tspan class="cls-17" x="125.71" y="0">c</tspan><tspan x="131.61" y="0">kho</tspan><tspan class="cls-17" x="151.41" y="0">l</tspan><tspan class="cls-18" x="155.11" y="0">de</tspan><tspan class="cls-19" x="167.57" y="0">r</tspan><tspan class="cls-20" x="172.48" y="0">’</tspan><tspan class="cls-18" x="176.09" y="0">s </tspan><tspan class="cls-21" x="184.52" y="0">E</tspan><tspan class="cls-18" x="192.53" y="0">qu</tspan><tspan class="cls-17" x="205.73" y="0">it</tspan><tspan x="213.15" y="0">y</tspan></text><text class="cls-22" transform="translate(174.58 163.8)">D<tspan class="cls-23" x="7.92" y="0">e</tspan><tspan class="cls-24" x="12.82" y="0">s</tspan><tspan class="cls-25" x="17.14" y="0">c</tspan><tspan class="cls-26" x="21.95" y="0">o</tspan></text></svg>