<svg version="1.1" viewBox="0.0 0.0 540.0 305.0" fill="none" stroke="none" stroke-linecap="square" stroke-miterlimit="10" width="540" height="305" xmlns:xlink="http://www.w3.org/1999/xlink" xmlns="http://www.w3.org/2000/svg"><path fill="#ffffff" fill-opacity="0.0" d="M0 0L540.0 0L540.0 305.0L0 305.0L0 0Z" fill-rule="nonzero"/><path fill="#ea4335" d="M218.34193 277.5144C170.63358 253.57098 145.63103 199.98206 157.93398 148.03966C170.23691 96.09726 216.62047 59.416668 270.0 59.416668L270.0 117.0C243.31023 117.0 220.11845 135.3403 213.96698 161.3115C207.81552 187.2827 220.31679 214.07716 244.17096 226.04887Z" fill-rule="nonzero"/><path fill="#4285f4" d="M270.0 59.416668C317.59476 59.416668 360.28656 88.69412 377.43326 133.0929C394.57996 177.49168 382.6488 227.86438 347.40872 259.85495C312.16864 291.84555 260.8801 298.86307 218.34193 277.5144L244.17096 226.04887C265.44006 236.72319 291.08432 233.21445 308.70438 217.21915C326.3244 201.22386 332.28998 176.0375 323.71664 153.83812C315.14328 131.63873 293.79736 117.0 270.0 117.0Z" fill-rule="nonzero"/><path fill="#000000" d="M24.890625 132.0231L25.125 135.63248L24.890625 135.63248Q24.40625 134.00748 23.5 133.30435Q22.609375 132.5856 21.34375 132.5856Q20.296875 132.5856 19.4375 133.13248Q18.59375 133.66373 18.09375 134.8356Q17.609375 136.00748 17.609375 137.74185Q17.609375 139.17935 18.0625 140.24185Q18.53125 141.28873 19.453125 141.85123Q20.390625 142.41373 21.578125 142.41373Q22.609375 142.41373 23.390625 141.97623Q24.1875 141.53873 25.125 140.22623L25.375 140.38248Q24.578125 141.78873 23.515625 142.4606Q22.453125 143.11685 20.984375 143.11685Q18.359375 143.11685 16.90625 141.1481Q15.828125 139.69498 15.828125 137.72623Q15.828125 136.1481 16.53125 134.81998Q17.25 133.49185 18.5 132.75748Q19.75 132.0231 21.21875 132.0231Q22.375 132.0231 23.484375 132.5856Q23.8125 132.75748 23.953125 132.75748Q24.171875 132.75748 24.328125 132.61685Q24.53125 132.3981 24.609375 132.0231L24.890625 132.0231ZM33.03125 135.7106L33.03125 140.03873Q33.03125 141.28873 33.078125 141.56998Q33.140625 141.8356 33.265625 141.94498Q33.40625 142.05435 33.578125 142.05435Q33.8125 142.05435 34.125 141.92935L34.234375 142.19498L32.09375 143.0856L31.734375 143.0856L31.734375 141.56998Q30.8125 142.56998 30.328125 142.8356Q29.84375 143.0856 29.3125 143.0856Q28.703125 143.0856 28.265625 142.74185Q27.828125 142.38248 27.65625 141.8356Q27.484375 141.28873 27.484375 140.28873L27.484375 137.10123Q27.484375 136.5856 27.375 136.3981Q27.265625 136.19498 27.046875 136.10123Q26.828125 135.99185 26.265625 135.99185L26.265625 135.7106L28.78125 135.7106L28.78125 140.49185Q28.78125 141.49185 29.125 141.80435Q29.46875 142.11685 29.96875 142.11685Q30.296875 142.11685 30.71875 141.91373Q31.15625 141.69498 31.734375 141.10123L31.734375 137.05435Q31.734375 136.44498 31.515625 136.22623Q31.296875 136.00748 30.59375 135.99185L30.59375 135.7106L33.03125 135.7106ZM35.84375 135.49185L35.84375 137.10123Q36.75 135.49185 37.6875 135.49185Q38.125 135.49185 38.40625 135.75748Q38.6875 136.0231 38.6875 136.36685Q38.6875 136.66373 38.484375 136.88248Q38.28125 137.0856 38.0 137.0856Q37.71875 137.0856 37.375 136.81998Q37.046875 136.55435 36.875 136.55435Q36.734375 136.55435 36.578125 136.7106Q36.21875 137.0231 35.84375 137.75748L35.84375 141.19498Q35.84375 141.78873 36.0 142.0856Q36.09375 142.30435 36.34375 142.44498Q36.609375 142.5856 37.09375 142.5856L37.09375 142.86685L33.4375 142.86685L33.4375 142.5856Q33.984375 142.5856 34.25 142.41373Q34.4375 142.28873 34.515625 142.00748Q34.5625 141.88248 34.5625 141.25748L34.5625 138.47623Q34.5625 137.22623 34.5 136.99185Q34.453125 136.75748 34.3125 136.6481Q34.1875 136.53873 33.984375 136.53873Q33.734375 136.53873 33.4375 136.6481L33.359375 136.36685L35.515625 135.49185L35.84375 135.49185ZM40.84375 135.49185L40.84375 137.10123Q41.75 135.49185 42.6875 135.49185Q43.125 135.49185 43.40625 135.75748Q43.6875 136.0231 43.6875 136.36685Q43.6875 136.66373 43.484375 136.88248Q43.28125 137.0856 43.0 137.0856Q42.71875 137.0856 42.375 136.81998Q42.046875 136.55435 41.875 136.55435Q41.734375 136.55435 41.578125 136.7106Q41.21875 137.0231 40.84375 137.75748L40.84375 141.19498Q40.84375 141.78873 41.0 142.0856Q41.09375 142.30435 41.34375 142.44498Q41.609375 142.5856 42.09375 142.5856L42.09375 142.86685L38.4375 142.86685L38.4375 142.5856Q38.984375 142.5856 39.25 142.41373Q39.4375 142.28873 39.515625 142.00748Q39.5625 141.88248 39.5625 141.25748L39.5625 138.47623Q39.5625 137.22623 39.5 136.99185Q39.453125 136.75748 39.3125 136.6481Q39.1875 136.53873 38.984375 136.53873Q38.734375 136.53873 38.4375 136.6481L38.359375 136.36685L40.515625 135.49185L40.84375 135.49185ZM44.953125 138.3981Q44.953125 139.99185 45.734375 140.8981Q46.515625 141.80435 47.5625 141.80435Q48.265625 141.80435 48.78125 141.42935Q49.3125 141.03873 49.65625 140.10123L49.90625 140.25748Q49.734375 141.31998 48.9375 142.2106Q48.15625 143.0856 46.96875 143.0856Q45.6875 143.0856 44.765625 142.0856Q43.84375 141.06998 43.84375 139.38248Q43.84375 137.53873 44.78125 136.5231Q45.734375 135.49185 47.15625 135.49185Q48.359375 135.49185 49.125 136.28873Q49.90625 137.06998 49.90625 138.3981L44.953125 138.3981ZM44.953125 137.94498L48.265625 137.94498Q48.234375 137.25748 48.109375 136.97623Q47.90625 136.53873 47.515625 136.28873Q47.140625 136.03873 46.71875 136.03873Q46.0625 136.03873 45.546875 136.55435Q45.046875 137.05435 44.953125 137.94498ZM52.84375 137.00748Q54.09375 135.49185 55.234375 135.49185Q55.828125 135.49185 56.25 135.78873Q56.671875 136.0856 56.921875 136.75748Q57.09375 137.22623 57.09375 138.19498L57.09375 141.24185Q57.09375 141.92935 57.203125 142.16373Q57.28125 142.36685 57.46875 142.47623Q57.671875 142.5856 58.1875 142.5856L58.1875 142.86685L54.640625 142.86685L54.640625 142.5856L54.796875 142.5856Q55.296875 142.5856 55.484375 142.42935Q55.6875 142.2731 55.765625 141.97623Q55.796875 141.86685 55.796875 141.24185L55.796875 138.31998Q55.796875 137.3356 55.546875 136.8981Q55.296875 136.4606 54.6875 136.4606Q53.765625 136.4606 52.84375 137.47623L52.84375 141.24185Q52.84375 141.97623 52.921875 142.1481Q53.03125 142.36685 53.21875 142.47623Q53.421875 142.5856 54.0 142.5856L54.0 142.86685L50.46875 142.86685L50.46875 142.5856L50.625 142.5856Q51.171875 142.5856 51.359375 142.30435Q51.546875 142.0231 51.546875 141.24185L51.546875 138.5856Q51.546875 137.30435 51.484375 137.0231Q51.4375 136.74185 51.3125 136.6481Q51.1875 136.53873 50.984375 136.53873Q50.765625 136.53873 50.46875 136.6481L50.34375 136.36685L52.5 135.49185L52.84375 135.49185L52.84375 137.00748ZM59.828125 133.35123L59.828125 135.7106L61.5 135.7106L61.5 136.25748L59.828125 136.25748L59.828125 140.8981Q59.828125 141.5856 60.03125 141.8356Q60.234375 142.06998 60.546875 142.06998Q60.796875 142.06998 61.03125 141.91373Q61.28125 141.75748 61.421875 141.44498L61.71875 141.44498Q61.453125 142.2106 60.953125 142.60123Q60.453125 142.99185 59.921875 142.99185Q59.5625 142.99185 59.21875 142.78873Q58.875 142.5856 58.703125 142.2106Q58.546875 141.8356 58.546875 141.06998L58.546875 136.25748L57.40625 136.25748L57.40625 135.99185Q57.84375 135.81998 58.28125 135.41373Q58.734375 135.00748 59.09375 134.44498Q59.265625 134.1481 59.59375 133.35123L59.828125 133.35123ZM72.578125 139.31998L68.46875 139.31998L67.75 140.99185Q67.484375 141.60123 67.484375 141.91373Q67.484375 142.1481 67.71875 142.3356Q67.953125 142.5231 68.71875 142.56998L68.71875 142.86685L65.375 142.86685L65.375 142.56998Q66.046875 142.4606 66.234375 142.2731Q66.640625 141.8981 67.125 140.74185L70.84375 132.0231L71.125 132.0231L74.8125 140.8356Q75.25 141.8981 75.609375 142.22623Q75.984375 142.53873 76.625 142.56998L76.625 142.86685L72.453125 142.86685L72.453125 142.56998Q73.078125 142.53873 73.296875 142.36685Q73.53125 142.17935 73.53125 141.92935Q73.53125 141.5856 73.21875 140.8356L72.578125 139.31998ZM72.359375 138.74185L70.5625 134.4606L68.71875 138.74185L72.359375 138.74185ZM81.375 135.49185L81.375 137.92935L81.125 137.92935Q80.828125 136.78873 80.359375 136.38248Q79.890625 135.9606 79.171875 135.9606Q78.625 135.9606 78.28125 136.25748Q77.953125 136.53873 77.953125 136.88248Q77.953125 137.31998 78.203125 137.63248Q78.453125 137.9606 79.1875 138.31998L80.328125 138.86685Q81.921875 139.6481 81.921875 140.91373Q81.921875 141.88248 81.171875 142.49185Q80.4375 143.0856 79.53125 143.0856Q78.875 143.0856 78.03125 142.85123Q77.765625 142.7731 77.609375 142.7731Q77.421875 142.7731 77.328125 142.97623L77.0625 142.97623L77.0625 140.41373L77.328125 140.41373Q77.546875 141.50748 78.15625 142.06998Q78.78125 142.61685 79.546875 142.61685Q80.078125 142.61685 80.421875 142.30435Q80.765625 141.99185 80.765625 141.53873Q80.765625 141.00748 80.375 140.6481Q80.0 140.2731 78.859375 139.7106Q77.734375 139.1481 77.390625 138.69498Q77.03125 138.24185 77.03125 137.56998Q77.03125 136.67935 77.640625 136.0856Q78.25 135.49185 79.203125 135.49185Q79.625 135.49185 80.234375 135.67935Q80.625 135.78873 80.765625 135.78873Q80.890625 135.78873 80.953125 135.74185Q81.03125 135.67935 81.125 135.49185L81.375 135.49185ZM87.375 135.49185L87.375 137.92935L87.125 137.92935Q86.828125 136.78873 86.359375 136.38248Q85.890625 135.9606 85.171875 135.9606Q84.625 135.9606 84.28125 136.25748Q83.953125 136.53873 83.953125 136.88248Q83.953125 137.31998 84.203125 137.63248Q84.453125 137.9606 85.1875 138.31998L86.328125 138.86685Q87.921875 139.6481 87.921875 140.91373Q87.921875 141.88248 87.171875 142.49185Q86.4375 143.0856 85.53125 143.0856Q84.875 143.0856 84.03125 142.85123Q83.765625 142.7731 83.609375 142.7731Q83.421875 142.7731 83.328125 142.97623L83.0625 142.97623L83.0625 140.41373L83.328125 140.41373Q83.546875 141.50748 84.15625 142.06998Q84.78125 142.61685 85.546875 142.61685Q86.078125 142.61685 86.421875 142.30435Q86.765625 141.99185 86.765625 141.53873Q86.765625 141.00748 86.375 140.6481Q86.0 140.2731 84.859375 139.7106Q83.734375 139.1481 83.390625 138.69498Q83.03125 138.24185 83.03125 137.56998Q83.03125 136.67935 83.640625 136.0856Q84.25 135.49185 85.203125 135.49185Q85.625 135.49185 86.234375 135.67935Q86.625 135.78873 86.765625 135.78873Q86.890625 135.78873 86.953125 135.74185Q87.03125 135.67935 87.125 135.49185L87.375 135.49185ZM89.953125 138.3981Q89.953125 139.99185 90.734375 140.8981Q91.515625 141.80435 92.5625 141.80435Q93.265625 141.80435 93.78125 141.42935Q94.3125 141.03873 94.65625 140.10123L94.90625 140.25748Q94.734375 141.31998 93.9375 142.2106Q93.15625 143.0856 91.96875 143.0856Q90.6875 143.0856 89.765625 142.0856Q88.84375 141.06998 88.84375 139.38248Q88.84375 137.53873 89.78125 136.5231Q90.734375 135.49185 92.15625 135.49185Q93.359375 135.49185 94.125 136.28873Q94.90625 137.06998 94.90625 138.3981L89.953125 138.3981ZM89.953125 137.94498L93.265625 137.94498Q93.234375 137.25748 93.109375 136.97623Q92.90625 136.53873 92.515625 136.28873Q92.140625 136.03873 91.71875 136.03873Q91.0625 136.03873 90.546875 136.55435Q90.046875 137.05435 89.953125 137.94498ZM97.828125 133.35123L97.828125 135.7106L99.5 135.7106L99.5 136.25748L97.828125 136.25748L97.828125 140.8981Q97.828125 141.5856 98.03125 141.8356Q98.234375 142.06998 98.546875 142.06998Q98.796875 142.06998 99.03125 141.91373Q99.28125 141.75748 99.421875 141.44498L99.71875 141.44498Q99.453125 142.2106 98.953125 142.60123Q98.453125 142.99185 97.921875 142.99185Q97.5625 142.99185 97.21875 142.78873Q96.875 142.5856 96.703125 142.2106Q96.546875 141.8356 96.546875 141.06998L96.546875 136.25748L95.40625 136.25748L95.40625 135.99185Q95.84375 135.81998 96.28125 135.41373Q96.734375 135.00748 97.09375 134.44498Q97.265625 134.1481 97.59375 133.35123L97.828125 133.35123ZM104.375 135.49185L104.375 137.92935L104.125 137.92935Q103.828125 136.78873 103.359375 136.38248Q102.890625 135.9606 102.171875 135.9606Q101.625 135.9606 101.28125 136.25748Q100.953125 136.53873 100.953125 136.88248Q100.953125 137.31998 101.203125 137.63248Q101.453125 137.9606 102.1875 138.31998L103.328125 138.86685Q104.921875 139.6481 104.921875 140.91373Q104.921875 141.88248 104.171875 142.49185Q103.4375 143.0856 102.53125 143.0856Q101.875 143.0856 101.03125 142.85123Q100.765625 142.7731 100.609375 142.7731Q100.421875 142.7731 100.328125 142.97623L100.0625 142.97623L100.0625 140.41373L100.328125 140.41373Q100.546875 141.50748 101.15625 142.06998Q101.78125 142.61685 102.546875 142.61685Q103.078125 142.61685 103.421875 142.30435Q103.765625 141.99185 103.765625 141.53873Q103.765625 141.00748 103.375 140.6481Q103.0 140.2731 101.859375 139.7106Q100.734375 139.1481 100.390625 138.69498Q100.03125 138.24185 100.03125 137.56998Q100.03125 136.67935 100.640625 136.0856Q101.25 135.49185 102.203125 135.49185Q102.625 135.49185 103.234375 135.67935Q103.625 135.78873 103.765625 135.78873Q103.890625 135.78873 103.953125 135.74185Q104.03125 135.67935 104.125 135.49185L104.375 135.49185Z" fill-rule="nonzero"/><path fill="#9e9e9e" d="M22.703125 161.9606L22.703125 163.06998L21.28125 163.06998L21.28125 165.86685L19.984375 165.86685L19.984375 163.06998L15.5 163.06998L15.5 162.06998L20.421875 155.05435L21.28125 155.05435L21.28125 161.9606L22.703125 161.9606ZM19.984375 161.9606L19.984375 156.69498L16.265625 161.9606L19.984375 161.9606ZM30.59375 163.81998L29.84375 165.86685L23.59375 165.86685L23.59375 165.56998Q26.359375 163.05435 27.484375 161.4606Q28.609375 159.86685 28.609375 158.55435Q28.609375 157.53873 27.984375 156.8981Q27.375 156.24185 26.515625 156.24185Q25.734375 156.24185 25.109375 156.7106Q24.484375 157.16373 24.1875 158.03873L23.90625 158.03873Q24.09375 156.60123 24.90625 155.8356Q25.71875 155.05435 26.921875 155.05435Q28.21875 155.05435 29.078125 155.88248Q29.9375 156.7106 29.9375 157.8356Q29.9375 158.63248 29.5625 159.44498Q28.984375 160.7106 27.6875 162.11685Q25.75 164.24185 25.265625 164.67935L28.03125 164.67935Q28.875 164.67935 29.203125 164.61685Q29.546875 164.55435 29.8125 164.36685Q30.09375 164.17935 30.296875 163.81998L30.59375 163.81998ZM33.25 164.35123Q33.625 164.35123 33.875 164.60123Q34.125 164.85123 34.125 165.2106Q34.125 165.56998 33.859375 165.8356Q33.609375 166.0856 33.25 166.0856Q32.890625 166.0856 32.640625 165.8356Q32.390625 165.56998 32.390625 165.2106Q32.390625 164.85123 32.640625 164.60123Q32.890625 164.35123 33.25 164.35123ZM42.421875 155.05435L42.421875 155.3356Q41.390625 155.44498 40.734375 155.75748Q40.09375 156.05435 39.453125 156.69498Q38.8125 157.31998 38.390625 158.10123Q37.984375 158.88248 37.703125 159.94498Q38.828125 159.17935 39.953125 159.17935Q41.046875 159.17935 41.84375 160.05435Q42.640625 160.92935 42.640625 162.30435Q42.640625 163.63248 41.828125 164.72623Q40.859375 166.05435 39.265625 166.05435Q38.1875 166.05435 37.421875 165.3356Q35.9375 163.92935 35.9375 161.7106Q35.9375 160.28873 36.5 159.00748Q37.078125 157.72623 38.140625 156.74185Q39.203125 155.74185 40.171875 155.3981Q41.140625 155.05435 41.96875 155.05435L42.421875 155.05435ZM37.5625 160.5231Q37.421875 161.56998 37.421875 162.22623Q37.421875 162.97623 37.703125 163.85123Q37.984375 164.72623 38.53125 165.24185Q38.921875 165.61685 39.5 165.61685Q40.171875 165.61685 40.703125 164.97623Q41.25 164.3356 41.25 163.1481Q41.25 161.80435 40.71875 160.8356Q40.1875 159.85123 39.203125 159.85123Q38.90625 159.85123 38.5625 159.97623Q38.234375 160.10123 37.5625 160.5231ZM54.125 155.0231L46.40625 166.30435L45.71875 166.30435L53.4375 155.0231L54.125 155.0231ZM46.09375 155.0231Q47.15625 155.0231 47.734375 155.8981Q48.3125 156.7731 48.3125 157.91373Q48.3125 159.2731 47.65625 160.0231Q47.0 160.75748 46.078125 160.75748Q45.46875 160.75748 44.953125 160.41373Q44.4375 160.06998 44.125 159.3981Q43.8125 158.72623 43.8125 157.91373Q43.8125 157.0856 44.125 156.3981Q44.4375 155.7106 44.984375 155.36685Q45.53125 155.0231 46.09375 155.0231ZM46.078125 155.4606Q45.671875 155.4606 45.359375 155.92935Q45.0625 156.3981 45.0625 157.8981Q45.0625 158.99185 45.234375 159.55435Q45.359375 159.99185 45.640625 160.22623Q45.8125 160.36685 46.046875 160.36685Q46.421875 160.36685 46.6875 159.9606Q47.078125 159.35123 47.078125 157.94498Q47.078125 156.4606 46.703125 155.86685Q46.453125 155.4606 46.078125 155.4606ZM53.765625 160.60123Q54.328125 160.60123 54.875 160.9606Q55.421875 161.30435 55.71875 161.97623Q56.03125 162.6481 56.03125 163.4606Q56.03125 164.8356 55.359375 165.56998Q54.703125 166.30435 53.796875 166.30435Q53.21875 166.30435 52.6875 165.94498Q52.15625 165.60123 51.84375 164.94498Q51.53125 164.28873 51.53125 163.4606Q51.53125 162.63248 51.84375 161.9606Q52.15625 161.2731 52.6875 160.94498Q53.21875 160.60123 53.765625 160.60123ZM53.78125 161.0231Q53.40625 161.0231 53.125 161.44498Q52.78125 161.99185 52.78125 163.50748Q52.78125 164.91373 53.140625 165.4606Q53.40625 165.86685 53.78125 165.86685Q54.140625 165.86685 54.421875 165.42935Q54.796875 164.86685 54.796875 163.47623Q54.796875 162.00748 54.421875 161.41373Q54.15625 161.0231 53.78125 161.0231Z" fill-rule="nonzero"/><path stroke="#757575" stroke-width="1.0" stroke-linecap="butt" d="M15.25 149.36685L148.83333 149.36685L163.53728 149.36685" fill-rule="nonzero"/><path fill="#9e9e9e" d="M165.53728 149.36685C165.53728 148.26228 164.64185 147.36685 163.53728 147.36685C162.43271 147.36685 161.53728 148.26228 161.53728 149.36685C161.53728 150.47142 162.43271 151.36685 163.53728 151.36685C164.64185 151.36685 165.53728 150.47142 165.53728 149.36685" fill-rule="nonzero"/><path fill="#000000" d="M405.53125 182.70607L408.42188 182.70607L414.89062 190.64357L414.89062 184.5342Q414.89062 183.56544 414.67188 183.31544Q414.39062 182.98732 413.76562 182.98732L413.39062 182.98732L413.39062 182.70607L417.07812 182.70607L417.07812 182.98732L416.70312 182.98732Q416.03125 182.98732 415.75 183.39357Q415.57812 183.64357 415.57812 184.5342L415.57812 193.4717L415.29688 193.4717L408.3125 184.94044L408.3125 191.45607Q408.3125 192.44044 408.53125 192.67482Q408.82812 193.00294 409.4375 193.00294L409.8125 193.00294L409.8125 193.29982L406.125 193.29982L406.125 193.00294L406.5 193.00294Q407.17188 193.00294 407.45312 192.5967Q407.625 192.3467 407.625 191.45607L407.625 184.0967Q407.17188 183.54982 406.92188 183.37794Q406.6875 183.20607 406.23438 183.06544Q406.0 182.98732 405.53125 182.98732L405.53125 182.70607ZM421.75 185.92482Q423.375 185.92482 424.35938 187.1592Q425.20312 188.2217 425.20312 189.58107Q425.20312 190.54982 424.73438 191.5342Q424.28125 192.51857 423.46875 193.01857Q422.65625 193.51857 421.67188 193.51857Q420.04688 193.51857 419.09375 192.2217Q418.29688 191.14357 418.29688 189.7842Q418.29688 188.79982 418.78125 187.83107Q419.26562 186.86232 420.0625 186.39357Q420.85938 185.92482 421.75 185.92482ZM421.51562 186.44044Q421.09375 186.44044 420.67188 186.69044Q420.26562 186.92482 420.0 187.54982Q419.75 188.1592 419.75 189.12794Q419.75 190.69044 420.35938 191.83107Q420.98438 192.95607 422.0 192.95607Q422.76562 192.95607 423.25 192.33107Q423.75 191.70607 423.75 190.19044Q423.75 188.2842 422.92188 187.19044Q422.375 186.44044 421.51562 186.44044ZM428.34375 187.44044Q429.59375 185.92482 430.73438 185.92482Q431.32812 185.92482 431.75 186.2217Q432.17188 186.51857 432.42188 187.19044Q432.59375 187.6592 432.59375 188.62794L432.59375 191.67482Q432.59375 192.36232 432.70312 192.5967Q432.78125 192.79982 432.96875 192.9092Q433.17188 193.01857 433.6875 193.01857L433.6875 193.29982L430.14062 193.29982L430.14062 193.01857L430.29688 193.01857Q430.79688 193.01857 430.98438 192.86232Q431.1875 192.70607 431.26562 192.4092Q431.29688 192.29982 431.29688 191.67482L431.29688 188.75294Q431.29688 187.76857 431.04688 187.33107Q430.79688 186.89357 430.1875 186.89357Q429.26562 186.89357 428.34375 187.9092L428.34375 191.67482Q428.34375 192.4092 428.42188 192.58107Q428.53125 192.79982 428.71875 192.9092Q428.92188 193.01857 429.5 193.01857L429.5 193.29982L425.96875 193.29982L425.96875 193.01857L426.125 193.01857Q426.67188 193.01857 426.85938 192.73732Q427.04688 192.45607 427.04688 191.67482L427.04688 189.01857Q427.04688 187.73732 426.98438 187.45607Q426.9375 187.17482 426.8125 187.08107Q426.6875 186.9717 426.48438 186.9717Q426.26562 186.9717 425.96875 187.08107L425.84375 186.79982L428.0 185.92482L428.34375 185.92482L428.34375 187.44044ZM433.40625 189.11232L437.4375 189.11232L437.4375 190.29982L433.40625 190.29982L433.40625 189.11232ZM445.32812 190.58107Q445.04688 191.98732 444.20312 192.75294Q443.35938 193.51857 442.32812 193.51857Q441.10938 193.51857 440.20312 192.50294Q439.29688 191.4717 439.29688 189.7217Q439.29688 188.0342 440.29688 186.98732Q441.3125 185.92482 442.71875 185.92482Q443.76562 185.92482 444.4375 186.48732Q445.125 187.04982 445.125 187.64357Q445.125 187.94044 444.9375 188.12794Q444.75 188.31544 444.40625 188.31544Q443.9375 188.31544 443.70312 188.01857Q443.57812 187.8467 443.53125 187.39357Q443.48438 186.92482 443.21875 186.69044Q442.9375 186.45607 442.45312 186.45607Q441.67188 186.45607 441.20312 187.0342Q440.5625 187.79982 440.5625 189.04982Q440.5625 190.33107 441.1875 191.31544Q441.82812 192.29982 442.89062 192.29982Q443.65625 192.29982 444.26562 191.76857Q444.70312 191.4092 445.10938 190.4717L445.32812 190.58107ZM452.53125 186.14357L452.53125 190.4717Q452.53125 191.7217 452.57812 192.00294Q452.64062 192.26857 452.76562 192.37794Q452.90625 192.48732 453.07812 192.48732Q453.3125 192.48732 453.625 192.36232L453.73438 192.62794L451.59375 193.51857L451.23438 193.51857L451.23438 192.00294Q450.3125 193.00294 449.82812 193.26857Q449.34375 193.51857 448.8125 193.51857Q448.20312 193.51857 447.76562 193.17482Q447.32812 192.81544 447.15625 192.26857Q446.98438 191.7217 446.98438 190.7217L446.98438 187.5342Q446.98438 187.01857 446.875 186.83107Q446.76562 186.62794 446.54688 186.5342Q446.32812 186.42482 445.76562 186.42482L445.76562 186.14357L448.28125 186.14357L448.28125 190.92482Q448.28125 191.92482 448.625 192.23732Q448.96875 192.54982 449.46875 192.54982Q449.79688 192.54982 450.21875 192.3467Q450.65625 192.12794 451.23438 191.5342L451.23438 187.48732Q451.23438 186.87794 451.01562 186.6592Q450.79688 186.44044 450.09375 186.42482L450.09375 186.14357L452.53125 186.14357ZM455.34375 185.92482L455.34375 187.5342Q456.25 185.92482 457.1875 185.92482Q457.625 185.92482 457.90625 186.19044Q458.1875 186.45607 458.1875 186.79982Q458.1875 187.0967 457.98438 187.31544Q457.78125 187.51857 457.5 187.51857Q457.21875 187.51857 456.875 187.25294Q456.54688 186.98732 456.375 186.98732Q456.23438 186.98732 456.07812 187.14357Q455.71875 187.45607 455.34375 188.19044L455.34375 191.62794Q455.34375 192.2217 455.5 192.51857Q455.59375 192.73732 455.84375 192.87794Q456.10938 193.01857 456.59375 193.01857L456.59375 193.29982L452.9375 193.29982L452.9375 193.01857Q453.48438 193.01857 453.75 192.8467Q453.9375 192.7217 454.01562 192.44044Q454.0625 192.31544 454.0625 191.69044L454.0625 188.9092Q454.0625 187.6592 454.0 187.42482Q453.95312 187.19044 453.8125 187.08107Q453.6875 186.9717 453.48438 186.9717Q453.23438 186.9717 452.9375 187.08107L452.85938 186.79982L455.01562 185.92482L455.34375 185.92482ZM460.34375 185.92482L460.34375 187.5342Q461.25 185.92482 462.1875 185.92482Q462.625 185.92482 462.90625 186.19044Q463.1875 186.45607 463.1875 186.79982Q463.1875 187.0967 462.98438 187.31544Q462.78125 187.51857 462.5 187.51857Q462.21875 187.51857 461.875 187.25294Q461.54688 186.98732 461.375 186.98732Q461.23438 186.98732 461.07812 187.14357Q460.71875 187.45607 460.34375 188.19044L460.34375 191.62794Q460.34375 192.2217 460.5 192.51857Q460.59375 192.73732 460.84375 192.87794Q461.10938 193.01857 461.59375 193.01857L461.59375 193.29982L457.9375 193.29982L457.9375 193.01857Q458.48438 193.01857 458.75 192.8467Q458.9375 192.7217 459.01562 192.44044Q459.0625 192.31544 459.0625 191.69044L459.0625 188.9092Q459.0625 187.6592 459.0 187.42482Q458.95312 187.19044 458.8125 187.08107Q458.6875 186.9717 458.48438 186.9717Q458.23438 186.9717 457.9375 187.08107L457.85938 186.79982L460.01562 185.92482L460.34375 185.92482ZM464.45312 188.83107Q464.45312 190.42482 465.23438 191.33107Q466.01562 192.23732 467.0625 192.23732Q467.76562 192.23732 468.28125 191.86232Q468.8125 191.4717 469.15625 190.5342L469.40625 190.69044Q469.23438 191.75294 468.4375 192.64357Q467.65625 193.51857 466.46875 193.51857Q465.1875 193.51857 464.26562 192.51857Q463.34375 191.50294 463.34375 189.81544Q463.34375 187.9717 464.28125 186.95607Q465.23438 185.92482 466.65625 185.92482Q467.85938 185.92482 468.625 186.7217Q469.40625 187.50294 469.40625 188.83107L464.45312 188.83107ZM464.45312 188.37794L467.76562 188.37794Q467.73438 187.69044 467.60938 187.4092Q467.40625 186.9717 467.01562 186.7217Q466.64062 186.4717 466.21875 186.4717Q465.5625 186.4717 465.04688 186.98732Q464.54688 187.48732 464.45312 188.37794ZM472.34375 187.44044Q473.59375 185.92482 474.73438 185.92482Q475.32812 185.92482 475.75 186.2217Q476.17188 186.51857 476.42188 187.19044Q476.59375 187.6592 476.59375 188.62794L476.59375 191.67482Q476.59375 192.36232 476.70312 192.5967Q476.78125 192.79982 476.96875 192.9092Q477.17188 193.01857 477.6875 193.01857L477.6875 193.29982L474.14062 193.29982L474.14062 193.01857L474.29688 193.01857Q474.79688 193.01857 474.98438 192.86232Q475.1875 192.70607 475.26562 192.4092Q475.29688 192.29982 475.29688 191.67482L475.29688 188.75294Q475.29688 187.76857 475.04688 187.33107Q474.79688 186.89357 474.1875 186.89357Q473.26562 186.89357 472.34375 187.9092L472.34375 191.67482Q472.34375 192.4092 472.42188 192.58107Q472.53125 192.79982 472.71875 192.9092Q472.92188 193.01857 473.5 193.01857L473.5 193.29982L469.96875 193.29982L469.96875 193.01857L470.125 193.01857Q470.67188 193.01857 470.85938 192.73732Q471.04688 192.45607 471.04688 191.67482L471.04688 189.01857Q471.04688 187.73732 470.98438 187.45607Q470.9375 187.17482 470.8125 187.08107Q470.6875 186.9717 470.48438 186.9717Q470.26562 186.9717 469.96875 187.08107L469.84375 186.79982L472.0 185.92482L472.34375 185.92482L472.34375 187.44044ZM479.32812 183.7842L479.32812 186.14357L481.0 186.14357L481.0 186.69044L479.32812 186.69044L479.32812 191.33107Q479.32812 192.01857 479.53125 192.26857Q479.73438 192.50294 480.04688 192.50294Q480.29688 192.50294 480.53125 192.3467Q480.78125 192.19044 480.92188 191.87794L481.21875 191.87794Q480.95312 192.64357 480.45312 193.0342Q479.95312 193.42482 479.42188 193.42482Q479.0625 193.42482 478.71875 193.2217Q478.375 193.01857 478.20312 192.64357Q478.04688 192.26857 478.04688 191.50294L478.04688 186.69044L476.90625 186.69044L476.90625 186.42482Q477.34375 186.25294 477.78125 185.8467Q478.23438 185.44044 478.59375 184.87794Q478.76562 184.58107 479.09375 183.7842L479.32812 183.7842ZM492.07812 189.75294L487.96875 189.75294L487.25 191.42482Q486.98438 192.0342 486.98438 192.3467Q486.98438 192.58107 487.21875 192.76857Q487.45312 192.95607 488.21875 193.00294L488.21875 193.29982L484.875 193.29982L484.875 193.00294Q485.54688 192.89357 485.73438 192.70607Q486.14062 192.33107 486.625 191.17482L490.34375 182.45607L490.625 182.45607L494.3125 191.26857Q494.75 192.33107 495.10938 192.6592Q495.48438 192.9717 496.125 193.00294L496.125 193.29982L491.95312 193.29982L491.95312 193.00294Q492.57812 192.9717 492.79688 192.79982Q493.03125 192.61232 493.03125 192.36232Q493.03125 192.01857 492.71875 191.26857L492.07812 189.75294ZM491.85938 189.17482L490.0625 184.89357L488.21875 189.17482L491.85938 189.17482ZM500.875 185.92482L500.875 188.36232L500.625 188.36232Q500.32812 187.2217 499.85938 186.81544Q499.39062 186.39357 498.67188 186.39357Q498.125 186.39357 497.78125 186.69044Q497.45312 186.9717 497.45312 187.31544Q497.45312 187.75294 497.70312 188.06544Q497.95312 188.39357 498.6875 188.75294L499.82812 189.29982Q501.42188 190.08107 501.42188 191.3467Q501.42188 192.31544 500.67188 192.92482Q499.9375 193.51857 499.03125 193.51857Q498.375 193.51857 497.53125 193.2842Q497.26562 193.20607 497.10938 193.20607Q496.92188 193.20607 496.82812 193.4092L496.5625 193.4092L496.5625 190.8467L496.82812 190.8467Q497.04688 191.94044 497.65625 192.50294Q498.28125 193.04982 499.04688 193.04982Q499.57812 193.04982 499.92188 192.73732Q500.26562 192.42482 500.26562 191.9717Q500.26562 191.44044 499.875 191.08107Q499.5 190.70607 498.35938 190.14357Q497.23438 189.58107 496.89062 189.12794Q496.53125 188.67482 496.53125 188.00294Q496.53125 187.11232 497.14062 186.51857Q497.75 185.92482 498.70312 185.92482Q499.125 185.92482 499.73438 186.11232Q500.125 186.2217 500.26562 186.2217Q500.39062 186.2217 500.45312 186.17482Q500.53125 186.11232 500.625 185.92482L500.875 185.92482ZM506.875 185.92482L506.875 188.36232L506.625 188.36232Q506.32812 187.2217 505.85938 186.81544Q505.39062 186.39357 504.67188 186.39357Q504.125 186.39357 503.78125 186.69044Q503.45312 186.9717 503.45312 187.31544Q503.45312 187.75294 503.70312 188.06544Q503.95312 188.39357 504.6875 188.75294L505.82812 189.29982Q507.42188 190.08107 507.42188 191.3467Q507.42188 192.31544 506.67188 192.92482Q505.9375 193.51857 505.03125 193.51857Q504.375 193.51857 503.53125 193.2842Q503.26562 193.20607 503.10938 193.20607Q502.92188 193.20607 502.82812 193.4092L502.5625 193.4092L502.5625 190.8467L502.82812 190.8467Q503.04688 191.94044 503.65625 192.50294Q504.28125 193.04982 505.04688 193.04982Q505.57812 193.04982 505.92188 192.73732Q506.26562 192.42482 506.26562 191.9717Q506.26562 191.44044 505.875 191.08107Q505.5 190.70607 504.35938 190.14357Q503.23438 189.58107 502.89062 189.12794Q502.53125 188.67482 502.53125 188.00294Q502.53125 187.11232 503.14062 186.51857Q503.75 185.92482 504.70312 185.92482Q505.125 185.92482 505.73438 186.11232Q506.125 186.2217 506.26562 186.2217Q506.39062 186.2217 506.45312 186.17482Q506.53125 186.11232 506.625 185.92482L506.875 185.92482ZM509.45312 188.83107Q509.45312 190.42482 510.23438 191.33107Q511.01562 192.23732 512.0625 192.23732Q512.7656 192.23732 513.28125 191.86232Q513.8125 191.4717 514.15625 190.5342L514.40625 190.69044Q514.2344 191.75294 513.4375 192.64357Q512.65625 193.51857 511.46875 193.51857Q510.1875 193.51857 509.26562 192.51857Q508.34375 191.50294 508.34375 189.81544Q508.34375 187.9717 509.28125 186.95607Q510.23438 185.92482 511.65625 185.92482Q512.8594 185.92482 513.625 186.7217Q514.40625 187.50294 514.40625 188.83107L509.45312 188.83107ZM509.45312 188.37794L512.7656 188.37794Q512.7344 187.69044 512.6094 187.4092Q512.40625 186.9717 512.0156 186.7217Q511.64062 186.4717 511.21875 186.4717Q510.5625 186.4717 510.04688 186.98732Q509.54688 187.48732 509.45312 188.37794ZM517.3281 183.7842L517.3281 186.14357L519.0 186.14357L519.0 186.69044L517.3281 186.69044L517.3281 191.33107Q517.3281 192.01857 517.53125 192.26857Q517.7344 192.50294 518.0469 192.50294Q518.2969 192.50294 518.53125 192.3467Q518.78125 192.19044 518.9219 191.87794L519.21875 191.87794Q518.9531 192.64357 518.4531 193.0342Q517.9531 193.42482 517.4219 193.42482Q517.0625 193.42482 516.71875 193.2217Q516.375 193.01857 516.2031 192.64357Q516.0469 192.26857 516.0469 191.50294L516.0469 186.69044L514.90625 186.69044L514.90625 186.42482Q515.34375 186.25294 515.78125 185.8467Q516.2344 185.44044 516.59375 184.87794Q516.7656 184.58107 517.09375 183.7842L517.3281 183.7842ZM523.875 185.92482L523.875 188.36232L523.625 188.36232Q523.3281 187.2217 522.8594 186.81544Q522.3906 186.39357 521.6719 186.39357Q521.125 186.39357 520.78125 186.69044Q520.4531 186.9717 520.4531 187.31544Q520.4531 187.75294 520.7031 188.06544Q520.9531 188.39357 521.6875 188.75294L522.8281 189.29982Q524.4219 190.08107 524.4219 191.3467Q524.4219 192.31544 523.6719 192.92482Q522.9375 193.51857 522.03125 193.51857Q521.375 193.51857 520.53125 193.2842Q520.2656 193.20607 520.1094 193.20607Q519.9219 193.20607 519.8281 193.4092L519.5625 193.4092L519.5625 190.8467L519.8281 190.8467Q520.0469 191.94044 520.65625 192.50294Q521.28125 193.04982 522.0469 193.04982Q522.5781 193.04982 522.9219 192.73732Q523.2656 192.42482 523.2656 191.9717Q523.2656 191.44044 522.875 191.08107Q522.5 190.70607 521.3594 190.14357Q520.2344 189.58107 519.8906 189.12794Q519.53125 188.67482 519.53125 188.00294Q519.53125 187.11232 520.1406 186.51857Q520.75 185.92482 521.7031 185.92482Q522.125 185.92482 522.7344 186.11232Q523.125 186.2217 523.2656 186.2217Q523.3906 186.2217 523.4531 186.17482Q523.53125 186.11232 523.625 185.92482L523.875 185.92482Z" fill-rule="nonzero"/><path fill="#9e9e9e" d="M490.70312 205.70607L490.09375 207.0342L486.90625 207.0342L486.20312 208.45607Q488.28125 208.75294 489.48438 209.98732Q490.53125 211.04982 490.53125 212.48732Q490.53125 213.33107 490.1875 214.04982Q489.84375 214.75294 489.32812 215.25294Q488.8125 215.75294 488.1875 216.04982Q487.28125 216.48732 486.34375 216.48732Q485.39062 216.48732 484.95312 216.1592Q484.51562 215.83107 484.51562 215.44044Q484.51562 215.2217 484.6875 215.06544Q484.875 214.89357 485.15625 214.89357Q485.35938 214.89357 485.5 214.95607Q485.65625 215.01857 486.03125 215.26857Q486.60938 215.67482 487.21875 215.67482Q488.125 215.67482 488.8125 214.98732Q489.51562 214.29982 489.51562 213.29982Q489.51562 212.3467 488.89062 211.51857Q488.28125 210.67482 487.1875 210.2217Q486.34375 209.87794 484.875 209.81544L486.90625 205.70607L490.70312 205.70607ZM493.35938 205.70607L499.04688 205.70607L499.04688 206.00294L495.51562 216.51857L494.64062 216.51857L497.79688 206.9717L494.89062 206.9717Q494.0 206.9717 493.625 207.19044Q492.96875 207.54982 492.57812 208.29982L492.34375 208.20607L493.35938 205.70607ZM501.75 214.7842Q502.125 214.7842 502.375 215.0342Q502.625 215.2842 502.625 215.64357Q502.625 216.00294 502.35938 216.26857Q502.10938 216.51857 501.75 216.51857Q501.39062 216.51857 501.14062 216.26857Q500.89062 216.00294 500.89062 215.64357Q500.89062 215.2842 501.14062 215.0342Q501.39062 214.7842 501.75 214.7842ZM511.20312 212.39357L511.20312 213.50294L509.78125 213.50294L509.78125 216.29982L508.48438 216.29982L508.48438 213.50294L504.0 213.50294L504.0 212.50294L508.92188 205.48732L509.78125 205.48732L509.78125 212.39357L511.20312 212.39357ZM508.48438 212.39357L508.48438 207.12794L504.76562 212.39357L508.48438 212.39357ZM522.625 205.45607L514.90625 216.73732L514.21875 216.73732L521.9375 205.45607L522.625 205.45607ZM514.59375 205.45607Q515.65625 205.45607 516.2344 206.33107Q516.8125 207.20607 516.8125 208.3467Q516.8125 209.70607 516.15625 210.45607Q515.5 211.19044 514.5781 211.19044Q513.96875 211.19044 513.4531 210.8467Q512.9375 210.50294 512.625 209.83107Q512.3125 209.1592 512.3125 208.3467Q512.3125 207.51857 512.625 206.83107Q512.9375 206.14357 513.4844 205.79982Q514.03125 205.45607 514.59375 205.45607ZM514.5781 205.89357Q514.1719 205.89357 513.8594 206.36232Q513.5625 206.83107 513.5625 208.33107Q513.5625 209.42482 513.7344 209.98732Q513.8594 210.42482 514.1406 210.6592Q514.3125 210.79982 514.5469 210.79982Q514.9219 210.79982 515.1875 210.39357Q515.5781 209.7842 515.5781 208.37794Q515.5781 206.89357 515.2031 206.29982Q514.9531 205.89357 514.5781 205.89357ZM522.2656 211.0342Q522.8281 211.0342 523.375 211.39357Q523.9219 211.73732 524.21875 212.4092Q524.53125 213.08107 524.53125 213.89357Q524.53125 215.26857 523.8594 216.00294Q523.2031 216.73732 522.2969 216.73732Q521.71875 216.73732 521.1875 216.37794Q520.65625 216.0342 520.34375 215.37794Q520.03125 214.7217 520.03125 213.89357Q520.03125 213.06544 520.34375 212.39357Q520.65625 211.70607 521.1875 211.37794Q521.71875 211.0342 522.2656 211.0342ZM522.28125 211.45607Q521.90625 211.45607 521.625 211.87794Q521.28125 212.42482 521.28125 213.94044Q521.28125 215.3467 521.6406 215.89357Q521.90625 216.29982 522.28125 216.29982Q522.6406 216.29982 522.9219 215.86232Q523.2969 215.29982 523.2969 213.9092Q523.2969 212.44044 522.9219 211.8467Q522.65625 211.45607 522.28125 211.45607Z" fill-rule="nonzero"/><path stroke="#757575" stroke-width="1.0" stroke-linecap="butt" d="M524.75 199.79982L391.16666 199.79982L376.46274 199.79982" fill-rule="nonzero"/><path fill="#9e9e9e" d="M378.46274 199.79982C378.46274 198.69525 377.5673 197.79982 376.46274 197.79982C375.35815 197.79982 374.46274 198.69525 374.46274 199.79982C374.46274 200.90439 375.35815 201.79982 376.46274 201.79982C377.5673 201.79982 378.46274 200.90439 378.46274 199.79982" fill-rule="nonzero"/><path fill="#000000" d="M170.85938 22.390625L171.07812 27.046875L170.51562 27.046875Q170.35938 25.8125 170.07812 25.28125Q169.625 24.4375 168.875 24.03125Q168.125 23.625 166.89062 23.625L164.09375 23.625L164.09375 38.8125Q164.09375 40.640625 164.48438 41.09375Q165.04688 41.703125 166.20312 41.703125L166.89062 41.703125L166.89062 42.25L158.46875 42.25L158.46875 41.703125L159.17188 41.703125Q160.42188 41.703125 160.95312 40.953125Q161.28125 40.484375 161.28125 38.8125L161.28125 23.625L158.89062 23.625Q157.5 23.625 156.90625 23.84375Q156.15625 24.109375 155.60938 24.90625Q155.0625 25.703125 154.96875 27.046875L154.40625 27.046875L154.64062 22.390625L170.85938 22.390625ZM180.0 28.4375Q183.04688 28.4375 184.89062 30.75Q186.45312 32.734375 186.45312 35.296875Q186.45312 37.09375 185.59375 38.9375Q184.73438 40.78125 183.21875 41.71875Q181.70312 42.65625 179.84375 42.65625Q176.8125 42.65625 175.01562 40.25Q173.51562 38.203125 173.51562 35.671875Q173.51562 33.828125 174.42188 32.0Q175.34375 30.171875 176.82812 29.3125Q178.32812 28.4375 180.0 28.4375ZM179.54688 29.390625Q178.76562 29.390625 177.98438 29.859375Q177.20312 30.3125 176.71875 31.46875Q176.23438 32.625 176.23438 34.4375Q176.23438 37.375 177.39062 39.5Q178.5625 41.625 180.46875 41.625Q181.89062 41.625 182.8125 40.453125Q183.73438 39.28125 183.73438 36.421875Q183.73438 32.84375 182.20312 30.796875Q181.15625 29.390625 179.54688 29.390625ZM192.32812 24.421875L192.32812 28.828125L195.46875 28.828125L195.46875 29.859375L192.32812 29.859375L192.32812 38.5625Q192.32812 39.859375 192.70312 40.3125Q193.07812 40.765625 193.67188 40.765625Q194.15625 40.765625 194.60938 40.46875Q195.0625 40.171875 195.3125 39.578125L195.875 39.578125Q195.35938 41.015625 194.42188 41.75Q193.48438 42.46875 192.5 42.46875Q191.82812 42.46875 191.17188 42.09375Q190.53125 41.71875 190.21875 41.03125Q189.92188 40.328125 189.92188 38.875L189.92188 29.859375L187.79688 29.859375L187.79688 29.375Q188.59375 29.046875 189.4375 28.28125Q190.28125 27.515625 190.9375 26.453125Q191.28125 25.90625 191.875 24.421875L192.32812 24.421875ZM204.04688 40.3125Q201.96875 41.90625 201.45312 42.15625Q200.65625 42.53125 199.76562 42.53125Q198.375 42.53125 197.46875 41.578125Q196.5625 40.625 196.5625 39.078125Q196.5625 38.09375 197.01562 37.375Q197.60938 36.375 199.09375 35.5Q200.57812 34.625 204.04688 33.359375L204.04688 32.828125Q204.04688 30.828125 203.40625 30.078125Q202.76562 29.328125 201.54688 29.328125Q200.625 29.328125 200.07812 29.828125Q199.53125 30.328125 199.53125 30.96875L199.5625 31.8125Q199.5625 32.5 199.21875 32.859375Q198.875 33.21875 198.3125 33.21875Q197.76562 33.21875 197.42188 32.84375Q197.07812 32.46875 197.07812 31.8125Q197.07812 30.546875 198.35938 29.5Q199.65625 28.4375 201.98438 28.4375Q203.78125 28.4375 204.92188 29.03125Q205.78125 29.484375 206.1875 30.453125Q206.45312 31.09375 206.45312 33.03125L206.45312 37.59375Q206.45312 39.515625 206.53125 39.953125Q206.60938 40.375 206.76562 40.53125Q206.9375 40.671875 207.15625 40.671875Q207.39062 40.671875 207.57812 40.5625Q207.875 40.375 208.75 39.5L208.75 40.3125Q207.10938 42.515625 205.625 42.515625Q204.90625 42.515625 204.48438 42.015625Q204.0625 41.515625 204.04688 40.3125ZM204.04688 39.359375L204.04688 34.25Q201.82812 35.125 201.1875 35.5Q200.03125 36.140625 199.53125 36.84375Q199.03125 37.546875 199.03125 38.375Q199.03125 39.4375 199.65625 40.140625Q200.29688 40.828125 201.10938 40.828125Q202.21875 40.828125 204.04688 39.359375ZM214.04688 21.421875L214.04688 39.21875Q214.04688 40.484375 214.23438 40.890625Q214.42188 41.296875 214.79688 41.515625Q215.1875 41.71875 216.21875 41.71875L216.21875 42.25L209.64062 42.25L209.64062 41.71875Q210.5625 41.71875 210.89062 41.53125Q211.23438 41.34375 211.42188 40.90625Q211.625 40.46875 211.625 39.21875L211.625 27.03125Q211.625 24.765625 211.51562 24.25Q211.42188 23.71875 211.1875 23.53125Q210.96875 23.34375 210.60938 23.34375Q210.23438 23.34375 209.64062 23.578125L209.39062 23.0625L213.39062 21.421875L214.04688 21.421875ZM237.21875 35.59375L229.53125 35.59375L228.1875 38.734375Q227.6875 39.890625 227.6875 40.46875Q227.6875 40.921875 228.10938 41.265625Q228.54688 41.609375 229.98438 41.703125L229.98438 42.25L223.73438 42.25L223.73438 41.703125Q224.98438 41.484375 225.34375 41.140625Q226.09375 40.4375 227.0 38.28125L233.98438 21.9375L234.5 21.9375L241.42188 38.453125Q242.25 40.453125 242.92188 41.046875Q243.60938 41.640625 244.82812 41.703125L244.82812 42.25L236.98438 42.25L236.98438 41.703125Q238.17188 41.65625 238.59375 41.3125Q239.01562 40.96875 239.01562 40.484375Q239.01562 39.84375 238.42188 38.453125L237.21875 35.59375ZM236.8125 34.515625L233.45312 26.484375L229.98438 34.515625L236.8125 34.515625ZM254.10938 28.4375L254.10938 33.0L253.625 33.0Q253.0625 30.859375 252.1875 30.078125Q251.32812 29.296875 249.98438 29.296875Q248.95312 29.296875 248.3125 29.84375Q247.6875 30.390625 247.6875 31.046875Q247.6875 31.859375 248.15625 32.453125Q248.60938 33.046875 250.01562 33.71875L252.14062 34.765625Q255.125 36.21875 255.125 38.59375Q255.125 40.421875 253.73438 41.546875Q252.35938 42.65625 250.64062 42.65625Q249.40625 42.65625 247.82812 42.21875Q247.34375 42.078125 247.03125 42.078125Q246.70312 42.078125 246.5 42.453125L246.03125 42.453125L246.03125 37.671875L246.5 37.671875Q246.92188 39.71875 248.07812 40.765625Q249.23438 41.796875 250.67188 41.796875Q251.67188 41.796875 252.3125 41.203125Q252.95312 40.609375 252.95312 39.78125Q252.95312 38.765625 252.23438 38.078125Q251.53125 37.390625 249.40625 36.34375Q247.28125 35.28125 246.625 34.421875Q245.96875 33.59375 245.96875 32.3125Q245.96875 30.65625 247.09375 29.546875Q248.23438 28.4375 250.03125 28.4375Q250.82812 28.4375 251.95312 28.765625Q252.70312 29.0 252.95312 29.0Q253.1875 29.0 253.3125 28.890625Q253.45312 28.78125 253.625 28.4375L254.10938 28.4375ZM265.10938 28.4375L265.10938 33.0L264.625 33.0Q264.0625 30.859375 263.1875 30.078125Q262.32812 29.296875 260.98438 29.296875Q259.95312 29.296875 259.3125 29.84375Q258.6875 30.390625 258.6875 31.046875Q258.6875 31.859375 259.15625 32.453125Q259.60938 33.046875 261.01562 33.71875L263.14062 34.765625Q266.125 36.21875 266.125 38.59375Q266.125 40.421875 264.73438 41.546875Q263.35938 42.65625 261.64062 42.65625Q260.40625 42.65625 258.82812 42.21875Q258.34375 42.078125 258.03125 42.078125Q257.70312 42.078125 257.5 42.453125L257.03125 42.453125L257.03125 37.671875L257.5 37.671875Q257.92188 39.71875 259.07812 40.765625Q260.23438 41.796875 261.67188 41.796875Q262.67188 41.796875 263.3125 41.203125Q263.95312 40.609375 263.95312 39.78125Q263.95312 38.765625 263.23438 38.078125Q262.53125 37.390625 260.40625 36.34375Q258.28125 35.28125 257.625 34.421875Q256.96875 33.59375 256.96875 32.3125Q256.96875 30.65625 258.09375 29.546875Q259.23438 28.4375 261.03125 28.4375Q261.82812 28.4375 262.95312 28.765625Q263.70312 29.0 263.95312 29.0Q264.1875 29.0 264.3125 28.890625Q264.45312 28.78125 264.625 28.4375L265.10938 28.4375ZM269.6875 33.890625Q269.67188 36.875 271.14062 38.578125Q272.60938 40.265625 274.59375 40.265625Q275.90625 40.265625 276.875 39.546875Q277.85938 38.828125 278.51562 37.0625L278.96875 37.359375Q278.65625 39.359375 277.17188 41.015625Q275.70312 42.65625 273.46875 42.65625Q271.0625 42.65625 269.32812 40.78125Q267.60938 38.890625 267.60938 35.71875Q267.60938 32.28125 269.375 30.359375Q271.14062 28.421875 273.8125 28.421875Q276.0625 28.421875 277.51562 29.90625Q278.96875 31.390625 278.96875 33.890625L269.6875 33.890625ZM269.6875 33.03125L275.90625 33.03125Q275.82812 31.75 275.59375 31.21875Q275.23438 30.40625 274.5 29.9375Q273.78125 29.46875 272.98438 29.46875Q271.78125 29.46875 270.8125 30.40625Q269.85938 31.34375 269.6875 33.03125ZM284.32812 24.421875L284.32812 28.828125L287.46875 28.828125L287.46875 29.859375L284.32812 29.859375L284.32812 38.5625Q284.32812 39.859375 284.70312 40.3125Q285.07812 40.765625 285.67188 40.765625Q286.15625 40.765625 286.60938 40.46875Q287.0625 40.171875 287.3125 39.578125L287.875 39.578125Q287.35938 41.015625 286.42188 41.75Q285.48438 42.46875 284.5 42.46875Q283.82812 42.46875 283.17188 42.09375Q282.53125 41.71875 282.21875 41.03125Q281.92188 40.328125 281.92188 38.875L281.92188 29.859375L279.79688 29.859375L279.79688 29.375Q280.59375 29.046875 281.4375 28.28125Q282.28125 27.515625 282.9375 26.453125Q283.28125 25.90625 283.875 24.421875L284.32812 24.421875ZM297.10938 28.4375L297.10938 33.0L296.625 33.0Q296.0625 30.859375 295.1875 30.078125Q294.32812 29.296875 292.98438 29.296875Q291.95312 29.296875 291.3125 29.84375Q290.6875 30.390625 290.6875 31.046875Q290.6875 31.859375 291.15625 32.453125Q291.60938 33.046875 293.01562 33.71875L295.14062 34.765625Q298.125 36.21875 298.125 38.59375Q298.125 40.421875 296.73438 41.546875Q295.35938 42.65625 293.64062 42.65625Q292.40625 42.65625 290.82812 42.21875Q290.34375 42.078125 290.03125 42.078125Q289.70312 42.078125 289.5 42.453125L289.03125 42.453125L289.03125 37.671875L289.5 37.671875Q289.92188 39.71875 291.07812 40.765625Q292.23438 41.796875 293.67188 41.796875Q294.67188 41.796875 295.3125 41.203125Q295.95312 40.609375 295.95312 39.78125Q295.95312 38.765625 295.23438 38.078125Q294.53125 37.390625 292.40625 36.34375Q290.28125 35.28125 289.625 34.421875Q288.96875 33.59375 288.96875 32.3125Q288.96875 30.65625 290.09375 29.546875Q291.23438 28.4375 293.03125 28.4375Q293.82812 28.4375 294.95312 28.765625Q295.70312 29.0 295.95312 29.0Q296.1875 29.0 296.3125 28.890625Q296.45312 28.78125 296.625 28.4375L297.10938 28.4375ZM315.8125 48.125L315.8125 48.671875Q313.60938 47.546875 312.125 46.0625Q310.01562 43.9375 308.875 41.046875Q307.73438 38.15625 307.73438 35.0625Q307.73438 30.515625 309.96875 26.78125Q312.21875 23.03125 315.8125 21.421875L315.8125 22.03125Q314.01562 23.03125 312.85938 24.765625Q311.70312 26.484375 311.125 29.140625Q310.5625 31.796875 310.5625 34.671875Q310.5625 37.8125 311.04688 40.375Q311.42188 42.390625 311.95312 43.609375Q312.5 44.84375 313.42188 45.96875Q314.34375 47.09375 315.8125 48.125ZM330.25 38.421875L328.85938 42.25L317.14062 42.25L317.14062 41.703125Q322.3125 36.984375 324.42188 34.0Q326.53125 31.015625 326.53125 28.53125Q326.53125 26.65625 325.375 25.4375Q324.21875 24.21875 322.60938 24.21875Q321.14062 24.21875 319.96875 25.078125Q318.8125 25.9375 318.26562 27.59375L317.71875 27.59375Q318.07812 24.875 319.59375 23.421875Q321.10938 21.96875 323.39062 21.96875Q325.79688 21.96875 327.42188 23.53125Q329.04688 25.078125 329.04688 27.1875Q329.04688 28.703125 328.34375 30.203125Q327.25 32.578125 324.82812 35.234375Q321.17188 39.21875 320.26562 40.03125L325.45312 40.03125Q327.03125 40.03125 327.67188 39.921875Q328.3125 39.796875 328.8125 39.4375Q329.32812 39.078125 329.71875 38.421875L330.25 38.421875ZM332.57812 32.4375Q332.57812 29.03125 333.60938 26.578125Q334.64062 24.125 336.32812 22.921875Q337.65625 21.96875 339.0625 21.96875Q341.34375 21.96875 343.15625 24.3125Q345.4375 27.1875 345.4375 32.125Q345.4375 35.578125 344.4375 38.0Q343.4375 40.421875 341.89062 41.515625Q340.34375 42.609375 338.90625 42.609375Q336.07812 42.609375 334.1875 39.25Q332.57812 36.421875 332.57812 32.4375ZM335.45312 32.796875Q335.45312 36.90625 336.46875 39.5Q337.29688 41.671875 338.95312 41.671875Q339.75 41.671875 340.59375 40.96875Q341.45312 40.25 341.89062 38.59375Q342.5625 36.0625 342.5625 31.484375Q342.5625 28.078125 341.85938 25.8125Q341.32812 24.125 340.5 23.421875Q339.89062 22.9375 339.04688 22.9375Q338.04688 22.9375 337.26562 23.84375Q336.21875 25.046875 335.82812 27.65625Q335.45312 30.265625 335.45312 32.796875ZM360.25 38.421875L358.85938 42.25L347.14062 42.25L347.14062 41.703125Q352.3125 36.984375 354.42188 34.0Q356.53125 31.015625 356.53125 28.53125Q356.53125 26.65625 355.375 25.4375Q354.21875 24.21875 352.60938 24.21875Q351.14062 24.21875 349.96875 25.078125Q348.8125 25.9375 348.26562 27.59375L347.71875 27.59375Q348.07812 24.875 349.59375 23.421875Q351.10938 21.96875 353.39062 21.96875Q355.79688 21.96875 357.42188 23.53125Q359.04688 25.078125 359.04688 27.1875Q359.04688 28.703125 358.34375 30.203125Q357.25 32.578125 354.82812 35.234375Q351.17188 39.21875 350.26562 40.03125L355.45312 40.03125Q357.03125 40.03125 357.67188 39.921875Q358.3125 39.796875 358.8125 39.4375Q359.32812 39.078125 359.71875 38.421875L360.25 38.421875ZM362.57812 32.4375Q362.57812 29.03125 363.60938 26.578125Q364.64062 24.125 366.32812 22.921875Q367.65625 21.96875 369.0625 21.96875Q371.34375 21.96875 373.15625 24.3125Q375.4375 27.1875 375.4375 32.125Q375.4375 35.578125 374.4375 38.0Q373.4375 40.421875 371.89062 41.515625Q370.34375 42.609375 368.90625 42.609375Q366.07812 42.609375 364.1875 39.25Q362.57812 36.421875 362.57812 32.4375ZM365.45312 32.796875Q365.45312 36.90625 366.46875 39.5Q367.29688 41.671875 368.95312 41.671875Q369.75 41.671875 370.59375 40.96875Q371.45312 40.25 371.89062 38.59375Q372.5625 36.0625 372.5625 31.484375Q372.5625 28.078125 371.85938 25.8125Q371.32812 24.125 370.5 23.421875Q369.89062 22.9375 369.04688 22.9375Q368.04688 22.9375 367.26562 23.84375Q366.21875 25.046875 365.82812 27.65625Q365.45312 30.265625 365.45312 32.796875ZM377.17188 22.03125L377.17188 21.421875Q379.40625 22.515625 380.875 24.015625Q382.96875 26.15625 384.10938 29.03125Q385.26562 31.90625 385.26562 35.03125Q385.26562 39.5625 383.03125 43.3125Q380.79688 47.0625 377.17188 48.671875L377.17188 48.125Q378.96875 47.109375 380.14062 45.390625Q381.3125 43.671875 381.875 41.015625Q382.4375 38.359375 382.4375 35.46875Q382.4375 32.34375 381.95312 29.765625Q381.57812 27.75 381.03125 26.53125Q380.48438 25.3125 379.57812 24.1875Q378.67188 23.0625 377.17188 22.03125Z" fill-rule="nonzero"/></svg>