<svg version="1.1" viewBox="0.0 0.0 544.0 305.0" fill="none" stroke="none" stroke-linecap="square" stroke-miterlimit="10" width="544" height="305" xmlns:xlink="http://www.w3.org/1999/xlink" xmlns="http://www.w3.org/2000/svg"><path fill="#ffffff" fill-opacity="0.0" d="M0 0L544.0 0L544.0 305.0L0 305.0L0 0Z" fill-rule="nonzero"/><path fill="#ea4335" d="M174.91685 236.53673C152.29094 201.08112 150.7929 156.11089 171.0091 119.22814C191.22528 82.34538 229.94014 59.416668 272.0 59.416668L272.0 117.0C250.97006 117.0 231.61264 128.46436 221.50455 146.90573C211.39645 165.3471 212.14546 187.83223 223.45842 205.56003Z" fill-rule="nonzero"/><path fill="#4285f4" d="M272.0 59.416668C327.2471 59.416668 374.71094 98.64872 385.10864 152.90855C395.50635 207.1684 365.90823 261.16766 314.5749 281.59146C263.24158 302.01526 204.63678 283.10892 174.91685 236.53673L223.45842 205.56003C238.31839 228.84612 267.6208 238.29929 293.28745 228.0874C318.9541 217.8755 333.75317 190.87587 328.55432 163.74594C323.35547 136.61603 299.62357 117.0 272.0 117.0Z" fill-rule="nonzero"/><path fill="#000000" d="M24.890625 104.652145L25.125 108.26152L24.890625 108.26152Q24.40625 106.63652 23.5 105.933395Q22.609375 105.214645 21.34375 105.214645Q20.296875 105.214645 19.4375 105.76152Q18.59375 106.29277 18.09375 107.464645Q17.609375 108.63652 17.609375 110.370895Q17.609375 111.808395 18.0625 112.870895Q18.53125 113.91777 19.453125 114.48027Q20.390625 115.04277 21.578125 115.04277Q22.609375 115.04277 23.390625 114.60527Q24.1875 114.16777 25.125 112.85527L25.375 113.01152Q24.578125 114.41777 23.515625 115.089645Q22.453125 115.745895 20.984375 115.745895Q18.359375 115.745895 16.90625 113.777145Q15.828125 112.32402 15.828125 110.35527Q15.828125 108.777145 16.53125 107.44902Q17.25 106.120895 18.5 105.38652Q19.75 104.652145 21.21875 104.652145Q22.375 104.652145 23.484375 105.214645Q23.8125 105.38652 23.953125 105.38652Q24.171875 105.38652 24.328125 105.245895Q24.53125 105.027145 24.609375 104.652145L24.890625 104.652145ZM33.03125 108.339645L33.03125 112.66777Q33.03125 113.91777 33.078125 114.19902Q33.140625 114.464645 33.265625 114.57402Q33.40625 114.683395 33.578125 114.683395Q33.8125 114.683395 34.125 114.558395L34.234375 114.82402L32.09375 115.714645L31.734375 115.714645L31.734375 114.19902Q30.8125 115.19902 30.328125 115.464645Q29.84375 115.714645 29.3125 115.714645Q28.703125 115.714645 28.265625 115.370895Q27.828125 115.01152 27.65625 114.464645Q27.484375 113.91777 27.484375 112.91777L27.484375 109.73027Q27.484375 109.214645 27.375 109.027145Q27.265625 108.82402 27.046875 108.73027Q26.828125 108.620895 26.265625 108.620895L26.265625 108.339645L28.78125 108.339645L28.78125 113.120895Q28.78125 114.120895 29.125 114.433395Q29.46875 114.745895 29.96875 114.745895Q30.296875 114.745895 30.71875 114.54277Q31.15625 114.32402 31.734375 113.73027L31.734375 109.683395Q31.734375 109.07402 31.515625 108.85527Q31.296875 108.63652 30.59375 108.620895L30.59375 108.339645L33.03125 108.339645ZM35.84375 108.120895L35.84375 109.73027Q36.75 108.120895 37.6875 108.120895Q38.125 108.120895 38.40625 108.38652Q38.6875 108.652145 38.6875 108.995895Q38.6875 109.29277 38.484375 109.51152Q38.28125 109.714645 38.0 109.714645Q37.71875 109.714645 37.375 109.44902Q37.046875 109.183395 36.875 109.183395Q36.734375 109.183395 36.578125 109.339645Q36.21875 109.652145 35.84375 110.38652L35.84375 113.82402Q35.84375 114.41777 36.0 114.714645Q36.09375 114.933395 36.34375 115.07402Q36.609375 115.214645 37.09375 115.214645L37.09375 115.495895L33.4375 115.495895L33.4375 115.214645Q33.984375 115.214645 34.25 115.04277Q34.4375 114.91777 34.515625 114.63652Q34.5625 114.51152 34.5625 113.88652L34.5625 111.10527Q34.5625 109.85527 34.5 109.620895Q34.453125 109.38652 34.3125 109.277145Q34.1875 109.16777 33.984375 109.16777Q33.734375 109.16777 33.4375 109.277145L33.359375 108.995895L35.515625 108.120895L35.84375 108.120895ZM40.84375 108.120895L40.84375 109.73027Q41.75 108.120895 42.6875 108.120895Q43.125 108.120895 43.40625 108.38652Q43.6875 108.652145 43.6875 108.995895Q43.6875 109.29277 43.484375 109.51152Q43.28125 109.714645 43.0 109.714645Q42.71875 109.714645 42.375 109.44902Q42.046875 109.183395 41.875 109.183395Q41.734375 109.183395 41.578125 109.339645Q41.21875 109.652145 40.84375 110.38652L40.84375 113.82402Q40.84375 114.41777 41.0 114.714645Q41.09375 114.933395 41.34375 115.07402Q41.609375 115.214645 42.09375 115.214645L42.09375 115.495895L38.4375 115.495895L38.4375 115.214645Q38.984375 115.214645 39.25 115.04277Q39.4375 114.91777 39.515625 114.63652Q39.5625 114.51152 39.5625 113.88652L39.5625 111.10527Q39.5625 109.85527 39.5 109.620895Q39.453125 109.38652 39.3125 109.277145Q39.1875 109.16777 38.984375 109.16777Q38.734375 109.16777 38.4375 109.277145L38.359375 108.995895L40.515625 108.120895L40.84375 108.120895ZM44.953125 111.027145Q44.953125 112.620895 45.734375 113.527145Q46.515625 114.433395 47.5625 114.433395Q48.265625 114.433395 48.78125 114.058395Q49.3125 113.66777 49.65625 112.73027L49.90625 112.88652Q49.734375 113.94902 48.9375 114.839645Q48.15625 115.714645 46.96875 115.714645Q45.6875 115.714645 44.765625 114.714645Q43.84375 113.69902 43.84375 112.01152Q43.84375 110.16777 44.78125 109.152145Q45.734375 108.120895 47.15625 108.120895Q48.359375 108.120895 49.125 108.91777Q49.90625 109.69902 49.90625 111.027145L44.953125 111.027145ZM44.953125 110.57402L48.265625 110.57402Q48.234375 109.88652 48.109375 109.60527Q47.90625 109.16777 47.515625 108.91777Q47.140625 108.66777 46.71875 108.66777Q46.0625 108.66777 45.546875 109.183395Q45.046875 109.683395 44.953125 110.57402ZM52.84375 109.63652Q54.09375 108.120895 55.234375 108.120895Q55.828125 108.120895 56.25 108.41777Q56.671875 108.714645 56.921875 109.38652Q57.09375 109.85527 57.09375 110.82402L57.09375 113.870895Q57.09375 114.558395 57.203125 114.79277Q57.28125 114.995895 57.46875 115.10527Q57.671875 115.214645 58.1875 115.214645L58.1875 115.495895L54.640625 115.495895L54.640625 115.214645L54.796875 115.214645Q55.296875 115.214645 55.484375 115.058395Q55.6875 114.902145 55.765625 114.60527Q55.796875 114.495895 55.796875 113.870895L55.796875 110.94902Q55.796875 109.964645 55.546875 109.527145Q55.296875 109.089645 54.6875 109.089645Q53.765625 109.089645 52.84375 110.10527L52.84375 113.870895Q52.84375 114.60527 52.921875 114.777145Q53.03125 114.995895 53.21875 115.10527Q53.421875 115.214645 54.0 115.214645L54.0 115.495895L50.46875 115.495895L50.46875 115.214645L50.625 115.214645Q51.171875 115.214645 51.359375 114.933395Q51.546875 114.652145 51.546875 113.870895L51.546875 111.214645Q51.546875 109.933395 51.484375 109.652145Q51.4375 109.370895 51.3125 109.277145Q51.1875 109.16777 50.984375 109.16777Q50.765625 109.16777 50.46875 109.277145L50.34375 108.995895L52.5 108.120895L52.84375 108.120895L52.84375 109.63652ZM59.828125 105.98027L59.828125 108.339645L61.5 108.339645L61.5 108.88652L59.828125 108.88652L59.828125 113.527145Q59.828125 114.214645 60.03125 114.464645Q60.234375 114.69902 60.546875 114.69902Q60.796875 114.69902 61.03125 114.54277Q61.28125 114.38652 61.421875 114.07402L61.71875 114.07402Q61.453125 114.839645 60.953125 115.23027Q60.453125 115.620895 59.921875 115.620895Q59.5625 115.620895 59.21875 115.41777Q58.875 115.214645 58.703125 114.839645Q58.546875 114.464645 58.546875 113.69902L58.546875 108.88652L57.40625 108.88652L57.40625 108.620895Q57.84375 108.44902 58.28125 108.04277Q58.734375 107.63652 59.09375 107.07402Q59.265625 106.777145 59.59375 105.98027L59.828125 105.98027ZM72.578125 111.94902L68.46875 111.94902L67.75 113.620895Q67.484375 114.23027 67.484375 114.54277Q67.484375 114.777145 67.71875 114.964645Q67.953125 115.152145 68.71875 115.19902L68.71875 115.495895L65.375 115.495895L65.375 115.19902Q66.046875 115.089645 66.234375 114.902145Q66.640625 114.527145 67.125 113.370895L70.84375 104.652145L71.125 104.652145L74.8125 113.464645Q75.25 114.527145 75.609375 114.85527Q75.984375 115.16777 76.625 115.19902L76.625 115.495895L72.453125 115.495895L72.453125 115.19902Q73.078125 115.16777 73.296875 114.995895Q73.53125 114.808395 73.53125 114.558395Q73.53125 114.214645 73.21875 113.464645L72.578125 111.94902ZM72.359375 111.370895L70.5625 107.089645L68.71875 111.370895L72.359375 111.370895ZM81.375 108.120895L81.375 110.558395L81.125 110.558395Q80.828125 109.41777 80.359375 109.01152Q79.890625 108.589645 79.171875 108.589645Q78.625 108.589645 78.28125 108.88652Q77.953125 109.16777 77.953125 109.51152Q77.953125 109.94902 78.203125 110.26152Q78.453125 110.589645 79.1875 110.94902L80.328125 111.495895Q81.921875 112.277145 81.921875 113.54277Q81.921875 114.51152 81.171875 115.120895Q80.4375 115.714645 79.53125 115.714645Q78.875 115.714645 78.03125 115.48027Q77.765625 115.402145 77.609375 115.402145Q77.421875 115.402145 77.328125 115.60527L77.0625 115.60527L77.0625 113.04277L77.328125 113.04277Q77.546875 114.13652 78.15625 114.69902Q78.78125 115.245895 79.546875 115.245895Q80.078125 115.245895 80.421875 114.933395Q80.765625 114.620895 80.765625 114.16777Q80.765625 113.63652 80.375 113.277145Q80.0 112.902145 78.859375 112.339645Q77.734375 111.777145 77.390625 111.32402Q77.03125 110.870895 77.03125 110.19902Q77.03125 109.308395 77.640625 108.714645Q78.25 108.120895 79.203125 108.120895Q79.625 108.120895 80.234375 108.308395Q80.625 108.41777 80.765625 108.41777Q80.890625 108.41777 80.953125 108.370895Q81.03125 108.308395 81.125 108.120895L81.375 108.120895ZM87.375 108.120895L87.375 110.558395L87.125 110.558395Q86.828125 109.41777 86.359375 109.01152Q85.890625 108.589645 85.171875 108.589645Q84.625 108.589645 84.28125 108.88652Q83.953125 109.16777 83.953125 109.51152Q83.953125 109.94902 84.203125 110.26152Q84.453125 110.589645 85.1875 110.94902L86.328125 111.495895Q87.921875 112.277145 87.921875 113.54277Q87.921875 114.51152 87.171875 115.120895Q86.4375 115.714645 85.53125 115.714645Q84.875 115.714645 84.03125 115.48027Q83.765625 115.402145 83.609375 115.402145Q83.421875 115.402145 83.328125 115.60527L83.0625 115.60527L83.0625 113.04277L83.328125 113.04277Q83.546875 114.13652 84.15625 114.69902Q84.78125 115.245895 85.546875 115.245895Q86.078125 115.245895 86.421875 114.933395Q86.765625 114.620895 86.765625 114.16777Q86.765625 113.63652 86.375 113.277145Q86.0 112.902145 84.859375 112.339645Q83.734375 111.777145 83.390625 111.32402Q83.03125 110.870895 83.03125 110.19902Q83.03125 109.308395 83.640625 108.714645Q84.25 108.120895 85.203125 108.120895Q85.625 108.120895 86.234375 108.308395Q86.625 108.41777 86.765625 108.41777Q86.890625 108.41777 86.953125 108.370895Q87.03125 108.308395 87.125 108.120895L87.375 108.120895ZM89.953125 111.027145Q89.953125 112.620895 90.734375 113.527145Q91.515625 114.433395 92.5625 114.433395Q93.265625 114.433395 93.78125 114.058395Q94.3125 113.66777 94.65625 112.73027L94.90625 112.88652Q94.734375 113.94902 93.9375 114.839645Q93.15625 115.714645 91.96875 115.714645Q90.6875 115.714645 89.765625 114.714645Q88.84375 113.69902 88.84375 112.01152Q88.84375 110.16777 89.78125 109.152145Q90.734375 108.120895 92.15625 108.120895Q93.359375 108.120895 94.125 108.91777Q94.90625 109.69902 94.90625 111.027145L89.953125 111.027145ZM89.953125 110.57402L93.265625 110.57402Q93.234375 109.88652 93.109375 109.60527Q92.90625 109.16777 92.515625 108.91777Q92.140625 108.66777 91.71875 108.66777Q91.0625 108.66777 90.546875 109.183395Q90.046875 109.683395 89.953125 110.57402ZM97.828125 105.98027L97.828125 108.339645L99.5 108.339645L99.5 108.88652L97.828125 108.88652L97.828125 113.527145Q97.828125 114.214645 98.03125 114.464645Q98.234375 114.69902 98.546875 114.69902Q98.796875 114.69902 99.03125 114.54277Q99.28125 114.38652 99.421875 114.07402L99.71875 114.07402Q99.453125 114.839645 98.953125 115.23027Q98.453125 115.620895 97.921875 115.620895Q97.5625 115.620895 97.21875 115.41777Q96.875 115.214645 96.703125 114.839645Q96.546875 114.464645 96.546875 113.69902L96.546875 108.88652L95.40625 108.88652L95.40625 108.620895Q95.84375 108.44902 96.28125 108.04277Q96.734375 107.63652 97.09375 107.07402Q97.265625 106.777145 97.59375 105.98027L97.828125 105.98027ZM104.375 108.120895L104.375 110.558395L104.125 110.558395Q103.828125 109.41777 103.359375 109.01152Q102.890625 108.589645 102.171875 108.589645Q101.625 108.589645 101.28125 108.88652Q100.953125 109.16777 100.953125 109.51152Q100.953125 109.94902 101.203125 110.26152Q101.453125 110.589645 102.1875 110.94902L103.328125 111.495895Q104.921875 112.277145 104.921875 113.54277Q104.921875 114.51152 104.171875 115.120895Q103.4375 115.714645 102.53125 115.714645Q101.875 115.714645 101.03125 115.48027Q100.765625 115.402145 100.609375 115.402145Q100.421875 115.402145 100.328125 115.60527L100.0625 115.60527L100.0625 113.04277L100.328125 113.04277Q100.546875 114.13652 101.15625 114.69902Q101.78125 115.245895 102.546875 115.245895Q103.078125 115.245895 103.421875 114.933395Q103.765625 114.620895 103.765625 114.16777Q103.765625 113.63652 103.375 113.277145Q103.0 112.902145 101.859375 112.339645Q100.734375 111.777145 100.390625 111.32402Q100.03125 110.870895 100.03125 110.19902Q100.03125 109.308395 100.640625 108.714645Q101.25 108.120895 102.203125 108.120895Q102.625 108.120895 103.234375 108.308395Q103.625 108.41777 103.765625 108.41777Q103.890625 108.41777 103.953125 108.370895Q104.03125 108.308395 104.125 108.120895L104.375 108.120895Z" fill-rule="nonzero"/><path fill="#9e9e9e" d="M16.0625 129.91777Q16.515625 128.83965 17.203125 128.26152Q17.90625 127.683395 18.9375 127.683395Q20.203125 127.683395 20.890625 128.51152Q21.40625 129.1209 21.40625 129.82402Q21.40625 130.98027 19.953125 132.21465Q20.921875 132.60527 21.421875 133.32402Q21.921875 134.02715 21.921875 134.98027Q21.921875 136.35527 21.046875 137.3709Q19.90625 138.6834 17.75 138.6834Q16.671875 138.6834 16.28125 138.41777Q15.90625 138.15215 15.90625 137.83965Q15.90625 137.6209 16.078125 137.44902Q16.265625 137.27715 16.53125 137.27715Q16.71875 137.27715 16.921875 137.33965Q17.0625 137.3709 17.53125 137.6209Q18.0 137.8709 18.171875 137.91777Q18.46875 137.9959 18.796875 137.9959Q19.59375 137.9959 20.171875 137.38652Q20.765625 136.76152 20.765625 135.91777Q20.765625 135.3084 20.5 134.71465Q20.296875 134.27715 20.046875 134.0584Q19.71875 133.7459 19.125 133.4959Q18.546875 133.23027 17.9375 133.23027L17.6875 133.23027L17.6875 132.9959Q18.296875 132.91777 18.921875 132.5584Q19.546875 132.1834 19.828125 131.66777Q20.109375 131.15215 20.109375 130.54277Q20.109375 129.73027 19.59375 129.2459Q19.09375 128.7459 18.34375 128.7459Q17.140625 128.7459 16.328125 130.04277L16.0625 129.91777ZM30.703125 134.58965L30.703125 135.69902L29.28125 135.69902L29.28125 138.4959L27.984375 138.4959L27.984375 135.69902L23.5 135.69902L23.5 134.69902L28.421875 127.683395L29.28125 127.683395L29.28125 134.58965L30.703125 134.58965ZM27.984375 134.58965L27.984375 129.32402L24.265625 134.58965L27.984375 134.58965ZM33.25 136.98027Q33.625 136.98027 33.875 137.23027Q34.125 137.48027 34.125 137.83965Q34.125 138.19902 33.859375 138.46465Q33.609375 138.71465 33.25 138.71465Q32.890625 138.71465 32.640625 138.46465Q32.390625 138.19902 32.390625 137.83965Q32.390625 137.48027 32.640625 137.23027Q32.890625 136.98027 33.25 136.98027ZM35.828125 133.26152Q35.828125 131.44902 36.375 130.13652Q36.921875 128.82402 37.828125 128.1834Q38.53125 127.683395 39.28125 127.683395Q40.5 127.683395 41.46875 128.91777Q42.6875 130.46465 42.6875 133.08965Q42.6875 134.9334 42.15625 136.23027Q41.625 137.51152 40.796875 138.10527Q39.96875 138.6834 39.203125 138.6834Q37.6875 138.6834 36.6875 136.88652Q35.828125 135.38652 35.828125 133.26152ZM37.359375 133.44902Q37.359375 135.63652 37.90625 137.02715Q38.34375 138.1834 39.234375 138.1834Q39.65625 138.1834 40.109375 137.8084Q40.5625 137.4334 40.796875 136.54277Q41.15625 135.19902 41.15625 132.7459Q41.15625 130.9334 40.78125 129.73027Q40.5 128.82402 40.046875 128.44902Q39.734375 128.19902 39.28125 128.19902Q38.75 128.19902 38.328125 128.66777Q37.765625 129.32402 37.5625 130.71465Q37.359375 132.10527 37.359375 133.44902ZM54.125 127.652145L46.40625 138.9334L45.71875 138.9334L53.4375 127.652145L54.125 127.652145ZM46.09375 127.652145Q47.15625 127.652145 47.734375 128.52715Q48.3125 129.40215 48.3125 130.54277Q48.3125 131.90215 47.65625 132.65215Q47.0 133.38652 46.078125 133.38652Q45.46875 133.38652 44.953125 133.04277Q44.4375 132.69902 44.125 132.02715Q43.8125 131.35527 43.8125 130.54277Q43.8125 129.71465 44.125 129.02715Q44.4375 128.33965 44.984375 127.995895Q45.53125 127.652145 46.09375 127.652145ZM46.078125 128.08965Q45.671875 128.08965 45.359375 128.5584Q45.0625 129.02715 45.0625 130.52715Q45.0625 131.6209 45.234375 132.1834Q45.359375 132.6209 45.640625 132.85527Q45.8125 132.9959 46.046875 132.9959Q46.421875 132.9959 46.6875 132.58965Q47.078125 131.98027 47.078125 130.57402Q47.078125 129.08965 46.703125 128.4959Q46.453125 128.08965 46.078125 128.08965ZM53.765625 133.23027Q54.328125 133.23027 54.875 133.58965Q55.421875 133.9334 55.71875 134.60527Q56.03125 135.27715 56.03125 136.08965Q56.03125 137.46465 55.359375 138.19902Q54.703125 138.9334 53.796875 138.9334Q53.21875 138.9334 52.6875 138.57402Q52.15625 138.23027 51.84375 137.57402Q51.53125 136.91777 51.53125 136.08965Q51.53125 135.26152 51.84375 134.58965Q52.15625 133.90215 52.6875 133.57402Q53.21875 133.23027 53.765625 133.23027ZM53.78125 133.65215Q53.40625 133.65215 53.125 134.07402Q52.78125 134.6209 52.78125 136.13652Q52.78125 137.54277 53.140625 138.08965Q53.40625 138.4959 53.78125 138.4959Q54.140625 138.4959 54.421875 138.0584Q54.796875 137.4959 54.796875 136.10527Q54.796875 134.63652 54.421875 134.04277Q54.15625 133.65215 53.78125 133.65215Z" fill-rule="nonzero"/><path stroke="#757575" stroke-width="1.0" stroke-linecap="butt" d="M15.25 121.995895L150.83333 121.995895L176.05864 121.995895" fill-rule="nonzero"/><path fill="#9e9e9e" d="M178.05864 121.995895C178.05864 120.89133 177.16321 119.995895 176.05864 119.995895C174.95407 119.995895 174.05864 120.89133 174.05864 121.995895C174.05864 123.10047 174.95407 123.995895 176.05864 123.995895C177.16321 123.995895 178.05864 123.10047 178.05864 121.995895" fill-rule="nonzero"/><path fill="#000000" d="M409.53125 210.07701L412.42188 210.07701L418.89062 218.01451L418.89062 211.90514Q418.89062 210.93639 418.67188 210.68639Q418.39062 210.35826 417.76562 210.35826L417.39062 210.35826L417.39062 210.07701L421.07812 210.07701L421.07812 210.35826L420.70312 210.35826Q420.03125 210.35826 419.75 210.76451Q419.57812 211.01451 419.57812 211.90514L419.57812 220.84264L419.29688 220.84264L412.3125 212.31139L412.3125 218.82701Q412.3125 219.81139 412.53125 220.04576Q412.82812 220.37389 413.4375 220.37389L413.8125 220.37389L413.8125 220.67076L410.125 220.67076L410.125 220.37389L410.5 220.37389Q411.17188 220.37389 411.45312 219.96764Q411.625 219.71764 411.625 218.82701L411.625 211.46764Q411.17188 210.92076 410.92188 210.74889Q410.6875 210.57701 410.23438 210.43639Q410.0 210.35826 409.53125 210.35826L409.53125 210.07701ZM425.75 213.29576Q427.375 213.29576 428.35938 214.53014Q429.20312 215.59264 429.20312 216.95201Q429.20312 217.92076 428.73438 218.90514Q428.28125 219.88951 427.46875 220.38951Q426.65625 220.88951 425.67188 220.88951Q424.04688 220.88951 423.09375 219.59264Q422.29688 218.51451 422.29688 217.15514Q422.29688 216.17076 422.78125 215.20201Q423.26562 214.23326 424.0625 213.76451Q424.85938 213.29576 425.75 213.29576ZM425.51562 213.81139Q425.09375 213.81139 424.67188 214.06139Q424.26562 214.29576 424.0 214.92076Q423.75 215.53014 423.75 216.49889Q423.75 218.06139 424.35938 219.20201Q424.98438 220.32701 426.0 220.32701Q426.76562 220.32701 427.25 219.70201Q427.75 219.07701 427.75 217.56139Q427.75 215.65514 426.92188 214.56139Q426.375 213.81139 425.51562 213.81139ZM432.34375 214.81139Q433.59375 213.29576 434.73438 213.29576Q435.32812 213.29576 435.75 213.59264Q436.17188 213.88951 436.42188 214.56139Q436.59375 215.03014 436.59375 215.99889L436.59375 219.04576Q436.59375 219.73326 436.70312 219.96764Q436.78125 220.17076 436.96875 220.28014Q437.17188 220.38951 437.6875 220.38951L437.6875 220.67076L434.14062 220.67076L434.14062 220.38951L434.29688 220.38951Q434.79688 220.38951 434.98438 220.23326Q435.1875 220.07701 435.26562 219.78014Q435.29688 219.67076 435.29688 219.04576L435.29688 216.12389Q435.29688 215.13951 435.04688 214.70201Q434.79688 214.26451 434.1875 214.26451Q433.26562 214.26451 432.34375 215.28014L432.34375 219.04576Q432.34375 219.78014 432.42188 219.95201Q432.53125 220.17076 432.71875 220.28014Q432.92188 220.38951 433.5 220.38951L433.5 220.67076L429.96875 220.67076L429.96875 220.38951L430.125 220.38951Q430.67188 220.38951 430.85938 220.10826Q431.04688 219.82701 431.04688 219.04576L431.04688 216.38951Q431.04688 215.10826 430.98438 214.82701Q430.9375 214.54576 430.8125 214.45201Q430.6875 214.34264 430.48438 214.34264Q430.26562 214.34264 429.96875 214.45201L429.84375 214.17076L432.0 213.29576L432.34375 213.29576L432.34375 214.81139ZM437.40625 216.48326L441.4375 216.48326L441.4375 217.67076L437.40625 217.67076L437.40625 216.48326ZM449.32812 217.95201Q449.04688 219.35826 448.20312 220.12389Q447.35938 220.88951 446.32812 220.88951Q445.10938 220.88951 444.20312 219.87389Q443.29688 218.84264 443.29688 217.09264Q443.29688 215.40514 444.29688 214.35826Q445.3125 213.29576 446.71875 213.29576Q447.76562 213.29576 448.4375 213.85826Q449.125 214.42076 449.125 215.01451Q449.125 215.31139 448.9375 215.49889Q448.75 215.68639 448.40625 215.68639Q447.9375 215.68639 447.70312 215.38951Q447.57812 215.21764 447.53125 214.76451Q447.48438 214.29576 447.21875 214.06139Q446.9375 213.82701 446.45312 213.82701Q445.67188 213.82701 445.20312 214.40514Q444.5625 215.17076 444.5625 216.42076Q444.5625 217.70201 445.1875 218.68639Q445.82812 219.67076 446.89062 219.67076Q447.65625 219.67076 448.26562 219.13951Q448.70312 218.78014 449.10938 217.84264L449.32812 217.95201ZM456.53125 213.51451L456.53125 217.84264Q456.53125 219.09264 456.57812 219.37389Q456.64062 219.63951 456.76562 219.74889Q456.90625 219.85826 457.07812 219.85826Q457.3125 219.85826 457.625 219.73326L457.73438 219.99889L455.59375 220.88951L455.23438 220.88951L455.23438 219.37389Q454.3125 220.37389 453.82812 220.63951Q453.34375 220.88951 452.8125 220.88951Q452.20312 220.88951 451.76562 220.54576Q451.32812 220.18639 451.15625 219.63951Q450.98438 219.09264 450.98438 218.09264L450.98438 214.90514Q450.98438 214.38951 450.875 214.20201Q450.76562 213.99889 450.54688 213.90514Q450.32812 213.79576 449.76562 213.79576L449.76562 213.51451L452.28125 213.51451L452.28125 218.29576Q452.28125 219.29576 452.625 219.60826Q452.96875 219.92076 453.46875 219.92076Q453.79688 219.92076 454.21875 219.71764Q454.65625 219.49889 455.23438 218.90514L455.23438 214.85826Q455.23438 214.24889 455.01562 214.03014Q454.79688 213.81139 454.09375 213.79576L454.09375 213.51451L456.53125 213.51451ZM459.34375 213.29576L459.34375 214.90514Q460.25 213.29576 461.1875 213.29576Q461.625 213.29576 461.90625 213.56139Q462.1875 213.82701 462.1875 214.17076Q462.1875 214.46764 461.98438 214.68639Q461.78125 214.88951 461.5 214.88951Q461.21875 214.88951 460.875 214.62389Q460.54688 214.35826 460.375 214.35826Q460.23438 214.35826 460.07812 214.51451Q459.71875 214.82701 459.34375 215.56139L459.34375 218.99889Q459.34375 219.59264 459.5 219.88951Q459.59375 220.10826 459.84375 220.24889Q460.10938 220.38951 460.59375 220.38951L460.59375 220.67076L456.9375 220.67076L456.9375 220.38951Q457.48438 220.38951 457.75 220.21764Q457.9375 220.09264 458.01562 219.81139Q458.0625 219.68639 458.0625 219.06139L458.0625 216.28014Q458.0625 215.03014 458.0 214.79576Q457.95312 214.56139 457.8125 214.45201Q457.6875 214.34264 457.48438 214.34264Q457.23438 214.34264 456.9375 214.45201L456.85938 214.17076L459.01562 213.29576L459.34375 213.29576ZM464.34375 213.29576L464.34375 214.90514Q465.25 213.29576 466.1875 213.29576Q466.625 213.29576 466.90625 213.56139Q467.1875 213.82701 467.1875 214.17076Q467.1875 214.46764 466.98438 214.68639Q466.78125 214.88951 466.5 214.88951Q466.21875 214.88951 465.875 214.62389Q465.54688 214.35826 465.375 214.35826Q465.23438 214.35826 465.07812 214.51451Q464.71875 214.82701 464.34375 215.56139L464.34375 218.99889Q464.34375 219.59264 464.5 219.88951Q464.59375 220.10826 464.84375 220.24889Q465.10938 220.38951 465.59375 220.38951L465.59375 220.67076L461.9375 220.67076L461.9375 220.38951Q462.48438 220.38951 462.75 220.21764Q462.9375 220.09264 463.01562 219.81139Q463.0625 219.68639 463.0625 219.06139L463.0625 216.28014Q463.0625 215.03014 463.0 214.79576Q462.95312 214.56139 462.8125 214.45201Q462.6875 214.34264 462.48438 214.34264Q462.23438 214.34264 461.9375 214.45201L461.85938 214.17076L464.01562 213.29576L464.34375 213.29576ZM468.45312 216.20201Q468.45312 217.79576 469.23438 218.70201Q470.01562 219.60826 471.0625 219.60826Q471.76562 219.60826 472.28125 219.23326Q472.8125 218.84264 473.15625 217.90514L473.40625 218.06139Q473.23438 219.12389 472.4375 220.01451Q471.65625 220.88951 470.46875 220.88951Q469.1875 220.88951 468.26562 219.88951Q467.34375 218.87389 467.34375 217.18639Q467.34375 215.34264 468.28125 214.32701Q469.23438 213.29576 470.65625 213.29576Q471.85938 213.29576 472.625 214.09264Q473.40625 214.87389 473.40625 216.20201L468.45312 216.20201ZM468.45312 215.74889L471.76562 215.74889Q471.73438 215.06139 471.60938 214.78014Q471.40625 214.34264 471.01562 214.09264Q470.64062 213.84264 470.21875 213.84264Q469.5625 213.84264 469.04688 214.35826Q468.54688 214.85826 468.45312 215.74889ZM476.34375 214.81139Q477.59375 213.29576 478.73438 213.29576Q479.32812 213.29576 479.75 213.59264Q480.17188 213.88951 480.42188 214.56139Q480.59375 215.03014 480.59375 215.99889L480.59375 219.04576Q480.59375 219.73326 480.70312 219.96764Q480.78125 220.17076 480.96875 220.28014Q481.17188 220.38951 481.6875 220.38951L481.6875 220.67076L478.14062 220.67076L478.14062 220.38951L478.29688 220.38951Q478.79688 220.38951 478.98438 220.23326Q479.1875 220.07701 479.26562 219.78014Q479.29688 219.67076 479.29688 219.04576L479.29688 216.12389Q479.29688 215.13951 479.04688 214.70201Q478.79688 214.26451 478.1875 214.26451Q477.26562 214.26451 476.34375 215.28014L476.34375 219.04576Q476.34375 219.78014 476.42188 219.95201Q476.53125 220.17076 476.71875 220.28014Q476.92188 220.38951 477.5 220.38951L477.5 220.67076L473.96875 220.67076L473.96875 220.38951L474.125 220.38951Q474.67188 220.38951 474.85938 220.10826Q475.04688 219.82701 475.04688 219.04576L475.04688 216.38951Q475.04688 215.10826 474.98438 214.82701Q474.9375 214.54576 474.8125 214.45201Q474.6875 214.34264 474.48438 214.34264Q474.26562 214.34264 473.96875 214.45201L473.84375 214.17076L476.0 213.29576L476.34375 213.29576L476.34375 214.81139ZM483.32812 211.15514L483.32812 213.51451L485.0 213.51451L485.0 214.06139L483.32812 214.06139L483.32812 218.70201Q483.32812 219.38951 483.53125 219.63951Q483.73438 219.87389 484.04688 219.87389Q484.29688 219.87389 484.53125 219.71764Q484.78125 219.56139 484.92188 219.24889L485.21875 219.24889Q484.95312 220.01451 484.45312 220.40514Q483.95312 220.79576 483.42188 220.79576Q483.0625 220.79576 482.71875 220.59264Q482.375 220.38951 482.20312 220.01451Q482.04688 219.63951 482.04688 218.87389L482.04688 214.06139L480.90625 214.06139L480.90625 213.79576Q481.34375 213.62389 481.78125 213.21764Q482.23438 212.81139 482.59375 212.24889Q482.76562 211.95201 483.09375 211.15514L483.32812 211.15514ZM496.07812 217.12389L491.96875 217.12389L491.25 218.79576Q490.98438 219.40514 490.98438 219.71764Q490.98438 219.95201 491.21875 220.13951Q491.45312 220.32701 492.21875 220.37389L492.21875 220.67076L488.875 220.67076L488.875 220.37389Q489.54688 220.26451 489.73438 220.07701Q490.14062 219.70201 490.625 218.54576L494.34375 209.82701L494.625 209.82701L498.3125 218.63951Q498.75 219.70201 499.10938 220.03014Q499.48438 220.34264 500.125 220.37389L500.125 220.67076L495.95312 220.67076L495.95312 220.37389Q496.57812 220.34264 496.79688 220.17076Q497.03125 219.98326 497.03125 219.73326Q497.03125 219.38951 496.71875 218.63951L496.07812 217.12389ZM495.85938 216.54576L494.0625 212.26451L492.21875 216.54576L495.85938 216.54576ZM504.875 213.29576L504.875 215.73326L504.625 215.73326Q504.32812 214.59264 503.85938 214.18639Q503.39062 213.76451 502.67188 213.76451Q502.125 213.76451 501.78125 214.06139Q501.45312 214.34264 501.45312 214.68639Q501.45312 215.12389 501.70312 215.43639Q501.95312 215.76451 502.6875 216.12389L503.82812 216.67076Q505.42188 217.45201 505.42188 218.71764Q505.42188 219.68639 504.67188 220.29576Q503.9375 220.88951 503.03125 220.88951Q502.375 220.88951 501.53125 220.65514Q501.26562 220.57701 501.10938 220.57701Q500.92188 220.57701 500.82812 220.78014L500.5625 220.78014L500.5625 218.21764L500.82812 218.21764Q501.04688 219.31139 501.65625 219.87389Q502.28125 220.42076 503.04688 220.42076Q503.57812 220.42076 503.92188 220.10826Q504.26562 219.79576 504.26562 219.34264Q504.26562 218.81139 503.875 218.45201Q503.5 218.07701 502.35938 217.51451Q501.23438 216.95201 500.89062 216.49889Q500.53125 216.04576 500.53125 215.37389Q500.53125 214.48326 501.14062 213.88951Q501.75 213.29576 502.70312 213.29576Q503.125 213.29576 503.73438 213.48326Q504.125 213.59264 504.26562 213.59264Q504.39062 213.59264 504.45312 213.54576Q504.53125 213.48326 504.625 213.29576L504.875 213.29576ZM510.875 213.29576L510.875 215.73326L510.625 215.73326Q510.32812 214.59264 509.85938 214.18639Q509.39062 213.76451 508.67188 213.76451Q508.125 213.76451 507.78125 214.06139Q507.45312 214.34264 507.45312 214.68639Q507.45312 215.12389 507.70312 215.43639Q507.95312 215.76451 508.6875 216.12389L509.82812 216.67076Q511.42188 217.45201 511.42188 218.71764Q511.42188 219.68639 510.67188 220.29576Q509.9375 220.88951 509.03125 220.88951Q508.375 220.88951 507.53125 220.65514Q507.26562 220.57701 507.10938 220.57701Q506.92188 220.57701 506.82812 220.78014L506.5625 220.78014L506.5625 218.21764L506.82812 218.21764Q507.04688 219.31139 507.65625 219.87389Q508.28125 220.42076 509.04688 220.42076Q509.57812 220.42076 509.92188 220.10826Q510.26562 219.79576 510.26562 219.34264Q510.26562 218.81139 509.875 218.45201Q509.5 218.07701 508.35938 217.51451Q507.23438 216.95201 506.89062 216.49889Q506.53125 216.04576 506.53125 215.37389Q506.53125 214.48326 507.14062 213.88951Q507.75 213.29576 508.70312 213.29576Q509.125 213.29576 509.73438 213.48326Q510.125 213.59264 510.26562 213.59264Q510.39062 213.59264 510.45312 213.54576Q510.53125 213.48326 510.625 213.29576L510.875 213.29576ZM513.4531 216.20201Q513.4531 217.79576 514.2344 218.70201Q515.0156 219.60826 516.0625 219.60826Q516.7656 219.60826 517.28125 219.23326Q517.8125 218.84264 518.15625 217.90514L518.40625 218.06139Q518.2344 219.12389 517.4375 220.01451Q516.65625 220.88951 515.46875 220.88951Q514.1875 220.88951 513.2656 219.88951Q512.34375 218.87389 512.34375 217.18639Q512.34375 215.34264 513.28125 214.32701Q514.2344 213.29576 515.65625 213.29576Q516.8594 213.29576 517.625 214.09264Q518.40625 214.87389 518.40625 216.20201L513.4531 216.20201ZM513.4531 215.74889L516.7656 215.74889Q516.7344 215.06139 516.6094 214.78014Q516.40625 214.34264 516.0156 214.09264Q515.6406 213.84264 515.21875 213.84264Q514.5625 213.84264 514.0469 214.35826Q513.5469 214.85826 513.4531 215.74889ZM521.3281 211.15514L521.3281 213.51451L523.0 213.51451L523.0 214.06139L521.3281 214.06139L521.3281 218.70201Q521.3281 219.38951 521.53125 219.63951Q521.7344 219.87389 522.0469 219.87389Q522.2969 219.87389 522.53125 219.71764Q522.78125 219.56139 522.9219 219.24889L523.21875 219.24889Q522.9531 220.01451 522.4531 220.40514Q521.9531 220.79576 521.4219 220.79576Q521.0625 220.79576 520.71875 220.59264Q520.375 220.38951 520.2031 220.01451Q520.0469 219.63951 520.0469 218.87389L520.0469 214.06139L518.90625 214.06139L518.90625 213.79576Q519.34375 213.62389 519.78125 213.21764Q520.2344 212.81139 520.59375 212.24889Q520.7656 211.95201 521.09375 211.15514L521.3281 211.15514ZM527.875 213.29576L527.875 215.73326L527.625 215.73326Q527.3281 214.59264 526.8594 214.18639Q526.3906 213.76451 525.6719 213.76451Q525.125 213.76451 524.78125 214.06139Q524.4531 214.34264 524.4531 214.68639Q524.4531 215.12389 524.7031 215.43639Q524.9531 215.76451 525.6875 216.12389L526.8281 216.67076Q528.4219 217.45201 528.4219 218.71764Q528.4219 219.68639 527.6719 220.29576Q526.9375 220.88951 526.03125 220.88951Q525.375 220.88951 524.53125 220.65514Q524.2656 220.57701 524.1094 220.57701Q523.9219 220.57701 523.8281 220.78014L523.5625 220.78014L523.5625 218.21764L523.8281 218.21764Q524.0469 219.31139 524.65625 219.87389Q525.28125 220.42076 526.0469 220.42076Q526.5781 220.42076 526.9219 220.10826Q527.2656 219.79576 527.2656 219.34264Q527.2656 218.81139 526.875 218.45201Q526.5 218.07701 525.3594 217.51451Q524.2344 216.95201 523.8906 216.49889Q523.53125 216.04576 523.53125 215.37389Q523.53125 214.48326 524.1406 213.88951Q524.75 213.29576 525.7031 213.29576Q526.125 213.29576 526.7344 213.48326Q527.125 213.59264 527.2656 213.59264Q527.3906 213.59264 527.4531 213.54576Q527.53125 213.48326 527.625 213.29576L527.875 213.29576Z" fill-rule="nonzero"/><path fill="#9e9e9e" d="M494.92188 232.85826L494.92188 233.13951Q493.89062 233.24889 493.23438 233.56139Q492.59375 233.85826 491.95312 234.49889Q491.3125 235.12389 490.89062 235.90514Q490.48438 236.68639 490.20312 237.74889Q491.32812 236.98326 492.45312 236.98326Q493.54688 236.98326 494.34375 237.85826Q495.14062 238.73326 495.14062 240.10826Q495.14062 241.43639 494.32812 242.53014Q493.35938 243.85826 491.76562 243.85826Q490.6875 243.85826 489.92188 243.13951Q488.4375 241.73326 488.4375 239.51451Q488.4375 238.09264 489.0 236.81139Q489.57812 235.53014 490.64062 234.54576Q491.70312 233.54576 492.67188 233.20201Q493.64062 232.85826 494.46875 232.85826L494.92188 232.85826ZM490.0625 238.32701Q489.92188 239.37389 489.92188 240.03014Q489.92188 240.78014 490.20312 241.65514Q490.48438 242.53014 491.03125 243.04576Q491.42188 243.42076 492.0 243.42076Q492.67188 243.42076 493.20312 242.78014Q493.75 242.13951 493.75 240.95201Q493.75 239.60826 493.21875 238.63951Q492.6875 237.65514 491.70312 237.65514Q491.40625 237.65514 491.0625 237.78014Q490.73438 237.90514 490.0625 238.32701ZM502.92188 232.85826L502.92188 233.13951Q501.89062 233.24889 501.23438 233.56139Q500.59375 233.85826 499.95312 234.49889Q499.3125 235.12389 498.89062 235.90514Q498.48438 236.68639 498.20312 237.74889Q499.32812 236.98326 500.45312 236.98326Q501.54688 236.98326 502.34375 237.85826Q503.14062 238.73326 503.14062 240.10826Q503.14062 241.43639 502.32812 242.53014Q501.35938 243.85826 499.76562 243.85826Q498.6875 243.85826 497.92188 243.13951Q496.4375 241.73326 496.4375 239.51451Q496.4375 238.09264 497.0 236.81139Q497.57812 235.53014 498.64062 234.54576Q499.70312 233.54576 500.67188 233.20201Q501.64062 232.85826 502.46875 232.85826L502.92188 232.85826ZM498.0625 238.32701Q497.92188 239.37389 497.92188 240.03014Q497.92188 240.78014 498.20312 241.65514Q498.48438 242.53014 499.03125 243.04576Q499.42188 243.42076 500.0 243.42076Q500.67188 243.42076 501.20312 242.78014Q501.75 242.13951 501.75 240.95201Q501.75 239.60826 501.21875 238.63951Q500.6875 237.65514 499.70312 237.65514Q499.40625 237.65514 499.0625 237.78014Q498.73438 237.90514 498.0625 238.32701ZM505.75 242.15514Q506.125 242.15514 506.375 242.40514Q506.625 242.65514 506.625 243.01451Q506.625 243.37389 506.35938 243.63951Q506.10938 243.88951 505.75 243.88951Q505.39062 243.88951 505.14062 243.63951Q504.89062 243.37389 504.89062 243.01451Q504.89062 242.65514 505.14062 242.40514Q505.39062 242.15514 505.75 242.15514ZM508.32812 238.43639Q508.32812 236.62389 508.875 235.31139Q509.42188 233.99889 510.32812 233.35826Q511.03125 232.85826 511.78125 232.85826Q513.0 232.85826 513.96875 234.09264Q515.1875 235.63951 515.1875 238.26451Q515.1875 240.10826 514.65625 241.40514Q514.125 242.68639 513.2969 243.28014Q512.46875 243.85826 511.70312 243.85826Q510.1875 243.85826 509.1875 242.06139Q508.32812 240.56139 508.32812 238.43639ZM509.85938 238.62389Q509.85938 240.81139 510.40625 242.20201Q510.84375 243.35826 511.73438 243.35826Q512.15625 243.35826 512.6094 242.98326Q513.0625 242.60826 513.2969 241.71764Q513.65625 240.37389 513.65625 237.92076Q513.65625 236.10826 513.28125 234.90514Q513.0 233.99889 512.5469 233.62389Q512.2344 233.37389 511.78125 233.37389Q511.25 233.37389 510.82812 233.84264Q510.26562 234.49889 510.0625 235.88951Q509.85938 237.28014 509.85938 238.62389ZM526.625 232.82701L518.90625 244.10826L518.21875 244.10826L525.9375 232.82701L526.625 232.82701ZM518.59375 232.82701Q519.65625 232.82701 520.2344 233.70201Q520.8125 234.57701 520.8125 235.71764Q520.8125 237.07701 520.15625 237.82701Q519.5 238.56139 518.5781 238.56139Q517.96875 238.56139 517.4531 238.21764Q516.9375 237.87389 516.625 237.20201Q516.3125 236.53014 516.3125 235.71764Q516.3125 234.88951 516.625 234.20201Q516.9375 233.51451 517.4844 233.17076Q518.03125 232.82701 518.59375 232.82701ZM518.5781 233.26451Q518.1719 233.26451 517.8594 233.73326Q517.5625 234.20201 517.5625 235.70201Q517.5625 236.79576 517.7344 237.35826Q517.8594 237.79576 518.1406 238.03014Q518.3125 238.17076 518.5469 238.17076Q518.9219 238.17076 519.1875 237.76451Q519.5781 237.15514 519.5781 235.74889Q519.5781 234.26451 519.2031 233.67076Q518.9531 233.26451 518.5781 233.26451ZM526.2656 238.40514Q526.8281 238.40514 527.375 238.76451Q527.9219 239.10826 528.21875 239.78014Q528.53125 240.45201 528.53125 241.26451Q528.53125 242.63951 527.8594 243.37389Q527.2031 244.10826 526.2969 244.10826Q525.71875 244.10826 525.1875 243.74889Q524.65625 243.40514 524.34375 242.74889Q524.03125 242.09264 524.03125 241.26451Q524.03125 240.43639 524.34375 239.76451Q524.65625 239.07701 525.1875 238.74889Q525.71875 238.40514 526.2656 238.40514ZM526.28125 238.82701Q525.90625 238.82701 525.625 239.24889Q525.28125 239.79576 525.28125 241.31139Q525.28125 242.71764 525.6406 243.26451Q525.90625 243.67076 526.28125 243.67076Q526.6406 243.67076 526.9219 243.23326Q527.2969 242.67076 527.2969 241.28014Q527.2969 239.81139 526.9219 239.21764Q526.65625 238.82701 526.28125 238.82701Z" fill-rule="nonzero"/><path stroke="#757575" stroke-width="1.0" stroke-linecap="butt" d="M528.75 227.17076L393.16666 227.17076L367.94138 227.17076" fill-rule="nonzero"/><path fill="#9e9e9e" d="M369.94138 227.17076C369.94138 226.0662 369.04593 225.17076 367.94138 225.17076C366.8368 225.17076 365.94138 226.0662 365.94138 227.17076C365.94138 228.27534 366.8368 229.17076 367.94138 229.17076C369.04593 229.17076 369.94138 228.27534 369.94138 227.17076" fill-rule="nonzero"/><path fill="#000000" d="M172.85938 22.390625L173.07812 27.046875L172.51562 27.046875Q172.35938 25.8125 172.07812 25.28125Q171.625 24.4375 170.875 24.03125Q170.125 23.625 168.89062 23.625L166.09375 23.625L166.09375 38.8125Q166.09375 40.640625 166.48438 41.09375Q167.04688 41.703125 168.20312 41.703125L168.89062 41.703125L168.89062 42.25L160.46875 42.25L160.46875 41.703125L161.17188 41.703125Q162.42188 41.703125 162.95312 40.953125Q163.28125 40.484375 163.28125 38.8125L163.28125 23.625L160.89062 23.625Q159.5 23.625 158.90625 23.84375Q158.15625 24.109375 157.60938 24.90625Q157.0625 25.703125 156.96875 27.046875L156.40625 27.046875L156.64062 22.390625L172.85938 22.390625ZM182.0 28.4375Q185.04688 28.4375 186.89062 30.75Q188.45312 32.734375 188.45312 35.296875Q188.45312 37.09375 187.59375 38.9375Q186.73438 40.78125 185.21875 41.71875Q183.70312 42.65625 181.84375 42.65625Q178.8125 42.65625 177.01562 40.25Q175.51562 38.203125 175.51562 35.671875Q175.51562 33.828125 176.42188 32.0Q177.34375 30.171875 178.82812 29.3125Q180.32812 28.4375 182.0 28.4375ZM181.54688 29.390625Q180.76562 29.390625 179.98438 29.859375Q179.20312 30.3125 178.71875 31.46875Q178.23438 32.625 178.23438 34.4375Q178.23438 37.375 179.39062 39.5Q180.5625 41.625 182.46875 41.625Q183.89062 41.625 184.8125 40.453125Q185.73438 39.28125 185.73438 36.421875Q185.73438 32.84375 184.20312 30.796875Q183.15625 29.390625 181.54688 29.390625ZM194.32812 24.421875L194.32812 28.828125L197.46875 28.828125L197.46875 29.859375L194.32812 29.859375L194.32812 38.5625Q194.32812 39.859375 194.70312 40.3125Q195.07812 40.765625 195.67188 40.765625Q196.15625 40.765625 196.60938 40.46875Q197.0625 40.171875 197.3125 39.578125L197.875 39.578125Q197.35938 41.015625 196.42188 41.75Q195.48438 42.46875 194.5 42.46875Q193.82812 42.46875 193.17188 42.09375Q192.53125 41.71875 192.21875 41.03125Q191.92188 40.328125 191.92188 38.875L191.92188 29.859375L189.79688 29.859375L189.79688 29.375Q190.59375 29.046875 191.4375 28.28125Q192.28125 27.515625 192.9375 26.453125Q193.28125 25.90625 193.875 24.421875L194.32812 24.421875ZM206.04688 40.3125Q203.96875 41.90625 203.45312 42.15625Q202.65625 42.53125 201.76562 42.53125Q200.375 42.53125 199.46875 41.578125Q198.5625 40.625 198.5625 39.078125Q198.5625 38.09375 199.01562 37.375Q199.60938 36.375 201.09375 35.5Q202.57812 34.625 206.04688 33.359375L206.04688 32.828125Q206.04688 30.828125 205.40625 30.078125Q204.76562 29.328125 203.54688 29.328125Q202.625 29.328125 202.07812 29.828125Q201.53125 30.328125 201.53125 30.96875L201.5625 31.8125Q201.5625 32.5 201.21875 32.859375Q200.875 33.21875 200.3125 33.21875Q199.76562 33.21875 199.42188 32.84375Q199.07812 32.46875 199.07812 31.8125Q199.07812 30.546875 200.35938 29.5Q201.65625 28.4375 203.98438 28.4375Q205.78125 28.4375 206.92188 29.03125Q207.78125 29.484375 208.1875 30.453125Q208.45312 31.09375 208.45312 33.03125L208.45312 37.59375Q208.45312 39.515625 208.53125 39.953125Q208.60938 40.375 208.76562 40.53125Q208.9375 40.671875 209.15625 40.671875Q209.39062 40.671875 209.57812 40.5625Q209.875 40.375 210.75 39.5L210.75 40.3125Q209.10938 42.515625 207.625 42.515625Q206.90625 42.515625 206.48438 42.015625Q206.0625 41.515625 206.04688 40.3125ZM206.04688 39.359375L206.04688 34.25Q203.82812 35.125 203.1875 35.5Q202.03125 36.140625 201.53125 36.84375Q201.03125 37.546875 201.03125 38.375Q201.03125 39.4375 201.65625 40.140625Q202.29688 40.828125 203.10938 40.828125Q204.21875 40.828125 206.04688 39.359375ZM216.04688 21.421875L216.04688 39.21875Q216.04688 40.484375 216.23438 40.890625Q216.42188 41.296875 216.79688 41.515625Q217.1875 41.71875 218.21875 41.71875L218.21875 42.25L211.64062 42.25L211.64062 41.71875Q212.5625 41.71875 212.89062 41.53125Q213.23438 41.34375 213.42188 40.90625Q213.625 40.46875 213.625 39.21875L213.625 27.03125Q213.625 24.765625 213.51562 24.25Q213.42188 23.71875 213.1875 23.53125Q212.96875 23.34375 212.60938 23.34375Q212.23438 23.34375 211.64062 23.578125L211.39062 23.0625L215.39062 21.421875L216.04688 21.421875ZM239.21875 35.59375L231.53125 35.59375L230.1875 38.734375Q229.6875 39.890625 229.6875 40.46875Q229.6875 40.921875 230.10938 41.265625Q230.54688 41.609375 231.98438 41.703125L231.98438 42.25L225.73438 42.25L225.73438 41.703125Q226.98438 41.484375 227.34375 41.140625Q228.09375 40.4375 229.0 38.28125L235.98438 21.9375L236.5 21.9375L243.42188 38.453125Q244.25 40.453125 244.92188 41.046875Q245.60938 41.640625 246.82812 41.703125L246.82812 42.25L238.98438 42.25L238.98438 41.703125Q240.17188 41.65625 240.59375 41.3125Q241.01562 40.96875 241.01562 40.484375Q241.01562 39.84375 240.42188 38.453125L239.21875 35.59375ZM238.8125 34.515625L235.45312 26.484375L231.98438 34.515625L238.8125 34.515625ZM256.10938 28.4375L256.10938 33.0L255.625 33.0Q255.0625 30.859375 254.1875 30.078125Q253.32812 29.296875 251.98438 29.296875Q250.95312 29.296875 250.3125 29.84375Q249.6875 30.390625 249.6875 31.046875Q249.6875 31.859375 250.15625 32.453125Q250.60938 33.046875 252.01562 33.71875L254.14062 34.765625Q257.125 36.21875 257.125 38.59375Q257.125 40.421875 255.73438 41.546875Q254.35938 42.65625 252.64062 42.65625Q251.40625 42.65625 249.82812 42.21875Q249.34375 42.078125 249.03125 42.078125Q248.70312 42.078125 248.5 42.453125L248.03125 42.453125L248.03125 37.671875L248.5 37.671875Q248.92188 39.71875 250.07812 40.765625Q251.23438 41.796875 252.67188 41.796875Q253.67188 41.796875 254.3125 41.203125Q254.95312 40.609375 254.95312 39.78125Q254.95312 38.765625 254.23438 38.078125Q253.53125 37.390625 251.40625 36.34375Q249.28125 35.28125 248.625 34.421875Q247.96875 33.59375 247.96875 32.3125Q247.96875 30.65625 249.09375 29.546875Q250.23438 28.4375 252.03125 28.4375Q252.82812 28.4375 253.95312 28.765625Q254.70312 29.0 254.95312 29.0Q255.1875 29.0 255.3125 28.890625Q255.45312 28.78125 255.625 28.4375L256.10938 28.4375ZM267.10938 28.4375L267.10938 33.0L266.625 33.0Q266.0625 30.859375 265.1875 30.078125Q264.32812 29.296875 262.98438 29.296875Q261.95312 29.296875 261.3125 29.84375Q260.6875 30.390625 260.6875 31.046875Q260.6875 31.859375 261.15625 32.453125Q261.60938 33.046875 263.01562 33.71875L265.14062 34.765625Q268.125 36.21875 268.125 38.59375Q268.125 40.421875 266.73438 41.546875Q265.35938 42.65625 263.64062 42.65625Q262.40625 42.65625 260.82812 42.21875Q260.34375 42.078125 260.03125 42.078125Q259.70312 42.078125 259.5 42.453125L259.03125 42.453125L259.03125 37.671875L259.5 37.671875Q259.92188 39.71875 261.07812 40.765625Q262.23438 41.796875 263.67188 41.796875Q264.67188 41.796875 265.3125 41.203125Q265.95312 40.609375 265.95312 39.78125Q265.95312 38.765625 265.23438 38.078125Q264.53125 37.390625 262.40625 36.34375Q260.28125 35.28125 259.625 34.421875Q258.96875 33.59375 258.96875 32.3125Q258.96875 30.65625 260.09375 29.546875Q261.23438 28.4375 263.03125 28.4375Q263.82812 28.4375 264.95312 28.765625Q265.70312 29.0 265.95312 29.0Q266.1875 29.0 266.3125 28.890625Q266.45312 28.78125 266.625 28.4375L267.10938 28.4375ZM271.6875 33.890625Q271.67188 36.875 273.14062 38.578125Q274.60938 40.265625 276.59375 40.265625Q277.90625 40.265625 278.875 39.546875Q279.85938 38.828125 280.51562 37.0625L280.96875 37.359375Q280.65625 39.359375 279.17188 41.015625Q277.70312 42.65625 275.46875 42.65625Q273.0625 42.65625 271.32812 40.78125Q269.60938 38.890625 269.60938 35.71875Q269.60938 32.28125 271.375 30.359375Q273.14062 28.421875 275.8125 28.421875Q278.0625 28.421875 279.51562 29.90625Q280.96875 31.390625 280.96875 33.890625L271.6875 33.890625ZM271.6875 33.03125L277.90625 33.03125Q277.82812 31.75 277.59375 31.21875Q277.23438 30.40625 276.5 29.9375Q275.78125 29.46875 274.98438 29.46875Q273.78125 29.46875 272.8125 30.40625Q271.85938 31.34375 271.6875 33.03125ZM286.32812 24.421875L286.32812 28.828125L289.46875 28.828125L289.46875 29.859375L286.32812 29.859375L286.32812 38.5625Q286.32812 39.859375 286.70312 40.3125Q287.07812 40.765625 287.67188 40.765625Q288.15625 40.765625 288.60938 40.46875Q289.0625 40.171875 289.3125 39.578125L289.875 39.578125Q289.35938 41.015625 288.42188 41.75Q287.48438 42.46875 286.5 42.46875Q285.82812 42.46875 285.17188 42.09375Q284.53125 41.71875 284.21875 41.03125Q283.92188 40.328125 283.92188 38.875L283.92188 29.859375L281.79688 29.859375L281.79688 29.375Q282.59375 29.046875 283.4375 28.28125Q284.28125 27.515625 284.9375 26.453125Q285.28125 25.90625 285.875 24.421875L286.32812 24.421875ZM299.10938 28.4375L299.10938 33.0L298.625 33.0Q298.0625 30.859375 297.1875 30.078125Q296.32812 29.296875 294.98438 29.296875Q293.95312 29.296875 293.3125 29.84375Q292.6875 30.390625 292.6875 31.046875Q292.6875 31.859375 293.15625 32.453125Q293.60938 33.046875 295.01562 33.71875L297.14062 34.765625Q300.125 36.21875 300.125 38.59375Q300.125 40.421875 298.73438 41.546875Q297.35938 42.65625 295.64062 42.65625Q294.40625 42.65625 292.82812 42.21875Q292.34375 42.078125 292.03125 42.078125Q291.70312 42.078125 291.5 42.453125L291.03125 42.453125L291.03125 37.671875L291.5 37.671875Q291.92188 39.71875 293.07812 40.765625Q294.23438 41.796875 295.67188 41.796875Q296.67188 41.796875 297.3125 41.203125Q297.95312 40.609375 297.95312 39.78125Q297.95312 38.765625 297.23438 38.078125Q296.53125 37.390625 294.40625 36.34375Q292.28125 35.28125 291.625 34.421875Q290.96875 33.59375 290.96875 32.3125Q290.96875 30.65625 292.09375 29.546875Q293.23438 28.4375 295.03125 28.4375Q295.82812 28.4375 296.95312 28.765625Q297.70312 29.0 297.95312 29.0Q298.1875 29.0 298.3125 28.890625Q298.45312 28.78125 298.625 28.4375L299.10938 28.4375ZM317.8125 48.125L317.8125 48.671875Q315.60938 47.546875 314.125 46.0625Q312.01562 43.9375 310.875 41.046875Q309.73438 38.15625 309.73438 35.0625Q309.73438 30.515625 311.96875 26.78125Q314.21875 23.03125 317.8125 21.421875L317.8125 22.03125Q316.01562 23.03125 314.85938 24.765625Q313.70312 26.484375 313.125 29.140625Q312.5625 31.796875 312.5625 34.671875Q312.5625 37.8125 313.04688 40.375Q313.42188 42.390625 313.95312 43.609375Q314.5 44.84375 315.42188 45.96875Q316.34375 47.09375 317.8125 48.125ZM332.25 38.421875L330.85938 42.25L319.14062 42.25L319.14062 41.703125Q324.3125 36.984375 326.42188 34.0Q328.53125 31.015625 328.53125 28.53125Q328.53125 26.65625 327.375 25.4375Q326.21875 24.21875 324.60938 24.21875Q323.14062 24.21875 321.96875 25.078125Q320.8125 25.9375 320.26562 27.59375L319.71875 27.59375Q320.07812 24.875 321.59375 23.421875Q323.10938 21.96875 325.39062 21.96875Q327.79688 21.96875 329.42188 23.53125Q331.04688 25.078125 331.04688 27.1875Q331.04688 28.703125 330.34375 30.203125Q329.25 32.578125 326.82812 35.234375Q323.17188 39.21875 322.26562 40.03125L327.45312 40.03125Q329.03125 40.03125 329.67188 39.921875Q330.3125 39.796875 330.8125 39.4375Q331.32812 39.078125 331.71875 38.421875L332.25 38.421875ZM334.57812 32.4375Q334.57812 29.03125 335.60938 26.578125Q336.64062 24.125 338.32812 22.921875Q339.65625 21.96875 341.0625 21.96875Q343.34375 21.96875 345.15625 24.3125Q347.4375 27.1875 347.4375 32.125Q347.4375 35.578125 346.4375 38.0Q345.4375 40.421875 343.89062 41.515625Q342.34375 42.609375 340.90625 42.609375Q338.07812 42.609375 336.1875 39.25Q334.57812 36.421875 334.57812 32.4375ZM337.45312 32.796875Q337.45312 36.90625 338.46875 39.5Q339.29688 41.671875 340.95312 41.671875Q341.75 41.671875 342.59375 40.96875Q343.45312 40.25 343.89062 38.59375Q344.5625 36.0625 344.5625 31.484375Q344.5625 28.078125 343.85938 25.8125Q343.32812 24.125 342.5 23.421875Q341.89062 22.9375 341.04688 22.9375Q340.04688 22.9375 339.26562 23.84375Q338.21875 25.046875 337.82812 27.65625Q337.45312 30.265625 337.45312 32.796875ZM362.25 38.421875L360.85938 42.25L349.14062 42.25L349.14062 41.703125Q354.3125 36.984375 356.42188 34.0Q358.53125 31.015625 358.53125 28.53125Q358.53125 26.65625 357.375 25.4375Q356.21875 24.21875 354.60938 24.21875Q353.14062 24.21875 351.96875 25.078125Q350.8125 25.9375 350.26562 27.59375L349.71875 27.59375Q350.07812 24.875 351.59375 23.421875Q353.10938 21.96875 355.39062 21.96875Q357.79688 21.96875 359.42188 23.53125Q361.04688 25.078125 361.04688 27.1875Q361.04688 28.703125 360.34375 30.203125Q359.25 32.578125 356.82812 35.234375Q353.17188 39.21875 352.26562 40.03125L357.45312 40.03125Q359.03125 40.03125 359.67188 39.921875Q360.3125 39.796875 360.8125 39.4375Q361.32812 39.078125 361.71875 38.421875L362.25 38.421875ZM367.01562 24.328125L371.84375 21.96875L372.32812 21.96875L372.32812 38.75Q372.32812 40.421875 372.46875 40.828125Q372.60938 41.234375 373.04688 41.453125Q373.48438 41.671875 374.84375 41.703125L374.84375 42.25L367.375 42.25L367.375 41.703125Q368.78125 41.671875 369.1875 41.46875Q369.59375 41.25 369.75 40.890625Q369.92188 40.53125 369.92188 38.75L369.92188 28.03125Q369.92188 25.859375 369.76562 25.25Q369.67188 24.78125 369.39062 24.5625Q369.125 24.328125 368.75 24.328125Q368.20312 24.328125 367.23438 24.78125L367.01562 24.328125ZM379.17188 22.03125L379.17188 21.421875Q381.40625 22.515625 382.875 24.015625Q384.96875 26.15625 386.10938 29.03125Q387.26562 31.90625 387.26562 35.03125Q387.26562 39.5625 385.03125 43.3125Q382.79688 47.0625 379.17188 48.671875L379.17188 48.125Q380.96875 47.109375 382.14062 45.390625Q383.3125 43.671875 383.875 41.015625Q384.4375 38.359375 384.4375 35.46875Q384.4375 32.34375 383.95312 29.765625Q383.57812 27.75 383.03125 26.53125Q382.48438 25.3125 381.57812 24.1875Q380.67188 23.0625 379.17188 22.03125Z" fill-rule="nonzero"/></svg>