<svg width="701.36" height="1144.65" xmlns="http://www.w3.org/2000/svg">
 <style type="text/css">.st0{fill:#1A7F41;}
	.st1{fill:#FEFEFE;}
	.st2{fill:#040404;}
	.st3{fill:#020202;}
	.st4{fill:#080808;}
	.st5{fill:#090909;}
	.st6{fill:#0E0E0E;}
	.st7{fill:#151515;}
	.st8{fill:#0D0D0D;}
	.st9{fill:#010101;}
	.st10{fill:#060606;}
	.st11{fill:#030303;}
	.st12{fill:#050505;}
	.st13{fill:#181818;}
	.st14{fill:#141414;}
	.st15{fill:#070707;}
	.st16{fill:#131313;}
	.st17{fill:#101010;}
	.st18{fill:#0B0B0B;}
	.st19{fill:#FFFFFF;}
	.st20{fill:#EB222C;}</style>
 <g>
  <title>background</title>
  <rect x="-1" y="-1" width="703.36" height="1146.65" id="canvas_background" fill="none"/>
 </g>
 <g>
  <title>Layer 1</title>
  <defs>
   <g id="svg_286"/>
   <clipPath id="svg_284">
    <path id="svg_285" d="m240.78906,122.17188l56.21094,0l0,93.82812l-56.21094,0l0,-93.82812zm0,0"/>
   </clipPath>
  </defs>
  <style type="text/css">.st0{fill:#1A7F41;}
	.st1{fill:#FEFEFE;}
	.st2{fill:#040404;}
	.st3{fill:#020202;}
	.st4{fill:#080808;}
	.st5{fill:#090909;}
	.st6{fill:#0E0E0E;}
	.st7{fill:#151515;}
	.st8{fill:#0D0D0D;}
	.st9{fill:#010101;}
	.st10{fill:#060606;}
	.st11{fill:#030303;}
	.st12{fill:#050505;}
	.st13{fill:#181818;}
	.st14{fill:#141414;}
	.st15{fill:#070707;}
	.st16{fill:#131313;}
	.st17{fill:#101010;}
	.st18{fill:#0B0B0B;}
	.st19{fill:#FFFFFF;}
	.st20{fill:#EB222C;}</style>
  <style type="text/css">.st0{fill:#1A7F41;}
	.st1{fill:#FEFEFE;}
	.st2{fill:#040404;}
	.st3{fill:#020202;}
	.st4{fill:#080808;}
	.st5{fill:#090909;}
	.st6{fill:#0E0E0E;}
	.st7{fill:#151515;}
	.st8{fill:#0D0D0D;}
	.st9{fill:#010101;}
	.st10{fill:#060606;}
	.st11{fill:#030303;}
	.st12{fill:#050505;}
	.st13{fill:#181818;}
	.st14{fill:#141414;}
	.st15{fill:#070707;}
	.st16{fill:#131313;}
	.st17{fill:#101010;}
	.st18{fill:#0B0B0B;}
	.st19{fill:#FFFFFF;}
	.st20{fill:#EB222C;}</style>
  <style transform="matrix(0.2959517908905731,0,0,0.2959517908905731,0,0) " type="text/css">.st0{fill:#1A7F41;}
	.st1{fill:#FEFEFE;}
	.st2{fill:#040404;}
	.st3{fill:#020202;}
	.st4{fill:#080808;}
	.st5{fill:#090909;}
	.st6{fill:#0E0E0E;}
	.st7{fill:#151515;}
	.st8{fill:#0D0D0D;}
	.st9{fill:#010101;}
	.st10{fill:#060606;}
	.st11{fill:#030303;}
	.st12{fill:#050505;}
	.st13{fill:#181818;}
	.st14{fill:#141414;}
	.st15{fill:#070707;}
	.st16{fill:#131313;}
	.st17{fill:#101010;}
	.st18{fill:#0B0B0B;}
	.st19{fill:#FFFFFF;}
	.st20{fill:#EB222C;}</style>
  <g id="svg_211">
   <path id="svg_125" d="m14.68814,595.1114c-0.22883,-27.04176 1.58695,-46.70101 0.78319,-66.40526c-2.93501,-71.93921 -2.67031,-143.93456 -4.60229,-215.89136c-0.06147,-2.38413 -0.57466,-4.78055 -0.46545,-7.15755c0.21756,-4.80454 2.61926,-8.63673 6.11777,-11.70993c34.45034,-30.31835 66.88573,-62.84505 100.75294,-93.81012c25.43262,-23.2471 49.99561,-47.45929 75.63304,-70.46743c20.96444,-18.81268 40.65085,-38.99769 61.963,-57.43241c12.34626,-10.68724 23.3107,-22.94711 35.64624,-33.67457c4.11196,-3.56909 7.34745,-7.92124 11.29683,-11.60876c20.36859,-19.03468 44.73835,-21.44314 69.60405,-6.85056c6.08216,3.57217 11.71362,7.76875 16.83489,12.63124c25.09612,23.81604 51.34387,46.34853 77.05997,69.46642c38.81373,34.89501 77.69645,69.71805 116.83486,104.24349c20.1857,17.8078 39.67223,36.37575 59.71011,54.33772c9.91706,8.89182 20.73849,16.70656 30.42008,25.90572c3.98894,3.7908 5.70905,8.08634 5.76051,13.36119c0.32067,31.17384 1.51417,62.34247 2.75729,93.4799c1.72066,43.03487 2.30786,86.08962 3.84796,129.12765c0.83701,23.35223 0.76125,46.72046 0.02294,70.07c-1.13187,35.9293 -5.11995,71.47412 -15.4256,106.06854c-5.29942,17.8102 -12.77296,34.64783 -22.98896,50.13884c-7.62531,11.56456 -13.57911,24.04983 -20.37384,36.06473c-13.46294,23.80524 -31.58653,43.85164 -51.05503,62.71894c-32.0985,31.12606 -70.25597,51.9282 -112.08409,66.46789c-23.03845,8.00447 -46.54189,14.07662 -70.62928,17.72326c-17.5927,2.6635 -35.29322,4.31823 -53.13103,3.26676c-56.69732,-3.34116 -109.57912,-19.23114 -158.25534,-48.89973c-31.18326,-19.00959 -57.93949,-43.08959 -81.01803,-71.47898c-10.93958,-13.46237 -22.47204,-26.39888 -31.34264,-41.4742c-13.19195,-22.40779 -25.49751,-45.19498 -33.67498,-70.04562c-7.31921,-22.22783 -12.62931,-44.89518 -15.95178,-68.08251c-2.28,-15.73671 -3.74824,-31.52808 -4.04733,-40.0833z" class="st1" stroke="null"/>
   <path class="st1" d="m453.86737,1061.95571c-19.01821,-1.17982 -38.73037,-1.81426 -58.02012,-6.66711c-8.26703,-2.08139 -16.15189,-5.84347 -24.67036,-6.86746c-12.04855,-1.43583 -24.05688,-1.15757 -36.04508,0.65669c-19.08861,2.89391 -37.76487,8.38119 -56.88365,11.03023c-4.72689,0.6567 -9.50407,1.00174 -14.26114,1.04626c-16.20218,0.16696 -32.42448,0.48974 -48.60655,-0.85704c-22.74944,-1.89217 -45.23738,-5.5652 -67.25264,-12.43266c-1.8807,-0.58991 -2.94677,-0.95722 -1.60916,-3.47269c14.07006,-26.54601 25.52523,-54.56124 37.46315,-82.30934c1.11636,-2.60451 2.13213,-3.30573 4.70678,-2.7826c10.45951,2.10365 20.90897,4.24068 31.51934,5.43164c8.28715,0.92382 16.58436,1.04626 24.83128,0.35617c12.61175,-1.05739 25.21345,-2.30399 37.69446,-4.80833c9.84602,-1.97009 19.62164,-4.22956 29.12572,-7.63546c11.79712,-4.24069 23.84567,-5.35372 36.16577,-5.14225c18.92769,0.33391 37.23183,4.50782 55.47563,9.61667c20.53685,5.75442 41.47598,7.56868 62.65649,6.7339c13.44651,-0.52313 26.70193,-2.58226 39.94729,-4.8306c5.01855,-0.85704 7.08028,0.21148 9.59459,4.99755c13.13473,25.04341 25.78671,50.38734 38.15709,75.89823c1.41807,2.92729 1.00573,4.08486 -1.55886,5.46503c-9.10179,4.91964 -19.01821,6.61146 -28.72343,9.09354c-22.71926,5.84346 -45.81064,7.67998 -69.7066,7.47963z" id="svg_126" stroke="null"/>
   <path class="st1" d="m42.42054,1112.56044c1.31148,-5.22 4.6028,-9.16 8.89035,-12.48c14.88029,-11.55 28.02035,-24.34 42.08097,-36.48c2.5347,-2.19 2.5347,-3.15 -0.78184,-4.71c-18.22206,-8.57 -37.54123,-15.53 -55.76329,-24.1c-2.93823,-1.38 -7.89412,-2.03 -7.2636,-5.47c0.56747,-3.1 5.4477,-2.6 8.46159,-3.35c21.13507,-5.25 42.8376,-8.33 64.76713,-10.7c10.84496,-1.17 21.52599,-3.25 32.32051,-4.78c5.39726,-0.76 10.81974,-1.58 16.60792,-1.01c-1.63935,5.54 -4.80457,10.49 -7.94456,15.45c-4.36321,6.88 -9.39477,13.48 -13.08962,20.63c-1.16016,2.24 -1.24843,3.96 0.15132,6.22c9.26866,14.88 19.71009,29.19 32.32051,42.45c2.03028,2.13 1.28627,2.67 -1.32409,3.52c-6.30521,2.04 -13.03918,1.51 -19.54615,2.09c-19.34439,1.72 -38.41135,4.66 -57.52875,7.41c-13.87146,2 -27.7177,4.05 -42.3584,5.31z" id="svg_127" stroke="null"/>
   <path class="st1" d="m548.28337,1013.74144c8.94642,-0.14276 17.85394,1.12006 26.74849,2.06444c23.05323,2.45975 45.9379,5.89682 69.05596,8.02715c7.71467,0.71377 15.41636,1.51538 23.18289,1.71304c1.71149,0.04393 3.17663,0.31845 3.20256,2.27308c0.02593,1.46048 0.01296,2.56957 -1.97081,3.23941c-16.36286,5.53445 -30.32705,14.46205 -44.66725,22.85158c-7.18306,4.20574 -14.45689,8.26873 -22.43087,12.09014c3.37111,4.72185 7.55907,8.78484 12.00635,12.62821c9.97072,8.63111 20.08406,17.14143 30.13257,25.69567c3.68229,3.1296 6.84595,6.55569 8.80379,10.70653c0.93354,1.96561 1.64666,3.22843 -2.30792,2.70134c-21.34174,-2.85507 -42.73534,-5.49053 -64.11598,-8.13696c-14.52172,-1.80089 -29.0564,-3.57982 -43.61702,-5.17208c-3.85085,-0.41728 -4.75846,-1.17497 -3.41001,-4.56812c5.31599,-13.30903 13.58818,-25.32231 22.003,-37.30264c2.80061,-3.99711 5.62716,-7.97225 8.31109,-12.03524c1.86708,-2.84409 1.71149,-5.47955 -0.5705,-8.40051c-6.76816,-8.66405 -13.18624,-17.53674 -19.73398,-26.33257c-0.4149,-0.53807 -1.05023,-1.0432 -0.62236,-2.04247z" id="svg_128" stroke="null"/>
   <path id="svg_129" fill-rule="nonzero" fill="rgb(0%,65.098572%,31.799316%)" d="m549.27895,998.18655c-29.68065,-52.62661 -29.68065,-52.62661 -29.68065,-52.62661c-57.18114,19.63444 -105.42842,1.84026 -105.42842,1.84026c-45.11187,-5.45648 15.73572,-13.00081 15.73572,-13.00081c168.9989,-37.41053 230.30864,-185.7605 230.30864,-185.7605c46.23158,-94.89453 34.45193,-223.28468 34.12174,-242.20127c-0.27197,-15.58125 -0.50213,-209.99613 -0.50213,-209.99613c-299.07593,-277.13755 -299.07593,-277.13755 -299.07593,-277.13755c-39.18225,-33.77658 -83.34678,-1.69092 -83.34678,-1.69092c-305.69275,275.01527 -305.69275,275.01527 -305.69275,275.01527c-0.89907,313.7361 -0.89907,313.7361 -0.89907,313.7361c0.87746,50.26963 14.51754,84.49207 14.51754,84.49207c61.2259,212.08194 256.97501,246.22392 256.97501,246.22392c44.77001,2.6026 22.54776,9.23441 22.54776,9.23441c-47.59674,19.46727 -115.31095,-1.13299 -115.31095,-1.13299c-24.82569,44.28364 -24.82569,44.28364 -24.82569,44.28364c-89.25987,10.8524 -153.04647,34.03391 -153.04647,34.03391c64.82707,36.42725 64.82707,36.42725 64.82707,36.42725c12.8504,2.92145 3.37413,9.28306 3.37413,9.28306c-62.90927,73.45114 -62.90927,73.45114 -62.90927,73.45114c44.67271,-19.70212 159.47393,-31.04807 159.47393,-31.04807c12.24824,-31.57627 21.61057,-44.46583 21.61057,-44.46583c25.94724,6.02932 124.84043,-2.17909 124.84043,-2.17909c31.80127,-9.89705 51.03043,-3.98879 51.03043,-3.98879c45.27904,15.03383 115.58088,13.80671 125.05632,7.39741c12.68858,-3.55795 19.16878,-0.33459 19.16878,-0.33459c6.42829,3.03353 19.93325,43.45478 19.93325,43.45478c38.6357,2.47136 163.78029,31.64943 163.78029,31.64943c-74.87947,-77.00392 -74.87947,-77.00392 -74.87947,-77.00392c72.79853,-42.21357 72.79853,-42.21357 72.79853,-42.21357c-19.38586,-12.10175 -144.50257,-25.74201 -144.50257,-25.74201l0.00001,0zm-399.17417,-137.21416c-155.94582,-132.06993 -129.95759,-304.92207 -129.95759,-304.92207c1.93405,-257.22543 1.93405,-257.22543 1.93405,-257.22543c289.71582,-259.1028 289.71582,-259.1028 289.71582,-259.1028c34.47034,-38.20807 76.8636,-4.4874 76.8636,-4.4874c289.37841,270.82446 289.37841,270.82446 289.37841,270.82446c0,0 0.40354,207.13811 0.89175,235.10801c-0.149,172.68699 -37.88535,207.80632 -50.3547,226.70802c-77.37246,142.62474 -224.37489,157.67852 -259.73935,161.39397c-124.38144,11.75135 -218.73199,-68.29676 -218.73199,-68.29676zm-2.21566,238.30787c-3.26504,-3.04105 -82.88064,11.07479 -82.88064,11.07479c-12.74132,3.32044 -3.32411,-6.4242 -3.32411,-6.4242c37.57252,-44.50614 37.57252,-44.50614 37.57252,-44.50614c-45.14941,-24.3306 -45.14941,-24.3306 -45.14941,-24.3306c-9.69335,-6.07471 -3.374,-9.28306 -3.374,-9.28306c15.90373,-3.37577 79.62059,-13.82991 79.62059,-13.82991c25.47764,-6.92694 12.9035,5.97097 12.9035,5.97097c-15.40969,31.67916 -15.40969,31.67916 -15.40969,31.67916c0,0 19.82416,37.21266 23.09553,43.39948c6.47604,2.98511 3.31911,6.13826 -3.05429,6.24951zm392.62884,-53.75413c-73.12871,23.29699 -146.92303,5.66272 -146.92303,5.66272c-32.53772,-18.3544 -89.76807,-1.53126 -89.76807,-1.53126c-66.82507,13.60668 -147.33477,-6.77021 -147.33477,-6.77021c-9.58439,0.16729 -6.47604,-2.98513 -6.47604,-2.98513c9.36233,-12.88956 33.96679,-69.84778 33.96679,-69.84778c3.00011,-9.34674 9.47627,-6.36161 9.47627,-6.36161c54.81485,14.86739 118.36441,-5.16423 118.36441,-5.16423c25.42787,-9.78581 76.96719,-1.34346 76.96719,-1.34346c61.053,20.95482 115.12641,7.28483 115.12641,7.28483c6.36792,-3.20919 9.7524,9.45775 9.7524,9.45775c6.53011,6.08234 36.26981,62.09198 36.26981,62.09198c6.7256,6.12651 -9.42137,9.50641 -9.42137,9.50641l0,-0.00001zm105.50864,-11.18361c-47.43291,28.85394 -47.43291,28.85394 -47.43291,28.85394c0,0 35.78697,37.22016 39.05201,40.26121c0.05406,3.09722 9.80147,12.26903 -12.68725,6.41779c0,0 -67.30794,-11.2654 -73.92459,-11.1499c-6.4221,0.1121 24.85391,-53.81681 24.85391,-53.81681c-16.451,-27.97715 -16.451,-27.97715 -16.451,-27.97715c0,0 63.988,5.07928 80.00068,7.94554c19.22284,2.76263 16.06044,2.81783 6.58916,9.46538l-0.00001,0zm0,0" stroke="null"/>
   <path id="svg_130" fill="none" stroke-width="0.29528" stroke-miterlimit="10" d="m331.00533,574.16989c0,0 3.26593,3.08875 3.26593,3.08875c0,0 6.59465,12.56335 16.179,12.39605c6.42208,-0.1121 12.63331,-9.51488 16.0285,-12.95824" stroke="rgb(0%,0%,0%)"/>
   <path id="svg_131" fill="none" stroke-width="0.29528" stroke-miterlimit="10" d="m330.9862,573.07402c0,0 3.21104,-0.05605 3.21104,-0.05605c0,0 6.54142,9.51378 16.12577,9.34649c6.42208,-0.1121 16.13662,-6.76388 16.08173,-9.90868c3.21104,-0.05605 3.21104,-0.05605 3.21104,-0.05605" stroke="rgb(0%,0%,0%)"/>
   <path id="svg_132" fill="none" stroke-width="1.29528" stroke-miterlimit="10" d="m323.50759,571.20264c0,0 9.75234,9.45774 9.75234,9.45774c0,0 6.5356,9.18029 16.12006,9.01299c6.37341,-0.11125 12.68726,-6.4177 16.08754,-9.57518c3.10332,-3.43826 9.47041,-6.69515 9.47041,-6.69515" stroke="rgb(0%,0%,0%)"/>
   <path id="svg_133" fill="none" stroke-width="1.29528" stroke-miterlimit="10" d="m445.16428,707.2553c0.32603,18.67831 -44.10885,35.27824 -101.85855,36.28627c-54.29546,0.94773 -99.33666,-17.18852 -99.66685,-36.10509c-0.38009,-21.7755 44.05479,-38.37544 101.56668,-36.28119c54.58733,-0.95282 99.57447,14.08624 99.95872,36.10001zm0,0" stroke="rgb(0%,0%,0%)"/>
   <path id="svg_134" fill="none" stroke-width="1.29528" stroke-miterlimit="10" d="m292.27019,618.98236c19.00163,-9.91201 54.7783,23.9241 81.44127,73.74361c29.63143,49.81522 36.82325,96.59051 21.08257,109.3054c-19.00162,9.91201 -54.97292,-23.92071 -81.44127,-73.74361c-29.63143,-49.81532 -36.87731,-99.6877 -21.08257,-109.3054zm0,0" stroke="rgb(0%,0%,0%)"/>
   <path id="svg_135" fill="none" stroke-width="1.29528" stroke-miterlimit="10" d="m397.92286,616.04189c16.12005,9.01301 7.35482,56.11445 -20.52096,106.88583c-28.11817,50.82336 -62.69756,82.78951 -78.872,73.44378c-19.33098,-8.95696 -10.62492,-59.44146 17.25585,-109.92698c27.92986,-47.6743 62.74624,-82.79025 82.13711,-70.40263zm0,0" stroke="rgb(0%,0%,0%)"/>
   <path id="svg_136" fill-rule="evenodd" fill="rgb(0%,0%,0%)" d="m367.43929,709.80369c0.21707,12.43633 -9.20429,21.94275 -21.99967,22.1661c-12.74681,0.22249 -22.49422,-8.94934 -22.7113,-21.38567c-0.22123,-12.67469 12.3085,-25.33352 21.8929,-25.50082c12.79537,-0.22334 22.59683,12.0457 22.81807,24.72039zm0,0" stroke="null"/>
   <path id="svg_137" fill-rule="evenodd" fill="rgb(0%,0%,0%)" d="m408.32885,662.9518c0.05405,3.0971 -2.99941,9.39432 -9.3728,9.50557c-3.211,0.05605 -9.69335,-6.07472 -6.585,-9.22703c-0.10812,-6.19445 3.04797,-9.39528 6.25896,-9.45132c6.3734,-0.11125 9.59071,2.97833 9.69883,9.17278l0.00001,0zm0,0" stroke="null"/>
   <path id="svg_138" fill-rule="evenodd" fill="rgb(0%,0%,0%)" d="m289.09533,679.66558c0.10896,6.24202 -2.9994,9.39444 -9.42136,9.50654c-3.16242,0.0552 -9.63846,-2.92993 -9.74741,-9.17195c-0.11311,-6.48024 6.2548,-9.68944 9.41722,-9.74464c6.42196,-0.1121 9.69333,6.07472 9.75155,9.41005zm0,0" stroke="null"/>
   <path id="svg_139" fill-rule="evenodd" fill="rgb(0%,0%,0%)" d="m357.94024,773.40935c0.05822,3.33545 -3.04381,9.63351 -9.41722,9.74476c-3.21098,0.05604 -9.69334,-6.07471 -9.75156,-9.41017c-0.10895,-6.2419 6.21039,-9.45036 9.42137,-9.50641c6.37341,-0.11125 9.63846,2.92991 9.74741,9.17182zm0,0" stroke="null"/>
   <path id="svg_140" fill-rule="nonzero" fill="rgb(0%,0%,0%)" d="m51.45904,587.81957c3.92126,40.636 3.92126,40.636 3.92126,40.636c38.39163,2.42804 38.39163,2.42804 38.39163,2.42804c3.5475,22.00617 3.5475,22.00617 3.5475,22.00617c-28.2608,28.71002 -28.2608,28.71002 -28.2608,28.71002c16.77154,43.55757 16.77154,43.55757 16.77154,43.55757c41.33697,-10.06351 41.33697,-10.06351 41.33697,-10.06351c13.12152,18.45501 13.12152,18.45501 13.12152,18.45501c-24.94084,34.89598 -24.94084,34.89598 -24.94084,34.89598c32.63086,40.42087 32.63086,40.42087 32.63086,40.42087c31.525,-25.71653 31.525,-25.71653 31.525,-25.71653c16.47218,15.25077 16.47218,15.25077 16.47218,15.25077c-5.84731,44.19068 -5.84731,44.19068 -5.84731,44.19068c35.75004,21.15819 35.75004,21.15819 35.75004,21.15819c24.98859,-34.94452 24.98859,-34.94452 24.98859,-34.94452c25.76438,12.27641 25.76438,12.27641 25.76438,12.27641c0.76434,43.78939 0.76434,43.78939 0.76434,43.78939c41.6575,5.51666 41.6575,5.51666 41.6575,5.51666c15.24751,-40.97058 15.24751,-40.97058 15.24751,-40.97058c22.33121,-0.38979 22.33121,-0.38979 22.33121,-0.38979c10.34872,43.62196 10.34872,43.62196 10.34872,43.62196c48.10506,-7.0836 48.10506,-7.0836 48.10506,-7.0836c-3.97544,-43.73321 -3.97544,-43.73321 -3.97544,-43.73321c25.43418,-6.64015 25.43418,-6.64015 25.43418,-6.64015c22.92205,30.67636 22.92205,30.67636 22.92205,30.67636c41.22883,-16.25796 41.22883,-16.25796 41.22883,-16.25796c-10.4028,-46.71919 -10.4028,-46.71919 -10.4028,-46.71919c15.78442,-13.00165 15.78442,-13.00165 15.78442,-13.00165c32.35473,24.60152 32.35473,24.60152 32.35473,24.60152c31.60525,-35.0599 31.60525,-35.0599 31.60525,-35.0599c-19.7701,-34.11556 -19.7701,-34.11556 -19.7701,-34.11556c12.41041,-22.28473 12.41041,-22.28473 12.41041,-22.28473c38.55963,12.05309 38.55963,12.05309 38.55963,12.05309c18.4535,-41.31268 18.4535,-41.31268 18.4535,-41.31268c-29.30043,-30.85104 -29.30043,-30.85104 -29.30043,-30.85104c5.9933,-21.88683 5.9933,-21.88683 5.9933,-21.88683c41.54868,-0.72523 41.54868,-0.72523 41.54868,-0.72523c-0.54727,-31.35292 -0.54727,-31.35292 -0.54727,-31.35292c-61.1566,-24.09877 -61.1566,-24.09877 -61.1566,-24.09877c0,0 -7.61584,112.95211 -86.59673,180.15385c-12.57879,9.84765 -106.9482,96.00204 -245.73894,29.45565c-19.43455,-12.1009 -119.72472,-69.97723 -128.72097,-217.33833l-63.71256,10.69249zm0,0" stroke="null"/>
   <path id="svg_142" fill-rule="nonzero" fill="rgb(0%,0%,0%)" d="m378.66193,972.858216c-3.45423,0.0603 -6.61116,3.21345 -6.5571,6.31067c0.49321,28.25582 0.49321,28.25582 0.49321,28.25582c0.10812,6.19433 0.21707,12.43635 -2.93985,15.58949c-3.05346,6.29722 -9.42686,6.40847 -15.84884,6.52056c-3.16241,0.0552 -9.58451,0.1673 -16.06674,-5.96347c-3.26518,-3.04104 -3.31924,-6.13827 -3.48226,-15.47739c-0.4932,-28.25582 -0.4932,-28.25582 -0.4932,-28.25582c-0.10813,-6.19433 -0.10813,-6.19433 -6.48152,-6.08308c-0.05906,-3.38313 -0.05906,-3.38313 -0.05906,-3.38313c25.54231,-0.44585 25.54231,-0.44585 25.54231,-0.44585c0.05905,3.38314 0.05905,3.38314 0.05905,3.38314c-3.16241,0.0552 -6.3734,0.11124 -6.26527,6.30557c0.4932,28.25582 0.4932,28.25582 0.4932,28.25582c0.10812,6.19433 0.32603,18.67836 9.91041,18.51106c12.74682,-0.2225 12.52891,-12.70652 12.42078,-18.90085c-0.43914,-25.1586 -0.43914,-25.1586 -0.43914,-25.1586c-0.10813,-6.19444 -0.16219,-9.29155 -6.53558,-9.1803c-0.05906,-3.38313 -0.05906,-3.38313 -0.05906,-3.38313c16.2496,-0.28364 16.2496,-0.28364 16.2496,-0.28364l0.05906,3.38313zm0,0" stroke="null"/>
   <path id="svg_143" fill-rule="nonzero" fill="rgb(0%,0%,0%)" d="m424.206746,1040.703077c-22.60732,-15.42957 -22.60732,-15.42957 -22.60732,-15.42957c6.3734,-0.11125 6.42746,2.98586 9.53033,-3.2645c24.88595,-38.04079 24.88595,-38.04079 24.88595,-38.04079c-6.42746,-2.98597 -12.90349,-5.97098 -22.32571,3.48773c9.31326,-15.70072 9.31326,-15.70072 9.31326,-15.70072c38.77172,24.20349 38.77172,24.20349 38.77172,24.20349c-9.36233,12.88955 -9.36233,12.88955 -9.36233,12.88955c2.98893,-12.77831 -3.48711,-15.76343 -6.70359,-18.80532c-21.72438,37.93787 -21.72438,37.93787 -21.72438,37.93787c-6.26028,6.59149 -3.0493,6.53544 0.16801,9.62504l0.05406,3.09722zm0,0" stroke="null"/>
   <path id="svg_144" fill-rule="evenodd" fill="rgb(100%,100%,100%)" stroke-width="1.29528" stroke-miterlimit="10" d="m81.00117,325.82246c-33.1894,295.61568 -33.1894,295.61568 -33.1894,295.61568c0,0 145.95796,-74.90072 287.11524,-42.85631c3.37821,9.52137 16.34212,21.73523 32.20749,-0.56218c0,0 146.54844,-24.34024 276.02071,54.80885c-30.68636,-294.26239 -30.68636,-294.26239 -30.68636,-294.26239c0,0 -126.48247,-91.87975 -266.0719,-17.37615c0,0 -109.6813,-60.57223 -265.39578,4.6325zm0,0" stroke="rgb(0%,0%,0%)"/>
   <path id="svg_145" fill-rule="evenodd" fill="rgb(100%,100%,100%)" stroke-width="1.29528" stroke-miterlimit="10" d="m96.74562,310.53362c-26.87505,292.12137 -26.87505,292.12137 -26.87505,292.12137c0,0 126.90229,-68.08588 265.06559,-23.54907c3.37821,9.52137 16.34212,21.73521 32.20749,-0.56219c0,0 124.05009,-33.52777 259.68275,33.312c-27.46909,-291.17279 -27.46909,-291.17279 -27.46909,-291.17279c0,0 -113.36178,-73.4724 -252.95122,1.03108c0,0 -97.05308,-70.37287 -249.66048,-11.1804l0.00001,0zm0,0" stroke="rgb(0%,0%,0%)"/>
   <path id="svg_146" fill-rule="evenodd" fill="rgb(100%,100%,100%)" stroke-width="1.29528" stroke-miterlimit="10" d="m108.20083,291.54669c-23.77211,285.87096 -23.77211,285.87096 -23.77211,285.87096c0,0 108.06355,-48.83471 249.49197,-1.25677c3.32955,9.52222 16.34212,21.73522 32.2076,-0.56219c0,0 111.20053,-36.40161 246.55707,14.61867c-24.204,-288.13166 -24.204,-288.13166 -24.204,-288.13166c0,0 -109.81516,-51.51383 -243.09073,16.6833c0,0 -77.8788,-67.60945 -237.1898,-27.22231z" stroke="rgb(0%,0%,0%)"/>
   <path id="svg_147" fill-rule="evenodd" fill="rgb(0%,0%,0%)" d="m330.77678,513.68919c-3.21099,0.05605 -12.79537,0.22335 -16.11948,-6.20086c-3.27054,-6.13923 9.47627,-6.36173 12.68725,-6.41778c3.211,-0.05604 -0.05489,-3.14479 -0.05489,-3.14479c0,0 -3.21099,0.05605 -9.58438,0.16729c-9.5844,0.1673 -9.36732,12.60363 -6.09729,15.93073c0.05406,3.09711 -12.85443,-3.1598 -32.0774,-5.92231c-19.2769,-5.85984 -38.44567,-5.52525 -48.03006,-5.35795c-9.63929,-2.9775 -6.97556,-34.38647 -6.97556,-34.38647c-3.15694,3.15315 -3.15694,3.15315 -3.15694,3.15315c-2.66921,28.31102 -2.66921,28.31102 -2.66921,28.31102c-9.47542,6.40931 -19.33179,-9.00454 -19.33179,-9.00454c-25.56216,16.03209 -63.79172,22.89559 -73.37611,23.06288c-12.80074,-2.87461 -6.80755,-24.76142 -6.92067,-31.24167c-0.10812,-6.19432 -3.374,-9.28318 -6.53629,-9.22798c-3.15622,3.20096 0.10895,6.242 0.10895,6.242c0,0 3.21636,3.04203 3.27541,6.42506c0.16302,9.33923 -2.67408,28.02509 6.86162,27.85864c28.81222,2.88126 63.71136,-13.55221 63.71136,-13.55221c10.04484,12.26479 19.46704,2.80596 19.46704,2.80596c12.84944,2.87388 15.9029,-3.42334 15.9029,-3.42334c3.26589,3.08874 6.53093,6.12992 6.53093,6.12992c28.7533,-0.50189 57.5659,5.19139 70.4745,11.44829c9.63929,2.97749 28.75317,-0.50188 31.96417,-0.55793c0,0 3.10836,-3.15231 -0.05406,-3.09711zm-137.66883,-13.42128c6.36804,-3.20932 6.36804,-3.20932 6.36804,-3.20932c3.21634,3.04202 3.21634,3.04202 3.21634,3.04202c0,0 -3.05333,6.29721 -9.58438,0.1673zm0,0" stroke="null"/>
   <path id="svg_148" fill-rule="evenodd" fill="rgb(0%,0%,0%)" d="m133.68916,466.98742l-9.42138,9.50654l0.05406,3.09711l9.47544,-6.40932l-0.10812,-6.19433zm0,0" stroke="null"/>
   <path id="svg_149" fill-rule="evenodd" fill="rgb(0%,0%,0%)" d="m144.51975,474.09093l-12.68642,6.46535l0.10812,6.19433l12.68725,-6.41767l-0.10895,-6.24201zm0,0" stroke="null"/>
   <path id="svg_150" fill-rule="evenodd" fill="rgb(0%,0%,0%)" d="m304.53467,404.33081c3.10823,-3.15242 -3.31911,-6.1384 -3.31911,-6.1384c-6.26527,6.3057 0.21708,12.43635 3.31911,6.1384zm0,0" stroke="null"/>
   <path id="svg_151" fill-rule="evenodd" fill="rgb(0%,0%,0%)" d="m309.94046,407.3345c0,0 3.26504,3.04118 3.26504,3.04118c3.1623,-0.0552 6.31935,-3.20847 3.05418,-6.24953c-6.42818,-3.03367 -6.31922,3.20835 -6.31922,3.20835zm0,0" stroke="null"/>
   <path id="svg_152" fill-rule="evenodd" fill="rgb(0%,0%,0%)" d="m239.05555,442.07924c-3.211,0.05605 -3.211,0.05605 -3.211,0.05605c0,0 16.06592,5.91577 25.43323,-6.68786c6.25908,-9.45135 -0.33019,-18.91659 -3.54655,-21.95862c-3.2111,0.05605 0.11312,6.48026 0.11312,6.48026c9.90959,18.46336 -18.7888,22.11017 -18.7888,22.11017zm0,0" stroke="null"/>
   <path id="svg_153" fill-rule="evenodd" fill="rgb(0%,0%,0%)" d="m220.90844,442.396c0.05406,3.09709 3.27054,6.13911 6.48152,6.08306c0,0 3.15692,-3.15327 -0.10813,-6.19431c-3.26504,-3.04118 -6.37339,0.11125 -6.37339,0.11125zm0,0" stroke="null"/>
   <path id="svg_154" fill-rule="evenodd" fill="rgb(0%,0%,0%)" d="m186.12861,395.9593c-3.45424,0.0603 -3.34529,6.30232 -3.34529,6.30232c9.9304,2.92471 6.61033,-3.26126 3.34529,-6.30232zm0,0" stroke="null"/>
   <path id="svg_155" fill-rule="evenodd" fill="rgb(0%,0%,0%)" d="m179.18311,435.78406c-3.211,0.05604 -3.211,0.05604 -3.211,0.05604c0,0 16.35857,5.95839 22.56895,-3.49197c9.36732,-12.60364 2.82686,-22.06987 -0.38425,-22.01382c-3.26504,-3.04117 0.05406,3.09723 0.05406,3.09723c9.96865,21.84638 -19.02776,22.35251 -19.02776,22.35251l0,0.00001zm0,0" stroke="null"/>
   <path id="svg_156" fill-rule="evenodd" fill="rgb(0%,0%,0%)" d="m118.5812,454.62029c6.47616,2.98513 25.47778,-6.92693 31.74222,-13.28008c6.21039,-9.45048 -3.42807,-12.3804 -6.59047,-12.3252c3.10834,-3.15231 -0.27613,-15.81937 -6.69811,-15.70727c-3.21648,-3.04203 0.05406,3.09722 0.05406,3.09722c9.75239,9.45774 3.43305,12.6661 0.22207,12.72214c-3.10836,3.15243 -3.10836,3.15243 -3.05346,6.29722c0,0 15.9029,-3.42334 12.80086,2.87473c0.05406,3.09721 -15.73571,13.0008 -25.32011,13.1681c-9.58439,0.1673 -9.91542,-18.79698 -9.91542,-18.79698c-3.04809,9.39528 0.33103,18.96428 6.75837,21.95012l-0.00001,0zm0,0" stroke="null"/>
   <path id="svg_157" fill-rule="evenodd" fill="rgb(0%,0%,0%)" d="m115.79647,414.96538c0.05406,3.0971 0.10812,6.19433 3.31912,6.13828c0,0 3.16228,-0.0552 3.10822,-3.15242c3.15705,-3.15316 -6.42734,-2.98586 -6.42734,-2.98586zm0,0" stroke="null"/>
   <path id="svg_158" fill-rule="evenodd" fill="rgb(0%,0%,0%)" d="m137.61188,385.03324c3.32422,6.42419 9.69762,6.31294 9.58451,-0.1673c-0.05489,-3.1448 -9.58451,0.1673 -9.58451,0.1673zm0,0" stroke="null"/>
   <path id="svg_159" fill-rule="evenodd" fill="rgb(0%,0%,0%)" d="m204.44495,357.93778c3.26505,3.04118 3.26505,3.04118 3.26505,3.04118c2.44797,-40.98559 2.44797,-40.98559 2.44797,-40.98559c-6.3734,0.11125 -3.0493,6.53544 -3.0493,6.53544l-2.66372,31.40897zm0,0" stroke="null"/>
   <path id="svg_160" fill-rule="evenodd" fill="rgb(0%,0%,0%)" d="m229.75505,338.62136c0,0 6.37339,-0.11125 3.10286,-6.25038c-3.31994,-6.18597 -6.42197,0.1121 -6.42197,0.1121c0.05406,3.0971 3.31911,6.13828 3.31911,6.13828zm0,0" stroke="null"/>
   <path id="svg_161" fill-rule="evenodd" fill="rgb(0%,0%,0%)" d="m259.62729,338.09994l-0.33019,-18.91659l-3.1561,3.20085l0.27529,15.77179l3.211,-0.05605zm0,0" stroke="null"/>
   <path id="svg_162" fill-rule="evenodd" fill="rgb(0%,0%,0%)" d="m302.85345,366.56306c0.05489,3.14479 6.48235,6.13075 0.21708,12.43633c-6.36722,3.2569 -3.15622,3.20085 -9.47128,6.64754c0,0 -6.4221,0.1121 -6.4221,0.1121c3.26587,3.08874 19.22367,2.8102 22.21272,-9.96811c0,0 -0.05406,-3.0971 -0.10813,-6.19431c0,0 3.21099,-0.05605 6.37328,-0.11125c3.21112,-0.05605 9.47556,-6.40932 6.20502,-12.54845c-3.37898,-9.56899 -3.48711,-15.7633 -3.48711,-15.7633c3.15692,-3.15327 3.15692,-3.15327 3.15692,-3.15327c0,0 -6.53105,-6.12993 -6.58511,-9.22715c0,0 7.07749,37.43527 0.65539,37.54737c-6.37328,0.11125 -9.58439,0.1673 -9.63846,-2.92993c-3.21634,-3.0419 -3.16228,0.0552 -3.10822,3.15243zm0,0" stroke="null"/>
   <path id="svg_163" fill-rule="evenodd" fill="rgb(0%,0%,0%)" d="m334.88709,367.19554c0.10813,6.19432 0.10813,6.19432 0.10813,6.19432c2.50702,-37.60256 2.50702,-37.60256 2.50702,-37.60256c-6.3734,0.11125 -3.05429,6.24963 -3.05429,6.24963l0.43914,25.15861zm0,0" stroke="null"/>
   <path id="svg_164" fill-rule="evenodd" fill="rgb(0%,0%,0%)" d="m449.05211,364.01115c9.74741,9.17181 12.7468,-0.2225 12.7468,-0.2225c25.5367,-3.54391 77.13008,7.99565 77.13008,7.99565c0.22207,12.72226 9.63846,2.92993 9.63846,2.92993c6.5414,9.51379 12.74679,-0.2225 12.74679,-0.2225c0.0549,3.1448 6.53107,6.12992 9.69335,6.07473c9.47544,-6.40932 5.98795,-24.98479 -0.48821,-27.96991c-3.27623,-6.47273 -3.10822,3.15242 -3.10822,3.15242c3.16228,-0.0552 3.21634,3.04191 3.21634,3.04191c0,0 3.32007,6.18597 3.48225,15.47751c-3.10216,6.29807 -12.84957,-2.87388 -12.84957,-2.87388c-6.21038,9.45049 -9.63844,-2.92981 -9.63844,-2.92981c-9.36732,12.60365 -9.58439,0.1673 -9.58439,0.1673c-38.798,-11.76291 -80.2925,-7.94057 -80.2925,-7.94057c0,0 -0.16302,-9.33912 -6.53642,-9.22788c-9.58439,0.1673 -6.21038,9.45038 -6.21038,9.45038c-3.10204,6.29807 -12.63249,9.56257 -12.63249,9.56257c9.58452,-0.1673 12.68655,-6.46535 12.68655,-6.46535zm6.21122,-9.4028c3.21099,-0.05605 3.37318,9.2355 3.37318,9.2355c-6.42748,-2.98597 -6.42748,-2.98597 -6.42748,-2.98597c0,0 -0.05406,-3.09711 3.0543,-6.24953zm0,0" stroke="null"/>
   <path id="svg_165" fill-rule="evenodd" fill="rgb(0%,0%,0%)" d="m384.19926,365.14316c0,0 9.96948,21.89408 22.43466,2.75416c0,0 16.17487,12.15779 19.05984,-6.57662c2.88627,-15.87456 -0.43914,-25.15859 -0.43914,-25.15859c-3.15611,3.20096 -3.15611,3.20096 -3.15611,3.20096c0,0 3.59525,21.95763 -2.77267,25.16695c-3.10752,3.2 -12.63785,6.46452 -13.18512,-24.8884c-3.15692,3.15314 -3.15692,3.15314 -3.15692,3.15314c0,0 3.59523,21.95776 0.43914,25.15861c-3.15693,3.15325 -12.74131,3.32055 -16.06674,-5.96348c-0.16302,-9.33913 -0.38425,-22.01368 -0.38425,-22.01368c-3.211,0.05605 -3.211,0.05605 -3.211,0.05605c0,0 3.37318,9.23537 0.22123,12.67455c-3.1562,3.20085 -22.46011,9.73402 -15.5777,22.05401c6.48237,6.13077 15.79478,-9.61766 15.79478,-9.61766zm-12.7406,3.36814c-0.05489,-3.14479 9.42138,-9.50642 9.42138,-9.50642c0,0 3.31922,6.13828 -2.99928,9.39433c-3.15692,3.15325 -6.36804,3.2093 -6.4221,0.11209zm0,0" stroke="null"/>
   <path id="svg_166" fill-rule="evenodd" fill="rgb(0%,0%,0%)" d="m548.93932,446.20287c3.26504,3.04106 16.11461,5.91492 19.22283,2.76252c6.36806,-3.20921 2.82604,-22.11744 -3.60142,-25.10341c-3.31912,-6.13827 -12.79551,0.22334 -9.47544,6.40931c3.32531,9.28403 9.63845,2.92993 9.63845,2.92993c0,0 6.59547,12.61101 0.22207,12.72226c-15.95243,3.3765 -19.33678,-9.29058 -19.33678,-9.29058c-3.15622,3.20097 -3.15622,3.20097 -3.15622,3.20097c0.11311,6.48025 0.11311,6.48025 0.11311,6.48025c0.16218,9.29142 -22.46083,9.68631 -22.46083,9.68631c22.78603,8.94436 28.83423,-9.79756 28.83423,-9.79756zm9.25337,-19.13157c3.15704,-3.15328 6.47699,3.03269 6.47699,3.03269c0.05406,3.09723 -9.58439,0.1673 -6.47699,-3.03269zm0,0" stroke="null"/>
   <path id="svg_167" fill-rule="evenodd" fill="rgb(0%,0%,0%)" d="m567.10722,391.31112c6.37339,-0.11124 6.21121,-9.40278 -0.16219,-9.29153c-3.10287,6.25037 0.16219,9.29153 0.16219,9.29153zm0,0" stroke="null"/>
   <path id="svg_168" fill-rule="evenodd" fill="rgb(0%,0%,0%)" d="m559.8361,404.11647c-3.103,6.25038 3.37318,9.23551 3.37318,9.23551c3.16228,-0.0552 3.0001,-9.34676 -3.37318,-9.23551zm0,0" stroke="null"/>
   <path id="svg_169" fill-rule="evenodd" fill="rgb(0%,0%,0%)" d="m548.06227,404.32198c-6.26528,6.30558 0.16218,9.29156 0.16218,9.29156c6.42211,-0.1121 6.25993,-9.40365 -0.16218,-9.29156zm0,0" stroke="null"/>
   <path id="svg_170" fill-rule="evenodd" fill="rgb(0%,0%,0%)" d="m519.59442,426.74412c-3.31924,-6.1384 -6.58513,-9.22715 -6.58513,-9.22715c0,0 -3.16228,0.0552 0.10896,6.24202c3.26506,3.04118 3.31912,6.13827 0.10812,6.19432c-6.3734,0.11125 -9.58438,0.16729 -9.58438,0.16729c0,0 -3.211,0.05605 -3.31912,-6.13826c-0.16302,-9.33913 -0.60216,-34.49772 -0.60216,-34.49772c-3.10752,3.2 -3.10752,3.2 -3.10752,3.2c0,0 0.65538,37.54723 0.65538,37.54723c3.21732,3.08973 6.48237,6.13078 19.22369,2.81034c0,0 6.3734,-0.11125 3.10216,-6.29807zm0,0" stroke="null"/>
   <path id="svg_171" fill-rule="evenodd" fill="rgb(0%,0%,0%)" d="m503.94686,444.79567c-6.36805,3.20919 0.10812,6.19432 0.10812,6.19432c6.3734,-0.11125 6.20622,-9.68871 -0.10812,-6.19432zm0,0" stroke="null"/>
   <path id="svg_172" fill-rule="evenodd" fill="rgb(0%,0%,0%)" d="m452.51358,434.06352c3.26588,3.08886 12.90433,6.01867 16.06125,2.86552c3.10752,-3.20012 9.5295,-3.31221 9.5844,-0.1673c3.21647,3.04191 6.37339,-0.11125 9.5295,-3.31221c-0.05406,-3.0971 -0.27114,-15.53344 -6.63906,-12.32424c-3.16242,0.0552 3.31994,6.18596 3.31994,6.18596c-2.99391,12.4924 -9.58438,0.1673 -9.58438,0.1673c-9.36732,12.60364 -19.16879,0.33459 -19.16879,0.33459c-44.27277,25.89135 -63.6628,13.55138 -70.09026,10.56552c-3.26587,-3.08887 -6.47687,-3.03282 -9.47627,6.36162c0.16718,9.57735 -12.81119,16.04779 -12.81119,16.04779c13.08732,-0.22844 16.08672,-9.62275 16.08672,-9.62275c12.84944,2.87376 15.84468,-6.75878 15.84468,-6.75878c9.75157,9.41005 57.34346,-10.34302 57.34346,-10.34302zm-70.09025,10.56551c0,0 -3.211,0.05605 -0.05407,-3.09722c6.31934,-3.20835 16.06592,5.91577 0.05407,3.09722zm0,0" stroke="null"/>
   <path id="svg_173" fill-rule="evenodd" fill="rgb(0%,0%,0%)" d="m585.1227,514.49244c0,0 -6.31934,3.20848 -12.68737,6.4178c-3.1623,0.05519 -3.1623,0.05519 -6.31852,3.25604c-6.26528,6.30556 -9.31324,15.70086 -12.52424,15.7569c-3.10336,3.43822 -9.63845,-2.92992 -6.53641,-9.22799c-3.211,0.05605 -3.211,0.05605 -3.211,0.05605c0,0 0.38508,22.06138 12.95841,9.1159c6.26527,-6.3057 6.15632,-12.54772 15.68665,-15.81211c12.68654,-6.46536 22.27094,-6.63266 12.63248,-9.56259zm0,0" stroke="null"/>
   <path id="svg_174" fill-rule="evenodd" fill="rgb(0%,0%,0%)" d="m542.01552,498.41978c0.21708,12.43634 0.21708,12.43634 0.21708,12.43634c3.6214,9.51706 -6.20624,9.6886 -9.4714,6.64755c-12.79539,0.22334 -19.22368,-2.8102 -28.80808,-2.64291c-12.79537,0.22335 -19.33595,-9.24287 -19.33595,-9.24287c-0.4932,-28.25583 -0.4932,-28.25583 -0.4932,-28.25583c-3.21648,-3.04189 -3.21648,-3.04189 -3.21648,-3.04189c0,0 0.27613,15.81936 0.43914,25.15859c-2.9939,12.49239 -82.82192,17.22226 -98.72482,20.6456c-25.83412,0.45094 -16.57993,-18.63295 -16.57993,-18.63295c-9.53032,3.26441 -6.04321,19.02784 3.78443,18.8563c35.22933,2.48312 114.84493,-11.63259 114.84493,-11.63259c6.5414,9.51378 12.96338,9.40169 22.54777,9.23439c12.69192,-3.36729 28.86141,5.69242 35.18076,2.48397c6.66522,-0.11634 3.06998,-22.07399 3.06998,-22.07399l-3.45423,0.06029zm0,0" stroke="null"/>
   <path id="svg_175" fill-rule="evenodd" fill="rgb(0%,0%,0%)" d="m381.92112,493.9217c-3.15622,3.20085 -3.15622,3.20085 -3.15622,3.20085c0,0 16.00649,-0.2794 15.78941,-12.71573c3.04848,-6.58303 -6.47699,-3.0327 -6.47699,-3.0327c-0.11311,-6.48025 -0.11311,-6.48025 -0.11311,-6.48025c-3.10822,3.15242 -3.10822,3.15242 -3.10822,3.15242c0,0 0,0 0.05905,3.38303c-3.1561,3.20084 0.10896,6.24202 3.27124,6.18682c0,0 6.31314,-6.35412 3.21111,-0.05605c0.10813,6.19432 -9.47627,6.36161 -9.47627,6.36161zm0,0" stroke="null"/>
   <path id="svg_176" fill="none" stroke-width="1.29528" stroke-miterlimit="10" d="m344.76731,319.83612l1.49896,269.89162" stroke="rgb(0%,0%,0%)"/>
   <path id="svg_177" fill-rule="evenodd" fill="rgb(0%,0%,0%)" d="m282.02588,347.14634c22.37978,-0.39064 22.37978,-0.39064 22.37978,-0.39064c-0.05407,-3.09721 -0.05407,-3.09721 -0.05407,-3.09721c0,0 -16.00649,0.27939 -19.22283,-2.76264c-3.26506,-3.04105 -9.69335,-6.07472 -12.84957,-2.87375c-3.15692,3.15315 3.26517,3.04105 3.26517,3.04105c0,0 3.1623,-0.0552 6.37342,-0.11125c3.26504,3.04118 3.3191,6.13839 -3.103,6.25049c-6.37341,0.11124 -12.69178,3.36729 -19.05567,6.81484c-6.31851,3.25605 -16.12497,-9.29892 -16.12497,-9.29892c-3.16242,0.0552 -3.16242,0.0552 -3.16242,0.0552c9.81196,15.6529 9.81196,15.6529 9.81196,15.6529c0,0 3.26505,3.04118 -6.21039,9.4505c-25.3251,12.88217 -19.49897,-18.582 -19.49897,-18.582c-3.1042,3.39066 -12.36256,22.23631 6.86029,24.99881c22.33119,-0.38979 22.06005,-15.92335 22.06005,-15.92335c0,0 0,0 6.31934,-3.20834c9.5844,-0.1673 9.69252,6.02702 12.9035,5.97097c6.42831,3.03355 12.74145,-3.32057 6.2104,-9.45036c-3.22052,-3.28026 3.098,-6.53631 3.098,-6.53631l-0.00001,0l-0.00001,0.00001zm-6.15133,12.83339c-3.15705,3.15327 -6.47616,-2.985 -6.47616,-2.985c0,0 6.36721,-3.25689 6.36721,-3.25689c0,0 3.21719,3.0896 0.10895,6.24188l0,0.00001zm0,0" stroke="null"/>
   <path id="svg_178" fill-rule="evenodd" fill="rgb(0%,0%,0%)" d="m509.61385,524.10391l9.58438,-0.1673l-0.05406,-3.0972l-12.7955,0.22334l3.26518,3.04116zm0,0" stroke="null"/>
   <path id="svg_179" fill="none" stroke-width="2.29528" stroke-linecap="round" stroke-miterlimit="10" d="m574.09272,456.19369c0,0 -6.31386,6.30636 0.16218,9.29145c-6.36708,3.257 -6.36708,3.257 -6.36708,3.257" stroke="rgb(0%,0%,0%)"/>
   <path id="svg_180" fill="none" stroke-width="2.29528" stroke-linecap="round" stroke-miterlimit="10" d="m528.43216,383.78801c0,0 -6.31925,3.20844 0.10812,6.19437c-6.26436,6.35322 -6.26436,6.35322 -6.26436,6.35322" stroke="rgb(0%,0%,0%)"/>
   <path id="svg_181" fill-rule="nonzero" fill="rgb(92.329407%,13.485718%,17.388916%)" d="m401.14428,91.93363c23.85087,16.47295 40.4107,43.24366 40.94258,73.71515c0.8931,51.16582 -41.4146,93.39801 -94.48254,94.32432c-53.09988,0.92686 -96.84503,-39.80328 -97.73813,-90.9691c-0.53457,-30.62552 14.89142,-57.82104 38.33435,-75.09893c-14.19318,14.1783 -22.78536,33.58037 -22.41446,54.82928c0.74198,42.50809 37.088,76.35073 81.19583,75.58083c44.07589,-0.76935 79.21867,-35.85983 78.47669,-78.36793c-0.3709,-21.24891 -9.63495,-40.33929 -24.31432,-54.01362zm0,0" stroke="null"/>
   <path id="svg_182" fill-rule="nonzero" fill="rgb(18.470764%,18.206787%,18.566895%)" d="m302.51981,180.97789l-4.01898,-3.73098l-3.88631,3.86897l4.01897,3.73095l3.88632,-3.86894zm0,0" stroke="null"/>
   <path id="svg_183" fill-rule="nonzero" fill="rgb(18.470764%,18.206787%,18.566895%)" d="m288.79748,101.24004c0.07027,4.02589 -2.15837,9.44799 -4.8844,12.6289c-2.72622,3.17067 -5.00461,6.35405 -2.63228,8.55224c2.35117,2.20879 8.84781,0.73931 9.67306,-5.10002c-3.23665,1.4023 -6.5045,1.01758 -5.17138,-2.59105c1.33311,-3.60867 4.98387,-8.15152 3.015,-13.49007zm0,0" stroke="null"/>
   <path id="svg_184" fill-rule="nonzero" fill="rgb(18.470764%,18.206787%,18.566895%)" d="m307.59175,85.67672c1.32506,-4.07078 8.45417,-7.77034 11.77177,-5.1469c3.29665,2.64432 -0.42567,15.91043 -18.1448,13.08638c5.33669,-0.7609 17.41348,-1.8655 15.40433,-10.12095c-0.74618,-2.45256 -5.14138,-1.48207 -9.0313,2.18147zm0,0" stroke="null"/>
   <path id="svg_185" fill-rule="nonzero" fill="rgb(18.470764%,18.206787%,18.566895%)" d="m301.78243,99.65733c7.67783,-0.34978 23.61039,-6.4631 29.73344,-15.29197c4.52774,-6.80804 8.70412,-6.88094 10.80399,-6.24982c2.12131,0.641 3.10802,4.66119 1.56383,9.60903c-0.89948,1.58752 -1.46192,9.66186 -1.19616,11.45503c-2.40095,-4.4475 -3.1862,-9.13895 -2.53791,-12.2939c0.6487,-3.1344 -1.22349,-3.54347 -3.96135,-1.04036c-2.74835,2.51356 -19.21333,17.81019 -34.40584,13.81199zm0,0" stroke="null"/>
   <path id="svg_186" fill-rule="nonzero" fill="rgb(18.470764%,18.206787%,18.566895%)" d="m322.91821,111.39029c-4.34446,3.87694 -10.51018,10.26153 -16.71497,14.40725l0.94249,0.8773c6.1892,-5.0392 14.20496,-11.67182 16.03036,-13.94325l-0.25788,-1.3413zm0,0" stroke="null"/>
   <path id="svg_187" fill-rule="nonzero" fill="rgb(18.470764%,18.206787%,18.566895%)" d="m305.97252,112.57985c-8.44152,9.10564 -21.21756,25.09813 -24.10068,30.88091c-4.03548,8.14525 -1.06825,18.17153 2.2047,19.4602c3.26232,1.28882 8.38695,1.19937 13.5995,-6.06234c5.22304,-7.27219 13.18036,-17.25285 17.09786,-19.3348c3.91734,-2.09222 9.2501,-3.07906 11.86291,0.68669c2.6235,3.76559 8.28028,7.9097 12.20174,6.05373c3.91064,-1.8661 11.00757,-8.02038 10.14393,-17.19987c-0.84212,-9.16962 -7.2413,-15.55062 -9.40391,-19.77627c-2.1624,-4.21538 -6.6776,-9.5095 -9.90753,-8.33333c-3.22996,1.17619 -2.88129,8.33055 2.30194,11.59945c5.1621,3.27953 11.73529,7.4179 12.7013,9.64063c0.98727,2.22233 4.6196,10.66518 -2.49909,16.1829c-7.09774,5.49681 -9.05598,0.15808 -11.68633,-3.39163c-2.6089,-3.53983 -8.47775,-7.0125 -14.88197,-0.86002c-6.40387,6.17298 -15.9522,18.42101 -19.15076,21.39446c-3.1986,2.97342 -6.90915,3.47995 -9.73941,1.30006c-2.81998,-2.20062 -3.27702,-14.95205 13.83215,-33.63982c2.04242,-2.04922 4.3131,-5.67423 5.42365,-8.60095zm0,0" stroke="null"/>
   <path id="svg_188" fill-rule="nonzero" fill="rgb(100%,100%,100%)" d="m336.4932,103.31484c-2.36183,-2.20862 -4.00734,-3.06341 -5.41485,-3.71687c-1.40731,-0.6432 -2.27065,3.62501 -1.30585,5.1697c0.96499,1.55497 4.28097,5.30849 7.55395,6.59715l-0.83324,-8.04998l-0.00001,0zm0,0" stroke="null"/>
   <path id="svg_189" fill-rule="nonzero" fill="rgb(18.470764%,18.206787%,18.566895%)" d="m370.71335,80.08552c-1.61054,1.1479 -2.94348,4.76681 -0.81344,6.51718c2.13007,1.75035 3.37347,6.43383 1.78362,9.37916c1.61315,-1.61022 4.08918,-5.68057 0.07019,-9.41152c-1.65353,-1.31694 -1.71215,-4.67529 -1.04037,-6.48482zm0,0" stroke="null"/>
   <path id="svg_190" fill-rule="nonzero" fill="rgb(18.470764%,18.206787%,18.566895%)" d="m308.12275,155.7825c0.2695,2.00884 -1.0559,6.0591 -4.47704,9.71446c-3.43198,3.64527 -0.80866,7.40059 0.13266,7.59992c0.93086,0.20975 5.59573,1.25839 6.43165,-4.58114c-1.59889,1.81543 -2.99456,1.8398 -4.16751,1.19253c-1.17294,-0.6473 -0.73929,-2.66842 1.08314,-4.49807c1.82242,-1.82962 2.68182,-6.32378 0.9971,-9.4277zm0,0" stroke="null"/>
   <path id="svg_191" fill-rule="nonzero" fill="rgb(18.470764%,18.206787%,18.566895%)" d="m359.74487,156.89497c-0.42183,2.69898 -3.31752,10.81404 -6.06308,12.87551c-2.75623,2.06169 -2.41329,7.6649 -0.30163,8.97384c2.11169,1.30894 5.57997,0.35461 6.89436,-3.71599c-1.84214,0.69993 -7.17194,1.24497 -4.24667,-3.95299c2.9253,-5.19796 5.14901,-11.51375 3.71702,-14.18037zm0,0" stroke="null"/>
   <path id="svg_192" fill-rule="nonzero" fill="rgb(18.470764%,18.206787%,18.566895%)" d="m340.947,199.11749c1.32523,-4.06055 3.63635,-4.75838 5.26347,-4.34502c1.64863,0.42326 1.17598,13.64293 -10.01494,11.15693c3.69872,-1.18434 9.21693,-3.75652 8.23536,-6.87273c-0.99241,-3.1263 -3.03741,-0.61475 -3.4839,0.06082l0.00001,0zm0,0" stroke="null"/>
   <path id="svg_193" fill-rule="nonzero" fill="rgb(18.470764%,18.206787%,18.566895%)" d="m370.46281,118.85093c-1.59116,2.25708 -1.71208,8.76214 1.53366,8.48975c1.16403,-0.47233 3.01391,-0.73063 3.19757,-3.64118c0.72371,1.77492 1.88894,1.98061 3.96135,1.04039c2.07262,-0.92997 0.80078,-7.85248 -2.26386,-10.02831c0.26834,1.33084 2.20148,6.45428 0.59766,7.37607c-1.61429,0.93222 -2.5688,-0.63321 -3.05437,-2.19654c0.03532,2.02321 -0.15208,4.7181 -2.25096,4.75473c-2.08818,0.03645 -1.68592,-3.78195 -1.72105,-5.79491zm0,0" stroke="null"/>
   <path id="svg_194" fill-rule="nonzero" fill="rgb(18.470764%,18.206787%,18.566895%)" d="m354.47595,82.16675c-0.39454,4.26003 1.40368,13.86496 3.08841,16.96891c1.68476,3.10395 2.77981,12.72115 -0.17961,16.57391c3.90193,-2.97544 6.27911,-13.32104 2.92796,-19.08747c-3.36178,-5.76625 -5.55952,-12.00485 -5.83676,-14.45535zm0,0" stroke="null"/>
   <path id="svg_195" fill-rule="nonzero" fill="rgb(18.470764%,18.206787%,18.566895%)" d="m356.38452,98.70424c-7.02361,-3.68878 -9.92036,-9.67891 -4.619,-12.46304c-2.79512,-0.16696 -6.83492,7.7318 -2.35747,11.4753c4.47713,3.72295 15.5304,11.1425 15.79625,26.37312c-0.42946,15.69477 -14.94784,35.66259 -45.36421,36.86128c13.02815,0.89237 35.13179,2.74612 43.57322,-19.79693c8.4306,-22.55318 0.02679,-38.76153 -7.02879,-42.44973zm0,0" stroke="null"/>
   <path id="svg_196" fill-rule="nonzero" fill="rgb(18.470764%,18.206787%,18.566895%)" d="m401.41429,121.44401c-2.39303,-3.99563 -16.66863,-23.23481 -19.12306,-30.13671c-0.09267,3.23771 3.47514,10.42834 8.55444,18.73294c-1.88562,-1.17932 -3.66262,-1.63114 -5.93186,-2.19767c2.12628,1.53469 5.89252,4.82832 6.65153,8.62645c-4.92157,-1.71193 -15.66329,-5.32552 -9.09807,-15.07644c-2.76906,0.71607 -5.72059,5.02074 -3.78174,9.25032c1.92804,4.21945 3.12446,6.21215 7.56663,7.93242c4.45262,1.70983 12.85927,4.03895 8.91735,17.54519c1.26636,-2.54935 3.48699,-9.0397 3.11212,-14.64235c0.51402,0.75124 1.02784,1.4922 1.54184,2.24347c9.30109,13.27506 15.86844,29.28945 6.95841,51.85099c-8.91018,22.55124 -39.60765,34.51094 -48.17822,36.22207c44.10385,-3.44087 52.69818,-30.04456 54.93974,-47.54823c2.26254,-17.52458 -9.72542,-38.80702 -12.12911,-42.80245zm0,0" stroke="null"/>
   <path id="svg_197" fill-rule="nonzero" fill="rgb(18.470764%,18.206787%,18.566895%)" d="m380.28853,135.92824c-3.26131,-0.62112 -5.52906,2.5621 -5.71645,5.25694c-0.18761,2.68459 0.78213,5.123 4.54736,7.74887c3.76541,2.63614 5.72464,8.6426 4.64034,12.46266c1.81591,-1.59323 4.92661,-10.82156 1.15843,-13.00562c-3.75752,-2.18426 -12.43354,-6.51198 -4.62968,-12.46285zm0,0" stroke="null"/>
   <path id="svg_198" fill-rule="nonzero" fill="rgb(18.470764%,18.206787%,18.566895%)" d="m381.54349,127.84181c1.01671,5.12916 6.79996,17.1301 9.2232,22.245c2.40176,5.10498 8.53663,23.81851 -1.77447,32.05274c-3.90569,2.75977 -11.5699,2.66753 -16.15159,-6.43681c2.23186,7.58383 -3.59389,20.01343 -11.21902,22.1601c-7.64646,2.14701 -10.92832,-0.26128 -12.90231,-6.50379c-1.96315,-6.23242 -3.88901,-9.10615 -6.89264,-8.39623c-3.00324,0.73045 -5.90882,7.05814 -7.67166,12.91386c-1.75232,5.84524 -6.19305,18.25067 -12.71432,17.69676c-6.51082,-0.56438 -12.44616,-7.84728 -11.02316,-19.73774c1.41219,-11.90053 10.40936,-15.42721 13.23871,-27.34222c0.10147,5.81291 -3.94486,13.94802 -6.90687,18.26315c-2.94107,4.2942 -5.41667,21.82252 4.10431,21.44057c9.52077,-0.39219 10.03725,-10.48955 12.24913,-17.48316c2.20159,-6.97289 5.56018,-14.21253 8.57148,-14.48083c3.01117,-0.27857 4.69493,2.15762 6.16223,6.84743c1.48844,4.67918 4.64804,12.90429 11.11306,11.45592c6.49662,-1.46949 14.54751,-6.08915 11.01381,-21.70447c-0.9699,-2.44865 -0.45821,-13.42943 -0.767,-17.68745c0.61445,8.94756 6.31368,28.34673 16.01125,25.25986c9.71887,-3.08727 7.8269,-18.06347 4.68309,-25.38478c-2.38811,-3.10196 -9.59807,-16.85528 -8.34723,-25.17791zm0,0" stroke="null"/>
   <path id="svg_199" fill-rule="nonzero" fill="rgb(18.470764%,18.206787%,18.566895%)" d="m334.45648,93.47777c0.07457,4.27238 3.88945,22.56412 0.27301,28.46245c1.83407,-1.16206 4.52499,-6.35595 3.9654,-12.16083c-0.55996,-5.82543 -3.97659,-14.73436 -4.23842,-16.30162l0.00001,0zm0,0" stroke="null"/>
   <path class="st12" d="m578.68451,411.99899c0,11.85121 0.00992,23.70242 -0.02977,35.55363c0,0.6948 0.55564,1.99506 -0.92276,1.8958c-1.3395,-0.08933 -1.70662,-1.19108 -1.79592,-2.402c-0.45641,-6.6601 -1.00213,-13.31028 -1.35933,-19.97038c-0.1786,-3.32509 0.10914,-6.67996 -0.0893,-10.00505c-0.18852,-3.15635 0.93268,-4.91319 4.19708,-5.072z" id="svg_200" stroke="null"/>
   <path class="st8" d="m432.29732,362.27733c-2.87743,-10.29288 -1.43871,-20.74458 -1.7463,-31.10694c-0.06946,-2.21342 1.18074,-4.20847 3.26439,-6.31271c0.57549,12.86363 -0.22821,25.16149 -1.51809,37.41965z" id="svg_201" stroke="null"/>
   <path class="st9" d="m171.86996,353.76584c-3.443,2.79903 -6.74708,4.38713 -9.99163,6.09434c-2.94688,1.5484 -6.08228,2.91814 -8.66205,4.97275c-5.20914,4.13899 -10.78539,4.49631 -16.80815,2.63029c-2.00428,-0.62531 -3.97879,-1.37966 -6.01283,-1.86602c-1.11128,-0.26799 -2.68891,-1.94542 -3.39338,-0.01985c-0.54572,1.47892 -0.36712,3.30524 1.55778,4.47646c2.61945,1.5881 5.03054,3.5236 7.97742,5.62784c-5.1,1.76676 -9.97178,2.26304 -14.7245,3.0968c-2.56984,0.45658 -2.89727,1.25063 -2.33171,3.61293c1.20059,5.01245 3.75058,9.38965 5.93346,13.95544c1.17082,2.45164 2.15311,4.9926 3.1354,7.52364c0.18853,0.48635 0.63502,1.25063 -0.05953,1.65758c-0.68463,0.40695 -1.45856,0.11911 -2.05389,-0.3474c-0.36712,-0.28784 -0.63502,-0.74442 -0.84338,-1.17122c-3.63151,-7.57327 -8.09649,-14.73958 -11.05329,-22.65031c-0.79378,-2.11416 -0.91284,-3.28538 1.77606,-4.2978c6.08229,-2.30275 8.76128,-7.23579 8.2354,-13.86611c-0.13891,-1.69729 2.76829,-5.94546 4.30622,-6.13405c1.36926,-0.16873 1.69669,1.23078 2.42101,1.95535c5.69532,5.67747 13.99025,6.90825 20.43966,3.17621c2.2821,-1.32011 2.03405,-2.20349 0.16868,-3.55338c-3.25447,-2.3623 -7.01497,-2.01491 -10.70602,-2.2829c-1.71653,-0.12903 -4.51458,1.04219 -4.52451,-2.19356c0,-2.64022 2.29203,-3.24569 4.45506,-3.56331c0.84338,-0.12903 1.80583,-0.22829 2.57976,0.03971c4.44513,1.54839 8.8605,3.1365 13.6529,3.12657c4.58404,-0.00992 9.15816,0 14.52605,0l0.00001,0z" id="svg_202" stroke="null"/>
   <path class="st3" d="m188.74066,324.18087c3.32393,0.93301 4.42529,2.67 4.57412,5.96531c0.2679,5.66754 1.52802,11.27552 2.13327,16.93314c0.89299,8.25813 -1.27996,11.2656 -9.50544,12.87355c-2.11342,0.41688 -2.7782,1.07197 -3.0461,3.1762c-1.1609,8.91322 -7.38209,13.99515 -17.48286,13.88597c3.60175,-2.86851 6.77684,-5.32014 9.86263,-7.86111c5.17937,-4.26802 5.14961,-4.28787 2.25234,-10.32266c-0.88308,-1.84617 -1.70662,-3.72211 -2.68891,-5.87597c4.22684,1.15137 8.00719,2.13401 11.76769,3.2159c2.60953,0.74442 3.91925,0.31762 4.45505,-2.8288c1.27004,-7.40453 -0.20836,-14.56091 -1.2105,-21.78678c-0.29767,-2.3226 -0.68463,-4.63527 -1.11129,-7.37475z" id="svg_203" stroke="null"/>
   <path class="st3" d="m244.46027,410.72293c4.93131,1.5484 7.10427,4.84371 7.2531,10.6105c0.11907,4.50624 -1.39903,7.15639 -6.23112,8.37724c-11.75777,2.96776 -23.52546,2.7097 -35.10463,-1.27048c-1.52801,-0.52606 -2.23248,-1.32011 -2.02412,-2.97769c0.13891,-1.10175 -0.05953,-2.2432 0.09922,-3.34494c0.18852,-1.27049 -0.72432,-3.29531 0.68463,-3.67249c1.71654,-0.45658 1.57763,1.83624 2.17296,2.89829c3.11556,5.5385 8.31477,7.15638 14.06963,7.56333c6.24104,0.43673 12.3531,-0.8139 18.38578,-2.22334c3.12548,-0.72457 4.0284,-3.03725 3.05602,-6.81891c-0.39688,-1.55833 -0.97237,-3.06703 -1.44863,-4.59557c-0.41673,-1.38959 -1.12121,-2.71963 -0.91284,-4.54595l0,0.00001z" id="svg_204" stroke="null"/>
   <path class="st9" d="m156.24672,431.05588c7.521,-0.73449 14.64512,-1.05211 21.60056,-2.85858c3.10563,-0.80398 3.91925,-2.25312 3.51244,-5.13155c-0.72431,-5.0323 -3.69104,-8.52613 -7.56069,-11.44426c-0.89299,-0.66502 -1.90505,-1.18115 -2.72859,-1.91565c-1.4288,-1.26056 -0.58541,-2.92806 -0.15876,-4.14892c0.5358,-1.5484 1.85545,-0.35732 2.74844,0c7.29279,2.88836 12.19434,12.08943 10.56711,19.77187c-0.50603,2.40201 -1.63716,4.23825 -4.03832,5.35985c-4.51459,2.0943 -9.04902,4.03973 -14.0994,4.26802c-3.65136,0.15881 -7.08443,-0.39703 -9.84279,-3.90078z" id="svg_205" stroke="null"/>
   <path class="st9" d="m263.73895,437.27272c1.51809,2.58067 2.76828,4.84371 4.14746,7.02735c1.45856,2.31268 3.18502,4.41691 5.58619,5.85613c7.00504,4.2184 14.12916,1.25063 15.35951,-6.75936c1.22043,-7.95043 1.53794,-15.9902 1.14105,-24.06967c-0.29767,-6.03478 -0.16868,-12.06957 3.90933,-17.75696c0.81362,4.52609 0.55564,8.56582 0.47627,12.58571c-0.11907,6.32263 -0.34728,12.63533 0.18852,18.94804c0.32743,3.85114 2.50038,6.06456 5.92353,7.25564c3.56206,1.25063 7.07451,1.31018 10.19007,-1.17123c1.82568,-1.44914 2.36147,-3.57323 1.80583,-5.71717c-0.58541,-2.27297 -2.69883,-0.95286 -4.1177,-1.29033c-0.23813,-0.05955 -0.50603,0.0397 -0.74416,-0.00992c-2.25233,-0.41688 -5.5961,2.07445 -6.21128,-2.65015c-0.70447,-5.33007 0.68463,-9.11174 4.26653,-10.38222c3.05603,-1.08189 6.77684,0.35733 8.43385,3.66256c2.64922,5.27052 2.5103,10.85865 0.47626,16.20857c-1.2998,3.40449 -4.58404,4.77423 -8.11633,4.95289c-2.95681,0.14889 -5.98307,0.25807 -8.90019,-0.15881c-3.14532,-0.45658 -4.92139,0.49628 -6.48909,3.29531c-2.96673,5.32014 -7.07451,9.22092 -13.86127,8.81397c-8.9498,-0.50621 -15.935,-9.84623 -13.46438,-18.64035z" id="svg_206" stroke="null"/>
   <path class="st19" d="m308.42479,423.70055c2.1928,-0.56576 2.32179,0.95286 2.30195,2.09431c-0.03969,1.73698 -0.4465,3.82137 -2.69883,3.58315c-2.04397,-0.21836 -2.97665,-2.0546 -2.94689,-4.07943c0.02977,-2.90822 2.56985,-0.70472 3.34377,-1.59803z" id="svg_207" stroke="null"/>
   <path class="st3" d="m313.77892,451.95445c0.13891,-2.13401 1.22043,-2.73948 3.20486,-2.62037c3.46284,0.19851 6.92568,0.09926 10.28929,-0.93301c3.69105,-1.13152 6.61809,-3.15635 8.44376,-6.70973c1.91498,-3.74196 1.82568,-4.20847 -2.07373,-6.13404c-3.4926,-1.72706 -4.37567,-4.9926 -2.57976,-9.58817c1.34941,-3.45412 4.03832,-4.7246 7.81866,-3.45412c3.5323,1.19108 4.75272,4.07944 4.98093,7.51371c0.72432,11.28545 -8.03695,20.73465 -20.50912,22.05476c-3.17509,0.33747 -6.37003,0.40695 -9.57489,-0.12903z" id="svg_208" stroke="null"/>
   <path class="st19" d="m341.08746,429.88593c-0.15876,2.20349 -1.02198,3.65263 -3.37354,3.5633c-2.31186,-0.08933 -3.96886,-1.33003 -4.73287,-3.43427c-0.41673,-1.14145 3.56206,-4.74445 5.13968,-4.70475c3.23463,0.0794 2.11342,3.01739 2.96673,4.57572z" id="svg_209" stroke="null"/>
   <path stroke="null" id="svg_17" d="m251.788047,985.304364c4.360636,-2.046927 22.245137,-6.199827 27.489685,-6.199827c-7.876644,3.867511 -5.666863,9.703222 -4.674916,15.283066c1.983893,11.100643 4.773129,22.004466 7.503437,32.937813c0.559811,2.233906 1.895502,3.66085 4.174032,4.123377c1.659792,0.344435 3.319583,0.669188 4.959732,1.003782c0.108034,1.968199 -1.306227,2.214224 -2.632096,2.499613c-7.169514,1.525354 -14.34885,3.040868 -21.518364,4.54654c-0.599096,0.127933 -1.208014,0.246025 -1.80711,0.246025c-0.667845,0 -1.139265,-0.403481 -1.33569,-1.052987c-0.216068,-0.718393 0.510705,-0.797121 0.834806,-0.925054c5.873109,-2.263429 5.33294,-6.436011 4.085641,-11.494283c-2.818699,-11.405714 -5.224906,-22.919679 -7.542722,-34.443485c-0.648203,-3.208165 -1.974072,-4.999226 -5.244549,-5.392866c-1.33569,-0.167297 -2.612453,-0.679029 -4.291887,-1.131715z"/>
  </g>
 </g>
</svg>