<svg width="380.1" height="380" xmlns="http://www.w3.org/2000/svg">
 <style type="text/css">.st0{fill:#FFFFFF;}
	.st1{fill-rule:evenodd;clip-rule:evenodd;fill:#2A7C43;}
	.st2{fill:#2A7C43;}
	.st3{fill-rule:evenodd;clip-rule:evenodd;}</style>

 <g>
  <title>background</title>
  <rect fill="none" id="canvas_background" height="382" width="382.1" y="-1" x="-1"/>
 </g>
 <g>
  <title>Layer 1</title>
  <path stroke="null" id="svg_1" d="m375.371813,165.675718c-0.50466,84.153009 -70.568306,157.177676 -165.528516,154.334669c-82.764258,-2.436863 -155.771754,-68.069712 -154.173664,-157.665048c1.51398,-81.147544 70.147755,-152.547636 163.509876,-150.92306c84.698789,1.543347 155.435314,68.069712 156.192304,154.25344z" class="st0"/>
  <path d="m190,0c18.3,0 36,2.6 52.8,7.4c-9.4,-1.5 -19,-2.4 -28.9,-2.4c-92.7,0 -167.9,73.3 -167.9,163.6s75.2,163.5 168,163.5c84.2,0 153.9,-60.3 166.1,-138.9c-1.8,103.4 -86.2,186.8 -190.1,186.8c-104.9,0 -190,-85.1 -190,-190s85.1,-190 190,-190" class="st1" id="path16"/>
  <path d="m216.5,8.9c44.6,0 84.9,17.6 114.1,46s47.3,67.7 47.3,111.1s-18.1,82.7 -47.3,111.1c-29.2,28.4 -69.6,46 -114.1,46c-44.6,0 -84.9,-17.6 -114.1,-46s-47.3,-67.7 -47.3,-111.1s18.1,-82.7 47.3,-111.1s69.5,-46 114.1,-46l0,0zm111.6,48.6c-28.5,-27.8 -68,-45 -111.5,-45s-83,17.2 -111.5,45c-28.7,27.8 -46.3,66.1 -46.3,108.5s17.7,80.8 46.2,108.6s68,45 111.5,45s83,-17.2 111.5,-45s46.2,-66.2 46.2,-108.6s-17.6,-80.7 -46.1,-108.5" class="st2" id="path18"/>
  <path d="m216.5,8.9c44.6,0 84.9,17.6 114.1,46s47.3,67.7 47.3,111.1s-18.1,82.7 -47.3,111.1c-29.2,28.4 -69.6,46 -114.1,46c-6.3,0 -12.5,-0.4 -18.7,-1c-6.2,-0.7 -12.4,-1.7 -18.4,-3.1l-0.6,-0.3c-26.8,-17.8 -48.7,-40.4 -63.8,-66.2c-14.5,-24.9 -22.6,-52.9 -22.6,-82.4c0,-33.1 10.2,-64.1 28.1,-91.2c18.6,-28 45.4,-51.8 77.9,-69l0.7,-0.2c2.9,-0.3 5.8,-0.5 8.7,-0.7c3,-0.1 5.9,-0.1 8.7,-0.1l0,0zm111.6,48.6c-28.5,-27.8 -68,-45 -111.5,-45c-2.9,0 -5.7,0.1 -8.5,0.2c-2.7,0.1 -5.4,0.4 -8.1,0.6c-31.8,16.9 -58,40.2 -76.2,67.6c-17.6,26.5 -27.5,56.9 -27.5,89.2c0,28.8 7.9,56.2 22.1,80.6c14.7,25.3 36.1,47.4 62.3,64.8c5.8,1.3 11.6,2.3 17.6,3s12.1,1 18.3,1c43.6,0 83,-17.2 111.5,-45s46.2,-66.2 46.2,-108.6c-0.1,-42.3 -17.7,-80.6 -46.2,-108.4" class="st2" id="path20"/>
  <path d="m216.5,8.9c9.9,0 19.6,0.9 29.1,2.6c9.7,1.7 19,4.3 28,7.6l0.5,0.3c21.7,17.6 39.2,38.7 51.1,62.2c11.5,22.7 17.9,47.5 17.9,73.6c0,35.7 -11.9,69.2 -32.7,97.8c-21.4,29.5 -52.3,53.8 -89.1,70.1l-0.7,0.2c-0.7,0 -1.4,0 -2.1,0c-1.1,0 -1.8,0 -2.1,0c-6.3,0 -12.5,-0.4 -18.7,-1c-6.2,-0.7 -12.4,-1.7 -18.4,-3.1l-0.6,-0.3c-26.8,-17.8 -48.7,-40.4 -63.8,-66.2c-14.5,-24.9 -22.6,-52.9 -22.6,-82.4c0,-33.1 10.2,-64.1 28.1,-91.2c18.6,-28 45.4,-51.8 77.9,-69l0.7,-0.2c2.9,-0.3 5.8,-0.5 8.7,-0.7c3.1,-0.3 6,-0.3 8.8,-0.3l0,0zm28.4,6.1c-9.2,-1.6 -18.7,-2.5 -28.4,-2.5c-2.9,0 -5.7,0.1 -8.5,0.2c-2.7,0.1 -5.4,0.4 -8.1,0.6c-31.8,16.9 -58,40.2 -76.2,67.6c-17.6,26.5 -27.5,56.9 -27.5,89.2c0,28.8 7.9,56.2 22.1,80.6c14.7,25.3 36.1,47.4 62.3,64.8c5.8,1.3 11.6,2.3 17.6,3s12.1,1 18.3,1c1,0 1.7,0 2.1,0c0.5,0 1.1,0 1.7,0c36.1,-16 66.3,-39.9 87.2,-68.8c20.3,-28 32,-60.7 32,-95.6c0,-25.5 -6.2,-49.9 -17.5,-72c-11.7,-23 -28.8,-43.6 -50,-60.8c-8.7,-3.2 -17.7,-5.7 -27.1,-7.3" class="st2" id="path22"/>
  <path d="m216.5,8.9c26.7,0 51.9,6.3 74.1,17.5c23.1,11.6 42.9,28.5 57.7,49l0.6,0.8l-0.4,1c-11.6,25.1 -32.7,43.9 -57.9,54.1c-25,10.1 -53.9,11.6 -81.4,2.1c-23.1,-7.9 -41.6,-22.3 -54.3,-40.1c-13,-18.3 -19.6,-40.3 -18.4,-62.8l0.1,-1l0.9,-0.5c11.9,-6.5 24.7,-11.6 38.1,-15c13.1,-3.4 26.8,-5.1 40.9,-5.1l0,0zm72.5,20.7c-21.7,-10.9 -46.3,-17.1 -72.5,-17.1c-13.8,0 -27.2,1.7 -40,5s-25,8.1 -36.4,14.2c-0.9,21.3 5.5,42.1 17.8,59.5c12.2,17.2 30.1,31.1 52.4,38.8c26.7,9.1 54.7,7.7 78.9,-2.1c24,-9.7 44.2,-27.5 55.5,-51.3c-14.4,-19.6 -33.5,-35.8 -55.7,-47" class="st2" id="path24"/>
  <path d="m187.4,197c-0.9,-0.3 -1.8,-0.6 -2.9,-0.9c-1,-0.3 -2,-0.7 -2.8,-1c-31.1,-10.9 -55.4,-30.3 -70.5,-53.8c-15.3,-23.8 -21.1,-51.9 -15,-79.7l0.4,-0.8c15.1,-16.3 33.5,-29.4 54.4,-38.5c20,-8.7 42.2,-13.5 65.5,-13.5c36,0 69.2,11.5 96,30.8c27.5,19.9 48.3,48.1 58.5,80.7l0,1.2c-0.2,0.6 -0.5,1.2 -0.7,1.7c-0.2,0.6 -0.5,1.2 -0.7,1.7c-10.9,25.4 -30.8,45.7 -55.5,59.5c-25.3,14 -55.6,21.2 -86.5,19.6l0.2,-3.6c30.2,1.5 59.8,-5.4 84.5,-19.1c24,-13.4 43.4,-33.1 54,-57.7c0.2,-0.6 0.5,-1.1 0.7,-1.7c0.2,-0.4 0.3,-0.8 0.4,-1.1c-10,-31.7 -30.2,-59 -56.9,-78.3c-26.2,-18.9 -58.7,-30.1 -93.9,-30.1c-22.8,0 -44.5,4.7 -64.1,13.2c-20.2,8.7 -38.1,21.5 -52.8,37.2c-5.7,26.7 -0.1,53.7 14.6,76.6c14.7,22.8 38.3,41.7 68.6,52.3c1,0.4 1.9,0.7 2.8,0.9c0.8,0.3 1.8,0.6 2.8,0.9l-1.1,3.5" class="st2" id="path26"/>
  <path d="m216.5,8.9c42.8,0 81.7,16.2 110.6,42.7c29.1,26.6 48,63.7 50.5,105l-0.1,0.7c-10.7,31.1 -31.6,57.9 -59,76.7c-26.7,18.3 -59.4,29.2 -94.9,29.2c-42.7,0 -81.5,-15.7 -110.4,-41.4c-29.1,-25.9 -48.1,-61.8 -50.9,-102l0.1,-0.7c10.4,-32.3 31.2,-60.2 58.6,-79.8c26.8,-19.1 59.8,-30.4 95.5,-30.4l0,0zm108.1,45.3c-28.2,-25.9 -66.3,-41.7 -108.1,-41.7c-34.9,0 -67.2,11.1 -93.3,29.8c-26.7,19.1 -47,46.2 -57.2,77.7c2.8,39 21.4,74 49.7,99.1s66.2,40.4 108,40.4c34.7,0 66.7,-10.6 92.8,-28.5c26.6,-18.3 47,-44.3 57.5,-74.6c-2.6,-40.2 -21.1,-76.2 -49.4,-102.2" class="st2" id="path28"/>
  <path d="m216.5,8.9c44.6,0 84.9,17.6 114.1,46s47.3,67.7 47.3,111.1c0,4.6 -0.2,9.2 -0.6,13.7c-0.4,4.6 -1,9.1 -1.8,13.5l-0.1,0.2c-10.2,32.7 -31,60.8 -58.5,80.7c-26.8,19.4 -60.1,30.8 -96,30.8c-44.6,0 -84.9,-17.6 -114.1,-46s-47.3,-67.7 -47.3,-111.1c0,-4.6 0.2,-9.2 0.6,-13.7c0.4,-4.6 1,-9.1 1.8,-13.5l0.1,-0.2c10.2,-32.7 31,-60.8 58.5,-80.7c26.8,-19.4 60.1,-30.8 96,-30.8l0,0zm111.6,48.6c-28.5,-27.8 -68,-45 -111.5,-45c-35.2,0 -67.6,11.2 -93.8,30.1c-27,19.4 -47.3,46.9 -57.2,78.7c-0.8,4.3 -1.4,8.7 -1.8,13.1c-0.4,4.4 -0.6,8.9 -0.6,13.4c0,42.4 17.7,80.8 46.2,108.6s68,45 111.6,45c35.2,0 67.6,-11.2 93.8,-30.1c26.8,-19.4 47.2,-46.9 57.1,-78.7c0.8,-4.3 1.4,-8.7 1.8,-13.1c0.4,-4.4 0.6,-8.9 0.6,-13.4c-0.1,-42.5 -17.7,-80.8 -46.2,-108.6" class="st2" id="path30"/>
  <path d="m194.6,301.3c0.9,-15.8 1.7,-30.9 2.7,-45.3c1,-14.4 2.1,-28.2 3.4,-41.5l3.6,0.4c-1.3,13.1 -2.4,26.9 -3.4,41.3c-1,14.5 -1.8,29.6 -2.7,45.3l-3.6,-0.2zm10.6,-122.3c6.1,-38.5 13.1,-70.8 20.5,-98c7.4,-27.3 15.3,-49.4 23.1,-67.5l3.4,1.4c-7.7,17.9 -15.5,39.9 -22.9,67s-14.4,59.4 -20.5,97.7l-3.6,-0.6" class="st2" id="path32"/>
  <path d="m243.5,11.1c38.4,6.3 72.3,25.8 96.4,53.6c23.7,27.4 38.1,62.7 38.1,101.4c0,4.6 -0.2,9.2 -0.6,13.7c-0.4,4.6 -1,9.1 -1.8,13.5l-0.1,0.2c-10.2,32.7 -31,60.8 -58.5,80.7c-26.8,19.4 -60.1,30.8 -96,30.8c-9.7,0 -19.2,-0.8 -28.5,-2.4c-9.5,-1.6 -18.6,-4.1 -27.5,-7.3l-1,-0.9c-7.5,-15 -13.4,-30.9 -17.3,-47.5c-3.8,-16.2 -5.8,-33 -5.8,-50.3c0,-37.8 9.7,-73.5 26.8,-104.7c17.7,-32.4 43.4,-60.1 74.5,-80.5l1.3,-0.3zm93.6,55.9c-23.4,-27 -56.2,-46 -93.5,-52.3c-30.3,20.1 -55.4,47.2 -72.7,78.8c-16.8,30.7 -26.3,65.8 -26.3,103c0,17 2,33.5 5.7,49.4c3.8,16.1 9.5,31.6 16.7,46.1c8.4,3 17.1,5.3 26.2,6.8c9,1.6 18.3,2.4 27.8,2.4c35.2,0 67.6,-11.2 93.8,-30.1c26.8,-19.4 47.2,-46.9 57.1,-78.7c0.8,-4.3 1.4,-8.7 1.8,-13.1c0.4,-4.4 0.6,-8.9 0.6,-13.4c-0.1,-37.6 -14,-72.1 -37.2,-98.9" class="st2" id="path34"/>
  <path d="m242.4,12.9c1.2,0.2 2.3,0.4 3.4,0.6c1.1,0.2 2.3,0.4 3.4,0.7l1.1,0.7c14.1,18.8 25.2,39.8 32.8,62.3c7.3,21.8 11.2,45 11.2,69.1c0,30.7 -6.4,60.1 -18,86.7c-11.4,26.2 -27.7,49.8 -47.9,69.8c-1.2,1.2 -1.9,-0.2 -3.1,0.9l-1.2,0.5c-0.6,0 -1.2,0 -1.9,0c-1,0 -1.6,0 -1.9,0c-9.7,0 -19.3,-1.5 -28.5,-3.1c-9.5,-1.6 -19.2,-4 -28,-7.1l-1.1,0.3c-1.1,-2.1 -1.8,-2.4 -2.8,-4.5c-6.1,-13.1 -10.8,-26.9 -14.2,-41.2c-3.8,-16.2 -5.8,-33 -5.8,-50.3c0,-37.8 9.7,-73.5 26.8,-104.7c17.7,-32.4 43.4,-60.1 74.5,-80.5l1.2,-0.2zm2.7,4.2c-0.9,-0.2 -1.8,-0.3 -2.6,-0.5c-30.3,20.1 -55.4,47.2 -72.7,78.8c-16.8,30.7 -26.3,65.8 -26.3,103c0,17 2,33.5 5.7,49.4c3.6,15.2 8.8,29.9 15.5,43.7c0.4,0.8 0.9,0.4 1.3,1.2c8.4,3 17.1,5.3 26.2,6.8c9,1.6 18.3,2.4 27.8,2.4c1,0 1.6,0 1.9,0c0.4,0 0.8,0 1.1,0c0.7,-0.6 1.2,-0.1 1.9,-0.7c20.3,-19.9 36.8,-43.5 48.1,-69.7c11.4,-26.2 17.7,-55 17.7,-85.3c0,-23.7 -3.9,-46.6 -11,-68c-7.4,-22 -18.2,-42.4 -31.8,-60.7c-1,-0.1 -1.9,-0.2 -2.8,-0.4" class="st2" id="path36"/>
  <path d="m216.5,8.9c16.2,0 31.8,2.3 46.5,6.6c15.3,4.5 29.6,11.1 42.5,19.5l0.9,0.6l-0.1,1.1c-0.2,2.4 -0.6,4.7 -1.2,7.1c-0.6,2.3 -1.4,4.7 -2.4,6.9c-5.9,13.1 -17.7,23 -32.1,28.4c-14.3,5.4 -31.1,6.4 -47.1,1.6c-2.9,-0.8 -5.6,-1.9 -8.2,-3c-12.3,-5.4 -21.7,-13.9 -27.2,-23.8c-5.5,-10 -7,-21.5 -3.6,-32.7c0.5,-1.8 1.2,-3.6 2,-5.3l0,0c0.3,-0.7 0.7,-1.4 1,-2s0.7,-1.3 1.1,-2l0.4,-0.8l0.9,-0.1c4.4,-0.7 8.8,-1.2 13.2,-1.6c4.5,-0.4 8.9,-0.5 13.4,-0.5l0,0zm45.5,10.1c-14.4,-4.2 -29.7,-6.5 -45.5,-6.5c-4.4,0 -8.8,0.2 -13.1,0.5c-4.1,0.3 -8.1,0.8 -12.1,1.4c-0.2,0.3 -0.4,0.7 -0.6,1.1c-0.3,0.7 -0.6,1.3 -0.9,1.9l0,0c-0.7,1.6 -1.3,3.2 -1.8,4.9c-3.1,10.3 -1.7,20.8 3.3,30c5.1,9.3 13.8,17.2 25.4,22.2c2.5,1.1 5.1,2 7.8,2.8c15.2,4.5 31.2,3.6 44.7,-1.6c13.5,-5.1 24.6,-14.3 30,-26.5c1,-2.1 1.7,-4.3 2.3,-6.4c0.5,-1.8 0.8,-3.6 1,-5.5c-12.3,-7.8 -26,-14.1 -40.5,-18.3" class="st2" id="path38"/>
  <path d="m232.1,216.7l-30.6,6.3l-24.2,-19l2,-19.8l24.9,17.3l30.7,-5.4l-2.8,20.6zm-51.6,-37.3l1.2,-11.3l28.6,-5.4l27.3,14.5l-2,13.5l-31.1,4.7l-24,-16" class="st3" id="path40"/>
 </g>
</svg>