<svg id="Layer_1" data-name="Layer 1" xmlns="http://www.w3.org/2000/svg" xmlns:xlink="http://www.w3.org/1999/xlink" viewBox="0 0 333.15 107.13"><defs><style>.cls-1,.cls-2,.cls-4,.cls-5{fill:none;}.cls-1{clip-rule:evenodd;}.cls-2{fill-rule:evenodd;}.cls-3{clip-path:url(#clip-path);}.cls-4,.cls-5{stroke:#000;stroke-linejoin:round;}.cls-5{stroke-linecap:round;stroke-width:1.5px;stroke-dasharray:0 3;}</style><clipPath id="clip-path" transform="translate(-108.53 -123.36)"><polyline class="cls-1" points="0 0 720 0 720 540 0 540"/></clipPath></defs><g class="cls-3"><line class="cls-4" x1="89.69" y1="25.38" x2="323.69" y2="24.46"/></g><g class="cls-3"><line class="cls-4" x1="89.8" y1="50.99" x2="323.81" y2="50.06"/></g><g class="cls-3"><line class="cls-4" x1="89.87" y1="76.43" x2="323.87" y2="75.49"/></g><g class="cls-3"><path d="M395.08,131.07h4.14a3.61,3.61,0,0,0-.2-1.21,2.14,2.14,0,0,0-.73-.87,1.88,1.88,0,0,0-1-.3,2,2,0,0,0-1.45.63A2.68,2.68,0,0,0,395.08,131.07Zm0,.57a4.52,4.52,0,0,0,1,3.13,3,3,0,0,0,2.3,1.14,2.59,2.59,0,0,0,1.53-.49,3.53,3.53,0,0,0,1.09-1.66l.3.2a4.74,4.74,0,0,1-1.19,2.44,3.21,3.21,0,0,1-2.48,1.1,3.64,3.64,0,0,1-2.76-1.25,4.86,4.86,0,0,1-1.16-3.38,5.15,5.15,0,0,1,1.19-3.59,3.81,3.81,0,0,1,3-1.29,3.29,3.29,0,0,1,2.47,1,3.59,3.59,0,0,1,1,2.65Zm-9-1.74c1-1.26,2-1.89,3-1.9a2.23,2.23,0,0,1,1.27.37,2.47,2.47,0,0,1,.84,1.21,5.68,5.68,0,0,1,.21,1.79v3.84a3.29,3.29,0,0,0,.13,1.15.86.86,0,0,0,.35.38,1.87,1.87,0,0,0,.89.13v.36h-4.43v-.35h.19a1.57,1.57,0,0,0,.88-.19,1,1,0,0,0,.34-.56,5.27,5.27,0,0,0,0-.92v-3.67a3.64,3.64,0,0,0-.32-1.78,1.14,1.14,0,0,0-1.07-.56,3.26,3.26,0,0,0-2.32,1.28v4.73a3.38,3.38,0,0,0,.11,1.12.9.9,0,0,0,.38.41,2.38,2.38,0,0,0,1,.14v.35h-4.43v-.36h.2a1.06,1.06,0,0,0,.92-.35,2.51,2.51,0,0,0,.24-1.32v-3.33a14.6,14.6,0,0,0-.07-2,.86.86,0,0,0-.22-.48.59.59,0,0,0-.41-.12,1.77,1.77,0,0,0-.65.14l-.15-.35,2.7-1.09h.42Zm-8.61-1.25a2,2,0,0,0-1.05.31,2.15,2.15,0,0,0-.84,1.07,5.15,5.15,0,0,0-.32,2,7,7,0,0,0,.78,3.38,2.34,2.34,0,0,0,2.05,1.42,1.9,1.9,0,0,0,1.56-.79,4.39,4.39,0,0,0,.62-2.7,6.16,6.16,0,0,0-1-3.75A2.1,2.1,0,0,0,377.49,128.65Zm.3-.65a4,4,0,0,1,3.27,1.55,4.78,4.78,0,0,1,1.05,3,5.84,5.84,0,0,1-.58,2.44,4.15,4.15,0,0,1-1.59,1.85,4.26,4.26,0,0,1-2.25.63,3.78,3.78,0,0,1-3.22-1.62,4.93,4.93,0,0,1-1-3,5.38,5.38,0,0,1,.61-2.45,4.11,4.11,0,0,1,3.72-2.39Zm-5.47,6.49-.1,2.75h-7.91v-.36l5.94-7.92h-2.93a4.06,4.06,0,0,0-1.25.12,1,1,0,0,0-.47.47,2.87,2.87,0,0,0-.31,1.21h-.38l0-2.49h7.51v.35l-6,8h3.27a3.85,3.85,0,0,0,1.39-.17,1.19,1.19,0,0,0,.59-.6,4.21,4.21,0,0,0,.26-1.32Zm-16.43-5.78v-.4a3.42,3.42,0,0,0,1.23-.94,1.64,1.64,0,0,0,.37-1.07.76.76,0,0,0-.09-.48.32.32,0,0,0-.22-.13,1.73,1.73,0,0,0-.34.08,1.34,1.34,0,0,1-.39.09,1,1,0,0,1-1-1,1.05,1.05,0,0,1,.36-.8,1.24,1.24,0,0,1,.89-.35,1.59,1.59,0,0,1,1.2.57,2,2,0,0,1,.53,1.4,3,3,0,0,1-.66,1.83A3.57,3.57,0,0,1,355.89,128.71Zm-4.67,0v-.41a3.78,3.78,0,0,0,1.3-1,1.79,1.79,0,0,0,.31-1.06.66.66,0,0,0-.1-.4.28.28,0,0,0-.23-.14,1.2,1.2,0,0,0-.32.08,1.05,1.05,0,0,1-.43.07.94.94,0,0,1-.7-.29,1,1,0,0,1-.29-.71,1.07,1.07,0,0,1,.37-.82,1.27,1.27,0,0,1,.91-.35,1.56,1.56,0,0,1,1.18.56,2,2,0,0,1,.52,1.39,3,3,0,0,1-.66,1.89A3.5,3.5,0,0,1,351.22,128.72Zm-8.85-3.44,3.23-1.57h.32v11.21a5.84,5.84,0,0,0,.08,1.39.8.8,0,0,0,.39.42,3.71,3.71,0,0,0,1.2.17v.36h-5v-.35a3.67,3.67,0,0,0,1.21-.16.86.86,0,0,0,.39-.39,5.86,5.86,0,0,0,.1-1.43v-7.16a10.29,10.29,0,0,0-.09-1.86.78.78,0,0,0-.25-.46.65.65,0,0,0-.44-.15,2.44,2.44,0,0,0-1,.31ZM334,135.87V131H329.1v-.8H334v-4.87h.78v4.86h4.89V131h-4.9v4.88Zm-21.07-4.06h10.55v.81H312.91Zm0-3.19h10.56v.79l-10.56,0Zm-6.77-.59v3.06h-.32a4,4,0,0,0-1-2,2.17,2.17,0,0,0-1.48-.52,1.67,1.67,0,0,0-1.11.37,1,1,0,0,0-.42.8,1.45,1.45,0,0,0,.32.93,3.5,3.5,0,0,0,1.23.86l1.43.69c1.33.65,2,1.5,2,2.55a2.42,2.42,0,0,1-.93,2,3.16,3.16,0,0,1-2.06.74,6.85,6.85,0,0,1-1.88-.28,1.83,1.83,0,0,0-.54-.1.37.37,0,0,0-.34.25h-.33v-3.19H301a3.68,3.68,0,0,0,1,2.06,2.56,2.56,0,0,0,1.73.69,1.56,1.56,0,0,0,1.11-.4,1.25,1.25,0,0,0,.42-.95,1.59,1.59,0,0,0-.47-1.14,8.65,8.65,0,0,0-1.9-1.16,5.48,5.48,0,0,1-1.86-1.27,2.22,2.22,0,0,1-.44-1.41,2.42,2.42,0,0,1,.76-1.84,2.62,2.62,0,0,1,2-.75,4.57,4.57,0,0,1,1.28.23,3.39,3.39,0,0,0,.67.14.4.4,0,0,0,.24-.07,1.06,1.06,0,0,0,.21-.3Zm-7.81,0v3.05H298a3.83,3.83,0,0,0-.94-2,2.2,2.2,0,0,0-1.49-.53,1.66,1.66,0,0,0-1.1.37,1.1,1.1,0,0,0-.43.81,1.44,1.44,0,0,0,.32.93,3.41,3.41,0,0,0,1.23.85l1.43.7c1.32.64,2,1.49,2,2.55a2.4,2.4,0,0,1-.93,2,3.16,3.16,0,0,1-2.06.74,7.31,7.31,0,0,1-1.88-.29,1.83,1.83,0,0,0-.53-.1.38.38,0,0,0-.35.25h-.33V134.2h.32a3.59,3.59,0,0,0,1.05,2.06A2.47,2.47,0,0,0,296,137a1.59,1.59,0,0,0,1.1-.39,1.27,1.27,0,0,0,.42-1,1.49,1.49,0,0,0-.48-1.13,7.93,7.93,0,0,0-1.89-1.16,5.66,5.66,0,0,1-1.86-1.27,2.19,2.19,0,0,1-.43-1.42,2.44,2.44,0,0,1,.75-1.85,2.69,2.69,0,0,1,2-.74,5,5,0,0,1,1.28.22,4.31,4.31,0,0,0,.67.16.43.43,0,0,0,.24-.08.82.82,0,0,0,.21-.3Zm-9.6,7.3v-3.41c-1,.39-1.62.67-1.91.82a3.19,3.19,0,0,0-1.1.91,1.69,1.69,0,0,0-.33,1,1.63,1.63,0,0,0,.41,1.17,1.32,1.32,0,0,0,1,.46A3.53,3.53,0,0,0,288.72,135.34Zm0,.64a13.84,13.84,0,0,1-1.73,1.23,2.86,2.86,0,0,1-1.12.25,2,2,0,0,1-1.54-.64,2.34,2.34,0,0,1-.6-1.67A2,2,0,0,1,284,134a3.79,3.79,0,0,1,1.4-1.25,19.32,19.32,0,0,1,3.3-1.43V131a2.93,2.93,0,0,0-.43-1.84,1.55,1.55,0,0,0-1.24-.5,1.42,1.42,0,0,0-1,.33,1,1,0,0,0-.37.77l0,.57a.93.93,0,0,1-.23.69.75.75,0,0,1-.6.24.72.72,0,0,1-.59-.25,1.06,1.06,0,0,1-.24-.69,2,2,0,0,1,.87-1.55,3.71,3.71,0,0,1,2.42-.71,4.35,4.35,0,0,1,2,.41,1.85,1.85,0,0,1,.84.94,5.46,5.46,0,0,1,.19,1.72v3a11.5,11.5,0,0,0,.06,1.57.72.72,0,0,0,.15.39.52.52,0,0,0,.26.1.67.67,0,0,0,.27-.07,5.77,5.77,0,0,0,.8-.72V136c-.73,1-1.43,1.46-2.09,1.47a.94.94,0,0,1-.76-.34A1.78,1.78,0,0,1,288.73,136Zm-7.52-12.62v11.89a3,3,0,0,0,.13,1.11.85.85,0,0,0,.37.42,2,2,0,0,0,1,.14v.36h-4.39v-.34a2.13,2.13,0,0,0,.84-.13.9.9,0,0,0,.35-.43,3.34,3.34,0,0,0,.13-1.12v-8.14a17.83,17.83,0,0,0-.07-1.87.86.86,0,0,0-.23-.47.58.58,0,0,0-.38-.13,1.7,1.7,0,0,0-.64.16l-.17-.34,2.67-1.1Zm-5,.34.31,4.51h-.31a5.66,5.66,0,0,0-1.73-2.91,4.22,4.22,0,0,0-2.7-.89,4.4,4.4,0,0,0-2.39.67,4.45,4.45,0,0,0-1.67,2.14,9.5,9.5,0,0,0-.61,3.65,7.57,7.57,0,0,0,.58,3.13,4.34,4.34,0,0,0,1.73,2,5.12,5.12,0,0,0,2.65.7,4.66,4.66,0,0,0,2.28-.55,7.49,7.49,0,0,0,2.17-2.2l.31.2a7,7,0,0,1-2.33,2.59,6.53,6.53,0,0,1-8.27-1.63,6.92,6.92,0,0,1-1.36-4.28,7.91,7.91,0,0,1,.89-3.65,6.47,6.47,0,0,1,8.7-2.79,1.47,1.47,0,0,0,.59.21.65.65,0,0,0,.46-.18,1.61,1.61,0,0,0,.37-.74Zm-19,1.68v2.94h2.1V129h-2.09v5.81a1.92,1.92,0,0,0,.24,1.17.77.77,0,0,0,.64.3,1.07,1.07,0,0,0,.63-.2,1.22,1.22,0,0,0,.47-.59h.38a3.1,3.1,0,0,1-1,1.44,2.09,2.09,0,0,1-1.29.49,1.82,1.82,0,0,1-.89-.25,1.58,1.58,0,0,1-.64-.71,3.94,3.94,0,0,1-.2-1.44v-6h-1.41v-.33a3.57,3.57,0,0,0,1.1-.72,6.1,6.1,0,0,0,1-1.23,10.57,10.57,0,0,0,.63-1.36Zm-3.87,8.5a4.93,4.93,0,0,1-1.41,2.73,3.39,3.39,0,0,1-5-.33,5,5,0,0,1-1.13-3.46,4.78,4.78,0,0,1,1.25-3.44,4,4,0,0,1,3-1.32,3.32,3.32,0,0,1,2.16.7,2,2,0,0,1,.86,1.45.86.86,0,0,1-.24.61,1,1,0,0,1-.67.22,1.07,1.07,0,0,1-.88-.37,1.49,1.49,0,0,1-.21-.78,1.3,1.3,0,0,0-.4-.88,1.41,1.41,0,0,0-.95-.3,1.91,1.91,0,0,0-1.57.73,3.81,3.81,0,0,0-.8,2.54,5.2,5.2,0,0,0,.8,2.83,2.41,2.41,0,0,0,2.12,1.22,2.55,2.55,0,0,0,1.72-.65,4.36,4.36,0,0,0,1.05-1.64Zm-10-5.82v7.2a2.84,2.84,0,0,0,.12,1.12.79.79,0,0,0,.36.42,2.08,2.08,0,0,0,.87.14v.35h-4.35v-.36a1.78,1.78,0,0,0,.87-.12.81.81,0,0,0,.37-.42,3.16,3.16,0,0,0,.12-1.12v-3.46a11.93,11.93,0,0,0-.09-1.89.79.79,0,0,0-.22-.43.55.55,0,0,0-.4-.12,1.54,1.54,0,0,0-.66.15l-.14-.36,2.7-1.09Zm-.81-4.68a.91.91,0,0,1,.69.29.94.94,0,0,1,.3.69,1,1,0,0,1-.29.71.91.91,0,0,1-.71.29.94.94,0,0,1-.7-.29,1,1,0,0,1-.29-.71.93.93,0,0,1,.29-.7A1,1,0,0,1,242.49,123.38Zm-6,12.22V131a3,3,0,0,0-.35-1.21,2,2,0,0,0-.79-.83,1.92,1.92,0,0,0-.94-.28,2.06,2.06,0,0,0-1.54.78,4.39,4.39,0,0,0-.88,3,4.61,4.61,0,0,0,.86,3,2.44,2.44,0,0,0,1.92,1.06A2.35,2.35,0,0,0,236.46,135.6Zm0,.68a4.69,4.69,0,0,1-1.29,1,3.1,3.1,0,0,1-1.35.3,3.33,3.33,0,0,1-2.56-1.23,4.45,4.45,0,0,1-1.1-3.15,5.74,5.74,0,0,1,1.21-3.53,3.75,3.75,0,0,1,3.12-1.61,2.7,2.7,0,0,1,2,.76v-1.65a14.56,14.56,0,0,0-.08-1.89.78.78,0,0,0-.23-.49.6.6,0,0,0-.38-.12,2.48,2.48,0,0,0-.68.15l-.12-.34,2.66-1.09h.44v10.36a13.86,13.86,0,0,0,.07,1.92.83.83,0,0,0,.24.49.6.6,0,0,0,.37.14,2.61,2.61,0,0,0,.71-.18l.1.35-2.66,1.11h-.45Zm-13.72-5.14h4.15a3.89,3.89,0,0,0-.2-1.21,1.87,1.87,0,0,0-.73-.86,1.83,1.83,0,0,0-1-.32,2.08,2.08,0,0,0-1.45.63A2.8,2.8,0,0,0,222.75,131.14Zm0,.58a4.57,4.57,0,0,0,1,3.12A3,3,0,0,0,226,136a2.42,2.42,0,0,0,1.54-.48,3.72,3.72,0,0,0,1.09-1.66l.31.2a4.7,4.7,0,0,1-1.21,2.44,3.16,3.16,0,0,1-2.47,1.1,3.59,3.59,0,0,1-2.76-1.26,4.79,4.79,0,0,1-1.15-3.37,5,5,0,0,1,1.18-3.59,3.82,3.82,0,0,1,2.95-1.29,3.32,3.32,0,0,1,2.48,1,3.63,3.63,0,0,1,1,2.66Zm-5.61-3.65v2c.75-1.35,1.52-2,2.31-2a1.26,1.26,0,0,1,.89.33,1,1,0,0,1,.35.75.84.84,0,0,1-.25.65.8.8,0,0,1-.61.27,1.32,1.32,0,0,1-.77-.34,1.44,1.44,0,0,0-.63-.34.59.59,0,0,0-.38.2,4.86,4.86,0,0,0-.91,1.32v4.3a2.71,2.71,0,0,0,.18,1.12,1,1,0,0,0,.45.44,1.84,1.84,0,0,0,.93.17v.36h-4.59V137a1.88,1.88,0,0,0,1-.22.81.81,0,0,0,.34-.5,5,5,0,0,0,0-.94v-3.48a12.47,12.47,0,0,0-.07-1.86.74.74,0,0,0-.23-.44.67.67,0,0,0-.43-.14,1.71,1.71,0,0,0-.68.16l-.1-.36,2.71-1.09Zm-10.3,2.46c.35.07.66.12.92.15a6.56,6.56,0,0,0,.69,0,2.38,2.38,0,0,0,1.76-.79,2.93,2.93,0,0,0,.73-2,3.71,3.71,0,0,0-.35-1.6,2.51,2.51,0,0,0-1-1.11,3,3,0,0,0-1.48-.36,6,6,0,0,0-1.28.18Zm0,.56V135a2.7,2.7,0,0,0,.28,1.55,1.4,1.4,0,0,0,1.13.43h.5v.36h-5.69v-.36h.5a1.36,1.36,0,0,0,1.21-.56A3.08,3.08,0,0,0,205,135v-8.58a2.72,2.72,0,0,0-.27-1.55,1.4,1.4,0,0,0-1.13-.43h-.5V124h4.85a8.19,8.19,0,0,1,2.81.37,3.82,3.82,0,0,1,1.74,1.23,3.11,3.11,0,0,1,.7,2.07,3.47,3.47,0,0,1-1.07,2.64,4.18,4.18,0,0,1-3,1,9.43,9.43,0,0,1-1-.06Q207.5,131.23,206.85,131.09Zm-5.13-7.33v.37a4.06,4.06,0,0,0-1.31,1,1.83,1.83,0,0,0-.31,1,.74.74,0,0,0,.11.41.31.31,0,0,0,.23.14,1.12,1.12,0,0,0,.32-.08,1.31,1.31,0,0,1,.43-.08,1,1,0,0,1,1,1,1.1,1.1,0,0,1-.38.83,1.36,1.36,0,0,1-.93.36,1.58,1.58,0,0,1-1.16-.56,1.94,1.94,0,0,1-.51-1.39,2.91,2.91,0,0,1,.65-1.88A3.6,3.6,0,0,1,201.72,123.76Zm-4.67,0v.41a3.78,3.78,0,0,0-1.23.93,1.69,1.69,0,0,0-.38,1.07.93.93,0,0,0,.1.47.24.24,0,0,0,.21.14,1.07,1.07,0,0,0,.35-.07,1,1,0,0,1,.4-.07.91.91,0,0,1,.69.3,1,1,0,0,1,.3.73,1.07,1.07,0,0,1-.36.8,1.24,1.24,0,0,1-.9.33,1.61,1.61,0,0,1-1.19-.56,2,2,0,0,1-.52-1.4,2.88,2.88,0,0,1,.65-1.82A3.74,3.74,0,0,1,197.05,123.73Z" transform="translate(-108.53 -123.36)"/></g><g class="cls-3"><path d="M334.94,224.72h10.55v.8H334.94Zm0-3.19h10.55v.81H334.93Zm-6.79-.59V224h-.33a4,4,0,0,0-.94-2,2.14,2.14,0,0,0-1.49-.51,1.55,1.55,0,0,0-1.1.35,1.11,1.11,0,0,0-.43.81,1.47,1.47,0,0,0,.32.94,3.29,3.29,0,0,0,1.23.84l1.43.7c1.32.65,2,1.5,2,2.56a2.43,2.43,0,0,1-.92,2,3.22,3.22,0,0,1-2.07.75,7.36,7.36,0,0,1-1.88-.3,2.15,2.15,0,0,0-.53-.09.38.38,0,0,0-.35.26h-.33v-3.2h.32a3.56,3.56,0,0,0,1.06,2.06,2.49,2.49,0,0,0,1.73.7,1.59,1.59,0,0,0,1.1-.39,1.33,1.33,0,0,0,.42-1,1.52,1.52,0,0,0-.48-1.13,8.52,8.52,0,0,0-1.89-1.16,5.51,5.51,0,0,1-1.86-1.27,2.16,2.16,0,0,1-.43-1.41,2.43,2.43,0,0,1,.75-1.85,2.65,2.65,0,0,1,2-.74,4.34,4.34,0,0,1,1.29.22,2.93,2.93,0,0,0,.66.15.43.43,0,0,0,.24-.07,1,1,0,0,0,.21-.31Zm-7.8,0V224H320a3.91,3.91,0,0,0-1-2,2.11,2.11,0,0,0-1.47-.51,1.6,1.6,0,0,0-1.11.36,1,1,0,0,0-.42.8,1.39,1.39,0,0,0,.31.94,3.5,3.5,0,0,0,1.23.85l1.43.69a2.94,2.94,0,0,1,2,2.55,2.42,2.42,0,0,1-.93,2,3.12,3.12,0,0,1-2.07.74,6.91,6.91,0,0,1-1.88-.28,1.67,1.67,0,0,0-.52-.1.4.4,0,0,0-.36.25H315v-3.19h.33a3.59,3.59,0,0,0,1.05,2.07,2.56,2.56,0,0,0,1.73.7,1.46,1.46,0,0,0,1.09-.41,1.2,1.2,0,0,0,.43-.95,1.59,1.59,0,0,0-.47-1.14,8.77,8.77,0,0,0-1.89-1.16,5.44,5.44,0,0,1-1.87-1.27,2.2,2.2,0,0,1-.44-1.41,2.53,2.53,0,0,1,.76-1.85,2.74,2.74,0,0,1,2-.75,4.69,4.69,0,0,1,1.28.24,3.26,3.26,0,0,0,.67.14.34.34,0,0,0,.24-.07,1.06,1.06,0,0,0,.21-.3Zm-9.59,7.31v-3.42a19,19,0,0,0-1.91.84,3.32,3.32,0,0,0-1.11.9,1.8,1.8,0,0,0-.33,1,1.7,1.7,0,0,0,.42,1.17,1.28,1.28,0,0,0,1,.46A3.5,3.5,0,0,0,310.76,228.25Zm0,.63a13.41,13.41,0,0,1-1.74,1.24,2.63,2.63,0,0,1-1.12.25,2.1,2.1,0,0,1-1.53-.64,2.33,2.33,0,0,1-.6-1.67,2.22,2.22,0,0,1,.29-1.14,3.84,3.84,0,0,1,1.39-1.25,22,22,0,0,1,3.3-1.43v-.35a2.86,2.86,0,0,0-.43-1.84,1.55,1.55,0,0,0-1.23-.5,1.37,1.37,0,0,0-1,.34,1,1,0,0,0-.37.75l0,.57a1,1,0,0,1-.24.7.82.82,0,0,1-1.19,0,1,1,0,0,1-.23-.7,2,2,0,0,1,.86-1.55,3.78,3.78,0,0,1,2.41-.7,4.11,4.11,0,0,1,2,.4,1.79,1.79,0,0,1,.85,1,4.64,4.64,0,0,1,.18,1.71v3a13.16,13.16,0,0,0,0,1.58.61.61,0,0,0,.17.38.3.3,0,0,0,.25.1.51.51,0,0,0,.28-.07,7,7,0,0,0,.79-.71v.55q-1.1,1.47-2.1,1.47a1,1,0,0,1-.76-.34A1.82,1.82,0,0,1,310.76,228.88Zm-7.52-12.61v11.89a3.39,3.39,0,0,0,.11,1.11.93.93,0,0,0,.39.42,2.17,2.17,0,0,0,.94.14v.35h-4.4v-.35a1.81,1.81,0,0,0,.84-.13.82.82,0,0,0,.35-.42,2.93,2.93,0,0,0,.12-1.12V220a14.92,14.92,0,0,0-.07-1.86.83.83,0,0,0-.22-.48.58.58,0,0,0-.39-.13,1.65,1.65,0,0,0-.64.16l-.18-.34,2.68-1.11Zm-5,.35.31,4.5h-.3a5.8,5.8,0,0,0-1.73-2.92,4.25,4.25,0,0,0-2.7-.88,4.35,4.35,0,0,0-2.39.67,4.47,4.47,0,0,0-1.68,2.14,9.61,9.61,0,0,0-.62,3.65,7.82,7.82,0,0,0,.59,3.12,4.21,4.21,0,0,0,1.74,2,4.94,4.94,0,0,0,2.64.71,4.76,4.76,0,0,0,2.29-.56,7.48,7.48,0,0,0,2.16-2.2l.3.2a7.09,7.09,0,0,1-2.32,2.6,5.88,5.88,0,0,1-3.16.82,6,6,0,0,1-5.11-2.44,7,7,0,0,1-1.35-4.29,7.66,7.66,0,0,1,.88-3.65,6.51,6.51,0,0,1,2.46-2.58,6.69,6.69,0,0,1,3.4-.92,6.29,6.29,0,0,1,2.85.71,1.8,1.8,0,0,0,.58.22.66.66,0,0,0,.46-.19,1.51,1.51,0,0,0,.36-.74Zm-19,1.66v2.95h2.09v.68h-2.09v5.82a2,2,0,0,0,.25,1.17.79.79,0,0,0,.65.3,1.12,1.12,0,0,0,.62-.19,1.36,1.36,0,0,0,.47-.6h.38a3.11,3.11,0,0,1-1,1.44,2,2,0,0,1-1.29.49,1.73,1.73,0,0,1-.88-.25,1.45,1.45,0,0,1-.63-.71,3.7,3.7,0,0,1-.21-1.44v-6h-1.42v-.32a3.93,3.93,0,0,0,1.1-.74,5.71,5.71,0,0,0,1-1.21,12.11,12.11,0,0,0,.63-1.36Zm-3.87,8.51a4.78,4.78,0,0,1-1.42,2.72,3.34,3.34,0,0,1-2.33,1,3.49,3.49,0,0,1-2.67-1.28,5,5,0,0,1-1.13-3.47,4.75,4.75,0,0,1,1.25-3.43,4,4,0,0,1,3-1.32,3.27,3.27,0,0,1,2.17.7,2,2,0,0,1,.86,1.45.78.78,0,0,1-.24.6,1,1,0,0,1-.68.23,1,1,0,0,1-.86-.37,1.61,1.61,0,0,1-.23-.79,1.23,1.23,0,0,0-.39-.87,1.4,1.4,0,0,0-1-.29,1.9,1.9,0,0,0-1.57.72,3.78,3.78,0,0,0-.79,2.53,5.11,5.11,0,0,0,.78,2.84,2.43,2.43,0,0,0,2.13,1.23,2.64,2.64,0,0,0,1.73-.67,4.56,4.56,0,0,0,1.05-1.63Zm-10-5.82v7.21a3.39,3.39,0,0,0,.11,1.11.94.94,0,0,0,.36.42,1.92,1.92,0,0,0,.89.13v.36h-4.36v-.35a1.79,1.79,0,0,0,.88-.14.8.8,0,0,0,.35-.41,2.89,2.89,0,0,0,.14-1.13v-3.45a10.85,10.85,0,0,0-.09-1.89.79.79,0,0,0-.2-.44.65.65,0,0,0-.41-.12,2,2,0,0,0-.67.15l-.13-.35,2.7-1.1Zm-.82-4.68a.94.94,0,0,1,.71.28,1,1,0,0,1,0,1.4.9.9,0,0,1-.69.3.92.92,0,0,1-.7-.3.89.89,0,0,1-.3-.7.94.94,0,0,1,.29-.7A.91.91,0,0,1,264.51,216.29Zm-6,12.22v-4.62a3.21,3.21,0,0,0-.35-1.21,2.19,2.19,0,0,0-.78-.84,1.94,1.94,0,0,0-.95-.27,2,2,0,0,0-1.53.77,4.42,4.42,0,0,0-.89,3,4.71,4.71,0,0,0,.86,3,2.49,2.49,0,0,0,1.92,1.05A2.43,2.43,0,0,0,258.49,228.51Zm0,.68a4.57,4.57,0,0,1-1.28,1,3.25,3.25,0,0,1-3.91-.93,4.57,4.57,0,0,1-1.1-3.16,5.72,5.72,0,0,1,1.21-3.53,3.76,3.76,0,0,1,3.13-1.59,2.64,2.64,0,0,1,1.95.74v-1.65a13.7,13.7,0,0,0-.07-1.89.83.83,0,0,0-.24-.47.58.58,0,0,0-.39-.13,1.68,1.68,0,0,0-.67.16l-.13-.35,2.67-1.09h.44v10.37a12.32,12.32,0,0,0,.07,1.92.9.9,0,0,0,.23.48.57.57,0,0,0,.38.14,2.1,2.1,0,0,0,.71-.16l.1.34-2.65,1.1h-.46Zm-13.7-5.14h4.15a3.77,3.77,0,0,0-.21-1.21A2.13,2.13,0,0,0,248,222a1.92,1.92,0,0,0-1-.31,2,2,0,0,0-1.46.64A2.67,2.67,0,0,0,244.79,224.05Zm0,.57a4.66,4.66,0,0,0,1,3.13,2.89,2.89,0,0,0,2.3,1.13,2.51,2.51,0,0,0,1.53-.48,3.57,3.57,0,0,0,1.08-1.66l.31.2a4.57,4.57,0,0,1-1.2,2.44,3.14,3.14,0,0,1-2.46,1.1,3.61,3.61,0,0,1-2.77-1.26,4.79,4.79,0,0,1-1.15-3.38,5.13,5.13,0,0,1,1.17-3.58,3.87,3.87,0,0,1,3-1.29,3.31,3.31,0,0,1,2.48,1,3.66,3.66,0,0,1,1,2.65Zm-5.6-3.64v2c.75-1.33,1.52-2,2.31-2a1.26,1.26,0,0,1,.89.33,1,1,0,0,1,.35.76.92.92,0,0,1-.25.64.86.86,0,0,1-.61.27,1.3,1.3,0,0,1-.76-.34,1.15,1.15,0,0,0-.64-.33.46.46,0,0,0-.37.19,4.64,4.64,0,0,0-.92,1.32v4.29a2.71,2.71,0,0,0,.19,1.13,1,1,0,0,0,.45.44,2.07,2.07,0,0,0,.93.18v.35h-4.59v-.35a1.93,1.93,0,0,0,1-.22.86.86,0,0,0,.34-.49,5.49,5.49,0,0,0,0-1v-3.48a16.47,16.47,0,0,0-.05-1.86.73.73,0,0,0-.25-.43.64.64,0,0,0-.42-.14,2,2,0,0,0-.69.15l-.09-.35,2.71-1.1Zm-10.29,2.46c.34.07.64.12.91.15a4.42,4.42,0,0,0,.69,0,2.28,2.28,0,0,0,1.75-.78,2.89,2.89,0,0,0,.74-2,3.6,3.6,0,0,0-.35-1.6,2.52,2.52,0,0,0-1-1.11,3,3,0,0,0-1.47-.36,5.39,5.39,0,0,0-1.28.18Zm0,.56v3.86a2.58,2.58,0,0,0,.27,1.56,1.41,1.41,0,0,0,1.13.43h.5v.36h-5.68v-.36h.5a1.33,1.33,0,0,0,1.2-.54,3.43,3.43,0,0,0,.2-1.44V219.3a2.77,2.77,0,0,0-.26-1.56,1.45,1.45,0,0,0-1.14-.43h-.5v-.36H230a8.65,8.65,0,0,1,2.8.37,3.84,3.84,0,0,1,1.74,1.24,3.22,3.22,0,0,1,.71,2.06,3.54,3.54,0,0,1-1.08,2.64,4.2,4.2,0,0,1-3,1,9.61,9.61,0,0,1-1-.06C229.7,224.16,229.31,224.09,228.89,224Zm-5.14-7.32V217a4,4,0,0,0-1.3,1,1.8,1.8,0,0,0-.32,1.06.67.67,0,0,0,.11.41.33.33,0,0,0,.22.14,1.17,1.17,0,0,0,.33-.08,1.09,1.09,0,0,1,.43-.08,1,1,0,0,1,.7.29.94.94,0,0,1,.3.71,1.11,1.11,0,0,1-.38.83,1.26,1.26,0,0,1-.92.35,1.55,1.55,0,0,1-1.16-.56,2,2,0,0,1-.53-1.39,3,3,0,0,1,.66-1.87A3.49,3.49,0,0,1,223.75,216.68Zm-4.67,0V217a3.57,3.57,0,0,0-1.23,1,1.63,1.63,0,0,0-.37,1.06.82.82,0,0,0,.1.48.23.23,0,0,0,.21.12,1,1,0,0,0,.34-.06,1.23,1.23,0,0,1,.39-.08.94.94,0,0,1,.7.3,1,1,0,0,1,.3.73,1,1,0,0,1-.36.8,1.21,1.21,0,0,1-.9.34,1.61,1.61,0,0,1-1.19-.56,2,2,0,0,1-.53-1.4,3,3,0,0,1,.65-1.83A3.85,3.85,0,0,1,219.08,216.65Z" transform="translate(-108.53 -123.36)"/></g><g class="cls-3"><polygon points="243.06 101.57 248.12 101.56 248.12 103.05 243.06 103.05 243.06 101.57"/></g><g class="cls-3"><path d="M412.42,224h4.15a3.91,3.91,0,0,0-.2-1.22,2.06,2.06,0,0,0-.73-.87,2,2,0,0,0-1-.31,2.1,2.1,0,0,0-1.46.64A2.73,2.73,0,0,0,412.42,224Zm0,.57a4.53,4.53,0,0,0,1,3.13,2.93,2.93,0,0,0,2.29,1.14,2.59,2.59,0,0,0,1.54-.49,3.66,3.66,0,0,0,1.09-1.66l.3.2a4.61,4.61,0,0,1-1.2,2.44,3.16,3.16,0,0,1-2.46,1.1,3.61,3.61,0,0,1-2.77-1.26,4.79,4.79,0,0,1-1.15-3.37,5,5,0,0,1,1.18-3.59,3.82,3.82,0,0,1,2.95-1.29,3.31,3.31,0,0,1,2.48,1,3.66,3.66,0,0,1,1,2.65Zm-9-1.74c1.05-1.26,2.05-1.89,3-1.9a2.15,2.15,0,0,1,1.25.37,2.51,2.51,0,0,1,.86,1.2,6.51,6.51,0,0,1,.21,1.81v3.82a3.51,3.51,0,0,0,.14,1.16.86.86,0,0,0,.35.38,1.75,1.75,0,0,0,.89.13v.36h-4.43v-.34h.18a1.51,1.51,0,0,0,.87-.19.91.91,0,0,0,.35-.56,5.27,5.27,0,0,0,0-.92v-3.68a3.74,3.74,0,0,0-.32-1.77,1.15,1.15,0,0,0-1.07-.56,3.28,3.28,0,0,0-2.32,1.28v4.73a3.83,3.83,0,0,0,.11,1.13,1,1,0,0,0,.38.41,2.68,2.68,0,0,0,1,.13v.35h-4.44v-.36h.2a1,1,0,0,0,.92-.35,2.51,2.51,0,0,0,.24-1.32v-3.33a13.87,13.87,0,0,0-.08-2,.83.83,0,0,0-.23-.48.58.58,0,0,0-.4-.12,2.11,2.11,0,0,0-.66.14l-.14-.35,2.7-1.1h.42Zm-8.62-1.25a1.89,1.89,0,0,0-1,.31,2,2,0,0,0-.85,1.07,5.35,5.35,0,0,0-.32,2,7,7,0,0,0,.78,3.38,2.34,2.34,0,0,0,2,1.42,2,2,0,0,0,1.57-.79,4.45,4.45,0,0,0,.62-2.69,6.07,6.07,0,0,0-1-3.75A2.09,2.09,0,0,0,394.83,221.56Zm.31-.64a4,4,0,0,1,3.27,1.54,4.74,4.74,0,0,1,1,3,5.47,5.47,0,0,1-.57,2.44,4.08,4.08,0,0,1-3.84,2.49,3.8,3.8,0,0,1-3.22-1.62,5,5,0,0,1-1-3.05,5.51,5.51,0,0,1,.61-2.45,4.19,4.19,0,0,1,1.61-1.8A4.09,4.09,0,0,1,395.14,220.92Zm-5.48,6.48-.1,2.75h-7.91v-.36l5.94-7.92h-2.93a3.4,3.4,0,0,0-1.24.12.89.89,0,0,0-.48.46,2.7,2.7,0,0,0-.31,1.21h-.39l.06-2.49h7.51v.36l-6,7.94h3.26a3.87,3.87,0,0,0,1.4-.17,1.27,1.27,0,0,0,.59-.6,4.7,4.7,0,0,0,.27-1.32Zm-16.29-5.77v-.42a3.4,3.4,0,0,0,1.23-.92,1.72,1.72,0,0,0,.38-1.08.8.8,0,0,0-.1-.47c-.07-.09-.13-.14-.21-.13a.86.86,0,0,0-.34.08,1.87,1.87,0,0,1-.4.08,1,1,0,0,1-.7-.31,1,1,0,0,1-.3-.72,1.13,1.13,0,0,1,.36-.82,1.31,1.31,0,0,1,.9-.34,1.61,1.61,0,0,1,1.19.57,2,2,0,0,1,.53,1.41,3,3,0,0,1-.65,1.83A3.94,3.94,0,0,1,373.37,221.63Zm-4.67,0v-.41a4.12,4.12,0,0,0,1.3-1,1.87,1.87,0,0,0,.3-1.05.73.73,0,0,0-.1-.42.27.27,0,0,0-.23-.13,1.07,1.07,0,0,0-.31.08,1.35,1.35,0,0,1-.44.07.91.91,0,0,1-.7-.29,1,1,0,0,1-.3-.71,1.08,1.08,0,0,1,.38-.82,1.28,1.28,0,0,1,.92-.36,1.55,1.55,0,0,1,1.17.56,2,2,0,0,1,.52,1.41,3,3,0,0,1-.66,1.88A3.55,3.55,0,0,1,368.7,221.63Zm-8.86-3.44,3.22-1.58h.33v11.21a5.92,5.92,0,0,0,.1,1.39.74.74,0,0,0,.38.42,3.27,3.27,0,0,0,1.2.16v.37h-5v-.36a3.14,3.14,0,0,0,1.22-.17.74.74,0,0,0,.38-.38,5.16,5.16,0,0,0,.11-1.43v-7.16a11.19,11.19,0,0,0-.1-1.87.89.89,0,0,0-.25-.46.72.72,0,0,0-.44-.14,2.56,2.56,0,0,0-1,.31Z" transform="translate(-108.53 -123.36)"/></g><g class="cls-3"><path d="M134.72,152.45l1-1.3a2.41,2.41,0,0,0,.27-.41,1,1,0,0,0,.1-.4A.41.41,0,0,0,136,150a.92.92,0,0,0-.41-.16v-.38h2.56v.38a1.53,1.53,0,0,0-.6.34,4.62,4.62,0,0,0-.75.8l-1.61,2,1.79,2.38a4.33,4.33,0,0,0,.69.78,2.08,2.08,0,0,0,.61.39v.38l-3.13,0v-.38c.43-.06.64-.22.64-.49a.66.66,0,0,0-.06-.31,1,1,0,0,0-.2-.34l-1.14-1.57-1.19,1.56a1.78,1.78,0,0,0-.2.32.66.66,0,0,0-.08.32.45.45,0,0,0,.15.35.72.72,0,0,0,.46.16v.38l-2.61,0v-.38a2.14,2.14,0,0,0,.45-.24,2.36,2.36,0,0,0,.43-.37c.14-.15.33-.36.56-.64l1.6-2L132.25,151a7,7,0,0,0-.55-.68,2.48,2.48,0,0,0-.38-.32,1.26,1.26,0,0,0-.34-.15v-.38l3.05,0v.38c-.4.07-.61.23-.61.49a.8.8,0,0,0,.09.36,1.7,1.7,0,0,0,.25.4Zm-10.21-1.28-2,5.87h-1.08l-1.9-5.77a5.63,5.63,0,0,0-.3-.79,1.27,1.27,0,0,0-.26-.35,1.24,1.24,0,0,0-.44-.18v-.38l3.07,0v.38a1.42,1.42,0,0,0-.62.25.65.65,0,0,0-.15.46,1.65,1.65,0,0,0,0,.44c0,.15.08.33.14.53l1.24,4,2-6h1.09l1.73,6,1.36-3.81c.07-.19.13-.39.18-.57a2.2,2.2,0,0,0,.06-.5.67.67,0,0,0-.18-.5,1.12,1.12,0,0,0-.59-.27v-.38h2.72v.38a1.36,1.36,0,0,0-.33.12,1.3,1.3,0,0,0-.21.16,3.35,3.35,0,0,0-.23.36,6.39,6.39,0,0,0-.31.74L127.29,157h-1.05Z" transform="translate(-108.53 -123.36)"/></g><g class="cls-3"><polygon points="39.93 29.48 39.96 33.96 38.85 33.96 38.82 29.47 34.58 29.49 34.58 28.46 38.82 28.44 38.8 23.95 39.9 23.94 39.93 28.43 44.18 28.41 44.18 29.45 39.93 29.48"/></g><g class="cls-3"><path d="M160.27,154a7.62,7.62,0,0,0,.06,1,1.65,1.65,0,0,0,.19.58,1.35,1.35,0,0,0,.37.43,1.39,1.39,0,0,0,.56.27,3.45,3.45,0,0,0,.67.07,1.6,1.6,0,0,0,1.42-.78,4.35,4.35,0,0,0,.47-2.29,4.69,4.69,0,0,0-.45-2.31,1.43,1.43,0,0,0-1.33-.77,1.59,1.59,0,0,0-.76.14,2,2,0,0,0-.62.43,2.11,2.11,0,0,0-.44.56,1.36,1.36,0,0,0-.15.65Zm0-3.42h0a6.72,6.72,0,0,1,.9-.83,3,3,0,0,1,.75-.4,2.51,2.51,0,0,1,.84-.14,2.47,2.47,0,0,1,1.44.42,2.76,2.76,0,0,1,.92,1.27,6.19,6.19,0,0,1,.34,2.08,5.33,5.33,0,0,1-.39,2.15,2.66,2.66,0,0,1-1.12,1.32,3.3,3.3,0,0,1-1.78.46,5.52,5.52,0,0,1-1.09-.1,4.56,4.56,0,0,1-1.08-.36l-.54.48-.54-.13,0-8.47c0-.5,0-.85,0-1a2.86,2.86,0,0,0-.07-.5.84.84,0,0,0-.14-.33.63.63,0,0,0-.24-.18,2.45,2.45,0,0,0-.55-.14v-.41l1.89-.08h.46Z" transform="translate(-108.53 -123.36)"/></g><g class="cls-3"><path d="M171.92,154.34v-1l9.6-.05v1Zm0-3.24v-1l9.6,0v1Z" transform="translate(-108.53 -123.36)"/></g><g class="cls-3"><path d="M192.61,154.63a4.88,4.88,0,0,0,0,.68,1,1,0,0,0,.19.37,1,1,0,0,0,.36.23,3,3,0,0,0,.61.11,6.33,6.33,0,0,0,1,.06v.57l-5.75,0v-.57a9.91,9.91,0,0,0,1.23-.11,1.79,1.79,0,0,0,.56-.2.72.72,0,0,0,.28-.38,2.42,2.42,0,0,0,.09-.78l0-6.33a.78.78,0,0,0-.11-.45.37.37,0,0,0-.32-.15,1.82,1.82,0,0,0-.71.27c-.3.17-.68.41-1.14.71l-.33-.6,3.63-2.19h.42q0,.75,0,2.07Z" transform="translate(-108.53 -123.36)"/></g><g class="cls-3"><path d="M134.37,174.52l1-1.29a2.13,2.13,0,0,0,.26-.41.88.88,0,0,0,.1-.41.38.38,0,0,0-.13-.29.82.82,0,0,0-.42-.18v-.37l2.54,0v.38a2.06,2.06,0,0,0-.6.34,5.71,5.71,0,0,0-.75.81l-1.6,2,1.79,2.38a4.76,4.76,0,0,0,.69.78,1.86,1.86,0,0,0,.6.39V179h-3.13v-.38c.44,0,.65-.21.65-.49a1.07,1.07,0,0,0-.06-.3,1.25,1.25,0,0,0-.2-.34L134,175.93l-1.2,1.56a3.19,3.19,0,0,0-.2.32.56.56,0,0,0-.06.32.41.41,0,0,0,.14.34.72.72,0,0,0,.45.17V179h-2.6v-.38a2.84,2.84,0,0,0,.46-.24,2.32,2.32,0,0,0,.42-.37c.14-.14.33-.37.56-.65l1.62-2-1.67-2.27c-.24-.3-.42-.53-.55-.67a3.07,3.07,0,0,0-.38-.32,1.19,1.19,0,0,0-.35-.15v-.39h3.06V172c-.42.07-.62.23-.62.49a.81.81,0,0,0,.08.36,2.22,2.22,0,0,0,.26.4Zm-10.19-1.27-2,5.87h-1.08l-1.9-5.79a5.13,5.13,0,0,0-.31-.78,1.13,1.13,0,0,0-.25-.35,1.22,1.22,0,0,0-.45-.18v-.39h3.08V172a1.31,1.31,0,0,0-.61.25.57.57,0,0,0-.17.46,1.59,1.59,0,0,0,.06.43,2.88,2.88,0,0,0,.14.54l1.23,4,2-6H125l1.73,6,1.35-3.81c.07-.21.14-.4.18-.57a1.93,1.93,0,0,0,.06-.52.69.69,0,0,0-.17-.5,1.2,1.2,0,0,0-.6-.26v-.38h2.72V172a.89.89,0,0,0-.32.12.57.57,0,0,0-.22.17,1.62,1.62,0,0,0-.23.35,6.07,6.07,0,0,0-.32.74L127,179.09h-1.06Z" transform="translate(-108.53 -123.36)"/></g><g class="cls-3"><polygon points="39.59 51.55 39.61 56.04 38.51 56.05 38.49 51.55 34.24 51.57 34.23 50.53 38.48 50.52 38.46 46.03 39.57 46.02 39.59 50.52 43.83 50.49 43.83 51.53 39.59 51.55"/></g><g class="cls-3"><path d="M159.92,176.09c0,.4,0,.71.06.95a1.71,1.71,0,0,0,.19.59,1.51,1.51,0,0,0,.38.43,1.33,1.33,0,0,0,.55.26,3.43,3.43,0,0,0,.68.08,1.57,1.57,0,0,0,1.41-.78,4.36,4.36,0,0,0,.48-2.29,4.77,4.77,0,0,0-.46-2.31,1.44,1.44,0,0,0-1.33-.78,2,2,0,0,0-.75.14,2.83,2.83,0,0,0-.63.43,2.17,2.17,0,0,0-.44.58,1.3,1.3,0,0,0-.14.63Zm0-3.43,0,0a7.4,7.4,0,0,1,.9-.83,3,3,0,0,1,.75-.4,2.57,2.57,0,0,1,.85-.14,2.34,2.34,0,0,1,1.43.41,2.83,2.83,0,0,1,.93,1.27,6,6,0,0,1,.33,2.08,5.54,5.54,0,0,1-.37,2.16,2.8,2.8,0,0,1-1.14,1.32,3.3,3.3,0,0,1-1.78.45,4.52,4.52,0,0,1-2.16-.46l-.54.48-.54-.12,0-8.46c0-.51,0-.86,0-1.06a1.73,1.73,0,0,0-.06-.49.68.68,0,0,0-.14-.32.71.71,0,0,0-.25-.2,2.63,2.63,0,0,0-.54-.13v-.41l1.88-.08h.46Z" transform="translate(-108.53 -123.36)"/></g><g class="cls-3"><path d="M171.57,176.41v-1l9.59,0v1Zm0-3.23v-1l9.61,0v1Z" transform="translate(-108.53 -123.36)"/></g><g class="cls-3"><path d="M189.36,173.3a10.77,10.77,0,0,0,.49,3.72,1.55,1.55,0,0,0,1.47,1.18,1.48,1.48,0,0,0,1.39-1.12,9.93,9.93,0,0,0,.45-3.47,15.36,15.36,0,0,0-.26-2.89,3.49,3.49,0,0,0-.66-1.6,1.3,1.3,0,0,0-1-.48,1.37,1.37,0,0,0-.9.33,2.24,2.24,0,0,0-.58.92,6.56,6.56,0,0,0-.3,1.46A16.6,16.6,0,0,0,189.36,173.3Zm1.84,5.57a2.71,2.71,0,0,1-2.51-1.31,7.76,7.76,0,0,1-.85-4,10,10,0,0,1,.25-2.48,5.3,5.3,0,0,1,.69-1.73,3,3,0,0,1,1.09-1,3.3,3.3,0,0,1,1.39-.33,2.78,2.78,0,0,1,2.55,1.31,7.47,7.47,0,0,1,.86,4,7.77,7.77,0,0,1-.88,4.17A2.89,2.89,0,0,1,191.2,178.87Z" transform="translate(-108.53 -123.36)"/></g><g class="cls-3"><path d="M124.73,201.45l1-1.29a3,3,0,0,0,.26-.4.9.9,0,0,0,.1-.42.39.39,0,0,0-.13-.29,1.1,1.1,0,0,0-.42-.18v-.38h2.55v.38a2.17,2.17,0,0,0-.6.34,5.68,5.68,0,0,0-.75.81l-1.6,2,1.79,2.38a4.91,4.91,0,0,0,.68.79,2.22,2.22,0,0,0,.61.39v.38H125.1v-.38c.43,0,.65-.22.64-.48a.83.83,0,0,0,0-.32,1.41,1.41,0,0,0-.2-.34l-1.14-1.57-1.2,1.56a1.49,1.49,0,0,0-.2.32.89.89,0,0,0-.08.33.43.43,0,0,0,.15.34.78.78,0,0,0,.46.17V206l-2.6,0v-.39a1.83,1.83,0,0,0,.46-.24,2.61,2.61,0,0,0,.42-.36,8.6,8.6,0,0,0,.56-.66l1.62-2-1.68-2.27a5.46,5.46,0,0,0-.55-.67,2.52,2.52,0,0,0-.37-.33,2.63,2.63,0,0,0-.35-.15v-.38h3.06v.38c-.42.07-.62.23-.61.48a.66.66,0,0,0,.08.36,1.78,1.78,0,0,0,.26.4Zm-10.2-1.27-2,5.87h-1.08l-1.91-5.78a5,5,0,0,0-.3-.79,1.18,1.18,0,0,0-.26-.33,1,1,0,0,0-.44-.2v-.38h3.08V199a1.32,1.32,0,0,0-.6.24.6.6,0,0,0-.16.46,2.28,2.28,0,0,0,0,.44,3.75,3.75,0,0,0,.15.54l1.23,4,2-6h1.1l1.73,6,1.34-3.82a3.3,3.3,0,0,0,.18-.56,1.54,1.54,0,0,0,.07-.5.69.69,0,0,0-.17-.51,1.12,1.12,0,0,0-.6-.26v-.38l2.73,0v.38a1.69,1.69,0,0,0-.32.12.69.69,0,0,0-.22.17,1.5,1.5,0,0,0-.23.36,4.61,4.61,0,0,0-.32.73L117.3,206h-1Z" transform="translate(-108.53 -123.36)"/></g><g class="cls-3"><polygon points="29.95 78.48 29.97 82.97 28.86 82.98 28.84 78.49 24.59 78.51 24.58 77.47 28.83 77.45 28.82 72.97 29.92 72.96 29.94 77.45 34.19 77.43 34.19 78.46 29.95 78.48"/></g><g class="cls-3"><path d="M150.28,203a7.31,7.31,0,0,0,.06.95,1.71,1.71,0,0,0,.19.59,1.27,1.27,0,0,0,.38.43,1.49,1.49,0,0,0,.55.27,2.84,2.84,0,0,0,.68.07,1.57,1.57,0,0,0,1.41-.77,4.3,4.3,0,0,0,.47-2.29,4.68,4.68,0,0,0-.45-2.32,1.45,1.45,0,0,0-1.33-.77,1.91,1.91,0,0,0-.76.14,2.49,2.49,0,0,0-.62.43,2.25,2.25,0,0,0-.45.57,1.47,1.47,0,0,0-.14.64Zm0-3.42h0a6.72,6.72,0,0,1,.9-.83,3.63,3.63,0,0,1,.75-.4,2.57,2.57,0,0,1,.85-.14,2.46,2.46,0,0,1,1.43.42,2.71,2.71,0,0,1,.92,1.27,5.69,5.69,0,0,1,.34,2.08,5.43,5.43,0,0,1-.38,2.14,2.78,2.78,0,0,1-1.13,1.34,3.41,3.41,0,0,1-1.78.45,4.13,4.13,0,0,1-1.08-.1,4.28,4.28,0,0,1-1.08-.36l-.55.48-.53-.13,0-8.46c0-.5,0-.85,0-1.05a2.28,2.28,0,0,0-.06-.5,1,1,0,0,0-.14-.32.69.69,0,0,0-.25-.19,2.78,2.78,0,0,0-.55-.13v-.41l1.89-.09h.46Z" transform="translate(-108.53 -123.36)"/></g><g class="cls-3"><path d="M161.93,203.35v-1l9.6,0v1Zm0-3.23v-1l9.59-.05,0,1Z" transform="translate(-108.53 -123.36)"/></g><g class="cls-3"><polygon points="69.83 78.29 69.83 77.26 79.43 77.2 79.43 78.24 69.83 78.29"/></g><g class="cls-3"><path d="M194.62,203.58c0,.3,0,.53,0,.68a1,1,0,0,0,.18.38.89.89,0,0,0,.38.22,3.36,3.36,0,0,0,.61.13c.24,0,.56,0,1,0v.56l-5.76,0v-.56a9.63,9.63,0,0,0,1.24-.12,1.4,1.4,0,0,0,.57-.2.81.81,0,0,0,.28-.37,2.49,2.49,0,0,0,.09-.79l0-6.33a.71.71,0,0,0-.11-.45.36.36,0,0,0-.32-.14,1.72,1.72,0,0,0-.71.26q-.45.25-1.14.72l-.34-.6,3.65-2.19h.42c0,.5,0,1.2,0,2.08Z" transform="translate(-108.53 -123.36)"/></g><path d="M441.68,196l-3,6-3-6Zm-6.09-41.59,3-6,3,6Zm3.49-1,.1,43.59h-1l-.1-43.59Z" transform="translate(-108.53 -123.36)"/><circle cx="214.27" cy="76.08" r="3"/><circle class="cls-5" cx="214.27" cy="76.08" r="3"/><path d="M332.51,183.54v.65a1.32,1.32,0,0,0-.66.2.65.65,0,0,0-.19.5,1.53,1.53,0,0,0,.16.62,13.36,13.36,0,0,0,.65,1.19l.9,1.52,1.2-1.74a5.91,5.91,0,0,0,.53-.88,1.77,1.77,0,0,0,.14-.66.61.61,0,0,0-.22-.5,1,1,0,0,0-.59-.24v-.65l4.05,0v.66a1.86,1.86,0,0,0-.54.24,3.75,3.75,0,0,0-.59.57q-.33.39-1.08,1.44l-2.13,3,2.83,4.75c.31.52.56.92.75,1.21a3.7,3.7,0,0,0,.52.62,1.12,1.12,0,0,0,.49.24V197l-5.45,0v-.65a1.24,1.24,0,0,0,.64-.2.63.63,0,0,0,.21-.5,1.09,1.09,0,0,0-.07-.37,1.85,1.85,0,0,0-.17-.42c-.07-.15-.21-.39-.41-.73l-1.35-2.25-1.61,2.35c-.13.19-.23.36-.32.51a2.85,2.85,0,0,0-.18.43,2.16,2.16,0,0,0-.05.46.62.62,0,0,0,.21.47,1,1,0,0,0,.6.24v.64l-4.06,0v-.65a2.17,2.17,0,0,0,.85-.51,10.41,10.41,0,0,0,1.23-1.54l2.58-3.65-2.44-4.12q-.4-.67-.69-1.11a7.16,7.16,0,0,0-.48-.68,2,2,0,0,0-.34-.33,1,1,0,0,0-.36-.14v-.65Z" transform="translate(-108.53 -123.36)"/><path d="M344,185.58l-4.31,0v-1.8l4.31,0Z" transform="translate(-108.53 -123.36)"/><circle cx="245.79" cy="25.74" r="3"/><path d="M359.12,153.24v.66a1.22,1.22,0,0,0-.65.22.66.66,0,0,0-.19.51,1.57,1.57,0,0,0,.17.64,13.75,13.75,0,0,0,.66,1.21l.93,1.56,1.17-1.8a6.33,6.33,0,0,0,.51-.92,1.72,1.72,0,0,0,.13-.68.65.65,0,0,0-.22-.52,1,1,0,0,0-.6-.23v-.67l4,0v.68a1.74,1.74,0,0,0-.53.26,3.24,3.24,0,0,0-.58.59c-.22.27-.58.77-1.06,1.49l-2.09,3.13,2.89,4.84c.32.53.57.94.77,1.23a3.23,3.23,0,0,0,.53.64,1,1,0,0,0,.49.24V167l-5.44,0v-.66a1.32,1.32,0,0,0,.63-.22.6.6,0,0,0,.2-.51,1.43,1.43,0,0,0-.06-.39c-.05-.14-.11-.28-.18-.43l-.42-.74-1.38-2.3-1.58,2.44-.31.54a2.07,2.07,0,0,0-.17.44,2.21,2.21,0,0,0-.05.48.67.67,0,0,0,.22.47,1,1,0,0,0,.6.24V167l-4.06,0v-.66a2.41,2.41,0,0,0,.84-.53,11.87,11.87,0,0,0,1.2-1.62l2.53-3.79-2.5-4.2c-.27-.46-.5-.84-.7-1.14a5.89,5.89,0,0,0-.49-.68,1.8,1.8,0,0,0-.35-.34,1,1,0,0,0-.35-.14v-.66Z" transform="translate(-108.53 -123.36)"/><path d="M372.4,155.54l0,4.24h-1l0-4.24-3.9,0v-1l3.89,0,0-4.25h1l0,4.24,3.89,0v1Z" transform="translate(-108.53 -123.36)"/></svg>