<svg id="Layer_1" data-name="Layer 1" xmlns="http://www.w3.org/2000/svg" viewBox="0 0 323.69 25.7"><defs><style>.cls-1{fill-rule:evenodd;}.cls-2,.cls-3{fill:none;stroke:#000;stroke-width:0.75px;}.cls-2{stroke-miterlimit:8;}.cls-3{stroke-linejoin:round;}</style></defs><path d="M456.06,229.62l6,3-6,3Zm-306,2h307v2h-307Z" transform="translate(-150.06 -228)"/><polygon class="cls-1" points="34.86 3.36 36.9 1.32 39.78 1.32 41.82 3.36 41.82 6.36 39.78 8.4 36.9 8.4 34.86 6.36 34.86 3.36"/><polygon class="cls-2" points="34.86 3.36 36.9 1.32 39.78 1.32 41.82 3.36 41.82 6.36 39.78 8.4 36.9 8.4 34.86 6.36 34.86 3.36"/><line class="cls-3" x1="142.5" x2="142.5" y2="9"/><path d="M294.59,253.7a3.11,3.11,0,0,1-2.83-1.49,8.77,8.77,0,0,1-.93-4.54,11.9,11.9,0,0,1,.29-2.79,6.06,6.06,0,0,1,.8-1.95,3.33,3.33,0,0,1,1.23-1.14,3.5,3.5,0,0,1,1.58-.37,3.15,3.15,0,0,1,2.86,1.49,8.51,8.51,0,0,1,.94,4.49,9,9,0,0,1-1,4.71A3.26,3.26,0,0,1,294.59,253.7Zm-2-6.29a12.3,12.3,0,0,0,.53,4.2,1.75,1.75,0,0,0,1.65,1.34,1.7,1.7,0,0,0,1.58-1.26,11.08,11.08,0,0,0,.51-3.9,17,17,0,0,0-.26-3.28,4.12,4.12,0,0,0-.74-1.8,1.45,1.45,0,0,0-1.14-.54,1.47,1.47,0,0,0-1,.36,2.59,2.59,0,0,0-.66,1,6.78,6.78,0,0,0-.36,1.64A20.77,20.77,0,0,0,292.55,247.41Z" transform="translate(-150.06 -228)"/><polygon class="cls-1" points="63.3 2.64 65.34 0.6 68.22 0.6 70.26 2.64 70.26 5.64 68.22 7.68 65.34 7.68 63.3 5.64 63.3 2.64"/><polygon class="cls-2" points="63.3 2.64 65.34 0.6 68.22 0.6 70.26 2.64 70.26 5.64 68.22 7.68 65.34 7.68 63.3 5.64 63.3 2.64"/><polygon class="cls-1" points="100.86 3.36 102.9 1.32 105.78 1.32 107.82 3.36 107.82 6.36 105.78 8.4 102.9 8.4 100.86 6.36 100.86 3.36"/><polygon class="cls-2" points="100.86 3.36 102.9 1.32 105.78 1.32 107.82 3.36 107.82 6.36 105.78 8.4 102.9 8.4 100.86 6.36 100.86 3.36"/><polygon class="cls-1" points="117.3 3.36 119.34 1.32 122.22 1.32 124.26 3.36 124.26 6.36 122.22 8.4 119.34 8.4 117.3 6.36 117.3 3.36"/><polygon class="cls-2" points="117.3 3.36 119.34 1.32 122.22 1.32 124.26 3.36 124.26 6.36 122.22 8.4 119.34 8.4 117.3 6.36 117.3 3.36"/><polygon class="cls-2" points="184.86 3.36 186.9 1.32 189.78 1.32 191.82 3.36 191.82 6.36 189.78 8.4 186.9 8.4 184.86 6.36 184.86 3.36"/><polygon class="cls-2" points="202.86 3.36 204.9 1.32 207.78 1.32 209.82 3.36 209.82 6.36 207.78 8.4 204.9 8.4 202.86 6.36 202.86 3.36"/><polygon class="cls-2" points="174.3 3.36 176.34 1.32 179.22 1.32 181.26 3.36 181.26 6.36 179.22 8.4 176.34 8.4 174.3 6.36 174.3 3.36"/><polygon class="cls-1" points="232.86 3.36 234.9 1.32 237.78 1.32 239.82 3.36 239.82 6.36 237.78 8.4 234.9 8.4 232.86 6.36 232.86 3.36"/><polygon class="cls-2" points="232.86 3.36 234.9 1.32 237.78 1.32 239.82 3.36 239.82 6.36 237.78 8.4 234.9 8.4 232.86 6.36 232.86 3.36"/><polygon class="cls-1" points="250.86 3.36 252.9 1.32 255.78 1.32 257.82 3.36 257.82 6.36 255.78 8.4 252.9 8.4 250.86 6.36 250.86 3.36"/><polygon class="cls-2" points="250.86 3.36 252.9 1.32 255.78 1.32 257.82 3.36 257.82 6.36 255.78 8.4 252.9 8.4 250.86 6.36 250.86 3.36"/><polygon class="cls-1" points="289.86 2.64 291.9 0.6 294.78 0.6 296.82 2.64 296.82 5.64 294.78 7.68 291.9 7.68 289.86 5.64 289.86 2.64"/><polygon class="cls-2" points="289.86 2.64 291.9 0.6 294.78 0.6 296.82 2.64 296.82 5.64 294.78 7.68 291.9 7.68 289.86 5.64 289.86 2.64"/><path d="M468.62,244.83c-.09-.46-.18-.91-.27-1.34s-.2-.82-.3-1.19a4.63,4.63,0,0,0-.24-.73.86.86,0,0,0-.21-.24.55.55,0,0,0-.28-.06.73.73,0,0,0-.33.08,1.36,1.36,0,0,0-.33.29c-.11.14-.27.36-.46.65l-.57-.38a5.63,5.63,0,0,1,1.06-1.25,1.83,1.83,0,0,1,1.21-.41,1.75,1.75,0,0,1,.48.06,1,1,0,0,1,.36.19,1,1,0,0,1,.28.33,3,3,0,0,1,.24.55,7.06,7.06,0,0,1,.22.86c.06.34.12.7.18,1.07h.08c.57-.79,1-1.37,1.28-1.74a7.52,7.52,0,0,1,.74-.82,2.06,2.06,0,0,1,.58-.38,2.08,2.08,0,0,1,.73-.11,1.86,1.86,0,0,1,.68.11L473.4,242h-.62c0-.24-.14-.37-.31-.37a.45.45,0,0,0-.16,0,1.12,1.12,0,0,0-.22.11,2.63,2.63,0,0,0-.37.35c-.17.17-.35.38-.56.62l-.63.78-.6.74q.15.85.3,1.47c.09.41.18.75.25,1s.14.49.19.65a1.23,1.23,0,0,0,.18.35.6.6,0,0,0,.2.17.59.59,0,0,0,.23.05.75.75,0,0,0,.47-.18,4.52,4.52,0,0,0,.64-.84l.58.38a5.7,5.7,0,0,1-1.12,1.29,1.89,1.89,0,0,1-1.18.37,1.26,1.26,0,0,1-.64-.14,1.17,1.17,0,0,1-.46-.43,2.85,2.85,0,0,1-.34-.93,13,13,0,0,1-.34-1.73h-.09c-.62.88-1.08,1.5-1.38,1.88a7.42,7.42,0,0,1-.75.85,2,2,0,0,1-.57.38,2.45,2.45,0,0,1-1.42,0l.36-1.6h.61c0,.25.14.37.31.37a.65.65,0,0,0,.26-.06,1.94,1.94,0,0,0,.39-.32c.17-.17.41-.43.71-.79S468.05,245.55,468.62,244.83Z" transform="translate(-150.06 -228)"/></svg>