<svg id="Layer_1" data-name="Layer 1" xmlns="http://www.w3.org/2000/svg" viewBox="0 0 343 147.73"><defs><style>.cls-1{fill-rule:evenodd;}.cls-2,.cls-3,.cls-4,.cls-5{fill:none;stroke:#000;}.cls-2{stroke-miterlimit:8;}.cls-2,.cls-3,.cls-5{stroke-width:0.75px;}.cls-3,.cls-4,.cls-5{stroke-linejoin:round;}.cls-4{stroke-width:1.5px;}.cls-5{stroke-linecap:round;stroke-dasharray:0 1.5;}</style></defs><path d="M295.34,465.24a3.11,3.11,0,0,1-2.83-1.5,8.89,8.89,0,0,1-.92-4.54,12.09,12.09,0,0,1,.28-2.8,6.06,6.06,0,0,1,.8-1.95,3.43,3.43,0,0,1,1.24-1.14,3.49,3.49,0,0,1,1.57-.37,3.16,3.16,0,0,1,2.87,1.49,8.53,8.53,0,0,1,.94,4.5,9,9,0,0,1-1,4.71A3.29,3.29,0,0,1,295.34,465.24Zm-2-6.3a12.41,12.41,0,0,0,.53,4.21,1.78,1.78,0,0,0,1.65,1.34,1.69,1.69,0,0,0,1.58-1.26,10.93,10.93,0,0,0,.52-3.92,16,16,0,0,0-.27-3.27,4,4,0,0,0-.73-1.8,1.43,1.43,0,0,0-1.14-.55,1.51,1.51,0,0,0-1,.36,2.59,2.59,0,0,0-.66,1,7.3,7.3,0,0,0-.35,1.65A20.58,20.58,0,0,0,293.3,458.94Z" transform="translate(-150.06 -317.51)"/><path d="M462,451.88c-.09-.47-.18-.91-.27-1.34s-.2-.83-.3-1.2a4.06,4.06,0,0,0-.24-.72.64.64,0,0,0-.21-.24.55.55,0,0,0-.28-.07.63.63,0,0,0-.33.09,1.17,1.17,0,0,0-.33.29c-.11.14-.27.35-.46.64L459,449a5.4,5.4,0,0,1,1.06-1.25,1.84,1.84,0,0,1,1.21-.42,1.75,1.75,0,0,1,.48.06,1.37,1.37,0,0,1,.36.19,1.29,1.29,0,0,1,.28.33,3.31,3.31,0,0,1,.24.55,7.27,7.27,0,0,1,.22.87c.06.34.12.7.18,1.07h.08c.57-.8,1-1.38,1.28-1.74a7.52,7.52,0,0,1,.74-.82,1.86,1.86,0,0,1,.58-.38,2.08,2.08,0,0,1,.73-.11,1.86,1.86,0,0,1,.68.11l-.35,1.59h-.62c0-.25-.14-.37-.31-.37a.45.45,0,0,0-.16,0,.56.56,0,0,0-.22.11,2.42,2.42,0,0,0-.37.34c-.17.17-.35.38-.56.63s-.42.5-.63.77l-.6.75c.1.56.2,1.05.3,1.46s.18.75.25,1,.14.49.19.64a1.49,1.49,0,0,0,.18.36.6.6,0,0,0,.2.17.59.59,0,0,0,.23.05.76.76,0,0,0,.47-.19,4,4,0,0,0,.64-.83l.58.37a5.7,5.7,0,0,1-1.12,1.29,1.89,1.89,0,0,1-1.18.38,1.38,1.38,0,0,1-.64-.14,1.2,1.2,0,0,1-.46-.44,2.76,2.76,0,0,1-.34-.93,12.61,12.61,0,0,1-.34-1.72h-.09c-.62.87-1.08,1.5-1.38,1.88a9.72,9.72,0,0,1-.75.85,2.17,2.17,0,0,1-.57.38,2.14,2.14,0,0,1-.74.11,1.9,1.9,0,0,1-.68-.11l.36-1.59H459c0,.25.14.37.31.37a.54.54,0,0,0,.26-.07,1.8,1.8,0,0,0,.39-.31c.17-.17.41-.43.71-.79Z" transform="translate(-150.06 -317.51)"/><path d="M456.06,437.34l6,3-6,3Zm-306,2h307v2h-307Z" transform="translate(-150.06 -317.51)"/><polygon class="cls-1" points="39.3 44.41 41.34 42.38 44.22 42.38 46.26 44.41 46.26 47.3 44.22 49.34 41.34 49.34 39.3 47.3 39.3 44.41"/><polygon class="cls-2" points="39.3 44.41 41.34 42.38 44.22 42.38 46.26 44.41 46.26 47.3 44.22 49.34 41.34 49.34 39.3 47.3 39.3 44.41"/><line class="cls-3" x1="142.5" y1="118.21" x2="142.5" y2="127.21"/><polygon class="cls-1" points="64.86 81.86 66.9 79.81 69.78 79.81 71.82 81.86 71.82 84.86 69.78 86.89 66.9 86.89 64.86 84.86 64.86 81.86"/><polygon class="cls-2" points="64.86 81.86 66.9 79.81 69.78 79.81 71.82 81.86 71.82 84.86 69.78 86.89 66.9 86.89 64.86 84.86 64.86 81.86"/><polygon class="cls-1" points="100.86 106.69 102.9 104.66 105.78 104.66 107.82 106.69 107.82 109.58 105.78 111.61 102.9 111.61 100.86 109.58 100.86 106.69"/><polygon class="cls-2" points="100.86 106.69 102.9 104.66 105.78 104.66 107.82 106.69 107.82 109.58 105.78 111.61 102.9 111.61 100.86 109.58 100.86 106.69"/><polygon class="cls-1" points="118.86 114.14 120.9 112.09 123.78 112.09 125.82 114.14 125.82 117.14 123.78 119.17 120.9 119.17 118.86 117.14 118.86 114.14"/><polygon class="cls-2" points="118.86 114.14 120.9 112.09 123.78 112.09 125.82 114.14 125.82 117.14 123.78 119.17 120.9 119.17 118.86 117.14 118.86 114.14"/><polygon class="cls-2" points="184.86 107.42 186.9 105.38 189.78 105.38 191.82 107.42 191.82 110.3 189.78 112.33 186.9 112.33 184.86 110.3 184.86 107.42"/><polygon class="cls-2" points="202.86 93.14 204.9 91.09 207.78 91.09 209.82 93.14 209.82 96.14 207.78 98.17 204.9 98.17 202.86 96.14 202.86 93.14"/><polygon class="cls-2" points="169.86 112.69 171.9 110.66 174.78 110.66 176.82 112.69 176.82 115.58 174.78 117.61 171.9 117.61 169.86 115.58 169.86 112.69"/><polygon class="cls-1" points="232.86 67.69 234.9 65.66 237.78 65.66 239.82 67.69 239.82 70.58 237.78 72.61 234.9 72.61 232.86 70.58 232.86 67.69"/><polygon class="cls-2" points="232.86 67.69 234.9 65.66 237.78 65.66 239.82 67.69 239.82 70.58 237.78 72.61 234.9 72.61 232.86 70.58 232.86 67.69"/><polygon class="cls-1" points="255.3 43.7 257.34 41.66 260.22 41.66 262.26 43.7 262.26 46.58 260.22 48.62 257.34 48.62 255.3 46.58 255.3 43.7"/><polygon class="cls-2" points="255.3 43.7 257.34 41.66 260.22 41.66 262.26 43.7 262.26 46.58 260.22 48.62 257.34 48.62 255.3 46.58 255.3 43.7"/><polygon class="cls-1" points="288.3 2.42 290.34 0.38 293.22 0.38 295.26 2.42 295.26 5.29 293.22 7.33 290.34 7.33 288.3 5.29 288.3 2.42"/><polygon class="cls-2" points="288.3 2.42 290.34 0.38 293.22 0.38 295.26 2.42 295.26 5.29 293.22 7.33 290.34 7.33 288.3 5.29 288.3 2.42"/><path d="M295.62,332.34l-3-6-3,6Zm-2,111v-112h-2v112Z" transform="translate(-150.06 -317.51)"/><path d="M306.59,328.86c-.09-.47-.18-.91-.27-1.34s-.19-.82-.29-1.19a3.57,3.57,0,0,0-.25-.73.71.71,0,0,0-.2-.24.61.61,0,0,0-.28-.06.73.73,0,0,0-.33.08,1.36,1.36,0,0,0-.33.29,5.84,5.84,0,0,0-.46.65l-.58-.38a5.63,5.63,0,0,1,1.07-1.25,1.88,1.88,0,0,1,1.2-.41,1.75,1.75,0,0,1,.48.06,1,1,0,0,1,.37.19,1.35,1.35,0,0,1,.28.33,2.46,2.46,0,0,1,.23.55,7.06,7.06,0,0,1,.22.86c.07.34.13.7.18,1.07h.09c.56-.79,1-1.37,1.28-1.74a6.68,6.68,0,0,1,.73-.82,1.81,1.81,0,0,1,.58-.37,1.84,1.84,0,0,1,.73-.11,1.91,1.91,0,0,1,.68.1l-.36,1.59h-.61c0-.24-.14-.37-.31-.37l-.17,0-.21.11a2.63,2.63,0,0,0-.37.35c-.17.17-.35.37-.56.62l-.63.77-.6.75c.11.56.21,1.05.3,1.46s.18.75.25,1,.14.49.19.65a1.49,1.49,0,0,0,.18.36.87.87,0,0,0,.2.16.47.47,0,0,0,.24.05.75.75,0,0,0,.46-.18,4.18,4.18,0,0,0,.64-.84l.57.38a5.46,5.46,0,0,1-1.11,1.29,1.89,1.89,0,0,1-1.18.37,1.26,1.26,0,0,1-.64-.14,1.17,1.17,0,0,1-.46-.43,3.1,3.1,0,0,1-.34-.93,17.3,17.3,0,0,1-.34-1.72h-.08c-.62.87-1.09,1.5-1.39,1.88a8.23,8.23,0,0,1-.74.84,1.86,1.86,0,0,1-.58.38,1.84,1.84,0,0,1-.73.11,1.88,1.88,0,0,1-.68-.1l.36-1.59h.61c0,.24.14.36.31.36a.65.65,0,0,0,.26-.06,1.94,1.94,0,0,0,.39-.32c.17-.16.4-.43.7-.78S306,329.57,306.59,328.86Z" transform="translate(-150.06 -317.51)"/><path d="M316.11,326.49a3,3,0,0,0,.47,0,.91.91,0,0,0,.28-.12.56.56,0,0,0,.16-.21,2.7,2.7,0,0,0,.16-.41h.5l-.1,1.71h-4.82v-.28a6.52,6.52,0,0,1,.68-1.26,12.2,12.2,0,0,1,1.21-1.52c.45-.5.78-.88,1-1.14a4.88,4.88,0,0,0,.49-.73,3,3,0,0,0,.23-.58,2.5,2.5,0,0,0,.07-.54,2.09,2.09,0,0,0-.14-.78,1.25,1.25,0,0,0-.43-.53,1.3,1.3,0,0,0-.73-.19,1.48,1.48,0,0,0-1.48,1.22h-.71V320a7.2,7.2,0,0,1,1.33-.48,4.73,4.73,0,0,1,1.11-.15,2.48,2.48,0,0,1,1.65.48,1.71,1.71,0,0,1,.55,1.38,2.49,2.49,0,0,1-.06.57,2,2,0,0,1-.19.52,4.25,4.25,0,0,1-.36.55c-.15.19-.31.39-.49.59l-.93,1a12.66,12.66,0,0,0-1.64,2.05Z" transform="translate(-150.06 -317.51)"/><line class="cls-4" x1="92.28" y1="134.83" x2="342.72" y2="32.83"/><line class="cls-5" x1="91.86" y1="127.81" x2="337.02" y2="26.77"/><line class="cls-5" x1="100.86" y1="138.37" x2="341.58" y2="40.21"/><ellipse class="cls-4" cx="236.88" cy="69.32" rx="9" ry="8.64"/><ellipse class="cls-4" cx="206.16" cy="94.03" rx="9" ry="8.64"/><ellipse class="cls-4" cx="122.16" cy="115.81" rx="9" ry="8.58"/></svg>