<svg id="Layer_1" data-name="Layer 1" xmlns="http://www.w3.org/2000/svg" xmlns:xlink="http://www.w3.org/1999/xlink" width="82.43mm" height="82.49mm" viewBox="0 0 233.66 233.82"><defs><clipPath id="clip-path" transform="translate(-176.38 -304.11)"><rect x="176.18" y="303.91" width="231" height="231" style="fill:none"/></clipPath><clipPath id="clip-path-2" transform="translate(-176.38 -304.11)"><rect x="176.18" y="303.91" width="231" height="231" style="fill:none"/></clipPath><clipPath id="clip-path-3" transform="translate(-176.38 -304.11)"><rect x="176.38" y="304.11" width="230.67" height="230.68" style="fill:none"/></clipPath></defs><text transform="translate(230.88 230.78)" style="font-size:12px;fill:#0d0d0d;font-family:GoogleSans-Regular, Google Sans"> </text><g style="clip-path:url(#clip-path)"><g style="clip-path:url(#clip-path-2)"><g style="clip-path:url(#clip-path-3)"><line x1="41.81" x2="41.81" y2="230.68" style="fill:none;stroke:#fff;stroke-miterlimit:10;stroke-width:0.5766816735267639px;opacity:0.19607999920845032"/></g><g style="clip-path:url(#clip-path-3)"><line x1="62.57" x2="62.57" y2="230.68" style="fill:none;stroke:#fff;stroke-miterlimit:10;stroke-width:0.5766816735267639px;opacity:0.19607999920845032"/></g><g style="clip-path:url(#clip-path-3)"><line x1="83.33" x2="83.33" y2="230.68" style="fill:none;stroke:#fff;stroke-miterlimit:10;stroke-width:0.5766816735267639px;opacity:0.19607999920845032"/></g><g style="clip-path:url(#clip-path-3)"><line x1="104.67" x2="104.67" y2="230.68" style="fill:none;stroke:#fff;stroke-miterlimit:10;stroke-width:0.5766816735267639px;opacity:0.19607999920845032"/></g><g style="clip-path:url(#clip-path-3)"><line x1="125.43" x2="125.43" y2="230.68" style="fill:none;stroke:#fff;stroke-miterlimit:10;stroke-width:0.5766816735267639px;opacity:0.19607999920845032"/></g><g style="clip-path:url(#clip-path-3)"><line x1="146.76" x2="146.76" y2="230.68" style="fill:none;stroke:#fff;stroke-miterlimit:10;stroke-width:0.5766816735267639px;opacity:0.19607999920845032"/></g><g style="clip-path:url(#clip-path-3)"><line x1="167.52" x2="167.52" y2="230.68" style="fill:none;stroke:#fff;stroke-miterlimit:10;stroke-width:0.5766816735267639px;opacity:0.19607999920845032"/></g><g style="clip-path:url(#clip-path-3)"><line x1="188.28" x2="188.28" y2="230.68" style="fill:none;stroke:#fff;stroke-miterlimit:10;stroke-width:0.5766816735267639px;opacity:0.19607999920845032"/></g><g style="clip-path:url(#clip-path-3)"><line x1="209.62" x2="209.62" y2="230.68" style="fill:none;stroke:#fff;stroke-miterlimit:10;stroke-width:0.5766816735267639px;opacity:0.19607999920845032"/></g><g style="clip-path:url(#clip-path-3)"><line y1="211.36" x2="230.67" y2="211.36" style="fill:none;stroke:#fff;stroke-miterlimit:10;stroke-width:0.5766816735267639px;opacity:0.19607999920845032"/></g><g style="clip-path:url(#clip-path-3)"><line y1="172.72" x2="230.67" y2="172.72" style="fill:none;stroke:#fff;stroke-miterlimit:10;stroke-width:0.5766816735267639px;opacity:0.19607999920845032"/></g><g style="clip-path:url(#clip-path-3)"><line y1="153.69" x2="230.67" y2="153.69" style="fill:none;stroke:#fff;stroke-miterlimit:10;stroke-width:0.5766816735267639px;opacity:0.19607999920845032"/></g><g style="clip-path:url(#clip-path-3)"><line y1="134.08" x2="230.67" y2="134.08" style="fill:none;stroke:#fff;stroke-miterlimit:10;stroke-width:0.5766816735267639px;opacity:0.19607999920845032"/></g><g style="clip-path:url(#clip-path-3)"><line y1="115.05" x2="230.67" y2="115.05" style="fill:none;stroke:#fff;stroke-miterlimit:10;stroke-width:0.5766816735267639px;opacity:0.19607999920845032"/></g><g style="clip-path:url(#clip-path-3)"><line y1="96.02" x2="230.67" y2="96.02" style="fill:none;stroke:#fff;stroke-miterlimit:10;stroke-width:0.5766816735267639px;opacity:0.19607999920845032"/></g><g style="clip-path:url(#clip-path-3)"><line y1="76.41" x2="230.67" y2="76.41" style="fill:none;stroke:#fff;stroke-miterlimit:10;stroke-width:0.5766816735267639px;opacity:0.19607999920845032"/></g><g style="clip-path:url(#clip-path-3)"><line y1="57.38" x2="230.67" y2="57.38" style="fill:none;stroke:#fff;stroke-miterlimit:10;stroke-width:0.5766816735267639px;opacity:0.19607999920845032"/></g><g style="clip-path:url(#clip-path-3)"><line y1="38.35" x2="230.67" y2="38.35" style="fill:none;stroke:#fff;stroke-miterlimit:10;stroke-width:0.5766816735267639px;opacity:0.19607999920845032"/></g><g style="clip-path:url(#clip-path-3)"><line y1="18.74" x2="230.67" y2="18.74" style="fill:none;stroke:#fff;stroke-miterlimit:10;stroke-width:0.5766816735267639px;opacity:0.19607999920845032"/></g><g style="clip-path:url(#clip-path-3)"><line x1="125.43" x2="125.43" y2="230.68" style="fill:none;stroke:#fff;stroke-miterlimit:10;stroke-width:0.5766816735267639px;opacity:0.24706000089645386"/></g><g style="clip-path:url(#clip-path-3)"><line y1="96.02" x2="230.67" y2="96.02" style="fill:none;stroke:#fff;stroke-miterlimit:10;stroke-width:0.5766816735267639px;opacity:0.24706000089645386"/></g><g style="clip-path:url(#clip-path-3)"><line x1="20.76" x2="20.76" y2="230.68" style="fill:none;stroke:#fff;stroke-miterlimit:10;stroke-width:0.8650225400924683px;opacity:0.8980399966239929"/></g><g style="clip-path:url(#clip-path-3)"><line y1="192.04" x2="230.67" y2="192.04" style="fill:none;stroke:#fff;stroke-miterlimit:10;stroke-width:0.8650225400924683px;opacity:0.8980399966239929"/></g><g style="clip-path:url(#clip-path-3)"><text transform="translate(13.52 201.52)" style="font-size:8.073704719543457px;fill:#fff;font-family:ArialMT, Arial">0</text></g><g style="clip-path:url(#clip-path-3)"><text transform="translate(120.15 201.52)" style="font-size:8.073704719543457px;fill:#fff;font-family:ArialMT, Arial">0</text></g><g style="clip-path:url(#clip-path-3)"><text transform="translate(124.76 201.52)" style="font-size:8.073704719543457px;fill:#fff;font-family:ArialMT, Arial">.</text></g><g style="clip-path:url(#clip-path-3)"><text transform="translate(127.07 201.52)" style="font-size:8.073704719543457px;fill:#fff;font-family:ArialMT, Arial">5</text></g><g style="clip-path:url(#clip-path-3)"><text transform="translate(224.58 201.52)" style="font-size:8.073704719543457px;fill:#fff;font-family:ArialMT, Arial">1</text></g><g style="clip-path:url(#clip-path-3)"><text transform="translate(6.66 98.35)" style="font-size:8.073704719543457px;fill:#fff;font-family:ArialMT, Arial">0</text></g><g style="clip-path:url(#clip-path-3)"><text transform="translate(11.27 98.35)" style="font-size:8.073704719543457px;fill:#fff;font-family:ArialMT, Arial">.</text></g><g style="clip-path:url(#clip-path-3)"><text transform="translate(13.58 98.35)" style="font-size:8.073704719543457px;fill:#fff;font-family:ArialMT, Arial">5</text></g><g style="clip-path:url(#clip-path-3)"><text transform="translate(13.52 7.92)" style="font-size:8.073704719543457px;fill:#fff;font-family:ArialMT, Arial">1</text></g><g style="clip-path:url(#clip-path-3)"><text transform="translate(156.19 209.44)" style="font-size:9.80378532409668px;fill:#fff;font-family:ArialMT, Arial"><tspan style="letter-spacing:-0.1389625835373003em">T</tspan><tspan x="4.63" y="0" style="letter-spacing:0.017930655940296806em">r</tspan><tspan x="8.07" y="0" style="letter-spacing:-0.026995598665669078em">a</tspan><tspan x="13.25" y="0" style="letter-spacing:0.015041828038804541em">ff</tspan><tspan x="19" y="0" style="letter-spacing:0.010957623074625826em">i</tspan><tspan x="21.28" y="0" style="letter-spacing:0.027095213420892945em">c</tspan><tspan x="26.45" y="0" xml:space="preserve" style="letter-spacing:0.01494221328358067em"> I</tspan><tspan x="32.19" y="0" style="letter-spacing:-0.026995598665669078em">n</tspan><tspan x="37.38" y="0" style="letter-spacing:-0.04203742670447362em">t</tspan><tspan x="39.69" y="0" style="letter-spacing:-0.026995598665669078em">en</tspan><tspan x="50.07" y="0" style="letter-spacing:-0.0289878937701465em">s</tspan><tspan x="54.68" y="0" style="letter-spacing:0.011057237829849697em">i</tspan><tspan x="56.97" y="0" style="letter-spacing:-0.04193781194924975em">t</tspan><tspan x="59.28" y="0">y</tspan></text></g><g style="clip-path:url(#clip-path-3)"><text transform="matrix(0, -1, 1, 0, 29.61, 104.98)" style="font-size:9.80339241027832px;fill:#fff;font-family:ArialMT, Arial;letter-spacing:-0.019025655500027855em">A<tspan x="6.35" y="0" style="letter-spacing:-0.08696019503415875em">v</tspan><tspan x="10.4" y="0" style="letter-spacing:-0.00004980538089012528em">g</tspan></text></g><g style="clip-path:url(#clip-path-3)"><text transform="matrix(0, -1, 1, 0, 29.61, 89.41)" style="font-size:9.80339241027832px;fill:#fff;font-family:ArialMT, Arial"><tspan style="letter-spacing:0.022013978353435375em">.</tspan><tspan x="2.94" y="0"> </tspan></text></g><g style="clip-path:url(#clip-path-3)"><text transform="matrix(0, -1, 1, 0, 29.61, 18.51)" style="font-size:9.80339241027832px;fill:#fff;font-family:ArialMT, Arial">n</text><text transform="matrix(0, -1, 1, 0, 29.61, 23.7)" style="font-size:9.80339241027832px;fill:#fff;font-family:ArialMT, Arial">o</text><text transform="matrix(0, -1, 1, 0, 29.61, 25.99)" style="font-size:9.80339241027832px;fill:#fff;font-family:ArialMT, Arial">i</text><text transform="matrix(0, -1, 1, 0, 29.61, 28.3)" style="font-size:9.80339241027832px;fill:#fff;font-family:ArialMT, Arial">t</text><text transform="matrix(0, -1, 1, 0, 29.61, 33.48)" style="font-size:9.80339241027832px;fill:#fff;font-family:ArialMT, Arial">a</text><text transform="matrix(0, -1, 1, 0, 29.61, 38.1)" style="font-size:9.80339241027832px;fill:#fff;font-family:ArialMT, Arial">z</text><text transform="matrix(0, -1, 1, 0, 29.61, 40.39)" style="font-size:9.80339241027832px;fill:#fff;font-family:ArialMT, Arial">i</text><text transform="matrix(0, -1, 1, 0, 29.61, 42.12)" style="font-size:9.80339241027832px;fill:#fff;font-family:ArialMT, Arial">l</text><text transform="matrix(0, -1, 1, 0, 29.61, 44.41)" style="font-size:9.80339241027832px;fill:#fff;font-family:ArialMT, Arial">i</text><text transform="matrix(0, -1, 1, 0, 29.61, 46.72)" style="font-size:9.80339241027832px;fill:#fff;font-family:ArialMT, Arial">t</text><text transform="matrix(0, -1, 1, 0, 29.61, 53.06)" style="font-size:9.80339241027832px;fill:#fff;font-family:ArialMT, Arial">U</text><text transform="matrix(0, -1, 1, 0, 29.61, 55.93)" style="font-size:9.80339241027832px;fill:#fff;font-family:ArialMT, Arial"> </text><text transform="matrix(0, -1, 1, 0, 29.61, 59.38)" style="font-size:9.80339241027832px;fill:#fff;font-family:ArialMT, Arial">r</text><text transform="matrix(0, -1, 1, 0, 29.61, 64.57)" style="font-size:9.80339241027832px;fill:#fff;font-family:ArialMT, Arial">e</text><text transform="matrix(0, -1, 1, 0, 29.61, 68.61)" style="font-size:9.80339241027832px;fill:#fff;font-family:ArialMT, Arial">v</text><text transform="matrix(0, -1, 1, 0, 29.61, 72.06)" style="font-size:9.80339241027832px;fill:#fff;font-family:ArialMT, Arial">r</text><text transform="matrix(0, -1, 1, 0, 29.61, 77.25)" style="font-size:9.80339241027832px;fill:#fff;font-family:ArialMT, Arial">e</text><text transform="matrix(0, -1, 1, 0, 29.61, 83.59)" style="font-size:9.80339241027832px;fill:#fff;font-family:ArialMT, Arial">S</text></g><polyline points="31.17 182.78 31.17 182.78 41.65 173.1 52.14 164.92 62.62 160.04 73.11 153.41 83.59 146.06 94.08 137.81 104.56 131.62 115.05 118.61 125.53 120.97 136.01 106.68 146.5 98.95 156.99 97.61 167.47 65.11 177.96 72.47 188.44 50.11 198.93 47.86 209.41 61.6" style="fill:none;stroke:#fff;stroke-linecap:round;stroke-linejoin:round;stroke-width:1.7300450801849365px"/><polyline points="31.11 182.72 31.11 182.84 31.22 182.84 31.22 182.72" style="fill:none;stroke:#fff;stroke-linecap:round;stroke-linejoin:round;stroke-width:4.805680751800537px"/><polyline points="41.59 173.04 41.59 173.16 41.71 173.16 41.71 173.04" style="fill:none;stroke:#fff;stroke-linecap:round;stroke-linejoin:round;stroke-width:4.805680751800537px"/><polyline points="52.08 164.86 52.08 164.98 52.19 164.98 52.19 164.86" style="fill:none;stroke:#fff;stroke-linecap:round;stroke-linejoin:round;stroke-width:4.805680751800537px"/><polyline points="62.56 159.98 62.56 160.1 62.68 160.1 62.68 159.98" style="fill:none;stroke:#fff;stroke-linecap:round;stroke-linejoin:round;stroke-width:4.805680751800537px"/><polyline points="73.05 153.35 73.05 153.47 73.17 153.47 73.17 153.35" style="fill:none;stroke:#fff;stroke-linecap:round;stroke-linejoin:round;stroke-width:4.805680751800537px"/><polyline points="83.53 146 83.53 146.11 83.65 146.11 83.65 146" style="fill:none;stroke:#fff;stroke-linecap:round;stroke-linejoin:round;stroke-width:4.805680751800537px"/><polyline points="94.02 137.75 94.02 137.87 94.13 137.87 94.13 137.75" style="fill:none;stroke:#fff;stroke-linecap:round;stroke-linejoin:round;stroke-width:4.805680751800537px"/><polyline points="104.5 131.56 104.5 131.67 104.62 131.67 104.62 131.56" style="fill:none;stroke:#fff;stroke-linecap:round;stroke-linejoin:round;stroke-width:4.805680751800537px"/><polyline points="114.99 118.55 114.99 118.67 115.1 118.67 115.1 118.55" style="fill:none;stroke:#fff;stroke-linecap:round;stroke-linejoin:round;stroke-width:4.805680751800537px"/><polyline points="125.47 120.91 125.47 121.02 125.59 121.02 125.59 120.91" style="fill:none;stroke:#fff;stroke-linecap:round;stroke-linejoin:round;stroke-width:4.805680751800537px"/><polyline points="135.96 106.62 135.96 106.74 136.07 106.74 136.07 106.62" style="fill:none;stroke:#fff;stroke-linecap:round;stroke-linejoin:round;stroke-width:4.805680751800537px"/><polyline points="146.44 98.89 146.44 99.01 146.56 99.01 146.56 98.89" style="fill:none;stroke:#fff;stroke-linecap:round;stroke-linejoin:round;stroke-width:4.805680751800537px"/><polyline points="156.93 97.55 156.93 97.66 157.04 97.66 157.04 97.55" style="fill:none;stroke:#fff;stroke-linecap:round;stroke-linejoin:round;stroke-width:4.805680751800537px"/><polyline points="167.41 65.05 167.41 65.16 167.53 65.16 167.53 65.05" style="fill:none;stroke:#fff;stroke-linecap:round;stroke-linejoin:round;stroke-width:4.805680751800537px"/><polyline points="177.9 72.41 177.9 72.52 178.01 72.52 178.01 72.41" style="fill:none;stroke:#fff;stroke-linecap:round;stroke-linejoin:round;stroke-width:4.805680751800537px"/><polyline points="188.38 50.05 188.38 50.17 188.5 50.17 188.5 50.05" style="fill:none;stroke:#fff;stroke-linecap:round;stroke-linejoin:round;stroke-width:4.805680751800537px"/><polyline points="198.87 47.8 198.87 47.91 198.98 47.91 198.98 47.8" style="fill:none;stroke:#fff;stroke-linecap:round;stroke-linejoin:round;stroke-width:4.805680751800537px"/><polyline points="209.35 61.55 209.35 61.66 209.47 61.66 209.47 61.55" style="fill:none;stroke:#fff;stroke-linecap:round;stroke-linejoin:round;stroke-width:4.805680751800537px"/></g></g></svg>