<svg id="Layer_1" data-name="Layer 1" xmlns="http://www.w3.org/2000/svg" xmlns:xlink="http://www.w3.org/1999/xlink" width="87.25mm" height="86.72mm" viewBox="0 0 247.31 245.81"><defs><clipPath id="clip-path" transform="translate(-170.23 -298.12)"><rect x="171.68" y="297.91" width="242.95" height="242.95" style="fill:none"/></clipPath><clipPath id="clip-path-2" transform="translate(-170.23 -298.12)"><rect x="171.68" y="297.91" width="242.95" height="242.95" style="fill:none"/></clipPath><clipPath id="clip-path-3" transform="translate(-170.23 -298.12)"><rect x="171.89" y="298.12" width="242.6" height="242.61" style="fill:none"/></clipPath></defs><text transform="translate(244.53 242.77)" style="font-size:12px;fill:#0d0d0d;font-family:GoogleSans-Regular, Google Sans"> </text><g style="clip-path:url(#clip-path)"><g style="clip-path:url(#clip-path-2)"><g style="clip-path:url(#clip-path-3)"><line x1="45.64" x2="45.64" y2="242.61" style="fill:none;stroke:#fff;stroke-miterlimit:10;stroke-width:0.6065196394920349px;opacity:0.19607999920845032"/></g><g style="clip-path:url(#clip-path-3)"><line x1="67.47" x2="67.47" y2="242.61" style="fill:none;stroke:#fff;stroke-miterlimit:10;stroke-width:0.6065196394920349px;opacity:0.19607999920845032"/></g><g style="clip-path:url(#clip-path-3)"><line x1="89.3" x2="89.3" y2="242.61" style="fill:none;stroke:#fff;stroke-miterlimit:10;stroke-width:0.6065196394920349px;opacity:0.19607999920845032"/></g><g style="clip-path:url(#clip-path-3)"><line x1="111.75" x2="111.75" y2="242.61" style="fill:none;stroke:#fff;stroke-miterlimit:10;stroke-width:0.6065196394920349px;opacity:0.19607999920845032"/></g><g style="clip-path:url(#clip-path-3)"><line x1="133.58" x2="133.58" y2="242.61" style="fill:none;stroke:#fff;stroke-miterlimit:10;stroke-width:0.6065196394920349px;opacity:0.19607999920845032"/></g><g style="clip-path:url(#clip-path-3)"><line x1="156.02" x2="156.02" y2="242.61" style="fill:none;stroke:#fff;stroke-miterlimit:10;stroke-width:0.6065196394920349px;opacity:0.19607999920845032"/></g><g style="clip-path:url(#clip-path-3)"><line x1="177.85" x2="177.85" y2="242.61" style="fill:none;stroke:#fff;stroke-miterlimit:10;stroke-width:0.6065196394920349px;opacity:0.19607999920845032"/></g><g style="clip-path:url(#clip-path-3)"><line x1="199.69" x2="199.69" y2="242.61" style="fill:none;stroke:#fff;stroke-miterlimit:10;stroke-width:0.6065196394920349px;opacity:0.19607999920845032"/></g><g style="clip-path:url(#clip-path-3)"><line x1="222.13" x2="222.13" y2="242.61" style="fill:none;stroke:#fff;stroke-miterlimit:10;stroke-width:0.6065196394920349px;opacity:0.19607999920845032"/></g><g style="clip-path:url(#clip-path-3)"><line x1="1.66" y1="232.61" x2="244.27" y2="232.61" style="fill:none;stroke:#fff;stroke-miterlimit:10;stroke-width:0.6065196394920349px;opacity:0.19607999920845032"/></g><g style="clip-path:url(#clip-path-3)"><line x1="1.66" y1="222.9" x2="244.27" y2="222.9" style="fill:none;stroke:#fff;stroke-miterlimit:10;stroke-width:0.6065196394920349px;opacity:0.19607999920845032"/></g><g style="clip-path:url(#clip-path-3)"><line x1="1.66" y1="213.2" x2="244.27" y2="213.2" style="fill:none;stroke:#fff;stroke-miterlimit:10;stroke-width:0.6065196394920349px;opacity:0.19607999920845032"/></g><g style="clip-path:url(#clip-path-3)"><line x1="1.66" y1="203.49" x2="244.27" y2="203.49" style="fill:none;stroke:#fff;stroke-miterlimit:10;stroke-width:0.6065196394920349px;opacity:0.19607999920845032"/></g><g style="clip-path:url(#clip-path-3)"><line x1="1.66" y1="184.08" x2="244.27" y2="184.08" style="fill:none;stroke:#fff;stroke-miterlimit:10;stroke-width:0.6065196394920349px;opacity:0.19607999920845032"/></g><g style="clip-path:url(#clip-path-3)"><line x1="1.66" y1="174.38" x2="244.27" y2="174.38" style="fill:none;stroke:#fff;stroke-miterlimit:10;stroke-width:0.6065196394920349px;opacity:0.19607999920845032"/></g><g style="clip-path:url(#clip-path-3)"><line x1="1.66" y1="164.67" x2="244.27" y2="164.67" style="fill:none;stroke:#fff;stroke-miterlimit:10;stroke-width:0.6065196394920349px;opacity:0.19607999920845032"/></g><g style="clip-path:url(#clip-path-3)"><line x1="1.66" y1="154.97" x2="244.27" y2="154.97" style="fill:none;stroke:#fff;stroke-miterlimit:10;stroke-width:0.6065196394920349px;opacity:0.19607999920845032"/></g><g style="clip-path:url(#clip-path-3)"><line x1="1.66" y1="145.26" x2="244.27" y2="145.26" style="fill:none;stroke:#fff;stroke-miterlimit:10;stroke-width:0.6065196394920349px;opacity:0.19607999920845032"/></g><g style="clip-path:url(#clip-path-3)"><line x1="1.66" y1="135.56" x2="244.27" y2="135.56" style="fill:none;stroke:#fff;stroke-miterlimit:10;stroke-width:0.6065196394920349px;opacity:0.19607999920845032"/></g><g style="clip-path:url(#clip-path-3)"><line x1="1.66" y1="125.86" x2="244.27" y2="125.86" style="fill:none;stroke:#fff;stroke-miterlimit:10;stroke-width:0.6065196394920349px;opacity:0.19607999920845032"/></g><g style="clip-path:url(#clip-path-3)"><line x1="1.66" y1="116.15" x2="244.27" y2="116.15" style="fill:none;stroke:#fff;stroke-miterlimit:10;stroke-width:0.6065196394920349px;opacity:0.19607999920845032"/></g><g style="clip-path:url(#clip-path-3)"><line x1="1.66" y1="106.45" x2="244.27" y2="106.45" style="fill:none;stroke:#fff;stroke-miterlimit:10;stroke-width:0.6065196394920349px;opacity:0.19607999920845032"/></g><g style="clip-path:url(#clip-path-3)"><line x1="1.66" y1="96.74" x2="244.27" y2="96.74" style="fill:none;stroke:#fff;stroke-miterlimit:10;stroke-width:0.6065196394920349px;opacity:0.19607999920845032"/></g><g style="clip-path:url(#clip-path-3)"><line x1="1.66" y1="87.04" x2="244.27" y2="87.04" style="fill:none;stroke:#fff;stroke-miterlimit:10;stroke-width:0.6065196394920349px;opacity:0.19607999920845032"/></g><g style="clip-path:url(#clip-path-3)"><line x1="1.66" y1="77.33" x2="244.27" y2="77.33" style="fill:none;stroke:#fff;stroke-miterlimit:10;stroke-width:0.6065196394920349px;opacity:0.19607999920845032"/></g><g style="clip-path:url(#clip-path-3)"><line x1="1.66" y1="67.63" x2="244.27" y2="67.63" style="fill:none;stroke:#fff;stroke-miterlimit:10;stroke-width:0.6065196394920349px;opacity:0.19607999920845032"/></g><g style="clip-path:url(#clip-path-3)"><line x1="1.66" y1="57.92" x2="244.27" y2="57.92" style="fill:none;stroke:#fff;stroke-miterlimit:10;stroke-width:0.6065196394920349px;opacity:0.19607999920845032"/></g><g style="clip-path:url(#clip-path-3)"><line x1="1.66" y1="48.22" x2="244.27" y2="48.22" style="fill:none;stroke:#fff;stroke-miterlimit:10;stroke-width:0.6065196394920349px;opacity:0.19607999920845032"/></g><g style="clip-path:url(#clip-path-3)"><line x1="1.66" y1="38.51" x2="244.27" y2="38.51" style="fill:none;stroke:#fff;stroke-miterlimit:10;stroke-width:0.6065196394920349px;opacity:0.19607999920845032"/></g><g style="clip-path:url(#clip-path-3)"><line x1="1.66" y1="28.81" x2="244.27" y2="28.81" style="fill:none;stroke:#fff;stroke-miterlimit:10;stroke-width:0.6065196394920349px;opacity:0.19607999920845032"/></g><g style="clip-path:url(#clip-path-3)"><line x1="1.66" y1="19.11" x2="244.27" y2="19.11" style="fill:none;stroke:#fff;stroke-miterlimit:10;stroke-width:0.6065196394920349px;opacity:0.19607999920845032"/></g><g style="clip-path:url(#clip-path-3)"><line x1="1.66" y1="9.4" x2="244.27" y2="9.4" style="fill:none;stroke:#fff;stroke-miterlimit:10;stroke-width:0.6065196394920349px;opacity:0.19607999920845032"/></g><g style="clip-path:url(#clip-path-3)"><line x1="133.58" x2="133.58" y2="242.61" style="fill:none;stroke:#fff;stroke-miterlimit:10;stroke-width:0.6065196394920349px;opacity:0.24706000089645386"/></g><g style="clip-path:url(#clip-path-3)"><line x1="1.66" y1="145.26" x2="244.27" y2="145.26" style="fill:none;stroke:#fff;stroke-miterlimit:10;stroke-width:0.6065196394920349px;opacity:0.24706000089645386"/></g><g style="clip-path:url(#clip-path-3)"><line x1="1.66" y1="96.74" x2="244.27" y2="96.74" style="fill:none;stroke:#fff;stroke-miterlimit:10;stroke-width:0.6065196394920349px;opacity:0.24706000089645386"/></g><g style="clip-path:url(#clip-path-3)"><line x1="1.66" y1="48.22" x2="244.27" y2="48.22" style="fill:none;stroke:#fff;stroke-miterlimit:10;stroke-width:0.6065196394920349px;opacity:0.24706000089645386"/></g><g style="clip-path:url(#clip-path-3)"><line x1="23.5" x2="23.5" y2="242.61" style="fill:none;stroke:#fff;stroke-miterlimit:10;stroke-width:0.9097794890403748px;opacity:0.8980399966239929"/></g><g style="clip-path:url(#clip-path-3)"><line x1="1.66" y1="194.09" x2="244.27" y2="194.09" style="fill:none;stroke:#fff;stroke-miterlimit:10;stroke-width:0.9097794890403748px;opacity:0.8980399966239929"/></g><g style="clip-path:url(#clip-path-3)"><text transform="translate(15.88 203.82)" style="font-size:8.552098274230957px;fill:#fff;font-family:ArialMT, Arial">0</text></g><g style="clip-path:url(#clip-path-3)"><text transform="translate(128.03 203.82)" style="font-size:8.552098274230957px;fill:#fff;font-family:ArialMT, Arial">0</text></g><g style="clip-path:url(#clip-path-3)"><text transform="translate(132.88 203.82)" style="font-size:8.552098274230957px;fill:#fff;font-family:ArialMT, Arial">.</text></g><g style="clip-path:url(#clip-path-3)"><text transform="translate(135.31 203.82)" style="font-size:8.552098274230957px;fill:#fff;font-family:ArialMT, Arial">5</text></g><g style="clip-path:url(#clip-path-3)"><text transform="translate(237.87 203.82)" style="font-size:8.552098274230957px;fill:#fff;font-family:ArialMT, Arial">1</text></g><g style="clip-path:url(#clip-path-3)"><text transform="translate(12.91 239.06)" style="font-size:8.491443634033203px;fill:#fff;font-family:ArialMT, Arial">-</text></g><g style="clip-path:url(#clip-path-3)"><text transform="translate(15.94 239.06)" style="font-size:8.491443634033203px;fill:#fff;font-family:ArialMT, Arial">1</text></g><g style="clip-path:url(#clip-path-3)"><text transform="translate(15.88 147.96)" style="font-size:8.552098274230957px;fill:#fff;font-family:ArialMT, Arial">1</text></g><g style="clip-path:url(#clip-path-3)"><text transform="translate(15.88 99.38)" style="font-size:8.552098274230957px;fill:#fff;font-family:ArialMT, Arial">2</text></g><g style="clip-path:url(#clip-path-3)"><text transform="translate(15.88 50.85)" style="font-size:8.491443634033203px;fill:#fff;font-family:ArialMT, Arial">3</text></g><g style="clip-path:url(#clip-path-3)"><text transform="translate(15.88 8.34)" style="font-size:8.491443634033203px;fill:#fff;font-family:ArialMT, Arial">4</text></g><g style="clip-path:url(#clip-path-3)"><text transform="translate(165.93 214.31)" style="font-size:10.311039924621582px;fill:#fff;font-family:ArialMT, Arial"><tspan style="letter-spacing:-0.13894569977214843em">T</tspan><tspan x="4.87" y="0" style="letter-spacing:0.017995693903686577em">r</tspan><tspan x="8.48" y="0" style="letter-spacing:-0.02708825503397032em">a</tspan><tspan x="13.94" y="0" style="letter-spacing:0.015059554372032448em">ff</tspan><tspan x="19.98" y="0" style="letter-spacing:0.010986844699092856em">i</tspan><tspan x="22.38" y="0" style="letter-spacing:0.026993540855529862em">c</tspan><tspan x="27.82" y="0" xml:space="preserve" style="letter-spacing:0.015059554372032448em"> I</tspan><tspan x="33.86" y="0" style="letter-spacing:-0.026993540855529862em">n</tspan><tspan x="39.31" y="0" style="letter-spacing:-0.04195838104912186em">t</tspan><tspan x="41.74" y="0" style="letter-spacing:-0.026993540855529862em">en</tspan><tspan x="52.66" y="0" style="letter-spacing:-0.02898253860277943em">s</tspan><tspan x="57.51" y="0" style="letter-spacing:0.010892130520652401em">i</tspan><tspan x="59.92" y="0" style="letter-spacing:-0.04195838104912186em">t</tspan><tspan x="62.35" y="0">y</tspan></text></g><g style="clip-path:url(#clip-path-3)"><text transform="matrix(0, -1, 1, 0, 8.85, 86.88)" style="font-size:10.310626983642578px;fill:#fff;font-family:ArialMT, Arial">g</text><text transform="matrix(0, -1, 1, 0, 8.85, 91.13)" style="font-size:10.310626983642578px;fill:#fff;font-family:ArialMT, Arial">v</text><text transform="matrix(0, -1, 1, 0, 8.85, 97.8)" style="font-size:10.310626983642578px;fill:#fff;font-family:ArialMT, Arial">A</text></g><g style="clip-path:url(#clip-path-3)"><text transform="matrix(0, -1, 1, 0, 8.85, 81.43)" style="font-size:10.310626983642578px;fill:#fff;font-family:ArialMT, Arial"><tspan style="letter-spacing:0.016006053996420657em">.</tspan><tspan x="3.03" y="0"> </tspan></text></g><g style="clip-path:url(#clip-path-3)"><text transform="matrix(0, -1, 1, 0, 8.85, 19)" style="font-size:10.310626983642578px;fill:#fff;font-family:ArialMT, Arial">h</text><text transform="matrix(0, -1, 1, 0, 8.85, 21.42)" style="font-size:10.310626983642578px;fill:#fff;font-family:ArialMT, Arial">t</text><text transform="matrix(0, -1, 1, 0, 8.85, 26.88)" style="font-size:10.310626983642578px;fill:#fff;font-family:ArialMT, Arial">g</text><text transform="matrix(0, -1, 1, 0, 8.85, 32.33)" style="font-size:10.310626983642578px;fill:#fff;font-family:ArialMT, Arial">n</text><text transform="matrix(0, -1, 1, 0, 8.85, 37.79)" style="font-size:10.310626983642578px;fill:#fff;font-family:ArialMT, Arial">e</text><text transform="matrix(0, -1, 1, 0, 8.85, 43.24)" style="font-size:10.310626983642578px;fill:#fff;font-family:ArialMT, Arial">L</text><text transform="matrix(0, -1, 1, 0, 8.85, 46.26)" style="font-size:10.310626983642578px;fill:#fff;font-family:ArialMT, Arial"> </text><text transform="matrix(0, -1, 1, 0, 8.85, 51.72)" style="font-size:10.310626983642578px;fill:#fff;font-family:ArialMT, Arial">e</text><text transform="matrix(0, -1, 1, 0, 8.85, 57.17)" style="font-size:10.310626983642578px;fill:#fff;font-family:ArialMT, Arial">u</text><text transform="matrix(0, -1, 1, 0, 8.85, 62.63)" style="font-size:10.310626983642578px;fill:#fff;font-family:ArialMT, Arial">e</text><text transform="matrix(0, -1, 1, 0, 8.85, 68.08)" style="font-size:10.310626983642578px;fill:#fff;font-family:ArialMT, Arial">u</text><text transform="matrix(0, -1, 1, 0, 8.85, 75.36)" style="font-size:10.310626983642578px;fill:#fff;font-family:ArialMT, Arial">Q</text></g><polyline points="34.44 193.67 34.44 193.67 45.47 193.35 56.5 192.88 67.53 192.59 78.55 191.68 89.58 190.61 100.61 188.09 111.63 186.92 122.66 181.7 133.69 185.05 144.72 179.16 155.75 170.9 166.77 174.89 177.8 144.46 188.83 153.94 199.86 105.66 210.88 38.52 221.91 101.81" style="fill:none;stroke:#fff;stroke-linecap:round;stroke-linejoin:round;stroke-width:1.5162991285324097px;opacity:0.8980399966239929"/><polyline points="34.38 193.61 34.38 193.73 34.5 193.73 34.5 193.61" style="fill:none;stroke:#fff;stroke-linecap:round;stroke-linejoin:round;stroke-width:4.5488972663879395px;opacity:0.8980399966239929"/><polyline points="45.41 193.29 45.41 193.41 45.53 193.41 45.53 193.29" style="fill:none;stroke:#fff;stroke-linecap:round;stroke-linejoin:round;stroke-width:4.5488972663879395px;opacity:0.8980399966239929"/><polyline points="56.44 192.82 56.44 192.94 56.56 192.94 56.56 192.82" style="fill:none;stroke:#fff;stroke-linecap:round;stroke-linejoin:round;stroke-width:4.5488972663879395px;opacity:0.8980399966239929"/><polyline points="67.47 192.53 67.47 192.66 67.59 192.66 67.59 192.53" style="fill:none;stroke:#fff;stroke-linecap:round;stroke-linejoin:round;stroke-width:4.5488972663879395px;opacity:0.8980399966239929"/><polyline points="78.49 191.62 78.49 191.74 78.61 191.74 78.61 191.62" style="fill:none;stroke:#fff;stroke-linecap:round;stroke-linejoin:round;stroke-width:4.5488972663879395px;opacity:0.8980399966239929"/><polyline points="89.52 190.55 89.52 190.67 89.64 190.67 89.64 190.55" style="fill:none;stroke:#fff;stroke-linecap:round;stroke-linejoin:round;stroke-width:4.5488972663879395px;opacity:0.8980399966239929"/><polyline points="100.55 188.03 100.55 188.15 100.67 188.15 100.67 188.03" style="fill:none;stroke:#fff;stroke-linecap:round;stroke-linejoin:round;stroke-width:4.5488972663879395px;opacity:0.8980399966239929"/><polyline points="111.57 186.86 111.57 186.98 111.69 186.98 111.69 186.86" style="fill:none;stroke:#fff;stroke-linecap:round;stroke-linejoin:round;stroke-width:4.5488972663879395px;opacity:0.8980399966239929"/><polyline points="122.6 181.64 122.6 181.76 122.72 181.76 122.72 181.64" style="fill:none;stroke:#fff;stroke-linecap:round;stroke-linejoin:round;stroke-width:4.5488972663879395px;opacity:0.8980399966239929"/><polyline points="133.63 184.99 133.63 185.11 133.75 185.11 133.75 184.99" style="fill:none;stroke:#fff;stroke-linecap:round;stroke-linejoin:round;stroke-width:4.5488972663879395px;opacity:0.8980399966239929"/><polyline points="144.66 179.1 144.66 179.22 144.78 179.22 144.78 179.1" style="fill:none;stroke:#fff;stroke-linecap:round;stroke-linejoin:round;stroke-width:4.5488972663879395px;opacity:0.8980399966239929"/><polyline points="155.68 170.84 155.68 170.96 155.81 170.96 155.81 170.84" style="fill:none;stroke:#fff;stroke-linecap:round;stroke-linejoin:round;stroke-width:4.5488972663879395px;opacity:0.8980399966239929"/><polyline points="166.71 174.83 166.71 174.95 166.83 174.95 166.83 174.83" style="fill:none;stroke:#fff;stroke-linecap:round;stroke-linejoin:round;stroke-width:4.5488972663879395px;opacity:0.8980399966239929"/><polyline points="177.74 144.4 177.74 144.52 177.86 144.52 177.86 144.4" style="fill:none;stroke:#fff;stroke-linecap:round;stroke-linejoin:round;stroke-width:4.5488972663879395px;opacity:0.8980399966239929"/><polyline points="188.77 153.88 188.77 154.01 188.89 154.01 188.89 153.88" style="fill:none;stroke:#fff;stroke-linecap:round;stroke-linejoin:round;stroke-width:4.5488972663879395px;opacity:0.8980399966239929"/><polyline points="199.79 105.6 199.79 105.72 199.92 105.72 199.92 105.6" style="fill:none;stroke:#fff;stroke-linecap:round;stroke-linejoin:round;stroke-width:4.5488972663879395px;opacity:0.8980399966239929"/><polyline points="210.82 38.46 210.82 38.58 210.94 38.58 210.94 38.46" style="fill:none;stroke:#fff;stroke-linecap:round;stroke-linejoin:round;stroke-width:4.5488972663879395px;opacity:0.8980399966239929"/><polyline points="221.85 101.75 221.85 101.87 221.97 101.87 221.97 101.75" style="fill:none;stroke:#fff;stroke-linecap:round;stroke-linejoin:round;stroke-width:4.5488972663879395px;opacity:0.8980399966239929"/></g></g></svg>