<svg id="Layer_1" data-name="Layer 1" xmlns="http://www.w3.org/2000/svg" xmlns:xlink="http://www.w3.org/1999/xlink" width="91.41mm" height="91.5mm" viewBox="0 0 259.11 259.36"><defs><clipPath id="clip-path" transform="translate(-170.68 -166.66)"><rect x="170.46" y="166.44" width="256" height="256" style="fill:none"/></clipPath><clipPath id="clip-path-2" transform="translate(-170.68 -166.66)"><rect x="170.46" y="166.43" width="256" height="256" style="fill:none"/></clipPath><clipPath id="clip-path-3" transform="translate(-170.68 -166.66)"><rect x="170.68" y="166.66" width="255.64" height="255.65" style="fill:none"/></clipPath></defs><text transform="translate(256.32 256.33)" style="font-size:12px;fill:#0d0d0d;font-family:GoogleSans-Regular, Google Sans"> </text><g style="clip-path:url(#clip-path)"><g style="clip-path:url(#clip-path-2)"><g style="clip-path:url(#clip-path-3)"><line x1="46.33" x2="46.33" y2="255.65" style="fill:none;stroke:#fff;stroke-miterlimit:10;stroke-width:0.6391077041625977px;opacity:0.19607999920845032"/></g><g style="clip-path:url(#clip-path-3)"><line x1="69.34" x2="69.34" y2="255.65" style="fill:none;stroke:#fff;stroke-miterlimit:10;stroke-width:0.6391077041625977px;opacity:0.19607999920845032"/></g><g style="clip-path:url(#clip-path-3)"><line x1="92.35" x2="92.35" y2="255.65" style="fill:none;stroke:#fff;stroke-miterlimit:10;stroke-width:0.6391077041625977px;opacity:0.19607999920845032"/></g><g style="clip-path:url(#clip-path-3)"><line x1="116" x2="116" y2="255.65" style="fill:none;stroke:#fff;stroke-miterlimit:10;stroke-width:0.6391077041625977px;opacity:0.19607999920845032"/></g><g style="clip-path:url(#clip-path-3)"><line x1="139" x2="139" y2="255.65" style="fill:none;stroke:#fff;stroke-miterlimit:10;stroke-width:0.6391077041625977px;opacity:0.19607999920845032"/></g><g style="clip-path:url(#clip-path-3)"><line x1="162.65" x2="162.65" y2="255.65" style="fill:none;stroke:#fff;stroke-miterlimit:10;stroke-width:0.6391077041625977px;opacity:0.19607999920845032"/></g><g style="clip-path:url(#clip-path-3)"><line x1="185.66" x2="185.66" y2="255.65" style="fill:none;stroke:#fff;stroke-miterlimit:10;stroke-width:0.6391077041625977px;opacity:0.19607999920845032"/></g><g style="clip-path:url(#clip-path-3)"><line x1="208.66" x2="208.66" y2="255.65" style="fill:none;stroke:#fff;stroke-miterlimit:10;stroke-width:0.6391077041625977px;opacity:0.19607999920845032"/></g><g style="clip-path:url(#clip-path-3)"><line x1="232.31" x2="232.31" y2="255.65" style="fill:none;stroke:#fff;stroke-miterlimit:10;stroke-width:0.6391077041625977px;opacity:0.19607999920845032"/></g><g style="clip-path:url(#clip-path-3)"><line y1="241.27" x2="255.64" y2="241.27" style="fill:none;stroke:#fff;stroke-miterlimit:10;stroke-width:0.6391077041625977px;opacity:0.19607999920845032"/></g><g style="clip-path:url(#clip-path-3)"><line y1="212.51" x2="255.64" y2="212.51" style="fill:none;stroke:#fff;stroke-miterlimit:10;stroke-width:0.6391077041625977px;opacity:0.19607999920845032"/></g><g style="clip-path:url(#clip-path-3)"><line y1="198.45" x2="255.64" y2="198.45" style="fill:none;stroke:#fff;stroke-miterlimit:10;stroke-width:0.6391077041625977px;opacity:0.19607999920845032"/></g><g style="clip-path:url(#clip-path-3)"><line y1="184.39" x2="255.64" y2="184.39" style="fill:none;stroke:#fff;stroke-miterlimit:10;stroke-width:0.6391077041625977px;opacity:0.19607999920845032"/></g><g style="clip-path:url(#clip-path-3)"><line y1="170.33" x2="255.64" y2="170.33" style="fill:none;stroke:#fff;stroke-miterlimit:10;stroke-width:0.6391077041625977px;opacity:0.19607999920845032"/></g><g style="clip-path:url(#clip-path-3)"><line y1="155.63" x2="255.64" y2="155.63" style="fill:none;stroke:#fff;stroke-miterlimit:10;stroke-width:0.6391077041625977px;opacity:0.19607999920845032"/></g><g style="clip-path:url(#clip-path-3)"><line y1="141.57" x2="255.64" y2="141.57" style="fill:none;stroke:#fff;stroke-miterlimit:10;stroke-width:0.6391077041625977px;opacity:0.19607999920845032"/></g><g style="clip-path:url(#clip-path-3)"><line y1="127.5" x2="255.64" y2="127.5" style="fill:none;stroke:#fff;stroke-miterlimit:10;stroke-width:0.6391077041625977px;opacity:0.19607999920845032"/></g><g style="clip-path:url(#clip-path-3)"><line y1="113.44" x2="255.64" y2="113.44" style="fill:none;stroke:#fff;stroke-miterlimit:10;stroke-width:0.6391077041625977px;opacity:0.19607999920845032"/></g><g style="clip-path:url(#clip-path-3)"><line y1="99.38" x2="255.64" y2="99.38" style="fill:none;stroke:#fff;stroke-miterlimit:10;stroke-width:0.6391077041625977px;opacity:0.19607999920845032"/></g><g style="clip-path:url(#clip-path-3)"><line y1="84.68" x2="255.64" y2="84.68" style="fill:none;stroke:#fff;stroke-miterlimit:10;stroke-width:0.6391077041625977px;opacity:0.19607999920845032"/></g><g style="clip-path:url(#clip-path-3)"><line y1="70.62" x2="255.64" y2="70.62" style="fill:none;stroke:#fff;stroke-miterlimit:10;stroke-width:0.6391077041625977px;opacity:0.19607999920845032"/></g><g style="clip-path:url(#clip-path-3)"><line y1="56.56" x2="255.64" y2="56.56" style="fill:none;stroke:#fff;stroke-miterlimit:10;stroke-width:0.6391077041625977px;opacity:0.19607999920845032"/></g><g style="clip-path:url(#clip-path-3)"><line y1="42.5" x2="255.64" y2="42.5" style="fill:none;stroke:#fff;stroke-miterlimit:10;stroke-width:0.6391077041625977px;opacity:0.19607999920845032"/></g><g style="clip-path:url(#clip-path-3)"><line y1="27.8" x2="255.64" y2="27.8" style="fill:none;stroke:#fff;stroke-miterlimit:10;stroke-width:0.6391077041625977px;opacity:0.19607999920845032"/></g><g style="clip-path:url(#clip-path-3)"><line y1="13.74" x2="255.64" y2="13.74" style="fill:none;stroke:#fff;stroke-miterlimit:10;stroke-width:0.6391077041625977px;opacity:0.19607999920845032"/></g><g style="clip-path:url(#clip-path-3)"><line x1="139" x2="139" y2="255.65" style="fill:none;stroke:#fff;stroke-miterlimit:10;stroke-width:0.6391077041625977px;opacity:0.24706000089645386"/></g><g style="clip-path:url(#clip-path-3)"><line y1="170.33" x2="255.64" y2="170.33" style="fill:none;stroke:#fff;stroke-miterlimit:10;stroke-width:0.6391077041625977px;opacity:0.24706000089645386"/></g><g style="clip-path:url(#clip-path-3)"><line y1="113.44" x2="255.64" y2="113.44" style="fill:none;stroke:#fff;stroke-miterlimit:10;stroke-width:0.6391077041625977px;opacity:0.24706000089645386"/></g><g style="clip-path:url(#clip-path-3)"><line y1="56.56" x2="255.64" y2="56.56" style="fill:none;stroke:#fff;stroke-miterlimit:10;stroke-width:0.6391077041625977px;opacity:0.24706000089645386"/></g><g style="clip-path:url(#clip-path-3)"><line x1="23.01" x2="23.01" y2="255.65" style="fill:none;stroke:#fff;stroke-miterlimit:10;stroke-width:0.9586616158485413px;opacity:0.8980399966239929"/></g><g style="clip-path:url(#clip-path-3)"><line y1="227.53" x2="255.64" y2="227.53" style="fill:none;stroke:#fff;stroke-miterlimit:10;stroke-width:0.9586616158485413px;opacity:0.8980399966239929"/></g><g style="clip-path:url(#clip-path-3)"><text transform="translate(14.98 237.53)" style="font-size:8.947687149047852px;fill:#fff;font-family:ArialMT, Arial">0</text></g><g style="clip-path:url(#clip-path-3)"><text transform="translate(133.15 237.53)" style="font-size:8.947687149047852px;fill:#fff;font-family:ArialMT, Arial">0</text></g><g style="clip-path:url(#clip-path-3)"><text transform="translate(138.27 237.53)" style="font-size:8.947687149047852px;fill:#fff;font-family:ArialMT, Arial">.</text></g><g style="clip-path:url(#clip-path-3)"><text transform="translate(140.82 237.53)" style="font-size:8.947687149047852px;fill:#fff;font-family:ArialMT, Arial">5</text></g><g style="clip-path:url(#clip-path-3)"><text transform="translate(248.89 237.53)" style="font-size:8.947687149047852px;fill:#fff;font-family:ArialMT, Arial">1</text></g><g style="clip-path:url(#clip-path-3)"><text transform="translate(14.98 172.97)" style="font-size:8.947687149047852px;fill:#fff;font-family:ArialMT, Arial">2</text></g><g style="clip-path:url(#clip-path-3)"><text transform="translate(14.98 116.09)" style="font-size:9.011600494384766px;fill:#fff;font-family:ArialMT, Arial">4</text></g><g style="clip-path:url(#clip-path-3)"><text transform="translate(14.98 59.27)" style="font-size:8.947687149047852px;fill:#fff;font-family:ArialMT, Arial">6</text></g><g style="clip-path:url(#clip-path-3)"><text transform="translate(14.98 8.78)" style="font-size:8.947687149047852px;fill:#fff;font-family:ArialMT, Arial">8</text></g><g style="clip-path:url(#clip-path-3)"><text transform="translate(173.1 248.52)" style="font-size:10.928961753845215px;fill:#fff;font-family:ArialMT, Arial"><tspan style="letter-spacing:-0.14199153561398872em">T</tspan><tspan x="5.12" y="0" style="letter-spacing:0.01590591147847073em">r</tspan><tspan x="8.94" y="0" style="letter-spacing:-0.03002464189194475em">a</tspan><tspan x="14.69" y="0" style="letter-spacing:0.013046421774475995em">ff</tspan><tspan x="21.05" y="0" style="letter-spacing:0.010008213963981584em">i</tspan><tspan x="23.58" y="0" style="letter-spacing:0.024037585324205767em">c</tspan><tspan x="29.31" y="0" xml:space="preserve" style="letter-spacing:0.012957062721226159em"> I</tspan><tspan x="35.67" y="0" style="letter-spacing:-0.03002464189194475em">n</tspan><tspan x="41.42" y="0" style="letter-spacing:-0.04298170461317092em">t</tspan><tspan x="43.98" y="0" style="letter-spacing:-0.03002464189194475em">en</tspan><tspan x="55.48" y="0" style="letter-spacing:-0.03091823242444311em">s</tspan><tspan x="60.61" y="0" style="letter-spacing:0.010008213963981584em">i</tspan><tspan x="63.15" y="0" style="letter-spacing:-0.04298170461317092em">t</tspan><tspan x="65.71" y="0">y</tspan></text></g><g style="clip-path:url(#clip-path-3)"><text transform="matrix(0, -1, 1, 0, 10.57, 96.79)" style="font-size:10.86461353302002px;fill:#fff;font-family:ArialMT, Arial"><tspan style="letter-spacing:-0.01900985207759279em">A</tspan><tspan x="7.04" y="0" style="letter-spacing:-0.08700490218018828em">v</tspan><tspan x="11.53" y="0">g</tspan></text></g><g style="clip-path:url(#clip-path-3)"><text transform="matrix(0, -1, 1, 0, 10.57, 79.54)" style="font-size:10.86461353302002px;fill:#fff;font-family:ArialMT, Arial"><tspan style="letter-spacing:0.022020868836927814em">.</tspan><tspan x="3.26" y="0"> </tspan></text></g><g style="clip-path:url(#clip-path-3)"><text transform="matrix(0, -1, 1, 0, 10.58, 18.81)" style="font-size:10.86461353302002px;fill:#fff;font-family:ArialMT, Arial">e</text><text transform="matrix(0, -1, 1, 0, 10.57, 27.12)" style="font-size:10.86461353302002px;fill:#fff;font-family:ArialMT, Arial">m</text><text transform="matrix(0, -1, 1, 0, 10.58, 29.67)" style="font-size:10.86461353302002px;fill:#fff;font-family:ArialMT, Arial">i</text><text transform="matrix(0, -1, 1, 0, 10.57, 34.78)" style="font-size:10.86461353302002px;fill:#fff;font-family:ArialMT, Arial">T</text><text transform="matrix(0, -1, 1, 0, 10.57, 37.97)" style="font-size:10.86461353302002px;fill:#fff;font-family:ArialMT, Arial"> </text><text transform="matrix(0, -1, 1, 0, 10.57, 43.71)" style="font-size:10.86461353302002px;fill:#fff;font-family:ArialMT, Arial">g</text><text transform="matrix(0, -1, 1, 0, 10.57, 49.46)" style="font-size:10.86461353302002px;fill:#fff;font-family:ArialMT, Arial">n</text><text transform="matrix(0, -1, 1, 0, 10.57, 52)" style="font-size:10.86461353302002px;fill:#fff;font-family:ArialMT, Arial">i</text><text transform="matrix(0, -1, 1, 0, 10.57, 54.56)" style="font-size:10.86461353302002px;fill:#fff;font-family:ArialMT, Arial">t</text><text transform="matrix(0, -1, 1, 0, 10.57, 57.1)" style="font-size:10.86461353302002px;fill:#fff;font-family:ArialMT, Arial">i</text><text transform="matrix(0, -1, 1, 0, 10.57, 62.82)" style="font-size:10.86461353302002px;fill:#fff;font-family:ArialMT, Arial">a</text><text transform="matrix(0, -1, 1, 0, 10.57, 73.08)" style="font-size:10.86461353302002px;fill:#fff;font-family:ArialMT, Arial">W</text></g><polyline points="34.54 226.78 34.54 226.78 46.16 226.41 57.78 225.82 69.4 225.35 81.02 224.08 92.64 222.61 104.26 219.27 115.88 217.5 127.5 211.16 139.12 214.58 150.74 207.2 162.36 195.9 173.98 200.21 185.6 166.16 197.22 173.45 208.84 118.15 220.46 23.6 232.08 96.29" style="fill:none;stroke:#fff;stroke-linecap:round;stroke-linejoin:round;stroke-width:1.9173232316970825px"/><polyline points="34.48 226.72 34.48 226.85 34.6 226.85 34.6 226.72" style="fill:none;stroke:#fff;stroke-linecap:round;stroke-linejoin:round;stroke-width:4.26071834564209px"/><polyline points="46.1 226.35 46.1 226.48 46.23 226.48 46.23 226.35" style="fill:none;stroke:#fff;stroke-linecap:round;stroke-linejoin:round;stroke-width:4.26071834564209px"/><polyline points="57.72 225.76 57.72 225.88 57.84 225.88 57.84 225.76" style="fill:none;stroke:#fff;stroke-linecap:round;stroke-linejoin:round;stroke-width:4.26071834564209px"/><polyline points="69.34 225.29 69.34 225.42 69.46 225.42 69.46 225.29" style="fill:none;stroke:#fff;stroke-linecap:round;stroke-linejoin:round;stroke-width:4.26071834564209px"/><polyline points="80.96 224.01 80.96 224.14 81.08 224.14 81.08 224.01" style="fill:none;stroke:#fff;stroke-linecap:round;stroke-linejoin:round;stroke-width:4.26071834564209px"/><polyline points="92.58 222.54 92.58 222.67 92.7 222.67 92.7 222.54" style="fill:none;stroke:#fff;stroke-linecap:round;stroke-linejoin:round;stroke-width:4.26071834564209px"/><polyline points="104.2 219.2 104.2 219.33 104.32 219.33 104.32 219.2" style="fill:none;stroke:#fff;stroke-linecap:round;stroke-linejoin:round;stroke-width:4.26071834564209px"/><polyline points="115.81 217.43 115.81 217.56 115.94 217.56 115.94 217.43" style="fill:none;stroke:#fff;stroke-linecap:round;stroke-linejoin:round;stroke-width:4.26071834564209px"/><polyline points="127.44 211.1 127.44 211.23 127.56 211.23 127.56 211.1" style="fill:none;stroke:#fff;stroke-linecap:round;stroke-linejoin:round;stroke-width:4.26071834564209px"/><polyline points="139.06 214.52 139.06 214.64 139.18 214.64 139.18 214.52" style="fill:none;stroke:#fff;stroke-linecap:round;stroke-linejoin:round;stroke-width:4.26071834564209px"/><polyline points="150.67 207.14 150.67 207.26 150.8 207.26 150.8 207.14" style="fill:none;stroke:#fff;stroke-linecap:round;stroke-linejoin:round;stroke-width:4.26071834564209px"/><polyline points="162.29 195.84 162.29 195.97 162.42 195.97 162.42 195.84" style="fill:none;stroke:#fff;stroke-linecap:round;stroke-linejoin:round;stroke-width:4.26071834564209px"/><polyline points="173.92 200.14 173.92 200.27 174.04 200.27 174.04 200.14" style="fill:none;stroke:#fff;stroke-linecap:round;stroke-linejoin:round;stroke-width:4.26071834564209px"/><polyline points="185.53 166.1 185.53 166.23 185.66 166.23 185.66 166.1" style="fill:none;stroke:#fff;stroke-linecap:round;stroke-linejoin:round;stroke-width:4.26071834564209px"/><polyline points="197.16 173.38 197.16 173.51 197.28 173.51 197.28 173.38" style="fill:none;stroke:#fff;stroke-linecap:round;stroke-linejoin:round;stroke-width:4.26071834564209px"/><polyline points="208.78 118.09 208.78 118.21 208.9 118.21 208.9 118.09" style="fill:none;stroke:#fff;stroke-linecap:round;stroke-linejoin:round;stroke-width:4.26071834564209px"/><polyline points="220.39 23.53 220.39 23.66 220.52 23.66 220.52 23.53" style="fill:none;stroke:#fff;stroke-linecap:round;stroke-linejoin:round;stroke-width:4.26071834564209px"/><polyline points="232.01 96.23 232.01 96.36 232.14 96.36 232.14 96.23" style="fill:none;stroke:#fff;stroke-linecap:round;stroke-linejoin:round;stroke-width:4.26071834564209px"/></g></g></svg>