<svg id="Layer_1" data-name="Layer 1" xmlns="http://www.w3.org/2000/svg" xmlns:xlink="http://www.w3.org/1999/xlink" width="86.82mm" height="86.88mm" viewBox="0 0 246.11 246.27"><defs><clipPath id="clip-path" transform="translate(-148.25 -303.56)"><rect x="148.46" y="303.78" width="242.9" height="242.91" style="fill:none"/></clipPath><clipPath id="clip-path-55" transform="translate(-148.25 -303.56)"><rect x="148.46" y="303.78" width="242.9" height="242.91" style="fill:none"/></clipPath></defs><text transform="translate(243.33 243.23)" style="font-size:12px;fill:#0d0d0d;font-family:GoogleSans-Regular, Google Sans"> </text><g style="clip-path:url(#clip-path)"><line x1="4.77" y1="0.22" x2="4.77" y2="243.13" style="fill:none;stroke:#fff;stroke-miterlimit:10;stroke-width:0.6072745323181152px;opacity:0.19607999920845032"/></g><g style="clip-path:url(#clip-path)"><line x1="14.49" y1="0.22" x2="14.49" y2="243.13" style="fill:none;stroke:#fff;stroke-miterlimit:10;stroke-width:0.6072745323181152px;opacity:0.19607999920845032"/></g><g style="clip-path:url(#clip-path)"><line x1="24.2" y1="0.22" x2="24.2" y2="243.13" style="fill:none;stroke:#fff;stroke-miterlimit:10;stroke-width:0.6072745323181152px;opacity:0.19607999920845032"/></g><g style="clip-path:url(#clip-path)"><line x1="33.92" y1="0.22" x2="33.92" y2="243.13" style="fill:none;stroke:#fff;stroke-miterlimit:10;stroke-width:0.6072745323181152px;opacity:0.19607999920845032"/></g><g style="clip-path:url(#clip-path)"><line x1="43.63" y1="0.22" x2="43.63" y2="243.13" style="fill:none;stroke:#fff;stroke-miterlimit:10;stroke-width:0.6072745323181152px;opacity:0.19607999920845032"/></g><g style="clip-path:url(#clip-path)"><line x1="53.35" y1="0.22" x2="53.35" y2="243.13" style="fill:none;stroke:#fff;stroke-miterlimit:10;stroke-width:0.6072745323181152px;opacity:0.19607999920845032"/></g><g style="clip-path:url(#clip-path)"><line x1="63.07" y1="0.22" x2="63.07" y2="243.13" style="fill:none;stroke:#fff;stroke-miterlimit:10;stroke-width:0.6072745323181152px;opacity:0.19607999920845032"/></g><g style="clip-path:url(#clip-path)"><line x1="72.78" y1="0.22" x2="72.78" y2="243.13" style="fill:none;stroke:#fff;stroke-miterlimit:10;stroke-width:0.6072745323181152px;opacity:0.19607999920845032"/></g><g style="clip-path:url(#clip-path)"><line x1="82.5" y1="0.22" x2="82.5" y2="243.13" style="fill:none;stroke:#fff;stroke-miterlimit:10;stroke-width:0.6072745323181152px;opacity:0.19607999920845032"/></g><g style="clip-path:url(#clip-path)"><line x1="92.22" y1="0.22" x2="92.22" y2="243.13" style="fill:none;stroke:#fff;stroke-miterlimit:10;stroke-width:0.6072745323181152px;opacity:0.19607999920845032"/></g><g style="clip-path:url(#clip-path)"><line x1="101.93" y1="0.22" x2="101.93" y2="243.13" style="fill:none;stroke:#fff;stroke-miterlimit:10;stroke-width:0.6072745323181152px;opacity:0.19607999920845032"/></g><g style="clip-path:url(#clip-path)"><line x1="111.65" y1="0.22" x2="111.65" y2="243.13" style="fill:none;stroke:#fff;stroke-miterlimit:10;stroke-width:0.6072745323181152px;opacity:0.19607999920845032"/></g><g style="clip-path:url(#clip-path)"><line x1="121.36" y1="0.22" x2="121.36" y2="243.13" style="fill:none;stroke:#fff;stroke-miterlimit:10;stroke-width:0.6072745323181152px;opacity:0.19607999920845032"/></g><g style="clip-path:url(#clip-path)"><line x1="131.08" y1="0.22" x2="131.08" y2="243.13" style="fill:none;stroke:#fff;stroke-miterlimit:10;stroke-width:0.6072745323181152px;opacity:0.19607999920845032"/></g><g style="clip-path:url(#clip-path)"><line x1="140.8" y1="0.22" x2="140.8" y2="243.13" style="fill:none;stroke:#fff;stroke-miterlimit:10;stroke-width:0.6072745323181152px;opacity:0.19607999920845032"/></g><g style="clip-path:url(#clip-path)"><line x1="150.51" y1="0.22" x2="150.51" y2="243.13" style="fill:none;stroke:#fff;stroke-miterlimit:10;stroke-width:0.6072745323181152px;opacity:0.19607999920845032"/></g><g style="clip-path:url(#clip-path)"><line x1="160.23" y1="0.22" x2="160.23" y2="243.13" style="fill:none;stroke:#fff;stroke-miterlimit:10;stroke-width:0.6072745323181152px;opacity:0.19607999920845032"/></g><g style="clip-path:url(#clip-path)"><line x1="169.94" y1="0.22" x2="169.94" y2="243.13" style="fill:none;stroke:#fff;stroke-miterlimit:10;stroke-width:0.6072745323181152px;opacity:0.19607999920845032"/></g><g style="clip-path:url(#clip-path)"><line x1="179.66" y1="0.22" x2="179.66" y2="243.13" style="fill:none;stroke:#fff;stroke-miterlimit:10;stroke-width:0.6072745323181152px;opacity:0.19607999920845032"/></g><g style="clip-path:url(#clip-path)"><line x1="189.38" y1="0.22" x2="189.38" y2="243.13" style="fill:none;stroke:#fff;stroke-miterlimit:10;stroke-width:0.6072745323181152px;opacity:0.19607999920845032"/></g><g style="clip-path:url(#clip-path)"><line x1="199.09" y1="0.22" x2="199.09" y2="243.13" style="fill:none;stroke:#fff;stroke-miterlimit:10;stroke-width:0.6072745323181152px;opacity:0.19607999920845032"/></g><g style="clip-path:url(#clip-path)"><line x1="208.81" y1="0.22" x2="208.81" y2="243.13" style="fill:none;stroke:#fff;stroke-miterlimit:10;stroke-width:0.6072745323181152px;opacity:0.19607999920845032"/></g><g style="clip-path:url(#clip-path)"><line x1="218.53" y1="0.22" x2="218.53" y2="243.13" style="fill:none;stroke:#fff;stroke-miterlimit:10;stroke-width:0.6072745323181152px;opacity:0.19607999920845032"/></g><g style="clip-path:url(#clip-path)"><line x1="228.24" y1="0.22" x2="228.24" y2="243.13" style="fill:none;stroke:#fff;stroke-miterlimit:10;stroke-width:0.6072745323181152px;opacity:0.19607999920845032"/></g><g style="clip-path:url(#clip-path)"><line x1="237.96" y1="0.22" x2="237.96" y2="243.13" style="fill:none;stroke:#fff;stroke-miterlimit:10;stroke-width:0.6072745323181152px;opacity:0.19607999920845032"/></g><g style="clip-path:url(#clip-path)"><line x1="0.22" y1="235.54" x2="243.12" y2="235.54" style="fill:none;stroke:#fff;stroke-miterlimit:10;stroke-width:0.6072745323181152px;opacity:0.19607999920845032"/></g><g style="clip-path:url(#clip-path)"><line x1="0.22" y1="224" x2="243.12" y2="224" style="fill:none;stroke:#fff;stroke-miterlimit:10;stroke-width:0.6072745323181152px;opacity:0.19607999920845032"/></g><g style="clip-path:url(#clip-path)"><line x1="0.22" y1="200.92" x2="243.12" y2="200.92" style="fill:none;stroke:#fff;stroke-miterlimit:10;stroke-width:0.6072745323181152px;opacity:0.19607999920845032"/></g><g style="clip-path:url(#clip-path)"><line x1="0.22" y1="189.38" x2="243.12" y2="189.38" style="fill:none;stroke:#fff;stroke-miterlimit:10;stroke-width:0.6072745323181152px;opacity:0.19607999920845032"/></g><g style="clip-path:url(#clip-path)"><line x1="0.22" y1="177.85" x2="243.12" y2="177.85" style="fill:none;stroke:#fff;stroke-miterlimit:10;stroke-width:0.6072745323181152px;opacity:0.19607999920845032"/></g><g style="clip-path:url(#clip-path)"><line x1="0.22" y1="166.31" x2="243.12" y2="166.31" style="fill:none;stroke:#fff;stroke-miterlimit:10;stroke-width:0.6072745323181152px;opacity:0.19607999920845032"/></g><g style="clip-path:url(#clip-path)"><line x1="0.22" y1="154.77" x2="243.12" y2="154.77" style="fill:none;stroke:#fff;stroke-miterlimit:10;stroke-width:0.6072745323181152px;opacity:0.19607999920845032"/></g><g style="clip-path:url(#clip-path)"><line x1="0.22" y1="143.23" x2="243.12" y2="143.23" style="fill:none;stroke:#fff;stroke-miterlimit:10;stroke-width:0.6072745323181152px;opacity:0.19607999920845032"/></g><g style="clip-path:url(#clip-path)"><line x1="0.22" y1="131.69" x2="243.12" y2="131.69" style="fill:none;stroke:#fff;stroke-miterlimit:10;stroke-width:0.6072745323181152px;opacity:0.19607999920845032"/></g><g style="clip-path:url(#clip-path)"><line x1="0.22" y1="120.15" x2="243.12" y2="120.15" style="fill:none;stroke:#fff;stroke-miterlimit:10;stroke-width:0.6072745323181152px;opacity:0.19607999920845032"/></g><g style="clip-path:url(#clip-path)"><line x1="0.22" y1="108.62" x2="243.12" y2="108.62" style="fill:none;stroke:#fff;stroke-miterlimit:10;stroke-width:0.6072745323181152px;opacity:0.19607999920845032"/></g><g style="clip-path:url(#clip-path)"><line x1="0.22" y1="97.08" x2="243.12" y2="97.08" style="fill:none;stroke:#fff;stroke-miterlimit:10;stroke-width:0.6072745323181152px;opacity:0.19607999920845032"/></g><g style="clip-path:url(#clip-path)"><line x1="0.22" y1="85.54" x2="243.12" y2="85.54" style="fill:none;stroke:#fff;stroke-miterlimit:10;stroke-width:0.6072745323181152px;opacity:0.19607999920845032"/></g><g style="clip-path:url(#clip-path)"><line x1="0.22" y1="74.61" x2="243.12" y2="74.61" style="fill:none;stroke:#fff;stroke-miterlimit:10;stroke-width:0.6072745323181152px;opacity:0.19607999920845032"/></g><g style="clip-path:url(#clip-path)"><line x1="0.22" y1="63.07" x2="243.12" y2="63.07" style="fill:none;stroke:#fff;stroke-miterlimit:10;stroke-width:0.6072745323181152px;opacity:0.19607999920845032"/></g><g style="clip-path:url(#clip-path)"><line x1="0.22" y1="51.53" x2="243.12" y2="51.53" style="fill:none;stroke:#fff;stroke-miterlimit:10;stroke-width:0.6072745323181152px;opacity:0.19607999920845032"/></g><g style="clip-path:url(#clip-path)"><line x1="0.22" y1="39.99" x2="243.12" y2="39.99" style="fill:none;stroke:#fff;stroke-miterlimit:10;stroke-width:0.6072745323181152px;opacity:0.19607999920845032"/></g><g style="clip-path:url(#clip-path)"><line x1="0.22" y1="28.45" x2="243.12" y2="28.45" style="fill:none;stroke:#fff;stroke-miterlimit:10;stroke-width:0.6072745323181152px;opacity:0.19607999920845032"/></g><g style="clip-path:url(#clip-path)"><line x1="0.22" y1="16.92" x2="243.12" y2="16.92" style="fill:none;stroke:#fff;stroke-miterlimit:10;stroke-width:0.6072745323181152px;opacity:0.19607999920845032"/></g><g style="clip-path:url(#clip-path)"><line x1="0.22" y1="5.38" x2="243.12" y2="5.38" style="fill:none;stroke:#fff;stroke-miterlimit:10;stroke-width:0.6072745323181152px;opacity:0.19607999920845032"/></g><g style="clip-path:url(#clip-path)"><line x1="24.2" y1="0.22" x2="24.2" y2="243.13" style="fill:none;stroke:#fff;stroke-miterlimit:10;stroke-width:0.6072745323181152px;opacity:0.24706000089645386"/></g><g style="clip-path:url(#clip-path)"><line x1="72.78" y1="0.22" x2="72.78" y2="243.13" style="fill:none;stroke:#fff;stroke-miterlimit:10;stroke-width:0.6072745323181152px;opacity:0.24706000089645386"/></g><g style="clip-path:url(#clip-path)"><line x1="121.36" y1="0.22" x2="121.36" y2="243.13" style="fill:none;stroke:#fff;stroke-miterlimit:10;stroke-width:0.6072745323181152px;opacity:0.24706000089645386"/></g><g style="clip-path:url(#clip-path)"><line x1="169.94" y1="0.22" x2="169.94" y2="243.13" style="fill:none;stroke:#fff;stroke-miterlimit:10;stroke-width:0.6072745323181152px;opacity:0.24706000089645386"/></g><g style="clip-path:url(#clip-path)"><line x1="218.53" y1="0.22" x2="218.53" y2="243.13" style="fill:none;stroke:#fff;stroke-miterlimit:10;stroke-width:0.6072745323181152px;opacity:0.24706000089645386"/></g><g style="clip-path:url(#clip-path)"><line x1="0.22" y1="154.77" x2="243.12" y2="154.77" style="fill:none;stroke:#fff;stroke-miterlimit:10;stroke-width:0.6072745323181152px;opacity:0.24706000089645386"/></g><g style="clip-path:url(#clip-path)"><line x1="0.22" y1="97.08" x2="243.12" y2="97.08" style="fill:none;stroke:#fff;stroke-miterlimit:10;stroke-width:0.6072745323181152px;opacity:0.24706000089645386"/></g><g style="clip-path:url(#clip-path)"><line x1="0.22" y1="39.99" x2="243.12" y2="39.99" style="fill:none;stroke:#fff;stroke-miterlimit:10;stroke-width:0.6072745323181152px;opacity:0.24706000089645386"/></g><g style="clip-path:url(#clip-path)"><line x1="0.22" y1="212.77" x2="243.12" y2="212.77" style="fill:none;stroke:#fff;stroke-miterlimit:10;stroke-width:0.9109118580818176px;opacity:0.8980399966239929"/></g><rect x="0.22" y="0.22" width="242.9" height="242.91" style="fill:none"/><g style="clip-path:url(#clip-path-55)"><text transform="translate(18.4 222.39)" style="font-size:8.562743186950684px;fill:#fff;font-family:ArialMT, Arial">0</text></g><g style="clip-path:url(#clip-path-55)"><text transform="translate(23.26 222.39)" style="font-size:8.562743186950684px;fill:#fff;font-family:ArialMT, Arial">.</text></g><g style="clip-path:url(#clip-path-55)"><text transform="translate(25.69 222.39)" style="font-size:8.562743186950684px;fill:#fff;font-family:ArialMT, Arial">5</text></g><g style="clip-path:url(#clip-path-55)"><text transform="translate(67.04 222.39)" style="font-size:8.562743186950684px;fill:#fff;font-family:ArialMT, Arial">0</text></g><g style="clip-path:url(#clip-path-55)"><text transform="translate(71.9 222.39)" style="font-size:8.562743186950684px;fill:#fff;font-family:ArialMT, Arial">.</text></g><g style="clip-path:url(#clip-path-55)"><text transform="translate(74.33 222.39)" style="font-size:8.562743186950684px;fill:#fff;font-family:ArialMT, Arial">6</text></g><g style="clip-path:url(#clip-path-55)"><text transform="translate(115.68 222.39)" style="font-size:8.562743186950684px;fill:#fff;font-family:ArialMT, Arial">0</text></g><g style="clip-path:url(#clip-path-55)"><text transform="translate(120.54 222.39)" style="font-size:8.562743186950684px;fill:#fff;font-family:ArialMT, Arial">.</text></g><g style="clip-path:url(#clip-path-55)"><text transform="translate(122.97 222.39)" style="font-size:8.562743186950684px;fill:#fff;font-family:ArialMT, Arial">7</text></g><g style="clip-path:url(#clip-path-55)"><text transform="translate(164.26 222.39)" style="font-size:8.562743186950684px;fill:#fff;font-family:ArialMT, Arial">0</text></g><g style="clip-path:url(#clip-path-55)"><text transform="translate(169.18 222.39)" style="font-size:8.562743186950684px;fill:#fff;font-family:ArialMT, Arial">.</text></g><g style="clip-path:url(#clip-path-55)"><text transform="translate(171.61 222.39)" style="font-size:8.562743186950684px;fill:#fff;font-family:ArialMT, Arial">8</text></g><g style="clip-path:url(#clip-path-55)"><text transform="translate(212.91 222.39)" style="font-size:8.562743186950684px;fill:#fff;font-family:ArialMT, Arial">0</text></g><g style="clip-path:url(#clip-path-55)"><text transform="translate(217.76 222.39)" style="font-size:8.562743186950684px;fill:#fff;font-family:ArialMT, Arial">.</text></g><g style="clip-path:url(#clip-path-55)"><text transform="translate(220.19 222.39)" style="font-size:8.562743186950684px;fill:#fff;font-family:ArialMT, Arial">9</text></g><g style="clip-path:url(#clip-path-55)"><text transform="translate(1.82 157.53)" style="font-size:8.502013206481934px;fill:#969696;font-family:ArialMT, Arial;letter-spacing:0.02199705131986727em">5<tspan x="4.92" y="0" style="letter-spacing:0.00005743355435996677em">0</tspan></text></g><g style="clip-path:url(#clip-path-55)"><text transform="translate(1.76 99.96)" style="font-size:8.502013206481934px;fill:#969696;font-family:ArialMT, Arial;letter-spacing:0.015047591242311292em">10<tspan x="9.71" y="0" style="letter-spacing:0.00005743355435996677em">0</tspan></text></g><g style="clip-path:url(#clip-path-55)"><text transform="translate(1.76 42.39)" style="font-size:8.502013206481934px;fill:#969696;font-family:ArialMT, Arial;letter-spacing:0.015047591242311292em">15<tspan x="9.71" y="0" style="letter-spacing:0.00005743355435996677em">0</tspan></text></g><g style="clip-path:url(#clip-path-55)"><text transform="translate(164.69 232.89)" style="font-size:10.323874473571777px;fill:#fff;font-family:ArialMT, Arial;letter-spacing:-0.13896215657486768em">T<tspan x="4.87" y="0" style="letter-spacing:0.0179733218170353em">r</tspan><tspan x="8.49" y="0" style="letter-spacing:-0.026959982725552955em">a</tspan><tspan x="13.96" y="0" style="letter-spacing:0.01504083246794007em">ff</tspan><tspan x="20" y="0" style="letter-spacing:0.010973185951453131em">i</tspan><tspan x="22.41" y="0" style="letter-spacing:0.026959982725552955em">c</tspan><tspan x="27.85" y="0" xml:space="preserve" style="letter-spacing:0.01504083246794007em"> I</tspan><tspan x="33.9" y="0" style="letter-spacing:-0.026959982725552955em">n</tspan><tspan x="39.36" y="0" style="letter-spacing:-0.042000815193493024em">t</tspan><tspan x="41.8" y="0" style="letter-spacing:-0.026959982725552955em">en</tspan><tspan x="52.72" y="0" style="letter-spacing:-0.02904110419910441em">s</tspan><tspan x="57.58" y="0" style="letter-spacing:0.010973185951453131em">i</tspan><tspan x="59.99" y="0" style="letter-spacing:-0.042000815193493024em">t</tspan><tspan x="62.43" y="0" style="letter-spacing:-0.00009459643061597528em">y</tspan></text></g><g style="clip-path:url(#clip-path-55)"><text transform="matrix(0, -1, 1, 0, 24.72, 19.59)" style="font-size:10.32345962524414px;fill:#fff;font-family:ArialMT, Arial">y</text><text transform="matrix(0, -1, 1, 0, 24.72, 25.05)" style="font-size:10.32345962524414px;fill:#fff;font-family:ArialMT, Arial">a</text><text transform="matrix(0, -1, 1, 0, 24.71, 26.87)" style="font-size:10.32345962524414px;fill:#fff;font-family:ArialMT, Arial">l</text><text transform="matrix(0, -1, 1, 0, 24.72, 32.33)" style="font-size:10.32345962524414px;fill:#fff;font-family:ArialMT, Arial">e</text><text transform="matrix(0, -1, 1, 0, 24.72, 39.62)" style="font-size:10.32345962524414px;fill:#fff;font-family:ArialMT, Arial">D</text><text transform="matrix(0, -1, 1, 0, 24.71, 42.64)" style="font-size:10.32345962524414px;fill:#fff;font-family:ArialMT, Arial"> </text><text transform="matrix(0, -1, 1, 0, 24.72, 48.11)" style="font-size:10.32345962524414px;fill:#fff;font-family:ArialMT, Arial">g</text><text transform="matrix(0, -1, 1, 0, 24.72, 53.57)" style="font-size:10.32345962524414px;fill:#fff;font-family:ArialMT, Arial">n</text><text transform="matrix(0, -1, 1, 0, 24.71, 55.98)" style="font-size:10.32345962524414px;fill:#fff;font-family:ArialMT, Arial">i</text><text transform="matrix(0, -1, 1, 0, 24.71, 61.44)" style="font-size:10.32345962524414px;fill:#fff;font-family:ArialMT, Arial">e</text><text transform="matrix(0, -1, 1, 0, 24.72, 66.9)" style="font-size:10.32345962524414px;fill:#fff;font-family:ArialMT, Arial">u</text><text transform="matrix(0, -1, 1, 0, 24.72, 72.37)" style="font-size:10.32345962524414px;fill:#fff;font-family:ArialMT, Arial">e</text><text transform="matrix(0, -1, 1, 0, 24.71, 77.83)" style="font-size:10.32345962524414px;fill:#fff;font-family:ArialMT, Arial">u</text><text transform="matrix(0, -1, 1, 0, 24.71, 85.12)" style="font-size:10.32345962524414px;fill:#fff;font-family:ArialMT, Arial">Q</text><text transform="matrix(0, -1, 1, 0, 24.72, 88.14)" style="font-size:10.32345962524414px;fill:#fff;font-family:ArialMT, Arial"> </text><text transform="matrix(0, -1, 1, 0, 24.72, 93.6)" style="font-size:10.32345962524414px;fill:#fff;font-family:ArialMT, Arial">e</text><text transform="matrix(0, -1, 1, 0, 24.72, 99.06)" style="font-size:10.32345962524414px;fill:#fff;font-family:ArialMT, Arial">g</text><text transform="matrix(0, -1, 1, 0, 24.72, 104.53)" style="font-size:10.32345962524414px;fill:#fff;font-family:ArialMT, Arial">a</text><text transform="matrix(0, -1, 1, 0, 24.72, 108.16)" style="font-size:10.32345962524414px;fill:#fff;font-family:ArialMT, Arial">r</text><text transform="matrix(0, -1, 1, 0, 24.72, 113.62)" style="font-size:10.32345962524414px;fill:#fff;font-family:ArialMT, Arial">e</text><text transform="matrix(0, -1, 1, 0, 24.71, 117.88)" style="font-size:10.32345962524414px;fill:#fff;font-family:ArialMT, Arial">v</text><text transform="matrix(0, -1, 1, 0, 24.72, 124.56)" style="font-size:10.32345962524414px;fill:#fff;font-family:ArialMT, Arial">A</text></g><polyline points="12.06 200.78 12.06 200.78 24.2 203.15 36.35 205.16 48.49 202.57 60.64 159.65 72.78 181.78 84.93 189.75 97.07 161.32 109.22 180.33 133.51 176.8 145.65 129.49 169.94 170.47 182.09 94.39 194.24 115.8 206.38 142.91 218.53 164.42 230.67 15.05" style="fill:none;stroke:#fff;stroke-linecap:round;stroke-linejoin:round;stroke-width:1.5181864500045776px"/><polyline points="12 200.72 12 200.84 12.12 200.84 12.12 200.72" style="fill:none;stroke:#fff;stroke-linecap:round;stroke-linejoin:round;stroke-width:4.554559230804443px"/><polyline points="24.14 203.09 24.14 203.21 24.26 203.21 24.26 203.09" style="fill:none;stroke:#fff;stroke-linecap:round;stroke-linejoin:round;stroke-width:4.554559230804443px"/><polyline points="36.29 205.1 36.29 205.22 36.41 205.22 36.41 205.1" style="fill:none;stroke:#fff;stroke-linecap:round;stroke-linejoin:round;stroke-width:4.554559230804443px"/><polyline points="48.43 202.51 48.43 202.63 48.55 202.63 48.55 202.51" style="fill:none;stroke:#fff;stroke-linecap:round;stroke-linejoin:round;stroke-width:4.554559230804443px"/><polyline points="60.58 159.59 60.58 159.71 60.7 159.71 60.7 159.59" style="fill:none;stroke:#fff;stroke-linecap:round;stroke-linejoin:round;stroke-width:4.554559230804443px"/><polyline points="72.72 181.72 72.72 181.84 72.84 181.84 72.84 181.72" style="fill:none;stroke:#fff;stroke-linecap:round;stroke-linejoin:round;stroke-width:4.554559230804443px"/><polyline points="84.87 189.69 84.87 189.81 84.99 189.81 84.99 189.69" style="fill:none;stroke:#fff;stroke-linecap:round;stroke-linejoin:round;stroke-width:4.554559230804443px"/><polyline points="97.01 161.25 97.01 161.38 97.13 161.38 97.13 161.25" style="fill:none;stroke:#fff;stroke-linecap:round;stroke-linejoin:round;stroke-width:4.554559230804443px"/><polyline points="109.16 180.26 109.16 180.39 109.28 180.39 109.28 180.26" style="fill:none;stroke:#fff;stroke-linecap:round;stroke-linejoin:round;stroke-width:4.554559230804443px"/><polyline points="133.45 176.74 133.45 176.87 133.57 176.87 133.57 176.74" style="fill:none;stroke:#fff;stroke-linecap:round;stroke-linejoin:round;stroke-width:4.554559230804443px"/><polyline points="145.59 129.43 145.59 129.55 145.72 129.55 145.72 129.43" style="fill:none;stroke:#fff;stroke-linecap:round;stroke-linejoin:round;stroke-width:4.554559230804443px"/><polyline points="169.88 170.41 169.88 170.53 170.01 170.53 170.01 170.41" style="fill:none;stroke:#fff;stroke-linecap:round;stroke-linejoin:round;stroke-width:4.554559230804443px"/><polyline points="182.03 94.33 182.03 94.46 182.15 94.46 182.15 94.33" style="fill:none;stroke:#fff;stroke-linecap:round;stroke-linejoin:round;stroke-width:4.554559230804443px"/><polyline points="194.18 115.74 194.18 115.86 194.3 115.86 194.3 115.74" style="fill:none;stroke:#fff;stroke-linecap:round;stroke-linejoin:round;stroke-width:4.554559230804443px"/><polyline points="206.32 142.84 206.32 142.97 206.44 142.97 206.44 142.84" style="fill:none;stroke:#fff;stroke-linecap:round;stroke-linejoin:round;stroke-width:4.554559230804443px"/><polyline points="218.47 164.36 218.47 164.48 218.59 164.48 218.59 164.36" style="fill:none;stroke:#fff;stroke-linecap:round;stroke-linejoin:round;stroke-width:4.554559230804443px"/><polyline points="230.61 14.99 230.61 15.11 230.73 15.11 230.73 14.99" style="fill:none;stroke:#fff;stroke-linecap:round;stroke-linejoin:round;stroke-width:4.554559230804443px"/><rect width="243.25" height="243.25" style="fill:none"/><rect width="243.25" height="243.25" style="fill:none"/></svg>