<svg id="Layer_1" data-name="Layer 1" xmlns="http://www.w3.org/2000/svg" xmlns:xlink="http://www.w3.org/1999/xlink" width="82.53mm" height="82.6mm" viewBox="0 0 233.94 234.15"><defs><clipPath id="clip-path" transform="translate(-176.14 -303.85)"><rect x="176.34" y="304.05" width="230.82" height="230.83" style="fill:none"/></clipPath><clipPath id="clip-path-47" transform="translate(-176.14 -303.85)"><rect x="176.34" y="304.05" width="230.82" height="230.83" style="fill:none"/></clipPath></defs><text transform="translate(231.16 231.11)" style="font-size:12px;fill:#0d0d0d;font-family:GoogleSans-Regular, Google Sans"> </text><g style="clip-path:url(#clip-path)"><line x1="4.53" y1="0.21" x2="4.53" y2="231.03" style="fill:none;stroke:#fff;stroke-miterlimit:10;stroke-width:0.5770590901374817px;opacity:0.19607999920845032"/></g><g style="clip-path:url(#clip-path)"><line x1="13.76" y1="0.21" x2="13.76" y2="231.03" style="fill:none;stroke:#fff;stroke-miterlimit:10;stroke-width:0.5770590901374817px;opacity:0.19607999920845032"/></g><g style="clip-path:url(#clip-path)"><line x1="23" y1="0.21" x2="23" y2="231.03" style="fill:none;stroke:#fff;stroke-miterlimit:10;stroke-width:0.5770590901374817px;opacity:0.19607999920845032"/></g><g style="clip-path:url(#clip-path)"><line x1="32.23" y1="0.21" x2="32.23" y2="231.03" style="fill:none;stroke:#fff;stroke-miterlimit:10;stroke-width:0.5770590901374817px;opacity:0.19607999920845032"/></g><g style="clip-path:url(#clip-path)"><line x1="41.46" y1="0.21" x2="41.46" y2="231.03" style="fill:none;stroke:#fff;stroke-miterlimit:10;stroke-width:0.5770590901374817px;opacity:0.19607999920845032"/></g><g style="clip-path:url(#clip-path)"><line x1="50.7" y1="0.21" x2="50.7" y2="231.03" style="fill:none;stroke:#fff;stroke-miterlimit:10;stroke-width:0.5770590901374817px;opacity:0.19607999920845032"/></g><g style="clip-path:url(#clip-path)"><line x1="59.93" y1="0.21" x2="59.93" y2="231.03" style="fill:none;stroke:#fff;stroke-miterlimit:10;stroke-width:0.5770590901374817px;opacity:0.19607999920845032"/></g><g style="clip-path:url(#clip-path)"><line x1="69.16" y1="0.21" x2="69.16" y2="231.03" style="fill:none;stroke:#fff;stroke-miterlimit:10;stroke-width:0.5770590901374817px;opacity:0.19607999920845032"/></g><g style="clip-path:url(#clip-path)"><line x1="78.39" y1="0.21" x2="78.39" y2="231.03" style="fill:none;stroke:#fff;stroke-miterlimit:10;stroke-width:0.5770590901374817px;opacity:0.19607999920845032"/></g><g style="clip-path:url(#clip-path)"><line x1="87.63" y1="0.21" x2="87.63" y2="231.03" style="fill:none;stroke:#fff;stroke-miterlimit:10;stroke-width:0.5770590901374817px;opacity:0.19607999920845032"/></g><g style="clip-path:url(#clip-path)"><line x1="96.86" y1="0.21" x2="96.86" y2="231.03" style="fill:none;stroke:#fff;stroke-miterlimit:10;stroke-width:0.5770590901374817px;opacity:0.19607999920845032"/></g><g style="clip-path:url(#clip-path)"><line x1="106.09" y1="0.21" x2="106.09" y2="231.03" style="fill:none;stroke:#fff;stroke-miterlimit:10;stroke-width:0.5770590901374817px;opacity:0.19607999920845032"/></g><g style="clip-path:url(#clip-path)"><line x1="115.33" y1="0.21" x2="115.33" y2="231.03" style="fill:none;stroke:#fff;stroke-miterlimit:10;stroke-width:0.5770590901374817px;opacity:0.19607999920845032"/></g><g style="clip-path:url(#clip-path)"><line x1="124.56" y1="0.21" x2="124.56" y2="231.03" style="fill:none;stroke:#fff;stroke-miterlimit:10;stroke-width:0.5770590901374817px;opacity:0.19607999920845032"/></g><g style="clip-path:url(#clip-path)"><line x1="133.79" y1="0.21" x2="133.79" y2="231.03" style="fill:none;stroke:#fff;stroke-miterlimit:10;stroke-width:0.5770590901374817px;opacity:0.19607999920845032"/></g><g style="clip-path:url(#clip-path)"><line x1="143.02" y1="0.21" x2="143.02" y2="231.03" style="fill:none;stroke:#fff;stroke-miterlimit:10;stroke-width:0.5770590901374817px;opacity:0.19607999920845032"/></g><g style="clip-path:url(#clip-path)"><line x1="152.26" y1="0.21" x2="152.26" y2="231.03" style="fill:none;stroke:#fff;stroke-miterlimit:10;stroke-width:0.5770590901374817px;opacity:0.19607999920845032"/></g><g style="clip-path:url(#clip-path)"><line x1="161.49" y1="0.21" x2="161.49" y2="231.03" style="fill:none;stroke:#fff;stroke-miterlimit:10;stroke-width:0.5770590901374817px;opacity:0.19607999920845032"/></g><g style="clip-path:url(#clip-path)"><line x1="170.72" y1="0.21" x2="170.72" y2="231.03" style="fill:none;stroke:#fff;stroke-miterlimit:10;stroke-width:0.5770590901374817px;opacity:0.19607999920845032"/></g><g style="clip-path:url(#clip-path)"><line x1="179.95" y1="0.21" x2="179.95" y2="231.03" style="fill:none;stroke:#fff;stroke-miterlimit:10;stroke-width:0.5770590901374817px;opacity:0.19607999920845032"/></g><g style="clip-path:url(#clip-path)"><line x1="189.19" y1="0.21" x2="189.19" y2="231.03" style="fill:none;stroke:#fff;stroke-miterlimit:10;stroke-width:0.5770590901374817px;opacity:0.19607999920845032"/></g><g style="clip-path:url(#clip-path)"><line x1="198.42" y1="0.21" x2="198.42" y2="231.03" style="fill:none;stroke:#fff;stroke-miterlimit:10;stroke-width:0.5770590901374817px;opacity:0.19607999920845032"/></g><g style="clip-path:url(#clip-path)"><line x1="207.65" y1="0.21" x2="207.65" y2="231.03" style="fill:none;stroke:#fff;stroke-miterlimit:10;stroke-width:0.5770590901374817px;opacity:0.19607999920845032"/></g><g style="clip-path:url(#clip-path)"><line x1="216.89" y1="0.21" x2="216.89" y2="231.03" style="fill:none;stroke:#fff;stroke-miterlimit:10;stroke-width:0.5770590901374817px;opacity:0.19607999920845032"/></g><g style="clip-path:url(#clip-path)"><line x1="226.12" y1="0.21" x2="226.12" y2="231.03" style="fill:none;stroke:#fff;stroke-miterlimit:10;stroke-width:0.5770590901374817px;opacity:0.19607999920845032"/></g><g style="clip-path:url(#clip-path)"><line x1="0.2" y1="230.17" x2="231.02" y2="230.17" style="fill:none;stroke:#fff;stroke-miterlimit:10;stroke-width:0.5770590901374817px;opacity:0.19607999920845032"/></g><g style="clip-path:url(#clip-path)"><line x1="0.2" y1="211.7" x2="231.02" y2="211.7" style="fill:none;stroke:#fff;stroke-miterlimit:10;stroke-width:0.5770590901374817px;opacity:0.19607999920845032"/></g><g style="clip-path:url(#clip-path)"><line x1="0.2" y1="193.24" x2="231.02" y2="193.24" style="fill:none;stroke:#fff;stroke-miterlimit:10;stroke-width:0.5770590901374817px;opacity:0.19607999920845032"/></g><g style="clip-path:url(#clip-path)"><line x1="0.2" y1="174.77" x2="231.02" y2="174.77" style="fill:none;stroke:#fff;stroke-miterlimit:10;stroke-width:0.5770590901374817px;opacity:0.19607999920845032"/></g><g style="clip-path:url(#clip-path)"><line x1="0.2" y1="156.3" x2="231.02" y2="156.3" style="fill:none;stroke:#fff;stroke-miterlimit:10;stroke-width:0.5770590901374817px;opacity:0.19607999920845032"/></g><g style="clip-path:url(#clip-path)"><line x1="0.2" y1="137.84" x2="231.02" y2="137.84" style="fill:none;stroke:#fff;stroke-miterlimit:10;stroke-width:0.5770590901374817px;opacity:0.19607999920845032"/></g><g style="clip-path:url(#clip-path)"><line x1="0.2" y1="119.37" x2="231.02" y2="119.37" style="fill:none;stroke:#fff;stroke-miterlimit:10;stroke-width:0.5770590901374817px;opacity:0.19607999920845032"/></g><g style="clip-path:url(#clip-path)"><line x1="0.2" y1="100.91" x2="231.02" y2="100.91" style="fill:none;stroke:#fff;stroke-miterlimit:10;stroke-width:0.5770590901374817px;opacity:0.19607999920845032"/></g><g style="clip-path:url(#clip-path)"><line x1="0.2" y1="82.44" x2="231.02" y2="82.44" style="fill:none;stroke:#fff;stroke-miterlimit:10;stroke-width:0.5770590901374817px;opacity:0.19607999920845032"/></g><g style="clip-path:url(#clip-path)"><line x1="0.2" y1="63.97" x2="231.02" y2="63.97" style="fill:none;stroke:#fff;stroke-miterlimit:10;stroke-width:0.5770590901374817px;opacity:0.19607999920845032"/></g><g style="clip-path:url(#clip-path)"><line x1="0.2" y1="45.51" x2="231.02" y2="45.51" style="fill:none;stroke:#fff;stroke-miterlimit:10;stroke-width:0.5770590901374817px;opacity:0.19607999920845032"/></g><g style="clip-path:url(#clip-path)"><line x1="0.2" y1="27.04" x2="231.02" y2="27.04" style="fill:none;stroke:#fff;stroke-miterlimit:10;stroke-width:0.5770590901374817px;opacity:0.19607999920845032"/></g><g style="clip-path:url(#clip-path)"><line x1="0.2" y1="8.57" x2="231.02" y2="8.57" style="fill:none;stroke:#fff;stroke-miterlimit:10;stroke-width:0.5770590901374817px;opacity:0.19607999920845032"/></g><g style="clip-path:url(#clip-path)"><line x1="23" y1="0.21" x2="23" y2="231.03" style="fill:none;stroke:#fff;stroke-miterlimit:10;stroke-width:0.5770590901374817px;opacity:0.24706000089645386"/></g><g style="clip-path:url(#clip-path)"><line x1="69.16" y1="0.21" x2="69.16" y2="231.03" style="fill:none;stroke:#fff;stroke-miterlimit:10;stroke-width:0.5770590901374817px;opacity:0.24706000089645386"/></g><g style="clip-path:url(#clip-path)"><line x1="115.33" y1="0.21" x2="115.33" y2="231.03" style="fill:none;stroke:#fff;stroke-miterlimit:10;stroke-width:0.5770590901374817px;opacity:0.24706000089645386"/></g><g style="clip-path:url(#clip-path)"><line x1="161.49" y1="0.21" x2="161.49" y2="231.03" style="fill:none;stroke:#fff;stroke-miterlimit:10;stroke-width:0.5770590901374817px;opacity:0.24706000089645386"/></g><g style="clip-path:url(#clip-path)"><line x1="207.65" y1="0.21" x2="207.65" y2="231.03" style="fill:none;stroke:#fff;stroke-miterlimit:10;stroke-width:0.5770590901374817px;opacity:0.24706000089645386"/></g><g style="clip-path:url(#clip-path)"><line x1="0.2" y1="230.17" x2="231.02" y2="230.17" style="fill:none;stroke:#fff;stroke-miterlimit:10;stroke-width:0.5770590901374817px;opacity:0.24706000089645386"/></g><g style="clip-path:url(#clip-path)"><line x1="0.2" y1="137.84" x2="231.02" y2="137.84" style="fill:none;stroke:#fff;stroke-miterlimit:10;stroke-width:0.5770590901374817px;opacity:0.24706000089645386"/></g><g style="clip-path:url(#clip-path)"><line x1="0.2" y1="45.51" x2="231.02" y2="45.51" style="fill:none;stroke:#fff;stroke-miterlimit:10;stroke-width:0.5770590901374817px;opacity:0.24706000089645386"/></g><rect x="0.2" y="0.21" width="230.82" height="230.83" style="fill:none"/><g style="clip-path:url(#clip-path-47)"><text transform="translate(17.48 227.66)" style="font-size:8.078989028930664px;fill:#969696;font-family:ArialMT, Arial">0</text></g><g style="clip-path:url(#clip-path-47)"><text transform="translate(22.1 227.66)" style="font-size:8.078989028930664px;fill:#969696;font-family:ArialMT, Arial">.</text></g><g style="clip-path:url(#clip-path-47)"><text transform="translate(24.41 227.66)" style="font-size:8.078989028930664px;fill:#969696;font-family:ArialMT, Arial">5</text></g><g style="clip-path:url(#clip-path-47)"><text transform="translate(63.71 227.66)" style="font-size:8.078989028930664px;fill:#969696;font-family:ArialMT, Arial">0</text></g><g style="clip-path:url(#clip-path-47)"><text transform="translate(68.32 227.66)" style="font-size:8.078989028930664px;fill:#969696;font-family:ArialMT, Arial">.</text></g><g style="clip-path:url(#clip-path-47)"><text transform="translate(70.63 227.66)" style="font-size:8.078989028930664px;fill:#969696;font-family:ArialMT, Arial">6</text></g><g style="clip-path:url(#clip-path-47)"><text transform="translate(109.93 227.66)" style="font-size:8.078989028930664px;fill:#969696;font-family:ArialMT, Arial">0</text></g><g style="clip-path:url(#clip-path-47)"><text transform="translate(114.54 227.66)" style="font-size:8.078989028930664px;fill:#969696;font-family:ArialMT, Arial">.</text></g><g style="clip-path:url(#clip-path-47)"><text transform="translate(116.85 227.66)" style="font-size:8.078989028930664px;fill:#969696;font-family:ArialMT, Arial">7</text></g><g style="clip-path:url(#clip-path-47)"><text transform="translate(156.09 227.66)" style="font-size:8.078989028930664px;fill:#969696;font-family:ArialMT, Arial">0</text></g><g style="clip-path:url(#clip-path-47)"><text transform="translate(160.76 227.66)" style="font-size:8.078989028930664px;fill:#969696;font-family:ArialMT, Arial">.</text></g><g style="clip-path:url(#clip-path-47)"><text transform="translate(163.07 227.66)" style="font-size:8.078989028930664px;fill:#969696;font-family:ArialMT, Arial">8</text></g><g style="clip-path:url(#clip-path-47)"><text transform="translate(202.31 227.66)" style="font-size:8.078989028930664px;fill:#969696;font-family:ArialMT, Arial">0</text></g><g style="clip-path:url(#clip-path-47)"><text transform="translate(206.93 227.66)" style="font-size:8.078989028930664px;fill:#969696;font-family:ArialMT, Arial">.</text></g><g style="clip-path:url(#clip-path-47)"><text transform="translate(209.24 227.66)" style="font-size:8.078989028930664px;fill:#969696;font-family:ArialMT, Arial">9</text></g><g style="clip-path:url(#clip-path-47)"><text transform="translate(1.73 227.66)" style="font-size:8.078989028930664px;fill:#969696;font-family:ArialMT, Arial">0</text></g><g style="clip-path:url(#clip-path-47)"><text transform="translate(6.35 227.66)" style="font-size:8.078989028930664px;fill:#969696;font-family:ArialMT, Arial">.</text></g><g style="clip-path:url(#clip-path-47)"><text transform="translate(8.66 227.66)" style="font-size:8.078989028930664px;fill:#969696;font-family:ArialMT, Arial">1</text></g><g style="clip-path:url(#clip-path-47)"><text transform="translate(1.73 140.63)" style="font-size:8.078989028930664px;fill:#969696;font-family:ArialMT, Arial">0</text></g><g style="clip-path:url(#clip-path-47)"><text transform="translate(6.35 140.63)" style="font-size:8.078989028930664px;fill:#969696;font-family:ArialMT, Arial">.</text></g><g style="clip-path:url(#clip-path-47)"><text transform="translate(8.66 140.63)" style="font-size:8.078989028930664px;fill:#969696;font-family:ArialMT, Arial">2</text></g><g style="clip-path:url(#clip-path-47)"><text transform="translate(1.73 48.19)" style="font-size:8.078989028930664px;fill:#969696;font-family:ArialMT, Arial">0</text></g><g style="clip-path:url(#clip-path-47)"><text transform="translate(6.35 48.19)" style="font-size:8.078989028930664px;fill:#969696;font-family:ArialMT, Arial">.</text></g><g style="clip-path:url(#clip-path-47)"><text transform="translate(8.66 48.19)" style="font-size:8.078989028930664px;fill:#969696;font-family:ArialMT, Arial">3</text></g><g style="clip-path:url(#clip-path-47)"><text transform="translate(156.49 217.39)" style="font-size:9.810202598571777px;fill:#fff;font-family:ArialMT, Arial"><tspan style="letter-spacing:-0.13897124002513173em">T</tspan><tspan x="4.63" y="0" style="letter-spacing:0.018018477395808623em">r</tspan><tspan x="8.07" y="0" style="letter-spacing:-0.02707749089314887em">a</tspan><tspan x="13.26" y="0" style="letter-spacing:0.015031989429652498em">ff</tspan><tspan x="19.01" y="0" style="letter-spacing:0.011050005474777665em">i</tspan><tspan x="21.3" y="0" style="letter-spacing:0.02687839169540513em">c</tspan><tspan x="26.47" y="0" xml:space="preserve" style="letter-spacing:0.015031989429652498em"> I</tspan><tspan x="32.21" y="0" style="letter-spacing:-0.02707749089314887em">n</tspan><tspan x="37.4" y="0" style="letter-spacing:-0.042009930723929494em">t</tspan><tspan x="39.72" y="0" style="letter-spacing:-0.02707749089314887em">en</tspan><tspan x="50.1" y="0" style="letter-spacing:-0.02906848287058629em">s</tspan><tspan x="54.72" y="0" style="letter-spacing:0.010950455875905792em">i</tspan><tspan x="57.01" y="0" style="letter-spacing:-0.042009930723929494em">t</tspan><tspan x="59.32" y="0">y</tspan></text></g><g style="clip-path:url(#clip-path-47)"><text transform="matrix(0, -1, 1, 0, 21.23, 19.57)" style="font-size:9.809808731079102px;fill:#fff;font-family:ArialMT, Arial">n</text><text transform="matrix(0, -1, 1, 0, 21.24, 24.76)" style="font-size:9.809808731079102px;fill:#fff;font-family:ArialMT, Arial">o</text><text transform="matrix(0, -1, 1, 0, 21.23, 27.06)" style="font-size:9.809808731079102px;fill:#fff;font-family:ArialMT, Arial">i</text><text transform="matrix(0, -1, 1, 0, 21.24, 29.36)" style="font-size:9.809808731079102px;fill:#fff;font-family:ArialMT, Arial">t</text><text transform="matrix(0, -1, 1, 0, 21.24, 34.55)" style="font-size:9.809808731079102px;fill:#fff;font-family:ArialMT, Arial">a</text><text transform="matrix(0, -1, 1, 0, 21.24, 39.17)" style="font-size:9.809808731079102px;fill:#fff;font-family:ArialMT, Arial">z</text><text transform="matrix(0, -1, 1, 0, 21.24, 41.47)" style="font-size:9.809808731079102px;fill:#fff;font-family:ArialMT, Arial">i</text><text transform="matrix(0, -1, 1, 0, 21.24, 43.19)" style="font-size:9.809808731079102px;fill:#fff;font-family:ArialMT, Arial">l</text><text transform="matrix(0, -1, 1, 0, 21.23, 45.49)" style="font-size:9.809808731079102px;fill:#fff;font-family:ArialMT, Arial">i</text><text transform="matrix(0, -1, 1, 0, 21.23, 47.8)" style="font-size:9.809808731079102px;fill:#fff;font-family:ArialMT, Arial">t</text><text transform="matrix(0, -1, 1, 0, 21.23, 54.14)" style="font-size:9.809808731079102px;fill:#fff;font-family:ArialMT, Arial">U</text><text transform="matrix(0, -1, 1, 0, 21.24, 57.02)" style="font-size:9.809808731079102px;fill:#fff;font-family:ArialMT, Arial"> </text><text transform="matrix(0, -1, 1, 0, 21.23, 60.47)" style="font-size:9.809808731079102px;fill:#fff;font-family:ArialMT, Arial">r</text><text transform="matrix(0, -1, 1, 0, 21.23, 65.66)" style="font-size:9.809808731079102px;fill:#fff;font-family:ArialMT, Arial">e</text><text transform="matrix(0, -1, 1, 0, 21.24, 69.7)" style="font-size:9.809808731079102px;fill:#fff;font-family:ArialMT, Arial">v</text><text transform="matrix(0, -1, 1, 0, 21.24, 73.16)" style="font-size:9.809808731079102px;fill:#fff;font-family:ArialMT, Arial">r</text><text transform="matrix(0, -1, 1, 0, 21.23, 78.34)" style="font-size:9.809808731079102px;fill:#fff;font-family:ArialMT, Arial">e</text><text transform="matrix(0, -1, 1, 0, 21.23, 84.69)" style="font-size:9.809808731079102px;fill:#fff;font-family:ArialMT, Arial">S</text><text transform="matrix(0, -1, 1, 0, 21.24, 87.57)" style="font-size:9.809808731079102px;fill:#fff;font-family:ArialMT, Arial"> </text><text transform="matrix(0, -1, 1, 0, 21.24, 92.76)" style="font-size:9.809808731079102px;fill:#fff;font-family:ArialMT, Arial">e</text><text transform="matrix(0, -1, 1, 0, 21.24, 97.95)" style="font-size:9.809808731079102px;fill:#fff;font-family:ArialMT, Arial">g</text><text transform="matrix(0, -1, 1, 0, 21.24, 103.14)" style="font-size:9.809808731079102px;fill:#fff;font-family:ArialMT, Arial">a</text><text transform="matrix(0, -1, 1, 0, 21.24, 106.59)" style="font-size:9.809808731079102px;fill:#fff;font-family:ArialMT, Arial">r</text><text transform="matrix(0, -1, 1, 0, 21.24, 111.78)" style="font-size:9.809808731079102px;fill:#fff;font-family:ArialMT, Arial">e</text><text transform="matrix(0, -1, 1, 0, 21.23, 115.82)" style="font-size:9.809808731079102px;fill:#fff;font-family:ArialMT, Arial">v</text><text transform="matrix(0, -1, 1, 0, 21.24, 122.17)" style="font-size:9.809808731079102px;fill:#fff;font-family:ArialMT, Arial">A</text></g><polyline points="11.46 191.46 11.46 191.46 23 188.56 34.54 203.09 46.08 179.28 57.62 144.86 69.16 147.72 80.7 113.8 92.24 149.9 103.78 124.52 126.87 139.8 138.41 120.11 161.49 112.57 173.03 96.58 184.57 68.1 196.11 39.23 207.65 90.19 219.19 80.38" style="fill:none;stroke:#fff;stroke-linecap:round;stroke-linejoin:round;stroke-width:1.4426478147506714px"/><polyline points="11.4 191.4 11.4 191.52 11.52 191.52 11.52 191.4" style="fill:none;stroke:#fff;stroke-linecap:round;stroke-linejoin:round;stroke-width:4.327943325042725px"/><polyline points="22.94 188.5 22.94 188.62 23.05 188.62 23.05 188.5" style="fill:none;stroke:#fff;stroke-linecap:round;stroke-linejoin:round;stroke-width:4.327943325042725px"/><polyline points="34.48 203.03 34.48 203.14 34.6 203.14 34.6 203.03" style="fill:none;stroke:#fff;stroke-linecap:round;stroke-linejoin:round;stroke-width:4.327943325042725px"/><polyline points="46.02 179.22 46.02 179.33 46.14 179.33 46.14 179.22" style="fill:none;stroke:#fff;stroke-linecap:round;stroke-linejoin:round;stroke-width:4.327943325042725px"/><polyline points="57.56 144.8 57.56 144.92 57.68 144.92 57.68 144.8" style="fill:none;stroke:#fff;stroke-linecap:round;stroke-linejoin:round;stroke-width:4.327943325042725px"/><polyline points="69.1 147.66 69.1 147.78 69.22 147.78 69.22 147.66" style="fill:none;stroke:#fff;stroke-linecap:round;stroke-linejoin:round;stroke-width:4.327943325042725px"/><polyline points="80.64 113.75 80.64 113.86 80.76 113.86 80.76 113.75" style="fill:none;stroke:#fff;stroke-linecap:round;stroke-linejoin:round;stroke-width:4.327943325042725px"/><polyline points="92.19 149.84 92.19 149.96 92.3 149.96 92.3 149.84" style="fill:none;stroke:#fff;stroke-linecap:round;stroke-linejoin:round;stroke-width:4.327943325042725px"/><polyline points="103.73 124.47 103.73 124.58 103.84 124.58 103.84 124.47" style="fill:none;stroke:#fff;stroke-linecap:round;stroke-linejoin:round;stroke-width:4.327943325042725px"/><polyline points="126.81 139.74 126.81 139.86 126.92 139.86 126.92 139.74" style="fill:none;stroke:#fff;stroke-linecap:round;stroke-linejoin:round;stroke-width:4.327943325042725px"/><polyline points="138.35 120.05 138.35 120.17 138.47 120.17 138.47 120.05" style="fill:none;stroke:#fff;stroke-linecap:round;stroke-linejoin:round;stroke-width:4.327943325042725px"/><polyline points="161.43 112.52 161.43 112.63 161.55 112.63 161.55 112.52" style="fill:none;stroke:#fff;stroke-linecap:round;stroke-linejoin:round;stroke-width:4.327943325042725px"/><polyline points="172.97 96.52 172.97 96.64 173.09 96.64 173.09 96.52" style="fill:none;stroke:#fff;stroke-linecap:round;stroke-linejoin:round;stroke-width:4.327943325042725px"/><polyline points="184.51 68.04 184.51 68.16 184.63 68.16 184.63 68.04" style="fill:none;stroke:#fff;stroke-linecap:round;stroke-linejoin:round;stroke-width:4.327943325042725px"/><polyline points="196.05 39.17 196.05 39.29 196.17 39.29 196.17 39.17" style="fill:none;stroke:#fff;stroke-linecap:round;stroke-linejoin:round;stroke-width:4.327943325042725px"/><polyline points="207.59 90.13 207.59 90.25 207.71 90.25 207.71 90.13" style="fill:none;stroke:#fff;stroke-linecap:round;stroke-linejoin:round;stroke-width:4.327943325042725px"/><polyline points="219.14 80.32 219.14 80.44 219.25 80.44 219.25 80.32" style="fill:none;stroke:#fff;stroke-linecap:round;stroke-linejoin:round;stroke-width:4.327943325042725px"/><rect width="231.15" height="231.15" style="fill:none"/><rect width="231.15" height="231.15" style="fill:none"/></svg>