<svg id="Layer_1" data-name="Layer 1" xmlns="http://www.w3.org/2000/svg" xmlns:xlink="http://www.w3.org/1999/xlink" width="91.49mm" height="91.58mm" viewBox="0 0 259.33 259.59"><defs><clipPath id="clip-path" transform="translate(-163.44 -291.13)"><rect x="163.67" y="291.36" width="255.83" height="255.84" style="fill:none"/></clipPath></defs><text transform="translate(256.55 256.55)" style="font-size:12px;fill:#0d0d0d;font-family:GoogleSans-Regular, Google Sans"> </text><g style="clip-path:url(#clip-path)"><line x1="5.02" y1="0.23" x2="5.02" y2="256.07" style="fill:none;stroke:#fff;stroke-miterlimit:10;stroke-width:0.6395930051803589px;opacity:0.19607999920845032"/></g><g style="clip-path:url(#clip-path)"><line x1="15.26" y1="0.23" x2="15.26" y2="256.07" style="fill:none;stroke:#fff;stroke-miterlimit:10;stroke-width:0.6395930051803589px;opacity:0.19607999920845032"/></g><g style="clip-path:url(#clip-path)"><line x1="25.49" y1="0.23" x2="25.49" y2="256.07" style="fill:none;stroke:#fff;stroke-miterlimit:10;stroke-width:0.6395930051803589px;opacity:0.19607999920845032"/></g><g style="clip-path:url(#clip-path)"><line x1="35.72" y1="0.23" x2="35.72" y2="256.07" style="fill:none;stroke:#fff;stroke-miterlimit:10;stroke-width:0.6395930051803589px;opacity:0.19607999920845032"/></g><g style="clip-path:url(#clip-path)"><line x1="45.96" y1="0.23" x2="45.96" y2="256.07" style="fill:none;stroke:#fff;stroke-miterlimit:10;stroke-width:0.6395930051803589px;opacity:0.19607999920845032"/></g><g style="clip-path:url(#clip-path)"><line x1="56.19" y1="0.23" x2="56.19" y2="256.07" style="fill:none;stroke:#fff;stroke-miterlimit:10;stroke-width:0.6395930051803589px;opacity:0.19607999920845032"/></g><g style="clip-path:url(#clip-path)"><line x1="66.42" y1="0.23" x2="66.42" y2="256.07" style="fill:none;stroke:#fff;stroke-miterlimit:10;stroke-width:0.6395930051803589px;opacity:0.19607999920845032"/></g><g style="clip-path:url(#clip-path)"><line x1="76.66" y1="0.23" x2="76.66" y2="256.07" style="fill:none;stroke:#fff;stroke-miterlimit:10;stroke-width:0.6395930051803589px;opacity:0.19607999920845032"/></g><g style="clip-path:url(#clip-path)"><line x1="86.89" y1="0.23" x2="86.89" y2="256.07" style="fill:none;stroke:#fff;stroke-miterlimit:10;stroke-width:0.6395930051803589px;opacity:0.19607999920845032"/></g><g style="clip-path:url(#clip-path)"><line x1="97.12" y1="0.23" x2="97.12" y2="256.07" style="fill:none;stroke:#fff;stroke-miterlimit:10;stroke-width:0.6395930051803589px;opacity:0.19607999920845032"/></g><g style="clip-path:url(#clip-path)"><line x1="107.36" y1="0.23" x2="107.36" y2="256.07" style="fill:none;stroke:#fff;stroke-miterlimit:10;stroke-width:0.6395930051803589px;opacity:0.19607999920845032"/></g><g style="clip-path:url(#clip-path)"><line x1="117.59" y1="0.23" x2="117.59" y2="256.07" style="fill:none;stroke:#fff;stroke-miterlimit:10;stroke-width:0.6395930051803589px;opacity:0.19607999920845032"/></g><g style="clip-path:url(#clip-path)"><line x1="127.82" y1="0.23" x2="127.82" y2="256.07" style="fill:none;stroke:#fff;stroke-miterlimit:10;stroke-width:0.6395930051803589px;opacity:0.19607999920845032"/></g><g style="clip-path:url(#clip-path)"><line x1="138.06" y1="0.23" x2="138.06" y2="256.07" style="fill:none;stroke:#fff;stroke-miterlimit:10;stroke-width:0.6395930051803589px;opacity:0.19607999920845032"/></g><g style="clip-path:url(#clip-path)"><line x1="148.29" y1="0.23" x2="148.29" y2="256.07" style="fill:none;stroke:#fff;stroke-miterlimit:10;stroke-width:0.6395930051803589px;opacity:0.19607999920845032"/></g><g style="clip-path:url(#clip-path)"><line x1="158.52" y1="0.23" x2="158.52" y2="256.07" style="fill:none;stroke:#fff;stroke-miterlimit:10;stroke-width:0.6395930051803589px;opacity:0.19607999920845032"/></g><g style="clip-path:url(#clip-path)"><line x1="168.76" y1="0.23" x2="168.76" y2="256.07" style="fill:none;stroke:#fff;stroke-miterlimit:10;stroke-width:0.6395930051803589px;opacity:0.19607999920845032"/></g><g style="clip-path:url(#clip-path)"><line x1="178.99" y1="0.23" x2="178.99" y2="256.07" style="fill:none;stroke:#fff;stroke-miterlimit:10;stroke-width:0.6395930051803589px;opacity:0.19607999920845032"/></g><g style="clip-path:url(#clip-path)"><line x1="189.22" y1="0.23" x2="189.22" y2="256.07" style="fill:none;stroke:#fff;stroke-miterlimit:10;stroke-width:0.6395930051803589px;opacity:0.19607999920845032"/></g><g style="clip-path:url(#clip-path)"><line x1="199.46" y1="0.23" x2="199.46" y2="256.07" style="fill:none;stroke:#fff;stroke-miterlimit:10;stroke-width:0.6395930051803589px;opacity:0.19607999920845032"/></g><g style="clip-path:url(#clip-path)"><line x1="209.69" y1="0.23" x2="209.69" y2="256.07" style="fill:none;stroke:#fff;stroke-miterlimit:10;stroke-width:0.6395930051803589px;opacity:0.19607999920845032"/></g><g style="clip-path:url(#clip-path)"><line x1="219.92" y1="0.23" x2="219.92" y2="256.07" style="fill:none;stroke:#fff;stroke-miterlimit:10;stroke-width:0.6395930051803589px;opacity:0.19607999920845032"/></g><g style="clip-path:url(#clip-path)"><line x1="230.16" y1="0.23" x2="230.16" y2="256.07" style="fill:none;stroke:#fff;stroke-miterlimit:10;stroke-width:0.6395930051803589px;opacity:0.19607999920845032"/></g><g style="clip-path:url(#clip-path)"><line x1="240.39" y1="0.23" x2="240.39" y2="256.07" style="fill:none;stroke:#fff;stroke-miterlimit:10;stroke-width:0.6395930051803589px;opacity:0.19607999920845032"/></g><g style="clip-path:url(#clip-path)"><line x1="250.62" y1="0.23" x2="250.62" y2="256.07" style="fill:none;stroke:#fff;stroke-miterlimit:10;stroke-width:0.6395930051803589px;opacity:0.19607999920845032"/></g><g style="clip-path:url(#clip-path)"><line x1="0.23" y1="242.96" x2="256.06" y2="242.96" style="fill:none;stroke:#fff;stroke-miterlimit:10;stroke-width:0.6395930051803589px;opacity:0.19607999920845032"/></g><g style="clip-path:url(#clip-path)"><line x1="0.23" y1="230.17" x2="256.06" y2="230.17" style="fill:none;stroke:#fff;stroke-miterlimit:10;stroke-width:0.6395930051803589px;opacity:0.19607999920845032"/></g><g style="clip-path:url(#clip-path)"><line x1="0.23" y1="217.38" x2="256.06" y2="217.38" style="fill:none;stroke:#fff;stroke-miterlimit:10;stroke-width:0.6395930051803589px;opacity:0.19607999920845032"/></g><g style="clip-path:url(#clip-path)"><line x1="0.23" y1="204.58" x2="256.06" y2="204.58" style="fill:none;stroke:#fff;stroke-miterlimit:10;stroke-width:0.6395930051803589px;opacity:0.19607999920845032"/></g><g style="clip-path:url(#clip-path)"><line x1="0.23" y1="191.79" x2="256.06" y2="191.79" style="fill:none;stroke:#fff;stroke-miterlimit:10;stroke-width:0.6395930051803589px;opacity:0.19607999920845032"/></g><g style="clip-path:url(#clip-path)"><line x1="0.23" y1="179" x2="256.06" y2="179" style="fill:none;stroke:#fff;stroke-miterlimit:10;stroke-width:0.6395930051803589px;opacity:0.19607999920845032"/></g><g style="clip-path:url(#clip-path)"><line x1="0.23" y1="166.21" x2="256.06" y2="166.21" style="fill:none;stroke:#fff;stroke-miterlimit:10;stroke-width:0.6395930051803589px;opacity:0.19607999920845032"/></g><g style="clip-path:url(#clip-path)"><line x1="0.23" y1="153.42" x2="256.06" y2="153.42" style="fill:none;stroke:#fff;stroke-miterlimit:10;stroke-width:0.6395930051803589px;opacity:0.19607999920845032"/></g><g style="clip-path:url(#clip-path)"><line x1="0.23" y1="140.62" x2="256.06" y2="140.62" style="fill:none;stroke:#fff;stroke-miterlimit:10;stroke-width:0.6395930051803589px;opacity:0.19607999920845032"/></g><g style="clip-path:url(#clip-path)"><line x1="0.23" y1="127.83" x2="256.06" y2="127.83" style="fill:none;stroke:#fff;stroke-miterlimit:10;stroke-width:0.6395930051803589px;opacity:0.19607999920845032"/></g><g style="clip-path:url(#clip-path)"><line x1="0.23" y1="115.04" x2="256.06" y2="115.04" style="fill:none;stroke:#fff;stroke-miterlimit:10;stroke-width:0.6395930051803589px;opacity:0.19607999920845032"/></g><g style="clip-path:url(#clip-path)"><line x1="0.23" y1="102.25" x2="256.06" y2="102.25" style="fill:none;stroke:#fff;stroke-miterlimit:10;stroke-width:0.6395930051803589px;opacity:0.19607999920845032"/></g><g style="clip-path:url(#clip-path)"><line x1="0.23" y1="89.45" x2="256.06" y2="89.45" style="fill:none;stroke:#fff;stroke-miterlimit:10;stroke-width:0.6395930051803589px;opacity:0.19607999920845032"/></g><g style="clip-path:url(#clip-path)"><line x1="0.23" y1="76.66" x2="256.06" y2="76.66" style="fill:none;stroke:#fff;stroke-miterlimit:10;stroke-width:0.6395930051803589px;opacity:0.19607999920845032"/></g><g style="clip-path:url(#clip-path)"><line x1="0.23" y1="63.87" x2="256.06" y2="63.87" style="fill:none;stroke:#fff;stroke-miterlimit:10;stroke-width:0.6395930051803589px;opacity:0.19607999920845032"/></g><g style="clip-path:url(#clip-path)"><line x1="0.23" y1="51.08" x2="256.06" y2="51.08" style="fill:none;stroke:#fff;stroke-miterlimit:10;stroke-width:0.6395930051803589px;opacity:0.19607999920845032"/></g><g style="clip-path:url(#clip-path)"><line x1="0.23" y1="38.29" x2="256.06" y2="38.29" style="fill:none;stroke:#fff;stroke-miterlimit:10;stroke-width:0.6395930051803589px;opacity:0.19607999920845032"/></g><g style="clip-path:url(#clip-path)"><line x1="0.23" y1="25.49" x2="256.06" y2="25.49" style="fill:none;stroke:#fff;stroke-miterlimit:10;stroke-width:0.6395930051803589px;opacity:0.19607999920845032"/></g><g style="clip-path:url(#clip-path)"><line x1="0.23" y1="12.7" x2="256.06" y2="12.7" style="fill:none;stroke:#fff;stroke-miterlimit:10;stroke-width:0.6395930051803589px;opacity:0.19607999920845032"/></g><g style="clip-path:url(#clip-path)"><line x1="25.49" y1="0.23" x2="25.49" y2="256.07" style="fill:none;stroke:#fff;stroke-miterlimit:10;stroke-width:0.6395930051803589px;opacity:0.24706000089645386"/></g><g style="clip-path:url(#clip-path)"><line x1="76.66" y1="0.23" x2="76.66" y2="256.07" style="fill:none;stroke:#fff;stroke-miterlimit:10;stroke-width:0.6395930051803589px;opacity:0.24706000089645386"/></g><g style="clip-path:url(#clip-path)"><line x1="127.82" y1="0.23" x2="127.82" y2="256.07" style="fill:none;stroke:#fff;stroke-miterlimit:10;stroke-width:0.6395930051803589px;opacity:0.24706000089645386"/></g><g style="clip-path:url(#clip-path)"><line x1="178.99" y1="0.23" x2="178.99" y2="256.07" style="fill:none;stroke:#fff;stroke-miterlimit:10;stroke-width:0.6395930051803589px;opacity:0.24706000089645386"/></g><g style="clip-path:url(#clip-path)"><line x1="230.16" y1="0.23" x2="230.16" y2="256.07" style="fill:none;stroke:#fff;stroke-miterlimit:10;stroke-width:0.6395930051803589px;opacity:0.24706000089645386"/></g><g style="clip-path:url(#clip-path)"><line x1="0.23" y1="191.79" x2="256.06" y2="191.79" style="fill:none;stroke:#fff;stroke-miterlimit:10;stroke-width:0.6395930051803589px;opacity:0.24706000089645386"/></g><g style="clip-path:url(#clip-path)"><line x1="0.23" y1="127.83" x2="256.06" y2="127.83" style="fill:none;stroke:#fff;stroke-miterlimit:10;stroke-width:0.6395930051803589px;opacity:0.24706000089645386"/></g><g style="clip-path:url(#clip-path)"><line x1="0.23" y1="63.87" x2="256.06" y2="63.87" style="fill:none;stroke:#fff;stroke-miterlimit:10;stroke-width:0.6395930051803589px;opacity:0.24706000089645386"/></g><rect x="0.23" y="0.23" width="255.83" height="255.84" style="fill:none"/><g style="clip-path:url(#clip-path)"><text transform="translate(19.38 252.33)" style="font-size:8.95448112487793px;fill:#969696;font-family:ArialMT, Arial">0</text></g><g style="clip-path:url(#clip-path)"><text transform="translate(24.5 252.33)" style="font-size:8.95448112487793px;fill:#969696;font-family:ArialMT, Arial">.</text></g><g style="clip-path:url(#clip-path)"><text transform="translate(27.05 252.33)" style="font-size:8.95448112487793px;fill:#969696;font-family:ArialMT, Arial">5</text></g><g style="clip-path:url(#clip-path)"><text transform="translate(70.61 252.33)" style="font-size:8.95448112487793px;fill:#969696;font-family:ArialMT, Arial">0</text></g><g style="clip-path:url(#clip-path)"><text transform="translate(75.73 252.33)" style="font-size:8.95448112487793px;fill:#969696;font-family:ArialMT, Arial">.</text></g><g style="clip-path:url(#clip-path)"><text transform="translate(78.28 252.33)" style="font-size:8.95448112487793px;fill:#969696;font-family:ArialMT, Arial">6</text></g><g style="clip-path:url(#clip-path)"><text transform="translate(121.84 252.33)" style="font-size:8.95448112487793px;fill:#969696;font-family:ArialMT, Arial">0</text></g><g style="clip-path:url(#clip-path)"><text transform="translate(126.96 252.33)" style="font-size:8.95448112487793px;fill:#969696;font-family:ArialMT, Arial">.</text></g><g style="clip-path:url(#clip-path)"><text transform="translate(129.52 252.33)" style="font-size:8.95448112487793px;fill:#969696;font-family:ArialMT, Arial">7</text></g><g style="clip-path:url(#clip-path)"><text transform="translate(173.01 252.33)" style="font-size:8.95448112487793px;fill:#969696;font-family:ArialMT, Arial">0</text></g><g style="clip-path:url(#clip-path)"><text transform="translate(178.19 252.33)" style="font-size:8.95448112487793px;fill:#969696;font-family:ArialMT, Arial">.</text></g><g style="clip-path:url(#clip-path)"><text transform="translate(180.75 252.33)" style="font-size:8.95448112487793px;fill:#969696;font-family:ArialMT, Arial">8</text></g><g style="clip-path:url(#clip-path)"><text transform="translate(224.24 252.33)" style="font-size:8.95448112487793px;fill:#969696;font-family:ArialMT, Arial">0</text></g><g style="clip-path:url(#clip-path)"><text transform="translate(229.35 252.33)" style="font-size:8.95448112487793px;fill:#969696;font-family:ArialMT, Arial">.</text></g><g style="clip-path:url(#clip-path)"><text transform="translate(231.91 252.33)" style="font-size:8.95448112487793px;fill:#969696;font-family:ArialMT, Arial">9</text></g><g style="clip-path:url(#clip-path)"><text transform="translate(1.92 194.7)" style="font-size:8.95448112487793px;fill:#969696;font-family:ArialMT, Arial">0</text></g><g style="clip-path:url(#clip-path)"><text transform="translate(7.04 194.7)" style="font-size:8.95448112487793px;fill:#969696;font-family:ArialMT, Arial">.</text></g><g style="clip-path:url(#clip-path)"><text transform="translate(9.59 194.7)" style="font-size:8.95448112487793px;fill:#969696;font-family:ArialMT, Arial">2</text></g><g style="clip-path:url(#clip-path)"><text transform="translate(1.92 130.67)" style="font-size:8.95448112487793px;fill:#969696;font-family:ArialMT, Arial">0</text></g><g style="clip-path:url(#clip-path)"><text transform="translate(7.04 130.67)" style="font-size:8.95448112487793px;fill:#969696;font-family:ArialMT, Arial">.</text></g><g style="clip-path:url(#clip-path)"><text transform="translate(9.59 130.67)" style="font-size:8.95448112487793px;fill:#969696;font-family:ArialMT, Arial">3</text></g><g style="clip-path:url(#clip-path)"><text transform="translate(1.92 66.65)" style="font-size:8.95448112487793px;fill:#969696;font-family:ArialMT, Arial">0</text></g><g style="clip-path:url(#clip-path)"><text transform="translate(7.04 66.65)" style="font-size:8.95448112487793px;fill:#969696;font-family:ArialMT, Arial">.</text></g><g style="clip-path:url(#clip-path)"><text transform="translate(9.59 66.65)" style="font-size:8.95448112487793px;fill:#969696;font-family:ArialMT, Arial">4</text></g><g style="clip-path:url(#clip-path)"><text transform="translate(1.92 9.02)" style="font-size:8.95448112487793px;fill:#969696;font-family:ArialMT, Arial">0</text></g><g style="clip-path:url(#clip-path)"><text transform="translate(7.04 9.02)" style="font-size:8.95448112487793px;fill:#969696;font-family:ArialMT, Arial">.</text></g><g style="clip-path:url(#clip-path)"><text transform="translate(9.59 9.02)" style="font-size:8.95448112487793px;fill:#969696;font-family:ArialMT, Arial">5</text></g><g style="clip-path:url(#clip-path)"><text transform="translate(173.45 240.94)" style="font-size:10.873299598693848px;fill:#fff;font-family:ArialMT, Arial"><tspan style="letter-spacing:-0.13903594486635054em">T</tspan><tspan x="5.13" y="0" style="letter-spacing:0.01796330037032953em">r</tspan><tspan x="8.95" y="0" style="letter-spacing:-0.026944950555494288em">a</tspan><tspan x="14.7" y="0" style="letter-spacing:0.014999355809225156em">ff</tspan><tspan x="21.07" y="0" style="letter-spacing:0.010957613225901011em">i</tspan><tspan x="23.6" y="0" style="letter-spacing:0.026944950555494288em">c</tspan><tspan x="29.33" y="0" xml:space="preserve" style="letter-spacing:0.014999355809225156em"> I</tspan><tspan x="35.7" y="0" style="letter-spacing:-0.027034767057345938em">n</tspan><tspan x="41.46" y="0" style="letter-spacing:-0.04194430636471944em">t</tspan><tspan x="44.02" y="0" style="letter-spacing:-0.027034767057345938em">en</tspan><tspan x="55.53" y="0" style="letter-spacing:-0.029010730098082187em">s</tspan><tspan x="60.65" y="0" style="letter-spacing:0.010957613225901011em">i</tspan><tspan x="63.18" y="0" style="letter-spacing:-0.04194430636471944em">t</tspan><tspan x="65.75" y="0">y</tspan></text></g><g style="clip-path:url(#clip-path)"><text transform="matrix(0, -1, 1, 0, 23.54, 19.07)" style="font-size:10.872862815856934px;fill:#fff;font-family:ArialMT, Arial">e</text><text transform="matrix(0, -1, 1, 0, 23.53, 24.19)" style="font-size:10.872862815856934px;fill:#fff;font-family:ArialMT, Arial">z</text><text transform="matrix(0, -1, 1, 0, 23.54, 26.73)" style="font-size:10.872862815856934px;fill:#fff;font-family:ArialMT, Arial">i</text><text transform="matrix(0, -1, 1, 0, 23.54, 33.83)" style="font-size:10.872862815856934px;fill:#fff;font-family:ArialMT, Arial">S</text><text transform="matrix(0, -1, 1, 0, 23.54, 37.02)" style="font-size:10.872862815856934px;fill:#fff;font-family:ArialMT, Arial"> </text><text transform="matrix(0, -1, 1, 0, 23.53, 45.4)" style="font-size:10.872862815856934px;fill:#fff;font-family:ArialMT, Arial">m</text><text transform="matrix(0, -1, 1, 0, 23.54, 51.22)" style="font-size:10.872862815856934px;fill:#fff;font-family:ArialMT, Arial">e</text><text transform="matrix(0, -1, 1, 0, 23.54, 53.77)" style="font-size:10.872862815856934px;fill:#fff;font-family:ArialMT, Arial">t</text><text transform="matrix(0, -1, 1, 0, 23.54, 58.89)" style="font-size:10.872862815856934px;fill:#fff;font-family:ArialMT, Arial">s</text><text transform="matrix(0, -1, 1, 0, 23.54, 64.7)" style="font-size:10.872862815856934px;fill:#fff;font-family:ArialMT, Arial">y</text><text transform="matrix(0, -1, 1, 0, 23.54, 71.8)" style="font-size:10.872862815856934px;fill:#fff;font-family:ArialMT, Arial">S</text><text transform="matrix(0, -1, 1, 0, 23.54, 74.99)" style="font-size:10.872862815856934px;fill:#fff;font-family:ArialMT, Arial"> </text><text transform="matrix(0, -1, 1, 0, 23.54, 80.8)" style="font-size:10.872862815856934px;fill:#fff;font-family:ArialMT, Arial">e</text><text transform="matrix(0, -1, 1, 0, 23.54, 86.62)" style="font-size:10.872862815856934px;fill:#fff;font-family:ArialMT, Arial">g</text><text transform="matrix(0, -1, 1, 0, 23.54, 92.44)" style="font-size:10.872862815856934px;fill:#fff;font-family:ArialMT, Arial">a</text><text transform="matrix(0, -1, 1, 0, 23.54, 96.26)" style="font-size:10.872862815856934px;fill:#fff;font-family:ArialMT, Arial">r</text><text transform="matrix(0, -1, 1, 0, 23.54, 102.08)" style="font-size:10.872862815856934px;fill:#fff;font-family:ArialMT, Arial">e</text><text transform="matrix(0, -1, 1, 0, 23.54, 106.56)" style="font-size:10.872862815856934px;fill:#fff;font-family:ArialMT, Arial">v</text><text transform="matrix(0, -1, 1, 0, 23.53, 113.66)" style="font-size:10.872862815856934px;fill:#fff;font-family:ArialMT, Arial">A</text></g><polyline points="12.7 217.39 12.7 217.39 25.49 217.96 38.28 229.97 51.07 209.03 63.87 149.6 76.66 167.02 89.45 146.83 102.24 161.02 115.03 155.94 140.61 148.82 153.41 108.73 178.99 134.57 191.78 66.52 204.57 55.88 217.36 49.89 230.16 110.17 242.95 22.36" style="fill:none;stroke:#fff;stroke-linecap:round;stroke-linejoin:round;stroke-width:1.598982572555542px;opacity:0.8980399966239929"/><polyline points="12.63 217.32 12.63 217.45 12.76 217.45 12.76 217.32" style="fill:none;stroke:#fff;stroke-linecap:round;stroke-linejoin:round;stroke-width:4.796947479248047px;opacity:0.8980399966239929"/><polyline points="25.43 217.89 25.43 218.02 25.55 218.02 25.55 217.89" style="fill:none;stroke:#fff;stroke-linecap:round;stroke-linejoin:round;stroke-width:4.796947479248047px;opacity:0.8980399966239929"/><polyline points="38.22 229.91 38.22 230.04 38.34 230.04 38.34 229.91" style="fill:none;stroke:#fff;stroke-linecap:round;stroke-linejoin:round;stroke-width:4.796947479248047px;opacity:0.8980399966239929"/><polyline points="51.01 208.96 51.01 209.09 51.14 209.09 51.14 208.96" style="fill:none;stroke:#fff;stroke-linecap:round;stroke-linejoin:round;stroke-width:4.796947479248047px;opacity:0.8980399966239929"/><polyline points="63.8 149.54 63.8 149.67 63.93 149.67 63.93 149.54" style="fill:none;stroke:#fff;stroke-linecap:round;stroke-linejoin:round;stroke-width:4.796947479248047px;opacity:0.8980399966239929"/><polyline points="76.59 166.96 76.59 167.08 76.72 167.08 76.72 166.96" style="fill:none;stroke:#fff;stroke-linecap:round;stroke-linejoin:round;stroke-width:4.796947479248047px;opacity:0.8980399966239929"/><polyline points="89.38 146.77 89.38 146.9 89.51 146.9 89.51 146.77" style="fill:none;stroke:#fff;stroke-linecap:round;stroke-linejoin:round;stroke-width:4.796947479248047px;opacity:0.8980399966239929"/><polyline points="102.18 160.96 102.18 161.09 102.3 161.09 102.3 160.96" style="fill:none;stroke:#fff;stroke-linecap:round;stroke-linejoin:round;stroke-width:4.796947479248047px;opacity:0.8980399966239929"/><polyline points="114.97 155.88 114.97 156.01 115.09 156.01 115.09 155.88" style="fill:none;stroke:#fff;stroke-linecap:round;stroke-linejoin:round;stroke-width:4.796947479248047px;opacity:0.8980399966239929"/><polyline points="140.55 148.75 140.55 148.88 140.68 148.88 140.68 148.75" style="fill:none;stroke:#fff;stroke-linecap:round;stroke-linejoin:round;stroke-width:4.796947479248047px;opacity:0.8980399966239929"/><polyline points="153.34 108.67 153.34 108.8 153.47 108.8 153.47 108.67" style="fill:none;stroke:#fff;stroke-linecap:round;stroke-linejoin:round;stroke-width:4.796947479248047px;opacity:0.8980399966239929"/><polyline points="178.93 134.51 178.93 134.63 179.05 134.63 179.05 134.51" style="fill:none;stroke:#fff;stroke-linecap:round;stroke-linejoin:round;stroke-width:4.796947479248047px;opacity:0.8980399966239929"/><polyline points="191.72 66.45 191.72 66.58 191.84 66.58 191.84 66.45" style="fill:none;stroke:#fff;stroke-linecap:round;stroke-linejoin:round;stroke-width:4.796947479248047px;opacity:0.8980399966239929"/><polyline points="204.51 55.82 204.51 55.95 204.64 55.95 204.64 55.82" style="fill:none;stroke:#fff;stroke-linecap:round;stroke-linejoin:round;stroke-width:4.796947479248047px;opacity:0.8980399966239929"/><polyline points="217.3 49.82 217.3 49.95 217.43 49.95 217.43 49.82" style="fill:none;stroke:#fff;stroke-linecap:round;stroke-linejoin:round;stroke-width:4.796947479248047px;opacity:0.8980399966239929"/><polyline points="230.09 110.11 230.09 110.24 230.22 110.24 230.22 110.11" style="fill:none;stroke:#fff;stroke-linecap:round;stroke-linejoin:round;stroke-width:4.796947479248047px;opacity:0.8980399966239929"/><polyline points="242.88 22.29 242.88 22.42 243.01 22.42 243.01 22.29" style="fill:none;stroke:#fff;stroke-linecap:round;stroke-linejoin:round;stroke-width:4.796947479248047px;opacity:0.8980399966239929"/><rect width="256.2" height="256.2" style="fill:none"/><rect width="256.2" height="256.2" style="fill:none"/></svg>