<svg version="1.1" viewBox="0.0 0.0 482.0 255.0" fill="none" stroke="none" stroke-linecap="square" stroke-miterlimit="10" width="482" height="255" xmlns:xlink="http://www.w3.org/1999/xlink" xmlns="http://www.w3.org/2000/svg"><path fill="#ffffff" fill-opacity="0.0" d="M0 0L482.0 0L482.0 255.0L0 255.0L0 0Z" fill-rule="nonzero"/><path fill="#4285f4" d="M241.0 55.25C273.5573 55.25 303.77048 72.18567 320.75995 99.958595C337.74942 127.73152 339.06873 162.34238 324.24277 191.32805L282.6214 170.03903C290.03436 155.54619 289.37473 138.24077 280.87997 124.3543C272.38522 110.467834 257.27866 102.0 241.0 102.0Z" fill-rule="nonzero"/><path fill="#ea4335" d="M324.24277 191.32805C303.30734 232.25816 255.72307 251.89577 212.01442 237.64368C168.30579 223.3916 141.4433 179.47914 148.65877 134.07535C155.87422 88.67156 195.02646 55.25 241.0 55.25L241.0 102.0C218.01323 102.0 198.43712 118.71078 194.82938 141.41267C191.22165 164.11456 204.6529 186.0708 226.50722 193.19684C248.36153 200.32288 272.15366 190.50409 282.6214 170.03903Z" fill-rule="nonzero"/><path fill="#000000" d="M22.390625 177.75809L22.625 181.36746L22.390625 181.36746Q21.90625 179.74246 21.0 179.03934Q20.109375 178.32059 18.84375 178.32059Q17.796875 178.32059 16.9375 178.86746Q16.09375 179.39871 15.59375 180.57059Q15.109375 181.74246 15.109375 183.47684Q15.109375 184.91434 15.5625 185.97684Q16.03125 187.02371 16.953125 187.58621Q17.890625 188.14871 19.078125 188.14871Q20.109375 188.14871 20.890625 187.71121Q21.6875 187.27371 22.625 185.96121L22.875 186.11746Q22.078125 187.52371 21.015625 188.19559Q19.953125 188.85184 18.484375 188.85184Q15.859375 188.85184 14.40625 186.88309Q13.328125 185.42996 13.328125 183.46121Q13.328125 181.88309 14.03125 180.55496Q14.75 179.22684 16.0 178.49246Q17.25 177.75809 18.71875 177.75809Q19.875 177.75809 20.984375 178.32059Q21.3125 178.49246 21.453125 178.49246Q21.671875 178.49246 21.828125 178.35184Q22.03125 178.13309 22.109375 177.75809L22.390625 177.75809ZM30.53125 181.44559L30.53125 185.77371Q30.53125 187.02371 30.578125 187.30496Q30.640625 187.57059 30.765625 187.67996Q30.90625 187.78934 31.078125 187.78934Q31.3125 187.78934 31.625 187.66434L31.734375 187.92996L29.59375 188.82059L29.234375 188.82059L29.234375 187.30496Q28.3125 188.30496 27.828125 188.57059Q27.34375 188.82059 26.8125 188.82059Q26.203125 188.82059 25.765625 188.47684Q25.328125 188.11746 25.15625 187.57059Q24.984375 187.02371 24.984375 186.02371L24.984375 182.83621Q24.984375 182.32059 24.875 182.13309Q24.765625 181.92996 24.546875 181.83621Q24.328125 181.72684 23.765625 181.72684L23.765625 181.44559L26.28125 181.44559L26.28125 186.22684Q26.28125 187.22684 26.625 187.53934Q26.96875 187.85184 27.46875 187.85184Q27.796875 187.85184 28.21875 187.64871Q28.65625 187.42996 29.234375 186.83621L29.234375 182.78934Q29.234375 182.17996 29.015625 181.96121Q28.796875 181.74246 28.09375 181.72684L28.09375 181.44559L30.53125 181.44559ZM33.34375 181.22684L33.34375 182.83621Q34.25 181.22684 35.1875 181.22684Q35.625 181.22684 35.90625 181.49246Q36.1875 181.75809 36.1875 182.10184Q36.1875 182.39871 35.984375 182.61746Q35.78125 182.82059 35.5 182.82059Q35.21875 182.82059 34.875 182.55496Q34.546875 182.28934 34.375 182.28934Q34.234375 182.28934 34.078125 182.44559Q33.71875 182.75809 33.34375 183.49246L33.34375 186.92996Q33.34375 187.52371 33.5 187.82059Q33.59375 188.03934 33.84375 188.17996Q34.109375 188.32059 34.59375 188.32059L34.59375 188.60184L30.9375 188.60184L30.9375 188.32059Q31.484375 188.32059 31.75 188.14871Q31.9375 188.02371 32.015625 187.74246Q32.0625 187.61746 32.0625 186.99246L32.0625 184.21121Q32.0625 182.96121 32.0 182.72684Q31.953125 182.49246 31.8125 182.38309Q31.6875 182.27371 31.484375 182.27371Q31.234375 182.27371 30.9375 182.38309L30.859375 182.10184L33.015625 181.22684L33.34375 181.22684ZM38.34375 181.22684L38.34375 182.83621Q39.25 181.22684 40.1875 181.22684Q40.625 181.22684 40.90625 181.49246Q41.1875 181.75809 41.1875 182.10184Q41.1875 182.39871 40.984375 182.61746Q40.78125 182.82059 40.5 182.82059Q40.21875 182.82059 39.875 182.55496Q39.546875 182.28934 39.375 182.28934Q39.234375 182.28934 39.078125 182.44559Q38.71875 182.75809 38.34375 183.49246L38.34375 186.92996Q38.34375 187.52371 38.5 187.82059Q38.59375 188.03934 38.84375 188.17996Q39.109375 188.32059 39.59375 188.32059L39.59375 188.60184L35.9375 188.60184L35.9375 188.32059Q36.484375 188.32059 36.75 188.14871Q36.9375 188.02371 37.015625 187.74246Q37.0625 187.61746 37.0625 186.99246L37.0625 184.21121Q37.0625 182.96121 37.0 182.72684Q36.953125 182.49246 36.8125 182.38309Q36.6875 182.27371 36.484375 182.27371Q36.234375 182.27371 35.9375 182.38309L35.859375 182.10184L38.015625 181.22684L38.34375 181.22684ZM42.453125 184.13309Q42.453125 185.72684 43.234375 186.63309Q44.015625 187.53934 45.0625 187.53934Q45.765625 187.53934 46.28125 187.16434Q46.8125 186.77371 47.15625 185.83621L47.40625 185.99246Q47.234375 187.05496 46.4375 187.94559Q45.65625 188.82059 44.46875 188.82059Q43.1875 188.82059 42.265625 187.82059Q41.34375 186.80496 41.34375 185.11746Q41.34375 183.27371 42.28125 182.25809Q43.234375 181.22684 44.65625 181.22684Q45.859375 181.22684 46.625 182.02371Q47.40625 182.80496 47.40625 184.13309L42.453125 184.13309ZM42.453125 183.67996L45.765625 183.67996Q45.734375 182.99246 45.609375 182.71121Q45.40625 182.27371 45.015625 182.02371Q44.640625 181.77371 44.21875 181.77371Q43.5625 181.77371 43.046875 182.28934Q42.546875 182.78934 42.453125 183.67996ZM50.34375 182.74246Q51.59375 181.22684 52.734375 181.22684Q53.328125 181.22684 53.75 181.52371Q54.171875 181.82059 54.421875 182.49246Q54.59375 182.96121 54.59375 183.92996L54.59375 186.97684Q54.59375 187.66434 54.703125 187.89871Q54.78125 188.10184 54.96875 188.21121Q55.171875 188.32059 55.6875 188.32059L55.6875 188.60184L52.140625 188.60184L52.140625 188.32059L52.296875 188.32059Q52.796875 188.32059 52.984375 188.16434Q53.1875 188.00809 53.265625 187.71121Q53.296875 187.60184 53.296875 186.97684L53.296875 184.05496Q53.296875 183.07059 53.046875 182.63309Q52.796875 182.19559 52.1875 182.19559Q51.265625 182.19559 50.34375 183.21121L50.34375 186.97684Q50.34375 187.71121 50.421875 187.88309Q50.53125 188.10184 50.71875 188.21121Q50.921875 188.32059 51.5 188.32059L51.5 188.60184L47.96875 188.60184L47.96875 188.32059L48.125 188.32059Q48.671875 188.32059 48.859375 188.03934Q49.046875 187.75809 49.046875 186.97684L49.046875 184.32059Q49.046875 183.03934 48.984375 182.75809Q48.9375 182.47684 48.8125 182.38309Q48.6875 182.27371 48.484375 182.27371Q48.265625 182.27371 47.96875 182.38309L47.84375 182.10184L50.0 181.22684L50.34375 181.22684L50.34375 182.74246ZM57.328125 179.08621L57.328125 181.44559L59.0 181.44559L59.0 181.99246L57.328125 181.99246L57.328125 186.63309Q57.328125 187.32059 57.53125 187.57059Q57.734375 187.80496 58.046875 187.80496Q58.296875 187.80496 58.53125 187.64871Q58.78125 187.49246 58.921875 187.17996L59.21875 187.17996Q58.953125 187.94559 58.453125 188.33621Q57.953125 188.72684 57.421875 188.72684Q57.0625 188.72684 56.71875 188.52371Q56.375 188.32059 56.203125 187.94559Q56.046875 187.57059 56.046875 186.80496L56.046875 181.99246L54.90625 181.99246L54.90625 181.72684Q55.34375 181.55496 55.78125 181.14871Q56.234375 180.74246 56.59375 180.17996Q56.765625 179.88309 57.09375 179.08621L57.328125 179.08621ZM70.078125 185.05496L65.96875 185.05496L65.25 186.72684Q64.984375 187.33621 64.984375 187.64871Q64.984375 187.88309 65.21875 188.07059Q65.453125 188.25809 66.21875 188.30496L66.21875 188.60184L62.875 188.60184L62.875 188.30496Q63.546875 188.19559 63.734375 188.00809Q64.140625 187.63309 64.625 186.47684L68.34375 177.75809L68.625 177.75809L72.3125 186.57059Q72.75 187.63309 73.109375 187.96121Q73.484375 188.27371 74.125 188.30496L74.125 188.60184L69.953125 188.60184L69.953125 188.30496Q70.578125 188.27371 70.796875 188.10184Q71.03125 187.91434 71.03125 187.66434Q71.03125 187.32059 70.71875 186.57059L70.078125 185.05496ZM69.859375 184.47684L68.0625 180.19559L66.21875 184.47684L69.859375 184.47684ZM78.875 181.22684L78.875 183.66434L78.625 183.66434Q78.328125 182.52371 77.859375 182.11746Q77.390625 181.69559 76.671875 181.69559Q76.125 181.69559 75.78125 181.99246Q75.453125 182.27371 75.453125 182.61746Q75.453125 183.05496 75.703125 183.36746Q75.953125 183.69559 76.6875 184.05496L77.828125 184.60184Q79.421875 185.38309 79.421875 186.64871Q79.421875 187.61746 78.671875 188.22684Q77.9375 188.82059 77.03125 188.82059Q76.375 188.82059 75.53125 188.58621Q75.265625 188.50809 75.109375 188.50809Q74.921875 188.50809 74.828125 188.71121L74.5625 188.71121L74.5625 186.14871L74.828125 186.14871Q75.046875 187.24246 75.65625 187.80496Q76.28125 188.35184 77.046875 188.35184Q77.578125 188.35184 77.921875 188.03934Q78.265625 187.72684 78.265625 187.27371Q78.265625 186.74246 77.875 186.38309Q77.5 186.00809 76.359375 185.44559Q75.234375 184.88309 74.890625 184.42996Q74.53125 183.97684 74.53125 183.30496Q74.53125 182.41434 75.140625 181.82059Q75.75 181.22684 76.703125 181.22684Q77.125 181.22684 77.734375 181.41434Q78.125 181.52371 78.265625 181.52371Q78.390625 181.52371 78.453125 181.47684Q78.53125 181.41434 78.625 181.22684L78.875 181.22684ZM84.875 181.22684L84.875 183.66434L84.625 183.66434Q84.328125 182.52371 83.859375 182.11746Q83.390625 181.69559 82.671875 181.69559Q82.125 181.69559 81.78125 181.99246Q81.453125 182.27371 81.453125 182.61746Q81.453125 183.05496 81.703125 183.36746Q81.953125 183.69559 82.6875 184.05496L83.828125 184.60184Q85.421875 185.38309 85.421875 186.64871Q85.421875 187.61746 84.671875 188.22684Q83.9375 188.82059 83.03125 188.82059Q82.375 188.82059 81.53125 188.58621Q81.265625 188.50809 81.109375 188.50809Q80.921875 188.50809 80.828125 188.71121L80.5625 188.71121L80.5625 186.14871L80.828125 186.14871Q81.046875 187.24246 81.65625 187.80496Q82.28125 188.35184 83.046875 188.35184Q83.578125 188.35184 83.921875 188.03934Q84.265625 187.72684 84.265625 187.27371Q84.265625 186.74246 83.875 186.38309Q83.5 186.00809 82.359375 185.44559Q81.234375 184.88309 80.890625 184.42996Q80.53125 183.97684 80.53125 183.30496Q80.53125 182.41434 81.140625 181.82059Q81.75 181.22684 82.703125 181.22684Q83.125 181.22684 83.734375 181.41434Q84.125 181.52371 84.265625 181.52371Q84.390625 181.52371 84.453125 181.47684Q84.53125 181.41434 84.625 181.22684L84.875 181.22684ZM87.453125 184.13309Q87.453125 185.72684 88.234375 186.63309Q89.015625 187.53934 90.0625 187.53934Q90.765625 187.53934 91.28125 187.16434Q91.8125 186.77371 92.15625 185.83621L92.40625 185.99246Q92.234375 187.05496 91.4375 187.94559Q90.65625 188.82059 89.46875 188.82059Q88.1875 188.82059 87.265625 187.82059Q86.34375 186.80496 86.34375 185.11746Q86.34375 183.27371 87.28125 182.25809Q88.234375 181.22684 89.65625 181.22684Q90.859375 181.22684 91.625 182.02371Q92.40625 182.80496 92.40625 184.13309L87.453125 184.13309ZM87.453125 183.67996L90.765625 183.67996Q90.734375 182.99246 90.609375 182.71121Q90.40625 182.27371 90.015625 182.02371Q89.640625 181.77371 89.21875 181.77371Q88.5625 181.77371 88.046875 182.28934Q87.546875 182.78934 87.453125 183.67996ZM95.328125 179.08621L95.328125 181.44559L97.0 181.44559L97.0 181.99246L95.328125 181.99246L95.328125 186.63309Q95.328125 187.32059 95.53125 187.57059Q95.734375 187.80496 96.046875 187.80496Q96.296875 187.80496 96.53125 187.64871Q96.78125 187.49246 96.921875 187.17996L97.21875 187.17996Q96.953125 187.94559 96.453125 188.33621Q95.953125 188.72684 95.421875 188.72684Q95.0625 188.72684 94.71875 188.52371Q94.375 188.32059 94.203125 187.94559Q94.046875 187.57059 94.046875 186.80496L94.046875 181.99246L92.90625 181.99246L92.90625 181.72684Q93.34375 181.55496 93.78125 181.14871Q94.234375 180.74246 94.59375 180.17996Q94.765625 179.88309 95.09375 179.08621L95.328125 179.08621ZM101.875 181.22684L101.875 183.66434L101.625 183.66434Q101.328125 182.52371 100.859375 182.11746Q100.390625 181.69559 99.671875 181.69559Q99.125 181.69559 98.78125 181.99246Q98.453125 182.27371 98.453125 182.61746Q98.453125 183.05496 98.703125 183.36746Q98.953125 183.69559 99.6875 184.05496L100.828125 184.60184Q102.421875 185.38309 102.421875 186.64871Q102.421875 187.61746 101.671875 188.22684Q100.9375 188.82059 100.03125 188.82059Q99.375 188.82059 98.53125 188.58621Q98.265625 188.50809 98.109375 188.50809Q97.921875 188.50809 97.828125 188.71121L97.5625 188.71121L97.5625 186.14871L97.828125 186.14871Q98.046875 187.24246 98.65625 187.80496Q99.28125 188.35184 100.046875 188.35184Q100.578125 188.35184 100.921875 188.03934Q101.265625 187.72684 101.265625 187.27371Q101.265625 186.74246 100.875 186.38309Q100.5 186.00809 99.359375 185.44559Q98.234375 184.88309 97.890625 184.42996Q97.53125 183.97684 97.53125 183.30496Q97.53125 182.41434 98.140625 181.82059Q98.75 181.22684 99.703125 181.22684Q100.125 181.22684 100.734375 181.41434Q101.125 181.52371 101.265625 181.52371Q101.390625 181.52371 101.453125 181.47684Q101.53125 181.41434 101.625 181.22684L101.875 181.22684Z" fill-rule="nonzero"/><path fill="#9e9e9e" d="M19.921875 200.78934L19.921875 201.07059Q18.890625 201.17996 18.234375 201.49246Q17.59375 201.78934 16.953125 202.42996Q16.3125 203.05496 15.890625 203.83621Q15.484375 204.61746 15.203125 205.67996Q16.328125 204.91434 17.453125 204.91434Q18.546875 204.91434 19.34375 205.78934Q20.140625 206.66434 20.140625 208.03934Q20.140625 209.36746 19.328125 210.46121Q18.359375 211.78934 16.765625 211.78934Q15.6875 211.78934 14.921875 211.07059Q13.4375 209.66434 13.4375 207.44559Q13.4375 206.02371 14.0 204.74246Q14.578125 203.46121 15.640625 202.47684Q16.703125 201.47684 17.671875 201.13309Q18.640625 200.78934 19.46875 200.78934L19.921875 200.78934ZM15.0625 206.25809Q14.921875 207.30496 14.921875 207.96121Q14.921875 208.71121 15.203125 209.58621Q15.484375 210.46121 16.03125 210.97684Q16.421875 211.35184 17.0 211.35184Q17.671875 211.35184 18.203125 210.71121Q18.75 210.07059 18.75 208.88309Q18.75 207.53934 18.21875 206.57059Q17.6875 205.58621 16.703125 205.58621Q16.40625 205.58621 16.0625 205.71121Q15.734375 205.83621 15.0625 206.25809ZM22.359375 201.00809L28.046875 201.00809L28.046875 201.30496L24.515625 211.82059L23.640625 211.82059L26.796875 202.27371L23.890625 202.27371Q23.0 202.27371 22.625 202.49246Q21.96875 202.85184 21.578125 203.60184L21.34375 203.50809L22.359375 201.00809ZM30.75 210.08621Q31.125 210.08621 31.375 210.33621Q31.625 210.58621 31.625 210.94559Q31.625 211.30496 31.359375 211.57059Q31.109375 211.82059 30.75 211.82059Q30.390625 211.82059 30.140625 211.57059Q29.890625 211.30496 29.890625 210.94559Q29.890625 210.58621 30.140625 210.33621Q30.390625 210.08621 30.75 210.08621ZM39.703125 201.00809L39.09375 202.33621L35.90625 202.33621L35.203125 203.75809Q37.28125 204.05496 38.484375 205.28934Q39.53125 206.35184 39.53125 207.78934Q39.53125 208.63309 39.1875 209.35184Q38.84375 210.05496 38.328125 210.55496Q37.8125 211.05496 37.1875 211.35184Q36.28125 211.78934 35.34375 211.78934Q34.390625 211.78934 33.953125 211.46121Q33.515625 211.13309 33.515625 210.74246Q33.515625 210.52371 33.6875 210.36746Q33.875 210.19559 34.15625 210.19559Q34.359375 210.19559 34.5 210.25809Q34.65625 210.32059 35.03125 210.57059Q35.609375 210.97684 36.21875 210.97684Q37.125 210.97684 37.8125 210.28934Q38.515625 209.60184 38.515625 208.60184Q38.515625 207.64871 37.890625 206.82059Q37.28125 205.97684 36.1875 205.52371Q35.34375 205.17996 33.875 205.11746L35.90625 201.00809L39.703125 201.00809ZM51.625 200.75809L43.90625 212.03934L43.21875 212.03934L50.9375 200.75809L51.625 200.75809ZM43.59375 200.75809Q44.65625 200.75809 45.234375 201.63309Q45.8125 202.50809 45.8125 203.64871Q45.8125 205.00809 45.15625 205.75809Q44.5 206.49246 43.578125 206.49246Q42.96875 206.49246 42.453125 206.14871Q41.9375 205.80496 41.625 205.13309Q41.3125 204.46121 41.3125 203.64871Q41.3125 202.82059 41.625 202.13309Q41.9375 201.44559 42.484375 201.10184Q43.03125 200.75809 43.59375 200.75809ZM43.578125 201.19559Q43.171875 201.19559 42.859375 201.66434Q42.5625 202.13309 42.5625 203.63309Q42.5625 204.72684 42.734375 205.28934Q42.859375 205.72684 43.140625 205.96121Q43.3125 206.10184 43.546875 206.10184Q43.921875 206.10184 44.1875 205.69559Q44.578125 205.08621 44.578125 203.67996Q44.578125 202.19559 44.203125 201.60184Q43.953125 201.19559 43.578125 201.19559ZM51.265625 206.33621Q51.828125 206.33621 52.375 206.69559Q52.921875 207.03934 53.21875 207.71121Q53.53125 208.38309 53.53125 209.19559Q53.53125 210.57059 52.859375 211.30496Q52.203125 212.03934 51.296875 212.03934Q50.71875 212.03934 50.1875 211.67996Q49.65625 211.33621 49.34375 210.67996Q49.03125 210.02371 49.03125 209.19559Q49.03125 208.36746 49.34375 207.69559Q49.65625 207.00809 50.1875 206.67996Q50.71875 206.33621 51.265625 206.33621ZM51.28125 206.75809Q50.90625 206.75809 50.625 207.17996Q50.28125 207.72684 50.28125 209.24246Q50.28125 210.64871 50.640625 211.19559Q50.90625 211.60184 51.28125 211.60184Q51.640625 211.60184 51.921875 211.16434Q52.296875 210.60184 52.296875 209.21121Q52.296875 207.74246 51.921875 207.14871Q51.65625 206.75809 51.28125 206.75809Z" fill-rule="nonzero"/><path stroke="#757575" stroke-width="1.0" stroke-linecap="butt" d="M12.75 195.10184L141.5 195.10184L165.22806 195.10184" fill-rule="nonzero"/><path fill="#9e9e9e" d="M167.22806 195.10184C167.22806 193.99727 166.33263 193.10184 165.22806 193.10184C164.12349 193.10184 163.22806 193.99727 163.22806 195.10184C163.22806 196.2064 164.12349 197.10184 165.22806 197.10184C166.33263 197.10184 167.22806 196.2064 167.22806 195.10184" fill-rule="nonzero"/><path fill="#000000" d="M350.03125 85.30442L352.92188 85.30442L359.39062 93.24192L359.39062 87.132545Q359.39062 86.163795 359.17188 85.913795Q358.89062 85.58567 358.26562 85.58567L357.89062 85.58567L357.89062 85.30442L361.57812 85.30442L361.57812 85.58567L361.20312 85.58567Q360.53125 85.58567 360.25 85.99192Q360.07812 86.24192 360.07812 87.132545L360.07812 96.070045L359.79688 96.070045L352.8125 87.538795L352.8125 94.05442Q352.8125 95.038795 353.03125 95.27317Q353.32812 95.601295 353.9375 95.601295L354.3125 95.601295L354.3125 95.89817L350.625 95.89817L350.625 95.601295L351.0 95.601295Q351.67188 95.601295 351.95312 95.195045Q352.125 94.945045 352.125 94.05442L352.125 86.695045Q351.67188 86.14817 351.42188 85.976295Q351.1875 85.80442 350.73438 85.663795Q350.5 85.58567 350.03125 85.58567L350.03125 85.30442ZM366.25 88.52317Q367.875 88.52317 368.85938 89.757545Q369.70312 90.820045 369.70312 92.17942Q369.70312 93.14817 369.23438 94.132545Q368.78125 95.11692 367.96875 95.61692Q367.15625 96.11692 366.17188 96.11692Q364.54688 96.11692 363.59375 94.820045Q362.79688 93.74192 362.79688 92.382545Q362.79688 91.39817 363.28125 90.42942Q363.76562 89.46067 364.5625 88.99192Q365.35938 88.52317 366.25 88.52317ZM366.01562 89.038795Q365.59375 89.038795 365.17188 89.288795Q364.76562 89.52317 364.5 90.14817Q364.25 90.757545 364.25 91.726295Q364.25 93.288795 364.85938 94.42942Q365.48438 95.55442 366.5 95.55442Q367.26562 95.55442 367.75 94.92942Q368.25 94.30442 368.25 92.788795Q368.25 90.882545 367.42188 89.788795Q366.875 89.038795 366.01562 89.038795ZM372.84375 90.038795Q374.09375 88.52317 375.23438 88.52317Q375.82812 88.52317 376.25 88.820045Q376.67188 89.11692 376.92188 89.788795Q377.09375 90.257545 377.09375 91.226295L377.09375 94.27317Q377.09375 94.96067 377.20312 95.195045Q377.28125 95.39817 377.46875 95.507545Q377.67188 95.61692 378.1875 95.61692L378.1875 95.89817L374.64062 95.89817L374.64062 95.61692L374.79688 95.61692Q375.29688 95.61692 375.48438 95.46067Q375.6875 95.30442 375.76562 95.007545Q375.79688 94.89817 375.79688 94.27317L375.79688 91.351295Q375.79688 90.36692 375.54688 89.92942Q375.29688 89.49192 374.6875 89.49192Q373.76562 89.49192 372.84375 90.507545L372.84375 94.27317Q372.84375 95.007545 372.92188 95.17942Q373.03125 95.39817 373.21875 95.507545Q373.42188 95.61692 374.0 95.61692L374.0 95.89817L370.46875 95.89817L370.46875 95.61692L370.625 95.61692Q371.17188 95.61692 371.35938 95.33567Q371.54688 95.05442 371.54688 94.27317L371.54688 91.61692Q371.54688 90.33567 371.48438 90.05442Q371.4375 89.77317 371.3125 89.67942Q371.1875 89.570045 370.98438 89.570045Q370.76562 89.570045 370.46875 89.67942L370.34375 89.39817L372.5 88.52317L372.84375 88.52317L372.84375 90.038795ZM377.90625 91.71067L381.9375 91.71067L381.9375 92.89817L377.90625 92.89817L377.90625 91.71067ZM389.82812 93.17942Q389.54688 94.58567 388.70312 95.351295Q387.85938 96.11692 386.82812 96.11692Q385.60938 96.11692 384.70312 95.101295Q383.79688 94.070045 383.79688 92.320045Q383.79688 90.632545 384.79688 89.58567Q385.8125 88.52317 387.21875 88.52317Q388.26562 88.52317 388.9375 89.08567Q389.625 89.64817 389.625 90.24192Q389.625 90.538795 389.4375 90.726295Q389.25 90.913795 388.90625 90.913795Q388.4375 90.913795 388.20312 90.61692Q388.07812 90.445045 388.03125 89.99192Q387.98438 89.52317 387.71875 89.288795Q387.4375 89.05442 386.95312 89.05442Q386.17188 89.05442 385.70312 89.632545Q385.0625 90.39817 385.0625 91.64817Q385.0625 92.92942 385.6875 93.913795Q386.32812 94.89817 387.39062 94.89817Q388.15625 94.89817 388.76562 94.36692Q389.20312 94.007545 389.60938 93.070045L389.82812 93.17942ZM397.03125 88.74192L397.03125 93.070045Q397.03125 94.320045 397.07812 94.601295Q397.14062 94.86692 397.26562 94.976295Q397.40625 95.08567 397.57812 95.08567Q397.8125 95.08567 398.125 94.96067L398.23438 95.226295L396.09375 96.11692L395.73438 96.11692L395.73438 94.601295Q394.8125 95.601295 394.32812 95.86692Q393.84375 96.11692 393.3125 96.11692Q392.70312 96.11692 392.26562 95.77317Q391.82812 95.413795 391.65625 94.86692Q391.48438 94.320045 391.48438 93.320045L391.48438 90.132545Q391.48438 89.61692 391.375 89.42942Q391.26562 89.226295 391.04688 89.132545Q390.82812 89.02317 390.26562 89.02317L390.26562 88.74192L392.78125 88.74192L392.78125 93.52317Q392.78125 94.52317 393.125 94.83567Q393.46875 95.14817 393.96875 95.14817Q394.29688 95.14817 394.71875 94.945045Q395.15625 94.726295 395.73438 94.132545L395.73438 90.08567Q395.73438 89.476295 395.51562 89.257545Q395.29688 89.038795 394.59375 89.02317L394.59375 88.74192L397.03125 88.74192ZM399.84375 88.52317L399.84375 90.132545Q400.75 88.52317 401.6875 88.52317Q402.125 88.52317 402.40625 88.788795Q402.6875 89.05442 402.6875 89.39817Q402.6875 89.695045 402.48438 89.913795Q402.28125 90.11692 402.0 90.11692Q401.71875 90.11692 401.375 89.851295Q401.04688 89.58567 400.875 89.58567Q400.73438 89.58567 400.57812 89.74192Q400.21875 90.05442 399.84375 90.788795L399.84375 94.226295Q399.84375 94.820045 400.0 95.11692Q400.09375 95.33567 400.34375 95.476295Q400.60938 95.61692 401.09375 95.61692L401.09375 95.89817L397.4375 95.89817L397.4375 95.61692Q397.98438 95.61692 398.25 95.445045Q398.4375 95.320045 398.51562 95.038795Q398.5625 94.913795 398.5625 94.288795L398.5625 91.507545Q398.5625 90.257545 398.5 90.02317Q398.45312 89.788795 398.3125 89.67942Q398.1875 89.570045 397.98438 89.570045Q397.73438 89.570045 397.4375 89.67942L397.35938 89.39817L399.51562 88.52317L399.84375 88.52317ZM404.84375 88.52317L404.84375 90.132545Q405.75 88.52317 406.6875 88.52317Q407.125 88.52317 407.40625 88.788795Q407.6875 89.05442 407.6875 89.39817Q407.6875 89.695045 407.48438 89.913795Q407.28125 90.11692 407.0 90.11692Q406.71875 90.11692 406.375 89.851295Q406.04688 89.58567 405.875 89.58567Q405.73438 89.58567 405.57812 89.74192Q405.21875 90.05442 404.84375 90.788795L404.84375 94.226295Q404.84375 94.820045 405.0 95.11692Q405.09375 95.33567 405.34375 95.476295Q405.60938 95.61692 406.09375 95.61692L406.09375 95.89817L402.4375 95.89817L402.4375 95.61692Q402.98438 95.61692 403.25 95.445045Q403.4375 95.320045 403.51562 95.038795Q403.5625 94.913795 403.5625 94.288795L403.5625 91.507545Q403.5625 90.257545 403.5 90.02317Q403.45312 89.788795 403.3125 89.67942Q403.1875 89.570045 402.98438 89.570045Q402.73438 89.570045 402.4375 89.67942L402.35938 89.39817L404.51562 88.52317L404.84375 88.52317ZM408.95312 91.42942Q408.95312 93.02317 409.73438 93.92942Q410.51562 94.83567 411.5625 94.83567Q412.26562 94.83567 412.78125 94.46067Q413.3125 94.070045 413.65625 93.132545L413.90625 93.288795Q413.73438 94.351295 412.9375 95.24192Q412.15625 96.11692 410.96875 96.11692Q409.6875 96.11692 408.76562 95.11692Q407.84375 94.101295 407.84375 92.413795Q407.84375 90.570045 408.78125 89.55442Q409.73438 88.52317 411.15625 88.52317Q412.35938 88.52317 413.125 89.320045Q413.90625 90.101295 413.90625 91.42942L408.95312 91.42942ZM408.95312 90.976295L412.26562 90.976295Q412.23438 90.288795 412.10938 90.007545Q411.90625 89.570045 411.51562 89.320045Q411.14062 89.070045 410.71875 89.070045Q410.0625 89.070045 409.54688 89.58567Q409.04688 90.08567 408.95312 90.976295ZM416.84375 90.038795Q418.09375 88.52317 419.23438 88.52317Q419.82812 88.52317 420.25 88.820045Q420.67188 89.11692 420.92188 89.788795Q421.09375 90.257545 421.09375 91.226295L421.09375 94.27317Q421.09375 94.96067 421.20312 95.195045Q421.28125 95.39817 421.46875 95.507545Q421.67188 95.61692 422.1875 95.61692L422.1875 95.89817L418.64062 95.89817L418.64062 95.61692L418.79688 95.61692Q419.29688 95.61692 419.48438 95.46067Q419.6875 95.30442 419.76562 95.007545Q419.79688 94.89817 419.79688 94.27317L419.79688 91.351295Q419.79688 90.36692 419.54688 89.92942Q419.29688 89.49192 418.6875 89.49192Q417.76562 89.49192 416.84375 90.507545L416.84375 94.27317Q416.84375 95.007545 416.92188 95.17942Q417.03125 95.39817 417.21875 95.507545Q417.42188 95.61692 418.0 95.61692L418.0 95.89817L414.46875 95.89817L414.46875 95.61692L414.625 95.61692Q415.17188 95.61692 415.35938 95.33567Q415.54688 95.05442 415.54688 94.27317L415.54688 91.61692Q415.54688 90.33567 415.48438 90.05442Q415.4375 89.77317 415.3125 89.67942Q415.1875 89.570045 414.98438 89.570045Q414.76562 89.570045 414.46875 89.67942L414.34375 89.39817L416.5 88.52317L416.84375 88.52317L416.84375 90.038795ZM423.82812 86.382545L423.82812 88.74192L425.5 88.74192L425.5 89.288795L423.82812 89.288795L423.82812 93.92942Q423.82812 94.61692 424.03125 94.86692Q424.23438 95.101295 424.54688 95.101295Q424.79688 95.101295 425.03125 94.945045Q425.28125 94.788795 425.42188 94.476295L425.71875 94.476295Q425.45312 95.24192 424.95312 95.632545Q424.45312 96.02317 423.92188 96.02317Q423.5625 96.02317 423.21875 95.820045Q422.875 95.61692 422.70312 95.24192Q422.54688 94.86692 422.54688 94.101295L422.54688 89.288795L421.40625 89.288795L421.40625 89.02317Q421.84375 88.851295 422.28125 88.445045Q422.73438 88.038795 423.09375 87.476295Q423.26562 87.17942 423.59375 86.382545L423.82812 86.382545ZM436.57812 92.351295L432.46875 92.351295L431.75 94.02317Q431.48438 94.632545 431.48438 94.945045Q431.48438 95.17942 431.71875 95.36692Q431.95312 95.55442 432.71875 95.601295L432.71875 95.89817L429.375 95.89817L429.375 95.601295Q430.04688 95.49192 430.23438 95.30442Q430.64062 94.92942 431.125 93.77317L434.84375 85.05442L435.125 85.05442L438.8125 93.86692Q439.25 94.92942 439.60938 95.257545Q439.98438 95.570045 440.625 95.601295L440.625 95.89817L436.45312 95.89817L436.45312 95.601295Q437.07812 95.570045 437.29688 95.39817Q437.53125 95.21067 437.53125 94.96067Q437.53125 94.61692 437.21875 93.86692L436.57812 92.351295ZM436.35938 91.77317L434.5625 87.49192L432.71875 91.77317L436.35938 91.77317ZM445.375 88.52317L445.375 90.96067L445.125 90.96067Q444.82812 89.820045 444.35938 89.413795Q443.89062 88.99192 443.17188 88.99192Q442.625 88.99192 442.28125 89.288795Q441.95312 89.570045 441.95312 89.913795Q441.95312 90.351295 442.20312 90.663795Q442.45312 90.99192 443.1875 91.351295L444.32812 91.89817Q445.92188 92.67942 445.92188 93.945045Q445.92188 94.913795 445.17188 95.52317Q444.4375 96.11692 443.53125 96.11692Q442.875 96.11692 442.03125 95.882545Q441.76562 95.80442 441.60938 95.80442Q441.42188 95.80442 441.32812 96.007545L441.0625 96.007545L441.0625 93.445045L441.32812 93.445045Q441.54688 94.538795 442.15625 95.101295Q442.78125 95.64817 443.54688 95.64817Q444.07812 95.64817 444.42188 95.33567Q444.76562 95.02317 444.76562 94.570045Q444.76562 94.038795 444.375 93.67942Q444.0 93.30442 442.85938 92.74192Q441.73438 92.17942 441.39062 91.726295Q441.03125 91.27317 441.03125 90.601295Q441.03125 89.71067 441.64062 89.11692Q442.25 88.52317 443.20312 88.52317Q443.625 88.52317 444.23438 88.71067Q444.625 88.820045 444.76562 88.820045Q444.89062 88.820045 444.95312 88.77317Q445.03125 88.71067 445.125 88.52317L445.375 88.52317ZM451.375 88.52317L451.375 90.96067L451.125 90.96067Q450.82812 89.820045 450.35938 89.413795Q449.89062 88.99192 449.17188 88.99192Q448.625 88.99192 448.28125 89.288795Q447.95312 89.570045 447.95312 89.913795Q447.95312 90.351295 448.20312 90.663795Q448.45312 90.99192 449.1875 91.351295L450.32812 91.89817Q451.92188 92.67942 451.92188 93.945045Q451.92188 94.913795 451.17188 95.52317Q450.4375 96.11692 449.53125 96.11692Q448.875 96.11692 448.03125 95.882545Q447.76562 95.80442 447.60938 95.80442Q447.42188 95.80442 447.32812 96.007545L447.0625 96.007545L447.0625 93.445045L447.32812 93.445045Q447.54688 94.538795 448.15625 95.101295Q448.78125 95.64817 449.54688 95.64817Q450.07812 95.64817 450.42188 95.33567Q450.76562 95.02317 450.76562 94.570045Q450.76562 94.038795 450.375 93.67942Q450.0 93.30442 448.85938 92.74192Q447.73438 92.17942 447.39062 91.726295Q447.03125 91.27317 447.03125 90.601295Q447.03125 89.71067 447.64062 89.11692Q448.25 88.52317 449.20312 88.52317Q449.625 88.52317 450.23438 88.71067Q450.625 88.820045 450.76562 88.820045Q450.89062 88.820045 450.95312 88.77317Q451.03125 88.71067 451.125 88.52317L451.375 88.52317ZM453.95312 91.42942Q453.95312 93.02317 454.73438 93.92942Q455.51562 94.83567 456.5625 94.83567Q457.26562 94.83567 457.78125 94.46067Q458.3125 94.070045 458.65625 93.132545L458.90625 93.288795Q458.73438 94.351295 457.9375 95.24192Q457.15625 96.11692 455.96875 96.11692Q454.6875 96.11692 453.76562 95.11692Q452.84375 94.101295 452.84375 92.413795Q452.84375 90.570045 453.78125 89.55442Q454.73438 88.52317 456.15625 88.52317Q457.35938 88.52317 458.125 89.320045Q458.90625 90.101295 458.90625 91.42942L453.95312 91.42942ZM453.95312 90.976295L457.26562 90.976295Q457.23438 90.288795 457.10938 90.007545Q456.90625 89.570045 456.51562 89.320045Q456.14062 89.070045 455.71875 89.070045Q455.0625 89.070045 454.54688 89.58567Q454.04688 90.08567 453.95312 90.976295ZM461.82812 86.382545L461.82812 88.74192L463.5 88.74192L463.5 89.288795L461.82812 89.288795L461.82812 93.92942Q461.82812 94.61692 462.03125 94.86692Q462.23438 95.101295 462.54688 95.101295Q462.79688 95.101295 463.03125 94.945045Q463.28125 94.788795 463.42188 94.476295L463.71875 94.476295Q463.45312 95.24192 462.95312 95.632545Q462.45312 96.02317 461.92188 96.02317Q461.5625 96.02317 461.21875 95.820045Q460.875 95.61692 460.70312 95.24192Q460.54688 94.86692 460.54688 94.101295L460.54688 89.288795L459.40625 89.288795L459.40625 89.02317Q459.84375 88.851295 460.28125 88.445045Q460.73438 88.038795 461.09375 87.476295Q461.26562 87.17942 461.59375 86.382545L461.82812 86.382545ZM468.375 88.52317L468.375 90.96067L468.125 90.96067Q467.82812 89.820045 467.35938 89.413795Q466.89062 88.99192 466.17188 88.99192Q465.625 88.99192 465.28125 89.288795Q464.95312 89.570045 464.95312 89.913795Q464.95312 90.351295 465.20312 90.663795Q465.45312 90.99192 466.1875 91.351295L467.32812 91.89817Q468.92188 92.67942 468.92188 93.945045Q468.92188 94.913795 468.17188 95.52317Q467.4375 96.11692 466.53125 96.11692Q465.875 96.11692 465.03125 95.882545Q464.76562 95.80442 464.60938 95.80442Q464.42188 95.80442 464.32812 96.007545L464.0625 96.007545L464.0625 93.445045L464.32812 93.445045Q464.54688 94.538795 465.15625 95.101295Q465.78125 95.64817 466.54688 95.64817Q467.07812 95.64817 467.42188 95.33567Q467.76562 95.02317 467.76562 94.570045Q467.76562 94.038795 467.375 93.67942Q467.0 93.30442 465.85938 92.74192Q464.73438 92.17942 464.39062 91.726295Q464.03125 91.27317 464.03125 90.601295Q464.03125 89.71067 464.64062 89.11692Q465.25 88.52317 466.20312 88.52317Q466.625 88.52317 467.23438 88.71067Q467.625 88.820045 467.76562 88.820045Q467.89062 88.820045 467.95312 88.77317Q468.03125 88.71067 468.125 88.52317L468.375 88.52317Z" fill-rule="nonzero"/><path fill="#9e9e9e" d="M429.0625 110.320045Q429.51562 109.24192 430.20312 108.663795Q430.90625 108.08567 431.9375 108.08567Q433.20312 108.08567 433.89062 108.913795Q434.40625 109.52317 434.40625 110.226295Q434.40625 111.382545 432.95312 112.61692Q433.92188 113.007545 434.42188 113.726295Q434.92188 114.42942 434.92188 115.382545Q434.92188 116.757545 434.04688 117.77317Q432.90625 119.08567 430.75 119.08567Q429.67188 119.08567 429.28125 118.820045Q428.90625 118.55442 428.90625 118.24192Q428.90625 118.02317 429.07812 117.851295Q429.26562 117.67942 429.53125 117.67942Q429.71875 117.67942 429.92188 117.74192Q430.0625 117.77317 430.53125 118.02317Q431.0 118.27317 431.17188 118.320045Q431.46875 118.39817 431.79688 118.39817Q432.59375 118.39817 433.17188 117.788795Q433.76562 117.163795 433.76562 116.320045Q433.76562 115.71067 433.5 115.11692Q433.29688 114.67942 433.04688 114.46067Q432.71875 114.14817 432.125 113.89817Q431.54688 113.632545 430.9375 113.632545L430.6875 113.632545L430.6875 113.39817Q431.29688 113.320045 431.92188 112.96067Q432.54688 112.58567 432.82812 112.070045Q433.10938 111.55442 433.10938 110.945045Q433.10938 110.132545 432.59375 109.64817Q432.09375 109.14817 431.34375 109.14817Q430.14062 109.14817 429.32812 110.445045L429.0625 110.320045ZM443.59375 116.851295L442.84375 118.89817L436.59375 118.89817L436.59375 118.601295Q439.35938 116.08567 440.48438 114.49192Q441.60938 112.89817 441.60938 111.58567Q441.60938 110.570045 440.98438 109.92942Q440.375 109.27317 439.51562 109.27317Q438.73438 109.27317 438.10938 109.74192Q437.48438 110.195045 437.1875 111.070045L436.90625 111.070045Q437.09375 109.632545 437.90625 108.86692Q438.71875 108.08567 439.92188 108.08567Q441.21875 108.08567 442.07812 108.913795Q442.9375 109.74192 442.9375 110.86692Q442.9375 111.663795 442.5625 112.476295Q441.98438 113.74192 440.6875 115.14817Q438.75 117.27317 438.26562 117.71067L441.03125 117.71067Q441.875 117.71067 442.20312 117.64817Q442.54688 117.58567 442.8125 117.39817Q443.09375 117.21067 443.29688 116.851295L443.59375 116.851295ZM446.25 117.382545Q446.625 117.382545 446.875 117.632545Q447.125 117.882545 447.125 118.24192Q447.125 118.601295 446.85938 118.86692Q446.60938 119.11692 446.25 119.11692Q445.89062 119.11692 445.64062 118.86692Q445.39062 118.601295 445.39062 118.24192Q445.39062 117.882545 445.64062 117.632545Q445.89062 117.382545 446.25 117.382545ZM455.20312 108.30442L454.59375 109.632545L451.40625 109.632545L450.70312 111.05442Q452.78125 111.351295 453.98438 112.58567Q455.03125 113.64817 455.03125 115.08567Q455.03125 115.92942 454.6875 116.64817Q454.34375 117.351295 453.82812 117.851295Q453.3125 118.351295 452.6875 118.64817Q451.78125 119.08567 450.84375 119.08567Q449.89062 119.08567 449.45312 118.757545Q449.01562 118.42942 449.01562 118.038795Q449.01562 117.820045 449.1875 117.663795Q449.375 117.49192 449.65625 117.49192Q449.85938 117.49192 450.0 117.55442Q450.15625 117.61692 450.53125 117.86692Q451.10938 118.27317 451.71875 118.27317Q452.625 118.27317 453.3125 117.58567Q454.01562 116.89817 454.01562 115.89817Q454.01562 114.945045 453.39062 114.11692Q452.78125 113.27317 451.6875 112.820045Q450.84375 112.476295 449.375 112.413795L451.40625 108.30442L455.20312 108.30442ZM467.125 108.05442L459.40625 119.33567L458.71875 119.33567L466.4375 108.05442L467.125 108.05442ZM459.09375 108.05442Q460.15625 108.05442 460.73438 108.92942Q461.3125 109.80442 461.3125 110.945045Q461.3125 112.30442 460.65625 113.05442Q460.0 113.788795 459.07812 113.788795Q458.46875 113.788795 457.95312 113.445045Q457.4375 113.101295 457.125 112.42942Q456.8125 111.757545 456.8125 110.945045Q456.8125 110.11692 457.125 109.42942Q457.4375 108.74192 457.98438 108.39817Q458.53125 108.05442 459.09375 108.05442ZM459.07812 108.49192Q458.67188 108.49192 458.35938 108.96067Q458.0625 109.42942 458.0625 110.92942Q458.0625 112.02317 458.23438 112.58567Q458.35938 113.02317 458.64062 113.257545Q458.8125 113.39817 459.04688 113.39817Q459.42188 113.39817 459.6875 112.99192Q460.07812 112.382545 460.07812 110.976295Q460.07812 109.49192 459.70312 108.89817Q459.45312 108.49192 459.07812 108.49192ZM466.76562 113.632545Q467.32812 113.632545 467.875 113.99192Q468.42188 114.33567 468.71875 115.007545Q469.03125 115.67942 469.03125 116.49192Q469.03125 117.86692 468.35938 118.601295Q467.70312 119.33567 466.79688 119.33567Q466.21875 119.33567 465.6875 118.976295Q465.15625 118.632545 464.84375 117.976295Q464.53125 117.320045 464.53125 116.49192Q464.53125 115.663795 464.84375 114.99192Q465.15625 114.30442 465.6875 113.976295Q466.21875 113.632545 466.76562 113.632545ZM466.78125 114.05442Q466.40625 114.05442 466.125 114.476295Q465.78125 115.02317 465.78125 116.538795Q465.78125 117.945045 466.14062 118.49192Q466.40625 118.89817 466.78125 118.89817Q467.14062 118.89817 467.42188 118.46067Q467.79688 117.89817 467.79688 116.507545Q467.79688 115.038795 467.42188 114.445045Q467.15625 114.05442 466.78125 114.05442Z" fill-rule="nonzero"/><path stroke="#757575" stroke-width="1.0" stroke-linecap="butt" d="M469.25 102.39817L340.5 102.39817L316.77194 102.39817" fill-rule="nonzero"/><path fill="#9e9e9e" d="M318.77194 102.39817C318.77194 101.293594 317.87653 100.39817 316.77194 100.39817C315.6674 100.39817 314.77194 101.293594 314.77194 102.39817C314.77194 103.50274 315.6674 104.39817 316.77194 104.39817C317.87653 104.39817 318.77194 103.50274 318.77194 102.39817" fill-rule="nonzero"/><path fill="#000000" d="M141.85938 19.890625L142.07812 24.546875L141.51562 24.546875Q141.35938 23.3125 141.07812 22.78125Q140.625 21.9375 139.875 21.53125Q139.125 21.125 137.89062 21.125L135.09375 21.125L135.09375 36.3125Q135.09375 38.140625 135.48438 38.59375Q136.04688 39.203125 137.20312 39.203125L137.89062 39.203125L137.89062 39.75L129.46875 39.75L129.46875 39.203125L130.17188 39.203125Q131.42188 39.203125 131.95312 38.453125Q132.28125 37.984375 132.28125 36.3125L132.28125 21.125L129.89062 21.125Q128.5 21.125 127.90625 21.34375Q127.15625 21.609375 126.609375 22.40625Q126.0625 23.203125 125.96875 24.546875L125.40625 24.546875L125.640625 19.890625L141.85938 19.890625ZM151.0 25.9375Q154.04688 25.9375 155.89062 28.25Q157.45312 30.234375 157.45312 32.796875Q157.45312 34.59375 156.59375 36.4375Q155.73438 38.28125 154.21875 39.21875Q152.70312 40.15625 150.84375 40.15625Q147.8125 40.15625 146.01562 37.75Q144.51562 35.703125 144.51562 33.171875Q144.51562 31.328125 145.42188 29.5Q146.34375 27.671875 147.82812 26.8125Q149.32812 25.9375 151.0 25.9375ZM150.54688 26.890625Q149.76562 26.890625 148.98438 27.359375Q148.20312 27.8125 147.71875 28.96875Q147.23438 30.125 147.23438 31.9375Q147.23438 34.875 148.39062 37.0Q149.5625 39.125 151.46875 39.125Q152.89062 39.125 153.8125 37.953125Q154.73438 36.78125 154.73438 33.921875Q154.73438 30.34375 153.20312 28.296875Q152.15625 26.890625 150.54688 26.890625ZM163.32812 21.921875L163.32812 26.328125L166.46875 26.328125L166.46875 27.359375L163.32812 27.359375L163.32812 36.0625Q163.32812 37.359375 163.70312 37.8125Q164.07812 38.265625 164.67188 38.265625Q165.15625 38.265625 165.60938 37.96875Q166.0625 37.671875 166.3125 37.078125L166.875 37.078125Q166.35938 38.515625 165.42188 39.25Q164.48438 39.96875 163.5 39.96875Q162.82812 39.96875 162.17188 39.59375Q161.53125 39.21875 161.21875 38.53125Q160.92188 37.828125 160.92188 36.375L160.92188 27.359375L158.79688 27.359375L158.79688 26.875Q159.59375 26.546875 160.4375 25.78125Q161.28125 25.015625 161.9375 23.953125Q162.28125 23.40625 162.875 21.921875L163.32812 21.921875ZM175.04688 37.8125Q172.96875 39.40625 172.45312 39.65625Q171.65625 40.03125 170.76562 40.03125Q169.375 40.03125 168.46875 39.078125Q167.5625 38.125 167.5625 36.578125Q167.5625 35.59375 168.01562 34.875Q168.60938 33.875 170.09375 33.0Q171.57812 32.125 175.04688 30.859375L175.04688 30.328125Q175.04688 28.328125 174.40625 27.578125Q173.76562 26.828125 172.54688 26.828125Q171.625 26.828125 171.07812 27.328125Q170.53125 27.828125 170.53125 28.46875L170.5625 29.3125Q170.5625 30.0 170.21875 30.359375Q169.875 30.71875 169.3125 30.71875Q168.76562 30.71875 168.42188 30.34375Q168.07812 29.96875 168.07812 29.3125Q168.07812 28.046875 169.35938 27.0Q170.65625 25.9375 172.98438 25.9375Q174.78125 25.9375 175.92188 26.53125Q176.78125 26.984375 177.1875 27.953125Q177.45312 28.59375 177.45312 30.53125L177.45312 35.09375Q177.45312 37.015625 177.53125 37.453125Q177.60938 37.875 177.76562 38.03125Q177.9375 38.171875 178.15625 38.171875Q178.39062 38.171875 178.57812 38.0625Q178.875 37.875 179.75 37.0L179.75 37.8125Q178.10938 40.015625 176.625 40.015625Q175.90625 40.015625 175.48438 39.515625Q175.0625 39.015625 175.04688 37.8125ZM175.04688 36.859375L175.04688 31.75Q172.82812 32.625 172.1875 33.0Q171.03125 33.640625 170.53125 34.34375Q170.03125 35.046875 170.03125 35.875Q170.03125 36.9375 170.65625 37.640625Q171.29688 38.328125 172.10938 38.328125Q173.21875 38.328125 175.04688 36.859375ZM185.04688 18.921875L185.04688 36.71875Q185.04688 37.984375 185.23438 38.390625Q185.42188 38.796875 185.79688 39.015625Q186.1875 39.21875 187.21875 39.21875L187.21875 39.75L180.64062 39.75L180.64062 39.21875Q181.5625 39.21875 181.89062 39.03125Q182.23438 38.84375 182.42188 38.40625Q182.625 37.96875 182.625 36.71875L182.625 24.53125Q182.625 22.265625 182.51562 21.75Q182.42188 21.21875 182.1875 21.03125Q181.96875 20.84375 181.60938 20.84375Q181.23438 20.84375 180.64062 21.078125L180.39062 20.5625L184.39062 18.921875L185.04688 18.921875ZM208.21875 33.09375L200.53125 33.09375L199.1875 36.234375Q198.6875 37.390625 198.6875 37.96875Q198.6875 38.421875 199.10938 38.765625Q199.54688 39.109375 200.98438 39.203125L200.98438 39.75L194.73438 39.75L194.73438 39.203125Q195.98438 38.984375 196.34375 38.640625Q197.09375 37.9375 198.0 35.78125L204.98438 19.4375L205.5 19.4375L212.42188 35.953125Q213.25 37.953125 213.92188 38.546875Q214.60938 39.140625 215.82812 39.203125L215.82812 39.75L207.98438 39.75L207.98438 39.203125Q209.17188 39.15625 209.59375 38.8125Q210.01562 38.46875 210.01562 37.984375Q210.01562 37.34375 209.42188 35.953125L208.21875 33.09375ZM207.8125 32.015625L204.45312 23.984375L200.98438 32.015625L207.8125 32.015625ZM225.10938 25.9375L225.10938 30.5L224.625 30.5Q224.0625 28.359375 223.1875 27.578125Q222.32812 26.796875 220.98438 26.796875Q219.95312 26.796875 219.3125 27.34375Q218.6875 27.890625 218.6875 28.546875Q218.6875 29.359375 219.15625 29.953125Q219.60938 30.546875 221.01562 31.21875L223.14062 32.265625Q226.125 33.71875 226.125 36.09375Q226.125 37.921875 224.73438 39.046875Q223.35938 40.15625 221.64062 40.15625Q220.40625 40.15625 218.82812 39.71875Q218.34375 39.578125 218.03125 39.578125Q217.70312 39.578125 217.5 39.953125L217.03125 39.953125L217.03125 35.171875L217.5 35.171875Q217.92188 37.21875 219.07812 38.265625Q220.23438 39.296875 221.67188 39.296875Q222.67188 39.296875 223.3125 38.703125Q223.95312 38.109375 223.95312 37.28125Q223.95312 36.265625 223.23438 35.578125Q222.53125 34.890625 220.40625 33.84375Q218.28125 32.78125 217.625 31.921875Q216.96875 31.09375 216.96875 29.8125Q216.96875 28.15625 218.09375 27.046875Q219.23438 25.9375 221.03125 25.9375Q221.82812 25.9375 222.95312 26.265625Q223.70312 26.5 223.95312 26.5Q224.1875 26.5 224.3125 26.390625Q224.45312 26.28125 224.625 25.9375L225.10938 25.9375ZM236.10938 25.9375L236.10938 30.5L235.625 30.5Q235.0625 28.359375 234.1875 27.578125Q233.32812 26.796875 231.98438 26.796875Q230.95312 26.796875 230.3125 27.34375Q229.6875 27.890625 229.6875 28.546875Q229.6875 29.359375 230.15625 29.953125Q230.60938 30.546875 232.01562 31.21875L234.14062 32.265625Q237.125 33.71875 237.125 36.09375Q237.125 37.921875 235.73438 39.046875Q234.35938 40.15625 232.64062 40.15625Q231.40625 40.15625 229.82812 39.71875Q229.34375 39.578125 229.03125 39.578125Q228.70312 39.578125 228.5 39.953125L228.03125 39.953125L228.03125 35.171875L228.5 35.171875Q228.92188 37.21875 230.07812 38.265625Q231.23438 39.296875 232.67188 39.296875Q233.67188 39.296875 234.3125 38.703125Q234.95312 38.109375 234.95312 37.28125Q234.95312 36.265625 234.23438 35.578125Q233.53125 34.890625 231.40625 33.84375Q229.28125 32.78125 228.625 31.921875Q227.96875 31.09375 227.96875 29.8125Q227.96875 28.15625 229.09375 27.046875Q230.23438 25.9375 232.03125 25.9375Q232.82812 25.9375 233.95312 26.265625Q234.70312 26.5 234.95312 26.5Q235.1875 26.5 235.3125 26.390625Q235.45312 26.28125 235.625 25.9375L236.10938 25.9375ZM240.6875 31.390625Q240.67188 34.375 242.14062 36.078125Q243.60938 37.765625 245.59375 37.765625Q246.90625 37.765625 247.875 37.046875Q248.85938 36.328125 249.51562 34.5625L249.96875 34.859375Q249.65625 36.859375 248.17188 38.515625Q246.70312 40.15625 244.46875 40.15625Q242.0625 40.15625 240.32812 38.28125Q238.60938 36.390625 238.60938 33.21875Q238.60938 29.78125 240.375 27.859375Q242.14062 25.921875 244.8125 25.921875Q247.0625 25.921875 248.51562 27.40625Q249.96875 28.890625 249.96875 31.390625L240.6875 31.390625ZM240.6875 30.53125L246.90625 30.53125Q246.82812 29.25 246.59375 28.71875Q246.23438 27.90625 245.5 27.4375Q244.78125 26.96875 243.98438 26.96875Q242.78125 26.96875 241.8125 27.90625Q240.85938 28.84375 240.6875 30.53125ZM255.32812 21.921875L255.32812 26.328125L258.46875 26.328125L258.46875 27.359375L255.32812 27.359375L255.32812 36.0625Q255.32812 37.359375 255.70312 37.8125Q256.07812 38.265625 256.67188 38.265625Q257.15625 38.265625 257.60938 37.96875Q258.0625 37.671875 258.3125 37.078125L258.875 37.078125Q258.35938 38.515625 257.42188 39.25Q256.48438 39.96875 255.5 39.96875Q254.82812 39.96875 254.17188 39.59375Q253.53125 39.21875 253.21875 38.53125Q252.92188 37.828125 252.92188 36.375L252.92188 27.359375L250.79688 27.359375L250.79688 26.875Q251.59375 26.546875 252.4375 25.78125Q253.28125 25.015625 253.9375 23.953125Q254.28125 23.40625 254.875 21.921875L255.32812 21.921875ZM268.10938 25.9375L268.10938 30.5L267.625 30.5Q267.0625 28.359375 266.1875 27.578125Q265.32812 26.796875 263.98438 26.796875Q262.95312 26.796875 262.3125 27.34375Q261.6875 27.890625 261.6875 28.546875Q261.6875 29.359375 262.15625 29.953125Q262.60938 30.546875 264.01562 31.21875L266.14062 32.265625Q269.125 33.71875 269.125 36.09375Q269.125 37.921875 267.73438 39.046875Q266.35938 40.15625 264.64062 40.15625Q263.40625 40.15625 261.82812 39.71875Q261.34375 39.578125 261.03125 39.578125Q260.70312 39.578125 260.5 39.953125L260.03125 39.953125L260.03125 35.171875L260.5 35.171875Q260.92188 37.21875 262.07812 38.265625Q263.23438 39.296875 264.67188 39.296875Q265.67188 39.296875 266.3125 38.703125Q266.95312 38.109375 266.95312 37.28125Q266.95312 36.265625 266.23438 35.578125Q265.53125 34.890625 263.40625 33.84375Q261.28125 32.78125 260.625 31.921875Q259.96875 31.09375 259.96875 29.8125Q259.96875 28.15625 261.09375 27.046875Q262.23438 25.9375 264.03125 25.9375Q264.82812 25.9375 265.95312 26.265625Q266.70312 26.5 266.95312 26.5Q267.1875 26.5 267.3125 26.390625Q267.45312 26.28125 267.625 25.9375L268.10938 25.9375ZM286.8125 45.625L286.8125 46.171875Q284.60938 45.046875 283.125 43.5625Q281.01562 41.4375 279.875 38.546875Q278.73438 35.65625 278.73438 32.5625Q278.73438 28.015625 280.96875 24.28125Q283.21875 20.53125 286.8125 18.921875L286.8125 19.53125Q285.01562 20.53125 283.85938 22.265625Q282.70312 23.984375 282.125 26.640625Q281.5625 29.296875 281.5625 32.171875Q281.5625 35.3125 282.04688 37.875Q282.42188 39.890625 282.95312 41.109375Q283.5 42.34375 284.42188 43.46875Q285.34375 44.59375 286.8125 45.625ZM301.25 35.921875L299.85938 39.75L288.14062 39.75L288.14062 39.203125Q293.3125 34.484375 295.42188 31.5Q297.53125 28.515625 297.53125 26.03125Q297.53125 24.15625 296.375 22.9375Q295.21875 21.71875 293.60938 21.71875Q292.14062 21.71875 290.96875 22.578125Q289.8125 23.4375 289.26562 25.09375L288.71875 25.09375Q289.07812 22.375 290.59375 20.921875Q292.10938 19.46875 294.39062 19.46875Q296.79688 19.46875 298.42188 21.03125Q300.04688 22.578125 300.04688 24.6875Q300.04688 26.203125 299.34375 27.703125Q298.25 30.078125 295.82812 32.734375Q292.17188 36.71875 291.26562 37.53125L296.45312 37.53125Q298.03125 37.53125 298.67188 37.421875Q299.3125 37.296875 299.8125 36.9375Q300.32812 36.578125 300.71875 35.921875L301.25 35.921875ZM303.57812 29.9375Q303.57812 26.53125 304.60938 24.078125Q305.64062 21.625 307.32812 20.421875Q308.65625 19.46875 310.0625 19.46875Q312.34375 19.46875 314.15625 21.8125Q316.4375 24.6875 316.4375 29.625Q316.4375 33.078125 315.4375 35.5Q314.4375 37.921875 312.89062 39.015625Q311.34375 40.109375 309.90625 40.109375Q307.07812 40.109375 305.1875 36.75Q303.57812 33.921875 303.57812 29.9375ZM306.45312 30.296875Q306.45312 34.40625 307.46875 37.0Q308.29688 39.171875 309.95312 39.171875Q310.75 39.171875 311.59375 38.46875Q312.45312 37.75 312.89062 36.09375Q313.5625 33.5625 313.5625 28.984375Q313.5625 25.578125 312.85938 23.3125Q312.32812 21.625 311.5 20.921875Q310.89062 20.4375 310.04688 20.4375Q309.04688 20.4375 308.26562 21.34375Q307.21875 22.546875 306.82812 25.15625Q306.45312 27.765625 306.45312 30.296875ZM331.25 35.921875L329.85938 39.75L318.14062 39.75L318.14062 39.203125Q323.3125 34.484375 325.42188 31.5Q327.53125 28.515625 327.53125 26.03125Q327.53125 24.15625 326.375 22.9375Q325.21875 21.71875 323.60938 21.71875Q322.14062 21.71875 320.96875 22.578125Q319.8125 23.4375 319.26562 25.09375L318.71875 25.09375Q319.07812 22.375 320.59375 20.921875Q322.10938 19.46875 324.39062 19.46875Q326.79688 19.46875 328.42188 21.03125Q330.04688 22.578125 330.04688 24.6875Q330.04688 26.203125 329.34375 27.703125Q328.25 30.078125 325.82812 32.734375Q322.17188 36.71875 321.26562 37.53125L326.45312 37.53125Q328.03125 37.53125 328.67188 37.421875Q329.3125 37.296875 329.8125 36.9375Q330.32812 36.578125 330.71875 35.921875L331.25 35.921875ZM333.57812 29.9375Q333.57812 26.53125 334.60938 24.078125Q335.64062 21.625 337.32812 20.421875Q338.65625 19.46875 340.0625 19.46875Q342.34375 19.46875 344.15625 21.8125Q346.4375 24.6875 346.4375 29.625Q346.4375 33.078125 345.4375 35.5Q344.4375 37.921875 342.89062 39.015625Q341.34375 40.109375 339.90625 40.109375Q337.07812 40.109375 335.1875 36.75Q333.57812 33.921875 333.57812 29.9375ZM336.45312 30.296875Q336.45312 34.40625 337.46875 37.0Q338.29688 39.171875 339.95312 39.171875Q340.75 39.171875 341.59375 38.46875Q342.45312 37.75 342.89062 36.09375Q343.5625 33.5625 343.5625 28.984375Q343.5625 25.578125 342.85938 23.3125Q342.32812 21.625 341.5 20.921875Q340.89062 20.4375 340.04688 20.4375Q339.04688 20.4375 338.26562 21.34375Q337.21875 22.546875 336.82812 25.15625Q336.45312 27.765625 336.45312 30.296875ZM348.17188 19.53125L348.17188 18.921875Q350.40625 20.015625 351.875 21.515625Q353.96875 23.65625 355.10938 26.53125Q356.26562 29.40625 356.26562 32.53125Q356.26562 37.0625 354.03125 40.8125Q351.79688 44.5625 348.17188 46.171875L348.17188 45.625Q349.96875 44.609375 351.14062 42.890625Q352.3125 41.171875 352.875 38.515625Q353.4375 35.859375 353.4375 32.96875Q353.4375 29.84375 352.95312 27.265625Q352.57812 25.25 352.03125 24.03125Q351.48438 22.8125 350.57812 21.6875Q349.67188 20.5625 348.17188 19.53125Z" fill-rule="nonzero"/></svg>