<svg version="1.1" viewBox="0.0 0.0 469.0 239.0" fill="none" stroke="none" stroke-linecap="square" stroke-miterlimit="10" width="469" height="239" xmlns:xlink="http://www.w3.org/1999/xlink" xmlns="http://www.w3.org/2000/svg"><path fill="#ffffff" fill-opacity="0.0" d="M0 0L469.0 0L469.0 239.0L0 239.0L0 0Z" fill-rule="nonzero"/><path fill="#4285f4" d="M234.5 53.916668C261.70032 53.916668 287.31894 66.701195 303.67282 88.43614C320.02667 110.1711 325.21384 138.32872 317.67868 164.46448L276.08932 152.4739C279.85693 139.40602 277.26334 125.32722 269.0864 114.45974C260.9095 103.59226 248.10016 97.2 234.5 97.2Z" fill-rule="nonzero"/><path fill="#ea4335" d="M317.67868 164.46448C305.30228 207.3921 262.29123 233.85031 218.39505 225.53871C174.49889 217.22713 144.13792 176.87619 148.31198 132.3955C152.48604 87.91478 189.82388 53.916668 234.5 53.916668L234.5 97.2C212.16194 97.2 193.49301 114.19906 191.40599 136.4394C189.31897 158.67976 204.49945 178.85524 226.44753 183.01103C248.39561 187.16682 269.90112 173.93771 276.08932 152.4739Z" fill-rule="nonzero"/><path stroke="#ffffff" stroke-width="1.0" stroke-linejoin="round" stroke-linecap="round" d="M276.08932 152.4739C279.85693 139.40602 277.26334 125.32722 269.0864 114.45974C260.9095 103.59226 248.10016 97.2 234.5 97.2L234.5 53.916668C261.70032 53.916668 287.31894 66.701195 303.67282 88.43614C320.02667 110.1711 325.21384 138.32872 317.67868 164.46448" fill-rule="nonzero"/><path stroke="#ffffff" stroke-width="1.0" stroke-linejoin="round" stroke-linecap="round" d="M234.5 97.2C212.16194 97.2 193.49301 114.19906 191.40599 136.4394C189.31897 158.67976 204.49945 178.85524 226.44753 183.01103C248.39561 187.16682 269.90112 173.93771 276.08932 152.4739L317.67868 164.46448C305.30228 207.3921 262.29123 233.85031 218.39505 225.53871C174.49889 217.22713 144.13792 176.87619 148.31198 132.3955C152.48604 87.91478 189.82388 53.916668 234.5 53.916668" fill-rule="nonzero"/><path fill="#000000" d="M21.590626 172.58441L21.825 176.19379L21.590626 176.19379Q21.10625 174.56879 20.2 173.86566Q19.309376 173.14691 18.04375 173.14691Q16.996876 173.14691 16.1375 173.69379Q15.29375 174.22504 14.79375 175.39691Q14.309375 176.56879 14.309375 178.30316Q14.309375 179.74066 14.7625 180.80316Q15.23125 181.85004 16.153126 182.41254Q17.090626 182.97504 18.278126 182.97504Q19.309376 182.97504 20.090626 182.53754Q20.8875 182.10004 21.825 180.78754L22.075 180.94379Q21.278126 182.35004 20.215626 183.02191Q19.153126 183.67816 17.684376 183.67816Q15.059375 183.67816 13.60625 181.70941Q12.528125 180.25629 12.528125 178.28754Q12.528125 176.70941 13.23125 175.38129Q13.95 174.05316 15.2 173.31879Q16.45 172.58441 17.91875 172.58441Q19.075 172.58441 20.184376 173.14691Q20.5125 173.31879 20.653126 173.31879Q20.871876 173.31879 21.028126 173.17816Q21.23125 172.95941 21.309376 172.58441L21.590626 172.58441ZM29.73125 176.27191L29.73125 180.60004Q29.73125 181.85004 29.778126 182.13129Q29.840626 182.39691 29.965626 182.50629Q30.10625 182.61566 30.278126 182.61566Q30.5125 182.61566 30.825 182.49066L30.934376 182.75629L28.79375 183.64691L28.434376 183.64691L28.434376 182.13129Q27.5125 183.13129 27.028126 183.39691Q26.54375 183.64691 26.0125 183.64691Q25.403126 183.64691 24.965626 183.30316Q24.528126 182.94379 24.35625 182.39691Q24.184376 181.85004 24.184376 180.85004L24.184376 177.66254Q24.184376 177.14691 24.075 176.95941Q23.965626 176.75629 23.746876 176.66254Q23.528126 176.55316 22.965626 176.55316L22.965626 176.27191L25.48125 176.27191L25.48125 181.05316Q25.48125 182.05316 25.825 182.36566Q26.16875 182.67816 26.66875 182.67816Q26.996876 182.67816 27.41875 182.47504Q27.85625 182.25629 28.434376 181.66254L28.434376 177.61566Q28.434376 177.00629 28.215626 176.78754Q27.996876 176.56879 27.29375 176.55316L27.29375 176.27191L29.73125 176.27191ZM32.54375 176.05316L32.54375 177.66254Q33.45 176.05316 34.3875 176.05316Q34.825 176.05316 35.10625 176.31879Q35.3875 176.58441 35.3875 176.92816Q35.3875 177.22504 35.184376 177.44379Q34.98125 177.64691 34.7 177.64691Q34.41875 177.64691 34.075 177.38129Q33.746876 177.11566 33.575 177.11566Q33.434376 177.11566 33.278126 177.27191Q32.91875 177.58441 32.54375 178.31879L32.54375 181.75629Q32.54375 182.35004 32.7 182.64691Q32.79375 182.86566 33.04375 183.00629Q33.309376 183.14691 33.79375 183.14691L33.79375 183.42816L30.1375 183.42816L30.1375 183.14691Q30.684376 183.14691 30.95 182.97504Q31.1375 182.85004 31.215626 182.56879Q31.2625 182.44379 31.2625 181.81879L31.2625 179.03754Q31.2625 177.78754 31.2 177.55316Q31.153126 177.31879 31.0125 177.20941Q30.8875 177.10004 30.684376 177.10004Q30.434376 177.10004 30.1375 177.20941L30.059376 176.92816L32.215626 176.05316L32.54375 176.05316ZM37.54375 176.05316L37.54375 177.66254Q38.45 176.05316 39.3875 176.05316Q39.825 176.05316 40.10625 176.31879Q40.3875 176.58441 40.3875 176.92816Q40.3875 177.22504 40.184376 177.44379Q39.98125 177.64691 39.7 177.64691Q39.41875 177.64691 39.075 177.38129Q38.746876 177.11566 38.575 177.11566Q38.434376 177.11566 38.278126 177.27191Q37.91875 177.58441 37.54375 178.31879L37.54375 181.75629Q37.54375 182.35004 37.7 182.64691Q37.79375 182.86566 38.04375 183.00629Q38.309376 183.14691 38.79375 183.14691L38.79375 183.42816L35.1375 183.42816L35.1375 183.14691Q35.684376 183.14691 35.95 182.97504Q36.1375 182.85004 36.215626 182.56879Q36.2625 182.44379 36.2625 181.81879L36.2625 179.03754Q36.2625 177.78754 36.2 177.55316Q36.153126 177.31879 36.0125 177.20941Q35.8875 177.10004 35.684376 177.10004Q35.434376 177.10004 35.1375 177.20941L35.059376 176.92816L37.215626 176.05316L37.54375 176.05316ZM41.653126 178.95941Q41.653126 180.55316 42.434376 181.45941Q43.215626 182.36566 44.2625 182.36566Q44.965626 182.36566 45.48125 181.99066Q46.0125 181.60004 46.35625 180.66254L46.60625 180.81879Q46.434376 181.88129 45.6375 182.77191Q44.85625 183.64691 43.66875 183.64691Q42.3875 183.64691 41.465626 182.64691Q40.54375 181.63129 40.54375 179.94379Q40.54375 178.10004 41.48125 177.08441Q42.434376 176.05316 43.85625 176.05316Q45.059376 176.05316 45.825 176.85004Q46.60625 177.63129 46.60625 178.95941L41.653126 178.95941ZM41.653126 178.50629L44.965626 178.50629Q44.934376 177.81879 44.809376 177.53754Q44.60625 177.10004 44.215626 176.85004Q43.840626 176.60004 43.41875 176.60004Q42.7625 176.60004 42.246876 177.11566Q41.746876 177.61566 41.653126 178.50629ZM49.54375 177.56879Q50.79375 176.05316 51.934376 176.05316Q52.528126 176.05316 52.95 176.35004Q53.371876 176.64691 53.621876 177.31879Q53.79375 177.78754 53.79375 178.75629L53.79375 181.80316Q53.79375 182.49066 53.903126 182.72504Q53.98125 182.92816 54.16875 183.03754Q54.371876 183.14691 54.8875 183.14691L54.8875 183.42816L51.340626 183.42816L51.340626 183.14691L51.496876 183.14691Q51.996876 183.14691 52.184376 182.99066Q52.3875 182.83441 52.465626 182.53754Q52.496876 182.42816 52.496876 181.80316L52.496876 178.88129Q52.496876 177.89691 52.246876 177.45941Q51.996876 177.02191 51.3875 177.02191Q50.465626 177.02191 49.54375 178.03754L49.54375 181.80316Q49.54375 182.53754 49.621876 182.70941Q49.73125 182.92816 49.91875 183.03754Q50.121876 183.14691 50.7 183.14691L50.7 183.42816L47.16875 183.42816L47.16875 183.14691L47.325 183.14691Q47.871876 183.14691 48.059376 182.86566Q48.246876 182.58441 48.246876 181.80316L48.246876 179.14691Q48.246876 177.86566 48.184376 177.58441Q48.1375 177.30316 48.0125 177.20941Q47.8875 177.10004 47.684376 177.10004Q47.465626 177.10004 47.16875 177.20941L47.04375 176.92816L49.2 176.05316L49.54375 176.05316L49.54375 177.56879ZM56.528126 173.91254L56.528126 176.27191L58.2 176.27191L58.2 176.81879L56.528126 176.81879L56.528126 181.45941Q56.528126 182.14691 56.73125 182.39691Q56.934376 182.63129 57.246876 182.63129Q57.496876 182.63129 57.73125 182.47504Q57.98125 182.31879 58.121876 182.00629L58.41875 182.00629Q58.153126 182.77191 57.653126 183.16254Q57.153126 183.55316 56.621876 183.55316Q56.2625 183.55316 55.91875 183.35004Q55.575 183.14691 55.403126 182.77191Q55.246876 182.39691 55.246876 181.63129L55.246876 176.81879L54.10625 176.81879L54.10625 176.55316Q54.54375 176.38129 54.98125 175.97504Q55.434376 175.56879 55.79375 175.00629Q55.965626 174.70941 56.29375 173.91254L56.528126 173.91254ZM69.27812 179.88129L65.16875 179.88129L64.45 181.55316Q64.18437 182.16254 64.18437 182.47504Q64.18437 182.70941 64.41875 182.89691Q64.65312 183.08441 65.41875 183.13129L65.41875 183.42816L62.075 183.42816L62.075 183.13129Q62.746876 183.02191 62.934376 182.83441Q63.340626 182.45941 63.825 181.30316L67.54375 172.58441L67.825 172.58441L71.5125 181.39691Q71.95 182.45941 72.30937 182.78754Q72.68437 183.10004 73.325 183.13129L73.325 183.42816L69.15312 183.42816L69.15312 183.13129Q69.77812 183.10004 69.99687 182.92816Q70.23125 182.74066 70.23125 182.49066Q70.23125 182.14691 69.91875 181.39691L69.27812 179.88129ZM69.05937 179.30316L67.2625 175.02191L65.41875 179.30316L69.05937 179.30316ZM78.075 176.05316L78.075 178.49066L77.825 178.49066Q77.52812 177.35004 77.05937 176.94379Q76.59062 176.52191 75.87187 176.52191Q75.325 176.52191 74.98125 176.81879Q74.65312 177.10004 74.65312 177.44379Q74.65312 177.88129 74.90312 178.19379Q75.15312 178.52191 75.8875 178.88129L77.02812 179.42816Q78.62187 180.20941 78.62187 181.47504Q78.62187 182.44379 77.87187 183.05316Q77.1375 183.64691 76.23125 183.64691Q75.575 183.64691 74.73125 183.41254Q74.46562 183.33441 74.30937 183.33441Q74.12187 183.33441 74.02812 183.53754L73.7625 183.53754L73.7625 180.97504L74.02812 180.97504Q74.24687 182.06879 74.85625 182.63129Q75.48125 183.17816 76.24687 183.17816Q76.77812 183.17816 77.12187 182.86566Q77.46562 182.55316 77.46562 182.10004Q77.46562 181.56879 77.075 181.20941Q76.7 180.83441 75.55937 180.27191Q74.43437 179.70941 74.09062 179.25629Q73.73125 178.80316 73.73125 178.13129Q73.73125 177.24066 74.34062 176.64691Q74.95 176.05316 75.90312 176.05316Q76.325 176.05316 76.93437 176.24066Q77.325 176.35004 77.46562 176.35004Q77.59062 176.35004 77.65312 176.30316Q77.73125 176.24066 77.825 176.05316L78.075 176.05316ZM84.075 176.05316L84.075 178.49066L83.825 178.49066Q83.52812 177.35004 83.05937 176.94379Q82.59062 176.52191 81.87187 176.52191Q81.325 176.52191 80.98125 176.81879Q80.65312 177.10004 80.65312 177.44379Q80.65312 177.88129 80.90312 178.19379Q81.15312 178.52191 81.8875 178.88129L83.02812 179.42816Q84.62187 180.20941 84.62187 181.47504Q84.62187 182.44379 83.87187 183.05316Q83.1375 183.64691 82.23125 183.64691Q81.575 183.64691 80.73125 183.41254Q80.46562 183.33441 80.30937 183.33441Q80.12187 183.33441 80.02812 183.53754L79.7625 183.53754L79.7625 180.97504L80.02812 180.97504Q80.24687 182.06879 80.85625 182.63129Q81.48125 183.17816 82.24687 183.17816Q82.77812 183.17816 83.12187 182.86566Q83.46562 182.55316 83.46562 182.10004Q83.46562 181.56879 83.075 181.20941Q82.7 180.83441 81.55937 180.27191Q80.43437 179.70941 80.09062 179.25629Q79.73125 178.80316 79.73125 178.13129Q79.73125 177.24066 80.34062 176.64691Q80.95 176.05316 81.90312 176.05316Q82.325 176.05316 82.93437 176.24066Q83.325 176.35004 83.46562 176.35004Q83.59062 176.35004 83.65312 176.30316Q83.73125 176.24066 83.825 176.05316L84.075 176.05316ZM86.65312 178.95941Q86.65312 180.55316 87.43437 181.45941Q88.21562 182.36566 89.2625 182.36566Q89.96562 182.36566 90.48125 181.99066Q91.0125 181.60004 91.35625 180.66254L91.60625 180.81879Q91.43437 181.88129 90.6375 182.77191Q89.85625 183.64691 88.66875 183.64691Q87.3875 183.64691 86.46562 182.64691Q85.54375 181.63129 85.54375 179.94379Q85.54375 178.10004 86.48125 177.08441Q87.43437 176.05316 88.85625 176.05316Q90.05937 176.05316 90.825 176.85004Q91.60625 177.63129 91.60625 178.95941L86.65312 178.95941ZM86.65312 178.50629L89.96562 178.50629Q89.93437 177.81879 89.80937 177.53754Q89.60625 177.10004 89.21562 176.85004Q88.84062 176.60004 88.41875 176.60004Q87.7625 176.60004 87.24687 177.11566Q86.74687 177.61566 86.65312 178.50629ZM94.52812 173.91254L94.52812 176.27191L96.2 176.27191L96.2 176.81879L94.52812 176.81879L94.52812 181.45941Q94.52812 182.14691 94.73125 182.39691Q94.93437 182.63129 95.24687 182.63129Q95.49687 182.63129 95.73125 182.47504Q95.98125 182.31879 96.12187 182.00629L96.41875 182.00629Q96.15312 182.77191 95.65312 183.16254Q95.15312 183.55316 94.62187 183.55316Q94.2625 183.55316 93.91875 183.35004Q93.575 183.14691 93.40312 182.77191Q93.24687 182.39691 93.24687 181.63129L93.24687 176.81879L92.10625 176.81879L92.10625 176.55316Q92.54375 176.38129 92.98125 175.97504Q93.43437 175.56879 93.79375 175.00629Q93.96562 174.70941 94.29375 173.91254L94.52812 173.91254ZM101.075 176.05316L101.075 178.49066L100.825 178.49066Q100.52812 177.35004 100.05937 176.94379Q99.59062 176.52191 98.87187 176.52191Q98.325 176.52191 97.98125 176.81879Q97.65312 177.10004 97.65312 177.44379Q97.65312 177.88129 97.90312 178.19379Q98.15312 178.52191 98.8875 178.88129L100.02812 179.42816Q101.62187 180.20941 101.62187 181.47504Q101.62187 182.44379 100.87187 183.05316Q100.1375 183.64691 99.23125 183.64691Q98.575 183.64691 97.73125 183.41254Q97.46562 183.33441 97.30937 183.33441Q97.12187 183.33441 97.02812 183.53754L96.7625 183.53754L96.7625 180.97504L97.02812 180.97504Q97.24687 182.06879 97.85625 182.63129Q98.48125 183.17816 99.24687 183.17816Q99.77812 183.17816 100.12187 182.86566Q100.46562 182.55316 100.46562 182.10004Q100.46562 181.56879 100.075 181.20941Q99.7 180.83441 98.55937 180.27191Q97.43437 179.70941 97.09062 179.25629Q96.73125 178.80316 96.73125 178.13129Q96.73125 177.24066 97.34062 176.64691Q97.95 176.05316 98.90312 176.05316Q99.325 176.05316 99.93437 176.24066Q100.325 176.35004 100.46562 176.35004Q100.59062 176.35004 100.65312 176.30316Q100.73125 176.24066 100.825 176.05316L101.075 176.05316Z" fill-rule="nonzero"/><path fill="#9e9e9e" d="M13.559375 195.83441L19.246876 195.83441L19.246876 196.13129L15.715625 206.64691L14.840625 206.64691L17.996876 197.10004L15.090625 197.10004Q14.2 197.10004 13.825 197.31879Q13.16875 197.67816 12.778125 198.42816L12.54375 198.33441L13.559375 195.83441ZM20.528126 201.19379Q20.528126 199.38129 21.075 198.06879Q21.621876 196.75629 22.528126 196.11566Q23.23125 195.61566 23.98125 195.61566Q25.2 195.61566 26.16875 196.85004Q27.3875 198.39691 27.3875 201.02191Q27.3875 202.86566 26.85625 204.16254Q26.325 205.44379 25.496876 206.03754Q24.66875 206.61566 23.903126 206.61566Q22.3875 206.61566 21.3875 204.81879Q20.528126 203.31879 20.528126 201.19379ZM22.059376 201.38129Q22.059376 203.56879 22.60625 204.95941Q23.04375 206.11566 23.934376 206.11566Q24.35625 206.11566 24.809376 205.74066Q25.2625 205.36566 25.496876 204.47504Q25.85625 203.13129 25.85625 200.67816Q25.85625 198.86566 25.48125 197.66254Q25.2 196.75629 24.746876 196.38129Q24.434376 196.13129 23.98125 196.13129Q23.45 196.13129 23.028126 196.60004Q22.465626 197.25629 22.2625 198.64691Q22.059376 200.03754 22.059376 201.38129ZM29.95 204.91254Q30.325 204.91254 30.575 205.16254Q30.825 205.41254 30.825 205.77191Q30.825 206.13129 30.559376 206.39691Q30.309376 206.64691 29.95 206.64691Q29.590626 206.64691 29.340626 206.39691Q29.090626 206.13129 29.090626 205.77191Q29.090626 205.41254 29.340626 205.16254Q29.590626 204.91254 29.95 204.91254ZM38.903126 195.83441L38.29375 197.16254L35.10625 197.16254L34.403126 198.58441Q36.48125 198.88129 37.684376 200.11566Q38.73125 201.17816 38.73125 202.61566Q38.73125 203.45941 38.3875 204.17816Q38.04375 204.88129 37.528126 205.38129Q37.0125 205.88129 36.3875 206.17816Q35.48125 206.61566 34.54375 206.61566Q33.590626 206.61566 33.153126 206.28754Q32.715626 205.95941 32.715626 205.56879Q32.715626 205.35004 32.8875 205.19379Q33.075 205.02191 33.35625 205.02191Q33.559376 205.02191 33.7 205.08441Q33.85625 205.14691 34.23125 205.39691Q34.809376 205.80316 35.41875 205.80316Q36.325 205.80316 37.0125 205.11566Q37.715626 204.42816 37.715626 203.42816Q37.715626 202.47504 37.090626 201.64691Q36.48125 200.80316 35.3875 200.35004Q34.54375 200.00629 33.075 199.94379L35.10625 195.83441L38.903126 195.83441ZM50.825 195.58441L43.10625 206.86566L42.41875 206.86566L50.1375 195.58441L50.825 195.58441ZM42.79375 195.58441Q43.85625 195.58441 44.434376 196.45941Q45.0125 197.33441 45.0125 198.47504Q45.0125 199.83441 44.35625 200.58441Q43.7 201.31879 42.778126 201.31879Q42.16875 201.31879 41.653126 200.97504Q41.1375 200.63129 40.825 199.95941Q40.5125 199.28754 40.5125 198.47504Q40.5125 197.64691 40.825 196.95941Q41.1375 196.27191 41.684376 195.92816Q42.23125 195.58441 42.79375 195.58441ZM42.778126 196.02191Q42.371876 196.02191 42.059376 196.49066Q41.7625 196.95941 41.7625 198.45941Q41.7625 199.55316 41.934376 200.11566Q42.059376 200.55316 42.340626 200.78754Q42.5125 200.92816 42.746876 200.92816Q43.121876 200.92816 43.3875 200.52191Q43.778126 199.91254 43.778126 198.50629Q43.778126 197.02191 43.403126 196.42816Q43.153126 196.02191 42.778126 196.02191ZM50.465626 201.16254Q51.028126 201.16254 51.575 201.52191Q52.121876 201.86566 52.41875 202.53754Q52.73125 203.20941 52.73125 204.02191Q52.73125 205.39691 52.059376 206.13129Q51.403126 206.86566 50.496876 206.86566Q49.91875 206.86566 49.3875 206.50629Q48.85625 206.16254 48.54375 205.50629Q48.23125 204.85004 48.23125 204.02191Q48.23125 203.19379 48.54375 202.52191Q48.85625 201.83441 49.3875 201.50629Q49.91875 201.16254 50.465626 201.16254ZM50.48125 201.58441Q50.10625 201.58441 49.825 202.00629Q49.48125 202.55316 49.48125 204.06879Q49.48125 205.47504 49.840626 206.02191Q50.10625 206.42816 50.48125 206.42816Q50.840626 206.42816 51.121876 205.99066Q51.496876 205.42816 51.496876 204.03754Q51.496876 202.56879 51.121876 201.97504Q50.85625 201.58441 50.48125 201.58441Z" fill-rule="nonzero"/><path stroke="#757575" stroke-width="1.0" stroke-linecap="butt" d="M11.95 189.92816L141.93333 189.92816L168.78583 189.92816" fill-rule="nonzero"/><path fill="#9e9e9e" d="M170.78583 189.92816C170.78583 188.8236 169.8904 187.92816 168.78583 187.92816C167.68126 187.92816 166.78583 188.8236 166.78583 189.92816C166.78583 191.03273 167.68126 191.92816 168.78583 191.92816C169.8904 191.92816 170.78583 191.03273 170.78583 189.92816" fill-rule="nonzero"/><path fill="#000000" d="M337.83124 73.944756L340.72186 73.944756L347.1906 81.882256L347.1906 75.77288Q347.1906 74.80413 346.97186 74.55413Q346.6906 74.226006 346.0656 74.226006L345.6906 74.226006L345.6906 73.944756L349.3781 73.944756L349.3781 74.226006L349.0031 74.226006Q348.33124 74.226006 348.05 74.632256Q347.8781 74.882256 347.8781 75.77288L347.8781 84.71038L347.59686 84.71038L340.6125 76.17913L340.6125 82.694756Q340.6125 83.67913 340.83124 83.913506Q341.1281 84.24163 341.7375 84.24163L342.1125 84.24163L342.1125 84.538506L338.425 84.538506L338.425 84.24163L338.8 84.24163Q339.47186 84.24163 339.7531 83.83538Q339.925 83.58538 339.925 82.694756L339.925 75.33538Q339.47186 74.788506 339.22186 74.61663Q338.9875 74.444756 338.53436 74.30413Q338.3 74.226006 337.83124 74.226006L337.83124 73.944756ZM354.05 77.163506Q355.675 77.163506 356.65936 78.39788Q357.5031 79.46038 357.5031 80.819756Q357.5031 81.788506 357.03436 82.77288Q356.58124 83.757256 355.76874 84.257256Q354.95624 84.757256 353.97186 84.757256Q352.34686 84.757256 351.39374 83.46038Q350.59686 82.382256 350.59686 81.02288Q350.59686 80.038506 351.08124 79.069756Q351.5656 78.101006 352.3625 77.632256Q353.15936 77.163506 354.05 77.163506ZM353.8156 77.67913Q353.39374 77.67913 352.97186 77.92913Q352.5656 78.163506 352.3 78.788506Q352.05 79.39788 352.05 80.36663Q352.05 81.92913 352.65936 83.069756Q353.28436 84.194756 354.3 84.194756Q355.0656 84.194756 355.55 83.569756Q356.05 82.944756 356.05 81.42913Q356.05 79.52288 355.22186 78.42913Q354.675 77.67913 353.8156 77.67913ZM360.64374 78.67913Q361.89374 77.163506 363.03436 77.163506Q363.6281 77.163506 364.05 77.46038Q364.47186 77.757256 364.72186 78.42913Q364.89374 78.89788 364.89374 79.86663L364.89374 82.913506Q364.89374 83.601006 365.0031 83.83538Q365.08124 84.038506 365.26874 84.14788Q365.47186 84.257256 365.9875 84.257256L365.9875 84.538506L362.4406 84.538506L362.4406 84.257256L362.59686 84.257256Q363.09686 84.257256 363.28436 84.101006Q363.4875 83.944756 363.5656 83.64788Q363.59686 83.538506 363.59686 82.913506L363.59686 79.99163Q363.59686 79.007256 363.34686 78.569756Q363.09686 78.132256 362.4875 78.132256Q361.5656 78.132256 360.64374 79.14788L360.64374 82.913506Q360.64374 83.64788 360.72186 83.819756Q360.83124 84.038506 361.01874 84.14788Q361.22186 84.257256 361.8 84.257256L361.8 84.538506L358.26874 84.538506L358.26874 84.257256L358.425 84.257256Q358.97186 84.257256 359.15936 83.976006Q359.34686 83.694756 359.34686 82.913506L359.34686 80.257256Q359.34686 78.976006 359.28436 78.694756Q359.2375 78.413506 359.1125 78.319756Q358.9875 78.21038 358.78436 78.21038Q358.5656 78.21038 358.26874 78.319756L358.14374 78.038506L360.3 77.163506L360.64374 77.163506L360.64374 78.67913ZM365.70624 80.351006L369.7375 80.351006L369.7375 81.538506L365.70624 81.538506L365.70624 80.351006ZM377.6281 81.819756Q377.34686 83.226006 376.5031 83.99163Q375.65936 84.757256 374.6281 84.757256Q373.40936 84.757256 372.5031 83.74163Q371.59686 82.71038 371.59686 80.96038Q371.59686 79.27288 372.59686 78.226006Q373.6125 77.163506 375.01874 77.163506Q376.0656 77.163506 376.7375 77.726006Q377.425 78.288506 377.425 78.882256Q377.425 79.17913 377.2375 79.36663Q377.05 79.55413 376.70624 79.55413Q376.2375 79.55413 376.0031 79.257256Q375.8781 79.08538 375.83124 78.632256Q375.78436 78.163506 375.51874 77.92913Q375.2375 77.694756 374.7531 77.694756Q373.97186 77.694756 373.5031 78.27288Q372.8625 79.038506 372.8625 80.288506Q372.8625 81.569756 373.4875 82.55413Q374.1281 83.538506 375.1906 83.538506Q375.95624 83.538506 376.5656 83.007256Q377.0031 82.64788 377.40936 81.71038L377.6281 81.819756ZM384.83124 77.382256L384.83124 81.71038Q384.83124 82.96038 384.8781 83.24163Q384.9406 83.507256 385.0656 83.61663Q385.20624 83.726006 385.3781 83.726006Q385.6125 83.726006 385.925 83.601006L386.03436 83.86663L383.89374 84.757256L383.53436 84.757256L383.53436 83.24163Q382.6125 84.24163 382.1281 84.507256Q381.64374 84.757256 381.1125 84.757256Q380.5031 84.757256 380.0656 84.413506Q379.6281 84.05413 379.45624 83.507256Q379.28436 82.96038 379.28436 81.96038L379.28436 78.77288Q379.28436 78.257256 379.175 78.069756Q379.0656 77.86663 378.84686 77.77288Q378.6281 77.663506 378.0656 77.663506L378.0656 77.382256L380.58124 77.382256L380.58124 82.163506Q380.58124 83.163506 380.925 83.476006Q381.26874 83.788506 381.76874 83.788506Q382.09686 83.788506 382.51874 83.58538Q382.95624 83.36663 383.53436 82.77288L383.53436 78.726006Q383.53436 78.11663 383.3156 77.89788Q383.09686 77.67913 382.39374 77.663506L382.39374 77.382256L384.83124 77.382256ZM387.64374 77.163506L387.64374 78.77288Q388.55 77.163506 389.4875 77.163506Q389.925 77.163506 390.20624 77.42913Q390.4875 77.694756 390.4875 78.038506Q390.4875 78.33538 390.28436 78.55413Q390.08124 78.757256 389.8 78.757256Q389.51874 78.757256 389.175 78.49163Q388.84686 78.226006 388.675 78.226006Q388.53436 78.226006 388.3781 78.382256Q388.01874 78.694756 387.64374 79.42913L387.64374 82.86663Q387.64374 83.46038 387.8 83.757256Q387.89374 83.976006 388.14374 84.11663Q388.40936 84.257256 388.89374 84.257256L388.89374 84.538506L385.2375 84.538506L385.2375 84.257256Q385.78436 84.257256 386.05 84.08538Q386.2375 83.96038 386.3156 83.67913Q386.3625 83.55413 386.3625 82.92913L386.3625 80.14788Q386.3625 78.89788 386.3 78.663506Q386.2531 78.42913 386.1125 78.319756Q385.9875 78.21038 385.78436 78.21038Q385.53436 78.21038 385.2375 78.319756L385.15936 78.038506L387.3156 77.163506L387.64374 77.163506ZM392.64374 77.163506L392.64374 78.77288Q393.55 77.163506 394.4875 77.163506Q394.925 77.163506 395.20624 77.42913Q395.4875 77.694756 395.4875 78.038506Q395.4875 78.33538 395.28436 78.55413Q395.08124 78.757256 394.8 78.757256Q394.51874 78.757256 394.175 78.49163Q393.84686 78.226006 393.675 78.226006Q393.53436 78.226006 393.3781 78.382256Q393.01874 78.694756 392.64374 79.42913L392.64374 82.86663Q392.64374 83.46038 392.8 83.757256Q392.89374 83.976006 393.14374 84.11663Q393.40936 84.257256 393.89374 84.257256L393.89374 84.538506L390.2375 84.538506L390.2375 84.257256Q390.78436 84.257256 391.05 84.08538Q391.2375 83.96038 391.3156 83.67913Q391.3625 83.55413 391.3625 82.92913L391.3625 80.14788Q391.3625 78.89788 391.3 78.663506Q391.2531 78.42913 391.1125 78.319756Q390.9875 78.21038 390.78436 78.21038Q390.53436 78.21038 390.2375 78.319756L390.15936 78.038506L392.3156 77.163506L392.64374 77.163506ZM396.7531 80.069756Q396.7531 81.663506 397.53436 82.569756Q398.3156 83.476006 399.3625 83.476006Q400.0656 83.476006 400.58124 83.101006Q401.1125 82.71038 401.45624 81.77288L401.70624 81.92913Q401.53436 82.99163 400.7375 83.882256Q399.95624 84.757256 398.76874 84.757256Q397.4875 84.757256 396.5656 83.757256Q395.64374 82.74163 395.64374 81.05413Q395.64374 79.21038 396.58124 78.194756Q397.53436 77.163506 398.95624 77.163506Q400.15936 77.163506 400.925 77.96038Q401.70624 78.74163 401.70624 80.069756L396.7531 80.069756ZM396.7531 79.61663L400.0656 79.61663Q400.03436 78.92913 399.90936 78.64788Q399.70624 78.21038 399.3156 77.96038Q398.9406 77.71038 398.51874 77.71038Q397.8625 77.71038 397.34686 78.226006Q396.84686 78.726006 396.7531 79.61663ZM404.64374 78.67913Q405.89374 77.163506 407.03436 77.163506Q407.6281 77.163506 408.05 77.46038Q408.47186 77.757256 408.72186 78.42913Q408.89374 78.89788 408.89374 79.86663L408.89374 82.913506Q408.89374 83.601006 409.0031 83.83538Q409.08124 84.038506 409.26874 84.14788Q409.47186 84.257256 409.9875 84.257256L409.9875 84.538506L406.4406 84.538506L406.4406 84.257256L406.59686 84.257256Q407.09686 84.257256 407.28436 84.101006Q407.4875 83.944756 407.5656 83.64788Q407.59686 83.538506 407.59686 82.913506L407.59686 79.99163Q407.59686 79.007256 407.34686 78.569756Q407.09686 78.132256 406.4875 78.132256Q405.5656 78.132256 404.64374 79.14788L404.64374 82.913506Q404.64374 83.64788 404.72186 83.819756Q404.83124 84.038506 405.01874 84.14788Q405.22186 84.257256 405.8 84.257256L405.8 84.538506L402.26874 84.538506L402.26874 84.257256L402.425 84.257256Q402.97186 84.257256 403.15936 83.976006Q403.34686 83.694756 403.34686 82.913506L403.34686 80.257256Q403.34686 78.976006 403.28436 78.694756Q403.2375 78.413506 403.1125 78.319756Q402.9875 78.21038 402.78436 78.21038Q402.5656 78.21038 402.26874 78.319756L402.14374 78.038506L404.3 77.163506L404.64374 77.163506L404.64374 78.67913ZM411.6281 75.02288L411.6281 77.382256L413.3 77.382256L413.3 77.92913L411.6281 77.92913L411.6281 82.569756Q411.6281 83.257256 411.83124 83.507256Q412.03436 83.74163 412.34686 83.74163Q412.59686 83.74163 412.83124 83.58538Q413.08124 83.42913 413.22186 83.11663L413.51874 83.11663Q413.2531 83.882256 412.7531 84.27288Q412.2531 84.663506 411.72186 84.663506Q411.3625 84.663506 411.01874 84.46038Q410.675 84.257256 410.5031 83.882256Q410.34686 83.507256 410.34686 82.74163L410.34686 77.92913L409.20624 77.92913L409.20624 77.663506Q409.64374 77.49163 410.08124 77.08538Q410.53436 76.67913 410.89374 76.11663Q411.0656 75.819756 411.39374 75.02288L411.6281 75.02288ZM424.3781 80.99163L420.26874 80.99163L419.55 82.663506Q419.28436 83.27288 419.28436 83.58538Q419.28436 83.819756 419.51874 84.007256Q419.7531 84.194756 420.51874 84.24163L420.51874 84.538506L417.175 84.538506L417.175 84.24163Q417.84686 84.132256 418.03436 83.944756Q418.4406 83.569756 418.925 82.413506L422.64374 73.694756L422.925 73.694756L426.6125 82.507256Q427.05 83.569756 427.40936 83.89788Q427.78436 84.21038 428.425 84.24163L428.425 84.538506L424.2531 84.538506L424.2531 84.24163Q424.8781 84.21038 425.09686 84.038506Q425.33124 83.851006 425.33124 83.601006Q425.33124 83.257256 425.01874 82.507256L424.3781 80.99163ZM424.15936 80.413506L422.3625 76.132256L420.51874 80.413506L424.15936 80.413506ZM433.175 77.163506L433.175 79.601006L432.925 79.601006Q432.6281 78.46038 432.15936 78.05413Q431.6906 77.632256 430.97186 77.632256Q430.425 77.632256 430.08124 77.92913Q429.7531 78.21038 429.7531 78.55413Q429.7531 78.99163 430.0031 79.30413Q430.2531 79.632256 430.9875 79.99163L432.1281 80.538506Q433.72186 81.319756 433.72186 82.58538Q433.72186 83.55413 432.97186 84.163506Q432.2375 84.757256 431.33124 84.757256Q430.675 84.757256 429.83124 84.52288Q429.5656 84.444756 429.40936 84.444756Q429.22186 84.444756 429.1281 84.64788L428.8625 84.64788L428.8625 82.08538L429.1281 82.08538Q429.34686 83.17913 429.95624 83.74163Q430.58124 84.288506 431.34686 84.288506Q431.8781 84.288506 432.22186 83.976006Q432.5656 83.663506 432.5656 83.21038Q432.5656 82.67913 432.175 82.319756Q431.8 81.944756 430.65936 81.382256Q429.53436 80.819756 429.1906 80.36663Q428.83124 79.913506 428.83124 79.24163Q428.83124 78.351006 429.4406 77.757256Q430.05 77.163506 431.0031 77.163506Q431.425 77.163506 432.03436 77.351006Q432.425 77.46038 432.5656 77.46038Q432.6906 77.46038 432.7531 77.413506Q432.83124 77.351006 432.925 77.163506L433.175 77.163506ZM439.175 77.163506L439.175 79.601006L438.925 79.601006Q438.6281 78.46038 438.15936 78.05413Q437.6906 77.632256 436.97186 77.632256Q436.425 77.632256 436.08124 77.92913Q435.7531 78.21038 435.7531 78.55413Q435.7531 78.99163 436.0031 79.30413Q436.2531 79.632256 436.9875 79.99163L438.1281 80.538506Q439.72186 81.319756 439.72186 82.58538Q439.72186 83.55413 438.97186 84.163506Q438.2375 84.757256 437.33124 84.757256Q436.675 84.757256 435.83124 84.52288Q435.5656 84.444756 435.40936 84.444756Q435.22186 84.444756 435.1281 84.64788L434.8625 84.64788L434.8625 82.08538L435.1281 82.08538Q435.34686 83.17913 435.95624 83.74163Q436.58124 84.288506 437.34686 84.288506Q437.8781 84.288506 438.22186 83.976006Q438.5656 83.663506 438.5656 83.21038Q438.5656 82.67913 438.175 82.319756Q437.8 81.944756 436.65936 81.382256Q435.53436 80.819756 435.1906 80.36663Q434.83124 79.913506 434.83124 79.24163Q434.83124 78.351006 435.4406 77.757256Q436.05 77.163506 437.0031 77.163506Q437.425 77.163506 438.03436 77.351006Q438.425 77.46038 438.5656 77.46038Q438.6906 77.46038 438.7531 77.413506Q438.83124 77.351006 438.925 77.163506L439.175 77.163506ZM441.7531 80.069756Q441.7531 81.663506 442.53436 82.569756Q443.3156 83.476006 444.3625 83.476006Q445.0656 83.476006 445.58124 83.101006Q446.1125 82.71038 446.45624 81.77288L446.70624 81.92913Q446.53436 82.99163 445.7375 83.882256Q444.95624 84.757256 443.76874 84.757256Q442.4875 84.757256 441.5656 83.757256Q440.64374 82.74163 440.64374 81.05413Q440.64374 79.21038 441.58124 78.194756Q442.53436 77.163506 443.95624 77.163506Q445.15936 77.163506 445.925 77.96038Q446.70624 78.74163 446.70624 80.069756L441.7531 80.069756ZM441.7531 79.61663L445.0656 79.61663Q445.03436 78.92913 444.90936 78.64788Q444.70624 78.21038 444.3156 77.96038Q443.9406 77.71038 443.51874 77.71038Q442.8625 77.71038 442.34686 78.226006Q441.84686 78.726006 441.7531 79.61663ZM449.6281 75.02288L449.6281 77.382256L451.3 77.382256L451.3 77.92913L449.6281 77.92913L449.6281 82.569756Q449.6281 83.257256 449.83124 83.507256Q450.03436 83.74163 450.34686 83.74163Q450.59686 83.74163 450.83124 83.58538Q451.08124 83.42913 451.22186 83.11663L451.51874 83.11663Q451.2531 83.882256 450.7531 84.27288Q450.2531 84.663506 449.72186 84.663506Q449.3625 84.663506 449.01874 84.46038Q448.675 84.257256 448.5031 83.882256Q448.34686 83.507256 448.34686 82.74163L448.34686 77.92913L447.20624 77.92913L447.20624 77.663506Q447.64374 77.49163 448.08124 77.08538Q448.53436 76.67913 448.89374 76.11663Q449.0656 75.819756 449.39374 75.02288L449.6281 75.02288ZM456.175 77.163506L456.175 79.601006L455.925 79.601006Q455.6281 78.46038 455.15936 78.05413Q454.6906 77.632256 453.97186 77.632256Q453.425 77.632256 453.08124 77.92913Q452.7531 78.21038 452.7531 78.55413Q452.7531 78.99163 453.0031 79.30413Q453.2531 79.632256 453.9875 79.99163L455.1281 80.538506Q456.72186 81.319756 456.72186 82.58538Q456.72186 83.55413 455.97186 84.163506Q455.2375 84.757256 454.33124 84.757256Q453.675 84.757256 452.83124 84.52288Q452.5656 84.444756 452.40936 84.444756Q452.22186 84.444756 452.1281 84.64788L451.8625 84.64788L451.8625 82.08538L452.1281 82.08538Q452.34686 83.17913 452.95624 83.74163Q453.58124 84.288506 454.34686 84.288506Q454.8781 84.288506 455.22186 83.976006Q455.5656 83.663506 455.5656 83.21038Q455.5656 82.67913 455.175 82.319756Q454.8 81.944756 453.65936 81.382256Q452.53436 80.819756 452.1906 80.36663Q451.83124 79.913506 451.83124 79.24163Q451.83124 78.351006 452.4406 77.757256Q453.05 77.163506 454.0031 77.163506Q454.425 77.163506 455.03436 77.351006Q455.425 77.46038 455.5656 77.46038Q455.6906 77.46038 455.7531 77.413506Q455.83124 77.351006 455.925 77.163506L456.175 77.163506Z" fill-rule="nonzero"/><path fill="#9e9e9e" d="M423.39374 105.49163L422.64374 107.538506L416.39374 107.538506L416.39374 107.24163Q419.15936 104.726006 420.28436 103.132256Q421.40936 101.538506 421.40936 100.226006Q421.40936 99.21038 420.78436 98.569756Q420.175 97.913506 419.3156 97.913506Q418.53436 97.913506 417.90936 98.382256Q417.28436 98.83538 416.9875 99.71038L416.70624 99.71038Q416.89374 98.27288 417.70624 97.507256Q418.51874 96.726006 419.72186 96.726006Q421.01874 96.726006 421.8781 97.55413Q422.7375 98.382256 422.7375 99.507256Q422.7375 100.30413 422.3625 101.11663Q421.78436 102.382256 420.4875 103.788506Q418.55 105.913506 418.0656 106.351006L420.83124 106.351006Q421.675 106.351006 422.0031 106.288506Q422.34686 106.226006 422.6125 106.038506Q422.89374 105.851006 423.09686 105.49163L423.39374 105.49163ZM424.89374 107.757256L424.89374 107.46038Q425.90936 107.444756 426.78436 106.99163Q427.65936 106.538506 428.47186 105.39788Q429.3 104.257256 429.6125 102.882256Q428.39374 103.67913 427.39374 103.67913Q426.28436 103.67913 425.4875 102.819756Q424.6906 101.944756 424.6906 100.52288Q424.6906 99.132256 425.4875 98.038506Q426.4406 96.726006 427.9875 96.726006Q429.3 96.726006 430.22186 97.80413Q431.3625 99.132256 431.3625 101.101006Q431.3625 102.86663 430.4875 104.39788Q429.6281 105.913506 428.08124 106.92913Q426.83124 107.757256 425.34686 107.757256L424.89374 107.757256ZM429.7375 102.30413Q429.8781 101.288506 429.8781 100.67913Q429.8781 99.92913 429.6125 99.05413Q429.3625 98.163506 428.89374 97.694756Q428.425 97.226006 427.8156 97.226006Q427.1281 97.226006 426.59686 97.851006Q426.08124 98.476006 426.08124 99.71038Q426.08124 101.36663 426.76874 102.288506Q427.28436 102.96038 428.01874 102.96038Q428.3781 102.96038 428.8625 102.788506Q429.3625 102.61663 429.7375 102.30413ZM434.05 106.02288Q434.425 106.02288 434.675 106.27288Q434.925 106.52288 434.925 106.882256Q434.925 107.24163 434.65936 107.507256Q434.40936 107.757256 434.05 107.757256Q433.6906 107.757256 433.4406 107.507256Q433.1906 107.24163 433.1906 106.882256Q433.1906 106.52288 433.4406 106.27288Q433.6906 106.02288 434.05 106.02288ZM443.0031 96.944756L442.39374 98.27288L439.20624 98.27288L438.5031 99.694756Q440.58124 99.99163 441.78436 101.226006Q442.83124 102.288506 442.83124 103.726006Q442.83124 104.569756 442.4875 105.288506Q442.14374 105.99163 441.6281 106.49163Q441.1125 106.99163 440.4875 107.288506Q439.58124 107.726006 438.64374 107.726006Q437.6906 107.726006 437.2531 107.39788Q436.8156 107.069756 436.8156 106.67913Q436.8156 106.46038 436.9875 106.30413Q437.175 106.132256 437.45624 106.132256Q437.65936 106.132256 437.8 106.194756Q437.95624 106.257256 438.33124 106.507256Q438.90936 106.913506 439.51874 106.913506Q440.425 106.913506 441.1125 106.226006Q441.8156 105.538506 441.8156 104.538506Q441.8156 103.58538 441.1906 102.757256Q440.58124 101.913506 439.4875 101.46038Q438.64374 101.11663 437.175 101.05413L439.20624 96.944756L443.0031 96.944756ZM454.925 96.694756L447.20624 107.976006L446.51874 107.976006L454.2375 96.694756L454.925 96.694756ZM446.89374 96.694756Q447.95624 96.694756 448.53436 97.569756Q449.1125 98.444756 449.1125 99.58538Q449.1125 100.944756 448.45624 101.694756Q447.8 102.42913 446.8781 102.42913Q446.26874 102.42913 445.7531 102.08538Q445.2375 101.74163 444.925 101.069756Q444.6125 100.39788 444.6125 99.58538Q444.6125 98.757256 444.925 98.069756Q445.2375 97.382256 445.78436 97.038506Q446.33124 96.694756 446.89374 96.694756ZM446.8781 97.132256Q446.47186 97.132256 446.15936 97.601006Q445.8625 98.069756 445.8625 99.569756Q445.8625 100.663506 446.03436 101.226006Q446.15936 101.663506 446.4406 101.89788Q446.6125 102.038506 446.84686 102.038506Q447.22186 102.038506 447.4875 101.632256Q447.8781 101.02288 447.8781 99.61663Q447.8781 98.132256 447.5031 97.538506Q447.2531 97.132256 446.8781 97.132256ZM454.5656 102.27288Q455.1281 102.27288 455.675 102.632256Q456.22186 102.976006 456.51874 103.64788Q456.83124 104.319756 456.83124 105.132256Q456.83124 106.507256 456.15936 107.24163Q455.5031 107.976006 454.59686 107.976006Q454.01874 107.976006 453.4875 107.61663Q452.95624 107.27288 452.64374 106.61663Q452.33124 105.96038 452.33124 105.132256Q452.33124 104.30413 452.64374 103.632256Q452.95624 102.944756 453.4875 102.61663Q454.01874 102.27288 454.5656 102.27288ZM454.58124 102.694756Q454.20624 102.694756 453.925 103.11663Q453.58124 103.663506 453.58124 105.17913Q453.58124 106.58538 453.9406 107.132256Q454.20624 107.538506 454.58124 107.538506Q454.9406 107.538506 455.22186 107.101006Q455.59686 106.538506 455.59686 105.14788Q455.59686 103.67913 455.22186 103.08538Q454.95624 102.694756 454.58124 102.694756Z" fill-rule="nonzero"/><path stroke="#757575" stroke-width="1.0" stroke-linecap="butt" d="M457.05 91.038506L327.06668 91.038506L300.21417 91.038506" fill-rule="nonzero"/><path fill="#9e9e9e" d="M302.21417 91.038506C302.21417 89.93394 301.31876 89.038506 300.21417 89.038506C299.1096 89.038506 298.21417 89.93394 298.21417 91.038506C298.21417 92.143074 299.1096 93.038506 300.21417 93.038506C301.31876 93.038506 302.21417 92.143074 302.21417 91.038506" fill-rule="nonzero"/><path fill="#000000" d="M135.35938 19.090626L135.57812 23.746876L135.01562 23.746876Q134.85938 22.5125 134.57812 21.98125Q134.125 21.1375 133.375 20.73125Q132.625 20.325 131.39062 20.325L128.59375 20.325L128.59375 35.5125Q128.59375 37.340626 128.98438 37.79375Q129.54688 38.403126 130.70312 38.403126L131.39062 38.403126L131.39062 38.95L122.96875 38.95L122.96875 38.403126L123.671875 38.403126Q124.921875 38.403126 125.453125 37.653126Q125.78125 37.184376 125.78125 35.5125L125.78125 20.325L123.390625 20.325Q122.0 20.325 121.40625 20.54375Q120.65625 20.809376 120.109375 21.60625Q119.5625 22.403126 119.46875 23.746876L118.90625 23.746876L119.140625 19.090626L135.35938 19.090626ZM144.5 25.1375Q147.54688 25.1375 149.39062 27.45Q150.95312 29.434376 150.95312 31.996876Q150.95312 33.79375 150.09375 35.6375Q149.23438 37.48125 147.71875 38.41875Q146.20312 39.35625 144.34375 39.35625Q141.3125 39.35625 139.51562 36.95Q138.01562 34.903126 138.01562 32.371876Q138.01562 30.528126 138.92188 28.7Q139.84375 26.871876 141.32812 26.0125Q142.82812 25.1375 144.5 25.1375ZM144.04688 26.090626Q143.26562 26.090626 142.48438 26.559376Q141.70312 27.0125 141.21875 28.16875Q140.73438 29.325 140.73438 31.1375Q140.73438 34.075 141.89062 36.2Q143.0625 38.325 144.96875 38.325Q146.39062 38.325 147.3125 37.153126Q148.23438 35.98125 148.23438 33.121876Q148.23438 29.54375 146.70312 27.496876Q145.65625 26.090626 144.04688 26.090626ZM156.82812 21.121876L156.82812 25.528126L159.96875 25.528126L159.96875 26.559376L156.82812 26.559376L156.82812 35.2625Q156.82812 36.559376 157.20312 37.0125Q157.57812 37.465626 158.17188 37.465626Q158.65625 37.465626 159.10938 37.16875Q159.5625 36.871876 159.8125 36.278126L160.375 36.278126Q159.85938 37.715626 158.92188 38.45Q157.98438 39.16875 157.0 39.16875Q156.32812 39.16875 155.67188 38.79375Q155.03125 38.41875 154.71875 37.73125Q154.42188 37.028126 154.42188 35.575L154.42188 26.559376L152.29688 26.559376L152.29688 26.075Q153.09375 25.746876 153.9375 24.98125Q154.78125 24.215626 155.4375 23.153126Q155.78125 22.60625 156.375 21.121876L156.82812 21.121876ZM168.54688 37.0125Q166.46875 38.60625 165.95312 38.85625Q165.15625 39.23125 164.26562 39.23125Q162.875 39.23125 161.96875 38.278126Q161.0625 37.325 161.0625 35.778126Q161.0625 34.79375 161.51562 34.075Q162.10938 33.075 163.59375 32.2Q165.07812 31.325 168.54688 30.059376L168.54688 29.528126Q168.54688 27.528126 167.90625 26.778126Q167.26562 26.028126 166.04688 26.028126Q165.125 26.028126 164.57812 26.528126Q164.03125 27.028126 164.03125 27.66875L164.0625 28.5125Q164.0625 29.2 163.71875 29.559376Q163.375 29.91875 162.8125 29.91875Q162.26562 29.91875 161.92188 29.54375Q161.57812 29.16875 161.57812 28.5125Q161.57812 27.246876 162.85938 26.2Q164.15625 25.1375 166.48438 25.1375Q168.28125 25.1375 169.42188 25.73125Q170.28125 26.184376 170.6875 27.153126Q170.95312 27.79375 170.95312 29.73125L170.95312 34.29375Q170.95312 36.215626 171.03125 36.653126Q171.10938 37.075 171.26562 37.23125Q171.4375 37.371876 171.65625 37.371876Q171.89062 37.371876 172.07812 37.2625Q172.375 37.075 173.25 36.2L173.25 37.0125Q171.60938 39.215626 170.125 39.215626Q169.40625 39.215626 168.98438 38.715626Q168.5625 38.215626 168.54688 37.0125ZM168.54688 36.059376L168.54688 30.95Q166.32812 31.825 165.6875 32.2Q164.53125 32.840626 164.03125 33.54375Q163.53125 34.246876 163.53125 35.075Q163.53125 36.1375 164.15625 36.840626Q164.79688 37.528126 165.60938 37.528126Q166.71875 37.528126 168.54688 36.059376ZM178.54688 18.121876L178.54688 35.91875Q178.54688 37.184376 178.73438 37.590626Q178.92188 37.996876 179.29688 38.215626Q179.6875 38.41875 180.71875 38.41875L180.71875 38.95L174.14062 38.95L174.14062 38.41875Q175.0625 38.41875 175.39062 38.23125Q175.73438 38.04375 175.92188 37.60625Q176.125 37.16875 176.125 35.91875L176.125 23.73125Q176.125 21.465626 176.01562 20.95Q175.92188 20.41875 175.6875 20.23125Q175.46875 20.04375 175.10938 20.04375Q174.73438 20.04375 174.14062 20.278126L173.89062 19.7625L177.89062 18.121876L178.54688 18.121876ZM201.71875 32.29375L194.03125 32.29375L192.6875 35.434376Q192.1875 36.590626 192.1875 37.16875Q192.1875 37.621876 192.60938 37.965626Q193.04688 38.309376 194.48438 38.403126L194.48438 38.95L188.23438 38.95L188.23438 38.403126Q189.48438 38.184376 189.84375 37.840626Q190.59375 37.1375 191.5 34.98125L198.48438 18.6375L199.0 18.6375L205.92188 35.153126Q206.75 37.153126 207.42188 37.746876Q208.10938 38.340626 209.32812 38.403126L209.32812 38.95L201.48438 38.95L201.48438 38.403126Q202.67188 38.35625 203.09375 38.0125Q203.51562 37.66875 203.51562 37.184376Q203.51562 36.54375 202.92188 35.153126L201.71875 32.29375ZM201.3125 31.215626L197.95312 23.184376L194.48438 31.215626L201.3125 31.215626ZM218.60938 25.1375L218.60938 29.7L218.125 29.7Q217.5625 27.559376 216.6875 26.778126Q215.82812 25.996876 214.48438 25.996876Q213.45312 25.996876 212.8125 26.54375Q212.1875 27.090626 212.1875 27.746876Q212.1875 28.559376 212.65625 29.153126Q213.10938 29.746876 214.51562 30.41875L216.64062 31.465626Q219.625 32.91875 219.625 35.29375Q219.625 37.121876 218.23438 38.246876Q216.85938 39.35625 215.14062 39.35625Q213.90625 39.35625 212.32812 38.91875Q211.84375 38.778126 211.53125 38.778126Q211.20312 38.778126 211.0 39.153126L210.53125 39.153126L210.53125 34.371876L211.0 34.371876Q211.42188 36.41875 212.57812 37.465626Q213.73438 38.496876 215.17188 38.496876Q216.17188 38.496876 216.8125 37.903126Q217.45312 37.309376 217.45312 36.48125Q217.45312 35.465626 216.73438 34.778126Q216.03125 34.090626 213.90625 33.04375Q211.78125 31.98125 211.125 31.121876Q210.46875 30.29375 210.46875 29.0125Q210.46875 27.35625 211.59375 26.246876Q212.73438 25.1375 214.53125 25.1375Q215.32812 25.1375 216.45312 25.465626Q217.20312 25.7 217.45312 25.7Q217.6875 25.7 217.8125 25.590626Q217.95312 25.48125 218.125 25.1375L218.60938 25.1375ZM229.60938 25.1375L229.60938 29.7L229.125 29.7Q228.5625 27.559376 227.6875 26.778126Q226.82812 25.996876 225.48438 25.996876Q224.45312 25.996876 223.8125 26.54375Q223.1875 27.090626 223.1875 27.746876Q223.1875 28.559376 223.65625 29.153126Q224.10938 29.746876 225.51562 30.41875L227.64062 31.465626Q230.625 32.91875 230.625 35.29375Q230.625 37.121876 229.23438 38.246876Q227.85938 39.35625 226.14062 39.35625Q224.90625 39.35625 223.32812 38.91875Q222.84375 38.778126 222.53125 38.778126Q222.20312 38.778126 222.0 39.153126L221.53125 39.153126L221.53125 34.371876L222.0 34.371876Q222.42188 36.41875 223.57812 37.465626Q224.73438 38.496876 226.17188 38.496876Q227.17188 38.496876 227.8125 37.903126Q228.45312 37.309376 228.45312 36.48125Q228.45312 35.465626 227.73438 34.778126Q227.03125 34.090626 224.90625 33.04375Q222.78125 31.98125 222.125 31.121876Q221.46875 30.29375 221.46875 29.0125Q221.46875 27.35625 222.59375 26.246876Q223.73438 25.1375 225.53125 25.1375Q226.32812 25.1375 227.45312 25.465626Q228.20312 25.7 228.45312 25.7Q228.6875 25.7 228.8125 25.590626Q228.95312 25.48125 229.125 25.1375L229.60938 25.1375ZM234.1875 30.590626Q234.17188 33.575 235.64062 35.278126Q237.10938 36.965626 239.09375 36.965626Q240.40625 36.965626 241.375 36.246876Q242.35938 35.528126 243.01562 33.7625L243.46875 34.059376Q243.15625 36.059376 241.67188 37.715626Q240.20312 39.35625 237.96875 39.35625Q235.5625 39.35625 233.82812 37.48125Q232.10938 35.590626 232.10938 32.41875Q232.10938 28.98125 233.875 27.059376Q235.64062 25.121876 238.3125 25.121876Q240.5625 25.121876 242.01562 26.60625Q243.46875 28.090626 243.46875 30.590626L234.1875 30.590626ZM234.1875 29.73125L240.40625 29.73125Q240.32812 28.45 240.09375 27.91875Q239.73438 27.10625 239.0 26.6375Q238.28125 26.16875 237.48438 26.16875Q236.28125 26.16875 235.3125 27.10625Q234.35938 28.04375 234.1875 29.73125ZM248.82812 21.121876L248.82812 25.528126L251.96875 25.528126L251.96875 26.559376L248.82812 26.559376L248.82812 35.2625Q248.82812 36.559376 249.20312 37.0125Q249.57812 37.465626 250.17188 37.465626Q250.65625 37.465626 251.10938 37.16875Q251.5625 36.871876 251.8125 36.278126L252.375 36.278126Q251.85938 37.715626 250.92188 38.45Q249.98438 39.16875 249.0 39.16875Q248.32812 39.16875 247.67188 38.79375Q247.03125 38.41875 246.71875 37.73125Q246.42188 37.028126 246.42188 35.575L246.42188 26.559376L244.29688 26.559376L244.29688 26.075Q245.09375 25.746876 245.9375 24.98125Q246.78125 24.215626 247.4375 23.153126Q247.78125 22.60625 248.375 21.121876L248.82812 21.121876ZM261.60938 25.1375L261.60938 29.7L261.125 29.7Q260.5625 27.559376 259.6875 26.778126Q258.82812 25.996876 257.48438 25.996876Q256.45312 25.996876 255.8125 26.54375Q255.1875 27.090626 255.1875 27.746876Q255.1875 28.559376 255.65625 29.153126Q256.10938 29.746876 257.51562 30.41875L259.64062 31.465626Q262.625 32.91875 262.625 35.29375Q262.625 37.121876 261.23438 38.246876Q259.85938 39.35625 258.14062 39.35625Q256.90625 39.35625 255.32812 38.91875Q254.84375 38.778126 254.53125 38.778126Q254.20312 38.778126 254.0 39.153126L253.53125 39.153126L253.53125 34.371876L254.0 34.371876Q254.42188 36.41875 255.57812 37.465626Q256.73438 38.496876 258.17188 38.496876Q259.17188 38.496876 259.8125 37.903126Q260.45312 37.309376 260.45312 36.48125Q260.45312 35.465626 259.73438 34.778126Q259.03125 34.090626 256.90625 33.04375Q254.78125 31.98125 254.125 31.121876Q253.46875 30.29375 253.46875 29.0125Q253.46875 27.35625 254.59375 26.246876Q255.73438 25.1375 257.53125 25.1375Q258.32812 25.1375 259.45312 25.465626Q260.20312 25.7 260.45312 25.7Q260.6875 25.7 260.8125 25.590626Q260.95312 25.48125 261.125 25.1375L261.60938 25.1375ZM280.3125 44.825L280.3125 45.371876Q278.10938 44.246876 276.625 42.7625Q274.51562 40.6375 273.375 37.746876Q272.23438 34.85625 272.23438 31.7625Q272.23438 27.215626 274.46875 23.48125Q276.71875 19.73125 280.3125 18.121876L280.3125 18.73125Q278.51562 19.73125 277.35938 21.465626Q276.20312 23.184376 275.625 25.840626Q275.0625 28.496876 275.0625 31.371876Q275.0625 34.5125 275.54688 37.075Q275.92188 39.090626 276.45312 40.309376Q277.0 41.54375 277.92188 42.66875Q278.84375 43.79375 280.3125 44.825ZM294.75 35.121876L293.35938 38.95L281.64062 38.95L281.64062 38.403126Q286.8125 33.684376 288.92188 30.7Q291.03125 27.715626 291.03125 25.23125Q291.03125 23.35625 289.875 22.1375Q288.71875 20.91875 287.10938 20.91875Q285.64062 20.91875 284.46875 21.778126Q283.3125 22.6375 282.76562 24.29375L282.21875 24.29375Q282.57812 21.575 284.09375 20.121876Q285.60938 18.66875 287.89062 18.66875Q290.29688 18.66875 291.92188 20.23125Q293.54688 21.778126 293.54688 23.8875Q293.54688 25.403126 292.84375 26.903126Q291.75 29.278126 289.32812 31.934376Q285.67188 35.91875 284.76562 36.73125L289.95312 36.73125Q291.53125 36.73125 292.17188 36.621876Q292.8125 36.496876 293.3125 36.1375Q293.82812 35.778126 294.21875 35.121876L294.75 35.121876ZM297.07812 29.1375Q297.07812 25.73125 298.10938 23.278126Q299.14062 20.825 300.82812 19.621876Q302.15625 18.66875 303.5625 18.66875Q305.84375 18.66875 307.65625 21.0125Q309.9375 23.8875 309.9375 28.825Q309.9375 32.278126 308.9375 34.7Q307.9375 37.121876 306.39062 38.215626Q304.84375 39.309376 303.40625 39.309376Q300.57812 39.309376 298.6875 35.95Q297.07812 33.121876 297.07812 29.1375ZM299.95312 29.496876Q299.95312 33.60625 300.96875 36.2Q301.79688 38.371876 303.45312 38.371876Q304.25 38.371876 305.09375 37.66875Q305.95312 36.95 306.39062 35.29375Q307.0625 32.7625 307.0625 28.184376Q307.0625 24.778126 306.35938 22.5125Q305.82812 20.825 305.0 20.121876Q304.39062 19.6375 303.54688 19.6375Q302.54688 19.6375 301.76562 20.54375Q300.71875 21.746876 300.32812 24.35625Q299.95312 26.965626 299.95312 29.496876ZM324.75 35.121876L323.35938 38.95L311.64062 38.95L311.64062 38.403126Q316.8125 33.684376 318.92188 30.7Q321.03125 27.715626 321.03125 25.23125Q321.03125 23.35625 319.875 22.1375Q318.71875 20.91875 317.10938 20.91875Q315.64062 20.91875 314.46875 21.778126Q313.3125 22.6375 312.76562 24.29375L312.21875 24.29375Q312.57812 21.575 314.09375 20.121876Q315.60938 18.66875 317.89062 18.66875Q320.29688 18.66875 321.92188 20.23125Q323.54688 21.778126 323.54688 23.8875Q323.54688 25.403126 322.84375 26.903126Q321.75 29.278126 319.32812 31.934376Q315.67188 35.91875 314.76562 36.73125L319.95312 36.73125Q321.53125 36.73125 322.17188 36.621876Q322.8125 36.496876 323.3125 36.1375Q323.82812 35.778126 324.21875 35.121876L324.75 35.121876ZM329.51562 21.028126L334.34375 18.66875L334.82812 18.66875L334.82812 35.45Q334.82812 37.121876 334.96875 37.528126Q335.10938 37.934376 335.54688 38.153126Q335.98438 38.371876 337.34375 38.403126L337.34375 38.95L329.875 38.95L329.875 38.403126Q331.28125 38.371876 331.6875 38.16875Q332.09375 37.95 332.25 37.590626Q332.42188 37.23125 332.42188 35.45L332.42188 24.73125Q332.42188 22.559376 332.26562 21.95Q332.17188 21.48125 331.89062 21.2625Q331.625 21.028126 331.25 21.028126Q330.70312 21.028126 329.73438 21.48125L329.51562 21.028126ZM341.67188 18.73125L341.67188 18.121876Q343.90625 19.215626 345.375 20.715626Q347.46875 22.85625 348.60938 25.73125Q349.76562 28.60625 349.76562 31.73125Q349.76562 36.2625 347.53125 40.0125Q345.29688 43.7625 341.67188 45.371876L341.67188 44.825Q343.46875 43.809376 344.64062 42.090626Q345.8125 40.371876 346.375 37.715626Q346.9375 35.059376 346.9375 32.16875Q346.9375 29.04375 346.45312 26.465626Q346.07812 24.45 345.53125 23.23125Q344.98438 22.0125 344.07812 20.8875Q343.17188 19.7625 341.67188 18.73125Z" fill-rule="nonzero"/></svg>