<svg id="Layer_1" data-name="Layer 1" xmlns="http://www.w3.org/2000/svg" xmlns:xlink="http://www.w3.org/1999/xlink" viewBox="0 0 577.06 338.58"><defs><style>.cls-1,.cls-5,.cls-7{fill:none;}.cls-2,.cls-3,.cls-7{stroke:#fff;}.cls-3,.cls-5,.cls-7{stroke-width:2px;}.cls-4{clip-path:url(#clip-path);}.cls-5{stroke:#2aca7c;stroke-miterlimit:2;stroke-opacity:0.8;}.cls-6{fill:#2aca7c;fill-opacity:0.8;}.cls-8{isolation:isolate;}.cls-9{fill:#fff;}</style><clipPath id="clip-path" transform="translate(-0.45)"><rect class="cls-1" x="35.51" y="2" width="540" height="320"/></clipPath></defs><path class="cls-2" d="M186.49,2V322" transform="translate(-0.45)"/><path class="cls-2" d="M306.71,2V322" transform="translate(-0.45)"/><path class="cls-2" d="M426.94,2V322" transform="translate(-0.45)"/><path class="cls-2" d="M547.16,2V322" transform="translate(-0.45)"/><path class="cls-2" d="M35.51,300.12h540" transform="translate(-0.45)"/><path class="cls-2" d="M35.51,257.12h540" transform="translate(-0.45)"/><path class="cls-2" d="M35.51,214.12h540" transform="translate(-0.45)"/><path class="cls-2" d="M35.51,171.12h540" transform="translate(-0.45)"/><path class="cls-2" d="M35.51,128.13h540" transform="translate(-0.45)"/><path class="cls-2" d="M35.51,85.13h540" transform="translate(-0.45)"/><path class="cls-2" d="M35.51,42.13h540" transform="translate(-0.45)"/><path class="cls-3" d="M66.26,2V322" transform="translate(-0.45)"/><g class="cls-4"><path class="cls-5" d="M66.26,21.75l9.62,41.39,2.4,9.35,9.62,33.85L90.31,114l9.61,27.68,2.41,6.26L112,170.55l2.4,5.12L124,194.18l2.4,4.19,12,18.57,2.4,3.28,12,14.6,2.41,2.58,12,11.48,2.4,2,12,9,2.4,1.6,14.43,8.36,2.4,1.21,14.43,6.33,2.4.92,16.84,5.49,2.4.67L256.22,289l2.4.47,21.64,3.5,2.41.32,28.85,3,2.41.2,38.47,2.32,2.4.11,60.12,1.78,2.4,0,127.44,1.48" transform="translate(-0.45)"/><path class="cls-6" d="M69.26,21.75a3,3,0,1,1-3-3A3,3,0,0,1,69.26,21.75Z" transform="translate(-0.45)"/><path class="cls-6" d="M71.66,32.73a3,3,0,1,1-3-3A3,3,0,0,1,71.66,32.73Z" transform="translate(-0.45)"/><path class="cls-6" d="M74.07,43.28a3,3,0,1,1-3-3A3,3,0,0,1,74.07,43.28Z" transform="translate(-0.45)"/><path class="cls-6" d="M76.47,53.41a3,3,0,1,1-3-3A3,3,0,0,1,76.47,53.41Z" transform="translate(-0.45)"/><path class="cls-6" d="M78.88,63.14a3,3,0,1,1-3-3A3,3,0,0,1,78.88,63.14Z" transform="translate(-0.45)"/><path class="cls-6" d="M81.28,72.49a3,3,0,1,1-3-3A3,3,0,0,1,81.28,72.49Z" transform="translate(-0.45)"/><path class="cls-6" d="M83.69,81.47a3,3,0,1,1-3-3A3,3,0,0,1,83.69,81.47Z" transform="translate(-0.45)"/><path class="cls-6" d="M86.09,90.1a3,3,0,1,1-3-3A3,3,0,0,1,86.09,90.1Z" transform="translate(-0.45)"/><path class="cls-6" d="M88.5,98.38a3,3,0,1,1-3-3A3,3,0,0,1,88.5,98.38Z" transform="translate(-0.45)"/><path class="cls-6" d="M90.9,106.34a3,3,0,1,1-3-3A3,3,0,0,1,90.9,106.34Z" transform="translate(-0.45)"/><path class="cls-6" d="M93.31,114a3,3,0,1,1-3-3A3,3,0,0,1,93.31,114Z" transform="translate(-0.45)"/><path class="cls-6" d="M95.71,121.33a3,3,0,1,1-3-3A3,3,0,0,1,95.71,121.33Z" transform="translate(-0.45)"/><path class="cls-6" d="M98.11,128.38a3,3,0,1,1-3-3A3,3,0,0,1,98.11,128.38Z" transform="translate(-0.45)"/><path class="cls-6" d="M100.52,135.16a3,3,0,1,1-3-3A3,3,0,0,1,100.52,135.16Z" transform="translate(-0.45)"/><path class="cls-6" d="M102.92,141.66a3,3,0,1,1-3-3A3,3,0,0,1,102.92,141.66Z" transform="translate(-0.45)"/><path class="cls-6" d="M105.33,147.92a3,3,0,1,1-3-3A3,3,0,0,1,105.33,147.92Z" transform="translate(-0.45)"/><path class="cls-6" d="M107.73,153.92a3,3,0,1,1-3-3A3,3,0,0,1,107.73,153.92Z" transform="translate(-0.45)"/><path class="cls-6" d="M110.14,159.69a3,3,0,1,1-3-3A3,3,0,0,1,110.14,159.69Z" transform="translate(-0.45)"/><path class="cls-6" d="M112.54,165.23a3,3,0,1,1-3-3A3,3,0,0,1,112.54,165.23Z" transform="translate(-0.45)"/><path class="cls-6" d="M115,170.55a3,3,0,1,1-3-3A3,3,0,0,1,115,170.55Z" transform="translate(-0.45)"/><path class="cls-6" d="M117.35,175.67a3,3,0,1,1-3-3A3,3,0,0,1,117.35,175.67Z" transform="translate(-0.45)"/><path class="cls-6" d="M119.75,180.58a3,3,0,1,1-3-3A3,3,0,0,1,119.75,180.58Z" transform="translate(-0.45)"/><path class="cls-6" d="M122.16,185.3a3,3,0,1,1-3-3A3,3,0,0,1,122.16,185.3Z" transform="translate(-0.45)"/><path class="cls-6" d="M124.56,189.83a3,3,0,1,1-3-3A3,3,0,0,1,124.56,189.83Z" transform="translate(-0.45)"/><path class="cls-6" d="M127,194.18a3,3,0,1,1-3-3A3,3,0,0,1,127,194.18Z" transform="translate(-0.45)"/><path class="cls-6" d="M129.37,198.37a3,3,0,1,1-3-3A3,3,0,0,1,129.37,198.37Z" transform="translate(-0.45)"/><path class="cls-6" d="M131.78,202.38a3,3,0,1,1-3-3A3,3,0,0,1,131.78,202.38Z" transform="translate(-0.45)"/><path class="cls-6" d="M134.18,206.24a3,3,0,1,1-3-3A3,3,0,0,1,134.18,206.24Z" transform="translate(-0.45)"/><path class="cls-6" d="M136.59,210a3,3,0,1,1-3-3A3,3,0,0,1,136.59,210Z" transform="translate(-0.45)"/><path class="cls-6" d="M139,213.51a3,3,0,1,1-3-3A3,3,0,0,1,139,213.51Z" transform="translate(-0.45)"/><path class="cls-6" d="M141.4,216.94a3,3,0,1,1-3-3A3,3,0,0,1,141.4,216.94Z" transform="translate(-0.45)"/><path class="cls-6" d="M143.8,220.22a3,3,0,1,1-3-3A3,3,0,0,1,143.8,220.22Z" transform="translate(-0.45)"/><path class="cls-6" d="M146.2,223.38a3,3,0,1,1-3-3A3,3,0,0,1,146.2,223.38Z" transform="translate(-0.45)"/><path class="cls-6" d="M148.61,226.41a3,3,0,1,1-3-3A3,3,0,0,1,148.61,226.41Z" transform="translate(-0.45)"/><path class="cls-6" d="M151,229.33a3,3,0,1,1-3-3A3,3,0,0,1,151,229.33Z" transform="translate(-0.45)"/><path class="cls-6" d="M153.42,232.13a3,3,0,1,1-3-3A3,3,0,0,1,153.42,232.13Z" transform="translate(-0.45)"/><path class="cls-6" d="M155.82,234.82a3,3,0,1,1-3-3A3,3,0,0,1,155.82,234.82Z" transform="translate(-0.45)"/><path class="cls-6" d="M158.23,237.4a3,3,0,1,1-3-3A3,3,0,0,1,158.23,237.4Z" transform="translate(-0.45)"/><path class="cls-6" d="M160.63,239.89a3,3,0,1,1-3-3A3,3,0,0,1,160.63,239.89Z" transform="translate(-0.45)"/><path class="cls-6" d="M163,242.27a3,3,0,1,1-3-3A3,3,0,0,1,163,242.27Z" transform="translate(-0.45)"/><path class="cls-6" d="M165.44,244.56a3,3,0,1,1-3-3A3,3,0,0,1,165.44,244.56Z" transform="translate(-0.45)"/><path class="cls-6" d="M167.85,246.76a3,3,0,1,1-3-3A3,3,0,0,1,167.85,246.76Z" transform="translate(-0.45)"/><path class="cls-6" d="M170.25,248.88a3,3,0,1,1-3-3A3,3,0,0,1,170.25,248.88Z" transform="translate(-0.45)"/><path class="cls-6" d="M172.65,250.91a3,3,0,1,1-3-3A3,3,0,0,1,172.65,250.91Z" transform="translate(-0.45)"/><path class="cls-6" d="M175.06,252.86a3,3,0,1,1-3-3A3,3,0,0,1,175.06,252.86Z" transform="translate(-0.45)"/><path class="cls-6" d="M177.46,254.74a3,3,0,1,1-3-3A3,3,0,0,1,177.46,254.74Z" transform="translate(-0.45)"/><path class="cls-6" d="M179.87,256.54a3,3,0,1,1-3-3A3,3,0,0,1,179.87,256.54Z" transform="translate(-0.45)"/><path class="cls-6" d="M182.27,258.28a3,3,0,1,1-3-3A3,3,0,0,1,182.27,258.28Z" transform="translate(-0.45)"/><path class="cls-6" d="M184.68,259.94a3,3,0,1,1-3-3A3,3,0,0,1,184.68,259.94Z" transform="translate(-0.45)"/><path class="cls-6" d="M187.08,261.54a3,3,0,1,1-3-3A3,3,0,0,1,187.08,261.54Z" transform="translate(-0.45)"/><path class="cls-6" d="M189.49,263.08a3,3,0,1,1-3-3A3,3,0,0,1,189.49,263.08Z" transform="translate(-0.45)"/><path class="cls-6" d="M191.89,264.55a3,3,0,1,1-3-3A3,3,0,0,1,191.89,264.55Z" transform="translate(-0.45)"/><path class="cls-6" d="M194.3,266a3,3,0,1,1-3-3A3,3,0,0,1,194.3,266Z" transform="translate(-0.45)"/><path class="cls-6" d="M196.7,267.33a3,3,0,1,1-3-3A3,3,0,0,1,196.7,267.33Z" transform="translate(-0.45)"/><path class="cls-6" d="M199.1,268.64a3,3,0,1,1-3-3A3,3,0,0,1,199.1,268.64Z" transform="translate(-0.45)"/><path class="cls-6" d="M201.51,269.9a3,3,0,1,1-3-3A3,3,0,0,1,201.51,269.9Z" transform="translate(-0.45)"/><path class="cls-6" d="M203.91,271.11a3,3,0,1,1-3-3A3,3,0,0,1,203.91,271.11Z" transform="translate(-0.45)"/><path class="cls-6" d="M206.32,272.27a3,3,0,1,1-3-3A3,3,0,0,1,206.32,272.27Z" transform="translate(-0.45)"/><path class="cls-6" d="M208.72,273.39a3,3,0,1,1-3-3A3,3,0,0,1,208.72,273.39Z" transform="translate(-0.45)"/><path class="cls-6" d="M211.13,274.47a3,3,0,1,1-3-3A3,3,0,0,1,211.13,274.47Z" transform="translate(-0.45)"/><path class="cls-6" d="M213.53,275.5a3,3,0,1,1-3-3A3,3,0,0,1,213.53,275.5Z" transform="translate(-0.45)"/><path class="cls-6" d="M215.94,276.49a3,3,0,1,1-3-3A3,3,0,0,1,215.94,276.49Z" transform="translate(-0.45)"/><path class="cls-6" d="M218.34,277.44a3,3,0,1,1-3-3A3,3,0,0,1,218.34,277.44Z" transform="translate(-0.45)"/><path class="cls-6" d="M220.74,278.36a3,3,0,1,1-3-3A3,3,0,0,1,220.74,278.36Z" transform="translate(-0.45)"/><path class="cls-6" d="M223.15,279.24a3,3,0,1,1-3-3A3,3,0,0,1,223.15,279.24Z" transform="translate(-0.45)"/><path class="cls-6" d="M225.55,280.09a3,3,0,1,1-3-3A3,3,0,0,1,225.55,280.09Z" transform="translate(-0.45)"/><path class="cls-6" d="M228,280.9a3,3,0,1,1-3-3A3,3,0,0,1,228,280.9Z" transform="translate(-0.45)"/><path class="cls-6" d="M230.36,281.68a3,3,0,1,1-3-3A3,3,0,0,1,230.36,281.68Z" transform="translate(-0.45)"/><path class="cls-6" d="M232.77,282.43a3,3,0,1,1-3-3A3,3,0,0,1,232.77,282.43Z" transform="translate(-0.45)"/><path class="cls-6" d="M235.17,283.16a3,3,0,1,1-3-3A3,3,0,0,1,235.17,283.16Z" transform="translate(-0.45)"/><path class="cls-6" d="M237.58,283.85a3,3,0,1,1-3-3A3,3,0,0,1,237.58,283.85Z" transform="translate(-0.45)"/><path class="cls-6" d="M240,284.52a3,3,0,1,1-3-3A3,3,0,0,1,240,284.52Z" transform="translate(-0.45)"/><path class="cls-6" d="M242.39,285.16a3,3,0,1,1-3-3A3,3,0,0,1,242.39,285.16Z" transform="translate(-0.45)"/><path class="cls-6" d="M244.79,285.78a3,3,0,1,1-3-3A3,3,0,0,1,244.79,285.78Z" transform="translate(-0.45)"/><path class="cls-6" d="M247.19,286.37a3,3,0,1,1-3-3A3,3,0,0,1,247.19,286.37Z" transform="translate(-0.45)"/><path class="cls-6" d="M249.6,286.94a3,3,0,1,1-3-3A3,3,0,0,1,249.6,286.94Z" transform="translate(-0.45)"/><path class="cls-6" d="M252,287.49a3,3,0,1,1-3-3A3,3,0,0,1,252,287.49Z" transform="translate(-0.45)"/><path class="cls-6" d="M254.41,288a3,3,0,1,1-3-3A3,3,0,0,1,254.41,288Z" transform="translate(-0.45)"/><path class="cls-6" d="M256.81,288.53a3,3,0,1,1-3-3A3,3,0,0,1,256.81,288.53Z" transform="translate(-0.45)"/><path class="cls-6" d="M259.22,289a3,3,0,1,1-3-3A3,3,0,0,1,259.22,289Z" transform="translate(-0.45)"/><path class="cls-6" d="M261.62,289.48a3,3,0,1,1-3-3A3,3,0,0,1,261.62,289.48Z" transform="translate(-0.45)"/><path class="cls-6" d="M264,289.94a3,3,0,1,1-3-3A3,3,0,0,1,264,289.94Z" transform="translate(-0.45)"/><path class="cls-6" d="M266.43,290.37a3,3,0,1,1-3-3A3,3,0,0,1,266.43,290.37Z" transform="translate(-0.45)"/><path class="cls-6" d="M268.84,290.79a3,3,0,1,1-3-3A3,3,0,0,1,268.84,290.79Z" transform="translate(-0.45)"/><path class="cls-6" d="M271.24,291.19a3,3,0,1,1-3-3A3,3,0,0,1,271.24,291.19Z" transform="translate(-0.45)"/><path class="cls-6" d="M273.64,291.58a3,3,0,1,1-3-3A3,3,0,0,1,273.64,291.58Z" transform="translate(-0.45)"/><path class="cls-6" d="M276.05,292a3,3,0,1,1-3-3A3,3,0,0,1,276.05,292Z" transform="translate(-0.45)"/><path class="cls-6" d="M278.45,292.31a3,3,0,1,1-3-3A3,3,0,0,1,278.45,292.31Z" transform="translate(-0.45)"/><path class="cls-6" d="M280.86,292.65a3,3,0,1,1-3-3A3,3,0,0,1,280.86,292.65Z" transform="translate(-0.45)"/><path class="cls-6" d="M283.26,293a3,3,0,1,1-3-3A3,3,0,0,1,283.26,293Z" transform="translate(-0.45)"/><path class="cls-6" d="M285.67,293.3a3,3,0,1,1-3-3A3,3,0,0,1,285.67,293.3Z" transform="translate(-0.45)"/><path class="cls-6" d="M288.07,293.61a3,3,0,1,1-3-3A3,3,0,0,1,288.07,293.61Z" transform="translate(-0.45)"/><path class="cls-6" d="M290.48,293.9a3,3,0,1,1-3-3A3,3,0,0,1,290.48,293.9Z" transform="translate(-0.45)"/><path class="cls-6" d="M292.88,294.19a3,3,0,1,1-3-3A3,3,0,0,1,292.88,294.19Z" transform="translate(-0.45)"/><path class="cls-6" d="M295.29,294.46a3,3,0,1,1-3-3A3,3,0,0,1,295.29,294.46Z" transform="translate(-0.45)"/><path class="cls-6" d="M297.69,294.72a3,3,0,1,1-3-3A3,3,0,0,1,297.69,294.72Z" transform="translate(-0.45)"/><path class="cls-6" d="M300.09,295a3,3,0,1,1-3-3A3,3,0,0,1,300.09,295Z" transform="translate(-0.45)"/><path class="cls-6" d="M302.5,295.22a3,3,0,1,1-3-3A3,3,0,0,1,302.5,295.22Z" transform="translate(-0.45)"/><path class="cls-6" d="M304.9,295.46a3,3,0,1,1-3-3A3,3,0,0,1,304.9,295.46Z" transform="translate(-0.45)"/><path class="cls-6" d="M307.31,295.68a3,3,0,1,1-3-3A3,3,0,0,1,307.31,295.68Z" transform="translate(-0.45)"/><path class="cls-6" d="M309.71,295.9a3,3,0,1,1-3-3A3,3,0,0,1,309.71,295.9Z" transform="translate(-0.45)"/><path class="cls-6" d="M312.12,296.11a3,3,0,1,1-3-3A3,3,0,0,1,312.12,296.11Z" transform="translate(-0.45)"/><path class="cls-6" d="M314.52,296.31a3,3,0,1,1-3-3A3,3,0,0,1,314.52,296.31Z" transform="translate(-0.45)"/><path class="cls-6" d="M316.93,296.51a3,3,0,1,1-3-3A3,3,0,0,1,316.93,296.51Z" transform="translate(-0.45)"/><path class="cls-6" d="M319.33,296.7a3,3,0,1,1-3-3A3,3,0,0,1,319.33,296.7Z" transform="translate(-0.45)"/><path class="cls-6" d="M321.73,296.88a3,3,0,1,1-3-3A3,3,0,0,1,321.73,296.88Z" transform="translate(-0.45)"/><path class="cls-6" d="M324.14,297.05a3,3,0,1,1-3-3A3,3,0,0,1,324.14,297.05Z" transform="translate(-0.45)"/><path class="cls-6" d="M326.54,297.22a3,3,0,1,1-3-3A3,3,0,0,1,326.54,297.22Z" transform="translate(-0.45)"/><path class="cls-6" d="M329,297.38a3,3,0,1,1-3-3A3,3,0,0,1,329,297.38Z" transform="translate(-0.45)"/><path class="cls-6" d="M331.35,297.54a3,3,0,1,1-3-3A3,3,0,0,1,331.35,297.54Z" transform="translate(-0.45)"/><path class="cls-6" d="M333.76,297.69a3,3,0,1,1-3-3A3,3,0,0,1,333.76,297.69Z" transform="translate(-0.45)"/><path class="cls-6" d="M336.16,297.84a3,3,0,1,1-3-3A3,3,0,0,1,336.16,297.84Z" transform="translate(-0.45)"/><path class="cls-6" d="M338.57,298a3,3,0,1,1-3-3A3,3,0,0,1,338.57,298Z" transform="translate(-0.45)"/><path class="cls-6" d="M341,298.11a3,3,0,1,1-3-3A3,3,0,0,1,341,298.11Z" transform="translate(-0.45)"/><path class="cls-6" d="M343.38,298.24a3,3,0,1,1-3-3A3,3,0,0,1,343.38,298.24Z" transform="translate(-0.45)"/><path class="cls-6" d="M345.78,298.37a3,3,0,1,1-3-3A3,3,0,0,1,345.78,298.37Z" transform="translate(-0.45)"/><path class="cls-6" d="M348.18,298.49a3,3,0,1,1-3-3A3,3,0,0,1,348.18,298.49Z" transform="translate(-0.45)"/><path class="cls-6" d="M350.59,298.61a3,3,0,1,1-3-3A3,3,0,0,1,350.59,298.61Z" transform="translate(-0.45)"/><path class="cls-6" d="M353,298.72a3,3,0,1,1-3-3A3,3,0,0,1,353,298.72Z" transform="translate(-0.45)"/><path class="cls-6" d="M355.4,298.83a3,3,0,1,1-3-3A3,3,0,0,1,355.4,298.83Z" transform="translate(-0.45)"/><path class="cls-6" d="M357.8,298.94a3,3,0,1,1-3-3A3,3,0,0,1,357.8,298.94Z" transform="translate(-0.45)"/><path class="cls-6" d="M360.21,299a3,3,0,1,1-3-3A3,3,0,0,1,360.21,299Z" transform="translate(-0.45)"/><path class="cls-6" d="M362.61,299.14a3,3,0,1,1-3-3A3,3,0,0,1,362.61,299.14Z" transform="translate(-0.45)"/><path class="cls-6" d="M365,299.23a3,3,0,1,1-3-3A3,3,0,0,1,365,299.23Z" transform="translate(-0.45)"/><path class="cls-6" d="M367.42,299.33a3,3,0,1,1-3-3A3,3,0,0,1,367.42,299.33Z" transform="translate(-0.45)"/><path class="cls-6" d="M369.83,299.42a3,3,0,1,1-3-3A3,3,0,0,1,369.83,299.42Z" transform="translate(-0.45)"/><path class="cls-6" d="M372.23,299.5a3,3,0,1,1-3-3A3,3,0,0,1,372.23,299.5Z" transform="translate(-0.45)"/><path class="cls-6" d="M374.63,299.59a3,3,0,1,1-3-3A3,3,0,0,1,374.63,299.59Z" transform="translate(-0.45)"/><path class="cls-6" d="M377,299.67a3,3,0,1,1-3-3A3,3,0,0,1,377,299.67Z" transform="translate(-0.45)"/><path class="cls-6" d="M379.44,299.75a3,3,0,1,1-3-3A3,3,0,0,1,379.44,299.75Z" transform="translate(-0.45)"/><path class="cls-6" d="M381.85,299.82a3,3,0,1,1-3-3A3,3,0,0,1,381.85,299.82Z" transform="translate(-0.45)"/><path class="cls-6" d="M384.25,299.9a3,3,0,1,1-3-3A3,3,0,0,1,384.25,299.9Z" transform="translate(-0.45)"/><path class="cls-6" d="M386.66,300a3,3,0,1,1-3-3A3,3,0,0,1,386.66,300Z" transform="translate(-0.45)"/><path class="cls-6" d="M389.06,300a3,3,0,1,1-3-3A3,3,0,0,1,389.06,300Z" transform="translate(-0.45)"/><path class="cls-6" d="M391.47,300.1a3,3,0,1,1-3-3A3,3,0,0,1,391.47,300.1Z" transform="translate(-0.45)"/><path class="cls-6" d="M393.87,300.17a3,3,0,1,1-3-3A3,3,0,0,1,393.87,300.17Z" transform="translate(-0.45)"/><path class="cls-6" d="M396.28,300.23a3,3,0,1,1-3-3A3,3,0,0,1,396.28,300.23Z" transform="translate(-0.45)"/><path class="cls-6" d="M398.68,300.29a3,3,0,1,1-3-3A3,3,0,0,1,398.68,300.29Z" transform="translate(-0.45)"/><path class="cls-6" d="M401.08,300.35a3,3,0,1,1-3-3A3,3,0,0,1,401.08,300.35Z" transform="translate(-0.45)"/><path class="cls-6" d="M403.49,300.41a3,3,0,1,1-3-3A3,3,0,0,1,403.49,300.41Z" transform="translate(-0.45)"/><path class="cls-6" d="M405.89,300.46a3,3,0,1,1-3-3A3,3,0,0,1,405.89,300.46Z" transform="translate(-0.45)"/><path class="cls-6" d="M408.3,300.52a3,3,0,1,1-3-3A3,3,0,0,1,408.3,300.52Z" transform="translate(-0.45)"/><path class="cls-6" d="M410.7,300.57a3,3,0,1,1-3-3A3,3,0,0,1,410.7,300.57Z" transform="translate(-0.45)"/><path class="cls-6" d="M413.11,300.62a3,3,0,1,1-3-3A3,3,0,0,1,413.11,300.62Z" transform="translate(-0.45)"/><path class="cls-6" d="M415.51,300.67a3,3,0,1,1-3-3A3,3,0,0,1,415.51,300.67Z" transform="translate(-0.45)"/><path class="cls-6" d="M417.92,300.72a3,3,0,1,1-3-3A3,3,0,0,1,417.92,300.72Z" transform="translate(-0.45)"/><path class="cls-6" d="M420.32,300.77a3,3,0,1,1-3-3A3,3,0,0,1,420.32,300.77Z" transform="translate(-0.45)"/><path class="cls-6" d="M422.72,300.81a3,3,0,1,1-3-3A3,3,0,0,1,422.72,300.81Z" transform="translate(-0.45)"/><path class="cls-6" d="M425.13,300.86a3,3,0,1,1-3-3A3,3,0,0,1,425.13,300.86Z" transform="translate(-0.45)"/><path class="cls-6" d="M427.53,300.9a3,3,0,1,1-3-3A3,3,0,0,1,427.53,300.9Z" transform="translate(-0.45)"/><path class="cls-6" d="M429.94,300.94a3,3,0,1,1-3-3A3,3,0,0,1,429.94,300.94Z" transform="translate(-0.45)"/><path class="cls-6" d="M432.34,301a3,3,0,1,1-3-3A3,3,0,0,1,432.34,301Z" transform="translate(-0.45)"/><path class="cls-6" d="M434.75,301a3,3,0,1,1-3-3A3,3,0,0,1,434.75,301Z" transform="translate(-0.45)"/><path class="cls-6" d="M437.15,301.06a3,3,0,1,1-3-3A3,3,0,0,1,437.15,301.06Z" transform="translate(-0.45)"/><path class="cls-6" d="M439.56,301.1a3,3,0,1,1-3-3A3,3,0,0,1,439.56,301.1Z" transform="translate(-0.45)"/><path class="cls-6" d="M442,301.14a3,3,0,1,1-3-3A3,3,0,0,1,442,301.14Z" transform="translate(-0.45)"/><path class="cls-6" d="M444.37,301.18a3,3,0,1,1-3-3A3,3,0,0,1,444.37,301.18Z" transform="translate(-0.45)"/><path class="cls-6" d="M446.77,301.21a3,3,0,1,1-3-3A3,3,0,0,1,446.77,301.21Z" transform="translate(-0.45)"/><path class="cls-6" d="M449.17,301.25a3,3,0,1,1-3-3A3,3,0,0,1,449.17,301.25Z" transform="translate(-0.45)"/><path class="cls-6" d="M451.58,301.28a3,3,0,1,1-3-3A3,3,0,0,1,451.58,301.28Z" transform="translate(-0.45)"/><path class="cls-6" d="M454,301.31a3,3,0,1,1-3-3A3,3,0,0,1,454,301.31Z" transform="translate(-0.45)"/><path class="cls-6" d="M456.39,301.35a3,3,0,1,1-3-3A3,3,0,0,1,456.39,301.35Z" transform="translate(-0.45)"/><path class="cls-6" d="M458.79,301.38a3,3,0,1,1-3-3A3,3,0,0,1,458.79,301.38Z" transform="translate(-0.45)"/><path class="cls-6" d="M461.2,301.41a3,3,0,1,1-3-3A3,3,0,0,1,461.2,301.41Z" transform="translate(-0.45)"/><path class="cls-6" d="M463.6,301.44a3,3,0,1,1-3-3A3,3,0,0,1,463.6,301.44Z" transform="translate(-0.45)"/><path class="cls-6" d="M466,301.47a3,3,0,1,1-3-3A3,3,0,0,1,466,301.47Z" transform="translate(-0.45)"/><path class="cls-6" d="M468.41,301.5a3,3,0,1,1-3-3A3,3,0,0,1,468.41,301.5Z" transform="translate(-0.45)"/><path class="cls-6" d="M470.82,301.53a3,3,0,1,1-3-3A3,3,0,0,1,470.82,301.53Z" transform="translate(-0.45)"/><path class="cls-6" d="M473.22,301.56a3,3,0,1,1-3-3A3,3,0,0,1,473.22,301.56Z" transform="translate(-0.45)"/><path class="cls-6" d="M475.62,301.58a3,3,0,1,1-3-3A3,3,0,0,1,475.62,301.58Z" transform="translate(-0.45)"/><path class="cls-6" d="M478,301.61a3,3,0,1,1-3-3A3,3,0,0,1,478,301.61Z" transform="translate(-0.45)"/><path class="cls-6" d="M480.43,301.64a3,3,0,1,1-3-3A3,3,0,0,1,480.43,301.64Z" transform="translate(-0.45)"/><path class="cls-6" d="M482.84,301.66a3,3,0,1,1-3-3A3,3,0,0,1,482.84,301.66Z" transform="translate(-0.45)"/><path class="cls-6" d="M485.24,301.69a3,3,0,1,1-3-3A3,3,0,0,1,485.24,301.69Z" transform="translate(-0.45)"/><path class="cls-6" d="M487.65,301.72a3,3,0,1,1-3-3A3,3,0,0,1,487.65,301.72Z" transform="translate(-0.45)"/><path class="cls-6" d="M490.05,301.74a3,3,0,1,1-3-3A3,3,0,0,1,490.05,301.74Z" transform="translate(-0.45)"/><path class="cls-6" d="M492.46,301.76a3,3,0,1,1-3-3A3,3,0,0,1,492.46,301.76Z" transform="translate(-0.45)"/><path class="cls-6" d="M494.86,301.79a3,3,0,1,1-3-3A3,3,0,0,1,494.86,301.79Z" transform="translate(-0.45)"/><path class="cls-6" d="M497.27,301.81a3,3,0,1,1-3-3A3,3,0,0,1,497.27,301.81Z" transform="translate(-0.45)"/><path class="cls-6" d="M499.67,301.84a3,3,0,1,1-3-3A3,3,0,0,1,499.67,301.84Z" transform="translate(-0.45)"/><path class="cls-6" d="M502.07,301.86a3,3,0,1,1-3-3A3,3,0,0,1,502.07,301.86Z" transform="translate(-0.45)"/><path class="cls-6" d="M504.48,301.88a3,3,0,1,1-3-3A3,3,0,0,1,504.48,301.88Z" transform="translate(-0.45)"/><path class="cls-6" d="M506.88,301.9a3,3,0,1,1-3-3A3,3,0,0,1,506.88,301.9Z" transform="translate(-0.45)"/><path class="cls-6" d="M509.29,301.93a3,3,0,1,1-3-3A3,3,0,0,1,509.29,301.93Z" transform="translate(-0.45)"/><path class="cls-6" d="M511.69,302a3,3,0,1,1-3-3A3,3,0,0,1,511.69,302Z" transform="translate(-0.45)"/><path class="cls-6" d="M514.1,302a3,3,0,1,1-3-3A3,3,0,0,1,514.1,302Z" transform="translate(-0.45)"/><path class="cls-6" d="M516.5,302a3,3,0,1,1-3-3A3,3,0,0,1,516.5,302Z" transform="translate(-0.45)"/><path class="cls-6" d="M518.91,302a3,3,0,1,1-3-3A3,3,0,0,1,518.91,302Z" transform="translate(-0.45)"/><path class="cls-6" d="M521.31,302a3,3,0,1,1-3-3A3,3,0,0,1,521.31,302Z" transform="translate(-0.45)"/><path class="cls-6" d="M523.71,302.05a3,3,0,1,1-3-3A3,3,0,0,1,523.71,302.05Z" transform="translate(-0.45)"/><path class="cls-6" d="M526.12,302.08a3,3,0,1,1-3-3A3,3,0,0,1,526.12,302.08Z" transform="translate(-0.45)"/><path class="cls-6" d="M528.52,302.1a3,3,0,1,1-3-3A3,3,0,0,1,528.52,302.1Z" transform="translate(-0.45)"/><path class="cls-6" d="M530.93,302.12a3,3,0,1,1-3-3A3,3,0,0,1,530.93,302.12Z" transform="translate(-0.45)"/><path class="cls-6" d="M533.33,302.14a3,3,0,1,1-3-3A3,3,0,0,1,533.33,302.14Z" transform="translate(-0.45)"/><path class="cls-6" d="M535.74,302.15a3,3,0,1,1-3-3A3,3,0,0,1,535.74,302.15Z" transform="translate(-0.45)"/><path class="cls-6" d="M538.14,302.17a3,3,0,1,1-3-3A3,3,0,0,1,538.14,302.17Z" transform="translate(-0.45)"/><path class="cls-6" d="M540.55,302.19a3,3,0,1,1-3-3A3,3,0,0,1,540.55,302.19Z" transform="translate(-0.45)"/><path class="cls-6" d="M543,302.21a3,3,0,1,1-3-3A3,3,0,0,1,543,302.21Z" transform="translate(-0.45)"/><path class="cls-6" d="M545.36,302.23a3,3,0,1,1-3-3A3,3,0,0,1,545.36,302.23Z" transform="translate(-0.45)"/><path class="cls-6" d="M547.76,302.25a3,3,0,1,1-3-3A3,3,0,0,1,547.76,302.25Z" transform="translate(-0.45)"/></g><path class="cls-7" d="M33.51,323h544M33.51,1h544" transform="translate(-0.45)"/><path class="cls-7" d="M34.51,2V322m542-320V322" transform="translate(-0.45)"/><g class="cls-8"><path class="cls-9" d="M69.29,334a6.3,6.3,0,0,1-.74,3.44,2.92,2.92,0,0,1-4.57,0,6.3,6.3,0,0,1-.73-3.42,6.45,6.45,0,0,1,.73-3.44,2.55,2.55,0,0,1,2.29-1.11,2.52,2.52,0,0,1,2.29,1.13A6.33,6.33,0,0,1,69.29,334Zm-1.54,2.66a3.92,3.92,0,0,0,.27-1.12A13.41,13.41,0,0,0,68.1,334a13.73,13.73,0,0,0-.08-1.55,3.34,3.34,0,0,0-.28-1.11,1.48,1.48,0,0,0-.56-.68,1.92,1.92,0,0,0-1.82,0,1.52,1.52,0,0,0-.57.69,3.45,3.45,0,0,0-.28,1.13c0,.46-.07,1-.07,1.53a13.12,13.12,0,0,0,.07,1.53,3.7,3.7,0,0,0,.27,1.1,1.61,1.61,0,0,0,.55.7,1.64,1.64,0,0,0,.94.24,1.68,1.68,0,0,0,.91-.23A1.57,1.57,0,0,0,67.75,336.7Z" transform="translate(-0.45)"/></g><g class="cls-8"><path class="cls-9" d="M185.64,335.63a3,3,0,0,1-.22,1.16,2.6,2.6,0,0,1-.61.94,2.66,2.66,0,0,1-1,.63,3.75,3.75,0,0,1-1.35.22,6.21,6.21,0,0,1-1.38-.15,5.68,5.68,0,0,1-1.12-.36v-1.23H180a5.13,5.13,0,0,0,1.13.51,3.8,3.8,0,0,0,1.26.22,2.74,2.74,0,0,0,.81-.12,1.63,1.63,0,0,0,.69-.41,1.73,1.73,0,0,0,.39-.6,2.31,2.31,0,0,0,.13-.82,1.75,1.75,0,0,0-.15-.76,1.31,1.31,0,0,0-.43-.5,1.84,1.84,0,0,0-.74-.31,4.88,4.88,0,0,0-1-.09,6.41,6.41,0,0,0-1,.07l-.83.14v-4.49h5.25v1h-4.11V333l.51,0,.46,0a5.66,5.66,0,0,1,1.24.12,2.87,2.87,0,0,1,1,.43,2.25,2.25,0,0,1,.73.83A2.86,2.86,0,0,1,185.64,335.63Z" transform="translate(-0.45)"/><path class="cls-9" d="M193.33,334a6.31,6.31,0,0,1-.73,3.44,2.93,2.93,0,0,1-4.58,0,8.48,8.48,0,0,1,0-6.86,2.9,2.9,0,0,1,4.58,0A6.43,6.43,0,0,1,193.33,334Zm-1.54,2.66a3.91,3.91,0,0,0,.28-1.12,13.66,13.66,0,0,0,.07-1.54,14,14,0,0,0-.07-1.55,3.59,3.59,0,0,0-.29-1.11,1.42,1.42,0,0,0-.56-.68,1.58,1.58,0,0,0-.91-.23,1.62,1.62,0,0,0-.91.23,1.52,1.52,0,0,0-.57.69,3.75,3.75,0,0,0-.27,1.13,14.32,14.32,0,0,0-.07,1.53q0,.92.06,1.53a3.42,3.42,0,0,0,.28,1.1,1.59,1.59,0,0,0,.54.7,1.66,1.66,0,0,0,.94.24,1.72,1.72,0,0,0,.92-.23A1.55,1.55,0,0,0,191.79,336.7Z" transform="translate(-0.45)"/></g><g class="cls-8"><path class="cls-9" d="M301.62,338.4H296.9v-.89h1.82v-5.85H296.9v-.79a5.64,5.64,0,0,0,.79-.07,2,2,0,0,0,.64-.18,1.08,1.08,0,0,0,.42-.37,1.07,1.07,0,0,0,.18-.6h.91v7.86h1.78Z" transform="translate(-0.45)"/><path class="cls-9" d="M309.74,334a6.3,6.3,0,0,1-.74,3.44,2.92,2.92,0,0,1-4.57,0,6.3,6.3,0,0,1-.73-3.42,6.45,6.45,0,0,1,.73-3.44,2.55,2.55,0,0,1,2.29-1.11,2.52,2.52,0,0,1,2.29,1.13A6.33,6.33,0,0,1,309.74,334Zm-1.54,2.66a3.92,3.92,0,0,0,.27-1.12,13.41,13.41,0,0,0,.08-1.54,13.73,13.73,0,0,0-.08-1.55,3.34,3.34,0,0,0-.28-1.11,1.48,1.48,0,0,0-.56-.68,1.92,1.92,0,0,0-1.82,0,1.52,1.52,0,0,0-.57.69,3.45,3.45,0,0,0-.28,1.13c0,.46-.07,1-.07,1.53a13.12,13.12,0,0,0,.07,1.53,3.7,3.7,0,0,0,.27,1.1,1.61,1.61,0,0,0,.55.7,1.66,1.66,0,0,0,.94.24,1.68,1.68,0,0,0,.91-.23A1.57,1.57,0,0,0,308.2,336.7Z" transform="translate(-0.45)"/><path class="cls-9" d="M317.37,334a6.3,6.3,0,0,1-.74,3.44,2.93,2.93,0,0,1-4.58,0,8.48,8.48,0,0,1,0-6.86,2.55,2.55,0,0,1,2.29-1.11,2.52,2.52,0,0,1,2.29,1.13A6.43,6.43,0,0,1,317.37,334Zm-1.55,2.66a3.91,3.91,0,0,0,.28-1.12,13.41,13.41,0,0,0,.08-1.54,13.73,13.73,0,0,0-.08-1.55,3.6,3.6,0,0,0-.28-1.11,1.48,1.48,0,0,0-.56-.68,1.92,1.92,0,0,0-1.82,0,1.52,1.52,0,0,0-.57.69,3.45,3.45,0,0,0-.28,1.13,14.32,14.32,0,0,0-.07,1.53q0,.92.06,1.53a4,4,0,0,0,.28,1.1,1.61,1.61,0,0,0,.55.7,1.64,1.64,0,0,0,.94.24,1.68,1.68,0,0,0,.91-.23A1.55,1.55,0,0,0,315.82,336.7Z" transform="translate(-0.45)"/></g><g class="cls-8"><path class="cls-9" d="M421.85,338.4h-4.72v-.89h1.81v-5.85h-1.81v-.79a5.77,5.77,0,0,0,.79-.07,2,2,0,0,0,.64-.18,1.08,1.08,0,0,0,.42-.37,1.07,1.07,0,0,0,.18-.6h.91v7.86h1.78Z" transform="translate(-0.45)"/><path class="cls-9" d="M429.91,335.63a3.23,3.23,0,0,1-.22,1.16,2.73,2.73,0,0,1-.61.94,2.78,2.78,0,0,1-1,.63,3.75,3.75,0,0,1-1.35.22,6.21,6.21,0,0,1-1.38-.15,5.91,5.91,0,0,1-1.12-.36v-1.23h.09a5,5,0,0,0,1.12.51,3.82,3.82,0,0,0,1.27.22,2.72,2.72,0,0,0,.8-.12,1.66,1.66,0,0,0,1.09-1,2.56,2.56,0,0,0,.13-.82,1.61,1.61,0,0,0-.16-.76,1.23,1.23,0,0,0-.43-.5,1.84,1.84,0,0,0-.74-.31,4.85,4.85,0,0,0-1-.09,6.45,6.45,0,0,0-1,.07c-.32.05-.59.09-.82.14v-4.49h5.25v1h-4.12V333c.17,0,.34,0,.52,0l.45,0a5.6,5.6,0,0,1,1.24.12,2.79,2.79,0,0,1,1,.43,2.09,2.09,0,0,1,.73.83A2.86,2.86,0,0,1,429.91,335.63Z" transform="translate(-0.45)"/><path class="cls-9" d="M437.6,334a6.3,6.3,0,0,1-.74,3.44,2.93,2.93,0,0,1-4.58,0,8.48,8.48,0,0,1,0-6.86,2.9,2.9,0,0,1,4.58,0A6.43,6.43,0,0,1,437.6,334Zm-1.55,2.66a3.91,3.91,0,0,0,.28-1.12,13.41,13.41,0,0,0,.08-1.54,13.73,13.73,0,0,0-.08-1.55,3.6,3.6,0,0,0-.28-1.11,1.48,1.48,0,0,0-.56-.68,1.92,1.92,0,0,0-1.82,0,1.52,1.52,0,0,0-.57.69,3.45,3.45,0,0,0-.28,1.13,14.32,14.32,0,0,0-.07,1.53q0,.92.06,1.53a4,4,0,0,0,.28,1.1,1.61,1.61,0,0,0,.55.7,1.64,1.64,0,0,0,.94.24,1.71,1.71,0,0,0,.91-.23A1.55,1.55,0,0,0,436.05,336.7Z" transform="translate(-0.45)"/></g><g class="cls-8"><path class="cls-9" d="M542.57,338.4h-5.91v-1.22l1.24-1.06c.41-.35.79-.7,1.15-1.05a11,11,0,0,0,1.54-1.73A2.48,2.48,0,0,0,541,332a1.33,1.33,0,0,0-.45-1.07,1.9,1.9,0,0,0-1.25-.38,3.9,3.9,0,0,0-1.16.19,4.43,4.43,0,0,0-1.21.57h-.06V330a5.89,5.89,0,0,1,1.11-.38,5.81,5.81,0,0,1,1.35-.17,3.16,3.16,0,0,1,2.1.65,2.18,2.18,0,0,1,.76,1.76,3.12,3.12,0,0,1-.13.93,3,3,0,0,1-.37.81,6.62,6.62,0,0,1-.53.72q-.31.34-.75.78c-.42.41-.85.8-1.3,1.19l-1.24,1.07h4.69Z" transform="translate(-0.45)"/><path class="cls-9" d="M550.19,334a6.3,6.3,0,0,1-.74,3.44,2.92,2.92,0,0,1-4.57,0,6.3,6.3,0,0,1-.73-3.42,6.45,6.45,0,0,1,.73-3.44,2.55,2.55,0,0,1,2.29-1.11,2.52,2.52,0,0,1,2.29,1.13A6.33,6.33,0,0,1,550.19,334Zm-1.54,2.66a3.92,3.92,0,0,0,.27-1.12A13.41,13.41,0,0,0,549,334a13.73,13.73,0,0,0-.08-1.55,3.34,3.34,0,0,0-.28-1.11,1.48,1.48,0,0,0-.56-.68,1.92,1.92,0,0,0-1.82,0,1.52,1.52,0,0,0-.57.69,3.45,3.45,0,0,0-.28,1.13c0,.46-.07,1-.07,1.53a13.12,13.12,0,0,0,.07,1.53,3.7,3.7,0,0,0,.27,1.1,1.61,1.61,0,0,0,.55.7,1.66,1.66,0,0,0,.94.24,1.68,1.68,0,0,0,.91-.23A1.57,1.57,0,0,0,548.65,336.7Z" transform="translate(-0.45)"/><path class="cls-9" d="M557.82,334a6.3,6.3,0,0,1-.74,3.44,2.93,2.93,0,0,1-4.58,0,8.48,8.48,0,0,1,0-6.86,2.55,2.55,0,0,1,2.29-1.11,2.52,2.52,0,0,1,2.29,1.13A6.43,6.43,0,0,1,557.82,334Zm-1.55,2.66a3.91,3.91,0,0,0,.28-1.12,13.41,13.41,0,0,0,.08-1.54,13.73,13.73,0,0,0-.08-1.55,3.6,3.6,0,0,0-.28-1.11,1.48,1.48,0,0,0-.56-.68,1.92,1.92,0,0,0-1.82,0,1.52,1.52,0,0,0-.57.69,3.45,3.45,0,0,0-.28,1.13,14.32,14.32,0,0,0-.07,1.53q0,.92.06,1.53a4,4,0,0,0,.28,1.1,1.61,1.61,0,0,0,.55.7,1.64,1.64,0,0,0,.94.24,1.68,1.68,0,0,0,.91-.23A1.55,1.55,0,0,0,556.27,336.7Z" transform="translate(-0.45)"/></g><g class="cls-8"><path class="cls-9" d="M6.08,300.12a2,2,0,0,1,.46.63,2.18,2.18,0,0,1,.19,1,2.79,2.79,0,0,1-.22,1.09,2.64,2.64,0,0,1-.61.87,3,3,0,0,1-1,.61,4.19,4.19,0,0,1-1.31.19,6.28,6.28,0,0,1-1.43-.17A6.71,6.71,0,0,1,1,304v-1.22h.09a4.52,4.52,0,0,0,1.17.54,4.08,4.08,0,0,0,1.3.22,2.74,2.74,0,0,0,.78-.12A1.77,1.77,0,0,0,5,303a1.69,1.69,0,0,0,.4-.57,2,2,0,0,0,.13-.78,1.81,1.81,0,0,0-.15-.78,1.28,1.28,0,0,0-.41-.48,1.59,1.59,0,0,0-.64-.25,4.14,4.14,0,0,0-.81-.07H3v-1H3.4a2.45,2.45,0,0,0,1.43-.37,1.26,1.26,0,0,0,.53-1.09,1.1,1.1,0,0,0-.14-.55,1.06,1.06,0,0,0-.37-.39,1.78,1.78,0,0,0-.54-.21,3.2,3.2,0,0,0-.65-.06,3.76,3.76,0,0,0-1.19.2,4.73,4.73,0,0,0-1.18.56H1.23V296a6,6,0,0,1,1.11-.37,5.34,5.34,0,0,1,1.35-.18,4.69,4.69,0,0,1,1.12.12,2.67,2.67,0,0,1,.88.38,1.89,1.89,0,0,1,.64.68,1.94,1.94,0,0,1,.21.93A1.82,1.82,0,0,1,6,298.79a2.2,2.2,0,0,1-1.21.68v.08a3.12,3.12,0,0,1,.65.2A2.16,2.16,0,0,1,6.08,300.12Z" transform="translate(-0.45)"/><path class="cls-9" d="M14.41,301.55a3.23,3.23,0,0,1-.22,1.16,2.73,2.73,0,0,1-.61.94,2.78,2.78,0,0,1-1,.63,3.75,3.75,0,0,1-1.35.22,6.28,6.28,0,0,1-1.38-.15A5.91,5.91,0,0,1,8.72,304v-1.23h.09a5,5,0,0,0,1.12.51,3.82,3.82,0,0,0,1.27.22,2.72,2.72,0,0,0,.8-.12,1.66,1.66,0,0,0,1.09-1,2.56,2.56,0,0,0,.13-.82,1.61,1.61,0,0,0-.16-.76,1.23,1.23,0,0,0-.43-.5,1.84,1.84,0,0,0-.74-.31,4.78,4.78,0,0,0-1-.09,6.45,6.45,0,0,0-1,.07c-.32.05-.59.09-.82.14V295.6h5.25v1H10.23v2.32c.17,0,.34,0,.52,0l.45,0a5.76,5.76,0,0,1,1.25.12,2.83,2.83,0,0,1,1,.43,2.09,2.09,0,0,1,.73.83A2.86,2.86,0,0,1,14.41,301.55Z" transform="translate(-0.45)"/><path class="cls-9" d="M22.1,300a6.3,6.3,0,0,1-.74,3.44,2.53,2.53,0,0,1-2.28,1.1,2.55,2.55,0,0,1-2.3-1.11,8.48,8.48,0,0,1,0-6.86,2.55,2.55,0,0,1,2.29-1.11,2.53,2.53,0,0,1,2.29,1.13A6.43,6.43,0,0,1,22.1,300Zm-1.55,2.66a3.91,3.91,0,0,0,.28-1.12,13.41,13.41,0,0,0,.08-1.54,13.73,13.73,0,0,0-.08-1.55,3.74,3.74,0,0,0-.28-1.12,1.5,1.5,0,0,0-.56-.67,1.92,1.92,0,0,0-1.82,0,1.52,1.52,0,0,0-.57.69,3.45,3.45,0,0,0-.28,1.13,14.32,14.32,0,0,0-.07,1.53q0,.91.06,1.53a4,4,0,0,0,.28,1.1,1.53,1.53,0,0,0,.55.69,1.56,1.56,0,0,0,.94.25,1.68,1.68,0,0,0,.91-.23A1.55,1.55,0,0,0,20.55,302.62Z" transform="translate(-0.45)"/><path class="cls-9" d="M30.64,301.64a2.52,2.52,0,0,1-.25,1.15,2.3,2.3,0,0,1-.66.82,3.25,3.25,0,0,1-1.08.55,5.68,5.68,0,0,1-1.5.16H24.06V295.6h2.58a10.05,10.05,0,0,1,1.43.07A2.69,2.69,0,0,1,29,296a1.64,1.64,0,0,1,.7.65,2,2,0,0,1,.21.94,1.75,1.75,0,0,1-.31,1.06,2.27,2.27,0,0,1-.85.7v.05a2.45,2.45,0,0,1,1.4.77A2.24,2.24,0,0,1,30.64,301.64Zm-1.95-3.93a1.24,1.24,0,0,0-.11-.54.82.82,0,0,0-.34-.35,1.6,1.6,0,0,0-.67-.2c-.26,0-.58,0-1,0H25.22v2.52h1.5a5.06,5.06,0,0,0,.87-.06,1.58,1.58,0,0,0,.59-.23.91.91,0,0,0,.39-.46A1.6,1.6,0,0,0,28.69,297.71Zm.74,4a1.75,1.75,0,0,0-.16-.83,1.19,1.19,0,0,0-.57-.53,1.94,1.94,0,0,0-.68-.19,9,9,0,0,0-1-.05H25.22v3.25h1.53a8.34,8.34,0,0,0,1.25-.08,1.94,1.94,0,0,0,.8-.29,1.47,1.47,0,0,0,.48-.52A1.69,1.69,0,0,0,29.43,301.68Z" transform="translate(-0.45)"/></g><g class="cls-8"><path class="cls-9" d="M7.05,258.87H5.75v2.45H4.63v-2.45H.45v-1.35l4.23-4.92H5.75v5.33h1.3Zm-2.42-.94V254l-3.38,3.94Z" transform="translate(-0.45)"/><path class="cls-9" d="M14.47,257a6.3,6.3,0,0,1-.74,3.44,2.53,2.53,0,0,1-2.28,1.1,2.53,2.53,0,0,1-2.29-1.11A6.3,6.3,0,0,1,8.43,257a6.45,6.45,0,0,1,.73-3.44,2.55,2.55,0,0,1,2.29-1.11,2.52,2.52,0,0,1,2.29,1.13A6.33,6.33,0,0,1,14.47,257Zm-1.54,2.66a3.92,3.92,0,0,0,.27-1.12,13.41,13.41,0,0,0,.08-1.54,13.73,13.73,0,0,0-.08-1.55,3.47,3.47,0,0,0-.28-1.12,1.5,1.5,0,0,0-.56-.67,1.6,1.6,0,0,0-.91-.23,1.6,1.6,0,0,0-.91.23,1.52,1.52,0,0,0-.57.69,3.45,3.45,0,0,0-.28,1.13c0,.46-.07,1-.07,1.53a13.12,13.12,0,0,0,.07,1.53,3.7,3.7,0,0,0,.27,1.1,1.53,1.53,0,0,0,.55.69,1.58,1.58,0,0,0,.94.25,1.68,1.68,0,0,0,.91-.23A1.57,1.57,0,0,0,12.93,259.62Z" transform="translate(-0.45)"/><path class="cls-9" d="M22.1,257a6.3,6.3,0,0,1-.74,3.44,2.53,2.53,0,0,1-2.28,1.1,2.55,2.55,0,0,1-2.3-1.11,8.48,8.48,0,0,1,0-6.86,2.55,2.55,0,0,1,2.29-1.11,2.53,2.53,0,0,1,2.29,1.13A6.43,6.43,0,0,1,22.1,257Zm-1.55,2.66a3.91,3.91,0,0,0,.28-1.12,13.41,13.41,0,0,0,.08-1.54,13.73,13.73,0,0,0-.08-1.55,3.74,3.74,0,0,0-.28-1.12,1.5,1.5,0,0,0-.56-.67,1.92,1.92,0,0,0-1.82,0,1.52,1.52,0,0,0-.57.69,3.45,3.45,0,0,0-.28,1.13,14.32,14.32,0,0,0-.07,1.53q0,.91.06,1.53a4,4,0,0,0,.28,1.1,1.53,1.53,0,0,0,.55.69,1.56,1.56,0,0,0,.94.25,1.68,1.68,0,0,0,.91-.23A1.55,1.55,0,0,0,20.55,259.62Z" transform="translate(-0.45)"/><path class="cls-9" d="M30.64,258.64a2.52,2.52,0,0,1-.25,1.15,2.3,2.3,0,0,1-.66.82,3.25,3.25,0,0,1-1.08.55,5.68,5.68,0,0,1-1.5.16H24.06V252.6h2.58a10.05,10.05,0,0,1,1.43.07A2.69,2.69,0,0,1,29,253a1.64,1.64,0,0,1,.7.65,2,2,0,0,1,.21.94,1.75,1.75,0,0,1-.31,1.06,2.27,2.27,0,0,1-.85.7v.05a2.45,2.45,0,0,1,1.4.77A2.24,2.24,0,0,1,30.64,258.64Zm-1.95-3.93a1.24,1.24,0,0,0-.11-.54.82.82,0,0,0-.34-.35,1.6,1.6,0,0,0-.67-.2c-.26,0-.58,0-1,0H25.22v2.52h1.5a5.06,5.06,0,0,0,.87-.06,1.58,1.58,0,0,0,.59-.23.91.91,0,0,0,.39-.46A1.6,1.6,0,0,0,28.69,254.71Zm.74,4a1.75,1.75,0,0,0-.16-.83,1.19,1.19,0,0,0-.57-.53,1.94,1.94,0,0,0-.68-.19,9,9,0,0,0-1-.05H25.22v3.25h1.53a8.34,8.34,0,0,0,1.25-.08,1.94,1.94,0,0,0,.8-.29,1.47,1.47,0,0,0,.48-.52A1.69,1.69,0,0,0,29.43,258.68Z" transform="translate(-0.45)"/></g><g class="cls-8"><path class="cls-9" d="M7.05,215.87H5.75v2.45H4.63v-2.45H.45v-1.35l4.23-4.92H5.75v5.33h1.3Zm-2.42-.94V211l-3.38,3.94Z" transform="translate(-0.45)"/><path class="cls-9" d="M14.41,215.55a3.23,3.23,0,0,1-.22,1.16,2.73,2.73,0,0,1-.61.94,2.78,2.78,0,0,1-1,.63,3.75,3.75,0,0,1-1.35.22,6.28,6.28,0,0,1-1.38-.15A5.91,5.91,0,0,1,8.72,218v-1.23h.09a5,5,0,0,0,1.12.51,3.82,3.82,0,0,0,1.27.22,2.72,2.72,0,0,0,.8-.12,1.66,1.66,0,0,0,1.09-1,2.56,2.56,0,0,0,.13-.82,1.61,1.61,0,0,0-.16-.76,1.23,1.23,0,0,0-.43-.5,1.84,1.84,0,0,0-.74-.31,4.78,4.78,0,0,0-1-.09,6.45,6.45,0,0,0-1,.07c-.32.05-.59.09-.82.14V209.6h5.25v1H10.23v2.32c.17,0,.34,0,.52,0l.45,0a5.76,5.76,0,0,1,1.25.12,2.83,2.83,0,0,1,1,.43,2.09,2.09,0,0,1,.73.83A2.86,2.86,0,0,1,14.41,215.55Z" transform="translate(-0.45)"/><path class="cls-9" d="M22.1,214a6.3,6.3,0,0,1-.74,3.44,2.53,2.53,0,0,1-2.28,1.1,2.55,2.55,0,0,1-2.3-1.11,8.48,8.48,0,0,1,0-6.86,2.55,2.55,0,0,1,2.29-1.11,2.53,2.53,0,0,1,2.29,1.13A6.43,6.43,0,0,1,22.1,214Zm-1.55,2.66a3.91,3.91,0,0,0,.28-1.12,13.41,13.41,0,0,0,.08-1.54,13.73,13.73,0,0,0-.08-1.55,3.74,3.74,0,0,0-.28-1.12,1.5,1.5,0,0,0-.56-.67,1.92,1.92,0,0,0-1.82,0,1.52,1.52,0,0,0-.57.69,3.45,3.45,0,0,0-.28,1.13,14.32,14.32,0,0,0-.07,1.53q0,.92.06,1.53a4,4,0,0,0,.28,1.1,1.53,1.53,0,0,0,.55.69,1.56,1.56,0,0,0,.94.25,1.68,1.68,0,0,0,.91-.23A1.55,1.55,0,0,0,20.55,216.62Z" transform="translate(-0.45)"/><path class="cls-9" d="M30.64,215.64a2.52,2.52,0,0,1-.25,1.15,2.3,2.3,0,0,1-.66.82,3.25,3.25,0,0,1-1.08.55,5.68,5.68,0,0,1-1.5.16H24.06V209.6h2.58a10.05,10.05,0,0,1,1.43.07A2.69,2.69,0,0,1,29,210a1.64,1.64,0,0,1,.7.65,2,2,0,0,1,.21.94,1.75,1.75,0,0,1-.31,1.06,2.27,2.27,0,0,1-.85.7v.05a2.45,2.45,0,0,1,1.4.77A2.24,2.24,0,0,1,30.64,215.64Zm-1.95-3.93a1.24,1.24,0,0,0-.11-.54.82.82,0,0,0-.34-.35,1.6,1.6,0,0,0-.67-.2c-.26,0-.58,0-1,0H25.22v2.52h1.5a5.06,5.06,0,0,0,.87-.06,1.58,1.58,0,0,0,.59-.23.91.91,0,0,0,.39-.46A1.6,1.6,0,0,0,28.69,211.71Zm.74,4a1.75,1.75,0,0,0-.16-.83,1.19,1.19,0,0,0-.57-.53,1.94,1.94,0,0,0-.68-.19,9,9,0,0,0-1,0H25.22v3.25h1.53a8.34,8.34,0,0,0,1.25-.08,1.94,1.94,0,0,0,.8-.29,1.47,1.47,0,0,0,.48-.52A1.69,1.69,0,0,0,29.43,215.68Z" transform="translate(-0.45)"/></g><g class="cls-8"><path class="cls-9" d="M6.78,172.55a3,3,0,0,1-.22,1.16,2.6,2.6,0,0,1-.61.94,2.7,2.7,0,0,1-1,.63,3.75,3.75,0,0,1-1.35.22,6.34,6.34,0,0,1-1.38-.15A5.57,5.57,0,0,1,1.1,175v-1.23h.08a5,5,0,0,0,1.12.51,3.82,3.82,0,0,0,1.27.22,2.67,2.67,0,0,0,.8-.12,1.66,1.66,0,0,0,.7-.41,1.73,1.73,0,0,0,.39-.6,2.31,2.31,0,0,0,.13-.82,1.61,1.61,0,0,0-.16-.76,1.23,1.23,0,0,0-.43-.5,1.84,1.84,0,0,0-.74-.31,4.78,4.78,0,0,0-1-.09,6.45,6.45,0,0,0-1,.07c-.31.05-.59.09-.82.14V166.6H6.72v1H2.6v2.32c.17,0,.34,0,.52,0l.45,0a5.76,5.76,0,0,1,1.25.12,2.83,2.83,0,0,1,1,.43,2.09,2.09,0,0,1,.73.83A2.86,2.86,0,0,1,6.78,172.55Z" transform="translate(-0.45)"/><path class="cls-9" d="M14.47,171a6.3,6.3,0,0,1-.74,3.44,2.53,2.53,0,0,1-2.28,1.1,2.53,2.53,0,0,1-2.29-1.11A6.3,6.3,0,0,1,8.43,171a6.45,6.45,0,0,1,.73-3.44,2.55,2.55,0,0,1,2.29-1.11,2.52,2.52,0,0,1,2.29,1.13A6.33,6.33,0,0,1,14.47,171Zm-1.54,2.66a3.92,3.92,0,0,0,.27-1.12,13.41,13.41,0,0,0,.08-1.54,13.73,13.73,0,0,0-.08-1.55,3.47,3.47,0,0,0-.28-1.12,1.5,1.5,0,0,0-.56-.67,1.6,1.6,0,0,0-.91-.23,1.6,1.6,0,0,0-.91.23,1.52,1.52,0,0,0-.57.69,3.45,3.45,0,0,0-.28,1.13c0,.46-.07,1-.07,1.53a13.12,13.12,0,0,0,.07,1.53,3.7,3.7,0,0,0,.27,1.1,1.53,1.53,0,0,0,.55.69,1.58,1.58,0,0,0,.94.25,1.68,1.68,0,0,0,.91-.23A1.57,1.57,0,0,0,12.93,173.62Z" transform="translate(-0.45)"/><path class="cls-9" d="M22.1,171a6.3,6.3,0,0,1-.74,3.44,2.53,2.53,0,0,1-2.28,1.1,2.55,2.55,0,0,1-2.3-1.11,8.48,8.48,0,0,1,0-6.86,2.55,2.55,0,0,1,2.29-1.11,2.53,2.53,0,0,1,2.29,1.13A6.43,6.43,0,0,1,22.1,171Zm-1.55,2.66a3.91,3.91,0,0,0,.28-1.12,13.41,13.41,0,0,0,.08-1.54,13.73,13.73,0,0,0-.08-1.55,3.74,3.74,0,0,0-.28-1.12,1.5,1.5,0,0,0-.56-.67,1.92,1.92,0,0,0-1.82,0,1.52,1.52,0,0,0-.57.69,3.45,3.45,0,0,0-.28,1.13,14.32,14.32,0,0,0-.07,1.53q0,.92.06,1.53a4,4,0,0,0,.28,1.1,1.53,1.53,0,0,0,.55.69,1.56,1.56,0,0,0,.94.25,1.68,1.68,0,0,0,.91-.23A1.55,1.55,0,0,0,20.55,173.62Z" transform="translate(-0.45)"/><path class="cls-9" d="M30.64,172.64a2.52,2.52,0,0,1-.25,1.15,2.3,2.3,0,0,1-.66.82,3.25,3.25,0,0,1-1.08.55,5.68,5.68,0,0,1-1.5.16H24.06V166.6h2.58a10.05,10.05,0,0,1,1.43.07A2.69,2.69,0,0,1,29,167a1.64,1.64,0,0,1,.7.65,2,2,0,0,1,.21.94,1.75,1.75,0,0,1-.31,1.06,2.27,2.27,0,0,1-.85.7v.05a2.45,2.45,0,0,1,1.4.77A2.24,2.24,0,0,1,30.64,172.64Zm-1.95-3.93a1.24,1.24,0,0,0-.11-.54.82.82,0,0,0-.34-.35,1.6,1.6,0,0,0-.67-.2c-.26,0-.58,0-1,0H25.22v2.52h1.5a5.06,5.06,0,0,0,.87-.06,1.58,1.58,0,0,0,.59-.23.91.91,0,0,0,.39-.46A1.6,1.6,0,0,0,28.69,168.71Zm.74,4a1.75,1.75,0,0,0-.16-.83,1.19,1.19,0,0,0-.57-.53,1.94,1.94,0,0,0-.68-.19,9,9,0,0,0-1,0H25.22v3.25h1.53a8.34,8.34,0,0,0,1.25-.08,1.94,1.94,0,0,0,.8-.29,1.47,1.47,0,0,0,.48-.52A1.69,1.69,0,0,0,29.43,172.68Z" transform="translate(-0.45)"/></g><g class="cls-8"><path class="cls-9" d="M6.78,129.56a3.07,3.07,0,0,1-.22,1.16,2.6,2.6,0,0,1-.61.94,2.7,2.7,0,0,1-1,.63,3.75,3.75,0,0,1-1.35.22,6.34,6.34,0,0,1-1.38-.15A5.57,5.57,0,0,1,1.1,132v-1.23h.08a5,5,0,0,0,1.12.51,3.82,3.82,0,0,0,1.27.22,2.67,2.67,0,0,0,.8-.12,1.66,1.66,0,0,0,.7-.41,1.73,1.73,0,0,0,.39-.6,2.31,2.31,0,0,0,.13-.82,1.61,1.61,0,0,0-.16-.76,1.23,1.23,0,0,0-.43-.5,1.84,1.84,0,0,0-.74-.31,4.78,4.78,0,0,0-1-.09,6.45,6.45,0,0,0-1,.07c-.31,0-.59.09-.82.14v-4.49H6.72v1H2.6V127c.17,0,.34,0,.52,0l.45,0a5.76,5.76,0,0,1,1.25.12,2.83,2.83,0,0,1,1,.43,2.09,2.09,0,0,1,.73.83A2.86,2.86,0,0,1,6.78,129.56Z" transform="translate(-0.45)"/><path class="cls-9" d="M14.41,129.56a3.27,3.27,0,0,1-.22,1.16,2.73,2.73,0,0,1-.61.94,2.78,2.78,0,0,1-1,.63,3.75,3.75,0,0,1-1.35.22,6.28,6.28,0,0,1-1.38-.15A5.91,5.91,0,0,1,8.72,132v-1.23h.09a5,5,0,0,0,1.12.51,3.82,3.82,0,0,0,1.27.22,2.72,2.72,0,0,0,.8-.12,1.66,1.66,0,0,0,1.09-1,2.56,2.56,0,0,0,.13-.82,1.61,1.61,0,0,0-.16-.76,1.23,1.23,0,0,0-.43-.5,1.84,1.84,0,0,0-.74-.31,4.78,4.78,0,0,0-1-.09,6.45,6.45,0,0,0-1,.07c-.32,0-.59.09-.82.14v-4.49h5.25v1H10.23V127c.17,0,.34,0,.52,0l.45,0a5.76,5.76,0,0,1,1.25.12,2.83,2.83,0,0,1,1,.43,2.09,2.09,0,0,1,.73.83A2.86,2.86,0,0,1,14.41,129.56Z" transform="translate(-0.45)"/><path class="cls-9" d="M22.1,128a6.31,6.31,0,0,1-.74,3.45,2.53,2.53,0,0,1-2.28,1.1,2.55,2.55,0,0,1-2.3-1.11,8.48,8.48,0,0,1,0-6.86,2.55,2.55,0,0,1,2.29-1.11,2.53,2.53,0,0,1,2.29,1.13A6.41,6.41,0,0,1,22.1,128Zm-1.55,2.66a3.75,3.75,0,0,0,.28-1.11,13.47,13.47,0,0,0,.08-1.55,13.67,13.67,0,0,0-.08-1.54,3.74,3.74,0,0,0-.28-1.12,1.59,1.59,0,0,0-.56-.68,2,2,0,0,0-1.82,0,1.61,1.61,0,0,0-.57.7,3.45,3.45,0,0,0-.28,1.13,14.32,14.32,0,0,0-.07,1.53q0,.92.06,1.53a4,4,0,0,0,.28,1.1,1.53,1.53,0,0,0,.55.69,1.64,1.64,0,0,0,.94.24,1.68,1.68,0,0,0,.91-.22A1.52,1.52,0,0,0,20.55,130.62Z" transform="translate(-0.45)"/><path class="cls-9" d="M30.64,129.65a2.45,2.45,0,0,1-.25,1.14,2.25,2.25,0,0,1-.66.83,3.25,3.25,0,0,1-1.08.55,5.68,5.68,0,0,1-1.5.16H24.06v-8.72h2.58a10.05,10.05,0,0,1,1.43.07A2.69,2.69,0,0,1,29,124a1.64,1.64,0,0,1,.7.65,2,2,0,0,1,.21.94,1.75,1.75,0,0,1-.31,1.06,2.27,2.27,0,0,1-.85.7v.05a2.45,2.45,0,0,1,1.4.77A2.24,2.24,0,0,1,30.64,129.65Zm-1.95-3.94a1.22,1.22,0,0,0-.11-.53.82.82,0,0,0-.34-.35,1.6,1.6,0,0,0-.67-.2c-.26,0-.58,0-1,0H25.22v2.52h1.5a5.06,5.06,0,0,0,.87-.06,1.58,1.58,0,0,0,.59-.23.91.91,0,0,0,.39-.46A1.62,1.62,0,0,0,28.69,125.71Zm.74,4a1.75,1.75,0,0,0-.16-.83,1.19,1.19,0,0,0-.57-.53,1.94,1.94,0,0,0-.68-.19,9,9,0,0,0-1,0H25.22v3.25h1.53a8.34,8.34,0,0,0,1.25-.08,1.94,1.94,0,0,0,.8-.29,1.47,1.47,0,0,0,.48-.52A1.69,1.69,0,0,0,29.43,129.69Z" transform="translate(-0.45)"/></g><g class="cls-8"><path class="cls-9" d="M7,86.5a2.85,2.85,0,0,1-.88,2.17A3,3,0,0,1,4,89.51a3.18,3.18,0,0,1-1.18-.2,2.68,2.68,0,0,1-.93-.59,3.15,3.15,0,0,1-.77-1.29A5.78,5.78,0,0,1,.8,85.5a8,8,0,0,1,.25-2.06,4.42,4.42,0,0,1,.8-1.59,3.46,3.46,0,0,1,1.33-1,4.62,4.62,0,0,1,1.89-.37,4.62,4.62,0,0,1,.58,0,2.77,2.77,0,0,1,.48.11V81.7H6.07a1.94,1.94,0,0,0-.49-.17,3.16,3.16,0,0,0-.68-.08,2.63,2.63,0,0,0-2,.79A3.4,3.4,0,0,0,2,84.37a4.74,4.74,0,0,1,1-.46,3.61,3.61,0,0,1,1.1-.15,4.1,4.1,0,0,1,1,.1,2.84,2.84,0,0,1,.87.41,2.28,2.28,0,0,1,.78.91A3.07,3.07,0,0,1,7,86.5Zm-1.19,0a2.18,2.18,0,0,0-.16-.91A1.71,1.71,0,0,0,5.1,85a1.58,1.58,0,0,0-.6-.24,3.85,3.85,0,0,0-.69-.06,3.36,3.36,0,0,0-.92.12A3.8,3.8,0,0,0,2,85.2c0,.09,0,.17,0,.25v.3a4.41,4.41,0,0,0,.19,1.46,2,2,0,0,0,.52.85,1.87,1.87,0,0,0,.58.38,1.92,1.92,0,0,0,.69.12A1.75,1.75,0,0,0,5.3,88,2.08,2.08,0,0,0,5.79,86.55Z" transform="translate(-0.45)"/><path class="cls-9" d="M14.47,85a6.31,6.31,0,0,1-.74,3.45,2.53,2.53,0,0,1-2.28,1.1A2.53,2.53,0,0,1,9.16,88.4,6.3,6.3,0,0,1,8.43,85a6.45,6.45,0,0,1,.73-3.44,2.55,2.55,0,0,1,2.29-1.11,2.52,2.52,0,0,1,2.29,1.13A6.32,6.32,0,0,1,14.47,85Zm-1.54,2.66a3.76,3.76,0,0,0,.27-1.11A13.47,13.47,0,0,0,13.28,85a13.67,13.67,0,0,0-.08-1.54,3.47,3.47,0,0,0-.28-1.12,1.59,1.59,0,0,0-.56-.68,1.68,1.68,0,0,0-.91-.22,1.68,1.68,0,0,0-.91.22,1.61,1.61,0,0,0-.57.7,3.45,3.45,0,0,0-.28,1.13c0,.46-.07,1-.07,1.53a13.12,13.12,0,0,0,.07,1.53,3.7,3.7,0,0,0,.27,1.1,1.53,1.53,0,0,0,.55.69,1.66,1.66,0,0,0,.94.24,1.68,1.68,0,0,0,.91-.22A1.54,1.54,0,0,0,12.93,87.62Z" transform="translate(-0.45)"/><path class="cls-9" d="M22.1,85a6.31,6.31,0,0,1-.74,3.45,2.53,2.53,0,0,1-2.28,1.1,2.55,2.55,0,0,1-2.3-1.11A6.4,6.4,0,0,1,16.06,85a6.36,6.36,0,0,1,.73-3.44,2.55,2.55,0,0,1,2.29-1.11,2.53,2.53,0,0,1,2.29,1.13A6.41,6.41,0,0,1,22.1,85Zm-1.55,2.66a3.75,3.75,0,0,0,.28-1.11A13.47,13.47,0,0,0,20.91,85a13.67,13.67,0,0,0-.08-1.54,3.74,3.74,0,0,0-.28-1.12,1.59,1.59,0,0,0-.56-.68,2,2,0,0,0-1.82,0,1.61,1.61,0,0,0-.57.7,3.45,3.45,0,0,0-.28,1.13A14.32,14.32,0,0,0,17.25,85q0,.92.06,1.53a4,4,0,0,0,.28,1.1,1.53,1.53,0,0,0,.55.69,1.64,1.64,0,0,0,.94.24,1.68,1.68,0,0,0,.91-.22A1.52,1.52,0,0,0,20.55,87.62Z" transform="translate(-0.45)"/><path class="cls-9" d="M30.64,86.65a2.45,2.45,0,0,1-.25,1.14,2.25,2.25,0,0,1-.66.83,3.25,3.25,0,0,1-1.08.55,5.68,5.68,0,0,1-1.5.16H24.06V80.61h2.58a10.05,10.05,0,0,1,1.43.07A2.69,2.69,0,0,1,29,81a1.64,1.64,0,0,1,.7.65,2,2,0,0,1,.21.94,1.75,1.75,0,0,1-.31,1.06,2.27,2.27,0,0,1-.85.7v.05a2.45,2.45,0,0,1,1.4.77A2.24,2.24,0,0,1,30.64,86.65Zm-1.95-3.94a1.22,1.22,0,0,0-.11-.53.82.82,0,0,0-.34-.35,1.6,1.6,0,0,0-.67-.2c-.26,0-.58,0-1,0H25.22v2.52h1.5a5.06,5.06,0,0,0,.87-.06,1.58,1.58,0,0,0,.59-.23.91.91,0,0,0,.39-.46A1.62,1.62,0,0,0,28.69,82.71Zm.74,4a1.75,1.75,0,0,0-.16-.83,1.19,1.19,0,0,0-.57-.53,1.94,1.94,0,0,0-.68-.19,9,9,0,0,0-1,0H25.22v3.25h1.53A8.34,8.34,0,0,0,28,88.26a1.94,1.94,0,0,0,.8-.29,1.47,1.47,0,0,0,.48-.52A1.69,1.69,0,0,0,29.43,86.69Z" transform="translate(-0.45)"/></g><g class="cls-8"><path class="cls-9" d="M7,43.5a2.85,2.85,0,0,1-.88,2.17A3,3,0,0,1,4,46.51a3.18,3.18,0,0,1-1.18-.2,2.68,2.68,0,0,1-.93-.59,3.15,3.15,0,0,1-.77-1.29A5.78,5.78,0,0,1,.8,42.5a8,8,0,0,1,.25-2.06,4.42,4.42,0,0,1,.8-1.59,3.46,3.46,0,0,1,1.33-1,4.62,4.62,0,0,1,1.89-.37,4.62,4.62,0,0,1,.58,0,2.77,2.77,0,0,1,.48.11V38.7H6.07a1.94,1.94,0,0,0-.49-.17,3.16,3.16,0,0,0-.68-.08,2.63,2.63,0,0,0-2,.79A3.4,3.4,0,0,0,2,41.37a4.74,4.74,0,0,1,1-.46,3.61,3.61,0,0,1,1.1-.15,4.1,4.1,0,0,1,1,.1,2.84,2.84,0,0,1,.87.41,2.28,2.28,0,0,1,.78.91A3.07,3.07,0,0,1,7,43.5Zm-1.19,0a2.18,2.18,0,0,0-.16-.91A1.71,1.71,0,0,0,5.1,42a1.58,1.58,0,0,0-.6-.24,3.85,3.85,0,0,0-.69-.06,3.36,3.36,0,0,0-.92.12A3.8,3.8,0,0,0,2,42.2c0,.09,0,.17,0,.25v.3a4.41,4.41,0,0,0,.19,1.46,2,2,0,0,0,.52.85,1.87,1.87,0,0,0,.58.38,1.92,1.92,0,0,0,.69.12A1.75,1.75,0,0,0,5.3,45,2.08,2.08,0,0,0,5.79,43.55Z" transform="translate(-0.45)"/><path class="cls-9" d="M14.41,43.56a3.27,3.27,0,0,1-.22,1.16,2.73,2.73,0,0,1-.61.94,2.78,2.78,0,0,1-1,.63,3.75,3.75,0,0,1-1.35.22,6.28,6.28,0,0,1-1.38-.15A5.91,5.91,0,0,1,8.72,46V44.77h.09a5,5,0,0,0,1.12.51,3.82,3.82,0,0,0,1.27.22,2.72,2.72,0,0,0,.8-.12,1.66,1.66,0,0,0,1.09-1,2.56,2.56,0,0,0,.13-.82,1.61,1.61,0,0,0-.16-.76,1.23,1.23,0,0,0-.43-.5,1.84,1.84,0,0,0-.74-.31,4.78,4.78,0,0,0-1-.09,6.45,6.45,0,0,0-1,.07c-.32,0-.59.09-.82.14V37.61h5.25v1H10.23V41c.17,0,.34,0,.52,0l.45,0a5.76,5.76,0,0,1,1.25.12,2.83,2.83,0,0,1,1,.43,2.09,2.09,0,0,1,.73.83A2.86,2.86,0,0,1,14.41,43.56Z" transform="translate(-0.45)"/><path class="cls-9" d="M22.1,42a6.31,6.31,0,0,1-.74,3.45,2.53,2.53,0,0,1-2.28,1.1,2.55,2.55,0,0,1-2.3-1.11A6.4,6.4,0,0,1,16.06,42a6.36,6.36,0,0,1,.73-3.44,2.55,2.55,0,0,1,2.29-1.11,2.53,2.53,0,0,1,2.29,1.13A6.41,6.41,0,0,1,22.1,42Zm-1.55,2.66a3.75,3.75,0,0,0,.28-1.11A13.47,13.47,0,0,0,20.91,42a13.67,13.67,0,0,0-.08-1.54,3.74,3.74,0,0,0-.28-1.12,1.59,1.59,0,0,0-.56-.68,2,2,0,0,0-1.82,0,1.61,1.61,0,0,0-.57.7,3.45,3.45,0,0,0-.28,1.13A14.32,14.32,0,0,0,17.25,42q0,.92.06,1.53a4,4,0,0,0,.28,1.1,1.53,1.53,0,0,0,.55.69,1.64,1.64,0,0,0,.94.24,1.68,1.68,0,0,0,.91-.22A1.52,1.52,0,0,0,20.55,44.62Z" transform="translate(-0.45)"/><path class="cls-9" d="M30.64,43.65a2.45,2.45,0,0,1-.25,1.14,2.25,2.25,0,0,1-.66.83,3.25,3.25,0,0,1-1.08.55,5.68,5.68,0,0,1-1.5.16H24.06V37.61h2.58a10.05,10.05,0,0,1,1.43.07A2.69,2.69,0,0,1,29,38a1.64,1.64,0,0,1,.7.65,2,2,0,0,1,.21.94,1.75,1.75,0,0,1-.31,1.06,2.27,2.27,0,0,1-.85.7v0a2.45,2.45,0,0,1,1.4.77A2.24,2.24,0,0,1,30.64,43.65Zm-1.95-3.94a1.22,1.22,0,0,0-.11-.53.82.82,0,0,0-.34-.35,1.6,1.6,0,0,0-.67-.2c-.26,0-.58,0-1,0H25.22v2.52h1.5a5.06,5.06,0,0,0,.87-.06,1.58,1.58,0,0,0,.59-.23.91.91,0,0,0,.39-.46A1.62,1.62,0,0,0,28.69,39.71Zm.74,4a1.75,1.75,0,0,0-.16-.83,1.19,1.19,0,0,0-.57-.53,1.94,1.94,0,0,0-.68-.19,9,9,0,0,0-1,0H25.22v3.25h1.53A8.34,8.34,0,0,0,28,45.26a1.94,1.94,0,0,0,.8-.29,1.47,1.47,0,0,0,.48-.52A1.69,1.69,0,0,0,29.43,43.69Z" transform="translate(-0.45)"/></g></svg>