<?xml version="1.0" encoding="utf-8"?>
<!-- Generator: Adobe Illustrator 25.2.1, SVG Export Plug-In . SVG Version: 6.00 Build 0)  -->
<svg version="1.1" id="Layer_1" xmlns="http://www.w3.org/2000/svg" xmlns:xlink="http://www.w3.org/1999/xlink" x="0px" y="0px"
	 viewBox="0 0 1020.6 1057.2" style="enable-background:new 0 0 1020.6 1057.2;" xml:space="preserve">
<style type="text/css">
	.st0{fill:none;stroke:#FFFFFF;stroke-miterlimit:80;stroke-opacity:0.3;}
	.st1{fill:none;stroke:#FFFFFF;stroke-width:2;stroke-miterlimit:80;stroke-opacity:0.3;}
	.st2{fill:none;stroke:#FFFFFF;stroke-width:2;stroke-miterlimit:80;stroke-opacity:0.4286;}
	.st3{fill:none;stroke:#FFFFFF;stroke-miterlimit:10;stroke-opacity:0.4286;}
	.st4{fill:none;stroke:#FFFFFF;stroke-width:3;stroke-miterlimit:80;stroke-opacity:0.9;}
	.st5{fill:#FFFFFF;font-family:'TimesNewRomanPSMT';}
	.st6{fill:#FFFFFF;font-size:34px;}
	.st7{fill:#FFFFFF;font-size:40px;}
	.st8{fill:none;stroke:#FFFFFF;stroke-width:4;stroke-linecap:round;stroke-linejoin:round;stroke-miterlimit:80;}
</style>
<g transform="scale(2,2)">
	<g id="background-images-093f80bb">
	</g>
	<g id="graphpaper-093f80bb">
		<g id="grid-093f80bb">
			<g>
				<path class="st0" d="M65.4,8.8v474.1"/>
				<path class="st0" d="M89.4,8.8v474.1"/>
				<path class="st0" d="M112.4,8.8v474.1"/>
				<path class="st0" d="M135.4,8.8v474.1"/>
				<path class="st0" d="M158.4,8.8v474.1"/>
				<path class="st0" d="M181.4,8.8v474.1"/>
				<path class="st0" d="M204.4,8.8v474.1"/>
				<path class="st0" d="M228.4,8.8v474.1"/>
				<path class="st0" d="M251.4,8.8v474.1"/>
				<path class="st0" d="M274.4,8.8v474.1"/>
				<path class="st0" d="M297.4,8.8v474.1"/>
				<path class="st0" d="M320.4,8.8v474.1"/>
				<path class="st0" d="M343.4,8.8v474.1"/>
				<path class="st0" d="M367.4,8.8v474.1"/>
				<path class="st0" d="M390.4,8.8v474.1"/>
				<path class="st0" d="M413.4,8.8v474.1"/>
				<path class="st0" d="M436.4,8.8v474.1"/>
				<path class="st0" d="M459.4,8.8v474.1"/>
				<path class="st0" d="M482.4,8.8v474.1"/>
				<path class="st0" d="M506.4,8.8v474.1"/>
				<path class="st0" d="M42.9,453.8h463.5"/>
				<path class="st0" d="M42.9,423.8h463.5"/>
				<path class="st0" d="M42.9,393.8h463.5"/>
				<path class="st1" d="M42.9,364.8h463.5"/>
				<path class="st0" d="M42.9,334.8h463.5"/>
				<path class="st0" d="M42.9,304.8h463.5"/>
				<path class="st0" d="M42.9,275.8h463.5"/>
				<path class="st0" d="M42.9,245.8h463.5"/>
				<path class="st0" d="M42.9,216.8h463.5"/>
				<path class="st0" d="M42.9,186.8h463.5"/>
				<path class="st0" d="M42.9,156.8h463.5"/>
				<path class="st0" d="M42.9,127.8h463.5"/>
				<path class="st0" d="M42.9,97.8h463.5"/>
				<path class="st0" d="M42.9,67.8h463.5"/>
				<path class="st0" d="M42.9,38.8h463.5"/>
				<path class="st0" d="M42.9,8.8h463.5"/>
				<path class="st2" d="M135.4,8.8v474.1"/>
				<path class="st2" d="M228.4,8.8v474.1"/>
				<path class="st2" d="M320.4,8.8v474.1"/>
				<path class="st2" d="M413.4,8.8v474.1"/>
				<path class="st2" d="M506.4,8.8v474.1"/>
				<path class="st3" d="M506.4,364.8"/>
				<path class="st3" d="M42.9,364.8"/>
				<path class="st2" d="M42.9,245.8h463.5"/>
				<path class="st2" d="M42.9,127.8h463.5"/>
				<path class="st2" d="M42.9,8.8h463.5"/>
			</g>
		</g>
		<g id="axis-093f80bb">
			<g id="yaxis-093f80bb">
				<path class="st4" d="M42.9,8.8v474.1"/>
			</g>
			<g id="xaxis-093f80bb">
				<path class="st4" d="M42.9,483.3h463.5"/>
			</g>
			<g>
				<g>
					<text transform="matrix(0.5 0 0 0.5 28.6975 501.5707)" class="st5 st6">0</text>
				</g>
				<g>
					<text transform="matrix(0.5 0 0 0.5 124.0115 501.5707)" class="st5 st6">0.2</text>
				</g>
				<g>
					<text transform="matrix(0.5 0 0 0.5 216.687 501.5707)" class="st5 st6">0.4</text>
				</g>
				<g>
					<text transform="matrix(0.5 0 0 0.5 309.3628 501.5707)" class="st5 st6">0.6</text>
				</g>
				<g>
					<text transform="matrix(0.5 0 0 0.5 402.0381 501.5707)" class="st5 st6">0.8</text>
				</g>
				<g>
					<text transform="matrix(0.5 0 0 0.5 501.8022 501.5707)" class="st5 st6">1</text>
				</g>
				<g>
					<text transform="matrix(0.5 0 0 0.5 28.6975 369.585)" class="st5 st6">2</text>
				</g>
				<g>
					<text transform="matrix(0.5 0 0 0.5 28.6975 251.0992)" class="st5 st6">4</text>
				</g>
				<g>
					<text transform="matrix(0.5 0 0 0.5 28.6975 132.6138)" class="st5 st6">6</text>
				</g>
				<g>
					<text transform="matrix(0.5 0 0 0.5 28.6975 14.128)" class="st5 st6">8</text>
				</g>
			</g>
			<g>
				<text transform="matrix(0.5 0 0 0.5 369.8921 522.4468)" class="st5 st7">Traffic Intensity</text>
			</g>
		</g>
	</g>
	<g id="expressions-093f80bb">
		<g id="sketch-093f80bb">
			<g>
				<path class="st8" d="M42.9,482.9l13.8-1.8l15.5-2.2l14.6-2.2l14.1-2.3l13.5-2.3l12.9-2.4l12.6-2.5l12-2.5l11.7-2.7l11.1-2.7
					l10.8-2.8l10.5-2.9l10.3-3l10-3.2l9.7-3.3l9.4-3.4l9.4-3.6l9.1-3.8l8.8-3.9l8.5-4.1l8.5-4.4l8.2-4.6l7.9-4.7l7.9-5.1l7.6-5.3
					l7.6-5.7l7.3-6l7.3-6.5l7-6.8l6.7-7l6.7-7.7l6.4-8l6.4-8.7l6.2-9.1l6.2-10l5.9-10.5l5.9-11.6l5.6-12.1l5.6-13.4l5.3-14.1
					l5.3-15.7l5-16.6l5-18.6l4.7-19.6l4.7-22.1l4.4-23.4l4.4-26.6l4.1-28.3l4.1-32.3l3.8-34.5l1.7-17.5"/>
			</g>
		</g>
	</g>
	<g id="labels-093f80bb">
	</g>
</g>
<g transform="translate(238.05094401041663,333.662109375) rotate(-90,0,0)">
	<text transform="matrix(1 0 0 1 -311.1836 -204.8089)" class="st5 st7">Average Customer Count in System</text>
</g>
</svg>
