<?xml version="1.0" encoding="utf-8"?>
<!-- Generator: Adobe Illustrator 25.2.1, SVG Export Plug-In . SVG Version: 6.00 Build 0)  -->
<svg version="1.1" id="Layer_1" xmlns="http://www.w3.org/2000/svg" xmlns:xlink="http://www.w3.org/1999/xlink" x="0px" y="0px"
	 viewBox="0 0 1420 1478" style="enable-background:new 0 0 1420 1478;" xml:space="preserve">
<style type="text/css">
	.st0{fill:none;stroke:#FFFFFF;stroke-miterlimit:80;stroke-opacity:0.3;}
	.st1{fill:none;stroke:#FFFFFF;stroke-width:2;stroke-miterlimit:80;stroke-opacity:0.4286;}
	.st2{fill:none;stroke:#FFFFFF;stroke-width:3;stroke-miterlimit:80;stroke-opacity:0.9;}
	.st3{fill:#FFFFFF;font-family:'TimesNewRomanPSMT';}
	.st4{fill:#FFFFFF;font-size:34px;}
	.st5{fill:#FFFFFF;font-size:40px;}
	.st6{fill:none;stroke:#FFFFFF;stroke-width:4;stroke-linecap:round;stroke-linejoin:round;stroke-miterlimit:80;}
</style>
<g transform="scale(2,2)">
	<g id="background-images-1c2648f8">
	</g>
	<g id="graphpaper-1c2648f8">
		<g id="grid-1c2648f8">
			<g>
				<path class="st0" d="M72.5,8.8V691"/>
				<path class="st0" d="M105.5,8.8V691"/>
				<path class="st0" d="M139.5,8.8V691"/>
				<path class="st0" d="M172.5,8.8V691"/>
				<path class="st0" d="M205.5,8.8V691"/>
				<path class="st0" d="M239.5,8.8V691"/>
				<path class="st0" d="M272.5,8.8V691"/>
				<path class="st0" d="M305.5,8.8V691"/>
				<path class="st0" d="M339.5,8.8V691"/>
				<path class="st0" d="M372.5,8.8V691"/>
				<path class="st0" d="M405.5,8.8V691"/>
				<path class="st0" d="M439.5,8.8V691"/>
				<path class="st0" d="M472.5,8.8V691"/>
				<path class="st0" d="M505.5,8.8V691"/>
				<path class="st0" d="M539.5,8.8V691"/>
				<path class="st0" d="M572.5,8.8V691"/>
				<path class="st0" d="M605.5,8.8V691"/>
				<path class="st0" d="M639.5,8.8V691"/>
				<path class="st0" d="M672.5,8.8V691"/>
				<path class="st0" d="M705.5,8.8V691"/>
				<path class="st0" d="M40,673.8h665.5"/>
				<path class="st0" d="M40,656.8h665.5"/>
				<path class="st0" d="M40,639.8h665.5"/>
				<path class="st0" d="M40,622.8h665.5"/>
				<path class="st0" d="M40,605.8h665.5"/>
				<path class="st0" d="M40,588.8h665.5"/>
				<path class="st0" d="M40,571.8h665.5"/>
				<path class="st0" d="M40,554.8h665.5"/>
				<path class="st0" d="M40,537.8h665.5"/>
				<path class="st0" d="M40,520.8h665.5"/>
				<path class="st0" d="M40,503.8h665.5"/>
				<path class="st0" d="M40,486.8h665.5"/>
				<path class="st0" d="M40,468.8h665.5"/>
				<path class="st0" d="M40,451.8h665.5"/>
				<path class="st0" d="M40,434.8h665.5"/>
				<path class="st0" d="M40,417.8h665.5"/>
				<path class="st0" d="M40,400.8h665.5"/>
				<path class="st0" d="M40,383.8h665.5"/>
				<path class="st0" d="M40,366.8h665.5"/>
				<path class="st0" d="M40,349.8h665.5"/>
				<path class="st0" d="M40,332.8h665.5"/>
				<path class="st0" d="M40,315.8h665.5"/>
				<path class="st0" d="M40,298.8h665.5"/>
				<path class="st0" d="M40,281.8h665.5"/>
				<path class="st0" d="M40,264.8h665.5"/>
				<path class="st0" d="M40,247.8h665.5"/>
				<path class="st0" d="M40,230.8h665.5"/>
				<path class="st0" d="M40,213.8h665.5"/>
				<path class="st0" d="M40,196.8h665.5"/>
				<path class="st0" d="M40,179.8h665.5"/>
				<path class="st0" d="M40,162.8h665.5"/>
				<path class="st0" d="M40,145.8h665.5"/>
				<path class="st0" d="M40,128.8h665.5"/>
				<path class="st0" d="M40,111.8h665.5"/>
				<path class="st0" d="M40,93.8h665.5"/>
				<path class="st0" d="M40,76.8h665.5"/>
				<path class="st0" d="M40,59.8h665.5"/>
				<path class="st0" d="M40,42.8h665.5"/>
				<path class="st0" d="M40,25.8h665.5"/>
				<path class="st0" d="M40,8.8h665.5"/>
				<path class="st1" d="M172.5,8.8V691"/>
				<path class="st1" d="M305.5,8.8V691"/>
				<path class="st1" d="M439.5,8.8V691"/>
				<path class="st1" d="M572.5,8.8V691"/>
				<path class="st1" d="M705.5,8.8V691"/>
				<path class="st1" d="M40,605.8h665.5"/>
				<path class="st1" d="M40,520.8h665.5"/>
				<path class="st1" d="M40,434.8h665.5"/>
				<path class="st1" d="M40,349.8h665.5"/>
				<path class="st1" d="M40,264.8h665.5"/>
				<path class="st1" d="M40,179.8h665.5"/>
				<path class="st1" d="M40,93.8h665.5"/>
				<path class="st1" d="M40,8.8h665.5"/>
			</g>
		</g>
		<g id="axis-1c2648f8">
			<g id="yaxis-1c2648f8">
				<path class="st2" d="M40,8.8V691"/>
			</g>
			<g id="xaxis-1c2648f8">
				<path class="st2" d="M40,691.3h665.5"/>
			</g>
			<g>
				<g>
					<text transform="matrix(0.5 0 0 0.5 25.1213 709.4946)" class="st3 st4">0</text>
				</g>
				<g>
					<text transform="matrix(0.5 0 0 0.5 161.093 709.4946)" class="st3 st4">0.2</text>
				</g>
				<g>
					<text transform="matrix(0.5 0 0 0.5 294.4263 709.4946)" class="st3 st4">0.4</text>
				</g>
				<g>
					<text transform="matrix(0.5 0 0 0.5 427.7598 709.4946)" class="st3 st4">0.6</text>
				</g>
				<g>
					<text transform="matrix(0.5 0 0 0.5 561.0928 709.4946)" class="st3 st4">0.8</text>
				</g>
				<g>
					<text transform="matrix(0.5 0 0 0.5 701.5151 709.4946)" class="st3 st4">1</text>
				</g>
				<g>
					<text transform="matrix(0.5 0 0 0.5 25.1213 610.7612)" class="st3 st4">1</text>
				</g>
				<g>
					<text transform="matrix(0.5 0 0 0.5 25.1213 525.5278)" class="st3 st4">2</text>
				</g>
				<g>
					<text transform="matrix(0.5 0 0 0.5 25.1213 440.2944)" class="st3 st4">3</text>
				</g>
				<g>
					<text transform="matrix(0.5 0 0 0.5 25.1213 355.061)" class="st3 st4">4</text>
				</g>
				<g>
					<text transform="matrix(0.5 0 0 0.5 25.1213 269.8276)" class="st3 st4">5</text>
				</g>
				<g>
					<text transform="matrix(0.5 0 0 0.5 25.1213 184.5947)" class="st3 st4">6</text>
				</g>
				<g>
					<text transform="matrix(0.5 0 0 0.5 25.1213 99.3613)" class="st3 st4">7</text>
				</g>
				<g>
					<text transform="matrix(0.5 0 0 0.5 25.1213 14.1279)" class="st3 st4">8</text>
				</g>
			</g>
			<g>
				<text transform="matrix(0.5 0 0 0.5 573.042 732.8706)" class="st3 st5">Traffic Intensity</text>
			</g>
		</g>
	</g>
	<g id="expressions-1c2648f8">
		<g id="sketch-1c2648f8">
			<g>
				<path class="st6" d="M40,691l46-0.6l31.1-0.9l22.3-0.9l18.5-1l16.4-1.1l14.9-1.2L203,684l12.9-1.3l12.3-1.4l11.7-1.5l11.4-1.6
					l11.1-1.7l10.8-1.8l10.5-1.9l10.3-2l10-2.1l10-2.3l9.7-2.4l9.7-2.6l9.4-2.7l9.4-2.9l9.1-3.1l9.1-3.3l8.8-3.4l8.8-3.7l8.8-4
					l8.5-4.1l8.5-4.4l8.5-4.7l8.2-4.9l8.2-5.3l8.2-5.7l7.9-5.9l7.9-6.3l7.9-6.8l7.6-7.1l7.6-7.7l7.6-8.3l7.3-8.6l7.3-9.3l7-9.7
					l7-10.5l7-11.4l6.7-11.9l6.7-12.9l6.4-13.5l6.4-14.7l6.4-16.1l6.2-16.8l6.2-18.5l5.9-19.4l5.9-21.3l5.6-22.4L597,325l5.6-27.5
					l5.3-29l5.3-32.4l5-34.2l5-38.4l4.7-40.7l4.7-46l4.4-48.9l1.5-19.3"/>
			</g>
		</g>
	</g>
	<g id="labels-1c2648f8">
	</g>
</g>
<g transform="translate(237.42594401041669,221.46484375) rotate(-90,0,0)">
	<text transform="matrix(1 0 0 1 -197.7822 -198.0776)" class="st3 st5">Average Queue Length</text>
</g>
</svg>
