<?xml version="1.0" encoding="utf-8"?>
<!-- Generator: Adobe Illustrator 25.2.1, SVG Export Plug-In . SVG Version: 6.00 Build 0)  -->
<svg version="1.1" id="Layer_1" xmlns="http://www.w3.org/2000/svg" xmlns:xlink="http://www.w3.org/1999/xlink" x="0px" y="0px"
	 viewBox="0 0 1032.4 1294.1" style="enable-background:new 0 0 1032.4 1294.1;" xml:space="preserve">
<style type="text/css">
	.st0{fill:none;stroke:#FFFFFF;stroke-width:2;stroke-miterlimit:20;stroke-opacity:0.3;}
	.st1{fill:none;stroke:#FFFFFF;stroke-width:2;stroke-miterlimit:20;stroke-opacity:0.4286;}
	.st2{fill:none;stroke:#FFFFFF;stroke-width:4;stroke-miterlimit:20;stroke-opacity:0.9;}
	.st3{fill:#FFFFFF;font-family:'TimesNewRomanPSMT';}
	.st4{fill:#FFFFFF;font-size:34px;}
	.st5{fill:#FFFFFF;font-size:40px;}
	.st6{fill:none;stroke:#FFFFFF;stroke-width:5.6;stroke-linecap:round;stroke-linejoin:round;stroke-miterlimit:20;}
</style>
<g transform="scale(2,2)">
	<g id="background-images-093f80bb">
	</g>
	<g id="graphpaper-093f80bb">
		<g id="grid-093f80bb">
			<g>
				<path class="st0" d="M71.3,9.3v592.1"/>
				<path class="st0" d="M95.3,9.3v592.1"/>
				<path class="st0" d="M118.3,9.3v592.1"/>
				<path class="st0" d="M141.3,9.3v592.1"/>
				<path class="st0" d="M164.3,9.3v592.1"/>
				<path class="st0" d="M187.3,9.3v592.1"/>
				<path class="st0" d="M210.3,9.3v592.1"/>
				<path class="st0" d="M234.3,9.3v592.1"/>
				<path class="st0" d="M257.3,9.3v592.1"/>
				<path class="st0" d="M280.3,9.3v592.1"/>
				<path class="st0" d="M303.3,9.3v592.1"/>
				<path class="st0" d="M326.3,9.3v592.1"/>
				<path class="st0" d="M349.3,9.3v592.1"/>
				<path class="st0" d="M373.3,9.3v592.1"/>
				<path class="st0" d="M396.3,9.3v592.1"/>
				<path class="st0" d="M419.3,9.3v592.1"/>
				<path class="st0" d="M442.3,9.3v592.1"/>
				<path class="st0" d="M465.3,9.3v592.1"/>
				<path class="st0" d="M488.3,9.3v592.1"/>
				<path class="st0" d="M512.3,9.3v592.1"/>
				<path class="st0" d="M48.8,572.3h463.5"/>
				<path class="st0" d="M48.8,542.3h463.5"/>
				<path class="st0" d="M48.8,512.3h463.5"/>
				<path class="st0" d="M48.8,483.3h463.5"/>
				<path class="st0" d="M48.8,453.3h463.5"/>
				<path class="st0" d="M48.8,423.3h463.5"/>
				<path class="st0" d="M48.8,394.3h463.5"/>
				<path class="st0" d="M48.8,364.3h463.5"/>
				<path class="st0" d="M48.8,335.3h463.5"/>
				<path class="st0" d="M48.8,305.3h463.5"/>
				<path class="st0" d="M48.8,275.3h463.5"/>
				<path class="st0" d="M48.8,246.3h463.5"/>
				<path class="st0" d="M48.8,216.3h463.5"/>
				<path class="st0" d="M48.8,186.3h463.5"/>
				<path class="st0" d="M48.8,157.3h463.5"/>
				<path class="st0" d="M48.8,127.3h463.5"/>
				<path class="st0" d="M48.8,98.3h463.5"/>
				<path class="st0" d="M48.8,68.3h463.5"/>
				<path class="st0" d="M48.8,38.3h463.5"/>
				<path class="st0" d="M48.8,9.3h463.5"/>
				<path class="st1" d="M141.3,9.3v592.1"/>
				<path class="st1" d="M234.3,9.3v592.1"/>
				<path class="st1" d="M326.3,9.3v592.1"/>
				<path class="st1" d="M419.3,9.3v592.1"/>
				<path class="st1" d="M512.3,9.3v592.1"/>
				<path class="st1" d="M48.8,483.3h463.5"/>
				<path class="st1" d="M48.8,364.3h463.5"/>
				<path class="st1" d="M48.8,246.3h463.5"/>
				<path class="st1" d="M48.8,127.3h463.5"/>
				<path class="st1" d="M48.8,9.3h463.5"/>
			</g>
		</g>
		<g id="axis-093f80bb">
			<g id="yaxis-093f80bb">
				<path class="st2" d="M48.8,9.3v592.1"/>
			</g>
			<g id="xaxis-093f80bb">
				<path class="st2" d="M48.8,601.8h463.5"/>
			</g>
			<g>
				<g>
					<text transform="matrix(0.5 0 0 0.5 34.5759 620.0566)" class="st3 st4">0</text>
				</g>
				<g>
					<text transform="matrix(0.5 0 0 0.5 129.8899 620.0566)" class="st3 st4">0.2</text>
				</g>
				<g>
					<text transform="matrix(0.5 0 0 0.5 222.5654 620.0566)" class="st3 st4">0.4</text>
				</g>
				<g>
					<text transform="matrix(0.5 0 0 0.5 315.2412 620.0566)" class="st3 st4">0.6</text>
				</g>
				<g>
					<text transform="matrix(0.5 0 0 0.5 407.9165 620.0566)" class="st3 st4">0.8</text>
				</g>
				<g>
					<text transform="matrix(0.5 0 0 0.5 507.6807 620.0566)" class="st3 st4">1</text>
				</g>
				<g>
					<text transform="matrix(0.5 0 0 0.5 34.5759 488.0708)" class="st3 st4">2</text>
				</g>
				<g>
					<text transform="matrix(0.5 0 0 0.5 34.5759 369.585)" class="st3 st4">4</text>
				</g>
				<g>
					<text transform="matrix(0.5 0 0 0.5 34.5759 251.0996)" class="st3 st4">6</text>
				</g>
				<g>
					<text transform="matrix(0.5 0 0 0.5 34.5759 132.6138)" class="st3 st4">8</text>
				</g>
				<g>
					<text transform="matrix(0.5 0 0 0.5 25.1213 14.1279)" class="st3 st4">10</text>
				</g>
			</g>
			<g>
				<text transform="matrix(0.5 0 0 0.5 375.7705 640.9326)" class="st3 st5">Traffic Intensity</text>
			</g>
			<g transform="translate(359.85862994177484,210.625) rotate(-90,0,0)">
				<text transform="matrix(0.5 0 0 0.5 -2.791 -343.2375)" class="st3 st5">Average System Time</text>
			</g>
		</g>
	</g>
	<g id="expressions-093f80bb">
		<g id="sketch-093f80bb">
			<g>
				<path class="st6" d="M473.1,36.3"/>
				<path class="st6" d="M48.8,601.4l13.8-1.8l15.5-2.2l14.6-2.2l14.1-2.3l13.5-2.3l12.9-2.4l12.6-2.5l12-2.5l11.7-2.7l11.1-2.7
					l10.8-2.8l10.5-2.9l10.3-3l10-3.2l9.7-3.3l9.4-3.4l9.4-3.6l9.1-3.8l8.8-3.9l8.5-4.1l8.5-4.4l8.2-4.6l7.9-4.7l7.9-5.1l7.6-5.3
					l7.6-5.7l7.3-6l7.3-6.5l7-6.8l6.7-7l6.7-7.7l6.4-8l6.4-8.7l6.2-9.1l6.2-10l5.9-10.5l5.9-11.6l5.6-12.1l5.6-13.4l5.3-14.1
					l5.3-15.7l5-16.6l5-18.6l4.7-19.6l4.7-22.1l4.4-23.4l4.4-26.6l4.1-28.3l4.1-32.3l3.8-34.5l3.8-39.8l3.5-42.6l3.5-49.7"/>
			</g>
		</g>
	</g>
	<g id="labels-093f80bb">
	</g>
</g>
</svg>
