<?xml version="1.0" encoding="utf-8"?>
<!-- Generator: Adobe Illustrator 25.2.1, SVG Export Plug-In . SVG Version: 6.00 Build 0)  -->
<svg version="1.1" id="Layer_1" xmlns="http://www.w3.org/2000/svg" xmlns:xlink="http://www.w3.org/1999/xlink" x="0px" y="0px"
	 viewBox="0 0 944.8 1442.6" style="enable-background:new 0 0 944.8 1442.6;" xml:space="preserve">
<style type="text/css">
	.st0{fill:none;stroke:#FFFFFF;stroke-width:2;stroke-miterlimit:20;stroke-opacity:0.3;}
	.st1{fill:none;stroke:#FFFFFF;stroke-width:2;stroke-miterlimit:20;stroke-opacity:0.4286;}
	.st2{fill:none;stroke:#FFFFFF;stroke-width:4;stroke-miterlimit:20;stroke-opacity:0.9;}
	.st3{fill:#FFFFFF;font-family:'TimesNewRomanPSMT';}
	.st4{fill:#FFFFFF;font-size:34px;}
	.st5{fill:#FFFFFF;font-size:40px;}
	.st6{fill:none;stroke:#FFFFFF;stroke-width:5.6;stroke-linecap:round;stroke-linejoin:round;stroke-miterlimit:20;}
</style>
<g transform="scale(2,2)">
	<g id="background-images-de3c1b72">
	</g>
	<g id="graphpaper-de3c1b72">
		<g id="grid-de3c1b72">
			<g>
				<path class="st0" d="M77.8,9.3v666.5"/>
				<path class="st0" d="M98.8,9.3v666.5"/>
				<path class="st0" d="M118.8,9.3v666.5"/>
				<path class="st0" d="M139.8,9.3v666.5"/>
				<path class="st0" d="M160.8,9.3v666.5"/>
				<path class="st0" d="M180.8,9.3v666.5"/>
				<path class="st0" d="M201.8,9.3v666.5"/>
				<path class="st0" d="M221.8,9.3v666.5"/>
				<path class="st0" d="M242.8,9.3v666.5"/>
				<path class="st0" d="M262.8,9.3v666.5"/>
				<path class="st0" d="M283.8,9.3v666.5"/>
				<path class="st0" d="M303.8,9.3v666.5"/>
				<path class="st0" d="M324.8,9.3v666.5"/>
				<path class="st0" d="M344.8,9.3v666.5"/>
				<path class="st0" d="M365.8,9.3v666.5"/>
				<path class="st0" d="M385.8,9.3v666.5"/>
				<path class="st0" d="M406.8,9.3v666.5"/>
				<path class="st0" d="M426.8,9.3v666.5"/>
				<path class="st0" d="M447.8,9.3v666.5"/>
				<path class="st0" d="M467.8,9.3v666.5"/>
				<path class="st0" d="M58.3,642.3h407.5"/>
				<path class="st0" d="M58.3,609.3h407.5"/>
				<path class="st0" d="M58.3,575.3h407.5"/>
				<path class="st0" d="M58.3,542.3h407.5"/>
				<path class="st0" d="M58.3,509.3h407.5"/>
				<path class="st0" d="M58.3,475.3h407.5"/>
				<path class="st0" d="M58.3,442.3h407.5"/>
				<path class="st0" d="M58.3,409.3h407.5"/>
				<path class="st0" d="M58.3,375.3h407.5"/>
				<path class="st0" d="M58.3,342.3h407.5"/>
				<path class="st0" d="M58.3,309.3h407.5"/>
				<path class="st0" d="M58.3,275.3h407.5"/>
				<path class="st0" d="M58.3,242.3h407.5"/>
				<path class="st0" d="M58.3,209.3h407.5"/>
				<path class="st0" d="M58.3,175.3h407.5"/>
				<path class="st0" d="M58.3,142.3h407.5"/>
				<path class="st0" d="M58.3,109.3h407.5"/>
				<path class="st0" d="M58.3,75.3h407.5"/>
				<path class="st0" d="M58.3,42.3h407.5"/>
				<path class="st0" d="M58.3,9.3h407.5"/>
				<path class="st1" d="M139.8,9.3v666.5"/>
				<path class="st1" d="M221.8,9.3v666.5"/>
				<path class="st1" d="M303.8,9.3v666.5"/>
				<path class="st1" d="M385.8,9.3v666.5"/>
				<path class="st1" d="M467.8,9.3v666.5"/>
				<path class="st1" d="M58.3,542.3h407.5"/>
				<path class="st1" d="M58.3,409.3h407.5"/>
				<path class="st1" d="M58.3,275.3h407.5"/>
				<path class="st1" d="M58.3,142.3h407.5"/>
				<path class="st1" d="M58.3,9.3h407.5"/>
			</g>
		</g>
		<g id="axis-de3c1b72">
			<g id="yaxis-de3c1b72">
				<path class="st2" d="M58.3,9.3v666.5"/>
			</g>
			<g id="xaxis-de3c1b72">
				<path class="st2" d="M58.3,675.8h407.5"/>
			</g>
			<g>
				<g>
					<text transform="matrix(0.5 0 0 0.5 43.7205 694.2949)" class="st3 st4">0</text>
				</g>
				<g>
					<text transform="matrix(0.5 0 0 0.5 128.4519 694.2949)" class="st3 st4">0.2</text>
				</g>
				<g>
					<text transform="matrix(0.5 0 0 0.5 210.5452 694.2949)" class="st3 st4">0.4</text>
				</g>
				<g>
					<text transform="matrix(0.5 0 0 0.5 292.6384 694.2949)" class="st3 st4">0.6</text>
				</g>
				<g>
					<text transform="matrix(0.5 0 0 0.5 374.7317 694.2949)" class="st3 st4">0.8</text>
				</g>
				<g>
					<text transform="matrix(0.5 0 0 0.5 463.9138 694.2949)" class="st3 st4">1</text>
				</g>
				<g>
					<text transform="matrix(0.5 0 0 0.5 29.5427 547.4614)" class="st3 st4">0.2</text>
				</g>
				<g>
					<text transform="matrix(0.5 0 0 0.5 29.5427 414.1279)" class="st3 st4">0.4</text>
				</g>
				<g>
					<text transform="matrix(0.5 0 0 0.5 29.5427 280.7949)" class="st3 st4">0.6</text>
				</g>
				<g>
					<text transform="matrix(0.5 0 0 0.5 29.5427 147.4614)" class="st3 st4">0.8</text>
				</g>
				<g>
					<text transform="matrix(0.5 0 0 0.5 43.7205 14.1279)" class="st3 st4">1</text>
				</g>
			</g>
			<g>
				<text transform="matrix(0.5 0 0 0.5 331.7678 715.1709)" class="st3 st5">Traffic Intensity</text>
			</g>
		</g>
	</g>
	<g id="expressions-de3c1b72">
		<g id="sketch-de3c1b72">
			<g>
				<path class="st6" d="M58.3,675.8L467.8,9.3"/>
			</g>
		</g>
	</g>
	<g id="labels-de3c1b72">
	</g>
</g>
<g transform="translate(228.90934244791669,166.162109375) rotate(-90,0,0)">
	<text transform="matrix(1 0 0 1 -150.4781 -195.667)" class="st3 st5">Server Utilization</text>
</g>
</svg>
