<?xml version="1.0" encoding="utf-8"?>
<!-- Generator: Adobe Illustrator 25.2.1, SVG Export Plug-In . SVG Version: 6.00 Build 0)  -->
<svg version="1.1" id="Layer_1" xmlns="http://www.w3.org/2000/svg" xmlns:xlink="http://www.w3.org/1999/xlink" x="0px" y="0px"
	 viewBox="0 0 1431.4 1216.8" style="enable-background:new 0 0 1431.4 1216.8;" xml:space="preserve">
<style type="text/css">
	.st0{fill:none;stroke:#FFFFFF;stroke-width:2;stroke-miterlimit:20;stroke-opacity:0.3;}
	.st1{fill:none;stroke:#FFFFFF;stroke-width:2;stroke-miterlimit:20;stroke-opacity:0.4286;}
	.st2{fill:none;stroke:#FFFFFF;stroke-width:4;stroke-miterlimit:20;stroke-opacity:0.9;}
	.st3{fill:#FFFFFF;font-family:'TimesNewRomanPSMT';}
	.st4{fill:#FFFFFF;font-size:34px;}
	.st5{fill:#FFFFFF;font-size:40px;}
	.st6{fill:none;stroke:#FFFFFF;stroke-width:5.6;stroke-linecap:round;stroke-linejoin:round;stroke-miterlimit:20;}
	.st7{fill:none;stroke:#FFFFFF;stroke-width:16.3333;stroke-linecap:round;stroke-linejoin:round;stroke-miterlimit:20;}
</style>
<g transform="scale(2,2)">
	<g id="background-images-07ab878a">
	</g>
	<g id="graphpaper-07ab878a">
		<g id="grid-07ab878a">
			<g>
				<path class="st0" d="M78.1,9.2v553.6"/>
				<path class="st0" d="M111.1,9.2v553.6"/>
				<path class="st0" d="M145.1,9.2v553.6"/>
				<path class="st0" d="M178.1,9.2v553.6"/>
				<path class="st0" d="M211.1,9.2v553.6"/>
				<path class="st0" d="M245.1,9.2v553.6"/>
				<path class="st0" d="M278.1,9.2v553.6"/>
				<path class="st0" d="M311.1,9.2v553.6"/>
				<path class="st0" d="M345.1,9.2v553.6"/>
				<path class="st0" d="M378.1,9.2v553.6"/>
				<path class="st0" d="M411.1,9.2v553.6"/>
				<path class="st0" d="M445.1,9.2v553.6"/>
				<path class="st0" d="M478.1,9.2v553.6"/>
				<path class="st0" d="M511.1,9.2v553.6"/>
				<path class="st0" d="M545.1,9.2v553.6"/>
				<path class="st0" d="M578.1,9.2v553.6"/>
				<path class="st0" d="M611.1,9.2v553.6"/>
				<path class="st0" d="M645.1,9.2v553.6"/>
				<path class="st0" d="M678.1,9.2v553.6"/>
				<path class="st0" d="M711.1,9.2v553.6"/>
				<path class="st0" d="M45.6,528.2h665.5"/>
				<path class="st0" d="M45.6,493.2h665.5"/>
				<path class="st0" d="M45.6,459.2h665.5"/>
				<path class="st0" d="M45.6,424.2h665.5"/>
				<path class="st0" d="M45.6,390.2h665.5"/>
				<path class="st0" d="M45.6,355.2h665.5"/>
				<path class="st0" d="M45.6,320.2h665.5"/>
				<path class="st0" d="M45.6,286.2h665.5"/>
				<path class="st0" d="M45.6,251.2h665.5"/>
				<path class="st0" d="M45.6,217.2h665.5"/>
				<path class="st0" d="M45.6,182.2h665.5"/>
				<path class="st0" d="M45.6,147.2h665.5"/>
				<path class="st0" d="M45.6,113.2h665.5"/>
				<path class="st0" d="M45.6,78.2h665.5"/>
				<path class="st0" d="M45.6,43.2h665.5"/>
				<path class="st0" d="M45.6,9.2h665.5"/>
				<path class="st1" d="M178.1,9.2v553.6"/>
				<path class="st1" d="M311.1,9.2v553.6"/>
				<path class="st1" d="M445.1,9.2v553.6"/>
				<path class="st1" d="M578.1,9.2v553.6"/>
				<path class="st1" d="M711.1,9.2v553.6"/>
				<path class="st1" d="M45.6,424.2h665.5"/>
				<path class="st1" d="M45.6,286.2h665.5"/>
				<path class="st1" d="M45.6,147.2h665.5"/>
				<path class="st1" d="M45.6,9.2h665.5"/>
			</g>
		</g>
		<g id="axis-07ab878a">
			<g id="yaxis-07ab878a">
				<path class="st2" d="M45.6,9.2v553.6"/>
			</g>
			<g id="xaxis-07ab878a">
				<path class="st2" d="M45.6,563.7h665.5"/>
			</g>
			<g>
				<g>
					<text transform="matrix(0.5 0 0 0.5 30.7825 581.4067)" class="st3 st4">0</text>
				</g>
				<g>
					<text transform="matrix(0.5 0 0 0.5 166.7542 581.4067)" class="st3 st4">0.2</text>
				</g>
				<g>
					<text transform="matrix(0.5 0 0 0.5 300.0874 581.4067)" class="st3 st4">0.4</text>
				</g>
				<g>
					<text transform="matrix(0.5 0 0 0.5 433.4209 581.4067)" class="st3 st4">0.6</text>
				</g>
				<g>
					<text transform="matrix(0.5 0 0 0.5 566.7539 581.4067)" class="st3 st4">0.8</text>
				</g>
				<g>
					<text transform="matrix(0.5 0 0 0.5 707.1763 581.4067)" class="st3 st4">1</text>
				</g>
				<g>
					<text transform="matrix(0.5 0 0 0.5 30.7825 429.4619)" class="st3 st4">2</text>
				</g>
				<g>
					<text transform="matrix(0.5 0 0 0.5 30.7825 291.0171)" class="st3 st4">4</text>
				</g>
				<g>
					<text transform="matrix(0.5 0 0 0.5 30.7825 152.5723)" class="st3 st4">6</text>
				</g>
				<g>
					<text transform="matrix(0.5 0 0 0.5 30.7825 14.1279)" class="st3 st4">8</text>
				</g>
			</g>
			<g>
				<text transform="matrix(0.5 0 0 0.5 575.0781 602.2827)" class="st3 st5">Traffic Intensity</text>
			</g>
			<g transform="translate(238.05094401041663,238.115234375) rotate(-90,0,0)">
				<text transform="matrix(0.5 0 0 0.5 -0.1523 -221.4299)" class="st3 st5">Average Queueing Delay</text>
			</g>
		</g>
	</g>
	<g id="expressions-07ab878a">
		<g id="sketch-07ab878a">
			<g>
				<path class="st6" d="M78.1,562.5L78.1,562.5l33.3,0.1l33.3-1.5l33.3-0.4l33.3-7.2l33.3-0.5l33.3-11.3l33.3,11.1l33.3-15.2
					l33.3-1.2l33.3-29l33.3-40.5l33.3,39.5l33.3-5.1l33.3-4.4l33.3-390.8l33.3,316.7l33.3,60.6l33.3-337.7l33.3-124.6"/>
			</g>
			<path class="st7" d="M78,562.4v0.2h0.2v-0.2"/>
			<path class="st7" d="M111.3,562.6v0.2h0.2v-0.2"/>
			<path class="st7" d="M144.6,561.1v0.2h0.2v-0.2"/>
			<path class="st7" d="M178,560.7v0.2h0.2v-0.2"/>
			<path class="st7" d="M211.3,553.5v0.2h0.2v-0.2"/>
			<path class="st7" d="M244.6,553v0.2h0.2V553"/>
			<path class="st7" d="M278,541.8v0.2h0.2v-0.2"/>
			<path class="st7" d="M311.3,552.9v0.2h0.2v-0.2"/>
			<path class="st7" d="M344.6,537.6v0.2h0.2v-0.2"/>
			<path class="st7" d="M378,536.4v0.2h0.2v-0.2"/>
			<path class="st7" d="M411.3,507.4v0.2h0.2v-0.2"/>
			<path class="st7" d="M444.6,466.9v0.2h0.2v-0.2"/>
			<path class="st7" d="M478,506.4v0.2h0.2v-0.2"/>
			<path class="st7" d="M511.3,501.4v0.2h0.2v-0.2"/>
			<path class="st7" d="M544.6,496.9v0.2h0.2v-0.2"/>
			<path class="st7" d="M578,106.1v0.2h0.2v-0.2"/>
			<path class="st7" d="M611.3,422.8v0.2h0.2v-0.2"/>
			<path class="st7" d="M644.6,483.3v0.2h0.2v-0.2"/>
			<path class="st7" d="M678,145.6v0.2h0.2v-0.2"/>
			<path class="st7" d="M711.3,21.1v0.2h0.2v-0.2"/>
		</g>
	</g>
	<g id="labels-07ab878a">
	</g>
</g>
</svg>
