<?xml version="1.0" encoding="utf-8"?>
<!-- Generator: Adobe Illustrator 25.2.1, SVG Export Plug-In . SVG Version: 6.00 Build 0)  -->
<svg version="1.1" id="Layer_1" xmlns="http://www.w3.org/2000/svg" xmlns:xlink="http://www.w3.org/1999/xlink" x="0px" y="0px"
	 viewBox="0 0 1431.4 1216.8" style="enable-background:new 0 0 1431.4 1216.8;" xml:space="preserve">
<style type="text/css">
	.st0{fill:none;stroke:#FFFFFF;stroke-width:2;stroke-miterlimit:20;stroke-opacity:0.3;}
	.st1{fill:none;stroke:#FFFFFF;stroke-width:2;stroke-miterlimit:20;stroke-opacity:0.4286;}
	.st2{fill:none;stroke:#FFFFFF;stroke-width:4;stroke-miterlimit:20;stroke-opacity:0.9;}
	.st3{fill:#FFFFFF;font-family:'TimesNewRomanPSMT';}
	.st4{fill:#FFFFFF;font-size:34px;}
	.st5{fill:#FFFFFF;font-size:40px;}
	.st6{fill:none;stroke:#FFFFFF;stroke-width:5.6;stroke-linecap:round;stroke-linejoin:round;stroke-miterlimit:20;}
	.st7{fill:none;stroke:#FFFFFF;stroke-width:16.3333;stroke-linecap:round;stroke-linejoin:round;stroke-miterlimit:20;}
</style>
<g transform="scale(2,2)">
	<g id="background-images-cf2ecd98">
	</g>
	<g id="graphpaper-cf2ecd98">
		<g id="grid-cf2ecd98">
			<g>
				<path class="st0" d="M78.1,7.6v556.1"/>
				<path class="st0" d="M111.1,7.6v556.1"/>
				<path class="st0" d="M145.1,7.6v556.1"/>
				<path class="st0" d="M178.1,7.6v556.1"/>
				<path class="st0" d="M211.1,7.6v556.1"/>
				<path class="st0" d="M245.1,7.6v556.1"/>
				<path class="st0" d="M278.1,7.6v556.1"/>
				<path class="st0" d="M311.1,7.6v556.1"/>
				<path class="st0" d="M345.1,7.6v556.1"/>
				<path class="st0" d="M378.1,7.6v556.1"/>
				<path class="st0" d="M411.1,7.6v556.1"/>
				<path class="st0" d="M445.1,7.6v556.1"/>
				<path class="st0" d="M478.1,7.6v556.1"/>
				<path class="st0" d="M511.1,7.6v556.1"/>
				<path class="st0" d="M545.1,7.6v556.1"/>
				<path class="st0" d="M578.1,7.6v556.1"/>
				<path class="st0" d="M611.1,7.6v556.1"/>
				<path class="st0" d="M645.1,7.6v556.1"/>
				<path class="st0" d="M678.1,7.6v556.1"/>
				<path class="st0" d="M711.1,7.6v556.1"/>
				<path class="st0" d="M45.6,528.2h665.9"/>
				<path class="st0" d="M45.6,493.2h665.9"/>
				<path class="st0" d="M45.6,459.2h665.9"/>
				<path class="st0" d="M45.6,424.2h665.9"/>
				<path class="st0" d="M45.6,390.2h665.9"/>
				<path class="st0" d="M45.6,355.2h665.9"/>
				<path class="st0" d="M45.6,320.2h665.9"/>
				<path class="st0" d="M45.6,286.2h665.9"/>
				<path class="st0" d="M45.6,251.2h665.9"/>
				<path class="st0" d="M45.6,217.2h665.9"/>
				<path class="st0" d="M45.6,182.2h665.9"/>
				<path class="st0" d="M45.6,147.2h665.9"/>
				<path class="st0" d="M45.6,113.2h665.9"/>
				<path class="st0" d="M45.6,78.2h665.9"/>
				<path class="st0" d="M45.6,43.2h665.9"/>
				<path class="st0" d="M45.6,9.2h665.9"/>
				<path class="st1" d="M178.1,7.6v556.1"/>
				<path class="st1" d="M311.1,7.6v556.1"/>
				<path class="st1" d="M445.1,7.6v556.1"/>
				<path class="st1" d="M578.1,7.6v556.1"/>
				<path class="st1" d="M711.1,7.6v556.1"/>
				<path class="st1" d="M45.6,424.2h665.9"/>
				<path class="st1" d="M45.6,286.2h665.9"/>
				<path class="st1" d="M45.6,147.2h665.9"/>
				<path class="st1" d="M45.6,9.2h665.9"/>
			</g>
		</g>
		<g id="axis-cf2ecd98">
			<g id="yaxis-cf2ecd98">
				<path class="st2" d="M45.6,7.6v556.1"/>
			</g>
			<g id="xaxis-cf2ecd98">
				<path class="st2" d="M45.6,563.7h665.9"/>
			</g>
			<g>
				<g>
					<text transform="matrix(0.5 0 0 0.5 30.7825 581.4067)" class="st3 st4">0</text>
				</g>
				<g>
					<text transform="matrix(0.5 0 0 0.5 166.7542 581.4067)" class="st3 st4">0.2</text>
				</g>
				<g>
					<text transform="matrix(0.5 0 0 0.5 300.0874 581.4067)" class="st3 st4">0.4</text>
				</g>
				<g>
					<text transform="matrix(0.5 0 0 0.5 433.4209 581.4067)" class="st3 st4">0.6</text>
				</g>
				<g>
					<text transform="matrix(0.5 0 0 0.5 566.7539 581.4067)" class="st3 st4">0.8</text>
				</g>
				<g>
					<text transform="matrix(0.5 0 0 0.5 707.1763 581.4067)" class="st3 st4">1</text>
				</g>
				<g>
					<text transform="matrix(0.5 0 0 0.5 30.7825 429.4619)" class="st3 st4">2</text>
				</g>
				<g>
					<text transform="matrix(0.5 0 0 0.5 30.7825 291.0171)" class="st3 st4">4</text>
				</g>
				<g>
					<text transform="matrix(0.5 0 0 0.5 30.7825 152.5723)" class="st3 st4">6</text>
				</g>
				<g>
					<text transform="matrix(0.5 0 0 0.5 30.7825 14.1279)" class="st3 st4">8</text>
				</g>
			</g>
			<g>
				<text transform="matrix(0.5 0 0 0.5 574.5781 602.2827)" class="st3 st5">Traffic Intensity</text>
			</g>
			<g transform="translate(238.05094401041663,333.662109375) rotate(-90,0,0)">
				<text transform="matrix(0.5 0 0 0.5 2.3477 -221.4299)" class="st3 st5">Average Customer Count in System</text>
			</g>
		</g>
	</g>
	<g id="expressions-cf2ecd98">
		<g id="sketch-cf2ecd98">
			<g>
				<path class="st6" d="M78.1,558.7L78.1,558.7l33.3-1.2l33.3-4.9l33.3-3.3l33.3-14.2l33.3-4l33.3-23.3l33.3,20.5l33.3-28.6
					l33.3-7.9l33.3-30.1l33.3-69.6l33.3,71.2l33.3,1.4l33.3-3.9l33.3-416.1l33.3,319.3l33.3,86.8l33.3-354.6l33.3-88.4"/>
			</g>
			<path class="st7" d="M78,558.6v0.2h0.2v-0.2"/>
			<path class="st7" d="M111.3,557.4v0.2h0.2v-0.2"/>
			<path class="st7" d="M144.6,552.5v0.2h0.2v-0.2"/>
			<path class="st7" d="M178,549.1v0.2h0.2v-0.2"/>
			<path class="st7" d="M211.3,534.9v0.2h0.2v-0.2"/>
			<path class="st7" d="M244.6,530.9v0.2h0.2v-0.2"/>
			<path class="st7" d="M278,507.7v0.2h0.2v-0.2"/>
			<path class="st7" d="M311.3,528.2v0.2h0.2v-0.2"/>
			<path class="st7" d="M344.6,499.6v0.2h0.2v-0.2"/>
			<path class="st7" d="M378,491.7v0.2h0.2v-0.2"/>
			<path class="st7" d="M411.3,461.6v0.2h0.2v-0.2"/>
			<path class="st7" d="M444.6,392v0.2h0.2V392"/>
			<path class="st7" d="M478,463.2v0.2h0.2v-0.2"/>
			<path class="st7" d="M511.3,464.5v0.2h0.2v-0.2"/>
			<path class="st7" d="M544.6,460.6v0.2h0.2v-0.2"/>
			<path class="st7" d="M578,44.5v0.2h0.2v-0.2"/>
			<path class="st7" d="M611.3,363.8v0.2h0.2v-0.2"/>
			<path class="st7" d="M644.6,450.7v0.2h0.2v-0.2"/>
			<path class="st7" d="M678,96v0.2h0.2V96"/>
			<path class="st7" d="M711.3,7.6v0.2h0.2V7.6"/>
		</g>
	</g>
	<g id="labels-cf2ecd98">
	</g>
</g>
</svg>
