<?xml version="1.0" encoding="utf-8"?>
<!-- Generator: Adobe Illustrator 25.2.1, SVG Export Plug-In . SVG Version: 6.00 Build 0)  -->
<svg version="1.1" id="Layer_1" xmlns="http://www.w3.org/2000/svg" xmlns:xlink="http://www.w3.org/1999/xlink" x="0px" y="0px"
	 viewBox="0 0 1431.4 1373.5" style="enable-background:new 0 0 1431.4 1373.5;" xml:space="preserve">
<style type="text/css">
	.st0{fill:none;stroke:#FFFFFF;stroke-width:2;stroke-miterlimit:20;stroke-opacity:0.3;}
	.st1{fill:none;stroke:#FFFFFF;stroke-width:2;stroke-miterlimit:20;stroke-opacity:0.4286;}
	.st2{fill:none;stroke:#FFFFFF;stroke-width:4;stroke-miterlimit:20;stroke-opacity:0.9;}
	.st3{fill:#FFFFFF;font-family:'TimesNewRomanPSMT';}
	.st4{fill:#FFFFFF;font-size:34px;}
	.st5{fill:#FFFFFF;font-size:40px;}
	.st6{fill:none;stroke:#FFFFFF;stroke-width:5.6;stroke-linecap:round;stroke-linejoin:round;stroke-miterlimit:20;}
	.st7{fill:none;stroke:#FFFFFF;stroke-width:16.3333;stroke-linecap:round;stroke-linejoin:round;stroke-miterlimit:20;}
</style>
<g transform="scale(2,2)">
	<g id="background-images-09b44854">
	</g>
	<g id="graphpaper-09b44854">
		<g id="grid-09b44854">
			<g>
				<path class="st0" d="M78.1,0v642"/>
				<path class="st0" d="M111.1,0v642"/>
				<path class="st0" d="M145.1,0v642"/>
				<path class="st0" d="M178.1,0v642"/>
				<path class="st0" d="M211.1,0v642"/>
				<path class="st0" d="M245.1,0v642"/>
				<path class="st0" d="M278.1,0v642"/>
				<path class="st0" d="M311.1,0v642"/>
				<path class="st0" d="M345.1,0v642"/>
				<path class="st0" d="M378.1,0v642"/>
				<path class="st0" d="M411.1,0v642"/>
				<path class="st0" d="M445.1,0v642"/>
				<path class="st0" d="M478.1,0v642"/>
				<path class="st0" d="M511.1,0v642"/>
				<path class="st0" d="M545.1,0v642"/>
				<path class="st0" d="M578.1,0v642"/>
				<path class="st0" d="M611.1,0v642"/>
				<path class="st0" d="M645.1,0v642"/>
				<path class="st0" d="M678.1,0v642"/>
				<path class="st0" d="M711.1,0v642"/>
				<path class="st0" d="M45.6,606.5h665.5"/>
				<path class="st0" d="M45.6,571.5h665.5"/>
				<path class="st0" d="M45.6,537.5h665.5"/>
				<path class="st0" d="M45.6,502.5h665.5"/>
				<path class="st0" d="M45.6,468.5h665.5"/>
				<path class="st0" d="M45.6,433.5h665.5"/>
				<path class="st0" d="M45.6,398.5h665.5"/>
				<path class="st0" d="M45.6,364.5h665.5"/>
				<path class="st0" d="M45.6,329.5h665.5"/>
				<path class="st0" d="M45.6,295.5h665.5"/>
				<path class="st0" d="M45.6,260.5h665.5"/>
				<path class="st0" d="M45.6,225.5h665.5"/>
				<path class="st0" d="M45.6,191.5h665.5"/>
				<path class="st0" d="M45.6,156.5h665.5"/>
				<path class="st0" d="M45.6,121.5h665.5"/>
				<path class="st0" d="M45.6,87.5h665.5"/>
				<path class="st0" d="M45.6,52.5h665.5"/>
				<path class="st0" d="M45.6,18.5h665.5"/>
				<path class="st1" d="M178.1,0v642"/>
				<path class="st1" d="M311.1,0v642"/>
				<path class="st1" d="M445.1,0v642"/>
				<path class="st1" d="M578.1,0v642"/>
				<path class="st1" d="M711.1,0v642"/>
				<path class="st1" d="M45.6,502.5h665.5"/>
				<path class="st1" d="M45.6,364.5h665.5"/>
				<path class="st1" d="M45.6,225.5h665.5"/>
				<path class="st1" d="M45.6,87.5h665.5"/>
			</g>
		</g>
		<g id="axis-09b44854">
			<g id="yaxis-09b44854">
				<path class="st2" d="M45.6,0v642"/>
			</g>
			<g id="xaxis-09b44854">
				<path class="st2" d="M45.6,642h665.5"/>
			</g>
			<g>
				<g>
					<text transform="matrix(0.5 0 0 0.5 30.7825 659.7544)" class="st3 st4">0</text>
				</g>
				<g>
					<text transform="matrix(0.5 0 0 0.5 166.7542 659.7544)" class="st3 st4">0.2</text>
				</g>
				<g>
					<text transform="matrix(0.5 0 0 0.5 300.0874 659.7544)" class="st3 st4">0.4</text>
				</g>
				<g>
					<text transform="matrix(0.5 0 0 0.5 433.4209 659.7544)" class="st3 st4">0.6</text>
				</g>
				<g>
					<text transform="matrix(0.5 0 0 0.5 566.7539 659.7544)" class="st3 st4">0.8</text>
				</g>
				<g>
					<text transform="matrix(0.5 0 0 0.5 707.1763 659.7544)" class="st3 st4">1</text>
				</g>
				<g>
					<text transform="matrix(0.5 0 0 0.5 30.7825 507.8096)" class="st3 st4">2</text>
				</g>
				<g>
					<text transform="matrix(0.5 0 0 0.5 30.7825 369.3647)" class="st3 st4">4</text>
				</g>
				<g>
					<text transform="matrix(0.5 0 0 0.5 30.7825 230.9199)" class="st3 st4">6</text>
				</g>
				<g>
					<text transform="matrix(0.5 0 0 0.5 30.7825 92.4756)" class="st3 st4">8</text>
				</g>
			</g>
			<g>
				<text transform="matrix(0.5 0 0 0.5 573.0781 680.6304)" class="st3 st5">Traffic Intensity</text>
			</g>
			<g transform="translate(238.05094401041663,210.625) rotate(-90,0,0)">
				<text transform="matrix(0.5 0 0 0.5 0 -221.4299)" class="st3 st5">Average System Time</text>
			</g>
		</g>
	</g>
	<g id="expressions-09b44854">
		<g id="sketch-09b44854">
			<g>
				<path class="st6" d="M78.1,637L78.1,637l33.3-1.5l33.3-6.1l33.3-3.7l33.3-11.4l33.3-4.6l33.3-17.9l33.3,12l33.3-22.5l33.3-2.5
					l33.3-26.4l33.3-52.1l33.3,36.7l33.3-4.1l33.3-2.4l33.3-407.2l33.3,323.8l33.3,59.6L678.1,159l33.3-129.8"/>
			</g>
			<path class="st7" d="M78,636.9v0.2h0.2v-0.2"/>
			<path class="st7" d="M111.3,635.4v0.2h0.2v-0.2"/>
			<path class="st7" d="M144.6,629.3v0.2h0.2v-0.2"/>
			<path class="st7" d="M178,625.6v0.2h0.2v-0.2"/>
			<path class="st7" d="M211.3,614.2v0.2h0.2v-0.2"/>
			<path class="st7" d="M244.6,609.7v0.2h0.2v-0.2"/>
			<path class="st7" d="M278,591.8v0.2h0.2v-0.2"/>
			<path class="st7" d="M311.3,603.8v0.2h0.2v-0.2"/>
			<path class="st7" d="M344.6,581.3v0.2h0.2v-0.2"/>
			<path class="st7" d="M378,578.7v0.2h0.2v-0.2"/>
			<path class="st7" d="M411.3,552.3v0.2h0.2v-0.2"/>
			<path class="st7" d="M444.6,500.2v0.2h0.2v-0.2"/>
			<path class="st7" d="M478,536.9v0.2h0.2v-0.2"/>
			<path class="st7" d="M511.3,532.7v0.2h0.2v-0.2"/>
			<path class="st7" d="M544.6,530.3v0.2h0.2v-0.2"/>
			<path class="st7" d="M578,123.1v0.2h0.2v-0.2"/>
			<path class="st7" d="M611.3,447v0.2h0.2V447"/>
			<path class="st7" d="M644.6,506.5v0.2h0.2v-0.2"/>
			<path class="st7" d="M678,158.9v0.2h0.2v-0.2"/>
			<path class="st7" d="M711.3,29.1v0.2h0.2v-0.2"/>
		</g>
	</g>
	<g id="labels-09b44854">
	</g>
</g>
</svg>
