<?xml version="1.0" encoding="utf-8"?>
<!-- Generator: Adobe Illustrator 25.2.1, SVG Export Plug-In . SVG Version: 6.00 Build 0)  -->
<svg version="1.1" id="Layer_1" xmlns="http://www.w3.org/2000/svg" xmlns:xlink="http://www.w3.org/1999/xlink" x="0px" y="0px"
	 viewBox="0 0 1431.4 1216.8" style="enable-background:new 0 0 1431.4 1216.8;" xml:space="preserve">
<style type="text/css">
	.st0{fill:none;stroke:#FFFFFF;stroke-width:2;stroke-miterlimit:20;stroke-opacity:0.3;}
	.st1{fill:none;stroke:#FFFFFF;stroke-width:2;stroke-miterlimit:20;stroke-opacity:0.4286;}
	.st2{fill:none;stroke:#FFFFFF;stroke-width:4;stroke-miterlimit:20;stroke-opacity:0.9;}
	.st3{fill:#FFFFFF;font-family:'TimesNewRomanPSMT';}
	.st4{fill:#FFFFFF;font-size:34px;}
	.st5{fill:#FFFFFF;font-size:40px;}
	.st6{fill:none;stroke:#FFFFFF;stroke-width:5.6;stroke-linecap:round;stroke-linejoin:round;stroke-miterlimit:20;}
	.st7{fill:none;stroke:#FFFFFF;stroke-width:16.3333;stroke-linecap:round;stroke-linejoin:round;stroke-miterlimit:20;}
</style>
<g transform="scale(2,2)">
	<g id="background-images-a912042d">
	</g>
	<g id="graphpaper-a912042d">
		<g id="grid-a912042d">
			<g>
				<path class="st0" d="M77.7,9.2v554.5"/>
				<path class="st0" d="M111.7,9.2v554.5"/>
				<path class="st0" d="M144.7,9.2v554.5"/>
				<path class="st0" d="M177.7,9.2v554.5"/>
				<path class="st0" d="M211.7,9.2v554.5"/>
				<path class="st0" d="M244.7,9.2v554.5"/>
				<path class="st0" d="M277.7,9.2v554.5"/>
				<path class="st0" d="M311.7,9.2v554.5"/>
				<path class="st0" d="M344.7,9.2v554.5"/>
				<path class="st0" d="M377.7,9.2v554.5"/>
				<path class="st0" d="M411.7,9.2v554.5"/>
				<path class="st0" d="M444.7,9.2v554.5"/>
				<path class="st0" d="M477.7,9.2v554.5"/>
				<path class="st0" d="M511.7,9.2v554.5"/>
				<path class="st0" d="M544.7,9.2v554.5"/>
				<path class="st0" d="M577.7,9.2v554.5"/>
				<path class="st0" d="M611.7,9.2v554.5"/>
				<path class="st0" d="M644.7,9.2v554.5"/>
				<path class="st0" d="M677.7,9.2v554.5"/>
				<path class="st0" d="M711.7,9.2v554.5"/>
				<path class="st0" d="M45.2,528.2h666.2"/>
				<path class="st0" d="M45.2,493.2h666.2"/>
				<path class="st0" d="M45.2,459.2h666.2"/>
				<path class="st0" d="M45.2,424.2h666.2"/>
				<path class="st0" d="M45.2,390.2h666.2"/>
				<path class="st0" d="M45.2,355.2h666.2"/>
				<path class="st0" d="M45.2,320.2h666.2"/>
				<path class="st0" d="M45.2,286.2h666.2"/>
				<path class="st0" d="M45.2,251.2h666.2"/>
				<path class="st0" d="M45.2,217.2h666.2"/>
				<path class="st0" d="M45.2,182.2h666.2"/>
				<path class="st0" d="M45.2,147.2h666.2"/>
				<path class="st0" d="M45.2,113.2h666.2"/>
				<path class="st0" d="M45.2,78.2h666.2"/>
				<path class="st0" d="M45.2,43.2h666.2"/>
				<path class="st0" d="M45.2,9.2h666.2"/>
				<path class="st1" d="M177.7,9.2v554.5"/>
				<path class="st1" d="M311.7,9.2v554.5"/>
				<path class="st1" d="M444.7,9.2v554.5"/>
				<path class="st1" d="M577.7,9.2v554.5"/>
				<path class="st1" d="M711.7,9.2v554.5"/>
				<path class="st1" d="M45.2,424.2h666.2"/>
				<path class="st1" d="M45.2,286.2h666.2"/>
				<path class="st1" d="M45.2,147.2h666.2"/>
				<path class="st1" d="M45.2,9.2h666.2"/>
			</g>
		</g>
		<g id="axis-a912042d">
			<g id="yaxis-a912042d">
				<path class="st2" d="M45.2,9.2v554.5"/>
			</g>
			<g id="xaxis-a912042d">
				<path class="st2" d="M45.2,563.7h666.2"/>
			</g>
			<g>
				<g>
					<text transform="matrix(0.5 0 0 0.5 30.7825 581.4067)" class="st3 st4">0</text>
				</g>
				<g>
					<text transform="matrix(0.5 0 0 0.5 166.7542 581.4067)" class="st3 st4">0.2</text>
				</g>
				<g>
					<text transform="matrix(0.5 0 0 0.5 300.0874 581.4067)" class="st3 st4">0.4</text>
				</g>
				<g>
					<text transform="matrix(0.5 0 0 0.5 433.4209 581.4067)" class="st3 st4">0.6</text>
				</g>
				<g>
					<text transform="matrix(0.5 0 0 0.5 566.7539 581.4067)" class="st3 st4">0.8</text>
				</g>
				<g>
					<text transform="matrix(0.5 0 0 0.5 707.1763 580.9067)" class="st3 st4">1</text>
				</g>
				<g>
					<text transform="matrix(0.5 0 0 0.5 30.7825 429.4619)" class="st3 st4">2</text>
				</g>
				<g>
					<text transform="matrix(0.5 0 0 0.5 30.7825 291.0171)" class="st3 st4">4</text>
				</g>
				<g>
					<text transform="matrix(0.5 0 0 0.5 30.7825 152.5723)" class="st3 st4">6</text>
				</g>
				<g>
					<text transform="matrix(0.5 0 0 0.5 30.7825 14.1279)" class="st3 st4">8</text>
				</g>
			</g>
			<g>
				<text transform="matrix(0.5 0 0 0.5 569.7031 602.2827)" class="st3 st5">Traffic Intensity</text>
			</g>
			<g transform="translate(237.42594401041669,221.46484375) rotate(-90,0,0)">
				<text transform="matrix(0.5 0 0 0.5 -1.1523 -220.8049)" class="st3 st5">Average Queue Length</text>
			</g>
		</g>
	</g>
	<g id="expressions-a912042d">
		<g id="sketch-a912042d">
			<g>
				<path class="st6" d="M78.1,562.5L78.1,562.5l33.3,0.1l33.3-1.3l33.3-0.4l33.3-7.7l33.3-0.2l33.3-13.6l33.3,14.3l33.3-17.3
					l33.3-3.5l33.3-33.1l33.3-53.1l33.3,62.3l33.3-1.8l33.3-5.1L578.1,106l33.3,313.5l33.3,77.3l33.3-337.6l33.3-87.6"/>
			</g>
			<path class="st7" d="M78,562.4v0.2h0.2v-0.2"/>
			<path class="st7" d="M111.3,562.6v0.2h0.2v-0.2"/>
			<path class="st7" d="M144.6,561.3v0.2h0.2v-0.2"/>
			<path class="st7" d="M178,560.9v0.2h0.2v-0.2"/>
			<path class="st7" d="M211.3,553.2v0.2h0.2v-0.2"/>
			<path class="st7" d="M244.6,552.9v0.2h0.2v-0.2"/>
			<path class="st7" d="M278,539.3v0.2h0.2v-0.2"/>
			<path class="st7" d="M311.3,553.6v0.2h0.2v-0.2"/>
			<path class="st7" d="M344.6,536.3v0.2h0.2v-0.2"/>
			<path class="st7" d="M378,532.8v0.2h0.2v-0.2"/>
			<path class="st7" d="M411.3,499.7v0.2h0.2v-0.2"/>
			<path class="st7" d="M444.6,446.6v0.2h0.2v-0.2"/>
			<path class="st7" d="M478,509v0.2h0.2V509"/>
			<path class="st7" d="M511.3,507.1v0.2h0.2v-0.2"/>
			<path class="st7" d="M544.6,502.1v0.2h0.2v-0.2"/>
			<path class="st7" d="M578,105.9v0.2h0.2v-0.2"/>
			<path class="st7" d="M611.3,419.3v0.2h0.2v-0.2"/>
			<path class="st7" d="M644.6,496.6v0.2h0.2v-0.2"/>
			<path class="st7" d="M678,159v0.2h0.2V159"/>
			<path class="st7" d="M711.3,71.4v0.2h0.2v-0.2"/>
		</g>
	</g>
	<g id="labels-a912042d">
	</g>
</g>
</svg>
