<?xml version="1.0" encoding="utf-8"?>
<!-- Generator: Adobe Illustrator 25.2.1, SVG Export Plug-In . SVG Version: 6.00 Build 0)  -->
<svg version="1.1" id="Layer_1" xmlns="http://www.w3.org/2000/svg" xmlns:xlink="http://www.w3.org/1999/xlink" x="0px" y="0px"
	 viewBox="0 0 1448.4 1546.8" style="enable-background:new 0 0 1448.4 1546.8;" xml:space="preserve">
<style type="text/css">
	.st0{fill:none;stroke:#FFFFFF;stroke-width:2;stroke-miterlimit:20;stroke-opacity:0.3;}
	.st1{fill:none;stroke:#FFFFFF;stroke-width:2;stroke-miterlimit:20;stroke-opacity:0.4286;}
	.st2{fill:none;stroke:#FFFFFF;stroke-width:4;stroke-miterlimit:20;stroke-opacity:0.9;}
	.st3{fill:#FFFFFF;font-family:'TimesNewRomanPSMT';}
	.st4{fill:#FFFFFF;font-size:34px;}
	.st5{fill:#FFFFFF;font-size:40px;}
	.st6{fill:none;stroke:#FFFFFF;stroke-width:5.6;stroke-linecap:round;stroke-linejoin:round;stroke-miterlimit:20;}
	.st7{fill:none;stroke:#FFFFFF;stroke-width:16.3333;stroke-linecap:round;stroke-linejoin:round;stroke-miterlimit:20;}
</style>
<g transform="scale(2,2)">
	<g id="background-images-aebfaa7f">
	</g>
	<g id="graphpaper-aebfaa7f">
		<g id="grid-aebfaa7f">
			<g>
				<path class="st0" d="M86.2,1v727"/>
				<path class="st0" d="M120.2,1v727"/>
				<path class="st0" d="M153.2,1v727"/>
				<path class="st0" d="M186.2,1v727"/>
				<path class="st0" d="M220.2,1v727"/>
				<path class="st0" d="M253.2,1v727"/>
				<path class="st0" d="M286.2,1v727"/>
				<path class="st0" d="M320.2,1v727"/>
				<path class="st0" d="M353.2,1v727"/>
				<path class="st0" d="M386.2,1v727"/>
				<path class="st0" d="M420.2,1v727"/>
				<path class="st0" d="M453.2,1v727"/>
				<path class="st0" d="M486.2,1v727"/>
				<path class="st0" d="M520.2,1v727"/>
				<path class="st0" d="M553.2,1v727"/>
				<path class="st0" d="M586.2,1v727"/>
				<path class="st0" d="M620.2,1v727"/>
				<path class="st0" d="M653.2,1v727"/>
				<path class="st0" d="M686.2,1v727"/>
				<path class="st0" d="M720.2,1v727"/>
				<path class="st0" d="M53.7,691.5h666.1"/>
				<path class="st0" d="M53.7,655.5h666.1"/>
				<path class="st0" d="M53.7,618.5h666.1"/>
				<path class="st0" d="M53.7,582.5h666.1"/>
				<path class="st0" d="M53.7,545.5h666.1"/>
				<path class="st0" d="M53.7,509.5h666.1"/>
				<path class="st0" d="M53.7,473.5h666.1"/>
				<path class="st0" d="M53.7,436.5h666.1"/>
				<path class="st0" d="M53.7,400.5h666.1"/>
				<path class="st0" d="M53.7,364.5h666.1"/>
				<path class="st0" d="M53.7,327.5h666.1"/>
				<path class="st0" d="M53.7,291.5h666.1"/>
				<path class="st0" d="M53.7,255.5h666.1"/>
				<path class="st0" d="M53.7,218.5h666.1"/>
				<path class="st0" d="M53.7,182.5h666.1"/>
				<path class="st0" d="M53.7,145.5h666.1"/>
				<path class="st0" d="M53.7,109.5h666.1"/>
				<path class="st0" d="M53.7,73.5h666.1"/>
				<path class="st0" d="M53.7,36.5h666.1"/>
				<path class="st0" d="M53.7,0.5h666.1"/>
				<path class="st1" d="M186.2,1v727"/>
				<path class="st1" d="M320.2,1v727"/>
				<path class="st1" d="M453.2,1v727"/>
				<path class="st1" d="M586.2,1v727"/>
				<path class="st1" d="M720.2,1v727"/>
				<path class="st1" d="M53.7,582.5h666.1"/>
				<path class="st1" d="M53.7,436.5h666.1"/>
				<path class="st1" d="M53.7,291.5h666.1"/>
				<path class="st1" d="M53.7,145.5h666.1"/>
				<path class="st1" d="M53.7,0.5h666.1"/>
			</g>
		</g>
		<g id="axis-aebfaa7f">
			<g id="yaxis-aebfaa7f">
				<path class="st2" d="M53.7,1v727"/>
			</g>
			<g id="xaxis-aebfaa7f">
				<path class="st2" d="M53.7,728h666.1"/>
			</g>
			<g>
				<g>
					<text transform="matrix(0.5 0 0 0.5 39.2991 746.3965)" class="st3 st4">0</text>
				</g>
				<g>
					<text transform="matrix(0.5 0 0 0.5 175.2708 746.3965)" class="st3 st4">0.2</text>
				</g>
				<g>
					<text transform="matrix(0.5 0 0 0.5 308.604 746.3965)" class="st3 st4">0.4</text>
				</g>
				<g>
					<text transform="matrix(0.5 0 0 0.5 441.9375 746.3965)" class="st3 st4">0.6</text>
				</g>
				<g>
					<text transform="matrix(0.5 0 0 0.5 575.2705 746.3965)" class="st3 st4">0.8</text>
				</g>
				<g>
					<text transform="matrix(0.5 0 0 0.5 715.6929 746.3965)" class="st3 st4">1</text>
				</g>
				<g>
					<text transform="matrix(0.5 0 0 0.5 25.1213 587.4424)" class="st3 st4">0.2</text>
				</g>
				<g>
					<text transform="matrix(0.5 0 0 0.5 25.1213 441.9878)" class="st3 st4">0.4</text>
				</g>
				<g>
					<text transform="matrix(0.5 0 0 0.5 25.1213 296.5332)" class="st3 st4">0.6</text>
				</g>
				<g>
					<text transform="matrix(0.5 0 0 0.5 25.1213 151.0786)" class="st3 st4">0.8</text>
				</g>
				<g>
					<text transform="matrix(0.5 0 0 0.5 39.2991 17.124)" class="st3 st4">1</text>
				</g>
			</g>
			<g>
				<text transform="matrix(0.5 0 0 0.5 578.2197 767.2725)" class="st3 st5">Traffic Intensity</text>
			</g>
			<g transform="translate(228.90934244791669,166.162109375) rotate(-90,0,0)">
				<text transform="matrix(0.5 0 0 0.5 -1 -212.2883)" class="st3 st5">Server Utilization</text>
			</g>
		</g>
	</g>
	<g id="expressions-aebfaa7f">
		<g id="sketch-aebfaa7f">
			<g>
				<path class="st6" d="M86.6,687.2L86.6,687.2l33.3-14.1l33.3-38l33.3-31.3l33.3-67.8l33.3-39.2l33.3-101.9l33.3,65.8l33.3-118.1
					l33.3-45.9l33.3,30.7l33.3-173.9l33.3,93.2l33.3,33.6l33.3,11.8l33.3-208.8l33.3,61.4l33.3,100.4l33.3-179l33.3-8.4"/>
			</g>
			<path class="st7" d="M86.5,687.1v0.2h0.2v-0.2"/>
			<path class="st7" d="M119.8,673v0.2h0.2V673"/>
			<path class="st7" d="M153.2,635v0.2h0.2V635"/>
			<path class="st7" d="M186.5,603.7v0.2h0.2v-0.2"/>
			<path class="st7" d="M219.8,535.9v0.2h0.2v-0.2"/>
			<path class="st7" d="M253.2,496.7v0.2h0.2v-0.2"/>
			<path class="st7" d="M286.5,394.8v0.2h0.2v-0.2"/>
			<path class="st7" d="M319.8,460.7v0.2h0.2v-0.2"/>
			<path class="st7" d="M353.2,342.5v0.2h0.2v-0.2"/>
			<path class="st7" d="M386.5,296.6v0.2h0.2v-0.2"/>
			<path class="st7" d="M419.8,327.3v0.2h0.2v-0.2"/>
			<path class="st7" d="M453.2,153.4v0.2h0.2v-0.2"/>
			<path class="st7" d="M486.5,246.6v0.2h0.2v-0.2"/>
			<path class="st7" d="M519.8,280.2v0.2h0.2v-0.2"/>
			<path class="st7" d="M553.2,292v0.2h0.2V292"/>
			<path class="st7" d="M586.5,83.3v0.2h0.2v-0.2"/>
			<path class="st7" d="M619.8,144.6v0.2h0.2v-0.2"/>
			<path class="st7" d="M653.2,245.1v0.2h0.2v-0.2"/>
			<path class="st7" d="M686.5,66.1v0.2h0.2v-0.2"/>
			<path class="st7" d="M719.8,57.7v0.2h0.2v-0.2"/>
		</g>
	</g>
	<g id="labels-aebfaa7f">
	</g>
</g>
</svg>
