<svg id="Layer_1" data-name="Layer 1" xmlns="http://www.w3.org/2000/svg" xmlns:xlink="http://www.w3.org/1999/xlink" width="82.46mm" height="82.53mm" viewBox="0 0 233.74 233.94"><defs><clipPath id="clip-path" transform="translate(-176.34 -304.05)"><rect x="176.14" y="303.85" width="231.15" height="231.15" style="fill:none"/></clipPath><clipPath id="clip-path-2" transform="translate(-176.34 -304.05)"><rect x="176.14" y="303.85" width="231.15" height="231.15" style="fill:none"/></clipPath><clipPath id="clip-path-3" transform="translate(-176.34 -304.05)"><rect x="176.34" y="304.05" width="230.82" height="230.83" style="fill:none"/></clipPath><clipPath id="clip-path-33" transform="translate(-176.34 -304.05)"><rect x="176.34" y="304.05" width="230.82" height="230.83" style="fill:none"/></clipPath></defs><text transform="translate(230.96 230.9)" style="font-size:12px;fill:#fff;font-family:GoogleSans-Regular, Google Sans"> </text><g style="clip-path:url(#clip-path)"><g style="clip-path:url(#clip-path-2)"><g style="clip-path:url(#clip-path-3)"><line x1="41.84" x2="41.84" y2="230.83" style="fill:none;stroke:#fff;stroke-miterlimit:10;stroke-width:0.5770590901374817px;opacity:0.19607999920845032"/></g><g style="clip-path:url(#clip-path-3)"><line x1="62.61" x2="62.61" y2="230.83" style="fill:none;stroke:#fff;stroke-miterlimit:10;stroke-width:0.5770590901374817px;opacity:0.19607999920845032"/></g><g style="clip-path:url(#clip-path-3)"><line x1="83.38" x2="83.38" y2="230.83" style="fill:none;stroke:#fff;stroke-miterlimit:10;stroke-width:0.5770590901374817px;opacity:0.19607999920845032"/></g><g style="clip-path:url(#clip-path-3)"><line x1="104.73" x2="104.73" y2="230.83" style="fill:none;stroke:#fff;stroke-miterlimit:10;stroke-width:0.5770590901374817px;opacity:0.19607999920845032"/></g><g style="clip-path:url(#clip-path-3)"><line x1="125.51" x2="125.51" y2="230.83" style="fill:none;stroke:#fff;stroke-miterlimit:10;stroke-width:0.5770590901374817px;opacity:0.19607999920845032"/></g><g style="clip-path:url(#clip-path-3)"><line x1="146.86" x2="146.86" y2="230.83" style="fill:none;stroke:#fff;stroke-miterlimit:10;stroke-width:0.5770590901374817px;opacity:0.19607999920845032"/></g><g style="clip-path:url(#clip-path-3)"><line x1="167.63" x2="167.63" y2="230.83" style="fill:none;stroke:#fff;stroke-miterlimit:10;stroke-width:0.5770590901374817px;opacity:0.19607999920845032"/></g><g style="clip-path:url(#clip-path-3)"><line x1="188.41" x2="188.41" y2="230.83" style="fill:none;stroke:#fff;stroke-miterlimit:10;stroke-width:0.5770590901374817px;opacity:0.19607999920845032"/></g><g style="clip-path:url(#clip-path-3)"><line x1="209.76" x2="209.76" y2="230.83" style="fill:none;stroke:#fff;stroke-miterlimit:10;stroke-width:0.5770590901374817px;opacity:0.19607999920845032"/></g><g style="clip-path:url(#clip-path-3)"><line y1="224.19" x2="230.82" y2="224.19" style="fill:none;stroke:#fff;stroke-miterlimit:10;stroke-width:0.5770590901374817px;opacity:0.19607999920845032"/></g><g style="clip-path:url(#clip-path-3)"><line y1="210.92" x2="230.82" y2="210.92" style="fill:none;stroke:#fff;stroke-miterlimit:10;stroke-width:0.5770590901374817px;opacity:0.19607999920845032"/></g><g style="clip-path:url(#clip-path-3)"><line y1="184.37" x2="230.82" y2="184.37" style="fill:none;stroke:#fff;stroke-miterlimit:10;stroke-width:0.5770590901374817px;opacity:0.19607999920845032"/></g><g style="clip-path:url(#clip-path-3)"><line y1="171.1" x2="230.82" y2="171.1" style="fill:none;stroke:#fff;stroke-miterlimit:10;stroke-width:0.5770590901374817px;opacity:0.19607999920845032"/></g><g style="clip-path:url(#clip-path-3)"><line y1="157.83" x2="230.82" y2="157.83" style="fill:none;stroke:#fff;stroke-miterlimit:10;stroke-width:0.5770590901374817px;opacity:0.19607999920845032"/></g><g style="clip-path:url(#clip-path-3)"><line y1="144.56" x2="230.82" y2="144.56" style="fill:none;stroke:#fff;stroke-miterlimit:10;stroke-width:0.5770590901374817px;opacity:0.19607999920845032"/></g><g style="clip-path:url(#clip-path-3)"><line y1="131.86" x2="230.82" y2="131.86" style="fill:none;stroke:#fff;stroke-miterlimit:10;stroke-width:0.5770590901374817px;opacity:0.19607999920845032"/></g><g style="clip-path:url(#clip-path-3)"><line y1="118.59" x2="230.82" y2="118.59" style="fill:none;stroke:#fff;stroke-miterlimit:10;stroke-width:0.5770590901374817px;opacity:0.19607999920845032"/></g><g style="clip-path:url(#clip-path-3)"><line y1="105.32" x2="230.82" y2="105.32" style="fill:none;stroke:#fff;stroke-miterlimit:10;stroke-width:0.5770590901374817px;opacity:0.19607999920845032"/></g><g style="clip-path:url(#clip-path-3)"><line y1="92.04" x2="230.82" y2="92.04" style="fill:none;stroke:#fff;stroke-miterlimit:10;stroke-width:0.5770590901374817px;opacity:0.19607999920845032"/></g><g style="clip-path:url(#clip-path-3)"><line y1="78.77" x2="230.82" y2="78.77" style="fill:none;stroke:#fff;stroke-miterlimit:10;stroke-width:0.5770590901374817px;opacity:0.19607999920845032"/></g><g style="clip-path:url(#clip-path-3)"><line y1="65.5" x2="230.82" y2="65.5" style="fill:none;stroke:#fff;stroke-miterlimit:10;stroke-width:0.5770590901374817px;opacity:0.19607999920845032"/></g><g style="clip-path:url(#clip-path-3)"><line y1="52.22" x2="230.82" y2="52.22" style="fill:none;stroke:#fff;stroke-miterlimit:10;stroke-width:0.5770590901374817px;opacity:0.19607999920845032"/></g><g style="clip-path:url(#clip-path-3)"><line y1="39.53" x2="230.82" y2="39.53" style="fill:none;stroke:#fff;stroke-miterlimit:10;stroke-width:0.5770590901374817px;opacity:0.19607999920845032"/></g><g style="clip-path:url(#clip-path-3)"><line y1="26.26" x2="230.82" y2="26.26" style="fill:none;stroke:#fff;stroke-miterlimit:10;stroke-width:0.5770590901374817px;opacity:0.19607999920845032"/></g><g style="clip-path:url(#clip-path-3)"><line y1="12.98" x2="230.82" y2="12.98" style="fill:none;stroke:#fff;stroke-miterlimit:10;stroke-width:0.5770590901374817px;opacity:0.19607999920845032"/></g><g style="clip-path:url(#clip-path-3)"><line x1="125.51" x2="125.51" y2="230.83" style="fill:none;stroke:#fff;stroke-miterlimit:10;stroke-width:0.5770590901374817px;opacity:0.24706000089645386"/></g><g style="clip-path:url(#clip-path-3)"><line y1="131.86" x2="230.82" y2="131.86" style="fill:none;stroke:#fff;stroke-miterlimit:10;stroke-width:0.5770590901374817px;opacity:0.24706000089645386"/></g><g style="clip-path:url(#clip-path-3)"><line y1="65.5" x2="230.82" y2="65.5" style="fill:none;stroke:#fff;stroke-miterlimit:10;stroke-width:0.5770590901374817px;opacity:0.24706000089645386"/></g><g style="clip-path:url(#clip-path-3)"><line x1="20.77" x2="20.77" y2="230.83" style="fill:none;stroke:#fff;stroke-miterlimit:10;stroke-width:0.8655887246131897px;opacity:0.8980399966239929"/></g><g style="clip-path:url(#clip-path-3)"><line y1="197.94" x2="230.82" y2="197.94" style="fill:none;stroke:#fff;stroke-miterlimit:10;stroke-width:0.8655887246131897px;opacity:0.8980399966239929"/></g><g style="clip-path:url(#clip-path-33)"><text transform="translate(13.53 207.14)" style="font-size:8.078989028930664px;fill:#fff;font-family:ArialMT, Arial">0</text></g><g style="clip-path:url(#clip-path-33)"><text transform="translate(120.22 207.14)" style="font-size:8.078989028930664px;fill:#fff;font-family:ArialMT, Arial">0</text></g><g style="clip-path:url(#clip-path-33)"><text transform="translate(124.84 207.14)" style="font-size:8.078989028930664px;fill:#fff;font-family:ArialMT, Arial">.</text></g><g style="clip-path:url(#clip-path-33)"><text transform="translate(127.15 207.14)" style="font-size:8.078989028930664px;fill:#fff;font-family:ArialMT, Arial">5</text></g><g style="clip-path:url(#clip-path-33)"><text transform="translate(224.73 207.14)" style="font-size:8.078989028930664px;fill:#fff;font-family:ArialMT, Arial">1</text></g><g style="clip-path:url(#clip-path-33)"><text transform="translate(6.66 134.2)" style="font-size:8.078989028930664px;fill:#fff;font-family:ArialMT, Arial">0</text></g><g style="clip-path:url(#clip-path-33)"><text transform="translate(11.28 134.2)" style="font-size:8.078989028930664px;fill:#fff;font-family:ArialMT, Arial">.</text></g><g style="clip-path:url(#clip-path-33)"><text transform="translate(13.59 134.2)" style="font-size:8.078989028930664px;fill:#fff;font-family:ArialMT, Arial">1</text></g><g style="clip-path:url(#clip-path-33)"><text transform="translate(6.66 68.18)" style="font-size:8.078989028930664px;fill:#fff;font-family:ArialMT, Arial">0</text></g><g style="clip-path:url(#clip-path-33)"><text transform="translate(11.28 68.18)" style="font-size:8.078989028930664px;fill:#fff;font-family:ArialMT, Arial">.</text></g><g style="clip-path:url(#clip-path-33)"><text transform="translate(13.59 68.18)" style="font-size:8.078989028930664px;fill:#fff;font-family:ArialMT, Arial">2</text></g><g style="clip-path:url(#clip-path-33)"><text transform="translate(156.29 217.06)" style="font-size:9.86790943145752px;fill:#fff;font-family:ArialMT, Arial"><tspan style="letter-spacing:-0.14201827624823868em">T</tspan><tspan x="4.63" y="0" style="letter-spacing:0.01603272526286736em">r</tspan><tspan x="8.07" y="0" style="letter-spacing:-0.030086101727849864em">a</tspan><tspan x="13.26" y="0" style="letter-spacing:0.013063702066040076em">ff</tspan><tspan x="19" y="0" style="letter-spacing:0.009896743989424299em">i</tspan><tspan x="21.29" y="0" style="letter-spacing:0.024049087894301047em">c</tspan><tspan x="26.46" y="0" xml:space="preserve" style="letter-spacing:0.013063702066040076em"> I</tspan><tspan x="32.2" y="0" style="letter-spacing:-0.029987134287955623em">n</tspan><tspan x="37.4" y="0" style="letter-spacing:-0.04295186891410146em">t</tspan><tspan x="39.71" y="0" style="letter-spacing:-0.030086101727849864em">en</tspan><tspan x="50.1" y="0" style="letter-spacing:-0.030976808686898054em">s</tspan><tspan x="54.72" y="0" style="letter-spacing:0.009995711429318542em">i</tspan><tspan x="57.02" y="0" style="letter-spacing:-0.04295186891410146em">t</tspan><tspan x="59.33" y="0">y</tspan></text></g><g style="clip-path:url(#clip-path-33)"><text transform="matrix(0, -1, 1, 0, 29.63, 108.86)" style="font-size:9.809808731079102px;fill:#fff;font-family:ArialMT, Arial;letter-spacing:-0.019013209085829264em">A<tspan x="6.36" y="0" style="letter-spacing:-0.08700285204719777em">v</tspan><tspan x="10.41" y="0" style="letter-spacing:-0.000049772798654003293em">g</tspan></text></g><g style="clip-path:url(#clip-path-33)"><text transform="matrix(0, -1, 1, 0, 29.63, 93.28)" style="font-size:9.809808731079102px;fill:#fff;font-family:ArialMT, Arial"><tspan style="letter-spacing:0.015977068367935058em">.</tspan><tspan x="2.88" y="0"> </tspan></text></g><g style="clip-path:url(#clip-path-33)"><text transform="matrix(0, -1, 1, 0, 29.63, 17.94)" style="font-size:9.809808731079102px;fill:#fff;font-family:ArialMT, Arial">n</text><text transform="matrix(0, -1, 1, 0, 29.63, 23.19)" style="font-size:9.809808731079102px;fill:#fff;font-family:ArialMT, Arial">o</text><text transform="matrix(0, -1, 1, 0, 29.63, 25.54)" style="font-size:9.809808731079102px;fill:#fff;font-family:ArialMT, Arial">i</text><text transform="matrix(0, -1, 1, 0, 29.63, 27.9)" style="font-size:9.809808731079102px;fill:#fff;font-family:ArialMT, Arial">t</text><text transform="matrix(0, -1, 1, 0, 29.63, 33.15)" style="font-size:9.809808731079102px;fill:#fff;font-family:ArialMT, Arial">a</text><text transform="matrix(0, -1, 1, 0, 29.63, 37.82)" style="font-size:9.809808731079102px;fill:#fff;font-family:ArialMT, Arial">z</text><text transform="matrix(0, -1, 1, 0, 29.63, 40.18)" style="font-size:9.809808731079102px;fill:#fff;font-family:ArialMT, Arial">i</text><text transform="matrix(0, -1, 1, 0, 29.63, 41.96)" style="font-size:9.809808731079102px;fill:#fff;font-family:ArialMT, Arial">l</text><text transform="matrix(0, -1, 1, 0, 29.63, 44.32)" style="font-size:9.809808731079102px;fill:#fff;font-family:ArialMT, Arial">i</text><text transform="matrix(0, -1, 1, 0, 29.63, 46.68)" style="font-size:9.809808731079102px;fill:#fff;font-family:ArialMT, Arial">t</text><text transform="matrix(0, -1, 1, 0, 29.63, 53.09)" style="font-size:9.809808731079102px;fill:#fff;font-family:ArialMT, Arial">U</text><text transform="matrix(0, -1, 1, 0, 29.63, 56.02)" style="font-size:9.809808731079102px;fill:#fff;font-family:ArialMT, Arial"> </text><text transform="matrix(0, -1, 1, 0, 29.63, 63.58)" style="font-size:9.809808731079102px;fill:#fff;font-family:ArialMT, Arial">m</text><text transform="matrix(0, -1, 1, 0, 29.63, 68.83)" style="font-size:9.809808731079102px;fill:#fff;font-family:ArialMT, Arial">e</text><text transform="matrix(0, -1, 1, 0, 29.63, 71.2)" style="font-size:9.809808731079102px;fill:#fff;font-family:ArialMT, Arial">t</text><text transform="matrix(0, -1, 1, 0, 29.63, 75.87)" style="font-size:9.809808731079102px;fill:#fff;font-family:ArialMT, Arial">s</text><text transform="matrix(0, -1, 1, 0, 29.63, 81.11)" style="font-size:9.809808731079102px;fill:#fff;font-family:ArialMT, Arial">y</text><text transform="matrix(0, -1, 1, 0, 29.63, 87.51)" style="font-size:9.809808731079102px;fill:#fff;font-family:ArialMT, Arial">S</text></g><polyline points="31.19 188.86 31.19 188.86 41.68 180.17 52.17 171.47 62.66 163.05 73.16 154.3 83.64 144.92 94.14 134.41 104.63 125.21 115.12 117.98 125.61 108.52 136.1 102.46 146.6 93.85 157.09 85.37 167.58 76.78 178.07 63.43 188.56 57.91 199.06 49.23 209.55 36.04" style="fill:none;stroke:#fff;stroke-linecap:round;stroke-linejoin:round;stroke-width:1.4426478147506714px"/><path d="M209.35,492.92h0a1.82,1.82,0,1,0-1.82,1.81,1.82,1.82,0,0,0,1.82-1.81Z" transform="translate(-176.34 -304.05)" style="fill:#fff"/><path d="M209.35,492.92h0a1.82,1.82,0,1,0-1.82,1.81,1.82,1.82,0,0,0,1.82-1.81Z" transform="translate(-176.34 -304.05)" style="fill:none;stroke:#fff;stroke-linecap:round;stroke-linejoin:round;stroke-width:1.0819858312606812px"/><path d="M219.84,484.22h0A1.82,1.82,0,1,0,218,486a1.81,1.81,0,0,0,1.82-1.82Z" transform="translate(-176.34 -304.05)" style="fill:#fff"/><path d="M219.84,484.22h0A1.82,1.82,0,1,0,218,486a1.81,1.81,0,0,0,1.82-1.82Z" transform="translate(-176.34 -304.05)" style="fill:none;stroke:#fff;stroke-linecap:round;stroke-linejoin:round;stroke-width:1.0819858312606812px"/><path d="M230.33,475.53h0a1.82,1.82,0,1,0-1.82,1.82,1.81,1.81,0,0,0,1.82-1.82Z" transform="translate(-176.34 -304.05)" style="fill:#fff"/><path d="M230.33,475.53h0a1.82,1.82,0,1,0-1.82,1.82,1.81,1.81,0,0,0,1.82-1.82Z" transform="translate(-176.34 -304.05)" style="fill:none;stroke:#fff;stroke-linecap:round;stroke-linejoin:round;stroke-width:1.0819858312606812px"/><path d="M240.82,467.11h0a1.82,1.82,0,1,0-1.81,1.81,1.81,1.81,0,0,0,1.81-1.81Z" transform="translate(-176.34 -304.05)" style="fill:#fff"/><path d="M240.82,467.11h0a1.82,1.82,0,1,0-1.81,1.81,1.81,1.81,0,0,0,1.81-1.81Z" transform="translate(-176.34 -304.05)" style="fill:none;stroke:#fff;stroke-linecap:round;stroke-linejoin:round;stroke-width:1.0819858312606812px"/><path d="M251.32,458.35h0a1.82,1.82,0,1,0-1.82,1.82,1.83,1.83,0,0,0,1.82-1.82Z" transform="translate(-176.34 -304.05)" style="fill:#fff"/><path d="M251.32,458.35h0a1.82,1.82,0,1,0-1.82,1.82,1.83,1.83,0,0,0,1.82-1.82Z" transform="translate(-176.34 -304.05)" style="fill:none;stroke:#fff;stroke-linecap:round;stroke-linejoin:round;stroke-width:1.0819858312606812px"/><path d="M261.81,449h0a1.82,1.82,0,1,0-1.82,1.82,1.82,1.82,0,0,0,1.82-1.82Z" transform="translate(-176.34 -304.05)" style="fill:#fff"/><path d="M261.81,449h0a1.82,1.82,0,1,0-1.82,1.82,1.82,1.82,0,0,0,1.82-1.82Z" transform="translate(-176.34 -304.05)" style="fill:none;stroke:#fff;stroke-linecap:round;stroke-linejoin:round;stroke-width:1.0819858312606812px"/><path d="M272.3,438.47h0a1.82,1.82,0,1,0-1.82,1.82,1.82,1.82,0,0,0,1.82-1.82Z" transform="translate(-176.34 -304.05)" style="fill:#fff"/><path d="M272.3,438.47h0a1.82,1.82,0,1,0-1.82,1.82,1.82,1.82,0,0,0,1.82-1.82Z" transform="translate(-176.34 -304.05)" style="fill:none;stroke:#fff;stroke-linecap:round;stroke-linejoin:round;stroke-width:1.0819858312606812px"/><path d="M282.79,429.26h0a1.82,1.82,0,1,0-1.82,1.82A1.81,1.81,0,0,0,282.79,429.26Z" transform="translate(-176.34 -304.05)" style="fill:#fff"/><path d="M282.79,429.26h0a1.82,1.82,0,1,0-1.82,1.82A1.81,1.81,0,0,0,282.79,429.26Z" transform="translate(-176.34 -304.05)" style="fill:none;stroke:#fff;stroke-linecap:round;stroke-linejoin:round;stroke-width:1.0819858312606812px"/><path d="M293.28,422h0a1.82,1.82,0,1,0-1.82,1.82A1.81,1.81,0,0,0,293.28,422Z" transform="translate(-176.34 -304.05)" style="fill:#fff"/><path d="M293.28,422h0a1.82,1.82,0,1,0-1.82,1.82A1.81,1.81,0,0,0,293.28,422Z" transform="translate(-176.34 -304.05)" style="fill:none;stroke:#fff;stroke-linecap:round;stroke-linejoin:round;stroke-width:1.0819858312606812px"/><path d="M303.78,412.57h0a1.82,1.82,0,1,0-1.82,1.82,1.83,1.83,0,0,0,1.82-1.82Z" transform="translate(-176.34 -304.05)" style="fill:#fff"/><path d="M303.78,412.57h0a1.82,1.82,0,1,0-1.82,1.82,1.83,1.83,0,0,0,1.82-1.82Z" transform="translate(-176.34 -304.05)" style="fill:none;stroke:#fff;stroke-linecap:round;stroke-linejoin:round;stroke-width:1.0819858312606812px"/><path d="M314.27,406.51h0a1.82,1.82,0,1,0-1.82,1.82,1.83,1.83,0,0,0,1.82-1.82Z" transform="translate(-176.34 -304.05)" style="fill:#fff"/><path d="M314.27,406.51h0a1.82,1.82,0,1,0-1.82,1.82,1.83,1.83,0,0,0,1.82-1.82Z" transform="translate(-176.34 -304.05)" style="fill:none;stroke:#fff;stroke-linecap:round;stroke-linejoin:round;stroke-width:1.0819858312606812px"/><path d="M324.76,397.91h0a1.82,1.82,0,1,0-1.82,1.81,1.82,1.82,0,0,0,1.82-1.81Z" transform="translate(-176.34 -304.05)" style="fill:#fff"/><path d="M324.76,397.91h0a1.82,1.82,0,1,0-1.82,1.81,1.82,1.82,0,0,0,1.82-1.81Z" transform="translate(-176.34 -304.05)" style="fill:none;stroke:#fff;stroke-linecap:round;stroke-linejoin:round;stroke-width:1.0819858312606812px"/><path d="M335.25,389.42h0a1.82,1.82,0,1,0-1.82,1.82,1.81,1.81,0,0,0,1.82-1.82Z" transform="translate(-176.34 -304.05)" style="fill:#fff"/><path d="M335.25,389.42h0a1.82,1.82,0,1,0-1.82,1.82,1.81,1.81,0,0,0,1.82-1.82Z" transform="translate(-176.34 -304.05)" style="fill:none;stroke:#fff;stroke-linecap:round;stroke-linejoin:round;stroke-width:1.0819858312606812px"/><path d="M345.74,380.83h0a1.82,1.82,0,1,0-1.82,1.82,1.82,1.82,0,0,0,1.82-1.82Z" transform="translate(-176.34 -304.05)" style="fill:#fff"/><path d="M345.74,380.83h0a1.82,1.82,0,1,0-1.82,1.82,1.82,1.82,0,0,0,1.82-1.82Z" transform="translate(-176.34 -304.05)" style="fill:none;stroke:#fff;stroke-linecap:round;stroke-linejoin:round;stroke-width:1.0819858312606812px"/><path d="M356.23,367.49h0a1.82,1.82,0,1,0-1.81,1.81,1.81,1.81,0,0,0,1.81-1.81Z" transform="translate(-176.34 -304.05)" style="fill:#fff"/><path d="M356.23,367.49h0a1.82,1.82,0,1,0-1.81,1.81,1.81,1.81,0,0,0,1.81-1.81Z" transform="translate(-176.34 -304.05)" style="fill:none;stroke:#fff;stroke-linecap:round;stroke-linejoin:round;stroke-width:1.0819858312606812px"/><path d="M366.73,362h0a1.82,1.82,0,1,0-1.82,1.82,1.83,1.83,0,0,0,1.82-1.82Z" transform="translate(-176.34 -304.05)" style="fill:#fff"/><path d="M366.73,362h0a1.82,1.82,0,1,0-1.82,1.82,1.83,1.83,0,0,0,1.82-1.82Z" transform="translate(-176.34 -304.05)" style="fill:none;stroke:#fff;stroke-linecap:round;stroke-linejoin:round;stroke-width:1.0819858312606812px"/><path d="M377.22,353.28h0a1.82,1.82,0,1,0-1.82,1.82,1.83,1.83,0,0,0,1.82-1.82Z" transform="translate(-176.34 -304.05)" style="fill:#fff"/><path d="M377.22,353.28h0a1.82,1.82,0,1,0-1.82,1.82,1.83,1.83,0,0,0,1.82-1.82Z" transform="translate(-176.34 -304.05)" style="fill:none;stroke:#fff;stroke-linecap:round;stroke-linejoin:round;stroke-width:1.0819858312606812px"/><path d="M387.71,340.09h0a1.82,1.82,0,1,0-1.82,1.82,1.82,1.82,0,0,0,1.82-1.82Z" transform="translate(-176.34 -304.05)" style="fill:#fff"/><path d="M387.71,340.09h0a1.82,1.82,0,1,0-1.82,1.82,1.82,1.82,0,0,0,1.82-1.82Z" transform="translate(-176.34 -304.05)" style="fill:none;stroke:#fff;stroke-linecap:round;stroke-linejoin:round;stroke-width:1.0819858312606812px"/><polyline points="31.19 188.86 31.19 188.86 41.68 180.17 52.17 171.47 62.66 163.05 73.16 154.3 83.64 144.92 94.14 134.47 104.63 125.27 115.12 117.98 125.61 108.52 136.1 102.46 146.6 93.86 157.09 85.37 167.58 76.77 178.07 63.42 188.56 57.9 199.06 49.21 209.55 36.04" style="fill:none;stroke:#fff;stroke-linecap:round;stroke-linejoin:round;stroke-width:1.4426478147506714px"/><path d="M209.26,491.19l-3.46,3.46m0-3.46,3.46,3.46" transform="translate(-176.34 -304.05)" style="fill:none;stroke:#fff;stroke-linecap:round;stroke-linejoin:round;stroke-width:1.298383116722107px"/><path d="M219.75,482.49,216.29,486m0-3.46,3.46,3.46" transform="translate(-176.34 -304.05)" style="fill:none;stroke:#fff;stroke-linecap:round;stroke-linejoin:round;stroke-width:1.298383116722107px"/><path d="M230.24,473.8l-3.46,3.46m0-3.46,3.46,3.46" transform="translate(-176.34 -304.05)" style="fill:none;stroke:#fff;stroke-linecap:round;stroke-linejoin:round;stroke-width:1.298383116722107px"/><path d="M240.74,465.38l-3.46,3.46m0-3.46,3.46,3.46" transform="translate(-176.34 -304.05)" style="fill:none;stroke:#fff;stroke-linecap:round;stroke-linejoin:round;stroke-width:1.298383116722107px"/><path d="M251.23,456.62l-3.46,3.46m0-3.46,3.46,3.46" transform="translate(-176.34 -304.05)" style="fill:none;stroke:#fff;stroke-linecap:round;stroke-linejoin:round;stroke-width:1.298383116722107px"/><path d="M261.72,447.24l-3.46,3.47m0-3.47,3.46,3.47" transform="translate(-176.34 -304.05)" style="fill:none;stroke:#fff;stroke-linecap:round;stroke-linejoin:round;stroke-width:1.298383116722107px"/><path d="M272.21,436.79l-3.46,3.46m0-3.46,3.46,3.46" transform="translate(-176.34 -304.05)" style="fill:none;stroke:#fff;stroke-linecap:round;stroke-linejoin:round;stroke-width:1.298383116722107px"/><path d="M282.7,427.59l-3.46,3.46m0-3.46,3.46,3.46" transform="translate(-176.34 -304.05)" style="fill:none;stroke:#fff;stroke-linecap:round;stroke-linejoin:round;stroke-width:1.298383116722107px"/><path d="M293.2,420.31l-3.47,3.46m0-3.46,3.47,3.46" transform="translate(-176.34 -304.05)" style="fill:none;stroke:#fff;stroke-linecap:round;stroke-linejoin:round;stroke-width:1.298383116722107px"/><path d="M303.69,410.84l-3.46,3.46m0-3.46,3.46,3.46" transform="translate(-176.34 -304.05)" style="fill:none;stroke:#fff;stroke-linecap:round;stroke-linejoin:round;stroke-width:1.298383116722107px"/><path d="M314.18,404.79l-3.46,3.46m0-3.46,3.46,3.46" transform="translate(-176.34 -304.05)" style="fill:none;stroke:#fff;stroke-linecap:round;stroke-linejoin:round;stroke-width:1.298383116722107px"/><path d="M324.67,396.18l-3.46,3.46m0-3.46,3.46,3.46" transform="translate(-176.34 -304.05)" style="fill:none;stroke:#fff;stroke-linecap:round;stroke-linejoin:round;stroke-width:1.298383116722107px"/><path d="M335.16,387.69l-3.46,3.46m0-3.46,3.46,3.46" transform="translate(-176.34 -304.05)" style="fill:none;stroke:#fff;stroke-linecap:round;stroke-linejoin:round;stroke-width:1.298383116722107px"/><path d="M345.65,379.1l-3.46,3.46m0-3.46,3.46,3.46" transform="translate(-176.34 -304.05)" style="fill:none;stroke:#fff;stroke-linecap:round;stroke-linejoin:round;stroke-width:1.298383116722107px"/><path d="M356.15,365.74l-3.47,3.46m0-3.46,3.47,3.46" transform="translate(-176.34 -304.05)" style="fill:none;stroke:#fff;stroke-linecap:round;stroke-linejoin:round;stroke-width:1.298383116722107px"/><path d="M366.64,360.22l-3.46,3.46m0-3.46,3.46,3.46" transform="translate(-176.34 -304.05)" style="fill:none;stroke:#fff;stroke-linecap:round;stroke-linejoin:round;stroke-width:1.298383116722107px"/><path d="M377.13,351.53,373.67,355m0-3.47,3.46,3.47" transform="translate(-176.34 -304.05)" style="fill:none;stroke:#fff;stroke-linecap:round;stroke-linejoin:round;stroke-width:1.298383116722107px"/><path d="M387.62,338.36l-3.46,3.46m0-3.46,3.46,3.46" transform="translate(-176.34 -304.05)" style="fill:none;stroke:#fff;stroke-linecap:round;stroke-linejoin:round;stroke-width:1.298383116722107px"/></g></g></svg>