<svg id="Layer_1" data-name="Layer 1" xmlns="http://www.w3.org/2000/svg" xmlns:xlink="http://www.w3.org/1999/xlink" width="86.75mm" height="86.8mm" viewBox="0 0 245.9 246.05"><defs><clipPath id="clip-path" transform="translate(-170.27 -298)"><rect x="170.05" y="297.79" width="243.25" height="243.25" style="fill:none"/></clipPath><clipPath id="clip-path-2" transform="translate(-170.27 -298)"><rect x="170.05" y="297.79" width="243.25" height="243.25" style="fill:none"/></clipPath><clipPath id="clip-path-3" transform="translate(-170.27 -298)"><rect x="170.27" y="298" width="242.9" height="242.91" style="fill:none"/></clipPath></defs><text transform="translate(243.11 243.02)" style="font-size:12px;fill:#fff;font-family:GoogleSans-Regular, Google Sans"> </text><g style="clip-path:url(#clip-path)"><g style="clip-path:url(#clip-path-2)"><g style="clip-path:url(#clip-path-3)"><line x1="14.27" x2="14.27" y2="242.92" style="fill:none;stroke:#fff;stroke-miterlimit:10;stroke-width:0.6072745323181152px;opacity:0.19607999920845032"/></g><g style="clip-path:url(#clip-path-3)"><line x1="55.56" x2="55.56" y2="242.92" style="fill:none;stroke:#fff;stroke-miterlimit:10;stroke-width:0.6072745323181152px;opacity:0.19607999920845032"/></g><g style="clip-path:url(#clip-path-3)"><line x1="76.82" x2="76.82" y2="242.92" style="fill:none;stroke:#fff;stroke-miterlimit:10;stroke-width:0.6072745323181152px;opacity:0.19607999920845032"/></g><g style="clip-path:url(#clip-path-3)"><line x1="97.47" x2="97.47" y2="242.92" style="fill:none;stroke:#fff;stroke-miterlimit:10;stroke-width:0.6072745323181152px;opacity:0.19607999920845032"/></g><g style="clip-path:url(#clip-path-3)"><line x1="118.11" x2="118.11" y2="242.92" style="fill:none;stroke:#fff;stroke-miterlimit:10;stroke-width:0.6072745323181152px;opacity:0.19607999920845032"/></g><g style="clip-path:url(#clip-path-3)"><line x1="138.76" x2="138.76" y2="242.92" style="fill:none;stroke:#fff;stroke-miterlimit:10;stroke-width:0.6072745323181152px;opacity:0.19607999920845032"/></g><g style="clip-path:url(#clip-path-3)"><line x1="160.01" x2="160.01" y2="242.92" style="fill:none;stroke:#fff;stroke-miterlimit:10;stroke-width:0.6072745323181152px;opacity:0.19607999920845032"/></g><g style="clip-path:url(#clip-path-3)"><line x1="180.66" x2="180.66" y2="242.92" style="fill:none;stroke:#fff;stroke-miterlimit:10;stroke-width:0.6072745323181152px;opacity:0.19607999920845032"/></g><g style="clip-path:url(#clip-path-3)"><line x1="201.31" x2="201.31" y2="242.92" style="fill:none;stroke:#fff;stroke-miterlimit:10;stroke-width:0.6072745323181152px;opacity:0.19607999920845032"/></g><g style="clip-path:url(#clip-path-3)"><line x1="221.95" x2="221.95" y2="242.92" style="fill:none;stroke:#fff;stroke-miterlimit:10;stroke-width:0.6072745323181152px;opacity:0.19607999920845032"/></g><g style="clip-path:url(#clip-path-3)"><line y1="235.32" x2="242.9" y2="235.32" style="fill:none;stroke:#fff;stroke-miterlimit:10;stroke-width:0.6072745323181152px;opacity:0.19607999920845032"/></g><g style="clip-path:url(#clip-path-3)"><line y1="221.36" x2="242.9" y2="221.36" style="fill:none;stroke:#fff;stroke-miterlimit:10;stroke-width:0.6072745323181152px;opacity:0.19607999920845032"/></g><g style="clip-path:url(#clip-path-3)"><line y1="193.42" x2="242.9" y2="193.42" style="fill:none;stroke:#fff;stroke-miterlimit:10;stroke-width:0.6072745323181152px;opacity:0.19607999920845032"/></g><g style="clip-path:url(#clip-path-3)"><line y1="179.45" x2="242.9" y2="179.45" style="fill:none;stroke:#fff;stroke-miterlimit:10;stroke-width:0.6072745323181152px;opacity:0.19607999920845032"/></g><g style="clip-path:url(#clip-path-3)"><line y1="166.09" x2="242.9" y2="166.09" style="fill:none;stroke:#fff;stroke-miterlimit:10;stroke-width:0.6072745323181152px;opacity:0.19607999920845032"/></g><g style="clip-path:url(#clip-path-3)"><line y1="152.13" x2="242.9" y2="152.13" style="fill:none;stroke:#fff;stroke-miterlimit:10;stroke-width:0.6072745323181152px;opacity:0.19607999920845032"/></g><g style="clip-path:url(#clip-path-3)"><line y1="138.16" x2="242.9" y2="138.16" style="fill:none;stroke:#fff;stroke-miterlimit:10;stroke-width:0.6072745323181152px;opacity:0.19607999920845032"/></g><g style="clip-path:url(#clip-path-3)"><line y1="124.19" x2="242.9" y2="124.19" style="fill:none;stroke:#fff;stroke-miterlimit:10;stroke-width:0.6072745323181152px;opacity:0.19607999920845032"/></g><g style="clip-path:url(#clip-path-3)"><line y1="110.22" x2="242.9" y2="110.22" style="fill:none;stroke:#fff;stroke-miterlimit:10;stroke-width:0.6072745323181152px;opacity:0.19607999920845032"/></g><g style="clip-path:url(#clip-path-3)"><line y1="96.25" x2="242.9" y2="96.26" style="fill:none;stroke:#fff;stroke-miterlimit:10;stroke-width:0.6072745323181152px;opacity:0.19607999920845032"/></g><g style="clip-path:url(#clip-path-3)"><line y1="82.29" x2="242.9" y2="82.29" style="fill:none;stroke:#fff;stroke-miterlimit:10;stroke-width:0.6072745323181152px;opacity:0.19607999920845032"/></g><g style="clip-path:url(#clip-path-3)"><line y1="68.93" x2="242.9" y2="68.93" style="fill:none;stroke:#fff;stroke-miterlimit:10;stroke-width:0.6072745323181152px;opacity:0.19607999920845032"/></g><g style="clip-path:url(#clip-path-3)"><line y1="54.96" x2="242.9" y2="54.96" style="fill:none;stroke:#fff;stroke-miterlimit:10;stroke-width:0.6072745323181152px;opacity:0.19607999920845032"/></g><g style="clip-path:url(#clip-path-3)"><line y1="40.99" x2="242.9" y2="40.99" style="fill:none;stroke:#fff;stroke-miterlimit:10;stroke-width:0.6072745323181152px;opacity:0.19607999920845032"/></g><g style="clip-path:url(#clip-path-3)"><line y1="27.02" x2="242.9" y2="27.02" style="fill:none;stroke:#fff;stroke-miterlimit:10;stroke-width:0.6072745323181152px;opacity:0.19607999920845032"/></g><g style="clip-path:url(#clip-path-3)"><line y1="13.06" x2="242.9" y2="13.06" style="fill:none;stroke:#fff;stroke-miterlimit:10;stroke-width:0.6072745323181152px;opacity:0.19607999920845032"/></g><g style="clip-path:url(#clip-path-3)"><line x1="138.76" x2="138.76" y2="242.92" style="fill:none;stroke:#fff;stroke-miterlimit:10;stroke-width:0.6072745323181152px;opacity:0.24706000089645386"/></g><g style="clip-path:url(#clip-path-3)"><line y1="138.16" x2="242.9" y2="138.16" style="fill:none;stroke:#fff;stroke-miterlimit:10;stroke-width:0.6072745323181152px;opacity:0.24706000089645386"/></g><g style="clip-path:url(#clip-path-3)"><line y1="68.93" x2="242.9" y2="68.93" style="fill:none;stroke:#fff;stroke-miterlimit:10;stroke-width:0.6072745323181152px;opacity:0.24706000089645386"/></g><g style="clip-path:url(#clip-path-3)"><line x1="35.22" x2="35.22" y2="242.92" style="fill:none;stroke:#fff;stroke-miterlimit:10;stroke-width:0.9109118580818176px;opacity:0.8980399966239929"/></g><g style="clip-path:url(#clip-path-3)"><line y1="207.69" x2="242.9" y2="207.69" style="fill:none;stroke:#fff;stroke-miterlimit:10;stroke-width:0.9109118580818176px;opacity:0.8980399966239929"/></g><g style="clip-path:url(#clip-path-3)"><text transform="translate(27.48 217.62)" style="font-size:8.502013206481934px;fill:#fff;font-family:ArialMT, Arial">0</text></g><g style="clip-path:url(#clip-path-3)"><text transform="translate(133.32 217.62)" style="font-size:8.502013206481934px;fill:#fff;font-family:ArialMT, Arial">0</text></g><g style="clip-path:url(#clip-path-3)"><text transform="translate(138.18 217.62)" style="font-size:8.502013206481934px;fill:#fff;font-family:ArialMT, Arial">.</text></g><g style="clip-path:url(#clip-path-3)"><text transform="translate(140.61 217.62)" style="font-size:8.502013206481934px;fill:#fff;font-family:ArialMT, Arial">5</text></g><g style="clip-path:url(#clip-path-3)"><text transform="translate(20.31 140.8)" style="font-size:8.502013206481934px;fill:#fff;font-family:ArialMT, Arial">0</text></g><g style="clip-path:url(#clip-path-3)"><text transform="translate(25.17 140.8)" style="font-size:8.502013206481934px;fill:#fff;font-family:ArialMT, Arial">.</text></g><g style="clip-path:url(#clip-path-3)"><text transform="translate(27.6 140.8)" style="font-size:8.502013206481934px;fill:#fff;font-family:ArialMT, Arial">1</text></g><g style="clip-path:url(#clip-path-3)"><text transform="translate(20.31 71.32)" style="font-size:8.502013206481934px;fill:#fff;font-family:ArialMT, Arial">0</text></g><g style="clip-path:url(#clip-path-3)"><text transform="translate(25.17 71.32)" style="font-size:8.502013206481934px;fill:#fff;font-family:ArialMT, Arial">.</text></g><g style="clip-path:url(#clip-path-3)"><text transform="translate(27.6 71.32)" style="font-size:8.502013206481934px;fill:#fff;font-family:ArialMT, Arial">2</text></g><g style="clip-path:url(#clip-path-3)"><text transform="translate(164.47 228.06)" style="font-size:10.323874473571777px;fill:#fff;font-family:ArialMT, Arial;letter-spacing:-0.13896215657486768em">T<tspan x="4.87" y="0" style="letter-spacing:0.0179733218170353em">r</tspan><tspan x="8.49" y="0" style="letter-spacing:-0.026959982725552955em">a</tspan><tspan x="13.96" y="0" style="letter-spacing:0.01504083246794007em">ff</tspan><tspan x="20" y="0" style="letter-spacing:0.010973185951453131em">i</tspan><tspan x="22.41" y="0" style="letter-spacing:0.026959982725552955em">c</tspan><tspan x="27.85" y="0" xml:space="preserve" style="letter-spacing:0.01504083246794007em"> I</tspan><tspan x="33.9" y="0" style="letter-spacing:-0.026959982725552955em">n</tspan><tspan x="39.36" y="0" style="letter-spacing:-0.042000815193493024em">t</tspan><tspan x="41.8" y="0" style="letter-spacing:-0.026959982725552955em">en</tspan><tspan x="52.72" y="0" style="letter-spacing:-0.02904110419910441em">s</tspan><tspan x="57.58" y="0" style="letter-spacing:0.010973185951453131em">i</tspan><tspan x="59.99" y="0" style="letter-spacing:-0.042000815193493024em">t</tspan><tspan x="62.43" y="0" style="letter-spacing:-0.00009459643061597528em">y</tspan></text></g><g style="clip-path:url(#clip-path-3)"><text transform="matrix(0, -1, 1, 0, 16.18, 106.55)" style="font-size:10.32345962524414px;fill:#fff;font-family:ArialMT, Arial"><tspan style="letter-spacing:-0.01896582373205043em">A</tspan><tspan x="6.69" y="0" style="letter-spacing:-0.08702522610217654em">v</tspan><tspan x="10.95" y="0">g</tspan></text></g><g style="clip-path:url(#clip-path-3)"><text transform="matrix(0, -1, 1, 0, 16.18, 90.15)" style="font-size:10.32345962524414px;fill:#fff;font-family:ArialMT, Arial"><tspan style="letter-spacing:0.016033451982955353em">.</tspan><tspan x="3.03" y="0"> </tspan></text></g><g style="clip-path:url(#clip-path-3)"><text transform="matrix(0, -1, 1, 0, 16.18, 17.93)" style="font-size:10.32345962524414px;fill:#fff;font-family:ArialMT, Arial">y</text><text transform="matrix(0, -1, 1, 0, 16.18, 23.46)" style="font-size:10.32345962524414px;fill:#fff;font-family:ArialMT, Arial">a</text><text transform="matrix(0, -1, 1, 0, 16.18, 25.27)" style="font-size:10.32345962524414px;fill:#fff;font-family:ArialMT, Arial">l</text><text transform="matrix(0, -1, 1, 0, 16.18, 30.8)" style="font-size:10.32345962524414px;fill:#fff;font-family:ArialMT, Arial">e</text><text transform="matrix(0, -1, 1, 0, 16.18, 38.14)" style="font-size:10.32345962524414px;fill:#fff;font-family:ArialMT, Arial">D</text><text transform="matrix(0, -1, 1, 0, 16.18, 41.17)" style="font-size:10.32345962524414px;fill:#fff;font-family:ArialMT, Arial"> </text><text transform="matrix(0, -1, 1, 0, 16.18, 46.69)" style="font-size:10.32345962524414px;fill:#fff;font-family:ArialMT, Arial">g</text><text transform="matrix(0, -1, 1, 0, 16.18, 52.22)" style="font-size:10.32345962524414px;fill:#fff;font-family:ArialMT, Arial">n</text><text transform="matrix(0, -1, 1, 0, 16.18, 54.63)" style="font-size:10.32345962524414px;fill:#fff;font-family:ArialMT, Arial">i</text><text transform="matrix(0, -1, 1, 0, 16.18, 60.16)" style="font-size:10.32345962524414px;fill:#fff;font-family:ArialMT, Arial">e</text><text transform="matrix(0, -1, 1, 0, 16.18, 65.68)" style="font-size:10.32345962524414px;fill:#fff;font-family:ArialMT, Arial">u</text><text transform="matrix(0, -1, 1, 0, 16.18, 71.2)" style="font-size:10.32345962524414px;fill:#fff;font-family:ArialMT, Arial">e</text><text transform="matrix(0, -1, 1, 0, 16.18, 76.73)" style="font-size:10.32345962524414px;fill:#fff;font-family:ArialMT, Arial">u</text><text transform="matrix(0, -1, 1, 0, 16.18, 84.08)" style="font-size:10.32345962524414px;fill:#fff;font-family:ArialMT, Arial">Q</text></g><polyline points="45.44 207.5 45.44 207.5 55.83 207.5 66.23 207.5 76.62 207.5 87.02 207.5 97.42 207.36 107.81 201.98 118.21 196.9 128.6 191.81 139 186.3 149.39 192.99 159.79 180.96 170.19 168.93 180.58 156.9 190.98 109.07 201.37 65.05 211.77 38.58 222.16 7.81" style="fill:none;stroke:#fff;stroke-linecap:round;stroke-linejoin:round;stroke-width:1.5181864500045776px"/><path d="M217.62,505.51h0a1.91,1.91,0,1,0-1.91,1.91,1.92,1.92,0,0,0,1.91-1.91Z" transform="translate(-170.27 -298)" style="fill:#fff"/><path d="M217.62,505.51h0a1.91,1.91,0,1,0-1.91,1.91,1.92,1.92,0,0,0,1.91-1.91Z" transform="translate(-170.27 -298)" style="fill:none;stroke:#fff;stroke-linecap:round;stroke-linejoin:round;stroke-width:1.1386398077011108px"/><path d="M228,505.51h0a1.92,1.92,0,1,0-1.92,1.91,1.92,1.92,0,0,0,1.92-1.91Z" transform="translate(-170.27 -298)" style="fill:#fff"/><path d="M228,505.51h0a1.92,1.92,0,1,0-1.92,1.91,1.92,1.92,0,0,0,1.92-1.91Z" transform="translate(-170.27 -298)" style="fill:none;stroke:#fff;stroke-linecap:round;stroke-linejoin:round;stroke-width:1.1386398077011108px"/><path d="M238.41,505.51h0a1.91,1.91,0,1,0-1.91,1.91,1.92,1.92,0,0,0,1.91-1.91Z" transform="translate(-170.27 -298)" style="fill:#fff"/><path d="M238.41,505.51h0a1.91,1.91,0,1,0-1.91,1.91,1.92,1.92,0,0,0,1.91-1.91Z" transform="translate(-170.27 -298)" style="fill:none;stroke:#fff;stroke-linecap:round;stroke-linejoin:round;stroke-width:1.1386398077011108px"/><path d="M248.81,505.51h0a1.92,1.92,0,1,0-1.92,1.91,1.92,1.92,0,0,0,1.92-1.91Z" transform="translate(-170.27 -298)" style="fill:#fff"/><path d="M248.81,505.51h0a1.92,1.92,0,1,0-1.92,1.91,1.92,1.92,0,0,0,1.92-1.91Z" transform="translate(-170.27 -298)" style="fill:none;stroke:#fff;stroke-linecap:round;stroke-linejoin:round;stroke-width:1.1386398077011108px"/><path d="M259.2,505.51h0a1.91,1.91,0,1,0-1.91,1.91,1.91,1.91,0,0,0,1.91-1.91Z" transform="translate(-170.27 -298)" style="fill:#fff"/><path d="M259.2,505.51h0a1.91,1.91,0,1,0-1.91,1.91,1.91,1.91,0,0,0,1.91-1.91Z" transform="translate(-170.27 -298)" style="fill:none;stroke:#fff;stroke-linecap:round;stroke-linejoin:round;stroke-width:1.1386398077011108px"/><path d="M269.6,505.36h0a1.92,1.92,0,1,0-1.91,1.92,1.91,1.91,0,0,0,1.91-1.92Z" transform="translate(-170.27 -298)" style="fill:#fff"/><path d="M269.6,505.36h0a1.92,1.92,0,1,0-1.91,1.92,1.91,1.91,0,0,0,1.91-1.92Z" transform="translate(-170.27 -298)" style="fill:none;stroke:#fff;stroke-linecap:round;stroke-linejoin:round;stroke-width:1.1386398077011108px"/><path d="M280,500h0a1.91,1.91,0,1,0-1.91,1.92A1.9,1.9,0,0,0,280,500Z" transform="translate(-170.27 -298)" style="fill:#fff"/><path d="M280,500h0a1.91,1.91,0,1,0-1.91,1.92A1.9,1.9,0,0,0,280,500Z" transform="translate(-170.27 -298)" style="fill:none;stroke:#fff;stroke-linecap:round;stroke-linejoin:round;stroke-width:1.1386398077011108px"/><path d="M290.39,494.9h0a1.92,1.92,0,1,0-1.91,1.91A1.91,1.91,0,0,0,290.39,494.9Z" transform="translate(-170.27 -298)" style="fill:#fff"/><path d="M290.39,494.9h0a1.92,1.92,0,1,0-1.91,1.91A1.91,1.91,0,0,0,290.39,494.9Z" transform="translate(-170.27 -298)" style="fill:none;stroke:#fff;stroke-linecap:round;stroke-linejoin:round;stroke-width:1.1386398077011108px"/><path d="M300.79,489.81h0a1.92,1.92,0,1,0-1.92,1.92,1.92,1.92,0,0,0,1.92-1.92Z" transform="translate(-170.27 -298)" style="fill:#fff"/><path d="M300.79,489.81h0a1.92,1.92,0,1,0-1.92,1.92,1.92,1.92,0,0,0,1.92-1.92Z" transform="translate(-170.27 -298)" style="fill:none;stroke:#fff;stroke-linecap:round;stroke-linejoin:round;stroke-width:1.1386398077011108px"/><path d="M311.18,484.3h0a1.92,1.92,0,1,0-1.91,1.91,1.91,1.91,0,0,0,1.91-1.91Z" transform="translate(-170.27 -298)" style="fill:#fff"/><path d="M311.18,484.3h0a1.92,1.92,0,1,0-1.91,1.91,1.91,1.91,0,0,0,1.91-1.91Z" transform="translate(-170.27 -298)" style="fill:none;stroke:#fff;stroke-linecap:round;stroke-linejoin:round;stroke-width:1.1386398077011108px"/><path d="M321.58,491h0a1.92,1.92,0,1,0-1.92,1.91A1.92,1.92,0,0,0,321.58,491Z" transform="translate(-170.27 -298)" style="fill:#fff"/><path d="M321.58,491h0a1.92,1.92,0,1,0-1.92,1.91A1.92,1.92,0,0,0,321.58,491Z" transform="translate(-170.27 -298)" style="fill:none;stroke:#fff;stroke-linecap:round;stroke-linejoin:round;stroke-width:1.1386398077011108px"/><path d="M332,479h0a1.91,1.91,0,1,0-1.91,1.91A1.91,1.91,0,0,0,332,479Z" transform="translate(-170.27 -298)" style="fill:#fff"/><path d="M332,479h0a1.91,1.91,0,1,0-1.91,1.91A1.91,1.91,0,0,0,332,479Z" transform="translate(-170.27 -298)" style="fill:none;stroke:#fff;stroke-linecap:round;stroke-linejoin:round;stroke-width:1.1386398077011108px"/><path d="M342.37,466.93h0a1.92,1.92,0,1,0-1.91,1.91,1.91,1.91,0,0,0,1.91-1.91Z" transform="translate(-170.27 -298)" style="fill:#fff"/><path d="M342.37,466.93h0a1.92,1.92,0,1,0-1.91,1.91,1.91,1.91,0,0,0,1.91-1.91Z" transform="translate(-170.27 -298)" style="fill:none;stroke:#fff;stroke-linecap:round;stroke-linejoin:round;stroke-width:1.1386398077011108px"/><path d="M352.76,454.9h0a1.91,1.91,0,1,0-1.91,1.91,1.9,1.9,0,0,0,1.91-1.91Z" transform="translate(-170.27 -298)" style="fill:#fff"/><path d="M352.76,454.9h0a1.91,1.91,0,1,0-1.91,1.91,1.9,1.9,0,0,0,1.91-1.91Z" transform="translate(-170.27 -298)" style="fill:none;stroke:#fff;stroke-linecap:round;stroke-linejoin:round;stroke-width:1.1386398077011108px"/><path d="M363.16,407.08h0a1.92,1.92,0,1,0-1.91,1.91,1.92,1.92,0,0,0,1.91-1.91Z" transform="translate(-170.27 -298)" style="fill:#fff"/><path d="M363.16,407.08h0a1.92,1.92,0,1,0-1.91,1.91,1.92,1.92,0,0,0,1.91-1.91Z" transform="translate(-170.27 -298)" style="fill:none;stroke:#fff;stroke-linecap:round;stroke-linejoin:round;stroke-width:1.1386398077011108px"/><path d="M373.55,363.05h0a1.91,1.91,0,1,0-1.91,1.92,1.91,1.91,0,0,0,1.91-1.92Z" transform="translate(-170.27 -298)" style="fill:#fff"/><path d="M373.55,363.05h0a1.91,1.91,0,1,0-1.91,1.92,1.91,1.91,0,0,0,1.91-1.92Z" transform="translate(-170.27 -298)" style="fill:none;stroke:#fff;stroke-linecap:round;stroke-linejoin:round;stroke-width:1.1386398077011108px"/><path d="M384,336.58h0a1.92,1.92,0,1,0-1.91,1.91,1.9,1.9,0,0,0,1.91-1.91Z" transform="translate(-170.27 -298)" style="fill:#fff"/><path d="M384,336.58h0a1.92,1.92,0,1,0-1.91,1.91,1.9,1.9,0,0,0,1.91-1.91Z" transform="translate(-170.27 -298)" style="fill:none;stroke:#fff;stroke-linecap:round;stroke-linejoin:round;stroke-width:1.1386398077011108px"/><path d="M394.35,305.81h0a1.92,1.92,0,1,0-1.92,1.91,1.92,1.92,0,0,0,1.92-1.91Z" transform="translate(-170.27 -298)" style="fill:#fff"/><path d="M394.35,305.81h0a1.92,1.92,0,1,0-1.92,1.91,1.92,1.92,0,0,0,1.92-1.91Z" transform="translate(-170.27 -298)" style="fill:none;stroke:#fff;stroke-linecap:round;stroke-linejoin:round;stroke-width:1.1386398077011108px"/><polyline points="45.44 207.5 45.44 207.5 55.83 207.5 66.23 207.5 76.62 207.5 87.02 207.5 97.42 207.36 107.81 203.46 118.21 199.9 128.6 195.31 139 189.63 149.39 195.92 159.79 183.5 170.19 171.07 180.58 158.65 190.98 142.91 201.37 130.14 211.77 104.97 222.16 51.87" style="fill:none;stroke:#fff;stroke-linecap:round;stroke-linejoin:round;stroke-width:1.5181864500045776px"/><path d="M217.53,503.68l-3.64,3.65m0-3.65,3.64,3.65" transform="translate(-170.27 -298)" style="fill:none;stroke:#fff;stroke-linecap:round;stroke-linejoin:round;stroke-width:1.3663678169250488px"/><path d="M227.92,503.68l-3.64,3.65m0-3.65,3.64,3.65" transform="translate(-170.27 -298)" style="fill:none;stroke:#fff;stroke-linecap:round;stroke-linejoin:round;stroke-width:1.3663678169250488px"/><path d="M238.32,503.68l-3.64,3.65m0-3.65,3.64,3.65" transform="translate(-170.27 -298)" style="fill:none;stroke:#fff;stroke-linecap:round;stroke-linejoin:round;stroke-width:1.3663678169250488px"/><path d="M248.72,503.68l-3.65,3.65m0-3.65,3.65,3.65" transform="translate(-170.27 -298)" style="fill:none;stroke:#fff;stroke-linecap:round;stroke-linejoin:round;stroke-width:1.3663678169250488px"/><path d="M259.11,503.68l-3.64,3.65m0-3.65,3.64,3.65" transform="translate(-170.27 -298)" style="fill:none;stroke:#fff;stroke-linecap:round;stroke-linejoin:round;stroke-width:1.3663678169250488px"/><path d="M269.51,503.54l-3.65,3.64m0-3.64,3.65,3.64" transform="translate(-170.27 -298)" style="fill:none;stroke:#fff;stroke-linecap:round;stroke-linejoin:round;stroke-width:1.3663678169250488px"/><path d="M279.9,499.64l-3.64,3.64m0-3.64,3.64,3.64" transform="translate(-170.27 -298)" style="fill:none;stroke:#fff;stroke-linecap:round;stroke-linejoin:round;stroke-width:1.3663678169250488px"/><path d="M290.3,496.08l-3.65,3.64m0-3.64,3.65,3.64" transform="translate(-170.27 -298)" style="fill:none;stroke:#fff;stroke-linecap:round;stroke-linejoin:round;stroke-width:1.3663678169250488px"/><path d="M300.69,491.49l-3.64,3.65m0-3.65,3.64,3.65" transform="translate(-170.27 -298)" style="fill:none;stroke:#fff;stroke-linecap:round;stroke-linejoin:round;stroke-width:1.3663678169250488px"/><path d="M311.09,485.81l-3.64,3.65m0-3.65,3.64,3.65" transform="translate(-170.27 -298)" style="fill:none;stroke:#fff;stroke-linecap:round;stroke-linejoin:round;stroke-width:1.3663678169250488px"/><path d="M321.49,492.1l-3.65,3.65m0-3.65,3.65,3.65" transform="translate(-170.27 -298)" style="fill:none;stroke:#fff;stroke-linecap:round;stroke-linejoin:round;stroke-width:1.3663678169250488px"/><path d="M331.88,479.68l-3.64,3.64m0-3.64,3.64,3.64" transform="translate(-170.27 -298)" style="fill:none;stroke:#fff;stroke-linecap:round;stroke-linejoin:round;stroke-width:1.3663678169250488px"/><path d="M342.28,467.25l-3.65,3.65m0-3.65,3.65,3.65" transform="translate(-170.27 -298)" style="fill:none;stroke:#fff;stroke-linecap:round;stroke-linejoin:round;stroke-width:1.3663678169250488px"/><path d="M352.67,454.83,349,458.47m0-3.64,3.64,3.64" transform="translate(-170.27 -298)" style="fill:none;stroke:#fff;stroke-linecap:round;stroke-linejoin:round;stroke-width:1.3663678169250488px"/><path d="M363.07,439.09l-3.65,3.65m0-3.65,3.65,3.65" transform="translate(-170.27 -298)" style="fill:none;stroke:#fff;stroke-linecap:round;stroke-linejoin:round;stroke-width:1.3663678169250488px"/><path d="M373.46,426.32,369.82,430m0-3.64,3.64,3.64" transform="translate(-170.27 -298)" style="fill:none;stroke:#fff;stroke-linecap:round;stroke-linejoin:round;stroke-width:1.3663678169250488px"/><path d="M383.86,401.15l-3.64,3.64m0-3.64,3.64,3.64" transform="translate(-170.27 -298)" style="fill:none;stroke:#fff;stroke-linecap:round;stroke-linejoin:round;stroke-width:1.3663678169250488px"/><path d="M394.26,348.05l-3.65,3.64m0-3.64,3.65,3.64" transform="translate(-170.27 -298)" style="fill:none;stroke:#fff;stroke-linecap:round;stroke-linejoin:round;stroke-width:1.3663678169250488px"/></g></g></svg>