<svg id="Layer_1" data-name="Layer 1" xmlns="http://www.w3.org/2000/svg" xmlns:xlink="http://www.w3.org/1999/xlink" width="91.41mm" height="91.5mm" viewBox="0 0 259.11 259.36"><defs><clipPath id="clip-path" transform="translate(-163.67 -291.36)"><rect x="163.44" y="291.13" width="256.2" height="256.2" style="fill:none"/></clipPath><clipPath id="clip-path-2" transform="translate(-163.67 -291.36)"><rect x="163.44" y="291.13" width="256.2" height="256.2" style="fill:none"/></clipPath><clipPath id="clip-path-3" transform="translate(-163.67 -291.36)"><rect x="163.67" y="291.36" width="255.83" height="255.84" style="fill:none"/></clipPath></defs><text transform="translate(256.32 256.32)" style="font-size:12px;fill:#fff;font-family:GoogleSans-Regular, Google Sans"> </text><g style="clip-path:url(#clip-path)"><g style="clip-path:url(#clip-path-2)"><g style="clip-path:url(#clip-path-3)"><line x1="46.37" x2="46.37" y2="255.84" style="fill:none;stroke:#fff;stroke-miterlimit:10;stroke-width:0.6395930051803589px;opacity:0.19607999920845032"/></g><g style="clip-path:url(#clip-path-3)"><line x1="69.39" x2="69.39" y2="255.84" style="fill:none;stroke:#fff;stroke-miterlimit:10;stroke-width:0.6395930051803589px;opacity:0.19607999920845032"/></g><g style="clip-path:url(#clip-path-3)"><line x1="92.42" x2="92.42" y2="255.84" style="fill:none;stroke:#fff;stroke-miterlimit:10;stroke-width:0.6395930051803589px;opacity:0.19607999920845032"/></g><g style="clip-path:url(#clip-path-3)"><line x1="116.08" x2="116.08" y2="255.84" style="fill:none;stroke:#fff;stroke-miterlimit:10;stroke-width:0.6395930051803589px;opacity:0.19607999920845032"/></g><g style="clip-path:url(#clip-path-3)"><line x1="139.11" x2="139.11" y2="255.84" style="fill:none;stroke:#fff;stroke-miterlimit:10;stroke-width:0.6395930051803589px;opacity:0.19607999920845032"/></g><g style="clip-path:url(#clip-path-3)"><line x1="162.77" x2="162.77" y2="255.84" style="fill:none;stroke:#fff;stroke-miterlimit:10;stroke-width:0.6395930051803589px;opacity:0.19607999920845032"/></g><g style="clip-path:url(#clip-path-3)"><line x1="185.8" x2="185.8" y2="255.84" style="fill:none;stroke:#fff;stroke-miterlimit:10;stroke-width:0.6395930051803589px;opacity:0.19607999920845032"/></g><g style="clip-path:url(#clip-path-3)"><line x1="208.82" x2="208.82" y2="255.84" style="fill:none;stroke:#fff;stroke-miterlimit:10;stroke-width:0.6395930051803589px;opacity:0.19607999920845032"/></g><g style="clip-path:url(#clip-path-3)"><line x1="232.49" x2="232.49" y2="255.84" style="fill:none;stroke:#fff;stroke-miterlimit:10;stroke-width:0.6395930051803589px;opacity:0.19607999920845032"/></g><g style="clip-path:url(#clip-path-3)"><line y1="248.49" x2="255.83" y2="248.49" style="fill:none;stroke:#fff;stroke-miterlimit:10;stroke-width:0.6395930051803589px;opacity:0.19607999920845032"/></g><g style="clip-path:url(#clip-path-3)"><line y1="233.78" x2="255.83" y2="233.78" style="fill:none;stroke:#fff;stroke-miterlimit:10;stroke-width:0.6395930051803589px;opacity:0.19607999920845032"/></g><g style="clip-path:url(#clip-path-3)"><line y1="204.35" x2="255.83" y2="204.35" style="fill:none;stroke:#fff;stroke-miterlimit:10;stroke-width:0.6395930051803589px;opacity:0.19607999920845032"/></g><g style="clip-path:url(#clip-path-3)"><line y1="189.64" x2="255.83" y2="189.64" style="fill:none;stroke:#fff;stroke-miterlimit:10;stroke-width:0.6395930051803589px;opacity:0.19607999920845032"/></g><g style="clip-path:url(#clip-path-3)"><line y1="174.93" x2="255.83" y2="174.93" style="fill:none;stroke:#fff;stroke-miterlimit:10;stroke-width:0.6395930051803589px;opacity:0.19607999920845032"/></g><g style="clip-path:url(#clip-path-3)"><line y1="160.22" x2="255.83" y2="160.22" style="fill:none;stroke:#fff;stroke-miterlimit:10;stroke-width:0.6395930051803589px;opacity:0.19607999920845032"/></g><g style="clip-path:url(#clip-path-3)"><line y1="146.15" x2="255.83" y2="146.15" style="fill:none;stroke:#fff;stroke-miterlimit:10;stroke-width:0.6395930051803589px;opacity:0.19607999920845032"/></g><g style="clip-path:url(#clip-path-3)"><line y1="131.44" x2="255.83" y2="131.44" style="fill:none;stroke:#fff;stroke-miterlimit:10;stroke-width:0.6395930051803589px;opacity:0.19607999920845032"/></g><g style="clip-path:url(#clip-path-3)"><line y1="116.73" x2="255.83" y2="116.73" style="fill:none;stroke:#fff;stroke-miterlimit:10;stroke-width:0.6395930051803589px;opacity:0.19607999920845032"/></g><g style="clip-path:url(#clip-path-3)"><line y1="102.02" x2="255.83" y2="102.02" style="fill:none;stroke:#fff;stroke-miterlimit:10;stroke-width:0.6395930051803589px;opacity:0.19607999920845032"/></g><g style="clip-path:url(#clip-path-3)"><line y1="87.31" x2="255.83" y2="87.31" style="fill:none;stroke:#fff;stroke-miterlimit:10;stroke-width:0.6395930051803589px;opacity:0.19607999920845032"/></g><g style="clip-path:url(#clip-path-3)"><line y1="72.6" x2="255.83" y2="72.6" style="fill:none;stroke:#fff;stroke-miterlimit:10;stroke-width:0.6395930051803589px;opacity:0.19607999920845032"/></g><g style="clip-path:url(#clip-path-3)"><line y1="57.88" x2="255.83" y2="57.88" style="fill:none;stroke:#fff;stroke-miterlimit:10;stroke-width:0.6395930051803589px;opacity:0.19607999920845032"/></g><g style="clip-path:url(#clip-path-3)"><line y1="43.81" x2="255.83" y2="43.81" style="fill:none;stroke:#fff;stroke-miterlimit:10;stroke-width:0.6395930051803589px;opacity:0.19607999920845032"/></g><g style="clip-path:url(#clip-path-3)"><line y1="29.1" x2="255.83" y2="29.1" style="fill:none;stroke:#fff;stroke-miterlimit:10;stroke-width:0.6395930051803589px;opacity:0.19607999920845032"/></g><g style="clip-path:url(#clip-path-3)"><line y1="14.39" x2="255.83" y2="14.39" style="fill:none;stroke:#fff;stroke-miterlimit:10;stroke-width:0.6395930051803589px;opacity:0.19607999920845032"/></g><g style="clip-path:url(#clip-path-3)"><line x1="139.11" x2="139.11" y2="255.84" style="fill:none;stroke:#fff;stroke-miterlimit:10;stroke-width:0.6395930051803589px;opacity:0.24706000089645386"/></g><g style="clip-path:url(#clip-path-3)"><line y1="146.15" x2="255.83" y2="146.15" style="fill:none;stroke:#fff;stroke-miterlimit:10;stroke-width:0.6395930051803589px;opacity:0.24706000089645386"/></g><g style="clip-path:url(#clip-path-3)"><line y1="72.6" x2="255.83" y2="72.6" style="fill:none;stroke:#fff;stroke-miterlimit:10;stroke-width:0.6395930051803589px;opacity:0.24706000089645386"/></g><g style="clip-path:url(#clip-path-3)"><line x1="23.02" x2="23.02" y2="255.84" style="fill:none;stroke:#fff;stroke-miterlimit:10;stroke-width:0.9593895673751831px;opacity:0.8980399966239929"/></g><g style="clip-path:url(#clip-path-3)"><line y1="219.38" x2="255.83" y2="219.38" style="fill:none;stroke:#fff;stroke-miterlimit:10;stroke-width:0.9593895673751831px;opacity:0.8980399966239929"/></g><g style="clip-path:url(#clip-path-3)"><text transform="translate(15 229.58)" style="font-size:8.95448112487793px;fill:#fff;font-family:ArialMT, Arial">0</text></g><g style="clip-path:url(#clip-path-3)"><text transform="translate(133.25 229.58)" style="font-size:8.95448112487793px;fill:#fff;font-family:ArialMT, Arial">0</text></g><g style="clip-path:url(#clip-path-3)"><text transform="translate(138.37 229.58)" style="font-size:8.95448112487793px;fill:#fff;font-family:ArialMT, Arial">.</text></g><g style="clip-path:url(#clip-path-3)"><text transform="translate(140.93 229.58)" style="font-size:8.95448112487793px;fill:#fff;font-family:ArialMT, Arial">5</text></g><g style="clip-path:url(#clip-path-3)"><text transform="translate(249.08 229.58)" style="font-size:8.95448112487793px;fill:#fff;font-family:ArialMT, Arial">1</text></g><g style="clip-path:url(#clip-path-3)"><text transform="translate(7.38 148.74)" style="font-size:8.95448112487793px;fill:#fff;font-family:ArialMT, Arial">0</text></g><g style="clip-path:url(#clip-path-3)"><text transform="translate(12.5 148.74)" style="font-size:8.95448112487793px;fill:#fff;font-family:ArialMT, Arial">.</text></g><g style="clip-path:url(#clip-path-3)"><text transform="translate(15.06 148.74)" style="font-size:8.95448112487793px;fill:#fff;font-family:ArialMT, Arial">1</text></g><g style="clip-path:url(#clip-path-3)"><text transform="translate(7.38 75.56)" style="font-size:8.95448112487793px;fill:#fff;font-family:ArialMT, Arial">0</text></g><g style="clip-path:url(#clip-path-3)"><text transform="translate(12.5 75.56)" style="font-size:8.95448112487793px;fill:#fff;font-family:ArialMT, Arial">.</text></g><g style="clip-path:url(#clip-path-3)"><text transform="translate(15.06 75.56)" style="font-size:8.95448112487793px;fill:#fff;font-family:ArialMT, Arial">2</text></g><g style="clip-path:url(#clip-path-3)"><text transform="translate(173.23 240.58)" style="font-size:10.937260627746582px;fill:#fff;font-family:ArialMT, Arial"><tspan style="letter-spacing:-0.14197309629695617em">T</tspan><tspan x="5.13" y="0" style="letter-spacing:0.015983134740349153em">r</tspan><tspan x="8.94" y="0" style="letter-spacing:-0.030001861858979417em">a</tspan><tspan x="14.7" y="0" style="letter-spacing:0.01294723205223814em">ff</tspan><tspan x="21.06" y="0" style="letter-spacing:0.010000620619659804em">i</tspan><tspan x="23.6" y="0" style="letter-spacing:0.024019347738290068em">c</tspan><tspan x="29.33" y="0" xml:space="preserve" style="letter-spacing:0.01294723205223814em"> I</tspan><tspan x="35.69" y="0" style="letter-spacing:-0.030091153114512093em">n</tspan><tspan x="41.45" y="0" style="letter-spacing:-0.04303838516675024em">t</tspan><tspan x="44.02" y="0" style="letter-spacing:-0.030001861858979417em">en</tspan><tspan x="55.53" y="0" style="letter-spacing:-0.030984065669838863em">s</tspan><tspan x="60.66" y="0" style="letter-spacing:0.010000620619659804em">i</tspan><tspan x="63.19" y="0" style="letter-spacing:-0.04303838516675024em">t</tspan><tspan x="65.76" y="0">y</tspan></text></g><g style="clip-path:url(#clip-path-3)"><text transform="matrix(0, -1, 1, 0, 32.84, 17.03)" style="font-size:10.872862815856934px;fill:#fff;font-family:ArialMT, Arial">e</text><text transform="matrix(0, -1, 1, 0, 32.84, 22.2)" style="font-size:10.872862815856934px;fill:#fff;font-family:ArialMT, Arial">z</text><text transform="matrix(0, -1, 1, 0, 32.84, 24.81)" style="font-size:10.872862815856934px;fill:#fff;font-family:ArialMT, Arial">i</text><text transform="matrix(0, -1, 1, 0, 32.84, 31.91)" style="font-size:10.872862815856934px;fill:#fff;font-family:ArialMT, Arial">S</text><text transform="matrix(0, -1, 1, 0, 32.84, 35.16)" style="font-size:10.872862815856934px;fill:#fff;font-family:ArialMT, Arial"> </text><text transform="matrix(0, -1, 1, 0, 32.84, 43.55)" style="font-size:10.872862815856934px;fill:#fff;font-family:ArialMT, Arial">m</text><text transform="matrix(0, -1, 1, 0, 32.84, 49.36)" style="font-size:10.872862815856934px;fill:#fff;font-family:ArialMT, Arial">e</text><text transform="matrix(0, -1, 1, 0, 32.84, 51.98)" style="font-size:10.872862815856934px;fill:#fff;font-family:ArialMT, Arial">t</text><text transform="matrix(0, -1, 1, 0, 32.84, 57.16)" style="font-size:10.872862815856934px;fill:#fff;font-family:ArialMT, Arial">s</text><text transform="matrix(0, -1, 1, 0, 32.84, 62.97)" style="font-size:10.872862815856934px;fill:#fff;font-family:ArialMT, Arial">y</text><text transform="matrix(0, -1, 1, 0, 32.84, 70.07)" style="font-size:10.872862815856934px;fill:#fff;font-family:ArialMT, Arial">S</text></g><polyline points="34.57 209.33 34.57 209.33 46.2 199.69 57.82 190.06 69.45 180.72 81.08 171.02 92.71 160.62 104.34 148.69 115.97 138.21 127.6 129.94 139.23 119.18 150.85 112.82 162.48 102.67 174.11 92.66 185.74 82.53 197.37 65.22 209 56.91 220.63 45.94 232.25 29.61" style="fill:none;stroke:#fff;stroke-linecap:round;stroke-linejoin:round;stroke-width:1.598982572555542px;opacity:0.8980399966239929"/><path d="M200.25,500.69h0a2,2,0,1,0-2,2,2,2,0,0,0,2-2Z" transform="translate(-163.67 -291.36)" style="fill:#fff;opacity:0.8980399966239929"/><path d="M200.25,500.69h0a2,2,0,1,0-2,2,2,2,0,0,0,2-2Z" transform="translate(-163.67 -291.36)" style="fill:none;stroke:#fff;stroke-linecap:round;stroke-linejoin:round;stroke-width:1.1992368698120117px;opacity:0.8980399966239929"/><path d="M211.88,491.05h0a2,2,0,1,0-2,2,2,2,0,0,0,2-2Z" transform="translate(-163.67 -291.36)" style="fill:#fff;opacity:0.8980399966239929"/><path d="M211.88,491.05h0a2,2,0,1,0-2,2,2,2,0,0,0,2-2Z" transform="translate(-163.67 -291.36)" style="fill:none;stroke:#fff;stroke-linecap:round;stroke-linejoin:round;stroke-width:1.1992368698120117px;opacity:0.8980399966239929"/><path d="M223.51,481.41h0a2,2,0,1,0-2,2,2,2,0,0,0,2-2Z" transform="translate(-163.67 -291.36)" style="fill:#fff;opacity:0.8980399966239929"/><path d="M223.51,481.41h0a2,2,0,1,0-2,2,2,2,0,0,0,2-2Z" transform="translate(-163.67 -291.36)" style="fill:none;stroke:#fff;stroke-linecap:round;stroke-linejoin:round;stroke-width:1.1992368698120117px;opacity:0.8980399966239929"/><path d="M235.14,472.08h0a2,2,0,1,0-2,2,2,2,0,0,0,2-2Z" transform="translate(-163.67 -291.36)" style="fill:#fff;opacity:0.8980399966239929"/><path d="M235.14,472.08h0a2,2,0,1,0-2,2,2,2,0,0,0,2-2Z" transform="translate(-163.67 -291.36)" style="fill:none;stroke:#fff;stroke-linecap:round;stroke-linejoin:round;stroke-width:1.1992368698120117px;opacity:0.8980399966239929"/><path d="M246.77,462.38h0a2,2,0,1,0-2,2,2,2,0,0,0,2-2Z" transform="translate(-163.67 -291.36)" style="fill:#fff;opacity:0.8980399966239929"/><path d="M246.77,462.38h0a2,2,0,1,0-2,2,2,2,0,0,0,2-2Z" transform="translate(-163.67 -291.36)" style="fill:none;stroke:#fff;stroke-linecap:round;stroke-linejoin:round;stroke-width:1.1992368698120117px;opacity:0.8980399966239929"/><path d="M258.4,452h0a2,2,0,1,0-2,2,2,2,0,0,0,2-2Z" transform="translate(-163.67 -291.36)" style="fill:#fff;opacity:0.8980399966239929"/><path d="M258.4,452h0a2,2,0,1,0-2,2,2,2,0,0,0,2-2Z" transform="translate(-163.67 -291.36)" style="fill:none;stroke:#fff;stroke-linecap:round;stroke-linejoin:round;stroke-width:1.1992368698120117px;opacity:0.8980399966239929"/><path d="M270,440.05h0a2,2,0,1,0-2,2,2,2,0,0,0,2-2Z" transform="translate(-163.67 -291.36)" style="fill:#fff;opacity:0.8980399966239929"/><path d="M270,440.05h0a2,2,0,1,0-2,2,2,2,0,0,0,2-2Z" transform="translate(-163.67 -291.36)" style="fill:none;stroke:#fff;stroke-linecap:round;stroke-linejoin:round;stroke-width:1.1992368698120117px;opacity:0.8980399966239929"/><path d="M281.65,429.57h0a2,2,0,1,0-2,2,2,2,0,0,0,2-2Z" transform="translate(-163.67 -291.36)" style="fill:#fff;opacity:0.8980399966239929"/><path d="M281.65,429.57h0a2,2,0,1,0-2,2,2,2,0,0,0,2-2Z" transform="translate(-163.67 -291.36)" style="fill:none;stroke:#fff;stroke-linecap:round;stroke-linejoin:round;stroke-width:1.1992368698120117px;opacity:0.8980399966239929"/><path d="M293.28,421.3h0a2,2,0,1,0-2,2,2,2,0,0,0,2-2Z" transform="translate(-163.67 -291.36)" style="fill:#fff;opacity:0.8980399966239929"/><path d="M293.28,421.3h0a2,2,0,1,0-2,2,2,2,0,0,0,2-2Z" transform="translate(-163.67 -291.36)" style="fill:none;stroke:#fff;stroke-linecap:round;stroke-linejoin:round;stroke-width:1.1992368698120117px;opacity:0.8980399966239929"/><path d="M304.91,410.54h0a2,2,0,1,0-2,2,2,2,0,0,0,2-2Z" transform="translate(-163.67 -291.36)" style="fill:#fff;opacity:0.8980399966239929"/><path d="M304.91,410.54h0a2,2,0,1,0-2,2,2,2,0,0,0,2-2Z" transform="translate(-163.67 -291.36)" style="fill:none;stroke:#fff;stroke-linecap:round;stroke-linejoin:round;stroke-width:1.1992368698120117px;opacity:0.8980399966239929"/><path d="M316.54,404.18h0a2,2,0,1,0-2,2A2,2,0,0,0,316.54,404.18Z" transform="translate(-163.67 -291.36)" style="fill:#fff;opacity:0.8980399966239929"/><path d="M316.54,404.18h0a2,2,0,1,0-2,2A2,2,0,0,0,316.54,404.18Z" transform="translate(-163.67 -291.36)" style="fill:none;stroke:#fff;stroke-linecap:round;stroke-linejoin:round;stroke-width:1.1992368698120117px;opacity:0.8980399966239929"/><path d="M328.17,394h0a2,2,0,1,0-2,2,2,2,0,0,0,2-2Z" transform="translate(-163.67 -291.36)" style="fill:#fff;opacity:0.8980399966239929"/><path d="M328.17,394h0a2,2,0,1,0-2,2,2,2,0,0,0,2-2Z" transform="translate(-163.67 -291.36)" style="fill:none;stroke:#fff;stroke-linecap:round;stroke-linejoin:round;stroke-width:1.1992368698120117px;opacity:0.8980399966239929"/><path d="M339.8,384h0a2,2,0,1,0-2,2,2,2,0,0,0,2-2Z" transform="translate(-163.67 -291.36)" style="fill:#fff;opacity:0.8980399966239929"/><path d="M339.8,384h0a2,2,0,1,0-2,2,2,2,0,0,0,2-2Z" transform="translate(-163.67 -291.36)" style="fill:none;stroke:#fff;stroke-linecap:round;stroke-linejoin:round;stroke-width:1.1992368698120117px;opacity:0.8980399966239929"/><path d="M351.42,373.89h0a2,2,0,1,0-2,2,2,2,0,0,0,2-2Z" transform="translate(-163.67 -291.36)" style="fill:#fff;opacity:0.8980399966239929"/><path d="M351.42,373.89h0a2,2,0,1,0-2,2,2,2,0,0,0,2-2Z" transform="translate(-163.67 -291.36)" style="fill:none;stroke:#fff;stroke-linecap:round;stroke-linejoin:round;stroke-width:1.1992368698120117px;opacity:0.8980399966239929"/><path d="M363.05,356.58h0a2,2,0,1,0-2,2A2,2,0,0,0,363.05,356.58Z" transform="translate(-163.67 -291.36)" style="fill:#fff;opacity:0.8980399966239929"/><path d="M363.05,356.58h0a2,2,0,1,0-2,2A2,2,0,0,0,363.05,356.58Z" transform="translate(-163.67 -291.36)" style="fill:none;stroke:#fff;stroke-linecap:round;stroke-linejoin:round;stroke-width:1.1992368698120117px;opacity:0.8980399966239929"/><path d="M374.68,348.27h0a2,2,0,1,0-2,2,2,2,0,0,0,2-2Z" transform="translate(-163.67 -291.36)" style="fill:#fff;opacity:0.8980399966239929"/><path d="M374.68,348.27h0a2,2,0,1,0-2,2,2,2,0,0,0,2-2Z" transform="translate(-163.67 -291.36)" style="fill:none;stroke:#fff;stroke-linecap:round;stroke-linejoin:round;stroke-width:1.1992368698120117px;opacity:0.8980399966239929"/><path d="M386.31,337.3h0a2,2,0,1,0-2,2A2,2,0,0,0,386.31,337.3Z" transform="translate(-163.67 -291.36)" style="fill:#fff;opacity:0.8980399966239929"/><path d="M386.31,337.3h0a2,2,0,1,0-2,2A2,2,0,0,0,386.31,337.3Z" transform="translate(-163.67 -291.36)" style="fill:none;stroke:#fff;stroke-linecap:round;stroke-linejoin:round;stroke-width:1.1992368698120117px;opacity:0.8980399966239929"/><path d="M397.94,321h0a2,2,0,1,0-2,2,2,2,0,0,0,2-2Z" transform="translate(-163.67 -291.36)" style="fill:#fff;opacity:0.8980399966239929"/><path d="M397.94,321h0a2,2,0,1,0-2,2,2,2,0,0,0,2-2Z" transform="translate(-163.67 -291.36)" style="fill:none;stroke:#fff;stroke-linecap:round;stroke-linejoin:round;stroke-width:1.1992368698120117px;opacity:0.8980399966239929"/><polyline points="34.57 209.33 34.57 209.33 46.2 199.69 57.82 190.06 69.45 180.72 81.08 171.02 92.71 160.62 104.34 146.63 115.97 137.18 127.6 128.87 139.23 117.07 150.85 111.75 162.48 101.58 174.11 91.54 185.74 81.39 197.37 60.78 209 48.43 220.63 36.43 232.25 24.37" style="fill:none;stroke:#fff;stroke-linecap:round;stroke-linejoin:round;stroke-width:1.598982572555542px;opacity:0.8980399966239929"/><path d="M200.16,498.77l-3.84,3.84m0-3.84,3.84,3.84" transform="translate(-163.67 -291.36)" style="fill:none;stroke:#fff;stroke-linecap:round;stroke-linejoin:round;stroke-width:1.4390842914581299px;opacity:0.8980399966239929"/><path d="M211.79,489.13,208,493m0-3.84,3.84,3.84" transform="translate(-163.67 -291.36)" style="fill:none;stroke:#fff;stroke-linecap:round;stroke-linejoin:round;stroke-width:1.4390842914581299px;opacity:0.8980399966239929"/><path d="M223.41,479.49l-3.83,3.84m0-3.84,3.83,3.84" transform="translate(-163.67 -291.36)" style="fill:none;stroke:#fff;stroke-linecap:round;stroke-linejoin:round;stroke-width:1.4390842914581299px;opacity:0.8980399966239929"/><path d="M235,470.16,231.21,474m0-3.84L235,474" transform="translate(-163.67 -291.36)" style="fill:none;stroke:#fff;stroke-linecap:round;stroke-linejoin:round;stroke-width:1.4390842914581299px;opacity:0.8980399966239929"/><path d="M246.67,460.46l-3.84,3.84m0-3.84,3.84,3.84" transform="translate(-163.67 -291.36)" style="fill:none;stroke:#fff;stroke-linecap:round;stroke-linejoin:round;stroke-width:1.4390842914581299px;opacity:0.8980399966239929"/><path d="M258.3,450.06l-3.84,3.83m0-3.83,3.84,3.83" transform="translate(-163.67 -291.36)" style="fill:none;stroke:#fff;stroke-linecap:round;stroke-linejoin:round;stroke-width:1.4390842914581299px;opacity:0.8980399966239929"/><path d="M269.93,436.07l-3.84,3.84m0-3.84,3.84,3.84" transform="translate(-163.67 -291.36)" style="fill:none;stroke:#fff;stroke-linecap:round;stroke-linejoin:round;stroke-width:1.4390842914581299px;opacity:0.8980399966239929"/><path d="M281.56,426.62l-3.84,3.83m0-3.83,3.84,3.83" transform="translate(-163.67 -291.36)" style="fill:none;stroke:#fff;stroke-linecap:round;stroke-linejoin:round;stroke-width:1.4390842914581299px;opacity:0.8980399966239929"/><path d="M293.19,418.3l-3.84,3.84m0-3.84,3.84,3.84" transform="translate(-163.67 -291.36)" style="fill:none;stroke:#fff;stroke-linecap:round;stroke-linejoin:round;stroke-width:1.4390842914581299px;opacity:0.8980399966239929"/><path d="M304.82,406.51,301,410.34m0-3.83,3.84,3.83" transform="translate(-163.67 -291.36)" style="fill:none;stroke:#fff;stroke-linecap:round;stroke-linejoin:round;stroke-width:1.4390842914581299px;opacity:0.8980399966239929"/><path d="M316.44,401.19,312.6,405m0-3.84,3.84,3.84" transform="translate(-163.67 -291.36)" style="fill:none;stroke:#fff;stroke-linecap:round;stroke-linejoin:round;stroke-width:1.4390842914581299px;opacity:0.8980399966239929"/><path d="M328.07,391l-3.84,3.84m0-3.84,3.84,3.84" transform="translate(-163.67 -291.36)" style="fill:none;stroke:#fff;stroke-linecap:round;stroke-linejoin:round;stroke-width:1.4390842914581299px;opacity:0.8980399966239929"/><path d="M339.7,381l-3.84,3.83m0-3.83,3.84,3.83" transform="translate(-163.67 -291.36)" style="fill:none;stroke:#fff;stroke-linecap:round;stroke-linejoin:round;stroke-width:1.4390842914581299px;opacity:0.8980399966239929"/><path d="M351.33,370.83l-3.84,3.83m0-3.83,3.84,3.83" transform="translate(-163.67 -291.36)" style="fill:none;stroke:#fff;stroke-linecap:round;stroke-linejoin:round;stroke-width:1.4390842914581299px;opacity:0.8980399966239929"/><path d="M363,350.22l-3.84,3.84m0-3.84,3.84,3.84" transform="translate(-163.67 -291.36)" style="fill:none;stroke:#fff;stroke-linecap:round;stroke-linejoin:round;stroke-width:1.4390842914581299px;opacity:0.8980399966239929"/><path d="M374.59,337.87l-3.84,3.84m0-3.84,3.84,3.84" transform="translate(-163.67 -291.36)" style="fill:none;stroke:#fff;stroke-linecap:round;stroke-linejoin:round;stroke-width:1.4390842914581299px;opacity:0.8980399966239929"/><path d="M386.22,325.87l-3.84,3.84m0-3.84,3.84,3.84" transform="translate(-163.67 -291.36)" style="fill:none;stroke:#fff;stroke-linecap:round;stroke-linejoin:round;stroke-width:1.4390842914581299px;opacity:0.8980399966239929"/><path d="M397.84,313.81,394,317.64m0-3.83,3.83,3.83" transform="translate(-163.67 -291.36)" style="fill:none;stroke:#fff;stroke-linecap:round;stroke-linejoin:round;stroke-width:1.4390842914581299px;opacity:0.8980399966239929"/></g></g></svg>